<svg xmlns="http://www.w3.org/2000/svg" xmlns:xlink="http://www.w3.org/1999/xlink" viewBox="0 0 284 729.275">
  <defs>
    <style>
      .cls-1 {
        fill: #727171;
      }

      .cls-2 {
        fill: #bce2e3;
      }

      .cls-3, .cls-7, .cls-9 {
        fill: #fff;
      }

      .cls-4 {
        fill: #74c6be;
      }

      .cls-5 {
        fill: #e0f1f2;
      }

      .cls-6 {
        fill: url(#linear-gradient);
      }

      .cls-7 {
        stroke: #f0f0f0;
      }

      .cls-11, .cls-8 {
        fill: none;
      }

      .cls-8 {
        stroke: #7a8d8d;
        stroke-dasharray: 1 5;
      }

      .cls-9 {
        stroke: #7a8c8c;
        stroke-width: 2px;
      }

      .cls-10 {
        stroke: none;
      }
    </style>
    <linearGradient id="linear-gradient" y1="0.485" x2="1" y2="0.5" gradientUnits="objectBoundingBox">
      <stop offset="0" stop-color="#b6d9c6"/>
      <stop offset="1" stop-color="#77b090"/>
    </linearGradient>
  </defs>
  <g id="그룹_1269" data-name="그룹 1269" transform="translate(-18 -1049.725)">
    <g id="그룹_585" data-name="그룹 585" transform="translate(117.538 1049.725)">
      <path id="패스_2044" data-name="패스 2044" class="cls-1" d="M105.847,74.91l.278,4.335L99.9,81.191l1.223-6.392a11.06,11.06,0,0,1,4.725-.167" transform="translate(-84.281 -33.056)"/>
      <path id="패스_2045" data-name="패스 2045" class="cls-2" d="M83.154,83.2s1,12.84,12.84,11.339l-6.059,9.282s-14.952-.667-12.951-18.676Z" transform="translate(-61.31 -36.955)"/>
      <path id="패스_2046" data-name="패스 2046" class="cls-3" d="M96.734,93.872a22.518,22.518,0,0,1-.556-8.727L102.4,83.2a16.9,16.9,0,0,0,2.168,6.614,3.3,3.3,0,0,0-3.946,1.945s-1.167,1.89-2.5,2Z" transform="translate(-80.559 -36.955)"/>
      <path id="패스_2047" data-name="패스 2047" class="cls-4" d="M12.346,22s9.56.778,11.561,33.906c0,0,0,4.28,3.835,3.946a2.354,2.354,0,0,1,2.39,2.057c.333,2.557-2.779,2.89-4.613,2.779a14.09,14.09,0,0,1-1.612-.222c-5.781-1.556-5.614-7.726-6.225-12.506-.778-5.781-.778-11.506-3-16.9-1.39-3.279-3.891-5.558-6.225-8.282Z" transform="translate(42.513 -9.772)"/>
      <path id="패스_2048" data-name="패스 2048" class="cls-2" d="M26.637,37.407c5.28-6.614,8.893-11.061,16.286-16.4.278-.167,8.226-5.892,8.449-5.614A16.169,16.169,0,0,1,49.259.278C57.318,4.113,58.43,10.95,58.43,10.95l1.945.167c5.892.778,6.67.5,6.67.5A19.531,19.531,0,0,1,76.884,0c5.892,10.95-3.668,18.62-3.668,18.62C80.385,22.233,81.5,52.748,81.5,52.8L83,90.767l.445,7.17s2.835,22.789-27.291,19.732a13.687,13.687,0,0,1-5.392-2.112,17.275,17.275,0,0,1-8.06-9.671,25.334,25.334,0,0,1-.778-5,29.254,29.254,0,0,1,0-5.836c.056-.278.5-3.113.667-3.446L46.48,70.09c1.056-5.225,2.057-10.394,3.113-15.619.889-3.557.723-3.613.889-3.724-4.5,1.779-10.116,1.89-14.9,1.556a9.915,9.915,0,0,1-6.614-3.335c-1.334-1.334-3.446-4.058-3.724-6a6.921,6.921,0,0,1,1.39-5.558" transform="translate(-20.134 0)"/>
      <path id="패스_2049" data-name="패스 2049" class="cls-3" d="M78.951,4.3s-1.39,6.726,1.89,10.672S83.175,7.8,78.951,4.3" transform="translate(-49.158 -1.91)"/>
      <path id="패스_2050" data-name="패스 2050" class="cls-3" d="M41.42,4.8s2.112,6.948-2.39,12.284c-3.946,4.669-2.668-8.06,2.39-12.284" transform="translate(15.052 -2.132)"/>
      <path id="패스_2051" data-name="패스 2051" class="cls-5" d="M103.311,59.4h0c-.056.111-.111.111-.111.111l.111-.111" transform="translate(-83.301 -26.384)"/>
      <path id="패스_2052" data-name="패스 2052" class="cls-4" d="M59.553,33.811A1.165,1.165,0,0,1,58.5,32.589l.056-.667v-.056c.333-2.557,1.278-4.169,4.613-3.891l3.279.278a1.142,1.142,0,0,1-.167,2.279L63,30.254c-1.556-.111-1.89,0-2.168,1.89l-.056.611a1.165,1.165,0,0,1-1.223,1.056" transform="translate(-22.646 -12.412)"/>
      <path id="패스_2053" data-name="패스 2053" class="cls-4" d="M56.153,29.852A1.165,1.165,0,0,1,55.1,28.629l.056-.611v-.056c.556-3.724,3.113-5.836,6.781-5.669l6,.445a1.142,1.142,0,0,1-.167,2.279l-5.947-.5c-3.113-.167-4.113,1.89-4.391,3.668l-.056.611a1.126,1.126,0,0,1-1.223,1.056" transform="translate(-22.247 -9.898)"/>
      <path id="패스_2054" data-name="패스 2054" class="cls-4" d="M52.353,25.953A1.165,1.165,0,0,1,51.3,24.73V24.4a8.333,8.333,0,0,1,8.949-7.615l8.893.723a1.142,1.142,0,0,1-.167,2.279l-8.893-.723a5.986,5.986,0,0,0-6.448,5.5V24.9a1.218,1.218,0,0,1-1.278,1.056" transform="translate(-21.338 -7.444)"/>
      <path id="패스_2055" data-name="패스 2055" class="cls-3" d="M82.2,53.916a.666.666,0,0,0,.222-.222c.889-.778,4.113-3.335,3.613-6.17,0,0,3.446-.333,8.782-4.224,0,0-5,3.835-3.335,6.726,0,.056-3.78,0-9.282,3.891" transform="translate(-63.135 -19.233)"/>
      <path id="패스_2056" data-name="패스 2056" class="cls-1" d="M4.5,77.176l-1,4.28,5.836,2.89-.167-6.5S6.446,76.62,4.5,76.954" transform="translate(66.089 -34.155)"/>
      <path id="패스_2057" data-name="패스 2057" class="cls-2" d="M18.007,85S14.95,97.506,3.5,94.06l4.447,10.172s14.841,1.779,15.841-16.286Z" transform="translate(51.638 -37.755)"/>
      <path id="패스_2058" data-name="패스 2058" class="cls-3" d="M10.559,96.45a21.569,21.569,0,0,0,1.945-8.5L6.724,85A16.766,16.766,0,0,1,3.5,91.17a3.321,3.321,0,0,1,3.613,2.612S8,95.839,9.281,96.172Z" transform="translate(62.921 -37.755)"/>
      <path id="패스_2059" data-name="패스 2059" class="cls-3" d="M34.162,109.667h0a.406.406,0,0,1-.333-.389,1.224,1.224,0,0,0-.056-.445.352.352,0,1,1,.667-.222,2.048,2.048,0,0,1,.056.834c0,.111-.167.222-.333.222" transform="translate(24.088 -48.137)"/>
      <path id="패스_2060" data-name="패스 2060" class="cls-3" d="M39.962,95.022h0a.423.423,0,0,1-.333-.445,1.224,1.224,0,0,0-.056-.445.352.352,0,1,1,.667-.222,2.119,2.119,0,0,1,.056.834c0,.222-.167.278-.333.278" transform="translate(15.065 -41.607)"/>
      <path id="패스_2061" data-name="패스 2061" class="cls-3" d="M33.362,95.622h0a.423.423,0,0,1-.333-.445,1.224,1.224,0,0,0-.056-.445.352.352,0,0,1,.667-.222,2.048,2.048,0,0,1,.056.834.311.311,0,0,1-.333.278" transform="translate(25.333 -41.874)"/>
      <path id="패스_2062" data-name="패스 2062" class="cls-3" d="M41.062,88.822h0a.423.423,0,0,1-.333-.445,1.224,1.224,0,0,0-.056-.445.352.352,0,1,1,.667-.222,2.048,2.048,0,0,1,.056.834.311.311,0,0,1-.333.278" transform="translate(13.353 -38.853)"/>
      <path id="패스_2063" data-name="패스 2063" class="cls-3" d="M34.362,81.622h0a.423.423,0,0,1-.333-.445,1.224,1.224,0,0,0-.056-.445.352.352,0,0,1,.667-.222,2.048,2.048,0,0,1,.056.834.311.311,0,0,1-.333.278" transform="translate(23.777 -35.655)"/>
      <path id="패스_2064" data-name="패스 2064" class="cls-3" d="M36.362,91.567h0a.406.406,0,0,1-.333-.389,1.224,1.224,0,0,0-.056-.445.352.352,0,1,1,.667-.222,2.048,2.048,0,0,1,.056.834.274.274,0,0,1-.333.222" transform="translate(20.665 -40.097)"/>
      <path id="패스_2065" data-name="패스 2065" class="cls-3" d="M37.062,76.618h0a.423.423,0,0,1-.333-.445,1.224,1.224,0,0,0-.056-.445.378.378,0,0,1,.222-.445.332.332,0,0,1,.445.222,2.119,2.119,0,0,1,.056.834.352.352,0,0,1-.334.278" transform="translate(19.576 -33.43)"/>
      <path id="패스_2066" data-name="패스 2066" class="cls-3" d="M39.262,82.322h0a.423.423,0,0,1-.333-.445,1.224,1.224,0,0,0-.056-.445.352.352,0,1,1,.667-.222,2.048,2.048,0,0,1,.056.834c0,.222-.111.333-.333.278" transform="translate(16.154 -35.966)"/>
      <path id="패스_2067" data-name="패스 2067" class="cls-3" d="M36.462,85.922h0a.423.423,0,0,1-.333-.445,1.224,1.224,0,0,0-.056-.445.352.352,0,0,1,.667-.222,2.048,2.048,0,0,1,.056.834c0,.167-.111.278-.333.278" transform="translate(20.51 -37.565)"/>
      <path id="패스_2068" data-name="패스 2068" class="cls-3" d="M35.462,100.122h0a.423.423,0,0,1-.333-.445,1.224,1.224,0,0,0-.056-.445.352.352,0,1,1,.667-.222,2.048,2.048,0,0,1,.056.834.278.278,0,0,1-.333.278" transform="translate(22.066 -43.873)"/>
      <path id="패스_2069" data-name="패스 2069" class="cls-3" d="M37.762,106.122h0a.423.423,0,0,1-.333-.445,1.224,1.224,0,0,0-.056-.445.352.352,0,1,1,.667-.222,2.048,2.048,0,0,1,.056.834.311.311,0,0,1-.333.278" transform="translate(18.487 -46.538)"/>
      <path id="패스_2070" data-name="패스 2070" class="cls-3" d="M33.362,104.422h0a.423.423,0,0,1-.333-.445,1.224,1.224,0,0,0-.056-.445.352.352,0,1,1,.667-.222,2.048,2.048,0,0,1,.056.834.311.311,0,0,1-.333.278" transform="translate(25.333 -45.782)"/>
      <path id="패스_2071" data-name="패스 2071" class="cls-3" d="M40.668,101.522h0a.423.423,0,0,1-.333-.445,1.224,1.224,0,0,0-.056-.445.332.332,0,0,1,.222-.445.378.378,0,0,1,.445.222,2.048,2.048,0,0,1,.056.834.311.311,0,0,1-.334.278" transform="translate(13.97 -44.494)"/>
      <path id="패스_2072" data-name="패스 2072" class="cls-3" d="M76.887,151.177a.369.369,0,0,1-.278-.222c-.056-.111-.222-.278-.278-.389a.362.362,0,1,1,.389-.611,1.418,1.418,0,0,1,.5.667.35.35,0,0,1-.167.445c-.056.111-.111.111-.167.111" transform="translate(-42.204 -66.579)"/>
      <path id="패스_2073" data-name="패스 2073" class="cls-3" d="M82.144,150.577a.369.369,0,0,1-.278-.222,2.353,2.353,0,0,0-.278-.389.362.362,0,1,1,.389-.611,1.418,1.418,0,0,1,.5.667.307.307,0,0,1-.167.445c-.056.056-.111.111-.167.111" transform="translate(-50.407 -66.313)"/>
      <path id="패스_2074" data-name="패스 2074" class="cls-3" d="M81.787,139.077a.369.369,0,0,1-.278-.222,2.353,2.353,0,0,0-.278-.389.362.362,0,0,1,.389-.611,1.418,1.418,0,0,1,.5.667.35.35,0,0,1-.167.445c-.056.111-.111.111-.167.111" transform="translate(-49.827 -61.205)"/>
      <path id="패스_2075" data-name="패스 2075" class="cls-3" d="M77.663,145.305a.369.369,0,0,1-.278-.222,1.689,1.689,0,0,0-.278-.389.425.425,0,0,1-.111-.5.352.352,0,0,1,.5-.056,1.417,1.417,0,0,1,.5.667.35.35,0,0,1-.167.445.2.2,0,0,1-.167.056" transform="translate(-43.424 -63.988)"/>
      <path id="패스_2076" data-name="패스 2076" class="cls-3" d="M81.651,144.377a.369.369,0,0,1-.278-.222,1.689,1.689,0,0,0-.278-.389.352.352,0,0,1-.056-.5.362.362,0,0,1,.5-.111,1.418,1.418,0,0,1,.5.667.35.35,0,0,1-.167.445c-.111.111-.167.111-.222.111" transform="translate(-49.691 -63.559)"/>
      <path id="패스_2077" data-name="패스 2077" class="cls-3" d="M76.887,140.677a.369.369,0,0,1-.278-.222c-.056-.111-.222-.278-.278-.389a.362.362,0,1,1,.389-.611,2.1,2.1,0,0,1,.556.667.35.35,0,0,1-.167.445.222.222,0,0,1-.222.111" transform="translate(-42.259 -61.916)"/>
      <path id="패스_2078" data-name="패스 2078" class="cls-3" d="M73.187,149.605a.284.284,0,0,1-.278-.222,2.352,2.352,0,0,0-.278-.389.362.362,0,0,1-.111-.5.352.352,0,0,1,.5-.056,1.418,1.418,0,0,1,.5.667.35.35,0,0,1-.167.445.2.2,0,0,1-.167.056" transform="translate(-36.447 -65.898)"/>
      <path id="패스_2079" data-name="패스 2079" class="cls-2" d="M15.1,197.2l18.064,11.784,2.779-3.668L23.382,188.2Z" transform="translate(33.034 -83.593)"/>
      <path id="패스_2080" data-name="패스 2080" class="cls-3" d="M19.668,207.6a3.262,3.262,0,0,1-2.835,3.557s-2.39.333-1.556,2.39L21.5,217.6l2.779-3.668Z" transform="translate(44.697 -92.21)"/>
      <path id="패스_2081" data-name="패스 2081" class="cls-1" d="M2.779,219l8.393,1.89-6.948,7.059L0,222.668Z" transform="translate(66.199 -97.273)"/>
      <path id="패스_2082" data-name="패스 2082" class="cls-2" d="M106,190.494l-21.121,4.391L83.6,190.494,101.553,179.1Z" transform="translate(-75.096 -79.551)"/>
      <path id="패스_2083" data-name="패스 2083" class="cls-3" d="M114.241,192a3.254,3.254,0,0,0,1.334,4.335s2.112,1.223.556,2.779l-7.281,1.5-1.278-4.391Z" transform="translate(-99.122 -85.281)"/>
      <path id="패스_2084" data-name="패스 2084" class="cls-1" d="M130.1,198.578l-8.5-1.278,3.946,9.06,5.836-3.391Z" transform="translate(-121.6 -87.635)"/>
      <path id="패스_2085" data-name="패스 2085" class="cls-4" d="M114.725,78.065,115,77.9a.8.8,0,0,0,.389-.556.957.957,0,0,0-.111-.667l-.056-.056A.946.946,0,0,0,114,76.341l-.056.056-.278.167a.439.439,0,0,1-.5-.723l.278-.167h0l.111-.056a1.822,1.822,0,0,1,2.39.556c0,.056.056.056.056.111a1.828,1.828,0,0,1-.611,2.39l-.278.167a.492.492,0,0,1-.611-.111.812.812,0,0,1,.222-.667" transform="translate(-101.663 -33.487)"/>
      <path id="패스_2086" data-name="패스 2086" class="cls-4" d="M122.949,71.653l.167-.278a.957.957,0,0,0,.111-.667.94.94,0,0,0-.389-.556l-.056-.056a.961.961,0,0,0-1.223.278l-.056.056-.167.278a.448.448,0,1,1-.778-.445l.167-.278h0l.056-.111a1.836,1.836,0,0,1,2.39-.556c.056,0,.056.056.111.056a1.848,1.848,0,0,1,.5,2.446l-.167.278a.447.447,0,0,1-.611.167.581.581,0,0,1-.056-.611" transform="translate(-113.667 -30.689)"/>
      <path id="패스_2087" data-name="패스 2087" class="cls-1" d="M94.285,42.047l.167-.333a1.111,1.111,0,0,0,.111-.723,1.019,1.019,0,0,0-.389-.556l-.056-.056a.924.924,0,0,0-1.278.333l-.056.056h0l-.167.333a.486.486,0,1,1-.834-.5l.167-.278c0-.056.056-.056.056-.111a1.933,1.933,0,0,1,2.557-.611c.056,0,.056.056.111.056a2.183,2.183,0,0,1,.834,1.167,1.789,1.789,0,0,1-.222,1.39l-.167.278a.465.465,0,0,1-.667.167c-.222-.056-.278-.333-.167-.611" transform="translate(-69.162 -17.479)"/>
      <path id="패스_2088" data-name="패스 2088" class="cls-1" d="M74.992,51.652l.222-.334a1.43,1.43,0,0,0,.056-.834,1.106,1.106,0,0,0-.445-.667l-.056-.056a1.128,1.128,0,0,0-1.445.334l-.056.056-.167.334a.535.535,0,0,1-.945-.5l.222-.333c0-.056.056-.056.056-.111a2.114,2.114,0,0,1,2.835-.667c.056,0,.056.056.111.056a2.092,2.092,0,0,1,.889,1.278,2.21,2.21,0,0,1-.222,1.556l-.167.333a.547.547,0,0,1-.723.222.465.465,0,0,1-.167-.667" transform="translate(-39.03 -21.582)"/>
    </g>
    <rect id="사각형_386" data-name="사각형 386" class="cls-6" width="144.14" height="67.57" rx="33.785" transform="translate(87.955 1123.83)"/>
    <rect id="사각형_233" data-name="사각형 233" class="cls-3" width="133.785" height="57.265" rx="28.633" transform="translate(93.2 1128.809)"/>
    <g id="사각형_234" data-name="사각형 234" class="cls-7" transform="translate(18 1215)">
      <rect class="cls-10" width="284" height="124" rx="30"/>
      <rect class="cls-11" x="0.5" y="0.5" width="283" height="123" rx="29.5"/>
    </g>
    <g id="사각형_238" data-name="사각형 238" class="cls-7" transform="translate(18 1361)">
      <rect class="cls-10" width="284" height="124" rx="30"/>
      <rect class="cls-11" x="0.5" y="0.5" width="283" height="123" rx="29.5"/>
    </g>
    <g id="사각형_239" data-name="사각형 239" class="cls-7" transform="translate(18 1508)">
      <rect class="cls-10" width="284" height="124" rx="30"/>
      <rect class="cls-11" x="0.5" y="0.5" width="283" height="123" rx="29.5"/>
    </g>
    <g id="사각형_240" data-name="사각형 240" class="cls-7" transform="translate(18 1655)">
      <rect class="cls-10" width="284" height="124" rx="30"/>
      <rect class="cls-11" x="0.5" y="0.5" width="283" height="123" rx="29.5"/>
    </g>
    <line id="선_44" data-name="선 44" class="cls-8" y1="30" transform="translate(160.5 1191.5)"/>
    <line id="선_45" data-name="선 45" class="cls-8" y1="30" transform="translate(160.5 1337.5)"/>
    <line id="선_46" data-name="선 46" class="cls-8" y1="30" transform="translate(160.5 1484.5)"/>
    <line id="선_47" data-name="선 47" class="cls-8" y1="30" transform="translate(160.5 1631.5)"/>
    <g id="타원_61" data-name="타원 61" class="cls-9" transform="translate(156 1219)">
      <circle class="cls-10" cx="4.5" cy="4.5" r="4.5"/>
      <circle class="cls-11" cx="4.5" cy="4.5" r="3.5"/>
    </g>
    <g id="타원_62" data-name="타원 62" class="cls-9" transform="translate(156 1365)">
      <circle class="cls-10" cx="4.5" cy="4.5" r="4.5"/>
      <circle class="cls-11" cx="4.5" cy="4.5" r="3.5"/>
    </g>
    <g id="타원_63" data-name="타원 63" class="cls-9" transform="translate(156 1512)">
      <circle class="cls-10" cx="4.5" cy="4.5" r="4.5"/>
      <circle class="cls-11" cx="4.5" cy="4.5" r="3.5"/>
    </g>
    <g id="타원_64" data-name="타원 64" class="cls-9" transform="translate(156 1659)">
      <circle class="cls-10" cx="4.5" cy="4.5" r="4.5"/>
      <circle class="cls-11" cx="4.5" cy="4.5" r="3.5"/>
    </g>
  </g>
</svg>
