<svg xmlns="http://www.w3.org/2000/svg" xmlns:xlink="http://www.w3.org/1999/xlink" viewBox="0 0 901 330.275">
  <defs>
    <style>
      .cls-1 {
        fill: #727171;
      }

      .cls-2 {
        fill: #bce2e3;
      }

      .cls-11, .cls-12, .cls-13, .cls-3, .cls-7 {
        fill: #fff;
      }

      .cls-4 {
        fill: #74c6be;
      }

      .cls-5 {
        fill: #e0f1f2;
      }

      .cls-6 {
        fill: url(#linear-gradient);
      }

      .cls-7 {
        stroke: #f0f0f0;
      }

      .cls-10, .cls-15, .cls-8, .cls-9 {
        fill: none;
      }

      .cls-8 {
        stroke: #7a8d8d;
      }

      .cls-10, .cls-8, .cls-9 {
        stroke-dasharray: 1 5;
      }

      .cls-12, .cls-9 {
        stroke: #bec7c7;
      }

      .cls-10, .cls-13 {
        stroke: #c0c9c9;
      }

      .cls-11 {
        stroke: #7a8c8c;
      }

      .cls-11, .cls-12, .cls-13 {
        stroke-width: 2px;
      }

      .cls-14 {
        stroke: none;
      }
    </style>
    <linearGradient id="linear-gradient" y1="0.485" x2="1" y2="0.5" gradientUnits="objectBoundingBox">
      <stop offset="0" stop-color="#b6d9c6"/>
      <stop offset="1" stop-color="#77b090"/>
    </linearGradient>
  </defs>
  <g id="그룹_1271" data-name="그룹 1271" transform="translate(-251 -914.725)">
    <g id="그룹_518" data-name="그룹 518" transform="translate(631.538 914.725)">
      <path id="패스_2044" data-name="패스 2044" class="cls-1" d="M109.17,75.183l.433,6.757-9.7,3.032,1.906-9.963s4.418-1.126,7.364-.26" transform="translate(-75.556 -9.948)"/>
      <path id="패스_2045" data-name="패스 2045" class="cls-2" d="M86.7,83.2s1.559,20.012,20.012,17.673l-9.443,14.468s-23.3-1.04-20.185-29.109Z" transform="translate(-52.657 -11.122)"/>
      <path id="패스_2046" data-name="패스 2046" class="cls-3" d="M97.144,99.833a35.1,35.1,0,0,1-.866-13.6l9.7-3.032a26.332,26.332,0,0,0,3.379,10.309s-4.5-1.213-6.151,3.032c0,0-1.819,2.946-3.9,3.119Z" transform="translate(-71.934 -11.122)"/>
      <path id="패스_2047" data-name="패스 2047" class="cls-4" d="M14.52,22s14.9,1.213,18.02,52.846c0,0,0,6.671,5.978,6.151A3.669,3.669,0,0,1,42.242,84.2c.52,3.985-4.332,4.5-7.191,4.332a21.962,21.962,0,0,1-2.512-.347c-9.01-2.426-8.75-12.042-9.7-19.492-1.213-9.01-1.213-17.933-4.678-26.336-2.166-5.111-6.064-8.663-9.7-12.908Z" transform="translate(70.986 -2.941)"/>
      <path id="패스_2048" data-name="패스 2048" class="cls-2" d="M27.455,58.3c8.23-10.309,13.861-17.24,25.383-25.557.433-.26,12.822-9.183,13.168-8.75C57.6,11.7,62.714.433,62.714.433,75.276,6.411,77.009,17.067,77.009,17.067l3.032.26c9.183,1.213,10.4.78,10.4.78A30.441,30.441,0,0,1,105.771,0c9.183,17.067-5.718,29.022-5.718,29.022,11.176,5.631,12.908,53.192,12.908,53.279l2.339,59.17.693,11.176s4.418,35.519-42.537,30.755c-2.946-.26-5.891-1.819-8.4-3.292-5.8-3.465-10.656-8.577-12.562-15.074a39.486,39.486,0,0,1-1.213-7.8,45.6,45.6,0,0,1,0-9.1c.087-.433.78-4.851,1.04-5.371l6.064-33.527c1.646-8.143,3.205-16.2,4.851-24.344,1.386-5.544,1.126-5.631,1.386-5.8C57.6,81.868,48.853,82.041,41.4,81.521c-4.158-.26-7.45-2.252-10.309-5.2-2.079-2.079-5.371-6.324-5.8-9.356-.433-3.9.347-6.324,2.166-8.663" transform="translate(-17.319 0)"/>
      <path id="패스_2049" data-name="패스 2049" class="cls-3" d="M79.114,4.3S76.948,14.783,82.06,20.933,85.7,9.758,79.114,4.3" transform="translate(-32.679 -0.575)"/>
      <path id="패스_2050" data-name="패스 2050" class="cls-3" d="M44.051,4.8s3.292,10.829-3.725,19.146C34.175,31.223,36.168,11.384,44.051,4.8" transform="translate(43.967 -0.642)"/>
      <path id="패스_2051" data-name="패스 2051" class="cls-5" d="M103.373,59.4h0c-.087.173-.173.173-.173.173l.173-.173" transform="translate(-72.186 -7.94)"/>
      <path id="패스_2052" data-name="패스 2052" class="cls-4" d="M60.145,37.089A1.816,1.816,0,0,1,58.5,35.183l.087-1.04v-.087c.52-3.985,1.993-6.5,7.191-6.064l5.111.433a1.781,1.781,0,0,1-.26,3.552l-5.111-.433c-2.426-.173-2.946,0-3.379,2.946l-.087.953a1.816,1.816,0,0,1-1.906,1.646" transform="translate(-2.621 -3.735)"/>
      <path id="패스_2053" data-name="패스 2053" class="cls-4" d="M56.745,34.08A1.816,1.816,0,0,1,55.1,32.174l.087-.953v-.087c.866-5.8,4.851-9.1,10.569-8.837l9.356.693a1.781,1.781,0,0,1-.26,3.552l-9.27-.78c-4.851-.26-6.411,2.946-6.844,5.718l-.087.953a1.756,1.756,0,0,1-1.906,1.646" transform="translate(-3.9 -2.979)"/>
      <path id="패스_2054" data-name="패스 2054" class="cls-4" d="M52.945,31.089A1.816,1.816,0,0,1,51.3,29.183v-.52A12.988,12.988,0,0,1,65.247,16.795l13.861,1.126a1.781,1.781,0,0,1-.26,3.552L64.987,20.346a9.329,9.329,0,0,0-10.049,8.577v.52a1.9,1.9,0,0,1-1.993,1.646" transform="translate(-4.605 -2.24)"/>
      <path id="패스_2055" data-name="패스 2055" class="cls-3" d="M82.2,59.847a1.038,1.038,0,0,0,.347-.347c1.386-1.213,6.411-5.2,5.631-9.616,0,0,5.371-.52,13.688-6.584,0,0-7.8,5.978-5.2,10.483,0,.087-5.891,0-14.468,6.064" transform="translate(-52.485 -5.788)"/>
      <path id="패스_2056" data-name="패스 2056" class="cls-1" d="M5.059,77.333,3.5,84l9.1,4.5-.26-10.136s-4.245-1.906-7.277-1.386" transform="translate(104.963 -10.279)"/>
      <path id="패스_2057" data-name="패스 2057" class="cls-2" d="M26.111,85S21.346,104.492,3.5,99.121l6.931,15.854s23.131,2.772,24.69-25.383Z" transform="translate(82.439 -11.362)"/>
      <path id="패스_2058" data-name="패스 2058" class="cls-3" d="M14.5,102.846a33.618,33.618,0,0,0,3.032-13.255L8.525,85A26.132,26.132,0,0,1,3.5,94.616a5.177,5.177,0,0,1,5.631,4.072s1.386,3.205,3.379,3.725Z" transform="translate(100.025 -11.362)"/>
      <path id="패스_2059" data-name="패스 2059" class="cls-3" d="M34.388,110.389h0a.633.633,0,0,1-.52-.606,1.908,1.908,0,0,0-.087-.693.548.548,0,1,1,1.04-.347,3.193,3.193,0,0,1,.087,1.3c0,.173-.26.347-.52.347" transform="translate(56.403 -14.487)"/>
      <path id="패스_2060" data-name="패스 2060" class="cls-3" d="M40.188,95.776h0a.659.659,0,0,1-.52-.693,1.908,1.908,0,0,0-.087-.693.548.548,0,0,1,1.04-.347,3.3,3.3,0,0,1,.087,1.3c0,.347-.26.433-.52.433" transform="translate(45.578 -12.522)"/>
      <path id="패스_2061" data-name="패스 2061" class="cls-3" d="M33.588,96.376h0a.659.659,0,0,1-.52-.693,1.908,1.908,0,0,0-.087-.693.548.548,0,0,1,1.04-.347,3.193,3.193,0,0,1,.087,1.3.485.485,0,0,1-.52.433" transform="translate(57.896 -12.602)"/>
      <path id="패스_2062" data-name="패스 2062" class="cls-3" d="M41.288,89.576h0a.659.659,0,0,1-.52-.693,1.908,1.908,0,0,0-.087-.693.548.548,0,1,1,1.04-.347,3.193,3.193,0,0,1,.087,1.3.485.485,0,0,1-.52.433" transform="translate(43.525 -11.693)"/>
      <path id="패스_2063" data-name="패스 2063" class="cls-3" d="M34.588,82.376h0a.659.659,0,0,1-.52-.693,1.908,1.908,0,0,0-.087-.693.548.548,0,0,1,1.04-.347,3.193,3.193,0,0,1,.087,1.3.485.485,0,0,1-.52.433" transform="translate(56.029 -10.731)"/>
      <path id="패스_2064" data-name="패스 2064" class="cls-3" d="M36.588,92.289h0a.633.633,0,0,1-.52-.606,1.908,1.908,0,0,0-.087-.693.548.548,0,1,1,1.04-.347,3.193,3.193,0,0,1,.087,1.3.427.427,0,0,1-.52.347" transform="translate(52.297 -12.067)"/>
      <path id="패스_2065" data-name="패스 2065" class="cls-3" d="M37.288,77.374h0a.659.659,0,0,1-.52-.693,1.907,1.907,0,0,0-.087-.693.589.589,0,0,1,.347-.693.517.517,0,0,1,.693.347,3.3,3.3,0,0,1,.087,1.3.549.549,0,0,1-.52.433" transform="translate(50.99 -10.061)"/>
      <path id="패스_2066" data-name="패스 2066" class="cls-3" d="M39.488,83.076h0a.659.659,0,0,1-.52-.693,1.908,1.908,0,0,0-.087-.693.548.548,0,1,1,1.04-.347,3.193,3.193,0,0,1,.087,1.3c0,.347-.173.52-.52.433" transform="translate(46.884 -10.824)"/>
      <path id="패스_2067" data-name="패스 2067" class="cls-3" d="M36.688,86.676h0a.659.659,0,0,1-.52-.693,1.908,1.908,0,0,0-.087-.693.548.548,0,1,1,1.04-.347,3.193,3.193,0,0,1,.087,1.3c0,.26-.173.433-.52.433" transform="translate(52.11 -11.305)"/>
      <path id="패스_2068" data-name="패스 2068" class="cls-3" d="M35.688,100.876h0a.659.659,0,0,1-.52-.693,1.908,1.908,0,0,0-.087-.693.548.548,0,1,1,1.04-.347,3.193,3.193,0,0,1,.087,1.3.434.434,0,0,1-.52.433" transform="translate(53.976 -13.204)"/>
      <path id="패스_2069" data-name="패스 2069" class="cls-3" d="M37.988,106.876h0a.659.659,0,0,1-.52-.693,1.907,1.907,0,0,0-.087-.693.548.548,0,1,1,1.04-.347,3.193,3.193,0,0,1,.087,1.3.485.485,0,0,1-.52.433" transform="translate(49.684 -14.006)"/>
      <path id="패스_2070" data-name="패스 2070" class="cls-3" d="M33.588,105.176h0a.659.659,0,0,1-.52-.693,1.908,1.908,0,0,0-.087-.693.548.548,0,0,1,1.04-.347,3.193,3.193,0,0,1,.087,1.3.485.485,0,0,1-.52.433" transform="translate(57.896 -13.778)"/>
      <path id="패스_2071" data-name="패스 2071" class="cls-3" d="M40.9,102.276h0a.659.659,0,0,1-.52-.693,1.908,1.908,0,0,0-.087-.693.517.517,0,0,1,.347-.693.589.589,0,0,1,.693.347,3.193,3.193,0,0,1,.087,1.3.485.485,0,0,1-.52.433" transform="translate(44.263 -13.391)"/>
      <path id="패스_2072" data-name="패스 2072" class="cls-3" d="M77.292,151.892a.576.576,0,0,1-.433-.347c-.087-.173-.347-.433-.433-.606a.565.565,0,0,1,.606-.953,2.21,2.21,0,0,1,.78,1.04.546.546,0,0,1-.26.693c-.087.173-.173.173-.26.173" transform="translate(-23.234 -20.037)"/>
      <path id="패스_2073" data-name="패스 2073" class="cls-3" d="M82.549,151.292a.576.576,0,0,1-.433-.347,3.668,3.668,0,0,0-.433-.606.565.565,0,1,1,.606-.953,2.209,2.209,0,0,1,.78,1.04.479.479,0,0,1-.26.693c-.087.087-.173.173-.26.173" transform="translate(-33.082 -19.957)"/>
      <path id="패스_2074" data-name="패스 2074" class="cls-3" d="M82.192,139.792a.576.576,0,0,1-.433-.347,3.668,3.668,0,0,0-.433-.606.565.565,0,1,1,.606-.953,2.209,2.209,0,0,1,.78,1.04.546.546,0,0,1-.26.693c-.087.173-.173.173-.26.173" transform="translate(-32.379 -18.42)"/>
      <path id="패스_2075" data-name="패스 2075" class="cls-3" d="M78.054,146a.576.576,0,0,1-.433-.347,2.632,2.632,0,0,0-.433-.606.662.662,0,0,1-.173-.78.548.548,0,0,1,.78-.087,2.209,2.209,0,0,1,.78,1.04.546.546,0,0,1-.26.693.318.318,0,0,1-.26.087" transform="translate(-24.689 -19.257)"/>
      <path id="패스_2076" data-name="패스 2076" class="cls-3" d="M82.036,145.092a.575.575,0,0,1-.433-.346,2.632,2.632,0,0,0-.433-.606.548.548,0,0,1-.087-.78.564.564,0,0,1,.78-.173,2.21,2.21,0,0,1,.78,1.04.546.546,0,0,1-.26.693c-.173.173-.26.173-.347.173" transform="translate(-32.223 -19.128)"/>
      <path id="패스_2077" data-name="패스 2077" class="cls-3" d="M77.292,141.392a.576.576,0,0,1-.433-.347c-.087-.173-.347-.433-.433-.606a.565.565,0,1,1,.606-.953,3.27,3.27,0,0,1,.866,1.04.546.546,0,0,1-.26.693.346.346,0,0,1-.347.173" transform="translate(-23.321 -18.634)"/>
      <path id="패스_2078" data-name="패스 2078" class="cls-3" d="M73.592,150.3a.442.442,0,0,1-.433-.347,3.667,3.667,0,0,0-.433-.606.564.564,0,0,1-.173-.78.548.548,0,0,1,.78-.087,2.209,2.209,0,0,1,.78,1.04.546.546,0,0,1-.26.693.318.318,0,0,1-.26.087" transform="translate(-16.329 -19.832)"/>
      <path id="패스_2079" data-name="패스 2079" class="cls-2" d="M15.1,202.234,43.256,220.6l4.332-5.718L28.008,188.2Z" transform="translate(59.923 -25.157)"/>
      <path id="패스_2080" data-name="패스 2080" class="cls-3" d="M22.219,207.6s.433,4.851-4.418,5.544c0,0-3.725.52-2.426,3.725l9.7,6.324,4.332-5.718Z" transform="translate(78.1 -27.751)"/>
      <path id="패스_2081" data-name="패스 2081" class="cls-1" d="M4.332,219l13.082,2.945-10.829,11L0,224.718Z" transform="translate(103.178 -29.275)"/>
      <path id="패스_2082" data-name="패스 2082" class="cls-2" d="M118.513,196.86,85.593,203.7,83.6,196.86l27.982-17.76Z" transform="translate(-70.345 -23.941)"/>
      <path id="패스_2083" data-name="패스 2083" class="cls-3" d="M117.967,192s-2.166,4.418,2.079,6.757c0,0,3.292,1.906.866,4.332l-11.349,2.339-1.993-6.844Z" transform="translate(-94.403 -25.665)"/>
      <path id="패스_2084" data-name="패스 2084" class="cls-1" d="M134.855,199.293,121.6,197.3l6.151,14.121,9.1-5.285Z" transform="translate(-121.6 -26.374)"/>
      <path id="패스_2085" data-name="패스 2085" class="cls-4" d="M115.689,79.557l.433-.26a1.252,1.252,0,0,0,.606-.866,1.491,1.491,0,0,0-.173-1.04l-.087-.087a1.475,1.475,0,0,0-1.906-.433l-.087.087-.433.26a.685.685,0,1,1-.78-1.126l.433-.26h0l.173-.087a2.84,2.84,0,0,1,3.725.866c0,.087.087.087.087.173a2.85,2.85,0,0,1-.953,3.725l-.433.26a.767.767,0,0,1-.953-.173,1.265,1.265,0,0,1,.347-1.04" transform="translate(-95.33 -10.078)"/>
      <path id="패스_2086" data-name="패스 2086" class="cls-4" d="M124.315,73.084l.26-.433a1.491,1.491,0,0,0,.173-1.04,1.465,1.465,0,0,0-.606-.866l-.087-.087a1.5,1.5,0,0,0-1.906.433l-.087.087-.26.433a.7.7,0,1,1-1.213-.693l.26-.433h0l.087-.173a2.861,2.861,0,0,1,3.725-.866c.087,0,.087.087.173.087a2.88,2.88,0,0,1,.78,3.812l-.26.433a.7.7,0,0,1-.953.26.9.9,0,0,1-.087-.953" transform="translate(-109.848 -9.236)"/>
      <path id="패스_2087" data-name="패스 2087" class="cls-1" d="M95.727,43.552l.26-.52a1.732,1.732,0,0,0,.173-1.126,1.589,1.589,0,0,0-.606-.866l-.087-.087a1.44,1.44,0,0,0-1.993.52l-.087.087h0l-.26.52a.758.758,0,1,1-1.3-.78l.26-.433c0-.087.087-.087.087-.173a3.013,3.013,0,0,1,3.985-.953c.087,0,.087.087.173.087a3.4,3.4,0,0,1,1.3,1.819,2.788,2.788,0,0,1-.347,2.166l-.26.433a.725.725,0,0,1-1.04.26c-.347-.087-.433-.52-.26-.953" transform="translate(-56.569 -5.26)"/>
      <path id="패스_2088" data-name="패스 2088" class="cls-1" d="M76.605,53.363l.347-.52a2.229,2.229,0,0,0,.087-1.3,1.724,1.724,0,0,0-.693-1.04l-.087-.087a1.758,1.758,0,0,0-2.252.52l-.087.087-.26.52a.833.833,0,1,1-1.473-.78l.347-.52c0-.087.087-.087.087-.173a3.3,3.3,0,0,1,4.418-1.04c.087,0,.087.087.173.087A3.261,3.261,0,0,1,78.6,51.111a3.444,3.444,0,0,1-.347,2.426l-.26.52a.852.852,0,0,1-1.126.347.725.725,0,0,1-.26-1.04" transform="translate(-20.555 -6.495)"/>
    </g>
    <rect id="사각형_213" data-name="사각형 213" class="cls-6" width="205.14" height="85.57" rx="42.785" transform="translate(596.955 1042.83)"/>
    <rect id="사각형_214" data-name="사각형 214" class="cls-3" width="192.734" height="73.164" rx="36.582" transform="translate(603.344 1049.033)"/>
    <g id="사각형_215" data-name="사각형 215" class="cls-7" transform="translate(251 918)">
      <rect class="cls-14" width="284" height="143" rx="40"/>
      <rect class="cls-15" x="0.5" y="0.5" width="283" height="142" rx="39.5"/>
    </g>
    <g id="사각형_254" data-name="사각형 254" class="cls-7" transform="translate(868 918)">
      <rect class="cls-14" width="284" height="143" rx="40"/>
      <rect class="cls-15" x="0.5" y="0.5" width="283" height="142" rx="39.5"/>
    </g>
    <g id="사각형_253" data-name="사각형 253" class="cls-7" transform="translate(251 1102)">
      <rect class="cls-14" width="284" height="143" rx="40"/>
      <rect class="cls-15" x="0.5" y="0.5" width="283" height="142" rx="39.5"/>
    </g>
    <g id="사각형_255" data-name="사각형 255" class="cls-7" transform="translate(868 1102)">
      <rect class="cls-14" width="284" height="143" rx="40"/>
      <rect class="cls-15" x="0.5" y="0.5" width="283" height="142" rx="39.5"/>
    </g>
    <line id="선_33" data-name="선 33" class="cls-8" y1="64" x2="92" transform="translate(791.5 987.5)"/>
    <line id="선_36" data-name="선 36" class="cls-9" y1="60" x2="87" transform="translate(606 1178) rotate(180)"/>
    <line id="선_34" data-name="선 34" class="cls-8" x2="92" y2="63.788" transform="translate(791.5 1115.5)"/>
    <line id="선_35" data-name="선 35" class="cls-10" x1="87.5" y1="61.288" transform="translate(519 988.212)"/>
    <g id="타원_48" data-name="타원 48" class="cls-11" transform="translate(877 985)">
      <circle class="cls-14" cx="4" cy="4" r="4"/>
      <circle class="cls-15" cx="4" cy="4" r="3"/>
    </g>
    <g id="타원_51" data-name="타원 51" class="cls-12" transform="translate(525.5 1180.5) rotate(180)">
      <circle class="cls-14" cx="4" cy="4" r="4"/>
      <circle class="cls-15" cx="4" cy="4" r="3"/>
    </g>
    <g id="타원_49" data-name="타원 49" class="cls-11" transform="translate(877 1173.422)">
      <ellipse class="cls-14" cx="4" cy="4.039" rx="4" ry="4.039"/>
      <ellipse class="cls-15" cx="4" cy="4.039" rx="3" ry="3.039"/>
    </g>
    <g id="타원_50" data-name="타원 50" class="cls-13" transform="translate(525.5 994.078) rotate(180)">
      <ellipse class="cls-14" cx="4" cy="4.039" rx="4" ry="4.039"/>
      <ellipse class="cls-15" cx="4" cy="4.039" rx="3" ry="3.039"/>
    </g>
  </g>
</svg>
