<svg xmlns="http://www.w3.org/2000/svg" viewBox="0 0 280 210">
  <defs>
    <style>
      .cls-1 {
        fill: #fff;
      }

      .cls-2 {
        fill: #acc6d2;
      }

      .cls-3 {
        fill: #727171;
      }

      .cls-4 {
        fill: #bce2e3;
      }

      .cls-5 {
        fill: #74c6be;
      }

      .cls-6 {
        fill: #e0f1f2;
      }

      .cls-7 {
        fill: #ea5541;
      }
    </style>
  </defs>
  <g id="그룹_1644" data-name="그룹 1644" transform="translate(-20 -2358)">
    <rect id="사각형_725" data-name="사각형 725" class="cls-1" width="280" height="210" rx="20" transform="translate(20 2358)"/>
    <g id="그룹_1631" data-name="그룹 1631" transform="translate(-6894.917 6041)">
      <g id="그룹_1620" data-name="그룹 1620" transform="translate(6983.917 -3497.515)">
        <ellipse id="타원_38" data-name="타원 38" class="cls-2" cx="3.006" cy="2.892" rx="3.006" ry="2.892" transform="translate(0.066 3.346)"/>
        <path id="패스_5464" data-name="패스 5464" class="cls-2" d="M5.38,0S-.971,1.758.106,7.032l2.665-.624S1.41,2.042,5.38,0Z" transform="translate(0.017)"/>
      </g>
      <g id="그룹_1615" data-name="그룹 1615" transform="translate(7126.8 -3488.385) rotate(180)">
        <ellipse id="타원_38-2" data-name="타원 38" class="cls-2" cx="3.006" cy="2.892" rx="3.006" ry="2.892" transform="translate(0.066 3.346)"/>
        <path id="패스_5464-2" data-name="패스 5464" class="cls-2" d="M5.38,0S-.971,1.758.106,7.032l2.665-.624S1.41,2.042,5.38,0Z" transform="translate(0.017)"/>
      </g>
      <g id="그룹_1619" data-name="그룹 1619" transform="translate(6990.723 -3497.515)">
        <ellipse id="타원_38-3" data-name="타원 38" class="cls-2" cx="3.006" cy="2.892" rx="3.006" ry="2.892" transform="translate(0.066 3.346)"/>
        <path id="패스_5464-3" data-name="패스 5464" class="cls-2" d="M5.38,0S-.971,1.758.106,7.032l2.665-.624S1.41,2.042,5.38,0Z" transform="translate(0.017)"/>
      </g>
      <g id="그룹_1616" data-name="그룹 1616" transform="translate(7119.995 -3488.385) rotate(180)">
        <ellipse id="타원_38-4" data-name="타원 38" class="cls-2" cx="3.006" cy="2.892" rx="3.006" ry="2.892" transform="translate(0.066 3.346)"/>
        <path id="패스_5464-4" data-name="패스 5464" class="cls-2" d="M5.38,0S-.971,1.758.106,7.032l2.665-.624S1.41,2.042,5.38,0Z" transform="translate(0.017)"/>
      </g>
    </g>
    <g id="그룹_1628" data-name="그룹 1628" transform="translate(-6893 6041)">
      <g id="그룹_1617" data-name="그룹 1617" transform="translate(7013 -3681)">
        <path id="패스_5553" data-name="패스 5553" class="cls-3" d="M100.245,75.027,99.9,80.4l7.721,2.413L106.1,74.889s-3.516-.9-5.86-.207" transform="translate(-31.027 -23.114)"/>
        <path id="패스_5554" data-name="패스 5554" class="cls-4" d="M92.726,83.2S91.485,99.126,76.8,97.264l7.515,11.513s18.545-.827,16.063-23.164Z" transform="translate(-23.853 -25.841)"/>
        <path id="패스_5555" data-name="패스 5555" class="cls-1" d="M105.721,96.437a27.93,27.93,0,0,0,.689-10.824L98.689,83.2A20.955,20.955,0,0,1,96,91.4s3.585-.965,4.895,2.413c0,0,1.448,2.344,3.1,2.482Z" transform="translate(-29.816 -25.841)"/>
        <path id="패스_5556" data-name="패스 5556" class="cls-5" d="M30.547,22s-11.858.965-14.34,42.054c0,0,0,5.309-4.757,4.895A2.92,2.92,0,0,0,8.486,71.5c-.414,3.171,3.447,3.585,5.722,3.447a17.478,17.478,0,0,0,2-.276c7.17-1.93,6.963-9.583,7.721-15.512.965-7.17.965-14.271,3.723-20.958,1.724-4.068,4.826-6.894,7.721-10.272Z" transform="translate(-2.626 -6.833)"/>
        <path id="패스_5557" data-name="패스 5557" class="cls-4" d="M95.719,46.4c-6.549-8.2-11.031-13.719-20.2-20.338-.345-.207-10.2-7.308-10.479-6.963C71.727,9.307,67.659.345,67.659.345c-10,4.757-11.375,13.237-11.375,13.237l-2.413.207c-7.308.965-8.273.62-8.273.62A24.225,24.225,0,0,0,33.4,0c-7.308,13.582,4.55,23.1,4.55,23.1-8.893,4.481-10.272,42.33-10.272,42.4l-1.861,47.087-.552,8.893s-3.516,28.266,33.85,24.474a16.977,16.977,0,0,0,6.687-2.62c4.619-2.758,8.48-6.825,10-12a31.423,31.423,0,0,0,.965-6.2,36.284,36.284,0,0,0,0-7.239c-.069-.345-.62-3.861-.827-4.274l-4.826-26.68c-1.31-6.481-2.551-12.892-3.861-19.373-1.1-4.412-.9-4.481-1.1-4.619,5.584,2.206,12.547,2.344,18.476,1.93a12.3,12.3,0,0,0,8.2-4.136c1.655-1.655,4.274-5.033,4.619-7.446A8.585,8.585,0,0,0,95.719,46.4" transform="translate(-7.818)"/>
        <path id="패스_5558" data-name="패스 5558" class="cls-1" d="M83.444,4.3s1.724,8.342-2.344,13.237S78.2,8.643,83.444,4.3" transform="translate(-24.43 -1.336)"/>
        <path id="패스_5559" data-name="패스 5559" class="cls-1" d="M37.323,4.8s-2.62,8.618,2.964,15.236c4.895,5.791,3.309-10-2.964-15.236" transform="translate(-11.401 -1.491)"/>
        <path id="패스_5560" data-name="패스 5560" class="cls-6" d="M103.2,59.4h0c.069.138.138.138.138.138L103.2,59.4" transform="translate(-32.052 -18.449)"/>
        <path id="패스_5561" data-name="패스 5561" class="cls-5" d="M68.356,35.222a1.445,1.445,0,0,0,1.31-1.517l-.069-.827v-.069c-.414-3.171-1.586-5.171-5.722-4.826l-4.068.345a1.417,1.417,0,0,0,.207,2.827l4.068-.345c1.93-.138,2.344,0,2.689,2.344l.069.758a1.445,1.445,0,0,0,1.517,1.31" transform="translate(-18.167 -8.679)"/>
        <path id="패스_5562" data-name="패스 5562" class="cls-5" d="M71.023,31.671a1.445,1.445,0,0,0,1.31-1.517l-.069-.758v-.069c-.689-4.619-3.861-7.239-8.411-7.032l-7.446.552a1.417,1.417,0,1,0,.207,2.827l7.377-.62c3.861-.207,5.1,2.344,5.446,4.55l.069.758a1.4,1.4,0,0,0,1.517,1.31" transform="translate(-17.111 -6.921)"/>
        <path id="패스_5563" data-name="패스 5563" class="cls-5" d="M73.428,28.163a1.445,1.445,0,0,0,1.31-1.517v-.414a10.336,10.336,0,0,0-11.1-9.445l-11.031.9a1.417,1.417,0,0,0,.207,2.827l11.031-.9a7.424,7.424,0,0,1,8,6.825v.414a1.511,1.511,0,0,0,1.586,1.31" transform="translate(-15.931 -5.205)"/>
        <path id="패스_5564" data-name="패스 5564" class="cls-1" d="M97.85,56.468a.826.826,0,0,1-.276-.276c-1.1-.965-5.1-4.137-4.481-7.653,0,0-4.274-.414-10.893-5.24,0,0,6.2,4.757,4.136,8.342,0,.069,4.688,0,11.513,4.826" transform="translate(-25.53 -13.448)"/>
        <path id="패스_5565" data-name="패스 5565" class="cls-3" d="M9.5,77.244l1.241,5.309L3.5,86.137l.207-8.066s3.378-1.517,5.791-1.1" transform="translate(-1.087 -23.883)"/>
        <path id="패스_5566" data-name="패스 5566" class="cls-4" d="M10.67,85s3.792,15.512,17.994,11.237l-5.515,12.616S4.741,111.06,3.5,88.654Z" transform="translate(-1.087 -26.4)"/>
        <path id="패스_5567" data-name="패스 5567" class="cls-1" d="M5.913,99.2A26.753,26.753,0,0,1,3.5,88.654L10.67,85a20.8,20.8,0,0,0,4,7.653,4.12,4.12,0,0,0-4.481,3.24s-1.1,2.551-2.689,2.964Z" transform="translate(-1.087 -26.4)"/>
        <path id="패스_5568" data-name="패스 5568" class="cls-1" d="M34.2,109.978h0a.5.5,0,0,0,.414-.483,1.518,1.518,0,0,1,.069-.552.436.436,0,1,0-.827-.276,2.541,2.541,0,0,0-.069,1.034c0,.138.207.276.414.276" transform="translate(-10.485 -33.659)"/>
        <path id="패스_5569" data-name="패스 5569" class="cls-1" d="M40,95.347h0a.524.524,0,0,0,.414-.552,1.518,1.518,0,0,1,.069-.552.436.436,0,0,0-.827-.276A2.628,2.628,0,0,0,39.587,95c0,.276.207.345.414.345" transform="translate(-12.286 -29.094)"/>
        <path id="패스_5570" data-name="패스 5570" class="cls-1" d="M33.4,95.947h0a.524.524,0,0,0,.414-.552,1.518,1.518,0,0,1,.069-.552.436.436,0,1,0-.827-.276,2.541,2.541,0,0,0-.069,1.034.386.386,0,0,0,.414.345" transform="translate(-10.236 -29.28)"/>
        <path id="패스_5571" data-name="패스 5571" class="cls-1" d="M41.1,89.147h0a.524.524,0,0,0,.414-.552,1.518,1.518,0,0,1,.069-.552.436.436,0,1,0-.827-.276,2.541,2.541,0,0,0-.069,1.034.386.386,0,0,0,.414.345" transform="translate(-12.628 -27.168)"/>
        <path id="패스_5572" data-name="패스 5572" class="cls-1" d="M34.4,81.947h0a.524.524,0,0,0,.414-.552,1.518,1.518,0,0,1,.069-.552.436.436,0,1,0-.827-.276,2.541,2.541,0,0,0-.069,1.034.386.386,0,0,0,.414.345" transform="translate(-10.547 -24.932)"/>
        <path id="패스_5573" data-name="패스 5573" class="cls-1" d="M36.4,91.878h0a.5.5,0,0,0,.414-.483,1.518,1.518,0,0,1,.069-.552.436.436,0,0,0-.827-.276,2.541,2.541,0,0,0-.069,1.034.34.34,0,0,0,.414.276" transform="translate(-11.168 -28.038)"/>
        <path id="패스_5574" data-name="패스 5574" class="cls-1" d="M37.1,76.943h0a.524.524,0,0,0,.414-.552,1.518,1.518,0,0,1,.069-.552.469.469,0,0,0-.276-.552.412.412,0,0,0-.552.276,2.628,2.628,0,0,0-.069,1.034.437.437,0,0,0,.414.345" transform="translate(-11.386 -23.376)"/>
        <path id="패스_5575" data-name="패스 5575" class="cls-1" d="M39.3,82.647h0a.524.524,0,0,0,.414-.552,1.518,1.518,0,0,1,.069-.552.436.436,0,1,0-.827-.276,2.541,2.541,0,0,0-.069,1.034c0,.276.138.414.414.345" transform="translate(-12.069 -25.149)"/>
        <path id="패스_5576" data-name="패스 5576" class="cls-1" d="M36.5,86.247h0a.524.524,0,0,0,.414-.552,1.518,1.518,0,0,1,.069-.552.436.436,0,0,0-.827-.276,2.541,2.541,0,0,0-.069,1.034c0,.207.138.345.414.345" transform="translate(-11.199 -26.267)"/>
        <path id="패스_5577" data-name="패스 5577" class="cls-1" d="M35.5,100.447h0a.524.524,0,0,0,.414-.552,1.518,1.518,0,0,1,.069-.552.436.436,0,0,0-.827-.276,2.541,2.541,0,0,0-.069,1.034.345.345,0,0,0,.414.345" transform="translate(-10.889 -30.678)"/>
        <path id="패스_5578" data-name="패스 5578" class="cls-1" d="M37.8,106.447h0a.524.524,0,0,0,.414-.552,1.518,1.518,0,0,1,.069-.552.436.436,0,1,0-.827-.276,2.541,2.541,0,0,0-.069,1.034.386.386,0,0,0,.414.345" transform="translate(-11.603 -32.541)"/>
        <path id="패스_5579" data-name="패스 5579" class="cls-1" d="M33.4,104.747h0a.524.524,0,0,0,.414-.552,1.518,1.518,0,0,1,.069-.552.436.436,0,1,0-.827-.276,2.541,2.541,0,0,0-.069,1.034.386.386,0,0,0,.414.345" transform="translate(-10.236 -32.013)"/>
        <path id="패스_5580" data-name="패스 5580" class="cls-1" d="M40.7,101.847h0a.524.524,0,0,0,.414-.552,1.518,1.518,0,0,1,.069-.552.412.412,0,0,0-.276-.552.469.469,0,0,0-.552.276,2.541,2.541,0,0,0-.069,1.034.386.386,0,0,0,.414.345" transform="translate(-12.504 -31.112)"/>
        <path id="패스_5581" data-name="패스 5581" class="cls-1" d="M76.6,151.484a.458.458,0,0,0,.345-.276c.069-.138.276-.345.345-.483a.449.449,0,0,0-.483-.758,1.758,1.758,0,0,0-.62.827.434.434,0,0,0,.207.552c.069.138.138.138.207.138" transform="translate(-23.655 -46.555)"/>
        <path id="패스_5582" data-name="패스 5582" class="cls-1" d="M81.889,150.884a.458.458,0,0,0,.345-.276,2.917,2.917,0,0,1,.345-.483.449.449,0,1,0-.483-.758,1.758,1.758,0,0,0-.62.827.381.381,0,0,0,.207.552c.069.069.138.138.207.138" transform="translate(-25.288 -46.369)"/>
        <path id="패스_5583" data-name="패스 5583" class="cls-1" d="M81.5,139.384a.458.458,0,0,0,.345-.276,2.918,2.918,0,0,1,.345-.483.449.449,0,1,0-.483-.758,1.758,1.758,0,0,0-.62.827.434.434,0,0,0,.207.552c.069.138.138.138.207.138" transform="translate(-25.177 -42.797)"/>
        <path id="패스_5584" data-name="패스 5584" class="cls-1" d="M77.4,145.6a.458.458,0,0,0,.345-.276,2.1,2.1,0,0,1,.345-.483.527.527,0,0,0,.138-.62.436.436,0,0,0-.62-.069,1.758,1.758,0,0,0-.62.827.434.434,0,0,0,.207.552.253.253,0,0,0,.207.069" transform="translate(-23.903 -44.743)"/>
        <path id="패스_5585" data-name="패스 5585" class="cls-1" d="M81.471,144.684a.458.458,0,0,0,.345-.276,2.1,2.1,0,0,1,.345-.483.436.436,0,0,0,.069-.62.449.449,0,0,0-.62-.138,1.758,1.758,0,0,0-.62.827.434.434,0,0,0,.207.552c.138.138.207.138.276.138" transform="translate(-25.146 -44.443)"/>
        <path id="패스_5586" data-name="패스 5586" class="cls-1" d="M76.671,140.984a.458.458,0,0,0,.345-.276c.069-.138.276-.345.345-.483a.449.449,0,1,0-.483-.758,2.6,2.6,0,0,0-.689.827.434.434,0,0,0,.207.552.275.275,0,0,0,.276.138" transform="translate(-23.655 -43.294)"/>
        <path id="패스_5587" data-name="패스 5587" class="cls-1" d="M72.9,149.9a.352.352,0,0,0,.345-.276,2.918,2.918,0,0,1,.345-.483.449.449,0,0,0,.138-.62.436.436,0,0,0-.62-.069,1.758,1.758,0,0,0-.62.827.434.434,0,0,0,.207.552.253.253,0,0,0,.207.069" transform="translate(-22.506 -46.078)"/>
        <path id="패스_5588" data-name="패스 5588" class="cls-4" d="M40.953,199.369,18.547,213.984l-3.447-4.55L30.681,188.2Z" transform="translate(-4.69 -58.452)"/>
        <path id="패스_5589" data-name="패스 5589" class="cls-1" d="M20.822,207.6a4.045,4.045,0,0,0,3.516,4.412s2.964.414,1.93,2.964l-7.721,5.033-3.447-4.55Z" transform="translate(-4.69 -64.477)"/>
        <path id="패스_5590" data-name="패스 5590" class="cls-3" d="M10.41,219,0,221.344,8.618,230.1l5.24-6.549Z" transform="translate(0 -68.018)"/>
        <path id="패스_5591" data-name="패스 5591" class="cls-4" d="M83.6,193.233l26.2,5.446,1.586-5.446L89.115,179.1Z" transform="translate(-25.965 -55.625)"/>
        <path id="패스_5592" data-name="패스 5592" class="cls-1" d="M110.624,192s1.724,3.516-1.655,5.377c0,0-2.62,1.517-.689,3.447l9.031,1.861,1.586-5.446Z" transform="translate(-33.41 -59.632)"/>
        <path id="패스_5593" data-name="패스 5593" class="cls-3" d="M123.186,198.886l10.548-1.586-4.895,11.237-7.239-4.205Z" transform="translate(-37.767 -61.278)"/>
        <path id="패스_5594" data-name="패스 5594" class="cls-5" d="M114.861,78.707l-.345-.207a1,1,0,0,1-.483-.689,1.187,1.187,0,0,1,.138-.827l.069-.069a1.174,1.174,0,0,1,1.517-.345l.069.069.345.207a.545.545,0,0,0,.62-.9l-.345-.207h0l-.138-.069a2.26,2.26,0,0,0-2.964.689c0,.069-.069.069-.069.138a2.268,2.268,0,0,0,.758,2.964l.345.207a.61.61,0,0,0,.758-.138,1.007,1.007,0,0,0-.276-.827" transform="translate(-35.096 -23.416)"/>
        <path id="패스_5595" data-name="패스 5595" class="cls-5" d="M121.88,72.269l-.207-.345a1.187,1.187,0,0,1-.138-.827,1.166,1.166,0,0,1,.483-.689l.069-.069a1.191,1.191,0,0,1,1.517.345l.069.069.207.345a.556.556,0,0,0,.965-.552l-.207-.345h0l-.069-.138a2.277,2.277,0,0,0-2.964-.689c-.069,0-.069.069-.138.069a2.292,2.292,0,0,0-.62,3.033l.207.345a.555.555,0,0,0,.758.207.72.72,0,0,0,.069-.758" transform="translate(-37.426 -21.459)"/>
        <path id="패스_5596" data-name="패스 5596" class="cls-3" d="M93.287,42.694l-.207-.414a1.378,1.378,0,0,1-.138-.9,1.264,1.264,0,0,1,.483-.689l.069-.069a1.146,1.146,0,0,1,1.586.414l.069.069h0l.207.414a.6.6,0,0,0,1.034-.62l-.207-.345c0-.069-.069-.069-.069-.138a2.4,2.4,0,0,0-3.171-.758c-.069,0-.069.069-.138.069a2.708,2.708,0,0,0-1.034,1.448,2.218,2.218,0,0,0,.276,1.724l.207.345a.577.577,0,0,0,.827.207c.276-.069.345-.414.207-.758" transform="translate(-28.482 -12.222)"/>
        <path id="패스_5597" data-name="패스 5597" class="cls-3" d="M73.756,52.388l-.276-.414a1.774,1.774,0,0,1-.069-1.034,1.372,1.372,0,0,1,.552-.827l.069-.069a1.4,1.4,0,0,1,1.792.414l.069.069.207.414a.663.663,0,0,0,1.172-.62L77,49.906c0-.069-.069-.069-.069-.138a2.622,2.622,0,0,0-3.516-.827c-.069,0-.069.069-.138.069a2.6,2.6,0,0,0-1.1,1.586,2.741,2.741,0,0,0,.276,1.93l.207.414a.678.678,0,0,0,.9.276.577.577,0,0,0,.207-.827" transform="translate(-22.394 -15.091)"/>
      </g>
      <g id="그룹_1618" data-name="그룹 1618" transform="translate(6996.979 -3663.945)">
        <path id="패스_5823" data-name="패스 5823" class="cls-7" d="M18.9,8.6a11.006,11.006,0,0,0-2.4-7c-2.4-2.7-5.9-2-7,1.4-.1.3-.8,3.2-.9,3.2-2.1-.1-4.5-.5-6.5.5-4,2.1-1.4,6.2.9,8.2,2.7,2.4,6.5,3.9,10.1,3,4.2-1,5.9-5.4,5.8-9.3"/>
        <path id="패스_5824" data-name="패스 5824" class="cls-1" d="M4.1,10.3A1.1,1.1,0,1,1,3,9.2a1.11,1.11,0,0,1,1.1,1.1"/>
      </g>
    </g>
  </g>
</svg>
