<svg xmlns="http://www.w3.org/2000/svg" viewBox="0 0 280 210">
  <defs>
    <style>
      .cls-1 {
        fill: #fff;
      }

      .cls-2 {
        fill: #acc6d2;
      }

      .cls-3 {
        fill: #74c6be;
      }

      .cls-4 {
        fill: #bce2e3;
      }

      .cls-5 {
        fill: #727171;
      }

      .cls-6 {
        fill: #92aca9;
      }

      .cls-7 {
        fill: #e4f3fa;
      }

      .cls-8 {
        fill: #fcd68c;
      }

      .cls-9 {
        fill: #fdd35c;
      }

      .cls-10 {
        fill: #f9c164;
      }
    </style>
  </defs>
  <g id="그룹_1646" data-name="그룹 1646" transform="translate(-20 -2846)">
    <rect id="사각형_727" data-name="사각형 727" class="cls-1" width="280" height="210" rx="20" transform="translate(20 2846)"/>
    <g id="그룹_1633" data-name="그룹 1633" transform="translate(-7447.917 6529)">
      <g id="그룹_1604" data-name="그룹 1604" transform="translate(7538.917 -3497.515)">
        <ellipse id="타원_38" data-name="타원 38" class="cls-2" cx="3.006" cy="2.892" rx="3.006" ry="2.892" transform="translate(0.066 3.346)"/>
        <path id="패스_5464" data-name="패스 5464" class="cls-2" d="M5.38,0S-.971,1.758.106,7.032l2.665-.624S1.41,2.042,5.38,0Z" transform="translate(0.017)"/>
      </g>
      <g id="그룹_1605" data-name="그룹 1605" transform="translate(7676.8 -3488.385) rotate(180)">
        <ellipse id="타원_38-2" data-name="타원 38" class="cls-2" cx="3.006" cy="2.892" rx="3.006" ry="2.892" transform="translate(0.066 3.346)"/>
        <path id="패스_5464-2" data-name="패스 5464" class="cls-2" d="M5.38,0S-.971,1.758.106,7.032l2.665-.624S1.41,2.042,5.38,0Z" transform="translate(0.017)"/>
      </g>
      <g id="그룹_1606" data-name="그룹 1606" transform="translate(7545.723 -3497.515)">
        <ellipse id="타원_38-3" data-name="타원 38" class="cls-2" cx="3.006" cy="2.892" rx="3.006" ry="2.892" transform="translate(0.066 3.346)"/>
        <path id="패스_5464-3" data-name="패스 5464" class="cls-2" d="M5.38,0S-.971,1.758.106,7.032l2.665-.624S1.41,2.042,5.38,0Z" transform="translate(0.017)"/>
      </g>
      <g id="그룹_1607" data-name="그룹 1607" transform="translate(7669.995 -3488.385) rotate(180)">
        <ellipse id="타원_38-4" data-name="타원 38" class="cls-2" cx="3.006" cy="2.892" rx="3.006" ry="2.892" transform="translate(0.066 3.346)"/>
        <path id="패스_5464-4" data-name="패스 5464" class="cls-2" d="M5.38,0S-.971,1.758.106,7.032l2.665-.624S1.41,2.042,5.38,0Z" transform="translate(0.017)"/>
      </g>
    </g>
    <g id="그룹_1630" data-name="그룹 1630" transform="translate(-7444.145 6529)">
      <g id="그룹_1611" data-name="그룹 1611" transform="translate(7583 -3681)">
        <path id="패스_5747" data-name="패스 5747" class="cls-3" d="M90.724,21.8s9.865,0,14.634,33.906c0,0,.327,4.377,4.246,3.724a2.426,2.426,0,0,1,2.613,1.96c.523,2.548-2.613,3.2-4.508,3.2a7.451,7.451,0,0,1-1.7-.131c-6.076-1.111-6.4-7.513-7.448-12.347C97.322,46.233,96.8,40.354,94.121,35c-1.7-3.266-4.442-5.422-7.121-7.97Z" transform="translate(-30.163 -7.558)"/>
        <path id="패스_5748" data-name="패스 5748" class="cls-3" d="M128.333,173.092h0a1.277,1.277,0,0,0-1.764.392,6.026,6.026,0,0,0-.327.523l-.261.392c-.392.588-.719,1.176-1.111,1.7-.457.784-.98,1.5-1.437,2.287-.2.392-.457.719-.653,1.111-.261.457-.523.849-.719,1.241l-.131.261c-.523.784-1.111,1.7-1.764,1.829a4.081,4.081,0,0,1-2.025-.915l-1.7-1.241a1.261,1.261,0,1,0-1.5,2.025l1.764,1.241c.849.588,2.287,1.633,3.92,1.372,1.7-.261,2.744-1.829,3.462-2.94l.131-.261a15.631,15.631,0,0,0,.849-1.372c.2-.327.392-.653.588-1.045.457-.719.98-1.5,1.437-2.221.392-.588.719-1.176,1.111-1.764l.2-.327.392-.588a1.328,1.328,0,0,0-.457-1.7" transform="translate(-39.681 -59.941)"/>
        <path id="패스_5749" data-name="패스 5749" class="cls-3" d="M131.195,172.992a1.277,1.277,0,0,0-1.764.392L122.7,183.967a4.7,4.7,0,0,1-1.176,1.307,4.58,4.58,0,0,1-4.9.131l-3.07-1.96a1.278,1.278,0,1,0-1.372,2.156l3.07,1.96a7.012,7.012,0,0,0,7.774-.2,7.625,7.625,0,0,0,1.829-1.96l6.729-10.583a1.341,1.341,0,0,0-.392-1.829" transform="translate(-38.688 -59.907)"/>
        <path id="패스_5750" data-name="패스 5750" class="cls-3" d="M134.629,172.992a1.277,1.277,0,0,0-1.764.392l-8.166,12.87a7.645,7.645,0,0,1-10,2.156l-2.548-1.633a1.278,1.278,0,0,0-1.372,2.156l2.613,1.633.065.065a10.282,10.282,0,0,0,13.327-2.94l.065-.065,8.232-12.87a1.325,1.325,0,0,0-.457-1.764" transform="translate(-38.203 -59.907)"/>
        <path id="패스_5751" data-name="패스 5751" class="cls-4" d="M34.673,105.768s-1.5,15.875,10.453,28.026l2.352,20.056h4.638l3.005-18.684,7.9-.261,4.442,20.709h4.246l2.874-23.845s9.081-3.528,6.272-21.363l-5.618-53.57S71.388,23.78,63.288,20.513c0,0,9.734-9.211,2.352-20.513a21.439,21.439,0,0,0-9.734,13.393s-.784.392-7.252.065H46.563S44.734,6.141,35.719,2.678a17.543,17.543,0,0,0,3.593,16.2c-.2-.261-8.362,6.664-8.623,6.86-7.578,6.4-11.106,11.5-16.267,19.141a6.742,6.742,0,0,0-.98,6.01c.457,2.091,3.005,4.834,4.573,6.141a10.7,10.7,0,0,0,7.448,3.005c5.226-.065,11.3-.653,16.006-2.94-.2.131,0,.2-.653,4.116Z" transform="translate(-4.557)"/>
        <path id="패스_5752" data-name="패스 5752" class="cls-5" d="M24.581,100.2l2.091,3.724L22.033,108.3,20.4,102.156A10.317,10.317,0,0,1,24.516,100Z" transform="translate(-7.073 -34.671)"/>
        <path id="패스_5753" data-name="패스 5753" class="cls-5" d="M89.9,244.113h9.473l-.98-7.317-4.573-.2Z" transform="translate(-31.169 -82.031)"/>
        <path id="패스_5754" data-name="패스 5754" class="cls-5" d="M63.932,235.465,60.6,241.41s6.01,0,9.081-.327L68.57,235.4H63.932Z" transform="translate(-21.01 -81.615)"/>
        <path id="패스_5755" data-name="패스 5755" class="cls-1" d="M74.041,224,72.8,231.513v.065h0L74.041,224h0" transform="translate(-25.24 -77.662)"/>
        <path id="패스_5756" data-name="패스 5756" class="cls-1" d="M68.638,221.9h-.2a1.489,1.489,0,0,0-.719.2l-.588.392a3.052,3.052,0,0,1-.653.327,1.808,1.808,0,0,1-.588.065,2.662,2.662,0,0,1-1.176-.327c-.2-.131-.327-.261-.523-.392a.3.3,0,0,1-.2-.2l1.045,8.754h4.638l1.241-7.513c0-.065-.131-.2-.131-.2-.065-.065-.131-.131-.131-.2-.131-.131-.2-.261-.327-.327a2.075,2.075,0,0,0-1.307-.523c-.131,0-.261-.065-.392-.065" transform="translate(-22.189 -76.934)"/>
        <path id="패스_5757" data-name="패스 5757" class="cls-6" d="M65.7,235.5Z" transform="translate(-22.779 -81.649)"/>
        <path id="패스_5758" data-name="패스 5758" class="cls-1" d="M93.1,223.6l1.829,8.558h0L93.1,223.731V223.6" transform="translate(-32.278 -77.524)"/>
        <path id="패스_5759" data-name="패스 5759" class="cls-1" d="M100.256,221.9c-.327,0-.588.457-.588.457-.327.784-.719.98-1.045.98a1.147,1.147,0,0,1-.784-.392,1.255,1.255,0,0,0-1.045-.784,1.983,1.983,0,0,0-1.307.784,1.383,1.383,0,0,1-1.176.653,1.76,1.76,0,0,1-1.111-.523l1.829,8.427h0l2.809.131,1.7.065,1.176-9.407c-.131-.327-.327-.392-.457-.392" transform="translate(-32.313 -76.934)"/>
        <path id="패스_5760" data-name="패스 5760" class="cls-6" d="M95.9,236.6h0l2.809.131Z" transform="translate(-33.249 -82.031)"/>
        <path id="패스_5761" data-name="패스 5761" class="cls-1" d="M49.051,7.6s-.915,7.448,3.005,11.433a1.9,1.9,0,0,0,1.307.784c1.96,0-.131-9.277-4.312-12.217" transform="translate(-16.974 -2.635)"/>
        <path id="패스_5762" data-name="패스 5762" class="cls-1" d="M91.175,4.5c-4.312,4.181-5.226,14.764-3.07,14.764.392,0,.915-.392,1.5-1.241C94.05,11.882,91.175,4.5,91.175,4.5" transform="translate(-30.158 -1.56)"/>
        <path id="패스_5763" data-name="패스 5763" class="cls-7" d="M36.831,59.6l-.131.131s.065,0,.131-.131Z" transform="translate(-12.724 -20.664)"/>
        <path id="패스_5764" data-name="패스 5764" class="cls-3" d="M16.515,74.96l.065-.327a.686.686,0,0,1,.327-.588.79.79,0,0,1,.653-.2h.065a.937.937,0,0,1,.849.98v.065l-.065.327a.462.462,0,1,0,.915.131l.065-.327h0v-.131A1.762,1.762,0,0,0,17.756,73h-.131a2,2,0,0,0-1.307.457,2.121,2.121,0,0,0-.653,1.176l-.065.327a.5.5,0,0,0,.392.523c.327-.065.523-.261.523-.523" transform="translate(-5.409 -25.31)"/>
        <path id="패스_5765" data-name="패스 5765" class="cls-3" d="M24.313,77.892l.2-.261a1.016,1.016,0,0,1,.523-.392.773.773,0,0,1,.653.065h.065a.933.933,0,0,1,.327,1.241v.065l-.2.261a.471.471,0,1,0,.784.523l.2-.261h0l.065-.065a1.8,1.8,0,0,0-.653-2.417l-.131-.065a1.671,1.671,0,0,0-1.372-.131,1.948,1.948,0,0,0-1.111.784l-.2.261a.507.507,0,0,0,.131.653.892.892,0,0,0,.719-.261" transform="translate(-8.112 -26.478)"/>
        <path id="패스_5766" data-name="패스 5766" class="cls-1" d="M51.292,162.7h0c-.261,0-.392.2-.392.457a.944.944,0,0,0,.131.457l.2.392a.5.5,0,0,0,.327.131.393.393,0,0,0,.261-.065.345.345,0,0,0,.065-.523h0c0-.065-.065-.131-.131-.2a.393.393,0,0,1-.065-.261.377.377,0,0,0-.392-.392" transform="translate(-17.647 -56.409)"/>
        <path id="패스_5767" data-name="패스 5767" class="cls-1" d="M50.392,155.9h0c-.261,0-.392.2-.392.457a.944.944,0,0,0,.131.457l.2.392a.5.5,0,0,0,.327.131.393.393,0,0,0,.261-.065.345.345,0,0,0,.065-.523c-.065-.065-.065-.131-.131-.2a.393.393,0,0,1-.065-.261.377.377,0,0,0-.392-.392" transform="translate(-17.335 -54.052)"/>
        <path id="패스_5768" data-name="패스 5768" class="cls-1" d="M56.092,177h0c-.261,0-.392.2-.392.457a.944.944,0,0,0,.131.457,1.367,1.367,0,0,0,.261.392.5.5,0,0,0,.327.131.393.393,0,0,0,.261-.065.345.345,0,0,0,.065-.523c0-.065-.065-.131-.131-.2a.393.393,0,0,1-.065-.261.477.477,0,0,0-.457-.392" transform="translate(-19.312 -61.367)"/>
        <path id="패스_5769" data-name="패스 5769" class="cls-1" d="M58.992,182.1h0c-.261,0-.392.2-.392.457a.944.944,0,0,0,.131.457l.2.392a.5.5,0,0,0,.327.131.393.393,0,0,0,.261-.065.345.345,0,0,0,.065-.523c-.065-.065-.065-.131-.131-.2a.393.393,0,0,1-.065-.261q-.1-.392-.392-.392" transform="translate(-20.317 -63.135)"/>
        <path id="패스_5770" data-name="패스 5770" class="cls-1" d="M56.292,185.9h0c-.261,0-.392.2-.392.457a.944.944,0,0,0,.131.457l.2.392a.5.5,0,0,0,.327.131.393.393,0,0,0,.261-.065.345.345,0,0,0,.065-.523c0-.065-.065-.131-.131-.2a.393.393,0,0,1-.065-.261.377.377,0,0,0-.392-.392" transform="translate(-19.381 -64.453)"/>
        <path id="패스_5771" data-name="패스 5771" class="cls-1" d="M53.992,181.1h0c-.261,0-.392.2-.392.457a.944.944,0,0,0,.131.457l.2.392a.5.5,0,0,0,.327.131.393.393,0,0,0,.261-.065.345.345,0,0,0,.065-.523c0-.065-.065-.131-.131-.2a.393.393,0,0,1-.065-.261.377.377,0,0,0-.392-.392" transform="translate(-18.583 -62.789)"/>
        <path id="패스_5772" data-name="패스 5772" class="cls-1" d="M58.792,174.3h0c-.261,0-.392.2-.392.457a.944.944,0,0,0,.131.457l.2.392a.5.5,0,0,0,.327.131.393.393,0,0,0,.261-.065.345.345,0,0,0,.065-.523c0-.065-.065-.131-.131-.2a.393.393,0,0,1-.065-.261q-.1-.392-.392-.392" transform="translate(-20.248 -60.431)"/>
        <path id="패스_5773" data-name="패스 5773" class="cls-1" d="M50.692,173.8h0c-.261,0-.392.2-.392.457a1.211,1.211,0,0,0,.131.457l.2.392a.5.5,0,0,0,.327.131.393.393,0,0,0,.261-.065.345.345,0,0,0,.065-.523c0-.065-.065-.131-.131-.2a.393.393,0,0,1-.065-.261q-.1-.392-.392-.392" transform="translate(-17.439 -60.258)"/>
        <path id="패스_5774" data-name="패스 5774" class="cls-1" d="M50.892,167.9h0c-.261,0-.392.2-.392.457a1.211,1.211,0,0,0,.131.457l.2.392a.5.5,0,0,0,.327.131.393.393,0,0,0,.261-.065.345.345,0,0,0,.065-.523c0-.065-.065-.131-.131-.2a.393.393,0,0,1-.065-.261q-.1-.392-.392-.392" transform="translate(-17.509 -58.212)"/>
        <path id="패스_5775" data-name="패스 5775" class="cls-1" d="M54.792,159.7h0c-.261,0-.392.2-.392.457a.944.944,0,0,0,.131.457l.2.392a.5.5,0,0,0,.327.131.393.393,0,0,0,.261-.065.345.345,0,0,0,.065-.523c0-.065-.065-.131-.131-.2a.393.393,0,0,1-.065-.261q-.1-.392-.392-.392" transform="translate(-18.861 -55.369)"/>
        <path id="패스_5776" data-name="패스 5776" class="cls-1" d="M54.792,171.1h0c-.261,0-.392.2-.392.457a.944.944,0,0,0,.131.457l.2.392a.5.5,0,0,0,.327.131.393.393,0,0,0,.261-.065.345.345,0,0,0,.065-.523c0-.065-.065-.131-.131-.2a.393.393,0,0,1-.065-.261q-.1-.392-.392-.392" transform="translate(-18.861 -59.322)"/>
        <path id="패스_5777" data-name="패스 5777" class="cls-1" d="M100.55,195.7a.414.414,0,0,0-.392.327.494.494,0,0,1-.065.261c-.065.065-.065.2-.131.2a.4.4,0,0,0,.065.523c.065.065.131.065.261.065s.2-.065.327-.131l.2-.392a.944.944,0,0,0,.131-.457.377.377,0,0,0-.392-.392h0" transform="translate(-34.633 -67.851)"/>
        <path id="패스_5778" data-name="패스 5778" class="cls-1" d="M98.75,191a.414.414,0,0,0-.392.327c0,.065-.065.131-.065.261-.065.065-.065.2-.131.261a.4.4,0,0,0,.065.523c.065.065.131.065.261.065s.2-.065.327-.131l.2-.392a.944.944,0,0,0,.131-.457A.477.477,0,0,0,98.75,191h0" transform="translate(-34.009 -66.221)"/>
        <path id="패스_5779" data-name="패스 5779" class="cls-1" d="M108.24,186.4a.414.414,0,0,0-.392.327c0,.065-.065.131-.065.261-.065.065-.065.2-.131.2a.34.34,0,0,0,.065.523c.065.065.131.065.261.065s.2-.065.327-.131l.2-.392a.944.944,0,0,0,.131-.457c.065-.2-.131-.392-.392-.392h0" transform="translate(-37.292 -64.626)"/>
        <path id="패스_5780" data-name="패스 5780" class="cls-1" d="M105.04,192.4a.414.414,0,0,0-.392.327c0,.065-.065.131-.065.261-.065.065-.065.2-.131.2a.34.34,0,0,0,.065.523c.065.065.131.065.261.065s.2-.065.327-.131l.2-.392a.944.944,0,0,0,.131-.457.474.474,0,0,0-.392-.392h0" transform="translate(-36.183 -66.706)"/>
        <path id="패스_5781" data-name="패스 5781" class="cls-1" d="M103.94,188.7a.414.414,0,0,0-.392.327c0,.065-.065.131-.065.261-.065.065-.065.2-.131.2a.34.34,0,0,0,.065.523c.065.065.131.065.261.065s.2-.065.327-.131l.2-.392a.944.944,0,0,0,.131-.457.377.377,0,0,0-.392-.392h0" transform="translate(-35.801 -65.424)"/>
        <path id="패스_5782" data-name="패스 5782" class="cls-1" d="M109.05,191a.414.414,0,0,0-.392.327c0,.065-.065.131-.065.261-.065.065-.065.2-.131.261a.4.4,0,0,0,.065.523c.065.065.131.065.261.065s.2-.065.327-.131h0l.2-.392a.944.944,0,0,0,.131-.457.477.477,0,0,0-.392-.457h0" transform="translate(-37.58 -66.221)"/>
        <path id="패스_5783" data-name="패스 5783" class="cls-1" d="M103.44,198a.414.414,0,0,0-.392.327c0,.065-.065.131-.065.261-.065.065-.065.2-.131.2a.34.34,0,0,0,.065.523c.065.065.131.065.261.065s.2-.065.327-.131l.2-.392a.944.944,0,0,0,.131-.457c.065-.2-.131-.392-.392-.392h0" transform="translate(-35.628 -68.648)"/>
        <path id="패스_5784" data-name="패스 5784" class="cls-1" d="M103.814,99.7c-.065,0-.131,0-.131.065a.411.411,0,0,0-.2.523c.065.065.065.327.065.457v.065a.491.491,0,0,0,.327.457h.065a.414.414,0,0,0,.392-.327v-.131a2.348,2.348,0,0,0-.131-.719c-.131-.327-.261-.392-.392-.392" transform="translate(-35.871 -34.567)"/>
        <path id="패스_5785" data-name="패스 5785" class="cls-1" d="M97.414,86.7c-.065,0-.131,0-.131.065a.411.411,0,0,0-.2.523c.065.065.065.327.065.457v.065a.491.491,0,0,0,.327.457h.065a.414.414,0,0,0,.392-.327v-.2a2.349,2.349,0,0,0-.131-.719c-.131-.261-.261-.327-.392-.327" transform="translate(-33.652 -30.059)"/>
        <path id="패스_5786" data-name="패스 5786" class="cls-1" d="M103.514,86.7h-.131a.411.411,0,0,0-.2.523c.065.065.065.327.065.457v.065a.491.491,0,0,0,.327.457h.065a.414.414,0,0,0,.392-.327v-.131a2.349,2.349,0,0,0-.131-.719c-.131-.2-.261-.327-.392-.327" transform="translate(-35.767 -30.059)"/>
        <path id="패스_5787" data-name="패스 5787" class="cls-1" d="M95.914,81c-.065,0-.131,0-.131.065a.411.411,0,0,0-.2.523c0,.065.065.131.065.2v.327a.491.491,0,0,0,.327.457h.065a.414.414,0,0,0,.392-.327v-.2a.829.829,0,0,0-.065-.392.5.5,0,0,0-.131-.327c-.065-.261-.2-.327-.327-.327" transform="translate(-33.132 -28.083)"/>
        <path id="패스_5788" data-name="패스 5788" class="cls-1" d="M101.514,73.9h-.131a.411.411,0,0,0-.2.523c.065.065.065.327.065.457v.065a.491.491,0,0,0,.327.457h.065a.414.414,0,0,0,.392-.327v-.131a2.349,2.349,0,0,0-.131-.719.4.4,0,0,0-.392-.327" transform="translate(-35.074 -25.622)"/>
        <path id="패스_5789" data-name="패스 5789" class="cls-1" d="M100.414,83.2h-.131a.411.411,0,0,0-.2.523c.065.065.065.327.065.457v.065a.491.491,0,0,0,.327.457h.065a.414.414,0,0,0,.392-.327v-.131a2.349,2.349,0,0,0-.131-.719c-.065-.261-.2-.327-.392-.327" transform="translate(-34.692 -28.846)"/>
        <path id="패스_5790" data-name="패스 5790" class="cls-1" d="M98.614,69.4c-.065,0-.131,0-.131.065a.411.411,0,0,0-.2.523c.065.065.065.327.065.457v.065a.491.491,0,0,0,.327.457h.065a.414.414,0,0,0,.392-.327v-.131a3.279,3.279,0,0,0-.131-.784.414.414,0,0,0-.392-.327" transform="translate(-34.068 -24.061)"/>
        <path id="패스_5791" data-name="패스 5791" class="cls-1" d="M97.114,74.9c-.065,0-.131,0-.131.065a.411.411,0,0,0-.2.523c.065.065.065.327.065.457v.065a.491.491,0,0,0,.327.457h.065a.414.414,0,0,0,.392-.327v-.2a2.348,2.348,0,0,0-.131-.719.414.414,0,0,0-.392-.327" transform="translate(-33.548 -25.968)"/>
        <path id="패스_5792" data-name="패스 5792" class="cls-1" d="M100.014,78c-.065,0-.131,0-.131.065a.411.411,0,0,0-.2.523c0,.065.065.131.065.2v.327a.491.491,0,0,0,.327.457h.065a.414.414,0,0,0,.392-.327v-.131a.829.829,0,0,0-.065-.392.5.5,0,0,0-.131-.327c-.065-.327-.2-.392-.327-.392" transform="translate(-34.554 -27.043)"/>
        <path id="패스_5793" data-name="패스 5793" class="cls-1" d="M101.914,91h-.131a.411.411,0,0,0-.2.523c.065.065.065.327.065.457v.065a.491.491,0,0,0,.327.457h.065a.414.414,0,0,0,.392-.327v-.131a2.349,2.349,0,0,0-.131-.719c-.131-.2-.261-.327-.392-.327" transform="translate(-35.212 -31.55)"/>
        <path id="패스_5794" data-name="패스 5794" class="cls-1" d="M100.214,96.7h-.131a.411.411,0,0,0-.2.523c.065.065.065.327.065.457v.065a.491.491,0,0,0,.327.457h.065a.414.414,0,0,0,.392-.327v-.131a2.349,2.349,0,0,0-.131-.719.414.414,0,0,0-.392-.327" transform="translate(-34.623 -33.527)"/>
        <path id="패스_5795" data-name="패스 5795" class="cls-1" d="M104.114,94.8c-.065,0-.131,0-.131.065a.411.411,0,0,0-.2.523h0c.065.065.065.327.065.457v.065a.491.491,0,0,0,.327.457h.065a.414.414,0,0,0,.392-.327v-.2a2.348,2.348,0,0,0-.131-.719c-.065-.261-.2-.327-.392-.327" transform="translate(-35.975 -32.868)"/>
        <path id="패스_5796" data-name="패스 5796" class="cls-1" d="M97.214,92.7c-.065,0-.131,0-.131.065a.411.411,0,0,0-.2.523c.065,0,.065.261.065.392v.065a.491.491,0,0,0,.327.457h.065a.414.414,0,0,0,.392-.327v-.2a2.349,2.349,0,0,0-.131-.719.406.406,0,0,0-.392-.261" transform="translate(-33.583 -32.14)"/>
        <path id="패스_5797" data-name="패스 5797" class="cls-4" d="M27.573,106s6.337,10.845,16.136,4.508l-1.372,10.779S28.945,127.1,23,110.442Z" transform="translate(-7.974 -36.751)"/>
        <path id="패스_5798" data-name="패스 5798" class="cls-1" d="M30,106" transform="translate(-10.401 -36.751)"/>
        <path id="패스_5799" data-name="패스 5799" class="cls-1" d="M27.538,106h0m0,0,0,0h0m0,0a16.589,16.589,0,0,0,4.769,4.834h0A16.589,16.589,0,0,1,27.538,106M22.9,110.377a22.558,22.558,0,0,0,4.181,7.448h0a23.258,23.258,0,0,1-4.181-7.448" transform="translate(-7.94 -36.751)"/>
        <path id="패스_5800" data-name="패스 5800" class="cls-1" d="M27.538,106h0L22.9,110.377a22.558,22.558,0,0,0,4.181,7.448l1.111-.653c1.111-.653,1.372-2.809,1.372-2.809a3.2,3.2,0,0,1,2.678-3.4,18.353,18.353,0,0,1-4.7-4.965Z" transform="translate(-7.94 -36.751)"/>
        <path id="패스_5801" data-name="패스 5801" class="cls-5" d="M41.681,105.8l2.091,3.724L39.133,113.9,37.5,107.756a10.317,10.317,0,0,1,4.116-2.156Z" transform="translate(-13.002 -36.612)"/>
        <path id="패스_5802" data-name="패스 5802" class="cls-4" d="M44.773,111.6s6.337,10.845,16.136,4.508l-1.372,10.779S46.145,132.7,40.2,116.042Z" transform="translate(-13.938 -38.692)"/>
        <path id="패스_5803" data-name="패스 5803" class="cls-1" d="M47.2,111.6m0,0h0m0,0h0m0,0Zm0,0a13.15,13.15,0,0,0,1.764,2.352A11.993,11.993,0,0,1,47.2,111.6" transform="translate(-16.365 -38.692)"/>
        <path id="패스_5804" data-name="패스 5804" class="cls-7" d="M46.5,115.2h0a21.7,21.7,0,0,0,1.764,1.633A10.844,10.844,0,0,1,46.5,115.2m1.764,1.633h0m0,0h0m0,.065h0m-8.166.327a22.558,22.558,0,0,0,4.181,7.448h0a23.258,23.258,0,0,1-4.181-7.448" transform="translate(-13.903 -39.941)"/>
        <path id="패스_5805" data-name="패스 5805" class="cls-1" d="M44.738,111.6h0L40.1,115.977a22.558,22.558,0,0,0,4.181,7.448l1.111-.653c1.111-.653,1.372-2.809,1.372-2.809a3.247,3.247,0,0,1,2.679-3.4,13.247,13.247,0,0,1-1.176-.849h0a21.7,21.7,0,0,1-1.764-1.633,15.2,15.2,0,0,1-1.764-2.483Z" transform="translate(-13.903 -38.692)"/>
        <path id="패스_5806" data-name="패스 5806" class="cls-1" d="M48.3,43.3c-5.488,4.7-9.146,5.357-9.146,5.357.784,3.005-2.483,6.076-3.4,6.99l-.261.261c5.618-4.769,9.734-4.965,9.734-4.965C43.209,47.938,48.3,43.3,48.3,43.3" transform="translate(-12.308 -15.012)"/>
        <path id="패스_5807" data-name="패스 5807" class="cls-5" d="M43.505,44.4a1.5,1.5,0,0,1-3.005,0A1.52,1.52,0,0,1,42,42.9a1.477,1.477,0,0,1,1.5,1.5" transform="translate(-14.042 -14.872)"/>
        <path id="패스_5808" data-name="패스 5808" class="cls-5" d="M60.6,53a1.7,1.7,0,1,1-1.7-1.7A1.73,1.73,0,0,1,60.6,53" transform="translate(-19.832 -17.786)"/>
        <path id="패스_5809" data-name="패스 5809" class="cls-5" d="M43.7,40.694a2.126,2.126,0,0,0-.2.849,1.645,1.645,0,0,0,.327,1.045,2.773,2.773,0,0,0,1.241.98.527.527,0,0,0,.588-.2.449.449,0,0,0-.2-.588,1.9,1.9,0,0,1-.849-.653,1.054,1.054,0,0,1-.2-.588.49.49,0,0,1,.065-.327v-.065h0l-.2-.065.2.131h0l-.2-.065.2.131a.449.449,0,0,0-.2-.588c-.261-.327-.523-.2-.588,0" transform="translate(-15.082 -14.04)"/>
        <path id="패스_5810" data-name="패스 5810" class="cls-5" d="M60.412,49.895l.2.131-.2-.131h0l.2.131-.2-.131h0l-.261.261a.975.975,0,0,1-.653.2,1.73,1.73,0,0,1-1.045-.392.426.426,0,1,0-.457.719,2.783,2.783,0,0,0,1.568.523,2.152,2.152,0,0,0,1.241-.392.973.973,0,0,0,.392-.457.426.426,0,0,0-.131-.588.491.491,0,0,0-.653.131" transform="translate(-20.038 -17.23)"/>
        <path id="패스_5811" data-name="패스 5811" class="cls-3" d="M5.576,68.891a3.567,3.567,0,0,0-.588.849A4.7,4.7,0,0,0,4.4,71.9a3.625,3.625,0,0,0,.523,1.895.605.605,0,0,0,.784.2.605.605,0,0,0,.2-.784A2.708,2.708,0,0,1,5.511,71.9a2.958,2.958,0,0,1,.457-1.568,6.027,6.027,0,0,0,.327-.523c.065-.065.065-.131.131-.131h0l-.131-.131.065.065h0l-.065-.065.065.065a.6.6,0,0,0,0-.784.534.534,0,0,0-.784.065" transform="translate(-1.526 -23.814)"/>
        <path id="패스_5812" data-name="패스 5812" class="cls-3" d="M1.829,66.522a9.289,9.289,0,0,0-.915,1.307A6.931,6.931,0,0,0,0,71.16,5.848,5.848,0,0,0,.784,74.1a.605.605,0,0,0,.784.2.605.605,0,0,0,.2-.784,4.944,4.944,0,0,1-.653-2.352,5.665,5.665,0,0,1,.784-2.744c.2-.327.392-.653.523-.849q.2-.1.2-.2l.065-.065h0l-.131-.131.131.131h0l-.131-.131.131.131a.6.6,0,0,0,0-.784.687.687,0,0,0-.849,0" transform="translate(0 -23.013)"/>
        <path id="패스_5813" data-name="패스 5813" class="cls-8" d="M15.853,24.3S15.2,31.813,10.3,31.878c0,0,3.789-.261,5.553,6.076,0,0,.849-5.488,5.1-6.01,0-.065-6.141-.2-5.1-7.644" transform="translate(-3.571 -8.425)"/>
        <path id="패스_5814" data-name="패스 5814" class="cls-3" d="M63.041,33.5A1.24,1.24,0,0,1,61.8,32.257v-.784c.131-2.744.98-4.573,4.638-4.573h3.593a1.241,1.241,0,1,1,0,2.483H66.438c-1.7,0-2.025.2-2.156,2.221v.653A1.24,1.24,0,0,1,63.041,33.5" transform="translate(-21.426 -9.326)"/>
        <path id="패스_5815" data-name="패스 5815" class="cls-3" d="M57.941,30.489A1.24,1.24,0,0,1,56.7,29.248v-.784c.261-4.05,2.809-6.533,6.794-6.664h6.533a1.241,1.241,0,1,1,0,2.483H63.56c-3.332.065-4.246,2.417-4.377,4.312v.653a1.284,1.284,0,0,1-1.241,1.241" transform="translate(-19.658 -7.558)"/>
        <path id="패스_5816" data-name="패스 5816" class="cls-3" d="M52.941,27.418A1.24,1.24,0,0,1,51.7,26.177V25.85a8.964,8.964,0,0,1,8.95-8.95h9.669a1.24,1.24,0,0,1,1.241,1.241,1.2,1.2,0,0,1-1.241,1.241h-9.6a6.552,6.552,0,0,0-6.533,6.533v.327a1.187,1.187,0,0,1-1.241,1.176" transform="translate(-17.925 -5.859)"/>
      </g>
      <g id="그룹_1612" data-name="그룹 1612" transform="translate(7528.145 -3570.9)">
        <path id="패스_5817" data-name="패스 5817" class="cls-3" d="M98.716,24.168a6.367,6.367,0,0,0-1.04.116c-2.138.462-3.582,1.849-4.68,4.564,1.56-.289,3.062-.578,4.449-.924a6.05,6.05,0,0,0,3-1.387.957.957,0,0,0,.289-.693,1.556,1.556,0,0,0-.52-1.213,2.33,2.33,0,0,0-1.5-.462m-8.493,9.187A2.009,2.009,0,0,1,88.2,31.563v-.578a.733.733,0,0,1,.058-.347c.924-3.813,2.831-9.013,8.551-10.284a7.446,7.446,0,0,1,5.893.982,5.367,5.367,0,0,1,2.138,4.218,4.988,4.988,0,0,1-1.271,3.582,9.355,9.355,0,0,1-5.084,2.716A58.254,58.254,0,0,1,90.4,33.3a.212.212,0,0,1-.173.058" transform="translate(-37.24 -8.552)"/>
        <path id="패스_5818" data-name="패스 5818" class="cls-3" d="M71.879,24.183a2.324,2.324,0,0,0-1.5.4,1.33,1.33,0,0,0-.52,1.213,1.268,1.268,0,0,0,.289.693,6.05,6.05,0,0,0,3,1.387c1.387.347,2.889.693,4.449.924-1.04-2.716-2.542-4.1-4.68-4.564-.347,0-.751-.058-1.04-.058m8.493,9.187h-.231a70.5,70.5,0,0,1-8.089-1.444,9.355,9.355,0,0,1-5.084-2.716A5.254,5.254,0,0,1,65.7,25.628a5.541,5.541,0,0,1,2.138-4.218,7.011,7.011,0,0,1,5.893-.982c5.778,1.271,7.627,6.471,8.551,10.284a.733.733,0,0,1,.058.347.985.985,0,0,1,0,.578,1.909,1.909,0,0,1-1.964,1.733" transform="translate(-27.736 -8.568)"/>
        <path id="패스_5819" data-name="패스 5819" class="cls-9" d="M96.182,65.716a2.712,2.712,0,0,1-2.716,2.716H61.516A2.712,2.712,0,0,1,58.8,65.716v-23.4A2.712,2.712,0,0,1,61.516,39.6H93.467a2.712,2.712,0,0,1,2.716,2.716Z" transform="translate(-24.827 -16.762)"/>
        <rect id="사각형_650" data-name="사각형 650" class="cls-3" width="4.16" height="29.005" transform="translate(50.613 22.664)"/>
        <path id="패스_5820" data-name="패스 5820" class="cls-10" d="M33.336,11.4a20.221,20.221,0,0,1,.809-2.658,10.443,10.443,0,0,1,1.791-3.062A4.39,4.39,0,0,1,37.208,4.7a5.908,5.908,0,0,1,1.618-.636c.347,0,.693-.058,1.04-.058a4.021,4.021,0,0,1,.924.116,1.161,1.161,0,0,1,.462.231,1.35,1.35,0,0,1,.4.4,2.277,2.277,0,0,1,.231.867h0v.058a.521.521,0,0,1-.058.289,1.209,1.209,0,0,1-.231.347,1.558,1.558,0,0,1-.462.4,3.889,3.889,0,0,1-1.1.52c-.462.173-.924.289-1.444.462a63.8,63.8,0,0,1-7.511,1.387,2.035,2.035,0,1,0,.462,4.044,82.111,82.111,0,0,0,8.089-1.444,14.734,14.734,0,0,0,2.542-.867,7.734,7.734,0,0,0,1.329-.751,5.5,5.5,0,0,0,1.213-1.1,5.508,5.508,0,0,0,.924-1.5A4.79,4.79,0,0,0,45.99,5.62V5.331h0a6.246,6.246,0,0,0-.636-2.369,6.576,6.576,0,0,0-1.04-1.444A5.839,5.839,0,0,0,42.176.247,8.007,8.007,0,0,0,39.865-.1a7.178,7.178,0,0,0-1.907.231,8.9,8.9,0,0,0-3.524,1.56A9.946,9.946,0,0,0,32.47,3.54a13.888,13.888,0,0,0-1.907,3.351,27.475,27.475,0,0,0-1.1,3.524,1.967,1.967,0,0,0,1.5,2.427A1.906,1.906,0,0,0,33.336,11.4" transform="translate(-12.363)"/>
        <path id="패스_5821" data-name="패스 5821" class="cls-10" d="M23.582,10.516A24.84,24.84,0,0,0,22.6,7.338a13.358,13.358,0,0,0-2.658-4.391,9.194,9.194,0,0,0-2.2-1.676A9.873,9.873,0,0,0,14.973.231,6.492,6.492,0,0,0,13.124,0a6.464,6.464,0,0,0-2.08.289,6.9,6.9,0,0,0-1.5.636A5.5,5.5,0,0,0,7.751,2.773,6.124,6.124,0,0,0,7,5.431H7V5.72A5,5,0,0,0,8.271,9.071a6.948,6.948,0,0,0,1.213,1.1,10.771,10.771,0,0,0,1.964,1.04c.636.231,1.271.4,1.849.578a55.2,55.2,0,0,0,8.089,1.444,2.035,2.035,0,0,0,.462-4.044A53.8,53.8,0,0,1,14.338,7.8a11.687,11.687,0,0,1-1.849-.578,4.309,4.309,0,0,1-.693-.4,3.3,3.3,0,0,1-.462-.4,3.539,3.539,0,0,1-.231-.347.733.733,0,0,1-.058-.347V5.662h0a2.114,2.114,0,0,1,.173-.809c.058-.116.173-.231.231-.347a2.526,2.526,0,0,1,.578-.347,6.4,6.4,0,0,1,1.1-.116,6.367,6.367,0,0,1,1.04.116,5.26,5.26,0,0,1,2.08.867,6.874,6.874,0,0,1,1.156,1.1,8.965,8.965,0,0,1,1.329,2.311,21.968,21.968,0,0,1,.924,2.947,2.019,2.019,0,0,0,2.427,1.5,1.925,1.925,0,0,0,1.5-2.369" transform="translate(-2.956 -0.042)"/>
        <path id="패스_5822" data-name="패스 5822" class="cls-3" d="M37.382,57.46a2.712,2.712,0,0,1-2.716,2.716H2.716A2.712,2.712,0,0,1,0,57.46V22.216A2.712,2.712,0,0,1,2.716,19.5H34.667a2.712,2.712,0,0,1,2.716,2.716Z" transform="translate(0 -8.276)"/>
        <rect id="사각형_651" data-name="사각형 651" class="cls-10" width="4.16" height="40.676" transform="translate(16.582 11.224)"/>
      </g>
    </g>
  </g>
</svg>
