<svg xmlns="http://www.w3.org/2000/svg" xmlns:xlink="http://www.w3.org/1999/xlink" viewBox="0 0 172.496 211.845">
  <defs>
    <style>
      .cls-1 {
        fill: url(#linear-gradient);
      }

      .cls-2 {
        fill: #fff;
      }

      .cls-3 {
        fill: #727171;
      }

      .cls-4 {
        fill: #bce2e3;
      }

      .cls-5 {
        fill: #f2e9b6;
      }

      .cls-6 {
        fill: #74c6be;
      }

      .cls-7 {
        fill: #e0f1f2;
      }

      .cls-8 {
        fill: #fdd35c;
      }

      .cls-9 {
        fill: #ea5541;
      }

      .cls-10 {
        fill: #fff4cd;
      }
    </style>
    <linearGradient id="linear-gradient" y1="0.485" x2="1" y2="0.5" gradientUnits="objectBoundingBox">
      <stop offset="0" stop-color="#d5d795"/>
      <stop offset="1" stop-color="#9cae29"/>
    </linearGradient>
  </defs>
  <g id="그룹_1270" data-name="그룹 1270" transform="translate(-69.304 -1827)">
    <rect id="사각형_375" data-name="사각형 375" class="cls-1" width="172.496" height="67.929" rx="33.965" transform="translate(69.304 1827)"/>
    <rect id="사각형_376" data-name="사각형 376" class="cls-2" width="162.191" height="57.624" rx="28.812" transform="translate(74.304 1832)"/>
    <rect id="사각형_378" data-name="사각형 378" class="cls-2" width="161.178" height="57.265" rx="28.633" transform="translate(75.304 1832)"/>
    <g id="그룹_1018" data-name="그룹 1018" transform="translate(103.003 1908)">
      <path id="패스_4293" data-name="패스 4293" class="cls-3" d="M111.794,96.4,109,92.892l4.471-3.992,2.634,5.748a9.27,9.27,0,0,1-4.231,1.916" transform="translate(-21.984 -17.929)"/>
      <path id="패스_4294" data-name="패스 4294" class="cls-3" d="M124.972,92.844,121.3,90.209l3.193-5.109,4.071,4.87A10.1,10.1,0,0,1,125.052,93" transform="translate(-24.464 -17.163)"/>
      <path id="패스_4295" data-name="패스 4295" class="cls-4" d="M103.582,90.2S96,78.865,85.3,83.895l1.038-10.3s14.769-3.992,22.193,12.933Z" transform="translate(-17.204 -14.76)"/>
      <path id="패스_4296" data-name="패스 4296" class="cls-2" d="M106.41,80.1A23.547,23.547,0,0,1,112,87.125l-4.471,3.992a19.693,19.693,0,0,0-5.828-4.63s3.034-.479,2.475-3.193c0,0,0-2,1.118-2.634Z" transform="translate(-20.511 -16.154)"/>
      <path id="패스_4297" data-name="패스 4297" class="cls-3" d="M115.924,90.057c3.672,7.265,2.155,14.849.319,22.193a206.574,206.574,0,0,0-4.63,25.067c-.08.8-.24,1.517-.319,2.315l-4.071-.878c.878-9.5-4.55-14.929-4.55-14.929-3.752,1.6-8.542,14.21-8.542,14.21l-4.63-.4c.8-5.668,5.429-12.773,4.311-21.475a43.538,43.538,0,0,1,.639-13.252,23.123,23.123,0,0,1,.958-4.55c.479-1.756,4.391-9.66,6.786-9.66,2.315,0,13.172.8,13.172.8a8.741,8.741,0,0,1,.8.878" transform="translate(-18.051 -17.889)"/>
      <path id="패스_4298" data-name="패스 4298" class="cls-3" d="M99.744,88.981a7.385,7.385,0,0,0-.4-.8c-1.357-2.155-5.908-3.273-8.143-3.912a23.172,23.172,0,0,0-8.462-.24l-.24,2.315c.319,0,.639.08.958.08.958.16,1.916.4,2.874.639,1.277.4,2.395,1.2,3.592,1.676,5.029,2,5.109,7.744,7.424,7.9,1.756.239,3.193-5.508,2.395-7.664" transform="translate(-16.639 -16.893)"/>
      <path id="패스_4299" data-name="패스 4299" class="cls-5" d="M80.838,86.234a2.292,2.292,0,0,0-1.517.559,2.943,2.943,0,0,0-.8,1.277c0,.08-.08.08-.08.16-.239.4-.479-.08-.559-.319a.882.882,0,0,1,0-.639c0-.08.16-.559.24-.559,0,0-.639.16-1.2,1.517,0,.08-.08.319-.16.319-.4,0-.319-1.118-.24-1.357,0-.08.24-.718.319-.718a1.732,1.732,0,0,0-1.2.639c-.08.08-.24.24-.4.16-.24-.16.08-.8.16-.958a3.222,3.222,0,0,1,1.038-1.038l-.16-.08a1.184,1.184,0,0,0-.559-.08,1.288,1.288,0,0,0-.718.24c-.16.08-.559.479-.718.239s.319-.718.479-.878a2.553,2.553,0,0,1,1.517-.4c-.08,0-.16-.16-.239-.16-.16-.08-.4-.24-.559-.319-.24-.08-.559-.08-.718-.239-.319-.24.479-.4.639-.4h.639a20.61,20.61,0,0,1,2.315.24c.479.08.878.16,1.357.239h.08l1.2.16c0,.16.319,2.395-.16,2.395" transform="translate(-14.977 -16.78)"/>
      <path id="패스_4300" data-name="패스 4300" class="cls-6" d="M52.688,15.2s-8.7,1.118-8.941,31.534c0,0,.239,3.912-3.273,3.752a2.1,2.1,0,0,0-2.076,2c-.16,2.315,2.714,2.475,4.311,2.315a7.594,7.594,0,0,0,1.437-.319c5.189-1.676,4.79-7.345,5.109-11.735.4-5.269.16-10.538,2-15.567,1.118-3.034,3.273-5.269,5.349-7.824Z" transform="translate(-7.744 -3.065)"/>
      <path id="패스_4301" data-name="패스 4301" class="cls-4" d="M100.615,32.811c-5.109-5.828-8.622-9.66-15.647-14.21-.24-.16-7.744-5.029-7.9-4.71A14.855,14.855,0,0,0,78.182,0C71,3.912,70.359,10.139,70.359,10.139l-1.756.239c-5.349.958-6.067.718-6.067.718A18.146,18.146,0,0,0,52.955.958C48.085,11.177,57.186,17.8,57.186,17.8,50.8,21.4,51.2,49.336,51.2,49.416l.4,34.727-.08,6.546S50,111.606,77.3,107.374a12,12,0,0,0,4.79-2.235,15.915,15.915,0,0,0,6.945-9.261,22.227,22.227,0,0,0,.479-4.63A24.093,24.093,0,0,0,89.2,85.9c-.08-.24-.639-2.794-.8-3.113L83.85,63.307l-3.592-14.13c-.958-3.193-.8-3.273-.958-3.353,4.231,1.437,9.261,1.277,13.651.718a9.3,9.3,0,0,0,5.908-3.353c1.118-1.277,2.954-3.832,3.113-5.668a5.429,5.429,0,0,0-1.357-4.71" transform="translate(-10.325 0)"/>
      <path id="패스_4302" data-name="패스 4302" class="cls-2" d="M83.616,2.5s1.6,6.067-1.277,9.819c-2.794,3.752-2.395-6.466,1.277-9.819" transform="translate(-16.238 -0.504)"/>
      <path id="패스_4303" data-name="패스 4303" class="cls-2" d="M53.828,4.3s-1.6,6.466,2.794,11.1c3.832,4.071,2.076-7.5-2.794-11.1" transform="translate(-10.8 -0.867)"/>
      <path id="패스_4304" data-name="패스 4304" class="cls-7" d="M97.4,36.9h0l.08.08-.08-.08" transform="translate(-19.644 -7.442)"/>
      <path id="패스_4305" data-name="패스 4305" class="cls-6" d="M75.522,23.272a1.027,1.027,0,0,0,.878-1.2l-.08-.559v-.08c-.4-2.315-1.357-3.752-4.391-3.353l-2.954.4a1.05,1.05,0,1,0,.319,2.076l2.954-.4c1.437-.16,1.756-.08,2.076,1.676l.08.559a.953.953,0,0,0,1.118.878" transform="translate(-13.732 -3.634)"/>
      <path id="패스_4306" data-name="패스 4306" class="cls-6" d="M77.672,21.1a1.027,1.027,0,0,0,.878-1.2l-.08-.559v-.08c-.718-3.353-3.113-5.189-6.466-4.87l-5.429.718a1.07,1.07,0,0,0-.878,1.2,1.027,1.027,0,0,0,1.2.878l5.429-.718a3.511,3.511,0,0,1,4.151,3.113l.08.559a1,1,0,0,0,1.118.958" transform="translate(-13.248 -2.895)"/>
      <path id="패스_4307" data-name="패스 4307" class="cls-6" d="M79.7,18.846a1.07,1.07,0,0,0,.878-1.2v-.319a7.6,7.6,0,0,0-8.462-6.546l-8.143,1.038a1.027,1.027,0,0,0-.878,1.2,1.07,1.07,0,0,0,1.2.878l8.143-1.038a5.488,5.488,0,0,1,6.147,4.71v.319a1,1,0,0,0,1.118.958" transform="translate(-12.724 -2.161)"/>
      <path id="패스_4308" data-name="패스 4308" class="cls-2" d="M95.555,36.5a.988.988,0,0,0-.24-.16c-.878-.639-3.912-2.874-3.592-5.508,0,0-3.193-.16-8.223-3.433,0,0,4.71,3.273,3.353,5.987,0,0,3.433-.239,8.7,3.113" transform="translate(-16.841 -5.526)"/>
      <path id="패스_4309" data-name="패스 4309" class="cls-4" d="M38.212,83.88s4.55-9.021,13.412.16L52.5,73.582s-8.462-8.861-18.2,4.71Z" transform="translate(-6.918 -14.267)"/>
      <path id="패스_4310" data-name="패스 4310" class="cls-2" d="M55.184,71.392h0c.239-.08.319-.24.239-.4v-.4c.08-.16-.08-.319-.239-.4s-.319.08-.4.24a1.353,1.353,0,0,0,0,.8c.16.08.239.16.4.16" transform="translate(-11.038 -14.152)"/>
      <path id="패스_4311" data-name="패스 4311" class="cls-2" d="M58.384,61.992h0c.24-.08.319-.239.24-.4v-.4c.08-.16-.08-.319-.24-.4s-.319.08-.4.239a1.353,1.353,0,0,0,0,.8.61.61,0,0,0,.4.16" transform="translate(-11.683 -12.257)"/>
      <path id="패스_4312" data-name="패스 4312" class="cls-2" d="M54.284,62.592h0c.239-.08.319-.239.239-.4v-.4c.08-.16-.08-.319-.239-.4s-.319.08-.4.239a1.353,1.353,0,0,0,0,.8.61.61,0,0,0,.4.16" transform="translate(-10.856 -12.378)"/>
      <path id="패스_4313" data-name="패스 4313" class="cls-2" d="M58.884,57.992h0c.239-.08.319-.239.239-.4v-.4c.08-.16-.08-.319-.239-.4s-.319.08-.4.239a1.353,1.353,0,0,0,0,.8c.16.08.239.16.4.16" transform="translate(-11.784 -11.45)"/>
      <path id="패스_4314" data-name="패스 4314" class="cls-2" d="M54.484,53.592h0c.24-.08.319-.239.24-.4v-.4c.08-.16-.08-.319-.24-.4s-.319.08-.4.239a1.353,1.353,0,0,0,0,.8.61.61,0,0,0,.4.16" transform="translate(-10.896 -10.563)"/>
      <path id="패스_4315" data-name="패스 4315" class="cls-2" d="M55.984,59.892h0c.239-.08.319-.239.239-.4v-.4c.08-.16-.08-.319-.239-.4s-.319.08-.4.239a1.361,1.361,0,0,0,0,.8c.16.08.239.16.4.16" transform="translate(-11.199 -11.833)"/>
      <path id="패스_4316" data-name="패스 4316" class="cls-2" d="M55.984,50.292h0c.239-.08.319-.239.239-.4v-.4c.08-.16-.08-.319-.239-.4s-.319.08-.4.239a1.353,1.353,0,0,0,0,.8.61.61,0,0,0,.4.16" transform="translate(-11.199 -9.897)"/>
      <path id="패스_4317" data-name="패스 4317" class="cls-2" d="M57.584,53.892h0c.239-.08.319-.239.239-.4v-.4c.08-.16-.08-.319-.239-.4s-.319.08-.4.24a1.353,1.353,0,0,0,0,.8c.08.08.239.24.4.16" transform="translate(-11.522 -10.623)"/>
      <path id="패스_4318" data-name="패스 4318" class="cls-2" d="M55.884,56.292h0c.239-.08.319-.239.239-.4v-.4c.08-.16-.08-.319-.239-.4s-.319.08-.4.239a1.353,1.353,0,0,0,0,.8.61.61,0,0,0,.4.16" transform="translate(-11.179 -11.107)"/>
      <path id="패스_4319" data-name="패스 4319" class="cls-2" d="M55.684,65.392h0c.239-.08.319-.24.239-.4v-.4c.08-.16-.08-.319-.239-.4s-.319.08-.4.24a1.353,1.353,0,0,0,0,.8c.16.08.239.16.4.16" transform="translate(-11.138 -12.942)"/>
      <path id="패스_4320" data-name="패스 4320" class="cls-2" d="M57.384,69.092h0c.239-.08.319-.239.239-.4v-.4c.08-.16-.08-.319-.239-.4s-.319.08-.4.24a1.361,1.361,0,0,0,0,.8.61.61,0,0,0,.4.16" transform="translate(-11.481 -13.689)"/>
      <path id="패스_4321" data-name="패스 4321" class="cls-2" d="M54.484,68.092h0c.24-.08.319-.24.24-.4v-.4c.08-.16-.08-.319-.24-.4s-.319.08-.4.24a1.36,1.36,0,0,0,0,.8,1.349,1.349,0,0,0,.4.16" transform="translate(-10.896 -13.487)"/>
      <path id="패스_4322" data-name="패스 4322" class="cls-2" d="M59.084,66.092h0c.239-.08.319-.24.239-.4v-.4c.08-.16,0-.319-.239-.4-.16-.08-.319.08-.4.24a1.353,1.353,0,0,0,0,.8.61.61,0,0,0,.4.16" transform="translate(-11.824 -13.083)"/>
      <path id="패스_4323" data-name="패스 4323" class="cls-2" d="M83.491,96.4a.255.255,0,0,0,.24-.24c.08-.08.16-.319.24-.319.16-.08.16-.319.08-.479s-.319-.16-.479-.08a1.921,1.921,0,0,0-.479.639.292.292,0,0,0,.16.4.618.618,0,0,0,.239.08" transform="translate(-16.752 -19.207)"/>
      <path id="패스_4324" data-name="패스 4324" class="cls-2" d="M86.891,95.8a.255.255,0,0,0,.24-.24c.08-.16.16-.319.239-.319.16-.08.16-.319.08-.479s-.319-.16-.479-.08a1.921,1.921,0,0,0-.479.639.292.292,0,0,0,.16.4c.16.08.16.08.239.08" transform="translate(-17.438 -19.086)"/>
      <path id="패스_4325" data-name="패스 4325" class="cls-2" d="M86.191,88.6a.255.255,0,0,0,.239-.24c.08-.08.16-.319.24-.319.16-.08.16-.319.08-.479s-.319-.16-.479-.08a1.921,1.921,0,0,0-.479.639.292.292,0,0,0,.16.4.618.618,0,0,0,.239.08" transform="translate(-17.297 -17.633)"/>
      <path id="패스_4326" data-name="패스 4326" class="cls-2" d="M83.791,92.6a.255.255,0,0,0,.24-.24c.08-.08.16-.319.239-.319.16-.08.16-.319.08-.479s-.319-.16-.479-.08a1.921,1.921,0,0,0-.479.639.292.292,0,0,0,.16.4.618.618,0,0,0,.239.08" transform="translate(-16.813 -18.44)"/>
      <path id="패스_4327" data-name="패스 4327" class="cls-2" d="M86.391,91.9a.255.255,0,0,0,.24-.24c0-.08.16-.319.239-.319.16-.08.16-.319.08-.479s-.319-.16-.479-.08a1.921,1.921,0,0,0-.479.639.292.292,0,0,0,.16.4c.16.08.239.16.239.08" transform="translate(-17.337 -18.299)"/>
      <path id="패스_4328" data-name="패스 4328" class="cls-2" d="M83.191,89.8a.255.255,0,0,0,.24-.24c.08-.16.16-.319.24-.319.16-.08.16-.319.08-.479s-.319-.16-.479-.08a1.921,1.921,0,0,0-.479.639.292.292,0,0,0,.16.4.618.618,0,0,0,.239.08" transform="translate(-16.692 -17.876)"/>
      <path id="패스_4329" data-name="패스 4329" class="cls-2" d="M81.091,95.5a.255.255,0,0,0,.239-.24c.08-.08.16-.319.24-.319.16-.08.16-.319.08-.479s-.319-.16-.479-.08a1.921,1.921,0,0,0-.479.639.292.292,0,0,0,.16.4c.16.08.16.08.239.08" transform="translate(-16.268 -19.025)"/>
      <path id="패스_4330" data-name="패스 4330" class="cls-4" d="M71.9,128.636l-6.387,18.6L61.439,146.2,60.8,126.8Z" transform="translate(-12.263 -25.573)"/>
      <path id="패스_4331" data-name="패스 4331" class="cls-2" d="M61.3,142.1a2.953,2.953,0,0,0,3.992.958s1.916-1.118,2.475.878l-2.155,6.387-4.071-1.038Z" transform="translate(-12.364 -28.658)"/>
      <path id="패스_4332" data-name="패스 4332" class="cls-3" d="M60.329,151.1,55.3,157.167l9.021,1.2.08-6.227Z" transform="translate(-11.153 -30.473)"/>
      <path id="패스_4333" data-name="패스 4333" class="cls-4" d="M82.7,127.971l10.777,16.445,3.672-2L92.919,123.5Z" transform="translate(-16.679 -24.907)"/>
      <path id="패스_4334" data-name="패스 4334" class="cls-2" d="M97.428,138.4a2.926,2.926,0,0,1-3.672,1.916s-2.155-.559-2.155,1.437l3.672,5.668,3.672-2.076Z" transform="translate(-18.474 -27.912)"/>
      <path id="패스_4335" data-name="패스 4335" class="cls-3" d="M99.872,147.2l6.307,4.63L97.8,155.183,96.2,149.2Z" transform="translate(-19.402 -29.687)"/>
      <path id="패스_4336" data-name="패스 4336" class="cls-6" d="M105.635,49.031l-.24-.16a1.174,1.174,0,0,1-.4-.479.641.641,0,0,1,.08-.639v-.08a.884.884,0,0,1,1.118-.319h.08l.24.16c.16.08.479.08.559-.16.08-.16.08-.479-.16-.559l-.24-.16h0l-.08-.08a1.643,1.643,0,0,0-2.155.639l-.08.08a1.566,1.566,0,0,0-.08,1.2,1.717,1.717,0,0,0,.718.958l.24.16c.16.08.479.08.559-.16.08-.08,0-.319-.16-.4" transform="translate(-21.014 -9.354)"/>
      <path id="패스_4337" data-name="패스 4337" class="cls-6" d="M109.79,44.806l-.16-.239a.86.86,0,0,1-.16-.639.539.539,0,0,1,.319-.479h.08a.844.844,0,0,1,1.118.16v.08l.16.239a.4.4,0,0,0,.639-.479l-.16-.239h0l-.08-.08a1.65,1.65,0,0,0-2.235-.4l-.08.08a1.775,1.775,0,0,0-.639,1.038,1.644,1.644,0,0,0,.24,1.2l.16.239a.482.482,0,0,0,.8-.479" transform="translate(-21.895 -8.563)"/>
      <path id="패스_4338" data-name="패스 4338" class="cls-3" d="M90.79,26.893l-.16-.239a.96.96,0,0,1-.16-.639,1.287,1.287,0,0,1,.319-.559h.08a.894.894,0,0,1,1.2.239v.08h0l.16.239a.465.465,0,1,0,.8-.479l-.16-.239-.08-.08a1.857,1.857,0,0,0-2.395-.479l-.08.08a1.552,1.552,0,0,0-.718,1.118,1.851,1.851,0,0,0,.239,1.277l.16.239a.5.5,0,0,0,.639.16.814.814,0,0,0,.16-.718" transform="translate(-18.063 -4.939)"/>
      <path id="패스_4339" data-name="패스 4339" class="cls-3" d="M78.67,33.718l-.16-.319a1.186,1.186,0,0,1-.16-.718,1.1,1.1,0,0,1,.4-.639h.08a1,1,0,0,1,1.357.239v.08l.16.319a.465.465,0,0,0,.8-.479l-.24-.319-.08-.08a1.993,1.993,0,0,0-2.634-.479l-.08.08a1.893,1.893,0,0,0-.718,1.2,2.3,2.3,0,0,0,.24,1.437l.16.319a.443.443,0,0,0,.639.16.585.585,0,0,0,.24-.8" transform="translate(-15.603 -6.256)"/>
      <path id="패스_4340" data-name="패스 4340" class="cls-3" d="M38.765,62.529a1.512,1.512,0,0,1-1.437,1.6L5.555,65.882a1.512,1.512,0,0,1-1.6-1.437L3.8,61.651a1.512,1.512,0,0,1,1.437-1.6L37.088,58.3a1.512,1.512,0,0,1,1.6,1.437Z" transform="translate(-0.765 -11.756)"/>
      <path id="패스_4341" data-name="패스 4341" class="cls-3" d="M16.5,40.366a.605.605,0,0,1-.319.16.48.48,0,0,1-.319-.08.416.416,0,0,1-.08-.639.48.48,0,0,0,.08-.319.441.441,0,1,1,.878.08,1.192,1.192,0,0,1-.239.8m-1.517,2.395a.605.605,0,0,1-.319.16.293.293,0,0,1-.239-.08.416.416,0,0,1-.08-.639c.08-.08.08-.239.16-.319a.441.441,0,1,1,.878.08,1.872,1.872,0,0,1-.4.8m-1.357-2.235a.605.605,0,0,1-.319.16.48.48,0,0,1-.319-.08.416.416,0,0,1-.08-.639.48.48,0,0,0,.08-.319.441.441,0,0,1,.878.08.889.889,0,0,1-.239.8m-.239,4.71a.605.605,0,0,1-.319.16.48.48,0,0,1-.319-.08.416.416,0,0,1-.08-.639.48.48,0,0,0,.08-.319.441.441,0,1,1,.878.08,1.89,1.89,0,0,1-.239.8m-1.2-2.315a.319.319,0,0,1-.319.16.293.293,0,0,1-.239-.08.416.416,0,0,1-.08-.639.605.605,0,0,0,.16-.319.441.441,0,1,1,.878.08,3.679,3.679,0,0,1-.4.8m8.063-9.74C7.239,34.219,6.6,53.139,6.6,53.139l29.538-1.277c-6.227-21-15.887-18.681-15.887-18.681" transform="translate(-1.332 -6.677)"/>
      <path id="패스_4342" data-name="패스 4342" class="cls-3" d="M43.907,126.2l-3.992.24a3.658,3.658,0,0,1-2.874-1.916,7.242,7.242,0,0,1-.878-5.908,5.856,5.856,0,0,1,3.752-3.353,17.161,17.161,0,0,1,1.916-.559L38.558,95.062c-.08-.319.16-.559.479-.639s.559.16.639.479l3.353,20.038v.08h0a.607.607,0,0,1-.479.639h-.08a20.616,20.616,0,0,0-2.076.639,4.8,4.8,0,0,0-3.113,2.634l2.155-.319c.319-.08.559.16.639.479s-.16.559-.479.639l-2.634.4a5.271,5.271,0,0,0,.08,1.118l2.555-.319c.319-.08.559.16.639.479a.607.607,0,0,1-.479.639l-2.475.319a3.764,3.764,0,0,0,.479,1.2c.08,0,.08-.08.16-.08l2.475-.239a.565.565,0,0,1,.16,1.118l-2.076.239a2.194,2.194,0,0,0,1.517.8l3.912-.24a.546.546,0,0,1,.559.559.534.534,0,0,1-.559.479m-8.542-15.408a.843.843,0,0,0,.16-.4c0-.319.239-.479.559-.479s.479.24.479.559a1.453,1.453,0,0,1-.319.878.439.439,0,0,1-.4.239.48.48,0,0,1-.319-.08.463.463,0,0,1-.16-.718m-.08-6.067a.843.843,0,0,0,.16-.4c0-.319.239-.479.559-.479s.479.24.479.559a1.453,1.453,0,0,1-.319.878.439.439,0,0,1-.4.239.48.48,0,0,1-.319-.08.463.463,0,0,1-.16-.718m1.916,2.954a.843.843,0,0,0,.16-.4.528.528,0,0,1,.559-.479c.319,0,.479.239.479.559a1.453,1.453,0,0,1-.319.878.439.439,0,0,1-.4.24.48.48,0,0,1-.319-.08.52.52,0,0,1-.16-.718m-2.954.958a.439.439,0,0,1-.4.24.48.48,0,0,1-.319-.08.52.52,0,0,1-.16-.718.843.843,0,0,0,.16-.4c0-.319.239-.479.559-.479s.479.24.479.559a1.453,1.453,0,0,1-.319.878m-1.437-3.193a.439.439,0,0,1-.4.239.48.48,0,0,1-.319-.08.52.52,0,0,1-.16-.718.61.61,0,0,0,.16-.4c0-.319.239-.479.559-.479s.479.24.479.559a1.453,1.453,0,0,1-.319.878m-.639,6.786a.439.439,0,0,1-.4.24.48.48,0,0,1-.319-.08.52.52,0,0,1-.16-.718.843.843,0,0,0,.16-.4c0-.319.239-.479.559-.479s.479.24.479.559a1.674,1.674,0,0,1-.319.878m-1.836-3.273a.439.439,0,0,1-.4.24.48.48,0,0,1-.319-.08.52.52,0,0,1-.16-.718.843.843,0,0,0,.16-.4c0-.319.239-.479.559-.479s.479.239.479.559a1.964,1.964,0,0,1-.319.878M26.184,77.659c-.878.08-1.676-.958-1.756-2.235s.559-2.395,1.437-2.475,1.676.958,1.756,2.235c.08,1.357-.559,2.395-1.437,2.475m-1.517,7.824A6.507,6.507,0,0,1,20.357,87.4a5.786,5.786,0,0,1-3.433-1.2,3.907,3.907,0,0,1-1.038-.958,1.188,1.188,0,0,1,.08-1.756,1.281,1.281,0,0,1,1.836.08,3.86,3.86,0,0,0,2.634,1.357,4.018,4.018,0,0,0,2.475-1.118,1.215,1.215,0,1,1,1.756,1.676M23.23,130.747a.439.439,0,0,1-.4.24.48.48,0,0,1-.319-.08.522.522,0,0,1-.16-.639.605.605,0,0,0,.16-.319.479.479,0,1,1,.958,0,2.343,2.343,0,0,1-.239.8m-1.836-2.714a.439.439,0,0,1-.4.24.48.48,0,0,1-.319-.08.52.52,0,0,1-.16-.718.843.843,0,0,0,.16-.4c0-.319.239-.479.559-.479s.479.24.479.559c-.08.24-.239.639-.319.878m.08,5.748c-.08.16-.239.16-.4.24a.48.48,0,0,1-.319-.08.422.422,0,0,1-.08-.639.605.605,0,0,0,.16-.319.479.479,0,1,1,.958,0,8.282,8.282,0,0,1-.319.8m-1.916-2.874a.439.439,0,0,1-.4.24.48.48,0,0,1-.319-.08.522.522,0,0,1-.16-.639.605.605,0,0,0,.16-.319.479.479,0,1,1,.958,0,1.192,1.192,0,0,1-.239.8m-1.6,3.034c-.08.16-.239.16-.4.24a.48.48,0,0,1-.319-.08.522.522,0,0,1-.16-.639.605.605,0,0,0,.16-.319.479.479,0,1,1,.958,0,.888.888,0,0,1-.239.8m-1.118-6.626a.843.843,0,0,0,.16-.4c0-.319.239-.479.559-.479s.479.24.479.559a1.453,1.453,0,0,1-.319.878.439.439,0,0,1-.4.239.48.48,0,0,1-.319-.08.52.52,0,0,1-.16-.718m-2.235-49.5c-.878.08-1.676-.958-1.756-2.235s.559-2.395,1.437-2.475,1.676.958,1.756,2.235c.08,1.357-.559,2.475-1.437,2.475m1.118,53.248c-.08.16-.239.16-.4.24a.48.48,0,0,1-.319-.08.422.422,0,0,1-.08-.639.605.605,0,0,0,.16-.319.435.435,0,0,1,.559-.4.4.4,0,0,1,.4.479,6.329,6.329,0,0,0-.319.718m-1.357,3.273a.439.439,0,0,1-.4.24.48.48,0,0,1-.319-.08.522.522,0,0,1-.16-.639.605.605,0,0,0,.16-.319.479.479,0,1,1,.958,0,1.54,1.54,0,0,1-.239.8m-1.357-6.307a.52.52,0,0,1-.16-.718.843.843,0,0,0,.16-.4.528.528,0,0,1,.559-.479c.319,0,.479.239.479.559a1.453,1.453,0,0,1-.319.878.439.439,0,0,1-.4.24c-.08.08-.239,0-.319-.08m-1.437-7.265a4.393,4.393,0,0,1-2.794,2.475l-3.353.16a.559.559,0,1,1,0-1.118l3.273-.16a2.166,2.166,0,0,0,1.517-1.2h-1.6a.559.559,0,1,1,0-1.118l2.155.08a5.983,5.983,0,0,0,.4-1.277H9.1a.559.559,0,1,1,0-1.118h2.235a6.042,6.042,0,0,0-.08-1.2H9.18a.559.559,0,1,1,0-1.118h1.676a5.593,5.593,0,0,0-.639-.8c-.878-.958-2.235-1.118-3.672-1.2-.319,0-.559-.08-.878-.08a.528.528,0,0,1-.479-.559c.16-7.105.4-15.567.4-15.647a.559.559,0,0,1,1.118,0c0,.16-.319,12.374-.4,15.088h.319c1.517.16,3.193.319,4.391,1.6a4.078,4.078,0,0,1,.878,1.277,7.354,7.354,0,0,1-.319,5.908m.16,10.219a.439.439,0,0,1-.4.239.48.48,0,0,1-.319-.08.522.522,0,0,1-.16-.639.605.605,0,0,0,.16-.319.479.479,0,1,1,.958,0,.965.965,0,0,1-.239.8M19.4,77.978c.239-.559.8-2.235,1.756-1.6l.239.239a12.41,12.41,0,0,1,.639,1.836c.479,1.277,1.437,3.034-.639,3.433a3.944,3.944,0,0,1-3.273-.639c-.878-.8.878-2.475,1.277-3.273m29.139,42.231L43.268,92.268a3.6,3.6,0,0,0-3.592-2.954c-.08-.639-.239-1.277-.319-1.916h.16l.639-.08a2.467,2.467,0,0,0,2-2.714L39.915,70.953a2.467,2.467,0,0,0-2.714-2l-.639.08a3.457,3.457,0,0,0-.4.08c-.08-.479-.16-1.038-.239-1.517L5.109,69.276v1.6c-.16,0-.319-.08-.479-.08H3.991a2.4,2.4,0,0,0-2.475,2.315L.957,86.84a2.4,2.4,0,0,0,2.315,2.475h.639a1.556,1.556,0,0,0,.639-.08v1.437A3.926,3.926,0,0,0,.8,94.5L0,119.172a3.9,3.9,0,0,0,3.592,4.071c0,1.6-.08,3.193-.08,4.71-.08,3.832-.08,8.462,2.954,11.336,3.273,3.113,8.143,2.315,12.214,2,5.668-.479,11.256-.639,16.924-.958,3.992-.24,8.7-.559,10.857-4.471,1.6-2.794,1.118-6.466.239-9.979a6.93,6.93,0,0,0,1.836-5.668" transform="translate(0 -13.633)"/>
      <path id="패스_4343" data-name="패스 4343" class="cls-8" d="M108.058,112.887c-.559.559-2.076-.639-2.555-1.2a1.441,1.441,0,0,1,2.076-2c.479.559,1.038,2.634.479,3.193" transform="translate(-21.201 -22.038)"/>
      <path id="패스_4344" data-name="패스 4344" class="cls-9" d="M105.453,115.61c.08.8.16,1.6-.559,1.676a1.546,1.546,0,0,1-1.6-1.2,1.384,1.384,0,0,1,1.2-1.6c.718-.16.8.319.958,1.118" transform="translate(-20.832 -23.084)"/>
      <path id="패스_4345" data-name="패스 4345" class="cls-6" d="M104.373,107.3c.08.8.16,1.6-.559,1.676a1.413,1.413,0,0,1-1.517-1.277,1.384,1.384,0,0,1,1.2-1.6c.639-.08.8.4.878,1.2" transform="translate(-20.63 -21.396)"/>
      <path id="패스_4346" data-name="패스 4346" class="cls-2" d="M105.567,105.868a2.849,2.849,0,0,0-2.634-.958,2.806,2.806,0,0,0-2.155,1.6,4.758,4.758,0,0,0-.479,2.315,10.622,10.622,0,0,0,2.874,6.307h0a11.471,11.471,0,0,0,5.987,3.193,1.787,1.787,0,0,0,1.6-.4c.559-.639.559-1.836.08-3.513-.479-1.2-.958-2.235-1.437-3.273a34.789,34.789,0,0,0-3.832-5.269Zm-3.034,9.66h0a11.194,11.194,0,0,1-3.034-6.786,7.616,7.616,0,0,1,.559-2.634,3.6,3.6,0,0,1,2.634-1.916,3.562,3.562,0,0,1,3.193,1.2,27.034,27.034,0,0,1,3.832,5.429,32.593,32.593,0,0,1,1.517,3.353c.639,2,.559,3.353-.16,4.151a2.677,2.677,0,0,1-2.235.639,12.2,12.2,0,0,1-6.307-3.433" transform="translate(-20.068 -21.006)"/>
      <path id="패스_4347" data-name="패스 4347" class="cls-2" d="M99.778,110.87h0a.385.385,0,0,1,.08-.559c.24-.08,5.109-2.874,7.824-2.235a.329.329,0,0,1-.16.639c-2.395-.559-7.265,2.155-7.345,2.155-.08.16-.24.08-.4,0" transform="translate(-20.106 -21.777)"/>
      <path id="패스_4348" data-name="패스 4348" class="cls-2" d="M100.978,113.79h0a.385.385,0,0,1,.08-.559c.24-.08,5.269-2.794,7.9-2.155a.329.329,0,1,1-.16.639c-2.395-.559-7.424,2.076-7.424,2.155a.351.351,0,0,1-.4-.08" transform="translate(-20.348 -22.382)"/>
      <path id="패스_4349" data-name="패스 4349" class="cls-2" d="M102.772,116.653l-.08-.08a.384.384,0,0,1,.16-.479c.24-.08,5.189-2.475,7.824-1.916a.329.329,0,1,1-.16.639c-2.395-.559-7.345,1.836-7.424,1.836-.08.16-.24.08-.319,0" transform="translate(-20.705 -23.01)"/>
      <path id="패스_4350" data-name="패스 4350" class="cls-2" d="M106.178,119.983h0a.385.385,0,0,1,.08-.559c.16-.08,3.672-2,6.307-1.357a.329.329,0,1,1-.16.639c-2.395-.559-5.828,1.277-5.828,1.357-.16.08-.319.08-.4-.08" transform="translate(-21.397 -23.785)"/>
      <path id="패스_4351" data-name="패스 4351" class="cls-2" d="M107.277,118.847a.279.279,0,0,1-.08-.16,25.1,25.1,0,0,0-5.828-10.139c-.16-.08-.16-.319,0-.479a.3.3,0,0,1,.479,0,25.66,25.66,0,0,1,5.987,10.378c.08.16-.08.319-.24.4-.08.16-.239.08-.319,0" transform="translate(-20.421 -21.771)"/>
      <path id="패스_4352" data-name="패스 4352" class="cls-2" d="M109.834,118.96a.293.293,0,0,1-.08-.24c0-.08-.08-5.908-7.584-13.571h0a.339.339,0,0,1,.479-.479c7.744,7.9,7.744,13.811,7.744,14.05a.343.343,0,0,1-.319.319.293.293,0,0,1-.239-.08" transform="translate(-20.582 -21.085)"/>
      <path id="패스_4353" data-name="패스 4353" class="cls-3" d="M122.56,76.494c-1.118,7.025-7.265,11.815-13.571,10.7-6.387-1.038-10.538-7.584-9.34-14.529s7.265-11.735,13.651-10.7c6.227,1.038,10.458,7.584,9.261,14.529" transform="translate(-20.056 -12.468)"/>
      <path id="패스_4354" data-name="패스 4354" class="cls-5" d="M121.06,76.744c-.958,5.748-5.987,9.66-11.256,8.782S101.1,79.3,102.06,73.55s5.987-9.66,11.256-8.782,8.7,6.227,7.744,11.975" transform="translate(-20.551 -13.038)"/>
      <path id="패스_4355" data-name="패스 4355" class="cls-3" d="M100.6,73.825s11.5-10.378,21.235,3.592l-.08-6.147L116.487,66.8H104.352l-2.634,4.071Z" transform="translate(-20.289 -13.472)"/>
      <path id="패스_4356" data-name="패스 4356" class="cls-4" d="M120.977,67.136a3.529,3.529,0,0,1-4.071,2.874l-7.744-1.277a3.524,3.524,0,1,1,1.2-6.945l7.744,1.277a3.615,3.615,0,0,1,2.874,4.071" transform="translate(-21.427 -12.451)"/>
      <path id="패스_4357" data-name="패스 4357" class="cls-9" d="M117.973,60.859l-7.744-1.277a5.342,5.342,0,0,0-1.756,10.538l7.744,1.277a5.342,5.342,0,0,0,1.756-10.538m-.319,1.836a3.524,3.524,0,1,1-1.2,6.945l-7.744-1.277a3.524,3.524,0,1,1,1.2-6.945Z" transform="translate(-20.977 -12.002)"/>
      <path id="패스_4358" data-name="패스 4358" class="cls-3" d="M109.913,76.315c-.16.8-.639,1.357-1.2,1.277-.479-.08-.8-.8-.718-1.517.16-.8.639-1.357,1.2-1.277s.878.718.718,1.517" transform="translate(-21.779 -15.084)"/>
      <path id="패스_4359" data-name="패스 4359" class="cls-3" d="M118.413,78.115c-.16.8-.639,1.357-1.2,1.277-.479-.08-.8-.8-.718-1.517.16-.8.639-1.357,1.2-1.277.559,0,.878.718.718,1.517" transform="translate(-23.493 -15.447)"/>
      <path id="패스_4360" data-name="패스 4360" class="cls-3" d="M109.15,84.327a5.6,5.6,0,0,1-.479-.718.777.777,0,0,1,.24-1.038.76.76,0,0,1,1.038.239,2.016,2.016,0,0,0,1.357,1.118,2.558,2.558,0,0,0,1.6-.319.742.742,0,0,1,.878,1.2,4.12,4.12,0,0,1-2.794.559,3.082,3.082,0,0,1-1.836-1.038" transform="translate(-21.894 -16.629)"/>
      <path id="패스_4361" data-name="패스 4361" class="cls-9" d="M113.455,78.424c0-.08-.08-.08-.08-.16-.479-.479-.958.4-1.2.718-.319.4-1.6,1.118-1.2,1.756a2.312,2.312,0,0,0,1.836.8c1.277,0,.958-1.118.8-1.916a5.432,5.432,0,0,0-.16-1.2" transform="translate(-22.368 -15.756)"/>
      <path id="패스_4362" data-name="패스 4362" class="cls-9" d="M127.215,76.669a.974.974,0,0,1-.718-.639,10.108,10.108,0,0,0-2.475-4.231.9.9,0,0,1,1.2-1.357,11.731,11.731,0,0,1,3.034,5.029.875.875,0,0,1-.639,1.118.6.6,0,0,1-.4.08" transform="translate(-24.95 -14.16)"/>
      <path id="패스_4363" data-name="패스 4363" class="cls-9" d="M100,72.677c-.16,0-.24-.08-.4-.16a1,1,0,0,1-.239-1.277,10.5,10.5,0,0,1,4.55-3.752.949.949,0,0,1,1.2.559.988.988,0,0,1-.479,1.2,9.4,9.4,0,0,0-3.752,3.193,1.057,1.057,0,0,1-.878.239" transform="translate(-20.013 -13.601)"/>
      <path id="패스_4364" data-name="패스 4364" class="cls-5" d="M116.881,107.4a2.785,2.785,0,0,1-1.676.24,2.521,2.521,0,0,1-1.357-.878c-.08,0-.08-.08-.16-.08-.4-.24-.4.319-.4.559a2.39,2.39,0,0,0,.319.639c.08.08.4.479.559.4,0,0-.718.24-1.836-.878-.08-.08-.24-.319-.319-.24-.4.16.239,1.2.479,1.357a4,4,0,0,0,.639.559,1.793,1.793,0,0,1-1.437,0c-.16-.08-.319-.08-.4.08-.16.319.4.718.639.878a2,2,0,0,0,1.517.4l-.16.16a1.67,1.67,0,0,1-.479.319,2.837,2.837,0,0,1-.8.16c-.16,0-.718-.16-.718.16s.639.559.878.559a3.242,3.242,0,0,0,1.676-.4c-.08,0-.08.24-.16.24a1.432,1.432,0,0,1-.4.559c-.16.16-.479.319-.559.559-.16.4.639.08.8,0s.4-.239.559-.319a18.57,18.57,0,0,0,2.076-1.357,13.649,13.649,0,0,0,1.118-.878l.08-.08,1.038-.718c-.24.08-1.038-2.155-1.517-2" transform="translate(-22.44 -21.504)"/>
      <path id="패스_4365" data-name="패스 4365" class="cls-3" d="M122.071,91.4s10.937,8.143-2.555,15.008L118,104.492s7.105-4.95,1.118-9.261c0,0,.958-3.832,2.954-3.832" transform="translate(-23.799 -18.433)"/>
      <path id="패스_4366" data-name="패스 4366" class="cls-10" d="M111.794,151.5a2.98,2.98,0,0,0,2.155,3.353,6.279,6.279,0,0,0,1.836-2.475Z" transform="translate(-22.543 -30.554)"/>
      <path id="패스_4367" data-name="패스 4367" class="cls-10" d="M89.5,150a3.325,3.325,0,0,0,2.954,3.433A6.82,6.82,0,0,0,94.21,150.4Z" transform="translate(-18.051 -30.252)"/>
      <path id="패스_4368" data-name="패스 4368" class="cls-6" d="M111.63,151.5s-3.113,3.353,4.071,9.9l6.546-1.038-6.546-7.983c-.08,0-2.315,3.513-4.071-.878" transform="translate(-22.379 -30.554)"/>
      <path id="패스_4369" data-name="패스 4369" class="cls-6" d="M87.443,150,79.3,156.786l6.227,1.437s6.227-2.874,6.546-7.744c0-.08-5.109,3.273-4.63-.479" transform="translate(-15.994 -30.252)"/>
    </g>
  </g>
</svg>
