<svg xmlns="http://www.w3.org/2000/svg" viewBox="0 0 264 240.669">
  <defs>
    <style>
      .cls-1 {
        fill: #74c6be;
      }

      .cls-2 {
        fill: #c7e8f6;
      }

      .cls-3 {
        fill: #bce2e3;
      }

      .cls-4 {
        fill: #fff;
      }

      .cls-5 {
        fill: #595757;
      }

      .cls-6 {
        fill: #e4f3fa;
      }
    </style>
  </defs>
  <g id="그룹_1266" data-name="그룹 1266" transform="translate(-25 -1731)">
    <g id="그룹_1262" data-name="그룹 1262" transform="translate(60.615 1823.969)">
      <path id="패스_4726" data-name="패스 4726" class="cls-1" d="M210.3,149.539h0a1.374,1.374,0,0,0,1.936-.187c.125-.187.312-.375.437-.562l.312-.375c.5-.562.937-1.124,1.436-1.749l1.874-2.248c.312-.375.562-.749.874-1.124a9.733,9.733,0,0,1,1-1.249l.187-.25c.625-.749,1.436-1.686,2.123-1.749.625,0,1.624.874,2.061,1.249l1.686,1.624a1.37,1.37,0,0,0,1.874-2l-1.686-1.624c-.812-.749-2.311-2.061-4.059-2-1.936.062-3.185,1.624-4.122,2.748l-.187.25c-.375.437-.749.937-1.062,1.374a6.306,6.306,0,0,1-.812,1l-1.874,2.248c-.5.562-.937,1.124-1.436,1.749l-.312.375c-.187.187-.312.375-.5.562a1.531,1.531,0,0,0,.25,1.936" transform="translate(-201.292 -51.552)"/>
      <path id="패스_4727" data-name="패스 4727" class="cls-1" d="M206.287,146.892a1.386,1.386,0,0,0,1.936-.187l8.806-10.554a5.3,5.3,0,0,1,1.5-1.249,4.973,4.973,0,0,1,5.371.562l3.06,2.561a1.375,1.375,0,0,0,1.749-2.123l-3.06-2.561a7.7,7.7,0,0,0-8.494-.874,9.935,9.935,0,0,0-2.248,1.874L206.1,144.956a1.332,1.332,0,0,0,.187,1.936" transform="translate(-201.465 -49.404)"/>
      <path id="패스_4728" data-name="패스 4728" class="cls-1" d="M204.079,144.178a1.332,1.332,0,0,0,1.936-.187l10.679-12.865a8.423,8.423,0,0,1,11.179-1l2.561,2.123a1.375,1.375,0,1,0,1.749-2.123l-2.623-2.186-.062-.062a11.26,11.26,0,0,0-14.864,1.312l-.062.062L203.83,142.117a1.606,1.606,0,0,0,.25,2.061" transform="translate(-203.567 -47.19)"/>
      <path id="패스_4729" data-name="패스 4729" class="cls-1" d="M111.176,27.1s-11.554,0-17.112,39.532c0,0-.375,5.121-4.934,4.309a2.767,2.767,0,0,0-3.06,2.248c-.625,3,3.06,3.747,5.246,3.747a11.082,11.082,0,0,0,2-.125c7.12-1.312,7.432-8.743,8.681-14.364,1.436-6.807,2.061-13.74,5.246-19.985,1.936-3.81,5.184-6.308,8.306-9.305Z" transform="translate(-12.989 -10.175)"/>
      <path id="패스_4730" data-name="패스 4730" class="cls-2" d="M158.952,186.274s16.425,5.621,19.485,20.8l5.433-1.561s2.186-14.989-14.676-27.229c0-.062-8.743-.687-10.242,7.994" transform="translate(-126.964 -66.928)"/>
      <path id="패스_4731" data-name="패스 4731" class="cls-3" d="M158.981,202.3c1.811.375,3.685.687,5.5,1,2.311.312,4.5.562,6.558.812a26.638,26.638,0,0,1,1.561,8.681c0,1.062-.062,1.686-.062,1.749a23.5,23.5,0,0,0-.812-8.181,2.652,2.652,0,0,0-1.312-.312,3.418,3.418,0,0,0-2.436,1.124,2.5,2.5,0,0,1-1.936,1,2.141,2.141,0,0,1-1-.25,1.583,1.583,0,0,0-.749-.25.459.459,0,0,0-.375.125l-.125.187a28.572,28.572,0,0,0-4.809-5.683m4.871,5.683h0a19.586,19.586,0,0,1,1.124,1.936c-.375-.625-.749-1.311-1.124-1.936m1.124,2h0m7.557,4.5Zm0,0Zm0,0h0L167.1,216.04l5.433-1.561h0" transform="translate(-115.627 -75.959)"/>
      <path id="패스_4732" data-name="패스 4732" class="cls-4" d="M159.1,211.4Zm1.124,1.936h0m0,.062a22.832,22.832,0,0,1,2.123,6.12,22.832,22.832,0,0,0-2.123-6.12m7.557,4.5,0,0Zm0,0Zm0,0Z" transform="translate(-110.875 -79.376)"/>
      <path id="패스_4733" data-name="패스 4733" class="cls-4" d="M165.376,208.2a2.961,2.961,0,0,1,1.312.312,23.454,23.454,0,0,1,.812,8.181h0l-5.433,1.561a23.617,23.617,0,0,0-2.123-6.12h0a13.347,13.347,0,0,0-1.062-1.874V210.2h0l.125-.187a.887.887,0,0,1,.375-.125,1.583,1.583,0,0,1,.749.25,2.141,2.141,0,0,0,1,.25,2.5,2.5,0,0,0,1.936-1,2.9,2.9,0,0,1,2.311-1.187" transform="translate(-110.531 -78.174)"/>
      <path id="패스_4734" data-name="패스 4734" class="cls-5" d="M162.805,230.294l-9.805.062.5-7.432L159,221.8Z" transform="translate(-102.089 -83.281)"/>
      <path id="패스_4735" data-name="패스 4735" class="cls-2" d="M57.191,177.9s16.363,12.49-9.368,27.417l-4.434-2.935s14.364-10.242,7.12-18.611Z" transform="translate(66.851 -66.797)"/>
      <path id="패스_4736" data-name="패스 4736" class="cls-3" d="M57.7,178.6c1.312,1.187,4.621,4.684,4.621,9.555v.562a38.793,38.793,0,0,0-7.807-5.371A26.285,26.285,0,0,0,57.7,178.6m-6.682,15.863a31.048,31.048,0,0,1,6.87,3.5c-.812.874-1.749,1.749-2.81,2.685a10.182,10.182,0,0,1-1.436.125c-1.062,0-2.436-.25-2.873-1.374-.749-1.686-1.5-1.811-1.749-1.811h-.062a30.052,30.052,0,0,0,2.061-3.123m-5.246,6.245h0m-.062.062a24.74,24.74,0,0,1-2.311,1.874,24.74,24.74,0,0,0,2.311-1.874" transform="translate(66.839 -67.06)"/>
      <path id="패스_4737" data-name="패스 4737" class="cls-3" d="M1.353,94.3A20.121,20.121,0,0,1,11.595,83.187C20.65,78.815,27.77,79.439,37.637,79.5c11.678.062,18.548,1,25.418-2.061,4.184-1.874,6.682-8.743,7.244-13.552,0-.062,4.309-37.159,13.427-40.844,0,0-10.929-10.3-2.685-23.045A24.174,24.174,0,0,1,91.97,15.051s.937.437,8.181.062h2.373S104.522,6.932,114.7,3c0,0,3.31,9.118-4,18.236.25-.312,9.368,7.432,9.618,7.682,8.556,7.244,12.49,12.928,18.3,21.546a7.839,7.839,0,0,1,1.124,6.807c-.5,2.311-3.435,5.433-5.121,6.932a12.428,12.428,0,0,1-8.368,3.435c-5.87-.062-12.678-.687-17.986-3.31.25.125,0,.187.749,4.621l2.248,19.3c1.749,14.864-1.062,28.978-16.425,35.223a62.078,62.078,0,0,1-17.112,4c-17.736,1.624-27.1,2.373-44.965-.125a66.71,66.71,0,0,1-14.8-3.685C5.475,118.972-3.518,107.668,1.353,94.3" transform="translate(16.209 0)"/>
      <path id="패스_4738" data-name="패스 4738" class="cls-4" d="M47.7,8.9s1.062,8.369-3.372,12.865a2.443,2.443,0,0,1-1.436.874c-2.248,0,.062-10.43,4.809-13.74" transform="translate(82.215 -3.342)"/>
      <path id="패스_4739" data-name="패스 4739" class="cls-4" d="M87.794,5.3c4.871,4.746,5.871,16.55,3.435,16.55-.437,0-1-.437-1.686-1.374-5-6.932-1.749-15.176-1.749-15.176" transform="translate(9.581 -1.99)"/>
      <path id="패스_4740" data-name="패스 4740" class="cls-6" d="M27.7,70.1a.773.773,0,0,0,.125.187A.773.773,0,0,1,27.7,70.1Z" transform="translate(111.142 -26.321)"/>
      <path id="패스_4741" data-name="패스 4741" class="cls-1" d="M6.026,88.011l-.062-.375a1.085,1.085,0,0,0-.375-.687,1,1,0,0,0-.749-.25H4.777A.98.98,0,0,0,3.9,87.761v.062l.062.375a.5.5,0,0,1-1,.125L2.9,87.948h0v-.125A2.053,2.053,0,0,1,4.777,85.7H4.9a2.227,2.227,0,0,1,1.436.5,1.876,1.876,0,0,1,.625,1.311l.062.375a.547.547,0,0,1-.437.562.5.5,0,0,1-.562-.437" transform="translate(147.43 -32.178)"/>
      <path id="패스_4742" data-name="패스 4742" class="cls-1" d="M15.209,91.374l-.187-.312a.9.9,0,0,0-.625-.437,1.044,1.044,0,0,0-.749.062l-.062.062a1.02,1.02,0,0,0-.375,1.374l.062.062.187.312a.5.5,0,1,1-.874.5l-.187-.312h0c0-.062-.062-.062-.062-.125a2.1,2.1,0,0,1,.749-2.748l.062-.062a2.114,2.114,0,0,1,1.5-.187A2.046,2.046,0,0,1,15.9,90.5l.187.312a.5.5,0,0,1-.187.687.444.444,0,0,1-.687-.125" transform="translate(132.564 -33.605)"/>
      <path id="패스_4743" data-name="패스 4743" class="cls-4" d="M106.582,117.2a.229.229,0,0,1,.187.062.429.429,0,0,1,.187.562c0,.062-.062.125-.062.25v.312a.475.475,0,0,1-.375.5h-.062a.536.536,0,0,1-.437-.375v-.187a1.063,1.063,0,0,1,.062-.437.888.888,0,0,1,.125-.375c.062-.25.187-.312.375-.312" transform="translate(-16.951 -44.006)"/>
      <path id="패스_4744" data-name="패스 4744" class="cls-4" d="M99.082,101.9a.229.229,0,0,1,.187.062.429.429,0,0,1,.187.562c0,.062-.062.125-.062.187v.312c.062.25-.125.437-.375.5h-.062a.536.536,0,0,1-.437-.375v-.187a1.063,1.063,0,0,1,.062-.437.888.888,0,0,1,.125-.375c0-.187.187-.25.375-.25" transform="translate(-4.767 -38.261)"/>
      <path id="패스_4745" data-name="패스 4745" class="cls-4" d="M106.174,102a.229.229,0,0,1,.187.062.544.544,0,0,1,.25.562h0c0,.062-.062.125-.062.25v.312a.475.475,0,0,1-.375.5h-.062a.536.536,0,0,1-.437-.375v-.187a1.063,1.063,0,0,1,.062-.437.888.888,0,0,1,.125-.375c0-.25.125-.312.312-.312" transform="translate(-16.355 -38.299)"/>
      <path id="패스_4746" data-name="패스 4746" class="cls-4" d="M97.382,95.2a.229.229,0,0,1,.187.062.429.429,0,0,1,.187.562c0,.062-.062.125-.062.187v.312c.062.25-.125.437-.375.5h-.062a.456.456,0,0,1-.437-.375v-.187a1.063,1.063,0,0,1,.062-.437.888.888,0,0,1,.125-.375.513.513,0,0,1,.375-.25" transform="translate(-2.005 -35.745)"/>
      <path id="패스_4747" data-name="패스 4747" class="cls-4" d="M103.874,86.9a.229.229,0,0,1,.187.062.544.544,0,0,1,.25.562c0,.062-.062.125-.062.25v.312a.475.475,0,0,1-.375.5h-.062a.536.536,0,0,1-.437-.375v-.187a1.063,1.063,0,0,1,.062-.437.888.888,0,0,1,.125-.375.291.291,0,0,1,.312-.312" transform="translate(-12.619 -32.629)"/>
      <path id="패스_4748" data-name="패스 4748" class="cls-4" d="M102.574,97.8a.229.229,0,0,1,.187.062.5.5,0,0,1,.25.562c0,.062-.062.125-.062.25v.312a.475.475,0,0,1-.375.5h-.062a.536.536,0,0,1-.437-.375v-.187a1.063,1.063,0,0,1,.062-.437.888.888,0,0,1,.125-.375c0-.25.125-.312.312-.312" transform="translate(-10.507 -36.722)"/>
      <path id="패스_4749" data-name="패스 4749" class="cls-4" d="M100.582,81.6a.229.229,0,0,1,.187.062.429.429,0,0,1,.187.562h0c0,.062-.062.125-.062.25v.312c.062.25-.125.437-.375.5h-.062a.456.456,0,0,1-.437-.375v-.187a1.063,1.063,0,0,1,.062-.437.888.888,0,0,1,.125-.375.4.4,0,0,1,.375-.312" transform="translate(-7.204 -30.639)"/>
      <path id="패스_4750" data-name="패스 4750" class="cls-4" d="M98.782,88.1a.229.229,0,0,1,.187.062.429.429,0,0,1,.187.562c0,.062-.062.125-.062.25v.312c.062.25-.125.437-.375.5h-.062a.536.536,0,0,1-.437-.375v-.187a1.063,1.063,0,0,1,.062-.437.888.888,0,0,1,.125-.375c.062-.25.187-.312.375-.312" transform="translate(-4.28 -33.079)"/>
      <path id="패스_4751" data-name="패스 4751" class="cls-4" d="M102.182,91.7a.229.229,0,0,1,.187.062.429.429,0,0,1,.187.562c0,.062-.062.125-.062.25v.312a.475.475,0,0,1-.375.5h-.062a.536.536,0,0,1-.437-.375v-.187a1.063,1.063,0,0,1,.062-.437.888.888,0,0,1,.125-.375.461.461,0,0,1,.375-.312" transform="translate(-9.803 -34.431)"/>
      <path id="패스_4752" data-name="패스 4752" class="cls-4" d="M104.336,107a.229.229,0,0,1,.187.062.544.544,0,0,1,.25.562,1.47,1.47,0,0,0-.125.5v.062a.475.475,0,0,1-.375.5h-.062a.536.536,0,0,1-.437-.375v-.187a1.562,1.562,0,0,1,.187-.812.35.35,0,0,1,.375-.312" transform="translate(-13.331 -40.176)"/>
      <path id="패스_4753" data-name="패스 4753" class="cls-4" d="M102.482,113.7a.229.229,0,0,1,.187.062.429.429,0,0,1,.187.562h0c0,.062-.062.125-.062.25v.312c.062.25-.125.437-.375.5h-.062a.536.536,0,0,1-.437-.375v-.187a1.063,1.063,0,0,1,.062-.437.888.888,0,0,1,.125-.375.461.461,0,0,1,.375-.312" transform="translate(-10.29 -42.692)"/>
      <path id="패스_4754" data-name="패스 4754" class="cls-4" d="M107.082,111.5a.229.229,0,0,1,.187.062.429.429,0,0,1,.187.562c0,.062-.062.125-.062.187v.312c.062.25-.125.437-.375.5h-.062a.456.456,0,0,1-.437-.375v-.187a1.063,1.063,0,0,1,.062-.437.888.888,0,0,1,.125-.375.388.388,0,0,1,.375-.25" transform="translate(-17.763 -41.866)"/>
      <path id="패스_4755" data-name="패스 4755" class="cls-4" d="M98.944,109a.229.229,0,0,1,.187.062.429.429,0,0,1,.187.562c0,.062-.062.125-.062.25s-.062.187-.062.25v.062c.062.25-.125.437-.375.5h-.062a.536.536,0,0,1-.437-.375v-.187a1.063,1.063,0,0,1,.062-.437.888.888,0,0,1,.125-.375.4.4,0,0,1,.437-.312" transform="translate(-4.505 -40.927)"/>
      <path id="패스_4756" data-name="패스 4756" class="cls-4" d="M26.3,51c6.12,5.246,10.3,6,10.3,6-.874,3.435,2.748,6.807,3.81,7.869l.25.25c-6.37-5.308-10.992-5.621-10.992-5.621C32.046,56.184,26.3,51,26.3,51" transform="translate(99.177 -19.149)"/>
      <path id="패스_4757" data-name="패스 4757" class="cls-3" d="M28.505,193.154s18.8.625,26.792,15.363l5.121-3.372s-2.5-16.175-23.857-23.545c0,0-9.243,2.123-8.056,11.554" transform="translate(78.111 -68.186)"/>
      <path id="패스_4758" data-name="패스 4758" class="cls-5" d="M29.691,226.919l-10.18,3.123L17.7,222.36l5.371-3.06Z" transform="translate(115.521 -82.342)"/>
      <path id="패스_4759" data-name="패스 4759" class="cls-3" d="M188.81,184.4s14.614,13.552,3.248,17.8l-5.184,1.561,3.185,4.059s21.921.687,15.613-17.924Z" transform="translate(-167.251 -69.238)"/>
      <path id="패스_4760" data-name="패스 4760" class="cls-5" d="M220.67,215.4l3.123,4-6.558,2.748-3.435-5.808Z" transform="translate(-201.047 -80.878)"/>
      <path id="패스_4761" data-name="패스 4761" class="cls-4" d="M207.794,151.2a.445.445,0,0,1,.375.187.407.407,0,0,1-.125.562c-.062,0-.125.125-.187.187s-.125.187-.187.25a.445.445,0,0,1-.375.187.23.23,0,0,1-.187-.062.5.5,0,0,1-.187-.562,1.656,1.656,0,0,1,.312-.375,2.717,2.717,0,0,1,.437-.375h.125" transform="translate(-181.176 -56.772)"/>
      <path id="패스_4762" data-name="패스 4762" class="cls-4" d="M202.021,151a.445.445,0,0,1,.375.187.407.407,0,0,1-.125.562c-.062,0-.125.125-.187.187s-.125.187-.187.25a.513.513,0,0,1-.375.25.229.229,0,0,1-.187-.062.429.429,0,0,1-.187-.562,1.657,1.657,0,0,1,.312-.375,2.718,2.718,0,0,1,.437-.375c0-.062.062-.062.125-.062" transform="translate(-171.781 -56.697)"/>
      <path id="패스_4763" data-name="패스 4763" class="cls-4" d="M201.521,138.5a.445.445,0,0,1,.375.187.407.407,0,0,1-.125.562c-.062,0-.125.125-.187.187s-.125.187-.187.25a.513.513,0,0,1-.375.25.229.229,0,0,1-.187-.062.429.429,0,0,1-.187-.562,1.656,1.656,0,0,1,.312-.375,2.716,2.716,0,0,1,.437-.375c0-.062.062-.062.125-.062" transform="translate(-170.968 -52.003)"/>
      <path id="패스_4764" data-name="패스 4764" class="cls-4" d="M206.421,144.9a.445.445,0,0,1,.375.187.407.407,0,0,1-.125.562c-.062,0-.125.125-.187.187s-.125.187-.187.25a.513.513,0,0,1-.375.25.229.229,0,0,1-.187-.062.429.429,0,0,1-.187-.562,1.656,1.656,0,0,1,.312-.375,2.716,2.716,0,0,1,.437-.375c-.062-.062.062-.062.125-.062" transform="translate(-178.928 -54.406)"/>
      <path id="패스_4765" data-name="패스 4765" class="cls-4" d="M201.921,144.3a.445.445,0,0,1,.375.187.407.407,0,0,1-.125.562c-.062,0-.125.125-.187.187s-.125.187-.187.25a.513.513,0,0,1-.375.25.229.229,0,0,1-.187-.062.429.429,0,0,1-.187-.562,1.657,1.657,0,0,1,.312-.375,2.716,2.716,0,0,1,.437-.375c0-.062.062-.062.125-.062" transform="translate(-171.618 -54.181)"/>
      <path id="패스_4766" data-name="패스 4766" class="cls-4" d="M206.794,139.9a.445.445,0,0,1,.375.187.407.407,0,0,1-.125.562c-.062,0-.125.125-.187.187s-.125.187-.187.25a.513.513,0,0,1-.375.25.229.229,0,0,1-.187-.062.5.5,0,0,1-.187-.562,1.656,1.656,0,0,1,.312-.375,2.716,2.716,0,0,1,.437-.375c-.062-.062,0-.062.125-.062" transform="translate(-179.551 -52.529)"/>
      <path id="패스_4767" data-name="패스 4767" class="cls-4" d="M211.721,149.2a.445.445,0,0,1,.375.187.407.407,0,0,1-.125.562c-.062,0-.125.125-.187.187s-.125.187-.187.25a.513.513,0,0,1-.375.25.229.229,0,0,1-.187-.062.429.429,0,0,1-.187-.562,1.656,1.656,0,0,1,.312-.375,2.717,2.717,0,0,1,.437-.375c-.062-.062.062-.062.125-.062" transform="translate(-187.538 -56.021)"/>
      <path id="패스_4768" data-name="패스 4768" class="cls-4" d="M63.921,166.2a.445.445,0,0,1,.375.187.407.407,0,0,1-.125.562c-.062,0-.125.125-.187.187s-.125.187-.187.25a.513.513,0,0,1-.375.25.229.229,0,0,1-.187-.062.429.429,0,0,1-.187-.562h0a1.656,1.656,0,0,1,.312-.375,2.717,2.717,0,0,1,.437-.375c0-.062.062-.062.125-.062" transform="translate(52.564 -62.404)"/>
      <path id="패스_4769" data-name="패스 4769" class="cls-4" d="M58.021,166a.445.445,0,0,1,.375.187.407.407,0,0,1-.125.562c-.062,0-.125.125-.187.187s-.125.187-.187.25a.513.513,0,0,1-.375.25.229.229,0,0,1-.187-.062.429.429,0,0,1-.187-.562,1.656,1.656,0,0,1,.312-.375,2.715,2.715,0,0,1,.437-.375c-.062-.062,0-.062.125-.062" transform="translate(62.149 -62.329)"/>
      <path id="패스_4770" data-name="패스 4770" class="cls-4" d="M57.621,153.5a.445.445,0,0,1,.375.187.407.407,0,0,1-.125.562c-.062,0-.125.125-.187.187s-.125.187-.187.25a.514.514,0,0,1-.375.25.229.229,0,0,1-.187-.062.429.429,0,0,1-.187-.562c.062-.125.187-.25.312-.437a2.717,2.717,0,0,1,.437-.375h.125" transform="translate(62.799 -57.636)"/>
      <path id="패스_4771" data-name="패스 4771" class="cls-4" d="M62.521,159.8a.445.445,0,0,1,.375.187.407.407,0,0,1-.125.562c-.062,0-.125.125-.187.187s-.125.187-.187.25a.513.513,0,0,1-.375.25.229.229,0,0,1-.187-.062.429.429,0,0,1-.187-.562c.062-.125.187-.25.312-.437l.375-.375c.062.062.125,0,.187,0" transform="translate(54.839 -60.001)"/>
      <path id="패스_4772" data-name="패스 4772" class="cls-4" d="M58.021,159.3a.445.445,0,0,1,.375.187.407.407,0,0,1-.125.562c-.062,0-.125.125-.187.187s-.125.187-.187.25a.514.514,0,0,1-.375.25.229.229,0,0,1-.187-.062.429.429,0,0,1-.187-.562h0c.062-.125.187-.25.312-.437a2.717,2.717,0,0,1,.437-.375h.125" transform="translate(62.149 -59.813)"/>
      <path id="패스_4773" data-name="패스 4773" class="cls-4" d="M62.921,154.8a.445.445,0,0,1,.375.187.407.407,0,0,1-.125.562c-.062,0-.125.125-.187.187s-.125.187-.187.25a.513.513,0,0,1-.375.25.229.229,0,0,1-.187-.062.429.429,0,0,1-.187-.562h0a1.656,1.656,0,0,1,.312-.375,2.718,2.718,0,0,1,.437-.375c-.062,0,.062-.062.125-.062" transform="translate(54.189 -58.124)"/>
      <path id="패스_4774" data-name="패스 4774" class="cls-4" d="M67.821,164.1a.445.445,0,0,1,.375.187.407.407,0,0,1-.125.562c-.062,0-.125.125-.187.187s-.125.187-.187.25a.513.513,0,0,1-.375.25.229.229,0,0,1-.187-.062.429.429,0,0,1-.187-.562c.062-.125.187-.25.312-.437a2.716,2.716,0,0,1,.437-.375c0,.062.062,0,.125,0" transform="translate(46.229 -61.616)"/>
      <path id="패스_4775" data-name="패스 4775" class="cls-4" d="M123.678,192.9h.125c.062.062.312.062.437.062h.187a.456.456,0,0,1,.437.375.43.43,0,0,1-.312.5h-.25a3.135,3.135,0,0,1-.749-.125c-.25-.062-.312-.312-.25-.562,0-.125.187-.25.375-.25" transform="translate(-45.6 -72.429)"/>
      <path id="패스_4776" data-name="패스 4776" class="cls-4" d="M115.84,191.5h.125c.062.062.312.062.437.062h.187a.456.456,0,0,1,.437.375c.062.25-.125.437-.375.5h-.25a2.684,2.684,0,0,1-.749-.125c-.25-.062-.312-.312-.25-.562a.471.471,0,0,1,.437-.25" transform="translate(-32.829 -71.904)"/>
      <path id="패스_4777" data-name="패스 4777" class="cls-4" d="M141.278,192.5h.187c.062,0,.125.062.187.062h.437a.456.456,0,0,1,.437.375c.062.25-.125.437-.375.5h-.25a.792.792,0,0,1-.375-.062.888.888,0,0,1-.375-.125c-.25-.062-.312-.312-.25-.562a.534.534,0,0,1,.375-.187" transform="translate(-74.255 -72.279)"/>
      <path id="패스_4778" data-name="패스 4778" class="cls-4" d="M148.24,191.1h.125c.062.062.312.062.437.062h.187a.456.456,0,0,1,.437.375c.062.25-.125.437-.375.5h-.25a2.685,2.685,0,0,1-.749-.125c-.25-.062-.312-.312-.25-.562a.793.793,0,0,1,.437-.25" transform="translate(-85.464 -71.753)"/>
      <path id="패스_4779" data-name="패스 4779" class="cls-4" d="M151.54,195.4h.125c.062,0,.125.062.187.062h.437a.456.456,0,0,1,.437.375c.062.25-.125.437-.375.5h-.25a.792.792,0,0,1-.375-.062.888.888,0,0,1-.375-.125c-.25-.062-.312-.312-.25-.562a.933.933,0,0,1,.437-.187" transform="translate(-90.825 -73.368)"/>
      <path id="패스_4780" data-name="패스 4780" class="cls-4" d="M145.278,196.3h.125c.062,0,.125.062.187.062h.437a.456.456,0,0,1,.437.375.43.43,0,0,1-.312.5h-.25a.792.792,0,0,1-.375-.062.888.888,0,0,1-.375-.125c-.25-.062-.312-.312-.25-.562a.534.534,0,0,1,.375-.187" transform="translate(-80.69 -73.706)"/>
      <path id="패스_4781" data-name="패스 4781" class="cls-4" d="M139.378,188.6h.125c.062.062.312.062.437.062h.187a.456.456,0,0,1,.437.375.43.43,0,0,1-.312.5H140a3.136,3.136,0,0,1-.749-.125c-.25-.062-.312-.312-.25-.562a.513.513,0,0,1,.375-.25" transform="translate(-71.105 -70.815)"/>
      <path id="패스_4782" data-name="패스 4782" class="cls-4" d="M136.04,197.5h.125c.062.062.312.062.437.062h.187a.456.456,0,0,1,.437.375c.062.25-.125.437-.375.5h-.25a3.135,3.135,0,0,1-.749-.125c-.25-.062-.312-.312-.25-.562a.793.793,0,0,1,.437-.25" transform="translate(-65.645 -74.157)"/>
      <path id="패스_4783" data-name="패스 4783" class="cls-4" d="M129.378,195.2h.125c.062.062.25.062.437.062h.187a.456.456,0,0,1,.437.375.43.43,0,0,1-.312.5H130a3.135,3.135,0,0,1-.749-.125c-.25-.062-.312-.312-.25-.562a.422.422,0,0,1,.375-.25" transform="translate(-54.86 -73.293)"/>
      <path id="패스_4784" data-name="패스 4784" class="cls-4" d="M121.578,187.9h.125c.062,0,.125.062.187.062h.437a.456.456,0,0,1,.437.375.43.43,0,0,1-.312.5h-.25a.792.792,0,0,1-.375-.062.888.888,0,0,1-.375-.125c-.25-.062-.312-.312-.25-.562a.534.534,0,0,1,.375-.187" transform="translate(-42.189 -70.552)"/>
      <path id="패스_4785" data-name="패스 4785" class="cls-4" d="M134.34,191.9h.125c.062,0,.125.062.187.062h.437a.456.456,0,0,1,.437.375c.062.25-.125.437-.375.5h-.25a.792.792,0,0,1-.375-.062.888.888,0,0,1-.375-.125c-.25-.062-.312-.312-.25-.562a.714.714,0,0,1,.437-.187" transform="translate(-62.883 -72.054)"/>
      <path id="패스_4786" data-name="패스 4786" class="cls-4" d="M35.395,200.6h0a26.376,26.376,0,0,1,5.871,11.679A26.376,26.376,0,0,0,35.395,200.6M28.4,206.908a25.517,25.517,0,0,1,7.557,8.431,28.956,28.956,0,0,0-7.557-8.431Zm12.865,5.371Zm0,0h0m0,0Zm0,0Zm0,0h0m0,0h0" transform="translate(97.265 -75.32)"/>
      <path id="패스_4787" data-name="패스 4787" class="cls-4" d="M34.021,200.3a5.335,5.335,0,0,1,1.374.187,26.377,26.377,0,0,1,5.871,11.679h0l-5.308,3a26.151,26.151,0,0,0-7.557-8.431v-.312a1.16,1.16,0,0,1,1.124-.812h.25C31.21,205.3,30.9,203.3,30.9,203.3c.312-2.5,1.936-3,3.123-3" transform="translate(97.265 -75.208)"/>
      <path id="패스_4788" data-name="패스 4788" class="cls-4" d="M58.207,209a29.3,29.3,0,0,1-3.06,3.123A29.3,29.3,0,0,0,58.207,209Zm6.183,3.06a49.037,49.037,0,0,1-7.182,4.934,49.036,49.036,0,0,0,7.182-4.934Zm-9.243.125h0" transform="translate(57.466 -78.474)"/>
      <path id="패스_4789" data-name="패스 4789" class="cls-4" d="M60.758,209c.25,0,1.062.125,1.749,1.811.5,1.124,1.811,1.374,2.873,1.374a8.128,8.128,0,0,0,1.436-.125,49.036,49.036,0,0,1-7.182,4.934L55.2,214.059a24.739,24.739,0,0,0,2.311-1.874h0A25.176,25.176,0,0,0,60.571,209h.187" transform="translate(54.977 -78.474)"/>
      <path id="패스_4790" data-name="패스 4790" class="cls-5" d="M75.531,219.4l-3.248-4L66.6,217.836l4.434,5Z" transform="translate(39.143 -80.878)"/>
      <path id="패스_4791" data-name="패스 4791" class="cls-4" d="M208.506,219.6h0a27.36,27.36,0,0,1-8.494,1.436h0a29.468,29.468,0,0,0,8.494-1.436" transform="translate(-176.954 -82.455)"/>
      <path id="패스_4792" data-name="패스 4792" class="cls-4" d="M207.739,210.2l-.25,1.062c-.25,1.686,1.561,1.749,1.561,1.749,3.185.874,2.561,3,2.561,3.06a27.36,27.36,0,0,1-8.494,1.436h-.312l-3.185-4.059,5.184-1.561a9.085,9.085,0,0,0,2.935-1.686" transform="translate(-180.06 -78.925)"/>
      <path id="패스_4793" data-name="패스 4793" class="cls-5" d="M31,49.911A1.811,1.811,0,1,0,32.811,48.1,1.812,1.812,0,0,0,31,49.911" transform="translate(102.284 -18.06)"/>
      <path id="패스_4794" data-name="패스 4794" class="cls-5" d="M51.7,60.5a2,2,0,1,0,2-2,1.973,1.973,0,0,0-2,2" transform="translate(68.282 -21.965)"/>
      <path id="패스_4795" data-name="패스 4795" class="cls-1" d="M67.217,41.694a1.612,1.612,0,0,0,1.624-1.624v-.937c-.187-3.56-1.311-5.933-6-5.933H58.224A1.6,1.6,0,0,0,56.6,34.761a1.653,1.653,0,0,0,1.624,1.624h4.621c2.186,0,2.623.187,2.81,2.873v.874a1.474,1.474,0,0,0,1.561,1.561" transform="translate(52.078 -12.466)"/>
      <path id="패스_4796" data-name="패스 4796" class="cls-1" d="M67,37.441a1.612,1.612,0,0,0,1.624-1.624v-1c-.375-5.246-3.685-8.494-8.868-8.618H51.324a1.624,1.624,0,1,0,0,3.248h8.369c4.372.125,5.5,3.123,5.683,5.621v.874A1.683,1.683,0,0,0,67,37.441" transform="translate(56.605 -9.837)"/>
      <path id="패스_4797" data-name="패스 4797" class="cls-1" d="M67.107,33.177a1.612,1.612,0,0,0,1.624-1.624v-.437A11.634,11.634,0,0,0,57.114,19.5H44.561A1.561,1.561,0,0,0,43,21.124a1.6,1.6,0,0,0,1.561,1.624h12.49a8.476,8.476,0,0,1,8.431,8.431v.437a1.643,1.643,0,0,0,1.624,1.561" transform="translate(60.682 -7.322)"/>
    </g>
    <g id="그룹_1265" data-name="그룹 1265" transform="translate(25 1814.822)">
      <g id="그룹_1256" data-name="그룹 1256" transform="translate(26.807)">
        <path id="패스_4798" data-name="패스 4798" class="cls-3" d="M42.4,20.6a.9.9,0,0,0,.5-.1,10.76,10.76,0,0,0,5.7-7.7,10.987,10.987,0,0,0-3.2-9.4A10.987,10.987,0,0,0,37.5,0h0a11.113,11.113,0,0,0-7.6,3.2A9.074,9.074,0,0,0,27,10.1a9.633,9.633,0,0,0,3.1,6.8,7.748,7.748,0,0,0,10.6-.4,6.423,6.423,0,0,0,2-4.4,6.029,6.029,0,0,0-1.8-4.5A5.347,5.347,0,0,0,36.8,6a4.6,4.6,0,0,0-3.6,1.7,4.279,4.279,0,0,0-.7,3.5,3.575,3.575,0,0,0,2.1,2.5,1.158,1.158,0,0,0,1.4-.6,1.158,1.158,0,0,0-.6-1.4,1.622,1.622,0,0,1-.9-1.1A1.579,1.579,0,0,1,34.8,9a3.215,3.215,0,0,1,2.1-1,3.541,3.541,0,0,1,2.6,1,4,4,0,0,1,1.2,2.9,4.22,4.22,0,0,1-1.4,3,5.592,5.592,0,0,1-7.7.3,6.968,6.968,0,0,1-2.4-5.3,7.009,7.009,0,0,1,2.1-5.3A8.483,8.483,0,0,1,37.4,2h0a8.96,8.96,0,0,1,6.4,2.8,8.686,8.686,0,0,1,2.6,7.6,8.305,8.305,0,0,1-4.5,6.1,1.15,1.15,0,0,0-.5,1.4A1.041,1.041,0,0,0,42.4,20.6Z" transform="translate(-27 0)"/>
      </g>
      <g id="그룹_1257" data-name="그룹 1257" transform="translate(0 17.2)">
        <path id="패스_4799" data-name="패스 4799" class="cls-3" d="M15.4,37.8a.9.9,0,0,0,.5-.1A10.76,10.76,0,0,0,21.6,30a10.987,10.987,0,0,0-3.2-9.4,10.987,10.987,0,0,0-7.9-3.4h0a11.113,11.113,0,0,0-7.6,3.2A9.266,9.266,0,0,0,.2,27.3a9.633,9.633,0,0,0,3.1,6.8,7.748,7.748,0,0,0,10.6-.4,6.423,6.423,0,0,0,2-4.4,6.029,6.029,0,0,0-1.8-4.5A5.347,5.347,0,0,0,10,23.2a4.6,4.6,0,0,0-3.6,1.7,4.279,4.279,0,0,0-.7,3.5,3.575,3.575,0,0,0,2.1,2.5,1.077,1.077,0,0,0,.8-2,1.622,1.622,0,0,1-.9-1.1A1.579,1.579,0,0,1,8,26.2a3.215,3.215,0,0,1,2.1-1,3.541,3.541,0,0,1,2.6,1,4,4,0,0,1,1.2,2.9,4.22,4.22,0,0,1-1.4,3,5.592,5.592,0,0,1-7.7.3,6.968,6.968,0,0,1-2.4-5.3,7.009,7.009,0,0,1,2.1-5.3,8.483,8.483,0,0,1,6.1-2.6h0A8.96,8.96,0,0,1,17,22a8.686,8.686,0,0,1,2.6,7.6,8.305,8.305,0,0,1-4.5,6.1,1.15,1.15,0,0,0-.5,1.4A.709.709,0,0,0,15.4,37.8Z" transform="translate(-0.193 -17.2)"/>
      </g>
    </g>
    <g id="그룹_1264" data-name="그룹 1264" transform="translate(165.665 1731)">
      <path id="패스_4800" data-name="패스 4800" class="cls-3" d="M13.3,26.1c-1.7,3-6.5,4.6-10.2,2.6-5.2-2.8-2.6-9-.3-10.9,5.4-4.7,13.5,2.7,10.5,8.3" transform="translate(-0.075 0.001)"/>
      <path id="패스_4801" data-name="패스 4801" class="cls-3" d="M25.1,26.1c-1.7,3-6.5,4.6-10.2,2.6-5.2-2.8-2.6-9-.3-10.9,5.4-4.7,13.5,2.7,10.5,8.3" transform="translate(-0.075 0.001)"/>
      <path id="패스_4802" data-name="패스 4802" class="cls-3" d="M36.9,26.1c-1.7,3-6.5,4.6-10.2,2.6-5.2-2.8-2.6-9-.3-10.9,5.4-4.7,13.5,2.7,10.5,8.3" transform="translate(-0.075 0.001)"/>
      <g id="그룹_1259" data-name="그룹 1259" transform="translate(39.5)">
        <path id="패스_4803" data-name="패스 4803" class="cls-3" d="M52.8,9.8c-1.7,3-6.5,4.6-10.2,2.5-5.2-2.8-2.6-9-.3-10.9,5.5-4.5,13.6,2.8,10.5,8.4" transform="translate(-39.575 0.001)"/>
        <path id="패스_4804" data-name="패스 4804" class="cls-3" d="M64.6,9.8c-1.7,3-6.5,4.6-10.2,2.5-5.2-2.8-2.6-9-.3-10.9,5.5-4.5,13.6,2.8,10.5,8.4" transform="translate(-39.575 0.001)"/>
      </g>
    </g>
    <g id="그룹_1263" data-name="그룹 1263" transform="translate(251.527 1791.885)">
      <path id="패스_4805" data-name="패스 4805" class="cls-3" d="M13.3,9.8c-1.7,3-6.5,4.6-10.2,2.6C-2.1,9.6.5,3.4,2.8,1.5,8.2-3.1,16.3,4.2,13.3,9.8" transform="translate(-0.075 -0.047)"/>
      <path id="패스_4806" data-name="패스 4806" class="cls-3" d="M25.1,9.8c-1.7,3-6.5,4.6-10.2,2.6-5.2-2.8-2.6-9-.3-10.9C20-3.1,28.1,4.2,25.1,9.8" transform="translate(-0.075 -0.047)"/>
      <path id="패스_4807" data-name="패스 4807" class="cls-3" d="M36.9,9.8c-1.7,3-6.5,4.6-10.2,2.6-5.2-2.8-2.6-9-.3-10.9,5.4-4.6,13.5,2.7,10.5,8.3" transform="translate(-0.075 -0.047)"/>
    </g>
  </g>
</svg>
