<svg id="그룹_1125" data-name="그룹 1125" xmlns="http://www.w3.org/2000/svg" viewBox="0 0 26.058 26.095">
  <defs>
    <style>
      .cls-1 {
        fill: #fff;
      }

      .cls-2 {
        fill: #be6dc9;
      }
    </style>
  </defs>
  <g id="그룹_1110" data-name="그룹 1110">
    <g id="그룹_1109" data-name="그룹 1109">
      <g id="그룹_1108" data-name="그룹 1108">
        <g id="그룹_1107" data-name="그룹 1107">
          <g id="그룹_1106" data-name="그룹 1106">
            <path id="패스_4423" data-name="패스 4423" class="cls-1" d="M13.029,26.1A13.048,13.048,0,1,1,26.058,13.029,13.059,13.059,0,0,1,13.029,26.1Zm0-24.1A11.036,11.036,0,1,0,24.065,13.029,11.042,11.042,0,0,0,13.029,1.993Z"/>
          </g>
        </g>
      </g>
    </g>
  </g>
  <g id="그룹_1113" data-name="그룹 1113" transform="translate(6.865 6.533)">
    <g id="그룹_1111" data-name="그룹 1111" transform="translate(3.027)">
      <path id="패스_4424" data-name="패스 4424" class="cls-2" d="M30.048,24.787A3.42,3.42,0,0,1,26.8,21.243,3.4,3.4,0,0,1,30.048,17.7,3.42,3.42,0,0,1,33.3,21.243,3.445,3.445,0,0,1,30.048,24.787Zm0-5.094a1.425,1.425,0,0,0-1.255,1.55,1.425,1.425,0,0,0,1.255,1.55,1.425,1.425,0,0,0,1.255-1.55A1.48,1.48,0,0,0,30.048,19.693Z" transform="translate(-26.8 -17.7)"/>
    </g>
    <g id="그룹_1112" data-name="그룹 1112" transform="translate(0 6.828)">
      <path id="패스_4425" data-name="패스 4425" class="cls-2" d="M30.116,42.585H19.6a.992.992,0,0,1-1-1c0-2.99,2.805-5.389,6.238-5.389s6.238,2.436,6.238,5.389A.961.961,0,0,1,30.116,42.585Zm-9.338-1.993h8.157a4.2,4.2,0,0,0-4.06-2.4A4.234,4.234,0,0,0,20.778,40.592Z" transform="translate(-18.6 -36.2)"/>
    </g>
  </g>
</svg>
