<svg id="그룹_1130" data-name="그룹 1130" xmlns="http://www.w3.org/2000/svg" viewBox="0 0 28.003 24.234">
  <defs>
    <style>
      .cls-1 {
        fill: #66a5ff;
      }

      .cls-2 {
        fill: #fff;
      }
    </style>
  </defs>
  <g id="그룹_1115" data-name="그룹 1115" transform="translate(0.148 16.144)">
    <path id="패스_4426" data-name="패스 4426" class="cls-1" d="M27.183,45.547H1.324a.924.924,0,1,1,0-1.847h25.86a.924.924,0,1,1,0,1.847Z" transform="translate(-0.4 -43.7)"/>
  </g>
  <g id="그룹_1122" data-name="그룹 1122" transform="translate(0)">
    <g id="그룹_1118" data-name="그룹 1118">
      <g id="그룹_1116" data-name="그룹 1116">
        <path id="패스_4427" data-name="패스 4427" class="cls-2" d="M24.715,21.611H3.288A3.3,3.3,0,0,1,0,18.323V3.288A3.3,3.3,0,0,1,3.288,0H24.715A3.3,3.3,0,0,1,28,3.288v15A3.28,3.28,0,0,1,24.715,21.611ZM3.288,1.847A1.467,1.467,0,0,0,1.847,3.288v15a1.443,1.443,0,0,0,1.441,1.441H24.715a1.443,1.443,0,0,0,1.441-1.441v-15a1.443,1.443,0,0,0-1.441-1.441H3.288Z" transform="translate(0)"/>
      </g>
      <g id="그룹_1117" data-name="그룹 1117" transform="translate(7.869 22.387)">
        <path id="패스_4428" data-name="패스 4428" class="cls-2" d="M32.678,62.447H22.224a.924.924,0,0,1,0-1.847H32.678a.915.915,0,0,1,.924.924A.938.938,0,0,1,32.678,62.447Z" transform="translate(-21.3 -60.6)"/>
      </g>
    </g>
    <g id="그룹_1121" data-name="그룹 1121" transform="translate(10.418 19.838)">
      <g id="그룹_1119" data-name="그룹 1119">
        <path id="패스_4429" data-name="패스 4429" class="cls-2" d="M29.124,57.505a.915.915,0,0,1-.924-.924V54.624a.924.924,0,0,1,1.847,0v1.958A.915.915,0,0,1,29.124,57.505Z" transform="translate(-28.2 -53.7)"/>
      </g>
      <g id="그룹_1120" data-name="그룹 1120" transform="translate(5.357)">
        <path id="패스_4430" data-name="패스 4430" class="cls-2" d="M43.624,57.505a.915.915,0,0,1-.924-.924V54.624a.924.924,0,0,1,1.847,0v1.958A.915.915,0,0,1,43.624,57.505Z" transform="translate(-42.7 -53.7)"/>
      </g>
    </g>
  </g>
</svg>
