<svg id="그룹_1131" data-name="그룹 1131" xmlns="http://www.w3.org/2000/svg" viewBox="0 0 26.058 22.882">
  <defs>
    <style>
      .cls-1 {
        fill: #ffac38;
      }

      .cls-2 {
        fill: #666;
      }
    </style>
  </defs>
  <g id="그룹_1064" data-name="그룹 1064" transform="translate(1.783 11.063)">
    <path id="패스_4397" data-name="패스 4397" class="cls-1" d="M26.846,44.019H6.059A.851.851,0,0,1,5.2,43.16v-10.1a.859.859,0,1,1,1.718,0v9.277H25.987V33.059a.859.859,0,1,1,1.718,0V43.195A.844.844,0,0,1,26.846,44.019Z" transform="translate(-5.2 -32.2)"/>
  </g>
  <g id="그룹_1074" data-name="그룹 1074" transform="translate(0)">
    <g id="그룹_1073" data-name="그룹 1073">
      <g id="그룹_1065" data-name="그룹 1065">
        <path id="패스_4398" data-name="패스 4398" class="cls-2" d="M25.226,9.483H.866a.771.771,0,0,1-.722-.412.789.789,0,0,1-.034-.825L5.2.481A.824.824,0,0,1,5.951,0H20.107a.873.873,0,0,1,.79.481l5.085,7.765a.874.874,0,0,1-.034.825A.847.847,0,0,1,25.226,9.483ZM2.241,7.765H23.852l-4.26-6.047H6.5Z" transform="translate(-0.011 0)"/>
      </g>
      <g id="그룹_1066" data-name="그룹 1066">
        <path id="패스_4399" data-name="패스 4399" class="cls-2" d="M25.226,9.483H.866a.771.771,0,0,1-.722-.412.789.789,0,0,1-.034-.825L5.2.481A.824.824,0,0,1,5.951,0H20.107a.873.873,0,0,1,.79.481l5.085,7.765a.874.874,0,0,1-.034.825A.847.847,0,0,1,25.226,9.483ZM2.241,7.765H23.852l-4.26-6.047H6.5Z" transform="translate(-0.011 0)"/>
      </g>
      <g id="그룹_1067" data-name="그룹 1067" transform="translate(7.735)">
        <path id="패스_4400" data-name="패스 4400" class="cls-2" d="M32.273,9.483h-8.9a.846.846,0,0,1-.653-.309.737.737,0,0,1-.172-.687L24.405.722A.846.846,0,0,1,25.23,0h5.154a.882.882,0,0,1,.859.722L33.1,8.486a.946.946,0,0,1-.172.687A.846.846,0,0,1,32.273,9.483ZM24.405,7.765h6.837L29.7,1.718H25.951Z" transform="translate(-22.523)"/>
      </g>
      <g id="그룹_1068" data-name="그룹 1068" transform="translate(7.735)">
        <path id="패스_4401" data-name="패스 4401" class="cls-2" d="M32.273,9.483h-8.9a.846.846,0,0,1-.653-.309.737.737,0,0,1-.172-.687L24.405.722A.846.846,0,0,1,25.23,0h5.154a.882.882,0,0,1,.859.722L33.1,8.486a.946.946,0,0,1-.172.687A.846.846,0,0,1,32.273,9.483ZM24.405,7.765h6.837L29.7,1.718H25.951Z" transform="translate(-22.523)"/>
      </g>
      <g id="그룹_1072" data-name="그룹 1072" transform="translate(0.099 7.593)">
        <g id="그룹_1069" data-name="그룹 1069">
          <path id="패스_4402" data-name="패스 4402" class="cls-2" d="M4.973,27.632A4.7,4.7,0,0,1,.3,22.959a.851.851,0,0,1,.859-.859.851.851,0,0,1,.859.859,2.955,2.955,0,1,0,5.91,0,.859.859,0,1,1,1.718,0A4.7,4.7,0,0,1,4.973,27.632Z" transform="translate(-0.3 -22.1)"/>
        </g>
        <g id="그룹_1070" data-name="그룹 1070" transform="translate(8.246)">
          <path id="패스_4403" data-name="패스 4403" class="cls-2" d="M28.973,27.632A4.678,4.678,0,0,1,24.3,22.959a.859.859,0,1,1,1.718,0,2.955,2.955,0,1,0,5.91,0,.859.859,0,0,1,1.718,0A4.7,4.7,0,0,1,28.973,27.632Z" transform="translate(-24.3 -22.1)"/>
        </g>
        <g id="그룹_1071" data-name="그룹 1071" transform="translate(16.526)">
          <path id="패스_4404" data-name="패스 4404" class="cls-2" d="M53.073,27.632A4.678,4.678,0,0,1,48.4,22.959a.859.859,0,1,1,1.718,0,2.955,2.955,0,1,0,5.91,0,.859.859,0,1,1,1.718,0A4.7,4.7,0,0,1,53.073,27.632Z" transform="translate(-48.4 -22.1)"/>
        </g>
      </g>
    </g>
  </g>
</svg>
