<svg id="그룹_1126" data-name="그룹 1126" xmlns="http://www.w3.org/2000/svg" viewBox="0 0 25.876 26.574">
  <defs>
    <style>
      .cls-1 {
        fill: #66a5ff;
      }

      .cls-2 {
        fill: #666;
      }
    </style>
  </defs>
  <g id="그룹_1093" data-name="그룹 1093" transform="translate(3.466 3.536)">
    <path id="패스_4413" data-name="패스 4413" class="cls-1" d="M17.918,11.851H10.775a.875.875,0,0,1,0-1.751h7.107a.867.867,0,0,1,.875.875A.818.818,0,0,1,17.918,11.851Z" transform="translate(-9.9 -10.1)"/>
  </g>
  <g id="그룹_1094" data-name="그룹 1094" transform="translate(3.466 7.633)">
    <path id="패스_4414" data-name="패스 4414" class="cls-1" d="M17.918,23.551H10.775a.875.875,0,0,1,0-1.751h7.107a.867.867,0,0,1,.875.875A.837.837,0,0,1,17.918,23.551Z" transform="translate(-9.9 -21.8)"/>
  </g>
  <g id="그룹_1095" data-name="그룹 1095" transform="translate(3.466 11.694)">
    <path id="패스_4415" data-name="패스 4415" class="cls-1" d="M17.918,35.151H10.775a.875.875,0,1,1,0-1.751h7.107a.867.867,0,0,1,.875.875A.818.818,0,0,1,17.918,35.151Z" transform="translate(-9.9 -33.4)"/>
  </g>
  <g id="그룹_1096" data-name="그룹 1096" transform="translate(3.466 15.79)">
    <path id="패스_4416" data-name="패스 4416" class="cls-1" d="M17.918,46.851H10.775a.875.875,0,1,1,0-1.751h7.107a.867.867,0,0,1,.875.875A.818.818,0,0,1,17.918,46.851Z" transform="translate(-9.9 -45.1)"/>
  </g>
  <g id="그룹_1097" data-name="그룹 1097" transform="translate(3.466 19.887)">
    <path id="패스_4417" data-name="패스 4417" class="cls-1" d="M17.918,58.551H10.775a.875.875,0,1,1,0-1.751h7.107a.867.867,0,0,1,.875.875A.837.837,0,0,1,17.918,58.551Z" transform="translate(-9.9 -56.8)"/>
  </g>
  <g id="그룹_1098" data-name="그룹 1098" transform="translate(16.491 11.694)">
    <path id="패스_4418" data-name="패스 4418" class="cls-1" d="M52.877,35.151h-4.9a.875.875,0,1,1,0-1.751h4.937a.867.867,0,0,1,.875.875A.92.92,0,0,1,52.877,35.151Z" transform="translate(-47.1 -33.4)"/>
  </g>
  <g id="그룹_1099" data-name="그룹 1099" transform="translate(16.491 15.79)">
    <path id="패스_4419" data-name="패스 4419" class="cls-1" d="M52.877,46.851h-4.9a.875.875,0,1,1,0-1.751h4.937a.867.867,0,0,1,.875.875A.92.92,0,0,1,52.877,46.851Z" transform="translate(-47.1 -45.1)"/>
  </g>
  <g id="그룹_1100" data-name="그룹 1100" transform="translate(16.491 19.887)">
    <path id="패스_4420" data-name="패스 4420" class="cls-1" d="M52.877,58.551h-4.9a.875.875,0,1,1,0-1.751h4.937a.867.867,0,0,1,.875.875A.947.947,0,0,1,52.877,58.551Z" transform="translate(-47.1 -56.8)"/>
  </g>
  <g id="그룹_1102" data-name="그룹 1102">
    <g id="그룹_1101" data-name="그룹 1101">
      <path id="패스_4421" data-name="패스 4421" class="cls-2" d="M14.95,26.574H.875A.867.867,0,0,1,0,25.7V.875A.867.867,0,0,1,.875,0H14.95a.867.867,0,0,1,.875.875V25.7A.889.889,0,0,1,14.95,26.574Zm-13.2-1.751H14.075V1.751H1.751Z"/>
    </g>
  </g>
  <g id="그룹_1104" data-name="그룹 1104" transform="translate(14.075 5.812)">
    <g id="그룹_1103" data-name="그룹 1103">
      <path id="패스_4422" data-name="패스 4422" class="cls-2" d="M51.159,37.362H41.075a.867.867,0,0,1-.875-.875V17.475a.867.867,0,0,1,.875-.875H51.124a.867.867,0,0,1,.875.875V36.487A.859.859,0,0,1,51.159,37.362Zm-9.208-1.751h8.333V18.351H41.951Z" transform="translate(-40.2 -16.6)"/>
    </g>
  </g>
</svg>
