<svg id="그룹_1129" data-name="그룹 1129" xmlns="http://www.w3.org/2000/svg" viewBox="0 0 19.09 26.565">
  <defs>
    <style>
      .cls-1 {
        fill: none;
      }

      .cls-2 {
        fill: #be6dc9;
      }

      .cls-3 {
        fill: #666;
      }

      .cls-4 {
        fill: #898989;
      }
    </style>
  </defs>
  <path id="패스_4387" data-name="패스 4387" class="cls-1" d="M6.531,41.989,6.242,41.7,3.9,42.117V52.384l4.556-.77v-7.7Z" transform="translate(-2.649 -28.321)"/>
  <path id="패스_4388" data-name="패스 4388" class="cls-1" d="M16.606,40.6l-.706.1.706.706Z" transform="translate(-10.799 -27.574)"/>
  <path id="패스_4389" data-name="패스 4389" class="cls-1" d="M24.92,54.621a.62.62,0,0,1-.9,0L22,52.6v6.449h0l4.877,1.7V52.664Z" transform="translate(-14.942 -35.724)"/>
  <path id="패스_4390" data-name="패스 4390" class="cls-2" d="M19.351,49.951,18.1,48.7v7.7l.642-.1h.1a.626.626,0,0,1,.225.032l.289.1h0Z" transform="translate(-12.293 -33.075)"/>
  <path id="패스_4391" data-name="패스 4391" class="cls-2" d="M37.2,50.151v8.085l.61.225.642-.1V48.9Z" transform="translate(-25.265 -33.211)"/>
  <path id="패스_4392" data-name="패스 4392" class="cls-3" d="M18.865,38.781a.577.577,0,0,0-.513-.128l-2.631.481a4.132,4.132,0,0,1-.513.545l-.995.995L17.839,40V50.3l-4.62.866v.353a.642.642,0,0,1-1.283,0v-.481l-4.877-1.7a.617.617,0,0,1-.642.61.644.644,0,0,1-.642-.642h0l-4.524.77V39.808l2.342-.385A9.535,9.535,0,0,1,2.727,38.3l-2.214.385a.648.648,0,0,0-.513.61v11.55a.682.682,0,0,0,.225.481.577.577,0,0,0,.513.128l5.775-.963,5.775,2.053a.476.476,0,0,0,.225.032h.128l5.936-1.091a.648.648,0,0,0,.513-.61V39.327A.719.719,0,0,0,18.865,38.781Z" transform="translate(0 -26.012)"/>
  <path id="패스_4393" data-name="패스 4393" class="cls-4" d="M18.938,72.3h-.1l-.642.1h0a.644.644,0,0,0,.642.642.661.661,0,0,0,.642-.61l-.289-.1A.9.9,0,0,0,18.938,72.3Z" transform="translate(-12.361 -49.103)"/>
  <path id="패스_4394" data-name="패스 4394" class="cls-4" d="M37.2,78v.449a.642.642,0,1,0,1.283,0V78.1l-.61.128Z" transform="translate(-25.265 -52.975)"/>
  <g id="그룹_1061" data-name="그룹 1061" transform="translate(1.54)">
    <g id="그룹_1060" data-name="그룹 1060">
      <path id="패스_4395" data-name="패스 4395" class="cls-3" d="M12.789,19.09a.633.633,0,0,1-.449-.193l-5.2-5.23a8.056,8.056,0,0,1,0-11.358,8.056,8.056,0,0,1,11.326.032,8.056,8.056,0,0,1,0,11.358l-5.23,5.2A.806.806,0,0,1,12.789,19.09Zm0-17.839A6.761,6.761,0,0,0,8.008,12.8l4.781,4.781L17.569,12.8a6.77,6.77,0,0,0-4.781-11.55Z" transform="translate(-4.8)"/>
    </g>
  </g>
  <g id="그룹_1062" data-name="그룹 1062" transform="translate(5.522 3.978)">
    <path id="패스_4396" data-name="패스 4396" class="cls-2" d="M21.219,20.453A4.011,4.011,0,0,1,18.4,13.587,3.978,3.978,0,0,1,21.251,12.4a4.032,4.032,0,0,1,2.855,1.187,4.028,4.028,0,0,1,0,5.711A4.217,4.217,0,0,1,21.219,20.453Zm0-6.77a2.739,2.739,0,1,0,1.957.8A2.767,2.767,0,0,0,21.219,13.683Z" transform="translate(-17.212 -12.4)"/>
  </g>
</svg>
