<svg id="그룹_1124" data-name="그룹 1124" xmlns="http://www.w3.org/2000/svg" viewBox="0 0 27.053 22.883">
  <defs>
    <style>
      .cls-1 {
        fill: #666;
      }

      .cls-2 {
        fill: #28c942;
      }
    </style>
  </defs>
  <g id="그룹_1082" data-name="그룹 1082">
    <g id="그룹_1081" data-name="그룹 1081">
      <g id="그룹_1076" data-name="그룹 1076">
        <path id="패스_4405" data-name="패스 4405" class="cls-1" d="M26.162,22.882H.891A.905.905,0,0,1,0,21.991v-19A3.012,3.012,0,0,1,2.994,0H24.059a3.012,3.012,0,0,1,2.994,2.994v19A.931.931,0,0,1,26.162,22.882ZM1.782,21.1H25.271V2.994a1.2,1.2,0,0,0-1.212-1.212H2.994A1.2,1.2,0,0,0,1.782,2.994Z"/>
      </g>
      <g id="그룹_1077" data-name="그룹 1077" transform="translate(0.642 4.954)">
        <path id="패스_4406" data-name="패스 4406" class="cls-1" d="M26.643,15.682H2.691a.891.891,0,0,1,0-1.782H26.643a.891.891,0,1,1,0,1.782Z" transform="translate(-1.8 -13.9)"/>
      </g>
      <g id="그룹_1080" data-name="그룹 1080" transform="translate(2.816 2.673)">
        <g id="그룹_1078" data-name="그룹 1078">
          <ellipse id="타원_96" data-name="타원 96" class="cls-1" cx="0.713" cy="0.713" rx="0.713" ry="0.713"/>
        </g>
        <g id="그룹_1079" data-name="그룹 1079" transform="translate(2.21)">
          <ellipse id="타원_97" data-name="타원 97" class="cls-1" cx="0.713" cy="0.713" rx="0.713" ry="0.713"/>
        </g>
      </g>
    </g>
  </g>
  <g id="그룹_1091" data-name="그룹 1091" transform="translate(4.099 8.198)">
    <g id="그룹_1086" data-name="그룹 1086">
      <g id="그룹_1083" data-name="그룹 1083">
        <path id="패스_4407" data-name="패스 4407" class="cls-2" d="M21.872,34.263H12.391a.882.882,0,0,1-.891-.891V23.891A.882.882,0,0,1,12.391,23h9.517a.882.882,0,0,1,.891.891v9.517A.932.932,0,0,1,21.872,34.263Zm-8.59-1.782h7.734v-7.7H13.282Z" transform="translate(-11.5 -23)"/>
      </g>
      <g id="그룹_1084" data-name="그룹 1084" transform="translate(0.517 0.588)">
        <path id="패스_4408" data-name="패스 4408" class="cls-2" d="M13.859,34.79a.915.915,0,0,1-.642-.249.861.861,0,0,1,0-1.247l8.376-8.376a.882.882,0,1,1,1.247,1.247l-8.34,8.34A.893.893,0,0,1,13.859,34.79Z" transform="translate(-12.95 -24.65)"/>
      </g>
      <g id="그룹_1085" data-name="그룹 1085" transform="translate(0.552 0.552)">
        <path id="패스_4409" data-name="패스 4409" class="cls-2" d="M22.3,34.726a.915.915,0,0,1-.642-.249l-8.34-8.412a.882.882,0,1,1,1.247-1.247l8.376,8.376a.861.861,0,0,1,0,1.247A.893.893,0,0,1,22.3,34.726Z" transform="translate(-13.05 -24.55)"/>
      </g>
    </g>
    <g id="그룹_1090" data-name="그룹 1090" transform="translate(12.689 1.426)">
      <g id="그룹_1087" data-name="그룹 1087">
        <path id="패스_4410" data-name="패스 4410" class="cls-2" d="M52.375,28.782H47.991a.891.891,0,1,1,0-1.782h4.384a.882.882,0,0,1,.891.891A.905.905,0,0,1,52.375,28.782Z" transform="translate(-47.1 -27)"/>
      </g>
      <g id="그룹_1088" data-name="그룹 1088" transform="translate(0 3.315)">
        <path id="패스_4411" data-name="패스 4411" class="cls-2" d="M52.375,38.082H47.991a.891.891,0,0,1,0-1.782h4.384a.891.891,0,0,1,0,1.782Z" transform="translate(-47.1 -36.3)"/>
      </g>
      <g id="그룹_1089" data-name="그룹 1089" transform="translate(0 6.63)">
        <path id="패스_4412" data-name="패스 4412" class="cls-2" d="M52.375,47.382H47.991a.891.891,0,1,1,0-1.782h4.384a.891.891,0,0,1,0,1.782Z" transform="translate(-47.1 -45.6)"/>
      </g>
    </g>
  </g>
</svg>
