<svg id="그룹_1301" data-name="그룹 1301" xmlns="http://www.w3.org/2000/svg" viewBox="0 0 149.601 20.13">
  <defs>
    <style>
      .cls-1 {
        fill: #fdb913;
      }

      .cls-2 {
        fill: #0055b8;
      }
    </style>
  </defs>
  <g id="그룹_1275" data-name="그룹 1275">
    <g id="그룹_1274" data-name="그룹 1274">
      <path id="패스_4824" data-name="패스 4824" class="cls-1" d="M22.834,0,18.881,1.991,14.9,0l3.981,7.542Z" transform="translate(-10.723)"/>
      <path id="패스_4825" data-name="패스 4825" class="cls-1" d="M13.513,7.415l-.056-.056,2.8-1.178V2.2L11.355,4.275S8.691,9.321,8.635,9.433a4.149,4.149,0,1,1-1.009,0C7.57,9.321,4.906,4.275,4.906,4.275L.028,2.2V6.181L2.86,7.359,2.8,7.415A8.078,8.078,0,0,0,0,13.555a8.158,8.158,0,0,0,16.317,0A8.274,8.274,0,0,0,13.513,7.415Z" transform="translate(0 -1.583)"/>
    </g>
  </g>
  <g id="그룹_1286" data-name="그룹 1286" transform="translate(22.765 2.103)">
    <g id="그룹_1281" data-name="그룹 1281" transform="translate(0 0.477)">
      <g id="그룹_1280" data-name="그룹 1280">
        <g id="그룹_1279" data-name="그룹 1279">
          <g id="그룹_1278" data-name="그룹 1278">
            <g id="그룹_1276" data-name="그룹 1276" transform="translate(23.242 0.028)">
              <path id="패스_4826" data-name="패스 4826" class="cls-2" d="M182.464,9.3h-2.8v5.972H168.137V9.3h-2.832a1.2,1.2,0,0,0-1.206,1.206V23.514a1.2,1.2,0,0,0,1.206,1.206h2.832V18.272H179.66V24.72h2.8a1.2,1.2,0,0,0,1.206-1.206V10.506A1.18,1.18,0,0,0,182.464,9.3Z" transform="translate(-164.1 -9.3)"/>
            </g>
            <g id="그룹_1277" data-name="그룹 1277">
              <path id="패스_4827" data-name="패스 4827" class="cls-2" d="M99.984,9.228h-2.8V20.583l-8.887-9C86.891,10.209,85.91,9.2,83.667,9.2H81.2V23.442a1.2,1.2,0,0,0,1.206,1.206h2.832V13.209l8.8,8.915c1.43,1.4,2.719,2.5,4.794,2.5h2.355V10.434A1.2,1.2,0,0,0,99.984,9.228Z" transform="translate(-81.2 -9.2)"/>
            </g>
          </g>
        </g>
      </g>
    </g>
    <g id="그룹_1284" data-name="그룹 1284" transform="translate(47.129 0.196)">
      <g id="그룹_1283" data-name="그룹 1283">
        <g id="그룹_1282" data-name="그룹 1282">
          <path id="패스_4828" data-name="패스 4828" class="cls-2" d="M262.309,19.028a2.486,2.486,0,0,1,1.262,2.187c0,2.1-2.271,3.056-5.075,3.056s-5.075-.953-5.075-3.056,2.243-3.056,5.075-3.056h8.383c.112,0,.2-.084.224-.224a2.958,2.958,0,0,0,0-.729.238.238,0,0,0-.224-.2h-7.093V14.823h6.757c.112,0,.2-.084.224-.224a2.958,2.958,0,0,0,0-.729.238.238,0,0,0-.224-.2H253.758a.629.629,0,0,1-.645-.617V9.917a.612.612,0,0,0-.645-.617H250.45v4.346a1.216,1.216,0,0,0,1.234,1.178h5.439V17.01H249.3l.757,1.149h2.327a3.418,3.418,0,0,0-1.626,2.944c0,3,3.448,4.374,7.71,4.374s7.71-1.374,7.71-4.374a3.32,3.32,0,0,0-.673-2.047h-3.2Z" transform="translate(-249.3 -8.992)"/>
          <path id="패스_4829" data-name="패스 4829" class="cls-2" d="M332.083,11.452a2.332,2.332,0,0,1,.364.5,2.761,2.761,0,0,1,.364,1.346,2.692,2.692,0,1,1-5.383,0,2.675,2.675,0,0,1,2.663-2.719h5.747c.112,0,.2-.084.224-.224a2.957,2.957,0,0,0,0-.729.238.238,0,0,0-.224-.2h-4.43V8.817a.629.629,0,0,0-.645-.617h-2.019V9.434H323.7c.112.14.729,1.093.757,1.149h1.906a3.373,3.373,0,0,0-1.57,2.719c0,2.131,2.131,3.841,5.3,3.841a5.629,5.629,0,0,0,4.6-1.934h3.673v4.149h-9.757V18.209a.654.654,0,0,0-.673-.617h-1.991v5.187a1.216,1.216,0,0,0,1.234,1.178h13.85V9.125a.629.629,0,0,0-.645-.617h-2.019v2.944Zm6.28,11.355h-9.392a.348.348,0,0,1-.364-.336V20.508h9.757Zm0-8.747h-3.084a3.528,3.528,0,0,0,.112-.757,2.825,2.825,0,0,0-.084-.7h3.084V14.06Z" transform="translate(-302.841 -8.2)"/>
        </g>
      </g>
    </g>
    <g id="그룹_1285" data-name="그룹 1285" transform="translate(89.182)">
      <path id="패스_4830" data-name="패스 4830" class="cls-2" d="M416.963,18.832H400.029l-.729-1.149h17.663c.2,0,.224.224.224.561C417.187,18.608,417.131,18.832,416.963,18.832ZM408.44,16.2c-4.374,0-7.71-1.121-7.71-3.448S404.066,9.3,408.44,9.3c4.4,0,7.71,1.121,7.71,3.448C416.178,15.075,412.841,16.2,408.44,16.2Zm7.906,8.523H401.935a1.245,1.245,0,0,1-1.234-1.234V19.842h2.047a.622.622,0,0,1,.617.617v2.523a.622.622,0,0,0,.617.617h12.364c.2,0,.224.224.224.561S416.542,24.72,416.346,24.72Zm-7.906-14.3c-2.888,0-4.99.7-4.99,2.327,0,1.6,2.1,2.327,4.99,2.327s4.99-.7,4.99-2.327C413.43,11.15,411.327,10.421,408.44,10.421Z" transform="translate(-399.3 -8.795)"/>
      <path id="패스_4831" data-name="패스 4831" class="cls-2" d="M476.583,16.331c-2.691,0-4.542-1.654-4.542-3.645a3.276,3.276,0,0,1,1.177-2.523h-1.29L471.2,9.014h3.925V7.5h2.1a.622.622,0,0,1,.617.617v.925h3.5c.2,0,.224.224.224.561s-.028.561-.224.561h-1.43a3.276,3.276,0,0,1,1.177,2.523C481.125,14.677,479.274,16.331,476.583,16.331Zm4.486,7.822c-4.346,0-7.626-1.121-7.626-3.561s3.28-3.561,7.626-3.561a16.281,16.281,0,0,1,5.075.7V12.462h-1.43v4.065h-2.551V8H484.1a.622.622,0,0,1,.617.617v2.635h1.43V8h1.934a.622.622,0,0,1,.617.617V20.593C488.694,23.032,485.414,24.153,481.069,24.153Zm-4.486-14.018c-1.177,0-1.963,1.149-1.963,2.523s.785,2.523,1.963,2.523c1.206,0,1.963-1.149,1.963-2.523C478.545,11.369,477.788,10.135,476.583,10.135Zm4.542,8.018c-2.832,0-4.906.757-4.906,2.439s2.1,2.439,4.906,2.439c2.832,0,4.906-.757,4.906-2.439S483.928,18.154,481.125,18.154Z" transform="translate(-451.042 -7.5)"/>
    </g>
  </g>
</svg>
