<svg xmlns="http://www.w3.org/2000/svg" viewBox="0 0 230 238">
  <defs>
    <style>
      .cls-1 {
        fill: #595757;
      }

      .cls-2 {
        fill: #fff;
      }

      .cls-3 {
        fill: none;
      }

      .cls-4 {
        fill: #64c0ab;
      }
    </style>
  </defs>
  <g id="그룹_661" data-name="그룹 661" transform="translate(-100)">
    <rect id="사각형_33" data-name="사각형 33" class="cls-1" width="230" height="238" transform="translate(100)"/>
    <g id="그룹_23" data-name="그룹 23" transform="translate(159.851 16.846)">
      <g id="그룹_13" data-name="그룹 13" transform="translate(59.71 109.053)">
        <path id="패스_94" data-name="패스 94" class="cls-2" d="M136.859,223.94a2.453,2.453,0,0,1-2.459-2.459V196.959a2.459,2.459,0,0,1,4.918,0v24.522A2.5,2.5,0,0,1,136.859,223.94Z" transform="translate(-104.827 -174.298)"/>
        <path id="패스_95" data-name="패스 95" class="cls-2" d="M155.859,213.742a2.453,2.453,0,0,1-2.459-2.459V166.559a2.459,2.459,0,1,1,4.918,0v44.724A2.453,2.453,0,0,1,155.859,213.742Z" transform="translate(-111.201 -164.1)"/>
        <path id="패스_96" data-name="패스 96" class="cls-2" d="M92.359,209.493a2.453,2.453,0,0,1-2.459-2.459v-7.775a2.459,2.459,0,0,1,4.918,0v7.775A2.5,2.5,0,0,1,92.359,209.493Z" transform="translate(-89.9 -175.069)"/>
        <path id="패스_97" data-name="패스 97" class="cls-2" d="M100.8,172.218h-8.44a2.459,2.459,0,1,1,0-4.918h8.44a2.459,2.459,0,1,1,0,4.918Z" transform="translate(-89.9 -165.173)"/>
        <path id="패스_98" data-name="패스 98" class="cls-3" d="M117.8,171" transform="translate(-99.259 -166.415)"/>
        <path id="패스_99" data-name="패스 99" class="cls-2" d="M149.485,200.118H136.859a2.459,2.459,0,0,1,0-4.918h12.626a2.459,2.459,0,1,1,0,4.918Z" transform="translate(-104.827 -174.532)"/>
        <path id="패스_100" data-name="패스 100" class="cls-2" d="M93.954,190.825H92.359a2.459,2.459,0,0,1,0-4.918h1.263c8.24,0,13.025-4.386,13.025-11.962v-4.187a2.459,2.459,0,1,1,4.918,0v4.652c-.2,9.968-6.845,16.149-17.411,16.348C94.02,190.825,94.02,190.825,93.954,190.825Z" transform="translate(-89.9 -165.173)"/>
        <path id="패스_101" data-name="패스 101" class="cls-2" d="M99.8,206.5H92.359a2.459,2.459,0,0,1,0-4.918H99.8c11.231,0,19.671-7.908,19.671-18.342v-16.68a2.459,2.459,0,0,1,4.918,0v16.747C124.324,196.53,113.757,206.5,99.8,206.5Z" transform="translate(-89.9 -164.1)"/>
      </g>
      <g id="그룹_14" data-name="그룹 14" transform="translate(2.758 109.053)">
        <path id="패스_102" data-name="패스 102" class="cls-2" d="M63.859,213.742a2.453,2.453,0,0,1-2.459-2.459V166.559a2.453,2.453,0,0,1,2.459-2.459,2.412,2.412,0,0,1,2.459,2.459v44.724A2.453,2.453,0,0,1,63.859,213.742Z" transform="translate(-23.388 -164.1)"/>
        <path id="패스_103" data-name="패스 103" class="cls-2" d="M6.659,199.6A2.453,2.453,0,0,1,4.2,197.138V169.759a2.459,2.459,0,1,1,4.918,0v27.379A2.5,2.5,0,0,1,6.659,199.6Z" transform="translate(-4.2 -165.173)"/>
        <path id="패스_104" data-name="패스 104" class="cls-2" d="M71.169,200.118h-7.31a2.459,2.459,0,1,1,0-4.918h7.31a2.453,2.453,0,0,1,2.459,2.459A2.412,2.412,0,0,1,71.169,200.118Z" transform="translate(-23.388 -174.532)"/>
        <path id="패스_105" data-name="패스 105" class="cls-2" d="M19.883,213.507H6.659a2.459,2.459,0,1,1,0-4.918H19.883c13.158,0,22.4-8.24,22.4-20v-1.728a2.453,2.453,0,0,1,2.459-2.459,2.412,2.412,0,0,1,2.459,2.459v1.728C47.13,203.074,35.633,213.507,19.883,213.507Z" transform="translate(-4.2 -170.91)"/>
      </g>
      <g id="그룹_17" data-name="그룹 17" transform="translate(-0.1 43.727)">
        <path id="패스_106" data-name="패스 106" class="cls-2" d="M63.759,86.077A2.453,2.453,0,0,1,61.3,83.618V70.859a2.459,2.459,0,0,1,4.918,0V83.685A2.4,2.4,0,0,1,63.759,86.077Z" transform="translate(-20.497 -66.672)"/>
        <path id="패스_107" data-name="패스 107" class="cls-2" d="M14.321,119.559H2.359a2.459,2.459,0,0,1,0-4.918H14.321A26.4,26.4,0,0,0,40.7,88.259a2.459,2.459,0,0,1,4.918,0A31.311,31.311,0,0,1,14.321,119.559Z" transform="translate(0.1 -72.509)"/>
        <path id="패스_108" data-name="패스 108" class="cls-2" d="M63.759,123.362A2.453,2.453,0,0,1,61.3,120.9V82.559a2.459,2.459,0,0,1,4.918,0V120.97A2.4,2.4,0,0,1,63.759,123.362Z" transform="translate(-20.497 -70.597)"/>
        <g id="그룹_15" data-name="그룹 15" transform="translate(1.528)">
          <path id="패스_109" data-name="패스 109" class="cls-2" d="M28.915,79.918H4.659a2.459,2.459,0,0,1,0-4.918h24.19a2.453,2.453,0,0,1,2.459,2.459A2.4,2.4,0,0,1,28.915,79.918Z" transform="translate(-2.2 -68.886)"/>
          <path id="패스_110" data-name="패스 110" class="cls-2" d="M24.059,76.7A2.453,2.453,0,0,1,21.6,74.24V68.259a2.459,2.459,0,0,1,4.918,0V74.24A2.5,2.5,0,0,1,24.059,76.7Z" transform="translate(-8.708 -65.8)"/>
        </g>
        <g id="그룹_16" data-name="그룹 16" transform="translate(3.323 14.221)">
          <path id="패스_111" data-name="패스 111" class="cls-2" d="M19.055,110.061H16.33a11.43,11.43,0,1,1,0-22.861h2.725a9.259,9.259,0,0,1,2.326.266,2.437,2.437,0,1,1-.93,4.785,9.007,9.007,0,0,0-1.329-.133H16.4a6.579,6.579,0,1,0,0,13.158h2.725A6.552,6.552,0,0,0,25.7,98.7a7.489,7.489,0,0,0-.332-2.127,2.417,2.417,0,0,1,4.585-1.528,11.387,11.387,0,0,1,.6,3.655A11.516,11.516,0,0,1,19.055,110.061Z" transform="translate(-4.9 -87.2)"/>
        </g>
        <path id="패스_112" data-name="패스 112" class="cls-3" d="M68.2,77.2" transform="translate(-22.811 -69.624)"/>
      </g>
      <g id="그룹_19" data-name="그룹 19" transform="translate(59.577 44.857)">
        <path id="패스_113" data-name="패스 113" class="cls-2" d="M150.759,95.81a2.453,2.453,0,0,1-2.459-2.459V69.959a2.459,2.459,0,1,1,4.918,0V93.351A2.412,2.412,0,0,1,150.759,95.81Z" transform="translate(-109.357 -67.5)"/>
        <path id="패스_114" data-name="패스 114" class="cls-2" d="M125.478,135.466H107.8a10.638,10.638,0,0,1,0-21.266h17.079a2.459,2.459,0,1,1,0,4.918H107.8a5.722,5.722,0,0,0,0,11.43h17.677a5.715,5.715,0,0,0,5.715-5.715,5.007,5.007,0,0,0-.465-2.193,7.932,7.932,0,0,0-.532-1.063,2.442,2.442,0,0,1,4.054-2.725,12.693,12.693,0,0,1,1,1.861,10.83,10.83,0,0,1,.8,4.12A10.523,10.523,0,0,1,125.478,135.466Z" transform="translate(-92.316 -83.165)"/>
        <path id="패스_115" data-name="패스 115" class="cls-2" d="M157.737,89.418h-6.978a2.459,2.459,0,0,1,0-4.918h6.978a2.453,2.453,0,0,1,2.459,2.459A2.412,2.412,0,0,1,157.737,89.418Z" transform="translate(-109.357 -73.203)"/>
        <g id="그룹_18" data-name="그룹 18" transform="translate(0 1.329)">
          <path id="패스_116" data-name="패스 116" class="cls-2" d="M92.159,86.38A2.453,2.453,0,0,1,89.7,83.921V71.959a2.459,2.459,0,0,1,4.918,0V83.921A2.5,2.5,0,0,1,92.159,86.38Z" transform="translate(-89.7 -69.5)"/>
          <path id="패스_117" data-name="패스 117" class="cls-2" d="M106.779,74.418H92.159a2.459,2.459,0,1,1,0-4.918h14.687a2.453,2.453,0,0,1,2.459,2.459A2.554,2.554,0,0,1,106.779,74.418Z" transform="translate(-89.7 -69.5)"/>
          <path id="패스_118" data-name="패스 118" class="cls-2" d="M101.13,94.756H92.159a2.459,2.459,0,0,1,0-4.918h8.971a11.883,11.883,0,0,0,11.9-11.9V72.959a2.459,2.459,0,1,1,4.918,0v4.984A16.875,16.875,0,0,1,101.13,94.756Z" transform="translate(-89.7 -69.835)"/>
        </g>
      </g>
      <g id="그룹_21" data-name="그룹 21" transform="translate(2.373 170.258)">
        <g id="그룹_20" data-name="그룹 20">
          <path id="패스_119" data-name="패스 119" class="cls-4" d="M8.06,257.39v1.329c0,2.525.864,4.054,2.459,4.918a.8.8,0,0,1,.2,1.063.754.754,0,0,1-1.063.266,5.434,5.434,0,0,1-2.392-2.858,5.864,5.864,0,0,1-2.392,3.057.727.727,0,0,1-1.063-.2.7.7,0,0,1,.133-1.063C5.6,262.84,6.4,261.444,6.4,258.852v-1.4c0-.4.4-.6.864-.6C7.661,256.792,8.06,256.992,8.06,257.39Zm5.183-.465v3.589h1.4c.4,0,.532.332.532.731s-.133.731-.532.731h-1.4v5.782c0,.465-.332.665-.8.665s-.8-.2-.8-.665V256.992c0-.4.332-.6.8-.6C12.911,256.327,13.243,256.527,13.243,256.925Z" transform="translate(-3.621 -256.261)"/>
          <path id="패스_120" data-name="패스 120" class="cls-4" d="M28.5,266.434c-.332,0-.6-.266-.6-.731a.614.614,0,0,1,.6-.665H31.09v-.93c-1.4-.2-2.127-.864-2.127-1.861,0-1.2,1-1.927,2.924-1.927,1.861,0,2.924.731,2.924,1.927,0,1-.731,1.728-2.127,1.861v.93c1.063-.066,1.927-.2,2.459-.266h.133c.332,0,.532.266.532.731a.581.581,0,0,1-.4.6,19.073,19.073,0,0,1-3.854.4H28.5Zm.2-6.579c-.4,0-.532-.332-.532-.665a.6.6,0,0,1,.532-.665h6.247c.332,0,.532.266.532.665a.6.6,0,0,1-.532.665Zm1.794-1.994c-.4,0-.532-.332-.532-.665,0-.4.2-.665.532-.665h2.725c.4,0,.532.266.532.665s-.2.665-.532.665Zm1.4,5.25c.93,0,1.4-.332,1.4-.864s-.465-.864-1.4-.864c-.864,0-1.4.332-1.4.864S30.957,263.111,31.887,263.111Zm4.519-6.247c0-.4.332-.664.8-.664s.864.266.864.664V267.63c0,.465-.332.665-.864.665-.465,0-.8-.2-.8-.665Z" transform="translate(-11.766 -256.2)"/>
          <path id="패스_121" data-name="패스 121" class="cls-4" d="M52.768,257.031h5.715c.4,0,.532.332.532.731,0,.332-.133.731-.532.731H56.489v.133a3.268,3.268,0,0,0,2.392,3.123c.4.133.465.532.266.93a.692.692,0,0,1-1,.4,3.935,3.935,0,0,1-2.459-2.06,4.44,4.44,0,0,1-2.459,2.326.769.769,0,0,1-1-.332.651.651,0,0,1,.266-1,3.314,3.314,0,0,0,2.259-3.389v-.133H52.768c-.4,0-.532-.332-.532-.731S52.435,257.031,52.768,257.031Zm1.661,7.111h6.513c.864,0,1.2.2,1.2,1.13V268.2c0,.4-.4.6-.864.6s-.864-.2-.864-.6V265.8c0-.266,0-.266-.266-.266H54.363c-.4,0-.6-.266-.6-.665C53.9,264.408,54.03,264.142,54.429,264.142ZM62.2,256.9v5.981c0,.465-.332.665-.864.665-.465,0-.8-.2-.8-.665V260.62H58.882c-.4,0-.6-.266-.6-.731s.2-.731.6-.731h1.661V256.9c0-.4.4-.6.8-.6C61.806,256.3,62.2,256.5,62.2,256.9Z" transform="translate(-19.887 -256.234)"/>
          <path id="패스_122" data-name="패스 122" class="cls-4" d="M76.432,259.623c-.4,0-.532-.332-.532-.665a.6.6,0,0,1,.532-.664H82.28c.4,0,.532.266.532.664,0,.332-.133.665-.532.665Zm2.99.332c1.861,0,2.858.731,2.858,1.861s-1,1.861-2.858,1.861-2.924-.731-2.924-1.861C76.565,260.686,77.561,259.955,79.422,259.955Zm-1.4-2.26c-.4,0-.532-.266-.532-.664a.543.543,0,0,1,.532-.6h2.725a.543.543,0,0,1,.532.6c0,.332-.133.664-.532.664Zm1.4,4.851c.864,0,1.329-.332,1.329-.731,0-.465-.465-.731-1.329-.731s-1.329.332-1.329.731S78.558,262.547,79.422,262.547Zm-1.2,2.127c0-.332.4-.532.8-.532.465,0,.8.2.8.532v.6h4.718v-.6c0-.332.332-.532.8-.532s.8.2.8.532v2.858c0,.864-.332,1.13-1.263,1.13H79.422c-.93,0-1.263-.266-1.263-1.13v-2.858Zm1.595,1.794v.664c0,.332,0,.332.266.332h4.12c.266,0,.332,0,.332-.332v-.664Zm4.718-9.57c0-.4.4-.6.8-.6.465,0,.8.2.8.6v6.18c0,.465-.332.665-.8.665s-.8-.2-.8-.665v-.332h-1.2c-.4,0-.532-.266-.532-.665s.133-.665.532-.665h1.2v-.731h-1.2c-.4,0-.532-.266-.532-.665s.133-.665.532-.665h1.2Z" transform="translate(-27.867 -256.234)"/>
          <path id="패스_123" data-name="패스 123" class="cls-4" d="M104.551,261.253H102.69c-.864,0-1.263-.266-1.263-1.2V258c0-.864.266-1.2,1.263-1.2H109c.4,0,.6.266.6.731,0,.4-.2.665-.6.665h-5.582c-.266,0-.266.066-.266.266v1.13c0,.266.066.266.266.266H109c.4,0,.6.266.6.665s-.2.731-.6.731h-2.791v1h4.253a.681.681,0,0,1,0,1.329H100.232a.6.6,0,0,1-.532-.665c0-.332.133-.665.532-.665h4.253v-1Zm.864,2.99c2.725,0,4.187.8,4.187,2.326,0,1.462-1.4,2.259-4.187,2.259-2.725,0-4.187-.8-4.187-2.259C101.228,265.04,102.69,264.243,105.415,264.243Zm0,3.323c1.661,0,2.459-.4,2.459-1s-.8-1-2.459-1-2.459.4-2.459,1S103.754,267.566,105.415,267.566Z" transform="translate(-35.851 -256.401)"/>
          <path id="패스_124" data-name="패스 124" class="cls-4" d="M124.432,265.707h4.253v-2.06c0-.4.4-.6.864-.6s.864.2.864.6v2.06h4.253c.332,0,.532.332.532.731s-.2.731-.532.731H124.432c-.332,0-.532-.332-.532-.731S124.033,265.707,124.432,265.707Zm1.329-2.127c-.465.066-.8-.066-.93-.465a.759.759,0,0,1,.4-1c1.861-.4,3.323-1.4,3.323-3.19v-.066h-3.057c-.4,0-.532-.332-.532-.731,0-.332.2-.731.532-.731h7.975c.4,0,.532.332.532.731,0,.332-.133.731-.532.731h-3.057v.066c0,1.794,1.661,2.858,3.389,3.19.4.066.532.532.4.93a.694.694,0,0,1-.93.465,5.382,5.382,0,0,1-3.721-2.459A5.257,5.257,0,0,1,125.761,263.58Z" transform="translate(-43.969 -256.603)"/>
          <path id="패스_125" data-name="패스 125" class="cls-4" d="M148.332,259.623c-.4,0-.532-.266-.532-.665a.543.543,0,0,1,.532-.6h6.18c.4,0,.532.266.532.6s-.133.665-.532.665Zm3.19.332c1.861,0,2.858.731,2.858,1.861s-1,1.861-2.858,1.861c-1.927,0-2.924-.731-2.924-1.861S149.661,259.955,151.521,259.955Zm-1.462-2.26c-.4,0-.532-.266-.532-.664a.543.543,0,0,1,.532-.6h2.858a.543.543,0,0,1,.532.6c0,.332-.133.664-.532.664Zm-.332,6.978c0-.4.4-.6.8-.6.465,0,.8.2.8.6v.6h4.585v-.6c0-.4.4-.6.8-.6s.8.2.8.6V267.6c0,.864-.332,1.13-1.263,1.13h-5.316c-.93,0-1.263-.266-1.263-1.13v-2.924Zm1.794-2.127c.864,0,1.329-.332,1.329-.731,0-.465-.465-.8-1.329-.8s-1.329.332-1.329.8C150.192,262.215,150.658,262.547,151.521,262.547Zm-.2,3.921v.664c0,.332,0,.332.266.332h3.987c.266,0,.266,0,.266-.332v-.664Zm4.585-9.57c0-.4.4-.6.8-.6.465,0,.8.2.8.6v2.858h1.4c.4,0,.532.266.532.665s-.133.731-.532.731h-1.4v1.794c0,.465-.332.665-.8.665s-.8-.2-.8-.665Z" transform="translate(-51.986 -256.234)"/>
        </g>
      </g>
      <g id="그룹_22" data-name="그룹 22" transform="translate(27.745)">
        <path id="패스_126" data-name="패스 126" class="cls-4" d="M55.193,35.323A2.212,2.212,0,0,1,53,33.13,21.952,21.952,0,0,1,74.93,11.2a2.193,2.193,0,1,1,0,4.386A17.641,17.641,0,0,0,57.32,33.2,2.1,2.1,0,0,1,55.193,35.323Z" transform="translate(-45.557 -3.757)"/>
        <path id="패스_127" data-name="패스 127" class="cls-4" d="M66.393,41.506A2.212,2.212,0,0,1,64.2,39.313V36.854A14.549,14.549,0,0,1,78.754,22.3H93.307a2.193,2.193,0,0,1,0,4.386H78.754A10.21,10.21,0,0,0,68.586,36.854v2.459A2.212,2.212,0,0,1,66.393,41.506Z" transform="translate(-49.314 -7.481)"/>
        <path id="패스_128" data-name="패스 128" class="cls-4" d="M55.193,37.782A2.212,2.212,0,0,1,53,35.589V33.13A21.952,21.952,0,0,1,74.93,11.2H94.269a2.193,2.193,0,0,1,0,4.386H74.93A17.641,17.641,0,0,0,57.32,33.2v2.459A2.1,2.1,0,0,1,55.193,37.782Z" transform="translate(-45.557 -3.757)"/>
        <path id="패스_129" data-name="패스 129" class="cls-4" d="M43.993,34.025A2.212,2.212,0,0,1,41.8,31.832V29.373A29.439,29.439,0,0,1,71.24,0H95.762a2.212,2.212,0,0,1,2.193,2.193,2.212,2.212,0,0,1-2.193,2.193H71.24A25.043,25.043,0,0,0,46.252,29.373v2.459A2.271,2.271,0,0,1,43.993,34.025Z" transform="translate(-41.8)"/>
      </g>
    </g>
  </g>
</svg>
