<svg xmlns="http://www.w3.org/2000/svg" xmlns:xlink="http://www.w3.org/1999/xlink" viewBox="0 0 182.672 157.639">
  <defs>
    <style>
      .cls-1 {
        fill: #74c6be;
      }

      .cls-2 {
        fill: #fdd35c;
      }

      .cls-3 {
        fill: #fff;
      }

      .cls-4 {
        fill: #64c0ab;
      }

      .cls-5 {
        fill: #bce2e3;
      }

      .cls-6 {
        fill: #727171;
      }

      .cls-7 {
        clip-path: url(#clip-path);
      }

      .cls-8 {
        clip-path: url(#clip-path-2);
      }

      .cls-9 {
        fill: none;
      }

      .cls-10 {
        fill: #595757;
      }

      .cls-11 {
        clip-path: url(#clip-path-3);
      }

      .cls-12 {
        clip-path: url(#clip-path-4);
      }

      .cls-13 {
        opacity: 0.5;
      }
    </style>
    <clipPath id="clip-path">
      <path id="패스_3387" data-name="패스 3387" d="M138.9,97.331h0v0Z" transform="translate(-138.9 -95.7)"/>
    </clipPath>
    <clipPath id="clip-path-2">
      <rect id="사각형_260" data-name="사각형 260" width="0.466" height="2.097"/>
    </clipPath>
    <clipPath id="clip-path-3">
      <path id="패스_3389" data-name="패스 3389" d="M142.8,97.228l.816-3.728H143.5Z" transform="translate(-142.8 -93.5)"/>
    </clipPath>
    <clipPath id="clip-path-4">
      <rect id="사각형_263" data-name="사각형 263" width="1.049" height="4.194"/>
    </clipPath>
  </defs>
  <g id="그룹_660" data-name="그룹 660" transform="translate(-0.014 0)">
    <g id="그룹_608" data-name="그룹 608" transform="translate(68.638 69.799)">
      <g id="그룹_597" data-name="그룹 597" transform="translate(0.539 6.399)">
        <g id="그룹_596" data-name="그룹 596" transform="translate(4.64)">
          <path id="패스_3190" data-name="패스 3190" class="cls-1" d="M68.35,145.172h0c-.233-.117-.35-.233-.35-.466.117-.35,10.02-31.691.117-69.44a.368.368,0,0,1,.7-.233c9.9,37.982-.117,69.44-.233,69.79C68.583,145.056,68.466,145.172,68.35,145.172Z" transform="translate(-62.592 -63.848)"/>
          <path id="패스_3191" data-name="패스 3191" class="cls-1" d="M70.54,85.965c-.117,0-.233,0-.233-.117-.117-.117,0-.35.117-.466l8.389-5.476c.117-.117.35,0,.466.117s0,.35-.117.466l-8.389,5.359C70.656,85.965,70.656,85.965,70.54,85.965Z" transform="translate(-62.219 -63.013)"/>
          <path id="패스_3192" data-name="패스 3192" class="cls-1" d="M69.349,76.365c-.117,0-.117,0-.233-.117l-5.593-3.961c-.117-.117-.233-.35-.117-.466s.35-.233.466-.117l5.476,3.845L77.5,70.307c.117-.117.35,0,.466.117s0,.35-.117.466l-8.389,5.359A.114.114,0,0,1,69.349,76.365Z" transform="translate(-63.359 -64.598)"/>
          <path id="패스_3193" data-name="패스 3193" class="cls-1" d="M72.514,92.784h-.233l-6.758-4.194c-.117-.117-.233-.35-.117-.466s.35-.233.466-.117L72.631,92.2c.117.117.233.35.117.466A.407.407,0,0,1,72.514,92.784Z" transform="translate(-63.028 -61.675)"/>
          <path id="패스_3194" data-name="패스 3194" class="cls-1" d="M72.04,113.283c-.117,0-.233,0-.233-.117-.117-.117,0-.35.117-.466l7.806-4.893c.117-.117.35,0,.466.117s0,.35-.117.466l-7.806,4.893Z" transform="translate(-61.972 -58.406)"/>
          <path id="패스_3195" data-name="패스 3195" class="cls-1" d="M73.115,106.667h-.233l-6.059-4.078c-.117-.117-.233-.35-.117-.466s.35-.233.466-.117l6.059,4.078c.117.117.233.35.117.466A.407.407,0,0,1,73.115,106.667Z" transform="translate(-62.814 -59.364)"/>
          <path id="패스_3196" data-name="패스 3196" class="cls-1" d="M68.748,77.168a.372.372,0,0,1-.35-.35L67,65.75a.309.309,0,0,1,.35-.35c.233,0,.35.117.35.233l1.4,11.185a.372.372,0,0,1-.35.35Z" transform="translate(-62.757 -65.4)"/>
          <path id="패스_3197" data-name="패스 3197" class="cls-1" d="M70.814,81.987h0l-6.874-1.4c-.233,0-.35-.233-.233-.35,0-.233.233-.35.35-.233l6.758,1.4c.233,0,.35.233.233.35A.251.251,0,0,1,70.814,81.987Z" transform="translate(-63.309 -62.996)"/>
          <path id="패스_3198" data-name="패스 3198" class="cls-1" d="M71.54,92.617h-.117c-.117-.117-.233-.35-.117-.466l2.563-4.427c.117-.117.35-.233.466-.117s.233.35.117.466L71.889,92.5A.428.428,0,0,1,71.54,92.617Z" transform="translate(-62.054 -61.741)"/>
        </g>
        <path id="패스_3199" data-name="패스 3199" class="cls-1" d="M70.4,125.491c21.321-6.408,16.195-6.991,16.195-6.991-6.758-.117-13.4,4.66-16.078,6.525Z" transform="translate(-57.556 -56.633)"/>
        <path id="패스_3200" data-name="패스 3200" class="cls-1" d="M72.2,100.042c12.35-6.175,9.088-5.942,9.088-5.942-4.078.7-7.69,4.194-9.088,5.593Z" transform="translate(-57.259 -60.662)"/>
        <path id="패스_3201" data-name="패스 3201" class="cls-1" d="M72.831,119.374c-13.515-10.719-9.554-9.67-9.554-9.67,4.893,1.864,8.272,7.107,9.67,9.2Z" transform="translate(-58.822 -58.09)"/>
        <path id="패스_3202" data-name="패스 3202" class="cls-1" d="M71.055,131.346C58.239,115.151,59.4,119.578,59.4,119.578c2.68,7.107,9.321,11.185,11.651,12.467Z" transform="translate(-59.376 -56.546)"/>
      </g>
      <g id="그룹_598" data-name="그룹 598" transform="translate(5.119)">
        <path id="패스_3203" data-name="패스 3203" class="cls-2" d="M67.26,68.521a5.736,5.736,0,0,0,.7-1.981,4.023,4.023,0,0,0,.583,2.1,2.281,2.281,0,1,0,3.379-3.029,4.99,4.99,0,0,0-1.981-.7,4.024,4.024,0,0,0,2.1-.583,2.281,2.281,0,1,0-3.029-3.379,5.736,5.736,0,0,0-.7,1.981,4.023,4.023,0,0,0-.583-2.1,2.281,2.281,0,1,0-3.379,3.029,5.736,5.736,0,0,0,1.981.7,4.36,4.36,0,0,0-2.1.583,2.281,2.281,0,1,0,3.029,3.379" transform="translate(-63.308 -59.908)"/>
        <path id="패스_3204" data-name="패스 3204" class="cls-3" d="M67.3,63.766h0V63.3h.117v.35a.114.114,0,0,1-.117.117" transform="translate(-62.648 -59.347)"/>
        <path id="패스_3205" data-name="패스 3205" class="cls-3" d="M67.317,64.4h0v.466H67.2v-.35c.117,0,.117,0,.117-.117" transform="translate(-62.665 -59.166)"/>
        <path id="패스_3206" data-name="패스 3206" class="cls-3" d="M67.7,64.1h.466v.117h-.35A.114.114,0,0,0,67.7,64.1" transform="translate(-62.582 -59.215)"/>
        <path id="패스_3207" data-name="패스 3207" class="cls-3" d="M67.066,64.117H66.6V64h.35l.117.117" transform="translate(-62.764 -59.232)"/>
      </g>
      <g id="그룹_599" data-name="그룹 599" transform="translate(8.544 16.823)">
        <path id="패스_3208" data-name="패스 3208" class="cls-2" d="M68.872,80a2.855,2.855,0,0,0,.466-1.4,2.767,2.767,0,0,0,.35,1.4,1.447,1.447,0,0,0,2.214.233,1.515,1.515,0,0,0,0-2.214,2.855,2.855,0,0,0-1.4-.466,2.767,2.767,0,0,0,1.4-.35,1.447,1.447,0,0,0,.233-2.214,1.515,1.515,0,0,0-2.214,0,2.855,2.855,0,0,0-.466,1.4,2.768,2.768,0,0,0-.35-1.4,1.447,1.447,0,0,0-2.214-.233,1.515,1.515,0,0,0,0,2.214,2.855,2.855,0,0,0,1.4.466,2.768,2.768,0,0,0-1.4.35A1.447,1.447,0,0,0,66.658,80a1.359,1.359,0,0,0,2.214,0" transform="translate(-66.247 -74.347)"/>
        <path id="패스_3209" data-name="패스 3209" class="cls-3" d="M68.9,76.95h0V76.6h.117v.117h0v.117a.114.114,0,0,0-.117.117" transform="translate(-65.809 -73.975)"/>
        <path id="패스_3210" data-name="패스 3210" class="cls-3" d="M68.917,77.3h0v.35H68.8v-.117h0v-.117l.117-.117" transform="translate(-65.825 -73.859)"/>
        <path id="패스_3211" data-name="패스 3211" class="cls-3" d="M69.1,77.117h0c.117,0,.233,0,.233-.117h.117v.117H69.1" transform="translate(-65.776 -73.909)"/>
        <path id="패스_3212" data-name="패스 3212" class="cls-3" d="M68.75,77.107h0c-.117,0-.233,0-.233.117H68.4v-.117h.233c0-.117,0,0,.117,0" transform="translate(-65.891 -73.9)"/>
      </g>
      <g id="그룹_600" data-name="그룹 600" transform="translate(16.053 18.507)">
        <path id="패스_3213" data-name="패스 3213" class="cls-2" d="M79.459,83.025a4.111,4.111,0,0,0-.932-1.515,3.317,3.317,0,0,0,1.631.7,1.836,1.836,0,0,0,1.981-1.981,1.808,1.808,0,0,0-2.214-1.748,4.111,4.111,0,0,0-1.515.932,3.317,3.317,0,0,0,.7-1.631A1.836,1.836,0,0,0,77.129,75.8a1.808,1.808,0,0,0-1.748,2.214,4.111,4.111,0,0,0,.932,1.515,3.317,3.317,0,0,0-1.631-.7A1.836,1.836,0,0,0,72.7,80.811a1.808,1.808,0,0,0,2.214,1.748,4.111,4.111,0,0,0,1.515-.932,3.317,3.317,0,0,0-.7,1.631,1.836,1.836,0,0,0,1.981,1.981,1.912,1.912,0,0,0,1.748-2.214" transform="translate(-72.692 -75.792)"/>
        <path id="패스_3214" data-name="패스 3214" class="cls-3" d="M76.65,79.75h-.117a.114.114,0,0,1-.117-.117l-.117-.117a.114.114,0,0,1,.117-.117h.117v.117c.117,0,.117.117.117.233" transform="translate(-72.096 -75.196)"/>
        <path id="패스_3215" data-name="패스 3215" class="cls-3" d="M77,80h.117a.114.114,0,0,1,.117.117l.117.117a.114.114,0,0,1-.117.117h-.117v-.117c0-.117-.117-.117-.117-.233" transform="translate(-71.98 -75.097)"/>
        <path id="패스_3216" data-name="패스 3216" class="cls-3" d="M77,79.65h0v-.117a.114.114,0,0,1,.117-.117l.117-.117a.114.114,0,0,1,.117.117v.117h-.117c-.117.117-.117.117-.233.117" transform="translate(-71.98 -75.212)"/>
        <path id="패스_3217" data-name="패스 3217" class="cls-3" d="M76.65,80h0v.117a.114.114,0,0,1-.117.117l-.117.117a.114.114,0,0,1-.117-.117v-.117h.117c.117,0,.233,0,.233-.117" transform="translate(-72.096 -75.097)"/>
      </g>
      <g id="그룹_601" data-name="그룹 601" transform="translate(3.77 28.826)">
        <path id="패스_3218" data-name="패스 3218" class="cls-2" d="M67.917,89.835a2.271,2.271,0,0,0-1.049-1.049,3.2,3.2,0,0,0,1.4.233,1.484,1.484,0,0,0,1.165-1.864,1.552,1.552,0,0,0-2.1-.932,2.272,2.272,0,0,0-1.049,1.049,3.2,3.2,0,0,0,.233-1.4,1.467,1.467,0,1,0-2.8.816,2.271,2.271,0,0,0,1.049,1.049,3.2,3.2,0,0,0-1.4-.233,1.467,1.467,0,1,0,.816,2.8,2.272,2.272,0,0,0,1.049-1.049A3.2,3.2,0,0,0,65,90.65a1.484,1.484,0,0,0,1.864,1.165,1.364,1.364,0,0,0,1.049-1.981" transform="translate(-62.149 -84.649)"/>
        <path id="패스_3219" data-name="패스 3219" class="cls-3" d="M65.25,87.633h-.233a.114.114,0,0,1-.117-.117V87.4h.233c0,.233.117.233.117.233" transform="translate(-61.695 -84.195)"/>
        <path id="패스_3220" data-name="패스 3220" class="cls-3" d="M65.6,87.8h.233a.114.114,0,0,1,.117.117v.117h-.233c-.117-.117-.117-.117-.117-.233" transform="translate(-61.579 -84.129)"/>
        <path id="패스_3221" data-name="패스 3221" class="cls-3" d="M65.5,87.55h0v-.233a.114.114,0,0,1,.117-.117h.117v.117h0c-.117.233-.233.233-.233.233" transform="translate(-61.596 -84.228)"/>
        <path id="패스_3222" data-name="패스 3222" class="cls-3" d="M65.333,87.9h0v.233a.114.114,0,0,1-.117.117H65.1v-.117h0v-.117c.117,0,.233,0,.233-.117" transform="translate(-61.662 -84.112)"/>
      </g>
      <g id="그룹_602" data-name="그룹 602" transform="translate(3.48 43.45)">
        <path id="패스_3223" data-name="패스 3223" class="cls-2" d="M67.959,103.725a4.874,4.874,0,0,0-.932-1.4,4.071,4.071,0,0,0,1.515.583,1.815,1.815,0,0,0,1.748-1.864,1.669,1.669,0,0,0-1.981-1.515,2.443,2.443,0,0,0-1.282.932,4.071,4.071,0,0,0,.583-1.515A1.815,1.815,0,0,0,65.745,97.2a1.721,1.721,0,0,0-1.515,2.1,3.3,3.3,0,0,0,.932,1.282A4.071,4.071,0,0,0,63.648,100,1.815,1.815,0,0,0,61.9,101.86a1.669,1.669,0,0,0,1.981,1.515,3.3,3.3,0,0,0,1.282-.932,4.071,4.071,0,0,0-.583,1.515,1.815,1.815,0,0,0,1.864,1.748,1.523,1.523,0,0,0,1.515-1.981" transform="translate(-61.9 -97.2)"/>
        <path id="패스_3224" data-name="패스 3224" class="cls-3" d="M65.35,100.85h-.117a.114.114,0,0,1-.117-.117L65,100.617V100.5h.117c.233.233.233.35.233.35" transform="translate(-61.388 -96.655)"/>
        <path id="패스_3225" data-name="패스 3225" class="cls-3" d="M65.7,101.1h.117a.114.114,0,0,1,.117.117l.117.117v.117h-.117v-.117c-.117-.117-.233-.117-.233-.233" transform="translate(-61.273 -96.556)"/>
        <path id="패스_3226" data-name="패스 3226" class="cls-3" d="M65.7,100.85h0v-.117a.114.114,0,0,1,.117-.117l.117-.117h.117v.117h-.117l-.233.233" transform="translate(-61.273 -96.655)"/>
        <path id="패스_3227" data-name="패스 3227" class="cls-3" d="M65.45,101.2h0v.117a2728119684420.992,2728119684420.992,0,0,0-.233.233H65.1v-.117h.117c.117-.233.117-.233.233-.233" transform="translate(-61.372 -96.54)"/>
      </g>
      <g id="그룹_603" data-name="그룹 603" transform="translate(19.778 51.942)">
        <path id="패스_3228" data-name="패스 3228" class="cls-2" d="M81.028,110.327a3.146,3.146,0,0,0-.583-1.282,3.55,3.55,0,0,0,1.165.816,1.454,1.454,0,0,0,1.748-1.4,1.5,1.5,0,0,0-1.515-1.631,3.146,3.146,0,0,0-1.282.583,2.09,2.09,0,0,0,.7-1.165,1.454,1.454,0,0,0-1.4-1.748,1.5,1.5,0,0,0-1.631,1.515,3.146,3.146,0,0,0,.583,1.282,3.55,3.55,0,0,0-1.165-.816,1.454,1.454,0,0,0-1.748,1.4,1.5,1.5,0,0,0,1.515,1.631,3.146,3.146,0,0,0,1.282-.583,3.55,3.55,0,0,0-.816,1.165,1.454,1.454,0,0,0,1.4,1.748,1.534,1.534,0,0,0,1.748-1.515" transform="translate(-75.889 -104.489)"/>
        <path id="패스_3229" data-name="패스 3229" class="cls-3" d="M79.033,107.44h0a.361.361,0,0,0-.233-.117v-.117h.117v.117l.117.117" transform="translate(-75.408 -104.049)"/>
        <path id="패스_3230" data-name="패스 3230" class="cls-3" d="M79.3,107.8h0a.361.361,0,0,0,.233.117v.117h-.117v-.117a.114.114,0,0,1-.117-.117" transform="translate(-75.326 -103.942)"/>
        <path id="패스_3231" data-name="패스 3231" class="cls-3" d="M79.3,107.533h0a.361.361,0,0,0,.117-.233h.117v.117h0a.407.407,0,0,0-.233.117" transform="translate(-75.326 -104.025)"/>
        <path id="패스_3232" data-name="패스 3232" class="cls-3" d="M79.04,107.8h0a.361.361,0,0,0-.117.233h-.117s-.117,0,0-.117V107.8h.233" transform="translate(-75.416 -103.942)"/>
      </g>
      <g id="그룹_604" data-name="그룹 604" transform="translate(15.984 7.602)">
        <path id="패스_3233" data-name="패스 3233" class="cls-2" d="M75.857,73.851a3.6,3.6,0,0,0,.816-1.631,4.829,4.829,0,0,0,.233,1.864,2,2,0,0,0,2.8.7,1.933,1.933,0,0,0,.35-2.913,3.6,3.6,0,0,0-1.631-.816,4.829,4.829,0,0,0,1.864-.233,2,2,0,0,0,.7-2.8,1.933,1.933,0,0,0-2.913-.35,3.6,3.6,0,0,0-.816,1.631,4.829,4.829,0,0,0-.233-1.864,2,2,0,0,0-2.8-.7,1.933,1.933,0,0,0-.35,2.913,3.6,3.6,0,0,0,1.631.816,4.829,4.829,0,0,0-1.864.233,2,2,0,0,0-.7,2.8,1.958,1.958,0,0,0,2.913.35" transform="translate(-72.632 -66.432)"/>
        <path id="패스_3234" data-name="패스 3234" class="cls-3" d="M76.5,69.966h0v-.35a.114.114,0,0,1,.117-.117h.117v.35c-.233,0-.233,0-.233.117" transform="translate(-71.994 -65.926)"/>
        <path id="패스_3235" data-name="패스 3235" class="cls-3" d="M76.433,70.5h0v.35a.114.114,0,0,1-.117.117H76.2v-.35c.117,0,.117-.117.233-.117" transform="translate(-72.043 -65.761)"/>
        <path id="패스_3236" data-name="패스 3236" class="cls-3" d="M76.7,70.2h.466v.117h-.35A.114.114,0,0,1,76.7,70.2" transform="translate(-71.961 -65.81)"/>
        <path id="패스_3237" data-name="패스 3237" class="cls-3" d="M76.166,70.117H75.7V70h.35l.117.117" transform="translate(-72.126 -65.843)"/>
      </g>
      <g id="그룹_605" data-name="그룹 605" transform="translate(0 9.095)">
        <path id="패스_3238" data-name="패스 3238" class="cls-2" d="M61.694,75.154a3.765,3.765,0,0,0,1.282-1.4,3.456,3.456,0,0,0-.233,1.864,1.974,1.974,0,0,0,2.563,1.4,1.859,1.859,0,0,0,1.049-2.68,3.765,3.765,0,0,0-1.4-1.282,3.456,3.456,0,0,0,1.864.233,1.974,1.974,0,0,0,1.4-2.563,1.859,1.859,0,0,0-2.68-1.049,3.765,3.765,0,0,0-1.282,1.4,3.456,3.456,0,0,0,.233-1.864,1.974,1.974,0,0,0-2.563-1.4,1.859,1.859,0,0,0-1.049,2.68,3.765,3.765,0,0,0,1.4,1.282,3.456,3.456,0,0,0-1.864-.233,1.974,1.974,0,0,0-1.4,2.563,1.933,1.933,0,0,0,2.68,1.049" transform="translate(-58.914 -67.714)"/>
        <path id="패스_3239" data-name="패스 3239" class="cls-3" d="M63.1,71.55h0v-.233a.114.114,0,0,1,.117-.117h.117v.35a.161.161,0,0,0-.233,0" transform="translate(-58.222 -67.138)"/>
        <path id="패스_3240" data-name="패스 3240" class="cls-3" d="M62.833,72h0v.35a.114.114,0,0,1-.117.117H62.6V72.35h0v-.117c.117-.117.233-.117.233-.233" transform="translate(-58.305 -67.006)"/>
        <path id="패스_3241" data-name="패스 3241" class="cls-3" d="M63.2,71.9h.35a.114.114,0,0,1,.117.117v.117h-.233c-.117-.117-.233-.117-.233-.233" transform="translate(-58.206 -67.022)"/>
        <path id="패스_3242" data-name="패스 3242" class="cls-3" d="M62.766,71.733h-.35a.114.114,0,0,1-.117-.117V71.5h.35c0,.117,0,.117.117.233" transform="translate(-58.354 -67.088)"/>
      </g>
      <g id="그룹_606" data-name="그룹 606" transform="translate(1.553 20.435)">
        <path id="패스_3243" data-name="패스 3243" class="cls-2" d="M62.872,83.1a2.855,2.855,0,0,0,.466-1.4,2.768,2.768,0,0,0,.35,1.4,1.447,1.447,0,0,0,2.214.233,1.515,1.515,0,0,0,0-2.214,2.855,2.855,0,0,0-1.4-.466,2.768,2.768,0,0,0,1.4-.35,1.447,1.447,0,0,0,.233-2.214,1.515,1.515,0,0,0-2.214,0,2.855,2.855,0,0,0-.466,1.4,2.768,2.768,0,0,0-.35-1.4,1.447,1.447,0,0,0-2.214-.233,1.515,1.515,0,0,0,0,2.214,2.5,2.5,0,0,0,1.4.466,2.768,2.768,0,0,0-1.4.35,1.447,1.447,0,0,0-.233,2.214,1.514,1.514,0,0,0,2.214,0" transform="translate(-60.247 -77.447)"/>
        <path id="패스_3244" data-name="패스 3244" class="cls-3" d="M63.012,79.95h0c-.117,0-.117-.117,0,0V79.6h.117v.117h0v.117a.114.114,0,0,0-.117.117" transform="translate(-59.805 -77.091)"/>
        <path id="패스_3245" data-name="패스 3245" class="cls-3" d="M62.917,80.3h0v.35H62.8v-.117h0v-.117c.117,0,.117,0,.117-.117" transform="translate(-59.825 -76.976)"/>
        <path id="패스_3246" data-name="패스 3246" class="cls-3" d="M63.2,80.1h.35v.117h-.233A.114.114,0,0,1,63.2,80.1" transform="translate(-59.759 -77.009)"/>
        <path id="패스_3247" data-name="패스 3247" class="cls-3" d="M62.75,80.1h0a.407.407,0,0,0-.233.117H62.4V80.1h.35" transform="translate(-59.891 -77.009)"/>
      </g>
      <g id="그룹_607" data-name="그룹 607" transform="translate(13.72 28.64)">
        <path id="패스_3248" data-name="패스 3248" class="cls-2" d="M72.566,90.327a3.3,3.3,0,0,0,1.282-.932,3.8,3.8,0,0,0-.466,1.515,1.651,1.651,0,0,0,1.864,1.631,1.594,1.594,0,0,0,1.4-1.981,3.3,3.3,0,0,0-.932-1.282,4.481,4.481,0,0,0,1.4.583A1.651,1.651,0,0,0,78.741,88a1.594,1.594,0,0,0-1.981-1.4,3.3,3.3,0,0,0-1.282.932,4.481,4.481,0,0,0,.583-1.4A1.651,1.651,0,0,0,74.2,84.5a1.594,1.594,0,0,0-1.4,1.981,3.3,3.3,0,0,0,.932,1.282,4.481,4.481,0,0,0-1.4-.583A1.651,1.651,0,0,0,70.7,89.046a1.5,1.5,0,0,0,1.864,1.282" transform="translate(-70.689 -84.489)"/>
        <path id="패스_3249" data-name="패스 3249" class="cls-3" d="M74.3,87.75h0v-.117a.114.114,0,0,1,.117-.117l.117-.117h.117v.117h0c-.233.117-.35.117-.35.233" transform="translate(-70.093 -84.009)"/>
        <path id="패스_3250" data-name="패스 3250" class="cls-3" d="M74.05,88h0v.117a.114.114,0,0,1-.117.117l-.117.117H73.7v-.117h.117L74.05,88" transform="translate(-70.192 -83.909)"/>
        <path id="패스_3251" data-name="패스 3251" class="cls-3" d="M74.3,88h.117a.114.114,0,0,1,.117.117.114.114,0,0,1,.117.117v.117h-.117v-.117c-.117-.117-.233-.117-.233-.233" transform="translate(-70.093 -83.909)"/>
        <path id="패스_3252" data-name="패스 3252" class="cls-3" d="M73.95,87.75h-.117a5032.093,5032.093,0,0,0-.233-.233V87.4h.117v.117c.233.117.233.233.233.233" transform="translate(-70.209 -84.009)"/>
      </g>
    </g>
    <g id="그룹_621" data-name="그룹 621" transform="translate(32.636 51.623)">
      <g id="그룹_610" data-name="그룹 610" transform="translate(0.539 6.283)">
        <g id="그룹_609" data-name="그룹 609" transform="translate(4.64)">
          <path id="패스_3253" data-name="패스 3253" class="cls-1" d="M37.45,129.572h0c-.233-.117-.35-.233-.35-.466.117-.35,10.02-31.691.117-69.44a.605.605,0,0,1,.233-.466.605.605,0,0,1,.466.233,138.871,138.871,0,0,1-.117,69.79A.309.309,0,0,1,37.45,129.572Z" transform="translate(-31.692 -48.132)"/>
          <path id="패스_3254" data-name="패스 3254" class="cls-1" d="M39.64,70.365c-.117,0-.233,0-.233-.117-.117-.117,0-.35.117-.466l8.389-5.476c.117-.117.35,0,.466.117s0,.35-.117.466l-8.389,5.476Z" transform="translate(-31.319 -47.296)"/>
          <path id="패스_3255" data-name="패스 3255" class="cls-1" d="M38.449,60.765c-.117,0-.117,0-.233-.117l-5.593-3.961c-.117-.117-.233-.35-.117-.466s.35-.233.466-.117l5.476,3.845L46.6,54.707c.117-.117.35,0,.466.117a.288.288,0,0,1-.117.466l-8.389,5.476Z" transform="translate(-32.459 -48.881)"/>
          <path id="패스_3256" data-name="패스 3256" class="cls-1" d="M41.614,77.184h-.233l-6.758-4.194c-.117-.117-.233-.35-.117-.466s.35-.233.466-.117L41.73,76.6c.117.117.233.35.117.466C41.847,77.184,41.73,77.184,41.614,77.184Z" transform="translate(-32.128 -45.959)"/>
          <path id="패스_3257" data-name="패스 3257" class="cls-1" d="M41.24,97.683c-.117,0-.233,0-.233-.117-.117-.117,0-.35.117-.466l7.806-4.893c.117-.117.35,0,.466.117s0,.35-.117.466l-7.806,4.893Z" transform="translate(-31.055 -42.69)"/>
          <path id="패스_3258" data-name="패스 3258" class="cls-1" d="M42.215,91.067h-.233l-6.059-4.078c-.117-.117-.233-.35-.117-.466s.35-.233.466-.117l6.059,4.078c.117.117.233.35.117.466C42.448,91.067,42.331,91.067,42.215,91.067Z" transform="translate(-31.914 -43.647)"/>
          <path id="패스_3259" data-name="패스 3259" class="cls-1" d="M37.848,61.584a.372.372,0,0,1-.35-.35L36.1,50.05a.35.35,0,0,1,.7,0l1.4,11.185a.309.309,0,0,1-.35.35Z" transform="translate(-31.857 -49.7)"/>
          <path id="패스_3260" data-name="패스 3260" class="cls-1" d="M39.914,66.387h0l-6.874-1.4c-.233,0-.35-.233-.233-.35,0-.233.233-.35.35-.233l6.758,1.4c.233,0,.35.233.233.35C40.263,66.271,40.03,66.387,39.914,66.387Z" transform="translate(-32.409 -47.279)"/>
          <path id="패스_3261" data-name="패스 3261" class="cls-1" d="M40.64,77.117h-.117c-.117-.117-.233-.35-.117-.466l2.563-4.427c.117-.117.35-.233.466-.117s.233.35.117.466L40.989,77C40.873,77,40.756,77.117,40.64,77.117Z" transform="translate(-31.154 -46.008)"/>
        </g>
        <path id="패스_3262" data-name="패스 3262" class="cls-1" d="M39.6,109.891c21.321-6.408,16.195-6.991,16.195-6.991-6.758-.117-13.4,4.66-16.078,6.525Z" transform="translate(-26.64 -40.917)"/>
        <path id="패스_3263" data-name="패스 3263" class="cls-1" d="M41.3,84.442c12.35-6.175,9.088-5.942,9.088-5.942-4.078.7-7.69,4.194-9.088,5.593Z" transform="translate(-26.359 -44.945)"/>
        <path id="패스_3264" data-name="패스 3264" class="cls-1" d="M42.031,103.874c-13.515-10.719-9.554-9.67-9.554-9.67,4.893,1.864,8.272,7.107,9.67,9.2Z" transform="translate(-27.905 -42.357)"/>
        <path id="패스_3265" data-name="패스 3265" class="cls-1" d="M40.155,115.746C27.339,99.551,28.5,103.978,28.5,103.978c2.68,7.107,9.2,11.185,11.651,12.467Z" transform="translate(-28.476 -40.83)"/>
      </g>
      <g id="그룹_611" data-name="그룹 611" transform="translate(5.119)">
        <path id="패스_3266" data-name="패스 3266" class="cls-2" d="M36.36,52.921a5.736,5.736,0,0,0,.7-1.981,4.024,4.024,0,0,0,.583,2.1,2.281,2.281,0,1,0,3.379-3.029,5.737,5.737,0,0,0-1.981-.7,4.361,4.361,0,0,0,2.1-.583,2.281,2.281,0,1,0-3.029-3.379,5.736,5.736,0,0,0-.7,1.981,4.024,4.024,0,0,0-.583-2.1,2.281,2.281,0,1,0-3.379,3.029,5.736,5.736,0,0,0,1.981.7,4.361,4.361,0,0,0-2.1.583,2.312,2.312,0,0,0-.35,3.379,2.2,2.2,0,0,0,3.379,0" transform="translate(-32.408 -44.308)"/>
        <path id="패스_3267" data-name="패스 3267" class="cls-3" d="M36.5,48.266h0V47.8h.117v.35c-.117-.117-.117,0-.117.117" transform="translate(-31.732 -43.731)"/>
        <path id="패스_3268" data-name="패스 3268" class="cls-3" d="M36.417,48.8h0v.466H36.3v-.35c.117.117.117,0,.117-.117" transform="translate(-31.765 -43.566)"/>
        <path id="패스_3269" data-name="패스 3269" class="cls-3" d="M36.8,48.5h.466v.117h-.35A.114.114,0,0,0,36.8,48.5" transform="translate(-31.682 -43.615)"/>
        <path id="패스_3270" data-name="패스 3270" class="cls-3" d="M36.166,48.517H35.7V48.4h.35l.117.117" transform="translate(-31.864 -43.632)"/>
      </g>
      <g id="그룹_612" data-name="그룹 612" transform="translate(8.544 16.94)">
        <path id="패스_3271" data-name="패스 3271" class="cls-2" d="M37.972,64.5a2.854,2.854,0,0,0,.466-1.4,2.768,2.768,0,0,0,.35,1.4A1.447,1.447,0,0,0,41,64.734a1.515,1.515,0,0,0,0-2.214,2.854,2.854,0,0,0-1.4-.466,2.768,2.768,0,0,0,1.4-.35,1.447,1.447,0,0,0,.233-2.214,1.515,1.515,0,0,0-2.214,0,2.855,2.855,0,0,0-.466,1.4,2.768,2.768,0,0,0-.35-1.4,1.447,1.447,0,0,0-2.214-.233,1.515,1.515,0,0,0,0,2.214,2.854,2.854,0,0,0,1.4.466,2.768,2.768,0,0,0-1.4.35,1.447,1.447,0,0,0-.233,2.214,1.509,1.509,0,0,0,2.214,0" transform="translate(-35.347 -58.847)"/>
        <path id="패스_3272" data-name="패스 3272" class="cls-3" d="M38,61.35h0V61h.117v.117h0v.117A.114.114,0,0,1,38,61.35" transform="translate(-34.909 -58.491)"/>
        <path id="패스_3273" data-name="패스 3273" class="cls-3" d="M38.017,61.7h0v.35H37.9v-.117h0v-.117c.117,0,.117,0,.117-.117" transform="translate(-34.925 -58.376)"/>
        <path id="패스_3274" data-name="패스 3274" class="cls-3" d="M38.2,61.517h0c.117,0,.233,0,.233-.117h.117v.117h-.233c0,.117,0,0-.117,0" transform="translate(-34.876 -58.425)"/>
        <path id="패스_3275" data-name="패스 3275" class="cls-3" d="M37.85,61.5h0c-.117,0-.233,0-.233.117H37.5V61.5h.35" transform="translate(-34.991 -58.409)"/>
      </g>
      <g id="그룹_613" data-name="그룹 613" transform="translate(16.169 18.507)">
        <path id="패스_3276" data-name="패스 3276" class="cls-2" d="M48.659,67.425a4.111,4.111,0,0,0-.932-1.515,3.317,3.317,0,0,0,1.631.7,1.836,1.836,0,0,0,1.981-1.981,1.808,1.808,0,0,0-2.214-1.748,4.111,4.111,0,0,0-1.515.932,3.317,3.317,0,0,0,.7-1.631A1.836,1.836,0,0,0,46.329,60.2a1.808,1.808,0,0,0-1.748,2.214,4.111,4.111,0,0,0,.932,1.515,3.317,3.317,0,0,0-1.631-.7A1.836,1.836,0,0,0,41.9,65.211a1.808,1.808,0,0,0,2.214,1.748,4.111,4.111,0,0,0,1.515-.932,3.317,3.317,0,0,0-.7,1.631,1.836,1.836,0,0,0,1.981,1.981,1.933,1.933,0,0,0,1.748-2.214" transform="translate(-41.892 -60.192)"/>
        <path id="패스_3277" data-name="패스 3277" class="cls-3" d="M45.75,64.15h-.117a.114.114,0,0,1-.117-.117l-.117-.117a.114.114,0,0,1,.117-.117h.117v.117c.117.117.117.117.117.233" transform="translate(-41.312 -59.596)"/>
        <path id="패스_3278" data-name="패스 3278" class="cls-3" d="M46.1,64.5h.117a.114.114,0,0,1,.117.117l.117.117a.114.114,0,0,1-.117.117h-.117l-.117-.117c.117-.117.117-.233,0-.233" transform="translate(-41.197 -59.48)"/>
        <path id="패스_3279" data-name="패스 3279" class="cls-3" d="M46.1,64.15h0v-.117l.117-.117.117-.117a.114.114,0,0,1,.117.117v.117h-.117c-.117,0-.117,0-.233.117" transform="translate(-41.197 -59.596)"/>
        <path id="패스_3280" data-name="패스 3280" class="cls-3" d="M45.85,64.5h0v.117a.114.114,0,0,1-.117.117l-.117.117a.114.114,0,0,1-.117-.117v-.117h.117c0-.117.117-.117.233-.117" transform="translate(-41.296 -59.48)"/>
      </g>
      <g id="그룹_614" data-name="그룹 614" transform="translate(3.886 28.826)">
        <path id="패스_3281" data-name="패스 3281" class="cls-2" d="M37.117,74.235a2.272,2.272,0,0,0-1.049-1.049,3.2,3.2,0,0,0,1.4.233,1.484,1.484,0,0,0,1.165-1.864,1.552,1.552,0,0,0-2.1-.932,2.272,2.272,0,0,0-1.049,1.049,3.2,3.2,0,0,0,.233-1.4,1.467,1.467,0,1,0-2.8.816,2.272,2.272,0,0,0,1.049,1.049,3.2,3.2,0,0,0-1.4-.233,1.467,1.467,0,1,0,.816,2.8,2.272,2.272,0,0,0,1.049-1.049,3.2,3.2,0,0,0-.233,1.4,1.484,1.484,0,0,0,1.864,1.165,1.448,1.448,0,0,0,1.049-1.981" transform="translate(-31.349 -69.049)"/>
        <path id="패스_3282" data-name="패스 3282" class="cls-3" d="M34.35,72.133h-.233A.114.114,0,0,1,34,72.017V71.9h.117c.233.117.233.117.233.233" transform="translate(-30.911 -68.578)"/>
        <path id="패스_3283" data-name="패스 3283" class="cls-3" d="M34.7,72.3h.233l.117.117v.117h-.117L34.7,72.3" transform="translate(-30.796 -68.512)"/>
        <path id="패스_3284" data-name="패스 3284" class="cls-3" d="M34.6,72.05h0v-.233a.114.114,0,0,1,.117-.117h.117v.117h0l-.233.233" transform="translate(-30.812 -68.611)"/>
        <path id="패스_3285" data-name="패스 3285" class="cls-3" d="M34.433,72.4h0v.233a.114.114,0,0,1-.117.117H34.2v-.117h0v-.117a.361.361,0,0,1,.233-.117" transform="translate(-30.878 -68.496)"/>
      </g>
      <g id="그룹_615" data-name="그룹 615" transform="translate(3.596 43.683)">
        <path id="패스_3286" data-name="패스 3286" class="cls-2" d="M37.159,88.208a3.3,3.3,0,0,0-.932-1.282,4.071,4.071,0,0,0,1.515.583,1.815,1.815,0,0,0,1.748-1.864,1.669,1.669,0,0,0-1.981-1.515,2.443,2.443,0,0,0-1.282.932,4.071,4.071,0,0,0,.583-1.515A1.815,1.815,0,0,0,34.945,81.8a1.671,1.671,0,0,0-1.515,2.1,3.3,3.3,0,0,0,.932,1.282,4.071,4.071,0,0,0-1.515-.583A1.815,1.815,0,0,0,31.1,86.46a1.669,1.669,0,0,0,1.981,1.515,3.3,3.3,0,0,0,1.282-.932,4.071,4.071,0,0,0-.583,1.515,1.815,1.815,0,0,0,1.864,1.748,1.835,1.835,0,0,0,1.515-2.1" transform="translate(-31.1 -81.8)"/>
        <path id="패스_3287" data-name="패스 3287" class="cls-3" d="M34.45,85.35h-.117a.114.114,0,0,1-.117-.117l-.117-.117V85h.117c.233.233.233.233.233.35" transform="translate(-30.605 -81.272)"/>
        <path id="패스_3288" data-name="패스 3288" class="cls-3" d="M34.8,85.6h.117a.114.114,0,0,1,.117.117l.117.117v.117h-.117c-.117-.233-.117-.35-.233-.35" transform="translate(-30.489 -81.173)"/>
        <path id="패스_3289" data-name="패스 3289" class="cls-3" d="M34.8,85.25h0v-.117a.114.114,0,0,1,.117-.117l.117-.117h.117v.117h-.117c-.117.233-.233.233-.233.233" transform="translate(-30.489 -81.288)"/>
        <path id="패스_3290" data-name="패스 3290" class="cls-3" d="M34.55,85.6h0v.117a.114.114,0,0,1-.117.117l-.117.117H34.2v-.117h.117c.117-.117.117-.233.233-.233" transform="translate(-30.588 -81.173)"/>
      </g>
      <g id="그룹_616" data-name="그룹 616" transform="translate(19.895 51.942)">
        <path id="패스_3291" data-name="패스 3291" class="cls-2" d="M50.112,94.727a3.146,3.146,0,0,0-.583-1.282,3.55,3.55,0,0,0,1.165.816,1.454,1.454,0,0,0,1.748-1.4,1.5,1.5,0,0,0-1.515-1.631,3.146,3.146,0,0,0-1.282.583,3.55,3.55,0,0,0,.816-1.165,1.454,1.454,0,0,0-1.4-1.748,1.5,1.5,0,0,0-1.631,1.515,3.146,3.146,0,0,0,.583,1.282,3.55,3.55,0,0,0-1.165-.816,1.454,1.454,0,0,0-1.748,1.4,1.5,1.5,0,0,0,1.515,1.631,3.146,3.146,0,0,0,1.282-.583,3.55,3.55,0,0,0-.816,1.165,1.454,1.454,0,0,0,1.4,1.748,1.433,1.433,0,0,0,1.631-1.515" transform="translate(-45.089 -88.889)"/>
        <path id="패스_3292" data-name="패스 3292" class="cls-3" d="M48.133,91.94h0a.361.361,0,0,0-.233-.117v-.117h.117v.117c.117,0,.117,0,.117.117" transform="translate(-44.625 -88.432)"/>
        <path id="패스_3293" data-name="패스 3293" class="cls-3" d="M48.4,92.2h0a.361.361,0,0,0,.233.117v.117s0,.117-.117,0H48.4V92.2" transform="translate(-44.542 -88.342)"/>
        <path id="패스_3294" data-name="패스 3294" class="cls-3" d="M48.4,91.933h0a.361.361,0,0,0,.117-.233h.117v.117h-.117c0,.117,0,.117-.117.117" transform="translate(-44.542 -88.425)"/>
        <path id="패스_3295" data-name="패스 3295" class="cls-3" d="M48.14,92.2h0c-.117.117-.117.117-.117.233h-.117s-.117,0,0-.117V92.2h.233" transform="translate(-44.632 -88.342)"/>
      </g>
      <g id="그룹_617" data-name="그룹 617" transform="translate(16.1 7.718)">
        <path id="패스_3296" data-name="패스 3296" class="cls-2" d="M45.057,58.351a3.6,3.6,0,0,0,.816-1.631,4.829,4.829,0,0,0,.233,1.864,2,2,0,0,0,2.8.7,1.933,1.933,0,0,0,.35-2.913,3.6,3.6,0,0,0-1.631-.816,4.829,4.829,0,0,0,1.864-.233,2,2,0,0,0,.7-2.8,1.933,1.933,0,0,0-2.913-.35,3.6,3.6,0,0,0-.816,1.631,4.829,4.829,0,0,0-.233-1.864,2,2,0,0,0-2.8-.7,1.933,1.933,0,0,0-.35,2.913,3.6,3.6,0,0,0,1.631.816,4.829,4.829,0,0,0-1.864.233,2,2,0,0,0-.7,2.8,2.021,2.021,0,0,0,2.913.35" transform="translate(-41.832 -50.932)"/>
        <path id="패스_3297" data-name="패스 3297" class="cls-3" d="M45.6,54.366h0v-.35a.114.114,0,0,1,.117-.117h.117v.35a.407.407,0,0,0-.233.117" transform="translate(-41.21 -50.442)"/>
        <path id="패스_3298" data-name="패스 3298" class="cls-3" d="M45.533,54.9h0v.35a.114.114,0,0,1-.117.117H45.3v-.35a.407.407,0,0,0,.233-.117" transform="translate(-41.26 -50.277)"/>
        <path id="패스_3299" data-name="패스 3299" class="cls-3" d="M45.8,54.7h.466v.117h-.35c0-.117,0-.117-.117-.117" transform="translate(-41.177 -50.31)"/>
        <path id="패스_3300" data-name="패스 3300" class="cls-3" d="M45.366,54.617H44.9V54.5h.233c.117,0,.117,0,.233.117" transform="translate(-41.326 -50.343)"/>
      </g>
      <g id="그룹_618" data-name="그룹 618" transform="translate(0 9.211)">
        <path id="패스_3301" data-name="패스 3301" class="cls-2" d="M30.794,59.654a3.765,3.765,0,0,0,1.282-1.4,3.456,3.456,0,0,0-.233,1.864,1.974,1.974,0,0,0,2.563,1.4,1.859,1.859,0,0,0,1.049-2.68,3.765,3.765,0,0,0-1.4-1.282,3.456,3.456,0,0,0,1.864.233,1.974,1.974,0,0,0,1.4-2.563,1.859,1.859,0,0,0-2.68-1.049,3.765,3.765,0,0,0-1.282,1.4,3.456,3.456,0,0,0,.233-1.864,1.974,1.974,0,0,0-2.563-1.4,1.859,1.859,0,0,0-1.049,2.68,3.765,3.765,0,0,0,1.4,1.282,3.456,3.456,0,0,0-1.864-.233,1.974,1.974,0,0,0-1.4,2.563,2.021,2.021,0,0,0,2.68,1.049" transform="translate(-28.014 -52.214)"/>
        <path id="패스_3302" data-name="패스 3302" class="cls-3" d="M32.2,56.05h0v-.233a.114.114,0,0,1,.117-.117h.117v.117h0v.117c-.117,0-.233,0-.233.117" transform="translate(-27.322 -51.638)"/>
        <path id="패스_3303" data-name="패스 3303" class="cls-3" d="M31.933,56.5h0v.35a.114.114,0,0,1-.117.117H31.7V56.85h0v-.117l.233-.233" transform="translate(-27.405 -51.506)"/>
        <path id="패스_3304" data-name="패스 3304" class="cls-3" d="M32.3,56.3h.35a.114.114,0,0,1,.117.117v.117h-.233L32.3,56.3" transform="translate(-27.306 -51.539)"/>
        <path id="패스_3305" data-name="패스 3305" class="cls-3" d="M31.866,56.133h-.35a.114.114,0,0,1-.117-.117V55.9h.233l.233.233" transform="translate(-27.454 -51.605)"/>
      </g>
      <g id="그룹_619" data-name="그룹 619" transform="translate(1.67 20.435)">
        <path id="패스_3306" data-name="패스 3306" class="cls-2" d="M31.955,67.5a2.855,2.855,0,0,0,.466-1.4,2.768,2.768,0,0,0,.35,1.4,1.447,1.447,0,0,0,2.214.233,1.515,1.515,0,0,0,0-2.214,2.867,2.867,0,0,0-1.282-.466,2.768,2.768,0,0,0,1.4-.35,1.447,1.447,0,0,0,.233-2.214,1.515,1.515,0,0,0-2.214,0,2.855,2.855,0,0,0-.466,1.4,2.768,2.768,0,0,0-.35-1.4,1.447,1.447,0,0,0-2.214-.233,1.515,1.515,0,0,0,0,2.214,2.855,2.855,0,0,0,1.4.466,2.768,2.768,0,0,0-1.4.35,1.447,1.447,0,0,0-.233,2.214,1.31,1.31,0,0,0,2.1,0" transform="translate(-29.447 -61.847)"/>
        <path id="패스_3307" data-name="패스 3307" class="cls-3" d="M32.117,64.35h0A.407.407,0,0,0,32,64.117V64h.117v.117h0v.233" transform="translate(-29.025 -61.491)"/>
        <path id="패스_3308" data-name="패스 3308" class="cls-3" d="M32.117,64.8h0v.35H32v-.117h0v-.117a.114.114,0,0,1,.117-.117" transform="translate(-29.025 -61.359)"/>
        <path id="패스_3309" data-name="패스 3309" class="cls-3" d="M32.3,64.607h.35v.117h-.233a.114.114,0,0,0-.117-.117" transform="translate(-28.976 -61.4)"/>
        <path id="패스_3310" data-name="패스 3310" class="cls-3" d="M31.95,64.612h0a.407.407,0,0,0-.233.117H31.6v-.117h.233c0-.117,0-.117.117,0" transform="translate(-29.091 -61.405)"/>
      </g>
      <g id="그룹_620" data-name="그룹 620" transform="translate(13.72 28.524)">
        <path id="패스_3311" data-name="패스 3311" class="cls-2" d="M41.782,74.744a3.3,3.3,0,0,0,1.282-.932,4.481,4.481,0,0,0-.583,1.4,1.651,1.651,0,0,0,1.864,1.631,1.594,1.594,0,0,0,1.4-1.981,3.3,3.3,0,0,0-.932-1.282,3.589,3.589,0,0,0,1.4.583A1.651,1.651,0,0,0,47.841,72.3a1.594,1.594,0,0,0-1.981-1.4,3.3,3.3,0,0,0-1.282.932,4.481,4.481,0,0,0,.583-1.4A1.651,1.651,0,0,0,43.3,68.8a1.594,1.594,0,0,0-1.4,1.981,3.3,3.3,0,0,0,.932,1.282,4.481,4.481,0,0,0-1.4-.583A1.651,1.651,0,0,0,39.8,73.346a1.548,1.548,0,0,0,1.981,1.4" transform="translate(-39.789 -68.789)"/>
        <path id="패스_3312" data-name="패스 3312" class="cls-3" d="M43.4,72.15h0v-.117a10064.928,10064.928,0,0,1,.233-.233h.117v.117h0c-.233.233-.35.233-.35.233" transform="translate(-39.193 -68.292)"/>
        <path id="패스_3313" data-name="패스 3313" class="cls-3" d="M43.15,72.5h0v.117a.114.114,0,0,1-.117.117l-.117.117H42.8v-.117h.117c.117-.233.117-.233.233-.233" transform="translate(-39.292 -68.176)"/>
        <path id="패스_3314" data-name="패스 3314" class="cls-3" d="M43.4,72.4h.117a.114.114,0,0,1,.117.117l.117.117v.117h-.117v-.117L43.4,72.4" transform="translate(-39.193 -68.193)"/>
        <path id="패스_3315" data-name="패스 3315" class="cls-3" d="M43.15,72.15h-.117a5797254329396.283,5797254329396.283,0,0,1-.233-.233V71.8h.117v.117c.117.117.117.233.233.233" transform="translate(-39.292 -68.292)"/>
      </g>
    </g>
    <g id="그룹_634" data-name="그룹 634" transform="translate(0.014 68.633)">
      <g id="그룹_623" data-name="그룹 623" transform="translate(0.539 6.283)">
        <g id="그룹_622" data-name="그룹 622" transform="translate(4.523)">
          <path id="패스_3316" data-name="패스 3316" class="cls-1" d="M9.45,144.172h0c-.233-.117-.35-.233-.35-.466.117-.35,10.02-31.691.117-69.44A.605.605,0,0,1,9.45,73.8a.605.605,0,0,1,.466.233,138.871,138.871,0,0,1-.117,69.79Q9.624,144.172,9.45,144.172Z" transform="translate(-3.576 -62.731)"/>
          <path id="패스_3317" data-name="패스 3317" class="cls-1" d="M11.64,84.965a.407.407,0,0,1-.233-.117c-.117-.117,0-.35.117-.466l8.389-5.476c.117-.117.35,0,.466.117s0,.35-.117.466l-8.389,5.359C11.756,84.965,11.756,84.965,11.64,84.965Z" transform="translate(-3.203 -61.896)"/>
          <path id="패스_3318" data-name="패스 3318" class="cls-1" d="M10.465,75.365c-.117,0-.117,0-.233-.117L4.523,71.288c-.117-.117-.233-.35-.117-.466s.35-.233.466-.117l5.476,3.845L18.5,69.307c.117-.117.35,0,.466.117s0,.35-.117.466l-8.389,5.476Z" transform="translate(-4.359 -63.481)"/>
          <path id="패스_3319" data-name="패스 3319" class="cls-1" d="M13.614,91.784h-.233L6.623,87.589c-.117-.117-.233-.35-.117-.466a.512.512,0,0,1,.583-.117L13.847,91.2c.117.117.233.35.117.466A.428.428,0,0,1,13.614,91.784Z" transform="translate(-4.012 -60.559)"/>
          <path id="패스_3320" data-name="패스 3320" class="cls-1" d="M13.14,112.283c-.117,0-.233,0-.233-.117-.117-.117,0-.35.117-.466l7.806-4.893c.117-.117.35,0,.466.117s0,.35-.117.466l-7.806,4.893Z" transform="translate(-2.955 -57.29)"/>
          <path id="패스_3321" data-name="패스 3321" class="cls-1" d="M14.215,105.667h-.233l-6.059-4.078c-.117-.117-.233-.35-.117-.466s.35-.233.466-.117l6.059,4.078c.117.117.233.35.117.466C14.448,105.667,14.331,105.667,14.215,105.667Z" transform="translate(-3.797 -58.247)"/>
          <path id="패스_3322" data-name="패스 3322" class="cls-1" d="M9.848,76.184a.372.372,0,0,1-.35-.35L8.1,64.65a.309.309,0,0,1,.35-.35.309.309,0,0,1,.35.35l1.4,11.185a.372.372,0,0,1-.35.35Z" transform="translate(-3.741 -64.3)"/>
          <path id="패스_3323" data-name="패스 3323" class="cls-1" d="M11.914,80.987h0l-6.874-1.4c-.233,0-.35-.233-.233-.35,0-.233.233-.35.35-.233l6.758,1.4c.233,0,.35.233.233.35A.251.251,0,0,1,11.914,80.987Z" transform="translate(-4.292 -61.879)"/>
          <path id="패스_3324" data-name="패스 3324" class="cls-1" d="M12.64,91.717h-.117c-.117-.117-.233-.35-.117-.466l2.563-4.427c.117-.117.35-.233.466-.117s.233.35.117.466L12.989,91.6C12.873,91.6,12.756,91.717,12.64,91.717Z" transform="translate(-3.038 -60.608)"/>
        </g>
        <path id="패스_3325" data-name="패스 3325" class="cls-1" d="M11.5,124.491c21.321-6.408,16.195-6.991,16.195-6.991-6.758-.117-13.4,4.66-16.078,6.525Z" transform="translate(1.344 -55.517)"/>
        <path id="패스_3326" data-name="패스 3326" class="cls-1" d="M13.3,99.042c12.35-6.175,9.088-5.942,9.088-5.942-4.078.7-7.69,4.194-9.088,5.593Z" transform="translate(1.641 -59.545)"/>
        <path id="패스_3327" data-name="패스 3327" class="cls-1" d="M13.931,118.474C.415,107.755,4.377,108.8,4.377,108.8c4.893,1.864,8.272,7.107,9.67,9.2Z" transform="translate(0.078 -56.957)"/>
        <path id="패스_3328" data-name="패스 3328" class="cls-1" d="M12.155,130.346C-.661,114.151.5,118.578.5,118.578c2.68,7.107,9.2,11.185,11.651,12.467Z" transform="translate(-0.476 -55.43)"/>
      </g>
      <g id="그룹_624" data-name="그룹 624" transform="translate(5.003)">
        <path id="패스_3329" data-name="패스 3329" class="cls-2" d="M8.377,67.521a5.736,5.736,0,0,0,.7-1.981,4.023,4.023,0,0,0,.583,2.1,2.281,2.281,0,1,0,3.379-3.029,4.99,4.99,0,0,0-1.981-.7,4.024,4.024,0,0,0,2.1-.583,2.281,2.281,0,1,0-3.029-3.379,5.736,5.736,0,0,0-.7,1.981,4.023,4.023,0,0,0-.583-2.1A2.281,2.281,0,1,0,5.464,62.86a2.318,2.318,0,0,0,1.864.816,4.36,4.36,0,0,0-2.1.583,2.312,2.312,0,0,0-.35,3.379,2.539,2.539,0,0,0,3.5-.117" transform="translate(-4.308 -58.908)"/>
        <path id="패스_3330" data-name="패스 3330" class="cls-3" d="M8.4,62.866h0V62.4h.117v.35c0-.117,0,0-.117.117" transform="translate(-3.632 -58.331)"/>
        <path id="패스_3331" data-name="패스 3331" class="cls-3" d="M8.417,63.4h0v.466H8.3v-.35c0,.117.117,0,.117-.117" transform="translate(-3.648 -58.166)"/>
        <path id="패스_3332" data-name="패스 3332" class="cls-3" d="M8.8,63.117h.117C9.033,63,9.033,63,9.15,63h.117v.117h-.35c0,.117-.117,0-.117,0" transform="translate(-3.566 -58.232)"/>
        <path id="패스_3333" data-name="패스 3333" class="cls-3" d="M8.166,63.117H7.7V63h.35a.114.114,0,0,0,.117.117" transform="translate(-3.747 -58.232)"/>
      </g>
      <g id="그룹_625" data-name="그룹 625" transform="translate(8.428 16.94)">
        <path id="패스_3334" data-name="패스 3334" class="cls-2" d="M9.872,79.1a2.855,2.855,0,0,0,.466-1.4,2.768,2.768,0,0,0,.35,1.4,1.447,1.447,0,0,0,2.214.233,1.515,1.515,0,0,0,0-2.214,2.855,2.855,0,0,0-1.4-.466,2.767,2.767,0,0,0,1.4-.35,1.447,1.447,0,0,0,.233-2.214,1.515,1.515,0,0,0-2.214,0,2.5,2.5,0,0,0-.466,1.4,2.768,2.768,0,0,0-.35-1.4,1.447,1.447,0,0,0-2.214-.233,1.515,1.515,0,0,0,0,2.214,4.933,4.933,0,0,0,1.4.466,2.768,2.768,0,0,0-1.4.35A1.447,1.447,0,0,0,7.658,79.1a1.515,1.515,0,0,0,2.214,0" transform="translate(-7.247 -73.447)"/>
        <path id="패스_3335" data-name="패스 3335" class="cls-3" d="M10,75.95h0V75.6h.117v.117h0v.117c-.117,0-.117,0-.117.117" transform="translate(-6.792 -73.091)"/>
        <path id="패스_3336" data-name="패스 3336" class="cls-3" d="M10.017,76.3h0v.35H9.9v-.117h0v-.117a.114.114,0,0,0,.117-.117" transform="translate(-6.809 -72.976)"/>
        <path id="패스_3337" data-name="패스 3337" class="cls-3" d="M10.2,76.117h0c.117,0,.233,0,.233-.117h.117v.117h-.233c0,.117,0,0-.117,0" transform="translate(-6.759 -73.025)"/>
        <path id="패스_3338" data-name="패스 3338" class="cls-3" d="M9.85,76.117H9.5V76h.233c0,.117,0,.117.117.117" transform="translate(-6.875 -73.025)"/>
      </g>
      <g id="그룹_626" data-name="그룹 626" transform="translate(16.053 18.507)">
        <path id="패스_3339" data-name="패스 3339" class="cls-2" d="M20.559,82.025a4.111,4.111,0,0,0-.932-1.515,3.317,3.317,0,0,0,1.631.7,1.836,1.836,0,0,0,1.981-1.981,1.808,1.808,0,0,0-2.214-1.748,4.111,4.111,0,0,0-1.515.932,3.317,3.317,0,0,0,.7-1.631A1.836,1.836,0,0,0,18.229,74.8a1.808,1.808,0,0,0-1.748,2.214,4.111,4.111,0,0,0,.932,1.515,3.317,3.317,0,0,0-1.631-.7A1.836,1.836,0,0,0,13.8,79.811a1.808,1.808,0,0,0,2.214,1.748,4.111,4.111,0,0,0,1.515-.932,3.317,3.317,0,0,0-.7,1.631,1.836,1.836,0,0,0,1.981,1.981,1.858,1.858,0,0,0,1.748-2.214" transform="translate(-13.792 -74.792)"/>
        <path id="패스_3340" data-name="패스 3340" class="cls-3" d="M17.75,78.75h-.117a.114.114,0,0,1-.117-.117l-.117-.117a.114.114,0,0,1,.117-.117h.117v.117c0,.117.117.117.117.233" transform="translate(-13.196 -74.196)"/>
        <path id="패스_3341" data-name="패스 3341" class="cls-3" d="M18.1,79.1h.117a.114.114,0,0,1,.117.117l.117.117a.114.114,0,0,1-.117.117h-.117v-.117A.407.407,0,0,0,18.1,79.1" transform="translate(-13.08 -74.08)"/>
        <path id="패스_3342" data-name="패스 3342" class="cls-3" d="M18.1,78.75h0v-.117a.114.114,0,0,1,.117-.117l.117-.117a.114.114,0,0,1,.117.117v.117h-.117c-.117,0-.233,0-.233.117" transform="translate(-13.08 -74.196)"/>
        <path id="패스_3343" data-name="패스 3343" class="cls-3" d="M17.75,79.1h0v.117a.114.114,0,0,1-.117.117l-.117.117a.114.114,0,0,1-.117-.117v-.117h.117a.361.361,0,0,1,.233-.117" transform="translate(-13.196 -74.08)"/>
      </g>
      <g id="그룹_627" data-name="그룹 627" transform="translate(3.77 28.826)">
        <path id="패스_3344" data-name="패스 3344" class="cls-2" d="M9.017,88.835a2.272,2.272,0,0,0-1.049-1.049,3.2,3.2,0,0,0,1.4.233,1.484,1.484,0,0,0,1.165-1.864,1.552,1.552,0,0,0-2.1-.932,2.272,2.272,0,0,0-1.049,1.049,2.956,2.956,0,0,0,.233-1.4,1.467,1.467,0,1,0-2.8.816,2.272,2.272,0,0,0,1.049,1.049,3.2,3.2,0,0,0-1.4-.233,1.467,1.467,0,1,0,.816,2.8,1.922,1.922,0,0,0,1.165-.932,3.2,3.2,0,0,0-.233,1.4,1.484,1.484,0,0,0,1.864,1.165,1.511,1.511,0,0,0,.932-2.1" transform="translate(-3.249 -83.649)"/>
        <path id="패스_3345" data-name="패스 3345" class="cls-3" d="M6.35,86.733H6.117A.114.114,0,0,1,6,86.617V86.5h.117c.117.117.233.117.233.233" transform="translate(-2.795 -83.178)"/>
        <path id="패스_3346" data-name="패스 3346" class="cls-3" d="M6.7,86.9h.233l.117.117v.117H6.933L6.7,86.9" transform="translate(-2.679 -83.112)"/>
        <path id="패스_3347" data-name="패스 3347" class="cls-3" d="M6.6,86.65h0v-.233a.114.114,0,0,1,.117-.117h.117v.117h0c-.117.117-.233.117-.233.233" transform="translate(-2.696 -83.211)"/>
        <path id="패스_3348" data-name="패스 3348" class="cls-3" d="M6.433,87h0v.233a.114.114,0,0,1-.117.117H6.2v-.117h0v-.117C6.317,87,6.317,87,6.433,87" transform="translate(-2.762 -83.096)"/>
      </g>
      <g id="그룹_628" data-name="그룹 628" transform="translate(3.363 43.683)">
        <path id="패스_3349" data-name="패스 3349" class="cls-2" d="M9.075,102.808a3.3,3.3,0,0,0-.932-1.282,4.071,4.071,0,0,0,1.515.583,1.815,1.815,0,0,0,1.748-1.864A1.669,1.669,0,0,0,9.425,98.73a2.443,2.443,0,0,0-1.282.932,4.071,4.071,0,0,0,.583-1.515A1.815,1.815,0,0,0,6.861,96.4a1.721,1.721,0,0,0-1.515,2.1,2.642,2.642,0,0,0,.816,1.282A4.071,4.071,0,0,0,4.648,99.2,1.815,1.815,0,0,0,2.9,101.06a1.669,1.669,0,0,0,1.981,1.515,3.3,3.3,0,0,0,1.282-.932,4.071,4.071,0,0,0-.583,1.515,1.815,1.815,0,0,0,1.864,1.748c1.165-.233,1.864-1.049,1.631-2.1" transform="translate(-2.9 -96.4)"/>
        <path id="패스_3350" data-name="패스 3350" class="cls-3" d="M6.45,99.85H6.333a.114.114,0,0,1-.117-.117L6.1,99.617V99.5h.117v.117c.233.117.233.233.233.233" transform="translate(-2.372 -95.888)"/>
        <path id="패스_3351" data-name="패스 3351" class="cls-3" d="M6.8,100.2h.117a.114.114,0,0,1,.117.117l.117.117v.117H7.033v-.117c-.233-.116-.233-.233-.233-.233" transform="translate(-2.256 -95.773)"/>
        <path id="패스_3352" data-name="패스 3352" class="cls-3" d="M6.8,99.85h0v-.117a.114.114,0,0,1,.117-.117l.117-.117H7.15v.117H7.033c-.117.233-.233.233-.233.233" transform="translate(-2.256 -95.888)"/>
        <path id="패스_3353" data-name="패스 3353" class="cls-3" d="M6.45,100.2h0v.117a.114.114,0,0,1-.117.117.114.114,0,0,0-.117.117H6.1v-.117h.117l.233-.233" transform="translate(-2.372 -95.773)"/>
      </g>
      <g id="그룹_629" data-name="그룹 629" transform="translate(19.778 51.942)">
        <path id="패스_3354" data-name="패스 3354" class="cls-2" d="M22.128,109.327a3.146,3.146,0,0,0-.583-1.282,3.55,3.55,0,0,0,1.165.816,1.454,1.454,0,0,0,1.748-1.4,1.5,1.5,0,0,0-1.515-1.631,3.146,3.146,0,0,0-1.282.583,2.09,2.09,0,0,0,.7-1.165,1.454,1.454,0,0,0-1.4-1.748,1.5,1.5,0,0,0-1.631,1.515,3.146,3.146,0,0,0,.583,1.282,3.55,3.55,0,0,0-1.165-.816,1.454,1.454,0,0,0-1.748,1.4,1.5,1.5,0,0,0,1.515,1.631,3.146,3.146,0,0,0,1.282-.583,2.09,2.09,0,0,0-.7,1.165,1.454,1.454,0,0,0,1.4,1.748,1.433,1.433,0,0,0,1.631-1.515" transform="translate(-16.989 -103.489)"/>
        <path id="패스_3355" data-name="패스 3355" class="cls-3" d="M20.133,106.54h0c-.117,0-.117-.117,0,0a.361.361,0,0,0-.233-.117v-.117h.117v.117a.114.114,0,0,1,.117.117" transform="translate(-16.508 -103.032)"/>
        <path id="패스_3356" data-name="패스 3356" class="cls-3" d="M20.4,106.8h0a.361.361,0,0,0,.233.117v.117s0,.117-.117,0H20.4V106.8" transform="translate(-16.426 -102.942)"/>
        <path id="패스_3357" data-name="패스 3357" class="cls-3" d="M20.4,106.533h0a.361.361,0,0,0,.117-.233h.233v.117h-.117a.361.361,0,0,1-.233.117" transform="translate(-16.426 -103.025)"/>
        <path id="패스_3358" data-name="패스 3358" class="cls-3" d="M20.04,106.8h0a.361.361,0,0,0-.117.233h-.117s-.117,0,0-.117V106.8h.233" transform="translate(-16.532 -102.942)"/>
      </g>
      <g id="그룹_630" data-name="그룹 630" transform="translate(15.984 7.718)">
        <path id="패스_3359" data-name="패스 3359" class="cls-2" d="M16.957,72.951a3.6,3.6,0,0,0,.816-1.631,4.829,4.829,0,0,0,.233,1.864,2,2,0,0,0,2.8.7,1.933,1.933,0,0,0,.35-2.913,3.6,3.6,0,0,0-1.631-.816,4.829,4.829,0,0,0,1.864-.233,2,2,0,0,0,.7-2.8,1.933,1.933,0,0,0-2.913-.35,3.6,3.6,0,0,0-.816,1.631,4.829,4.829,0,0,0-.233-1.864,2,2,0,0,0-2.8-.7,1.933,1.933,0,0,0-.35,2.913,3.6,3.6,0,0,0,1.631.816,4.829,4.829,0,0,0-1.864.233,2,2,0,0,0-.7,2.8,2.05,2.05,0,0,0,2.913.35" transform="translate(-13.732 -65.532)"/>
        <path id="패스_3360" data-name="패스 3360" class="cls-3" d="M17.6,68.966h0v-.35a.114.114,0,0,1,.117-.117h.117v.35c-.233,0-.233.117-.233.117" transform="translate(-13.094 -65.042)"/>
        <path id="패스_3361" data-name="패스 3361" class="cls-3" d="M17.533,69.5h0v.35a.114.114,0,0,1-.117.117H17.3v-.35c.117,0,.117-.117.233-.117" transform="translate(-13.143 -64.877)"/>
        <path id="패스_3362" data-name="패스 3362" class="cls-3" d="M17.8,69.2h.466v.117h-.35A.114.114,0,0,1,17.8,69.2" transform="translate(-13.061 -64.927)"/>
        <path id="패스_3363" data-name="패스 3363" class="cls-3" d="M17.266,69.117H16.8V69h.35a.114.114,0,0,0,.117.117" transform="translate(-13.226 -64.96)"/>
      </g>
      <g id="그룹_631" data-name="그룹 631" transform="translate(0 9.211)">
        <path id="패스_3364" data-name="패스 3364" class="cls-2" d="M2.794,74.138c.466-.117.932-.816,1.282-1.282a3.456,3.456,0,0,0-.233,1.864,1.974,1.974,0,0,0,2.563,1.4,1.859,1.859,0,0,0,1.049-2.68,3.765,3.765,0,0,0-1.4-1.282,3.456,3.456,0,0,0,1.864.233,1.974,1.974,0,0,0,1.4-2.563,1.859,1.859,0,0,0-2.68-1.049,3.765,3.765,0,0,0-1.282,1.4,3.456,3.456,0,0,0,.233-1.864,1.974,1.974,0,0,0-2.563-1.4,1.859,1.859,0,0,0-1.049,2.68,3.765,3.765,0,0,0,1.4,1.282,3.456,3.456,0,0,0-1.864-.233,1.974,1.974,0,0,0-1.4,2.563,1.893,1.893,0,0,0,2.68.932" transform="translate(-0.014 -66.814)"/>
        <path id="패스_3365" data-name="패스 3365" class="cls-3" d="M4.1,70.65h0v-.233a.114.114,0,0,1,.117-.117h.117v.117h0v.117c-.117,0-.117,0-.233.117" transform="translate(0.661 -66.238)"/>
        <path id="패스_3366" data-name="패스 3366" class="cls-3" d="M3.933,71.1h0v.35a.114.114,0,0,1-.117.117H3.7V71.45h0v-.117l.233-.233" transform="translate(0.595 -66.106)"/>
        <path id="패스_3367" data-name="패스 3367" class="cls-3" d="M4.3,70.9h.35a.114.114,0,0,1,.117.117v.117H4.533c-.117-.117-.233-.117-.233-.233" transform="translate(0.694 -66.139)"/>
        <path id="패스_3368" data-name="패스 3368" class="cls-3" d="M3.85,70.733H3.617a.114.114,0,0,1-.117-.117V70.5h.233c0,.117,0,.117.117.233" transform="translate(0.562 -66.205)"/>
      </g>
      <g id="그룹_632" data-name="그룹 632" transform="translate(1.553 20.435)">
        <path id="패스_3369" data-name="패스 3369" class="cls-2" d="M3.972,82.1a2.855,2.855,0,0,0,.466-1.4,2.768,2.768,0,0,0,.35,1.4A1.447,1.447,0,0,0,7,82.334a1.515,1.515,0,0,0,0-2.214,2.855,2.855,0,0,0-1.4-.466,2.768,2.768,0,0,0,1.4-.35,1.447,1.447,0,0,0,.233-2.214,1.515,1.515,0,0,0-2.214,0,2.855,2.855,0,0,0-.466,1.4,2.768,2.768,0,0,0-.35-1.4,1.447,1.447,0,0,0-2.214-.233,1.515,1.515,0,0,0,0,2.214,2.5,2.5,0,0,0,1.4.466,2.768,2.768,0,0,0-1.4.35A1.447,1.447,0,0,0,1.758,82.1a1.426,1.426,0,0,0,2.214,0" transform="translate(-1.347 -76.447)"/>
        <path id="패스_3370" data-name="패스 3370" class="cls-3" d="M4,78.95H4V78.6h.117v.117h0v.117A.114.114,0,0,1,4,78.95" transform="translate(-0.909 -76.091)"/>
        <path id="패스_3371" data-name="패스 3371" class="cls-3" d="M4.017,79.4h0v.35H3.9v-.117h0v-.117a.114.114,0,0,0,.117-.117" transform="translate(-0.925 -75.959)"/>
        <path id="패스_3372" data-name="패스 3372" class="cls-3" d="M4.3,79.212h.35v.117H4.417L4.3,79.212" transform="translate(-0.859 -76.005)"/>
        <path id="패스_3373" data-name="패스 3373" class="cls-3" d="M3.85,79.1h0c0,.117-.117.117,0,0-.117,0-.233,0-.233.117H3.5V79.1h.35" transform="translate(-0.991 -76.009)"/>
      </g>
      <g id="그룹_633" data-name="그룹 633" transform="translate(13.603 28.524)">
        <path id="패스_3374" data-name="패스 3374" class="cls-2" d="M13.682,89.344a3.3,3.3,0,0,0,1.282-.932,4.481,4.481,0,0,0-.583,1.4,1.651,1.651,0,0,0,1.864,1.631,1.594,1.594,0,0,0,1.4-1.981,3.3,3.3,0,0,0-.932-1.282,4.481,4.481,0,0,0,1.4.583A1.651,1.651,0,0,0,19.741,86.9a1.594,1.594,0,0,0-1.981-1.4,3.3,3.3,0,0,0-1.282.932,4.481,4.481,0,0,0,.583-1.4A1.651,1.651,0,0,0,15.2,83.4a1.594,1.594,0,0,0-1.4,1.981,3.3,3.3,0,0,0,.932,1.282,4.481,4.481,0,0,0-1.4-.583A1.651,1.651,0,0,0,11.7,87.946a1.594,1.594,0,0,0,1.981,1.4" transform="translate(-11.689 -83.389)"/>
        <path id="패스_3375" data-name="패스 3375" class="cls-3" d="M15.4,86.75h0v-.117a13419.987,13419.987,0,0,0,.233-.233h.117v.117h0a1.442,1.442,0,0,0-.35.233" transform="translate(-11.076 -82.892)"/>
        <path id="패스_3376" data-name="패스 3376" class="cls-3" d="M15.15,87.1h0v.117a.114.114,0,0,1-.117.117l-.117.117H14.8v-.117h.117c.117-.233.117-.233.233-.233" transform="translate(-11.176 -82.776)"/>
        <path id="패스_3377" data-name="패스 3377" class="cls-3" d="M15.4,87h.117a40259.466,40259.466,0,0,0,.233.233v.117h-.117c-.117-.233-.233-.233-.233-.35" transform="translate(-11.076 -82.793)"/>
        <path id="패스_3378" data-name="패스 3378" class="cls-3" d="M15.05,86.75h-.117a6709.4,6709.4,0,0,1-.233-.233V86.4h.117v.117c.233.117.233.233.233.233" transform="translate(-11.192 -82.892)"/>
      </g>
    </g>
    <g id="그룹_635" data-name="그룹 635" transform="translate(154.84 14.564)">
      <path id="패스_3379" data-name="패스 3379" class="cls-1" d="M136.512,12.5s9.67,0,14.331,33.205c0,0,.35,4.311,4.194,3.612a2.335,2.335,0,0,1,2.563,1.864c.583,2.563-2.563,3.146-4.427,3.146a7.165,7.165,0,0,1-1.631-.117c-5.942-1.049-6.292-7.34-7.224-12.117-1.282-5.709-1.748-11.535-4.427-16.778-1.631-3.146-4.311-5.243-6.991-7.806Z" transform="translate(-132.9 -12.5)"/>
    </g>
    <g id="그룹_636" data-name="그룹 636" transform="translate(169.054 122.681)">
      <path id="패스_3380" data-name="패스 3380" class="cls-4" d="M151.741,118.932h0a1.168,1.168,0,0,1-1.165-1.165v-7.806c0-.816,0-1.864-.466-2.214a2.786,2.786,0,0,0-1.981-.233l-1.864.117a1.108,1.108,0,0,1-.117-2.214l1.864-.117c.932,0,2.563-.117,3.612.816,1.165,1.049,1.165,2.68,1.165,3.845v7.806A1.076,1.076,0,0,1,151.741,118.932Z" transform="translate(-145.1 -105.296)"/>
    </g>
    <g id="그룹_637" data-name="그룹 637" transform="translate(169.054 119.54)">
      <path id="패스_3381" data-name="패스 3381" class="cls-4" d="M154.537,121.242a1.168,1.168,0,0,1-1.165-1.165V108.892a5.172,5.172,0,0,0-.233-1.515,4.091,4.091,0,0,0-3.612-2.447h-3.262a1.165,1.165,0,1,1,0-2.33h3.262a6.262,6.262,0,0,1,5.709,3.845,11.747,11.747,0,0,1,.466,2.33V119.96A1.136,1.136,0,0,1,154.537,121.242Z" transform="translate(-145.1 -102.6)"/>
    </g>
    <g id="그룹_638" data-name="그룹 638" transform="translate(169.987 116.627)">
      <path id="패스_3382" data-name="패스 3382" class="cls-4" d="M157.435,123.519a1.168,1.168,0,0,1-1.165-1.165V108.838a6.818,6.818,0,0,0-6.525-6.408h-2.68a1.165,1.165,0,1,1,0-2.33h2.913a9.258,9.258,0,0,1,8.622,8.505v13.748A1.248,1.248,0,0,1,157.435,123.519Z" transform="translate(-145.9 -100.1)"/>
    </g>
    <path id="패스_3383" data-name="패스 3383" class="cls-5" d="M113.578,102.879s-1.4,15.5,10.136,27.263l2.214,19.457h4.544l2.913-18.176,7.69-.233,4.311,20.156h4.194l2.8-23.186s8.855-3.5,6.059-20.739l-5.476-52.08s-3.728-32.157-11.651-35.419c0,0,9.437-8.971,2.33-19.923A20.954,20.954,0,0,0,134.2,13.049s-.816.35-7.107,0H125S123.248,5.942,114.51,2.563a17.218,17.218,0,0,0,3.5,15.729c-.233-.35-8.156,6.408-8.389,6.641-7.34,6.292-10.835,11.185-15.845,18.642a6.647,6.647,0,0,0-.932,5.826c.466,1.981,2.913,4.66,4.427,6.059a10.03,10.03,0,0,0,7.224,2.913c5.126,0,10.952-.583,15.612-2.913-.233.117,0,.117-.583,3.961Z" transform="translate(15.28 0)"/>
    <path id="패스_3384" data-name="패스 3384" class="cls-6" d="M100.013,60.533l3.379,2.447-2.33,5.709L97.1,63.912A9.913,9.913,0,0,1,99.9,60.3" transform="translate(16.029 9.956)"/>
    <path id="패스_3385" data-name="패스 3385" class="cls-6" d="M139.017,92.5l5.243,1.165-.932,4.427-4.427-.233Z" transform="translate(22.931 15.272)"/>
    <path id="패스_3386" data-name="패스 3386" class="cls-6" d="M134.5,136.324h9.2l-.932-6.991-4.427-.233Z" transform="translate(22.204 21.315)"/>
    <g id="그룹_641" data-name="그룹 641" transform="translate(161.831 111.501)">
      <g id="그룹_640" data-name="그룹 640" class="cls-7">
        <g id="그룹_639" data-name="그룹 639" class="cls-8" transform="translate(-0.233 -0.233)">
          <rect id="사각형_259" data-name="사각형 259" class="cls-9" width="0.473" height="2.131" transform="translate(0.055 0.001)"/>
        </g>
      </g>
    </g>
    <g id="그룹_644" data-name="그룹 644" transform="translate(166.375 108.937)">
      <path id="패스_3388" data-name="패스 3388" class="cls-10" d="M142.8,97.228l.816-3.728H143.5Z" transform="translate(-142.8 -93.5)"/>
      <g id="그룹_643" data-name="그룹 643" class="cls-11">
        <rect id="사각형_261" data-name="사각형 261" class="cls-10" width="1.049" height="4.194" transform="translate(-0.117 -0.117)"/>
        <g id="그룹_642" data-name="그룹 642" class="cls-12" transform="translate(-0.117 -0.117)">
          <rect id="사각형_262" data-name="사각형 262" class="cls-9" width="1.065" height="4.143" transform="translate(0.012 -0.038)"/>
        </g>
      </g>
    </g>
    <path id="패스_3390" data-name="패스 3390" class="cls-6" d="M121.762,128.5l-3.262,5.826s5.826,0,8.855-.35l-1.049-5.476" transform="translate(19.563 21.216)"/>
    <g id="그룹_648" data-name="그룹 648" transform="translate(161.947 99.5)">
      <g id="그룹_647" data-name="그룹 647">
        <path id="패스_3391" data-name="패스 3391" class="cls-3" d="M139,93.556l.117-8.156a4.414,4.414,0,0,0,4.311,1.748,2.19,2.19,0,0,1,2.1.117l-1.4,7.806Z" transform="translate(-139 -85.4)"/>
      </g>
    </g>
    <g id="그룹_650" data-name="그룹 650" transform="translate(140.393 141.211)">
      <g id="그룹_649" data-name="그룹 649">
        <path id="패스_3392" data-name="패스 3392" class="cls-3" d="M120.5,121.2l.233.233c.117.117.35.233.466.35a1.859,1.859,0,0,0,1.748.233l.7-.35c.233-.117.35-.233.583-.35a1.478,1.478,0,0,1,.7-.117h.583a2.443,2.443,0,0,1,1.282.466l.35.35c0,.117.117.117.117.233l.117.233-1.165,7.34h-4.544L120.5,121.2" transform="translate(-120.5 -121.2)"/>
      </g>
    </g>
    <g id="그룹_652" data-name="그룹 652" transform="translate(158.685 141.146)">
      <g id="그룹_651" data-name="그룹 651">
        <path id="패스_3393" data-name="패스 3393" class="cls-3" d="M136.2,122.141a1.442,1.442,0,0,0,2.33,0s1.282-1.748,2.33,0c0,0,1.049,1.165,1.748-.583,0,0,.583-.932.932,0l-1.165,9.2-4.427-.117Z" transform="translate(-136.2 -121.144)"/>
      </g>
    </g>
    <path id="패스_3394" data-name="패스 3394" class="cls-3" d="M112.214,4.1s-.932,7.224,2.913,11.068C118.972,19.13,116.991,7.479,112.214,4.1Z" transform="translate(18.508 0.677)"/>
    <path id="패스_3395" data-name="패스 3395" class="cls-3" d="M136.976,2.4s2.8,7.224-1.515,13.166C131.733,20.809,131.966,7.293,136.976,2.4Z" transform="translate(21.942 0.396)"/>
    <g id="그룹_653" data-name="그룹 653" class="cls-13" transform="translate(122.945 37.895)">
      <path id="패스_3396" data-name="패스 3396" class="cls-3" d="M105.612,32.612Z" transform="translate(-105.525 -32.525)"/>
    </g>
    <path id="패스_3397" data-name="패스 3397" class="cls-1" d="M94.949,41.8v-.35a.641.641,0,0,1,.35-.583.89.89,0,0,1,.583-.233h0a.9.9,0,0,1,.816.932h0v.35c0,.233.117.466.35.466s.466-.117.466-.35v-.35h0v-.117A1.884,1.884,0,0,0,95.881,39.7h-.117a1.752,1.752,0,0,0-1.282.466,1.434,1.434,0,0,0-.583,1.165v.35c0,.233.117.466.35.466a.7.7,0,0,0,.7-.35" transform="translate(15.501 6.555)"/>
    <path id="패스_3398" data-name="패스 3398" class="cls-6" d="M109.563,23.583v.35a.641.641,0,0,1-.35.583.89.89,0,0,1-.583.233h0a.9.9,0,0,1-.816-.932h0v-.35c0-.233-.117-.466-.35-.466s-.466.117-.466.35v.35h0v.117a1.884,1.884,0,0,0,1.631,1.864h.117a1.752,1.752,0,0,0,1.282-.466,1.434,1.434,0,0,0,.583-1.165V23.7c0-.233-.117-.466-.35-.466-.466-.117-.7.117-.7.35" transform="translate(17.664 3.797)"/>
    <path id="패스_3399" data-name="패스 3399" class="cls-6" d="M119.363,28.783v.35a.641.641,0,0,1-.35.583.89.89,0,0,1-.583.233h0a.9.9,0,0,1-.816-.932h0v-.35c0-.233-.117-.466-.35-.466s-.466.117-.466.35v.35h0v.117a1.884,1.884,0,0,0,1.631,1.864h.117a1.752,1.752,0,0,0,1.282-.466,1.434,1.434,0,0,0,.583-1.165V28.9c0-.233-.117-.466-.35-.466-.466-.117-.7.117-.7.35" transform="translate(19.282 4.656)"/>
    <path id="패스_3400" data-name="패스 3400" class="cls-1" d="M99.11,43.109l.117-.233h0a.641.641,0,0,1,.583-.35,1.478,1.478,0,0,1,.7.117h0a.832.832,0,0,1,.35,1.165h0l-.117.233c-.117.233-.117.466.117.583s.466.117.583-.117l.117-.233h0a.114.114,0,0,1,.117-.117,1.7,1.7,0,0,0-.583-2.33h-.117a1.688,1.688,0,0,0-1.282-.117,1.482,1.482,0,0,0-1.049.816h0l-.233.233c-.117.233-.117.466.117.583.117.117.466,0,.583-.233Z" transform="translate(16.233 6.874)"/>
    <g id="그룹_654" data-name="그룹 654" transform="translate(138.762 17.71)">
      <path id="패스_3401" data-name="패스 3401" class="cls-1" d="M120.265,21.725a1.168,1.168,0,0,1-1.165-1.165v-.816c.117-2.68.932-4.544,4.544-4.544h3.5a1.165,1.165,0,1,1,0,2.33h-3.5c-1.631,0-1.981.117-2.1,2.214v.7A1.479,1.479,0,0,1,120.265,21.725Z" transform="translate(-119.1 -15.2)"/>
    </g>
    <g id="그룹_655" data-name="그룹 655" transform="translate(135.383 14.447)">
      <path id="패스_3402" data-name="패스 3402" class="cls-1" d="M117.365,20.905A1.168,1.168,0,0,1,116.2,19.74v-.816a6.467,6.467,0,0,1,6.641-6.525h6.408a1.165,1.165,0,0,1,0,2.33h-6.292a4.105,4.105,0,0,0-4.311,4.194v.583A1.257,1.257,0,0,1,117.365,20.905Z" transform="translate(-116.2 -12.4)"/>
    </g>
    <g id="그룹_656" data-name="그룹 656" transform="translate(132.237 11.418)">
      <path id="패스_3403" data-name="패스 3403" class="cls-1" d="M114.665,20.053a1.168,1.168,0,0,1-1.165-1.165v-.35A8.726,8.726,0,0,1,122.238,9.8h9.437a1.165,1.165,0,1,1,0,2.33h-9.437a6.389,6.389,0,0,0-6.408,6.408v.35A1.1,1.1,0,0,1,114.665,20.053Z" transform="translate(-113.5 -9.8)"/>
    </g>
    <g id="그룹_657" data-name="그룹 657" transform="translate(131.305 44.112)">
      <path id="패스_3404" data-name="패스 3404" class="cls-3" d="M113.883,90.2c-.117,0-.233,0-.233-.117a2.467,2.467,0,0,1-.35-.816c0-.233.117-.35.35-.466.233,0,.35.117.466.35a.883.883,0,0,0,.233.466.354.354,0,0,1,0,.466C114,90.082,114,90.2,113.883,90.2Z" transform="translate(-112.601 -29.45)"/>
      <path id="패스_3405" data-name="패스 3405" class="cls-3" d="M113.4,86.4a.428.428,0,0,1-.35-.117,2.467,2.467,0,0,1-.35-.816c0-.233.117-.35.35-.466.233,0,.35.117.466.35a.883.883,0,0,0,.233.466.288.288,0,0,1-.117.466C113.632,86.4,113.516,86.4,113.4,86.4Z" transform="translate(-112.7 -30.078)"/>
      <path id="패스_3406" data-name="패스 3406" class="cls-3" d="M116.483,97.9c-.117,0-.233,0-.233-.117a2.467,2.467,0,0,1-.35-.816c0-.233.117-.35.35-.466.233,0,.35.117.466.35a.883.883,0,0,0,.233.466.288.288,0,0,1-.117.466A.428.428,0,0,1,116.483,97.9Z" transform="translate(-112.172 -28.179)"/>
      <path id="패스_3407" data-name="패스 3407" class="cls-3" d="M118.083,100.7c-.117,0-.233,0-.233-.117a2.467,2.467,0,0,1-.35-.816c0-.233.117-.35.35-.466.233,0,.35.117.466.35a.883.883,0,0,0,.233.466.354.354,0,0,1,0,.466C118.2,100.7,118.2,100.7,118.083,100.7Z" transform="translate(-111.907 -27.717)"/>
      <path id="패스_3408" data-name="패스 3408" class="cls-3" d="M116.6,102.8a.428.428,0,0,1-.35-.117,2.467,2.467,0,0,1-.35-.816c0-.233.117-.35.35-.466.233,0,.35.117.466.35a.883.883,0,0,0,.233.466.288.288,0,0,1-.117.466C116.832,102.8,116.716,102.8,116.6,102.8Z" transform="translate(-112.172 -27.37)"/>
      <path id="패스_3409" data-name="패스 3409" class="cls-3" d="M115.383,100.2c-.117,0-.233,0-.233-.117a2.467,2.467,0,0,1-.35-.816c0-.233.117-.35.35-.466.233,0,.35.117.466.35a.883.883,0,0,0,.233.466.354.354,0,0,1,0,.466C115.5,100.2,115.5,100.2,115.383,100.2Z" transform="translate(-112.353 -27.799)"/>
      <path id="패스_3410" data-name="패스 3410" class="cls-3" d="M118,96.5a.428.428,0,0,1-.35-.117,2.467,2.467,0,0,1-.35-.816c0-.233.117-.35.35-.466.233,0,.35.117.466.35a.883.883,0,0,0,.233.466.288.288,0,0,1-.117.466A.361.361,0,0,1,118,96.5Z" transform="translate(-111.941 -28.41)"/>
      <path id="패스_3411" data-name="패스 3411" class="cls-3" d="M113.5,96.182a.428.428,0,0,1-.35-.117,2.467,2.467,0,0,1-.35-.816.35.35,0,1,1,.7,0,.883.883,0,0,0,.233.466.288.288,0,0,1-.117.466Z" transform="translate(-112.683 -28.443)"/>
      <path id="패스_3412" data-name="패스 3412" class="cls-3" d="M113.7,93a.428.428,0,0,1-.35-.117,2.467,2.467,0,0,1-.35-.816c0-.233.117-.35.35-.466.233,0,.35.117.466.35a.883.883,0,0,0,.233.466.288.288,0,0,1-.117.466A.361.361,0,0,1,113.7,93Z" transform="translate(-112.65 -28.988)"/>
      <path id="패스_3413" data-name="패스 3413" class="cls-3" d="M115.783,88.5c-.117,0-.233,0-.233-.117a2.467,2.467,0,0,1-.35-.816c0-.233.117-.35.35-.466.233,0,.35.117.466.35a.883.883,0,0,0,.233.466.354.354,0,0,1,0,.466C115.9,88.5,115.9,88.5,115.783,88.5Z" transform="translate(-112.287 -29.731)"/>
      <path id="패스_3414" data-name="패스 3414" class="cls-3" d="M115.783,94.682c-.117,0-.233,0-.233-.117a2.467,2.467,0,0,1-.35-.816.309.309,0,0,1,.35-.35c.233,0,.35.117.466.35a.883.883,0,0,0,.233.466.288.288,0,0,1-.117.466Z" transform="translate(-112.287 -28.691)"/>
      <path id="패스_3415" data-name="패스 3415" class="cls-3" d="M140.356,108.1c-.117,0-.117,0-.233-.117s-.233-.35-.117-.466a.883.883,0,0,0,.233-.466c0-.233.233-.35.466-.35s.35.233.35.466a2.467,2.467,0,0,1-.35.816A.428.428,0,0,1,140.356,108.1Z" transform="translate(-108.199 -26.495)"/>
      <path id="패스_3416" data-name="패스 3416" class="cls-3" d="M139.356,105.6c-.117,0-.117,0-.233-.117s-.233-.35-.117-.466a.883.883,0,0,0,.233-.466.35.35,0,1,1,.7,0,2.467,2.467,0,0,1-.35.816C139.589,105.6,139.473,105.6,139.356,105.6Z" transform="translate(-108.365 -26.908)"/>
      <path id="패스_3417" data-name="패스 3417" class="cls-3" d="M144.556,103.1c-.117,0-.117,0-.233-.117s-.233-.35-.117-.466a.883.883,0,0,0,.233-.466c0-.233.233-.35.466-.35s.35.233.35.466a2.466,2.466,0,0,1-.35.816C144.789,102.982,144.673,103.1,144.556,103.1Z" transform="translate(-107.506 -27.321)"/>
      <path id="패스_3418" data-name="패스 3418" class="cls-3" d="M142.756,106.4c-.117,0-.117,0-.233-.117s-.233-.35-.117-.466a.883.883,0,0,0,.233-.466c0-.233.233-.35.466-.35s.35.233.35.466a2.467,2.467,0,0,1-.35.816C142.989,106.282,142.873,106.4,142.756,106.4Z" transform="translate(-107.803 -26.776)"/>
      <path id="패스_3419" data-name="패스 3419" class="cls-3" d="M142.156,104.3c-.117,0-.117,0-.233-.117s-.233-.35-.117-.466a.883.883,0,0,0,.233-.466c0-.233.233-.35.466-.35s.35.233.35.466a2.467,2.467,0,0,1-.35.816A.428.428,0,0,1,142.156,104.3Z" transform="translate(-107.902 -27.122)"/>
      <path id="패스_3420" data-name="패스 3420" class="cls-3" d="M144.956,105.6c-.117,0-.117,0-.233-.117s-.233-.35-.117-.466a.883.883,0,0,0,.233-.466c0-.233.233-.35.466-.35s.35.233.35.466a2.467,2.467,0,0,1-.35.816A.428.428,0,0,1,144.956,105.6Z" transform="translate(-107.44 -26.908)"/>
      <path id="패스_3421" data-name="패스 3421" class="cls-3" d="M141.956,109.4c-.117,0-.117,0-.233-.117s-.233-.35-.117-.466a.883.883,0,0,0,.233-.466c0-.233.233-.35.466-.35s.35.233.35.466a2.467,2.467,0,0,1-.35.816A.428.428,0,0,1,141.956,109.4Z" transform="translate(-107.935 -26.28)"/>
      <path id="패스_3422" data-name="패스 3422" class="cls-3" d="M142.373,55.8h0c-.233,0-.35-.233-.35-.466a.7.7,0,0,0-.117-.466c-.117-.233,0-.35.233-.466s.35,0,.466.233a1.238,1.238,0,0,1,.117.932C142.722,55.688,142.489,55.8,142.373,55.8Z" transform="translate(-107.885 -35.137)"/>
      <path id="패스_3423" data-name="패스 3423" class="cls-3" d="M138.873,48.7h0c-.233,0-.35-.233-.35-.466a.7.7,0,0,0-.117-.466c-.117-.233,0-.35.233-.466s.35,0,.466.233a1.238,1.238,0,0,1,.117.932C139.222,48.588,139.106,48.7,138.873,48.7Z" transform="translate(-108.463 -36.309)"/>
      <path id="패스_3424" data-name="패스 3424" class="cls-3" d="M142.173,48.7h0c-.233,0-.35-.233-.35-.466a.7.7,0,0,0-.117-.466c-.117-.233,0-.35.233-.466s.35,0,.466.233a1.238,1.238,0,0,1,.117.932C142.522,48.588,142.406,48.7,142.173,48.7Z" transform="translate(-107.918 -36.309)"/>
      <path id="패스_3425" data-name="패스 3425" class="cls-3" d="M138.073,45.6h0c-.233,0-.35-.233-.35-.466a.7.7,0,0,0-.117-.466c-.117-.233,0-.35.233-.466s.35,0,.466.233a1.238,1.238,0,0,1,.117.932C138.422,45.488,138.189,45.6,138.073,45.6Z" transform="translate(-108.595 -36.821)"/>
      <path id="패스_3426" data-name="패스 3426" class="cls-3" d="M141.073,41.7h0c-.233,0-.35-.233-.35-.466a.7.7,0,0,0-.116-.466c-.117-.233,0-.35.233-.466s.35,0,.466.233a1.238,1.238,0,0,1,.116.932C141.422,41.588,141.306,41.7,141.073,41.7Z" transform="translate(-108.1 -37.465)"/>
      <path id="패스_3427" data-name="패스 3427" class="cls-3" d="M140.573,46.8h0c-.233,0-.35-.233-.35-.466a.7.7,0,0,0-.117-.466c-.117-.233,0-.35.233-.466s.35,0,.466.233a1.238,1.238,0,0,1,.117.932C140.922,46.688,140.689,46.8,140.573,46.8Z" transform="translate(-108.183 -36.622)"/>
      <path id="패스_3428" data-name="패스 3428" class="cls-3" d="M139.573,39.3h0c-.233,0-.35-.233-.35-.466a.7.7,0,0,0-.117-.466c-.117-.233,0-.35.233-.466s.35,0,.466.233a1.238,1.238,0,0,1,.117.932C139.922,39.188,139.689,39.3,139.573,39.3Z" transform="translate(-108.348 -37.861)"/>
      <path id="패스_3429" data-name="패스 3429" class="cls-3" d="M138.773,42.3h0c-.233,0-.35-.233-.35-.466a.7.7,0,0,0-.117-.466c-.117-.233,0-.35.233-.466s.35,0,.466.233a1.238,1.238,0,0,1,.117.932C139.006,42.188,138.889,42.3,138.773,42.3Z" transform="translate(-108.48 -37.365)"/>
      <path id="패스_3430" data-name="패스 3430" class="cls-3" d="M140.273,44h0c-.233,0-.35-.233-.35-.466a.7.7,0,0,0-.117-.466c-.117-.233,0-.35.233-.466s.35,0,.466.233a1.238,1.238,0,0,1,.117.932C140.622,43.888,140.506,44,140.273,44Z" transform="translate(-108.232 -37.085)"/>
      <path id="패스_3431" data-name="패스 3431" class="cls-3" d="M141.373,51.1h0c-.233,0-.35-.233-.35-.466a.7.7,0,0,0-.117-.466c-.117-.233,0-.35.233-.466s.35,0,.466.233a1.238,1.238,0,0,1,.117.932C141.606,50.988,141.489,51.1,141.373,51.1Z" transform="translate(-108.051 -35.913)"/>
      <path id="패스_3432" data-name="패스 3432" class="cls-3" d="M140.373,54.2h0c-.233,0-.35-.233-.35-.466a.7.7,0,0,0-.117-.466c-.117-.233,0-.35.233-.466s.35,0,.466.233a2.271,2.271,0,0,1,.117.932C140.722,54.088,140.606,54.2,140.373,54.2Z" transform="translate(-108.216 -35.401)"/>
      <path id="패스_3433" data-name="패스 3433" class="cls-3" d="M142.573,53.2h0c-.233,0-.35-.233-.35-.466a.7.7,0,0,0-.117-.466c-.117-.233,0-.35.233-.466s.35,0,.466.233a1.238,1.238,0,0,1,.117.932S142.689,53.2,142.573,53.2Z" transform="translate(-107.852 -35.566)"/>
      <path id="패스_3434" data-name="패스 3434" class="cls-3" d="M138.773,52h0c-.233,0-.35-.233-.35-.466a.7.7,0,0,0-.117-.466c-.117-.233,0-.35.233-.466s.35,0,.466.233a1.238,1.238,0,0,1,.117.932C139.122,51.888,139.006,52,138.773,52Z" transform="translate(-108.48 -35.764)"/>
    </g>
    <path id="패스_3435" data-name="패스 3435" class="cls-5" d="M102.83,62.963s10.02,6.991,16.078-2.563l3.146,10.02s-9.554,10.6-21.554-1.748Z" transform="translate(16.591 9.972)"/>
    <path id="패스_3436" data-name="패스 3436" class="cls-3" d="M107.258,73.2a21.3,21.3,0,0,1-6.758-4.893l2.33-5.709a15.627,15.627,0,0,0,6.175,2.33,3.091,3.091,0,0,0-.932,4.078s.7,1.981-.117,3.029Z" transform="translate(16.591 10.336)"/>
    <path id="패스_3437" data-name="패스 3437" class="cls-3" d="M104.9,35.85l.233-.233c.932-.932,4.078-3.845,3.262-6.874,0,0,3.612-.583,8.971-5.243,0,0-4.893,4.544-2.913,7.34A23.155,23.155,0,0,0,104.9,35.85Z" transform="translate(17.317 3.88)"/>
    <g id="그룹_658" data-name="그룹 658" transform="translate(108.77 62.858)">
      <path id="패스_3438" data-name="패스 3438" class="cls-4" d="M99.931,62.047a.251.251,0,0,1-.233-.233,3.161,3.161,0,0,0-.35-1.282c-.233-.816-1.515-3.728-5.826-5.359a.261.261,0,1,1,.233-.466A9.84,9.84,0,0,1,99.931,60.3c.233.816.35,1.4.35,1.4a.372.372,0,0,1-.35.35Z" transform="translate(-93.359 -53.834)"/>
      <path id="패스_3439" data-name="패스 3439" class="cls-4" d="M98.417,59.834c4.66-6.874,3.029-5.826,3.029-5.826-1.981,1.515-2.8,4.544-3.146,5.709Z" transform="translate(-92.543 -53.951)"/>
    </g>
    <g id="그룹_659" data-name="그룹 659" transform="translate(104.392 59.487)">
      <path id="패스_3440" data-name="패스 3440" class="cls-2" d="M92.746,58.331a3.6,3.6,0,0,0,.816-1.631,3.98,3.98,0,0,0,.233,1.748,1.875,1.875,0,0,0,2.8.583,1.811,1.811,0,0,0,.233-2.8,3.6,3.6,0,0,0-1.631-.816,3.979,3.979,0,0,0,1.748-.233,1.961,1.961,0,0,0,.583-2.8,1.811,1.811,0,0,0-2.8-.233,3.6,3.6,0,0,0-.816,1.631,3.98,3.98,0,0,0-.233-1.748,1.875,1.875,0,0,0-2.8-.583,1.811,1.811,0,0,0-.233,2.8,3.6,3.6,0,0,0,1.631.816,3.979,3.979,0,0,0-1.748.233,1.961,1.961,0,0,0-.583,2.8,1.893,1.893,0,0,0,2.8.233" transform="translate(-89.601 -51.057)"/>
      <path id="패스_3441" data-name="패스 3441" class="cls-3" d="M93.2,54.466h0v-.35A.114.114,0,0,1,93.316,54h.117v.35c-.117,0-.117,0-.233.117" transform="translate(-89.006 -50.571)"/>
      <path id="패스_3442" data-name="패스 3442" class="cls-3" d="M93.133,54.9h0v.35a.114.114,0,0,1-.117.117H92.9v-.35c.233,0,.233,0,.233-.117" transform="translate(-89.056 -50.423)"/>
      <path id="패스_3443" data-name="패스 3443" class="cls-3" d="M93.5,54.7h.466v.117h-.35L93.5,54.7" transform="translate(-88.957 -50.456)"/>
      <path id="패스_3444" data-name="패스 3444" class="cls-3" d="M92.966,54.617H92.5V54.5h.233a.407.407,0,0,1,.233.117" transform="translate(-89.122 -50.489)"/>
    </g>
  </g>
</svg>
