<svg xmlns="http://www.w3.org/2000/svg" viewBox="0 0 112 112">
  <defs>
    <style>
      .cls-1, .cls-2 {
        fill: #fff;
      }

      .cls-2, .cls-3, .cls-4 {
        stroke: #595757;
        stroke-miterlimit: 10;
        stroke-width: 3px;
      }

      .cls-3 {
        fill: #74c6be;
      }

      .cls-4 {
        fill: none;
      }
    </style>
  </defs>
  <g id="그룹_1397" data-name="그룹 1397" transform="translate(-104 -1427)">
    <ellipse id="타원_132" data-name="타원 132" class="cls-1" cx="56" cy="56" rx="56" ry="56" transform="translate(104 1427)"/>
    <g id="그룹_1299" data-name="그룹 1299" transform="translate(141 1453)">
      <path id="패스_4819" data-name="패스 4819" class="cls-2" d="M47.5,21.689a3.431,3.431,0,0,0,3.445,3.445h0a3.431,3.431,0,0,0,3.445-3.445V20.445A3.431,3.431,0,0,0,50.945,17h0A3.431,3.431,0,0,0,47.5,20.445Z" transform="translate(-25.742 -9.832)"/>
      <path id="패스_4820" data-name="패스 4820" class="cls-3" d="M28.5,54.4H17.4V43.159h0A4.268,4.268,0,0,1,21.659,38.9h.1a4.268,4.268,0,0,1,4.259,4.259h0v6.22h4.928v-6.22h0A4.268,4.268,0,0,1,35.2,38.9h.1a4.268,4.268,0,0,1,4.259,4.259h0V54.4H28.166" transform="translate(-10.045 -21.253)"/>
      <path id="패스_4821" data-name="패스 4821" class="cls-2" d="M26.09,21.689a3.431,3.431,0,0,1-3.445,3.445h0A3.431,3.431,0,0,1,19.2,21.689V20.445A3.431,3.431,0,0,1,22.645,17h0a3.431,3.431,0,0,1,3.445,3.445Z" transform="translate(-10.984 -9.832)"/>
      <path id="패스_4822" data-name="패스 4822" class="cls-4" d="M41.9,6.317c2.919-3.4,8.517-5.55,12.728-3.493,6.268,3.014,6.029,10.1,2.967,15.359a30.608,30.608,0,0,1-5.215,6.412" transform="translate(-22.822 -2.02)"/>
      <path id="패스_4823" data-name="패스 4823" class="cls-4" d="M19.814,6.317C16.848,2.919,11.3.766,7.087,2.824.818,5.838,1.058,12.92,4.12,18.183a30.608,30.608,0,0,0,5.215,6.412" transform="translate(-2.028 -2.02)"/>
    </g>
  </g>
</svg>
