<svg xmlns="http://www.w3.org/2000/svg" viewBox="0 0 280 280">
  <defs>
    <style>
      .cls-1 {
        fill: #fff;
      }

      .cls-2 {
        fill: #595757;
      }

      .cls-3 {
        fill: #6ecbb8;
      }
    </style>
  </defs>
  <g id="그룹_1327" data-name="그룹 1327" transform="translate(-21.444 -429)">
    <circle id="타원_139" data-name="타원 139" class="cls-1" cx="140" cy="140" r="140" transform="translate(21.444 429)"/>
    <g id="그룹_1326" data-name="그룹 1326" transform="translate(108.235 481.146)">
      <g id="그룹_998" data-name="그룹 998" transform="translate(0 42.338)">
        <path id="패스_4136" data-name="패스 4136" class="cls-2" d="M95.566,96.2a2.3,2.3,0,0,0-2.291,2.292V116.06H85.745c0-.436.109-.982.109-1.419V98.492a2.292,2.292,0,0,0-4.583,0v16.041c0,10.039-8.184,17.677-18.878,17.677h-7.2a2.292,2.292,0,0,0,0,4.583h7.2c7.966,0,14.731-3.383,18.878-8.73v13.313a2.292,2.292,0,0,0,4.583,0V120.534h7.529v20.842a2.292,2.292,0,0,0,4.583,0V98.492A2.33,2.33,0,0,0,95.566,96.2Z" transform="translate(4.824 -33.565)"/>
        <path id="패스_4137" data-name="패스 4137" class="cls-2" d="M52.7,126.689a2.292,2.292,0,1,0,4.583,0v-6.111c9.712-.436,15.822-6.329,16.041-15.713v-4.474a2.292,2.292,0,0,0-4.583,0v4.037c0,7.311-4.583,11.567-12.549,11.567h-1.2a2.3,2.3,0,0,0-2.292,2.292v8.4Z" transform="translate(4.806 -33.392)"/>
        <path id="패스_4138" data-name="패스 4138" class="cls-2" d="M54.992,102.683h8.075a2.292,2.292,0,1,0,0-4.583H54.992a2.3,2.3,0,0,0-2.292,2.292A2.238,2.238,0,0,0,54.992,102.683Z" transform="translate(4.806 -33.392)"/>
        <path id="패스_4139" data-name="패스 4139" class="cls-2" d="M2.5,100.392V126.8a2.292,2.292,0,1,0,4.583,0V100.392A2.3,2.3,0,0,0,4.792,98.1,2.176,2.176,0,0,0,2.5,100.392Z" transform="translate(0.228 -33.393)"/>
        <path id="패스_4140" data-name="패스 4140" class="cls-2" d="M48.439,116.06H43.747V98.492a2.292,2.292,0,1,0-4.583,0v14.622c0,11.348-8.839,19.205-21.5,19.205H4.792a2.292,2.292,0,0,0,0,4.583H17.559c9.275,0,16.914-3.71,21.5-9.712v14.186a2.292,2.292,0,1,0,4.583,0V120.534H48.33a2.3,2.3,0,0,0,2.292-2.292A2.06,2.06,0,0,0,48.439,116.06Z" transform="translate(0.228 -33.565)"/>
        <path id="패스_4141" data-name="패스 4141" class="cls-2" d="M39.174,69.671V86.8a2.292,2.292,0,1,0,4.583,0V42.392a2.292,2.292,0,1,0-4.583,0v11.13A25.45,25.45,0,0,1,13.749,78.947H2.292A2.3,2.3,0,0,0,0,81.238a2.4,2.4,0,0,0,2.292,2.4H13.749A29.8,29.8,0,0,0,39.174,69.671Z" transform="translate(0 -38.681)"/>
        <path id="패스_4142" data-name="패스 4142" class="cls-2" d="M3.692,49.166H26.935a2.292,2.292,0,1,0,0-4.583H18.423V41.092a2.292,2.292,0,0,0-4.583,0v3.383H3.692A2.3,2.3,0,0,0,1.4,46.766,2.264,2.264,0,0,0,3.692,49.166Z" transform="translate(0.127 -38.8)"/>
        <path id="패스_4143" data-name="패스 4143" class="cls-2" d="M13.921,55.792H16.54a5.313,5.313,0,0,1,1.309.109,2.333,2.333,0,1,0,.873-4.583A16.4,16.4,0,0,0,16.54,51.1H13.921a11.021,11.021,0,1,0,0,22.042H16.54A10.991,10.991,0,0,0,27.561,62.121a12.3,12.3,0,0,0-.546-3.492,2.347,2.347,0,1,0-4.474,1.419,6.384,6.384,0,0,1-6,8.4H13.921a6.329,6.329,0,0,1,0-12.658Z" transform="translate(0.264 -37.678)"/>
        <path id="패스_4144" data-name="패스 4144" class="cls-2" d="M57.1,77.148A9.946,9.946,0,0,0,67.03,87.3H84.053A10.129,10.129,0,0,0,94.2,77.148a9.7,9.7,0,0,0-.764-3.928,7.64,7.64,0,0,0-.982-1.855,2.361,2.361,0,0,0-3.928,2.619,4.423,4.423,0,0,1,.546.982,4.729,4.729,0,0,1,.436,2.073A5.589,5.589,0,0,1,83.943,82.6H67.03a5.319,5.319,0,0,1-5.238-5.565,5.225,5.225,0,0,1,5.238-5.456H83.507a2.292,2.292,0,1,0,0-4.583H67.03A9.946,9.946,0,0,0,57.1,77.148Z" transform="translate(5.207 -36.228)"/>
        <path id="패스_4145" data-name="패스 4145" class="cls-2" d="M95.948,50.5H91.583V41.992a2.292,2.292,0,0,0-4.583,0V64.47a2.292,2.292,0,0,0,4.583,0V55.195h4.365A2.3,2.3,0,0,0,98.239,52.9,2.206,2.206,0,0,0,95.948,50.5Z" transform="translate(7.934 -38.718)"/>
        <path id="패스_4146" data-name="패스 4146" class="cls-2" d="M52.5,54.549a2.292,2.292,0,1,0,4.583,0V45.383H68.868a2.292,2.292,0,1,0,0-4.583h-14.4a2.335,2.335,0,0,0-1.855,2.292h0V54.549Z" transform="translate(4.788 -38.618)"/>
        <path id="패스_4147" data-name="패스 4147" class="cls-2" d="M54.885,64.643h8.62a16.113,16.113,0,0,0,16.15-16.15v-4.8a2.292,2.292,0,0,0-4.583,0v4.8A11.456,11.456,0,0,1,63.614,59.95h-8.62A2.3,2.3,0,0,0,52.7,62.242,2.121,2.121,0,0,0,54.885,64.643Z" transform="translate(4.804 -38.563)"/>
      </g>
      <path id="패스_4148" data-name="패스 4148" class="cls-3" d="M11.377,150.748v3.492h1.309c.436,0,.546.327.546.655,0,.436-.109.655-.546.655H11.377v5.565c0,.436-.327.655-.764.655s-.764-.218-.764-.655V150.748c0-.327.327-.546.764-.546a.552.552,0,0,1,.764.546m-5.02.436v1.309a5.148,5.148,0,0,0,2.4,4.8.691.691,0,0,1,.109.982.619.619,0,0,1-.982.218,5.2,5.2,0,0,1-2.292-2.728A5.224,5.224,0,0,1,3.3,158.714a.688.688,0,0,1-.982-.218c-.327-.436-.327-.873,0-1.091,1.637-.982,2.4-2.4,2.4-4.91v-1.309c0-.436.327-.546.873-.546a.552.552,0,0,1,.764.546" transform="translate(0.189 13.696)"/>
      <path id="패스_4149" data-name="패스 4149" class="cls-3" d="M24.484,150.755c0-.436.327-.655.764-.655s.764.218.764.655v10.366c0,.436-.327.655-.764.655s-.764-.218-.764-.655Zm-4.365,6c.873,0,1.309-.327,1.309-.873s-.436-.873-1.309-.873-1.309.327-1.309.873.436.873,1.309.873m-1.309-5.019a.666.666,0,0,1,0-1.309h2.619a.611.611,0,0,1,.546.655c0,.327-.109.655-.546.655Zm-1.637,1.855a.611.611,0,0,1-.546-.655c0-.327.109-.655.546-.655h6a.611.611,0,0,1,.546.655c0,.327-.109.655-.546.655Zm-.327,6.329c-.327,0-.546-.218-.546-.655a.611.611,0,0,1,.546-.655h2.51v-.873c-1.309-.218-2.073-.873-2.073-1.746,0-1.2.982-1.855,2.837-1.855s2.837.764,2.837,1.855c0,.982-.764,1.637-2.073,1.855v.873a12.873,12.873,0,0,0,2.4-.218h.109c.327,0,.546.218.546.655,0,.327-.109.436-.436.546a17.281,17.281,0,0,1-3.71.327H16.846Z" transform="translate(1.487 13.689)"/>
      <path id="패스_4150" data-name="패스 4150" class="cls-3" d="M40.221,150.744v5.783c0,.436-.327.655-.764.655s-.764-.218-.764-.655v-2.182H37.056a.611.611,0,0,1-.546-.655c0-.436.218-.655.546-.655h1.637v-2.182c0-.436.327-.546.764-.546.436-.218.764,0,.764.436m-7.42,6.875H39.13c.873,0,1.2.218,1.2,1.091v2.837c0,.436-.436.546-.764.546-.436,0-.873-.218-.873-.546v-2.292c0-.218,0-.218-.218-.218H32.91a.611.611,0,0,1-.546-.655c-.109-.436,0-.764.436-.764m-1.637-6.765H36.62a.611.611,0,0,1,.546.655c0,.327-.109.655-.546.655H34.656v.109a3.228,3.228,0,0,0,2.292,3.055.687.687,0,0,1,.327.873c-.109.436-.436.546-.982.436a4.241,4.241,0,0,1-2.4-1.964,3.967,3.967,0,0,1-2.4,2.182.762.762,0,0,1-.764-1.309,3.171,3.171,0,0,0,2.182-3.274v-.109H30.946a.611.611,0,0,1-.546-.655c.218-.436.436-.655.764-.655" transform="translate(2.772 13.7)"/>
      <path id="패스_4151" data-name="패스 4151" class="cls-3" d="M52.693,150.746c0-.436.327-.546.764-.546s.764.218.764.546v5.892c0,.436-.327.655-.764.655s-.764-.218-.764-.655v-.327H51.6a.611.611,0,0,1-.546-.655c0-.436.109-.655.546-.655h1.091v-.655H51.6a.611.611,0,0,1-.546-.655c0-.327.109-.655.546-.655h1.091Zm-4.474,9.166v.655c0,.327,0,.327.218.327h3.928c.218,0,.327,0,.327-.327v-.655Zm-1.528-1.746c0-.327.327-.546.764-.546s.764.218.764.546v.546H52.8v-.546c0-.327.327-.546.764-.546s.764.218.764.546v2.728c0,.873-.327,1.091-1.2,1.091H47.892c-.873,0-1.2-.327-1.2-1.091v-2.728Zm1.2-2.073c.873,0,1.309-.327,1.309-.764s-.436-.764-1.309-.764-1.309.327-1.309.764c0,.546.436.764,1.309.764m-1.309-4.583a.611.611,0,0,1-.546-.655c0-.327.109-.546.546-.546H49.2a.585.585,0,0,1,.546.546c0,.327-.109.655-.546.655Zm1.309,2.182c1.746,0,2.728.764,2.728,1.746,0,1.091-.982,1.746-2.728,1.746-1.855,0-2.837-.655-2.837-1.746s.982-1.746,2.837-1.746m-2.946-.436a.666.666,0,0,1,0-1.309h5.565a.611.611,0,0,1,.546.655c0,.327-.109.655-.546.655Z" transform="translate(4.049 13.698)"/>
      <path id="패스_4152" data-name="패스 4152" class="cls-3" d="M63.838,160.766c1.637,0,2.4-.327,2.4-.982s-.764-.982-2.4-.982-2.4.327-2.4.982.873.982,2.4.982m0-3.164c2.619,0,4.037.764,4.037,2.182s-1.309,2.182-4.037,2.182c-2.619,0-4.037-.764-4.037-2.182.109-1.419,1.419-2.182,4.037-2.182m-.764-2.946H61.219c-.873,0-1.2-.218-1.2-1.091V151.6c0-.873.327-1.2,1.2-1.2H67.33a.666.666,0,0,1,0,1.309H61.983c-.218,0-.327,0-.327.327v1.091c0,.218,0,.327.327.327H67.33a.611.611,0,0,1,.546.655c0,.436-.218.655-.546.655H64.711v.982h4.147a.611.611,0,0,1,.546.655c0,.327-.109.655-.546.655H59.036c-.327,0-.436-.327-.436-.655s.109-.655.436-.655h4.147v-1.091Z" transform="translate(5.344 13.716)"/>
      <path id="패스_4153" data-name="패스 4153" class="cls-3" d="M74.355,156.692a.69.69,0,0,1-.873-.436c-.109-.327,0-.873.327-.982,1.746-.327,3.164-1.309,3.164-3.055v-.109H74.137a.666.666,0,0,1,0-1.309h7.638a.611.611,0,0,1,.546.655c0,.327-.109.655-.546.655H78.829v.109c0,1.746,1.637,2.728,3.274,3.055a.549.549,0,0,1,.327.873.69.69,0,0,1-.873.436,5.367,5.367,0,0,1-3.6-2.292,4.938,4.938,0,0,1-3.6,2.4m-1.309,2.073h4.147V156.8c0-.327.327-.546.873-.546.436,0,.873.218.873.546v1.964h3.928a.611.611,0,0,1,.546.655c0,.436-.218.655-.546.655H73.046a.666.666,0,0,1,0-1.309" transform="translate(6.612 13.753)"/>
      <path id="패스_4154" data-name="패스 4154" class="cls-3" d="M94.347,150.746c0-.436.327-.546.764-.546s.764.218.764.546v2.728h1.309c.436,0,.546.327.546.655,0,.436-.109.655-.546.655H95.875v1.746c0,.436-.327.655-.764.655s-.764-.218-.764-.655Zm-4.365,9.166v.655c0,.327,0,.327.327.327h3.819c.218,0,.327,0,.327-.327v-.655Zm.218-3.819c.873,0,1.309-.327,1.309-.764s-.436-.764-1.309-.764-1.309.327-1.309.764.436.764,1.309.764m-1.855,2.073c0-.327.436-.546.764-.546.436,0,.764.218.764.546v.546h4.365v-.546c0-.327.327-.546.764-.546s.764.218.764.546V161c0,.873-.327,1.091-1.2,1.091H89.437c-.873,0-1.2-.327-1.2-1.091v-2.837Zm.436-6.656a.611.611,0,0,1-.546-.655c0-.327.109-.546.546-.546H91.51a.515.515,0,0,1,.546.546c0,.327-.109.655-.546.655Zm1.419,2.073c1.746,0,2.728.764,2.728,1.746,0,1.091-.982,1.746-2.728,1.746-1.855,0-2.837-.655-2.837-1.746,0-.982.982-1.746,2.837-1.746m-3.055-.327a.611.611,0,0,1-.546-.655c0-.327.109-.546.546-.546h5.892a.515.515,0,0,1,.546.546c0,.327-.109.655-.546.655Z" transform="translate(7.898 13.698)"/>
      <path id="패스_4155" data-name="패스 4155" class="cls-3" d="M40.868,32.736a2.072,2.072,0,0,1-2.073-2.073V28.371A13.994,13.994,0,0,1,52.762,14.4H66.729A2.072,2.072,0,0,1,68.8,16.477a2.146,2.146,0,0,1-2.073,2.073H52.762a9.85,9.85,0,0,0-9.821,9.821v2.182A2.1,2.1,0,0,1,40.868,32.736Zm-7.093,0a2.189,2.189,0,0,1-2.182-2.182V28.262A21.189,21.189,0,0,1,52.762,7.093h18.55a2.072,2.072,0,0,1,2.073,2.073,2.146,2.146,0,0,1-2.073,2.073H52.762A16.928,16.928,0,0,0,35.848,28.153v2.4A2.169,2.169,0,0,1,33.775,32.736Zm-7.2,0A2.072,2.072,0,0,1,24.5,30.663V28.371A28.291,28.291,0,0,1,52.762,0h23.57a2.073,2.073,0,1,1,0,4.147H52.762A24.077,24.077,0,0,0,28.756,28.153v2.4A2.189,2.189,0,0,1,26.573,32.736Z" transform="translate(2.234)"/>
    </g>
  </g>
</svg>
