<svg xmlns="http://www.w3.org/2000/svg" viewBox="0 0 172.94 172.94">
  <defs>
    <style>
      .cls-1 {
        fill: #fff;
      }

      .cls-2, .cls-3 {
        fill: none;
        stroke: #888b44;
        stroke-linecap: round;
        stroke-width: 2px;
      }

      .cls-2 {
        stroke-linejoin: round;
      }
    </style>
  </defs>
  <g id="그룹_1643" data-name="그룹 1643" transform="translate(-74 -1918.909)">
    <g id="그룹_1642" data-name="그룹 1642">
      <ellipse id="타원_68" data-name="타원 68" class="cls-1" cx="86.47" cy="86.47" rx="86.47" ry="86.47" transform="translate(74 1918.909)"/>
    </g>
    <g id="그룹_1573" data-name="그룹 1573" transform="translate(124.5 1955.433)">
      <path id="패스_5465" data-name="패스 5465" class="cls-2" d="M52.41,43.16C50.983,35.708,41.945,30,31,30S11.027,35.708,9.6,43.16Z" transform="translate(5.328 17.274)"/>
      <g id="그룹_1527" data-name="그룹 1527" transform="translate(0.5 10.489)">
        <path id="패스_5466" data-name="패스 5466" class="cls-2" d="M.5,20.7v.159a11.576,11.576,0,0,0,23.149,0V20.7Z" transform="translate(-0.5 1.339)"/>
        <path id="패스_5467" data-name="패스 5467" class="cls-2" d="M23.649,25.484,11.757,12.8.5,25.326" transform="translate(-0.5 -3.287)"/>
        <line id="선_141" data-name="선 141" class="cls-3" y1="22.039" transform="translate(11.257)"/>
      </g>
      <g id="그룹_1528" data-name="그룹 1528" transform="translate(47.274 10.489)">
        <path id="패스_5468" data-name="패스 5468" class="cls-2" d="M30,20.7v.159a11.576,11.576,0,0,0,23.149,0V20.7Z" transform="translate(-30 1.339)"/>
        <path id="패스_5469" data-name="패스 5469" class="cls-2" d="M53.149,25.484,41.257,12.8,30,25.326" transform="translate(-30 -3.287)"/>
        <line id="선_142" data-name="선 142" class="cls-3" y1="22.039" transform="translate(11.257)"/>
      </g>
      <circle id="타원_45" data-name="타원 45" class="cls-2" cx="7.769" cy="7.769" r="7.769" transform="translate(27.613 0.5)"/>
      <path id="패스_5470" data-name="패스 5470" class="cls-2" d="M25,4.1H7.561A2.1,2.1,0,0,0,5.5,6.161,2.1,2.1,0,0,0,7.561,8.222H25A10.706,10.706,0,0,1,24.685,6,7.959,7.959,0,0,1,25,4.1Zm30.6,0h-15.7A7.958,7.958,0,0,1,40.224,6a9.358,9.358,0,0,1-.317,2.22H55.6a2.1,2.1,0,0,0,2.061-2.061A2.1,2.1,0,0,0,55.6,4.1Z" transform="translate(2.928 2.108)"/>
      <g id="그룹_1529" data-name="그룹 1529" transform="translate(33.638 16.038)">
        <rect id="사각형_580" data-name="사각형 580" class="cls-2" width="3.33" height="31.394"/>
      </g>
      <path id="패스_5471" data-name="패스 5471" class="cls-2" d="M24.988,8.767a1.744,1.744,0,0,1-3.488,0A45.534,45.534,0,0,1,23.244,2.9,45.534,45.534,0,0,1,24.988,8.767Z" transform="translate(12.297 1.405)"/>
    </g>
  </g>
</svg>
