<svg xmlns="http://www.w3.org/2000/svg" viewBox="0 0 172.94 172.94">
  <defs>
    <style>
      .cls-1 {
        fill: #fff;
      }

      .cls-2 {
        fill: none;
        stroke: #94af62;
        stroke-linecap: round;
        stroke-linejoin: round;
        stroke-width: 2px;
      }
    </style>
  </defs>
  <g id="그룹_1640" data-name="그룹 1640" transform="translate(-74 -1384.909)">
    <ellipse id="타원_69" data-name="타원 69" class="cls-1" cx="86.47" cy="86.47" rx="86.47" ry="86.47" transform="translate(74 1384.909)"/>
    <g id="그룹_1575" data-name="그룹 1575" transform="translate(123.5 1425.5)">
      <path id="패스_5474" data-name="패스 5474" class="cls-2" d="M22.6,42.075s5.142-4.219,7.516-8.175" transform="translate(7.039 10.639)"/>
      <path id="패스_5475" data-name="패스 5475" class="cls-2" d="M26.8,42.056A30.21,30.21,0,0,0,31.415,38.1" transform="translate(8.377 11.977)"/>
      <path id="패스_5476" data-name="패스 5476" class="cls-2" d="M8.543,27.448c3.824,8.175,11.6,15.031,11.6,15.031S30.3,32.326,30.3,22.833c2.637,0,8.307,1.978,8.307,1.978-1.714,11.471,6.461,10.812,6.461,10.812S46.385,23.1,46.385,20.2c-.923-3.033-13.713-9.625-23.47-11.867L16.982,2,.5,21.514Z" transform="translate(0 0.478)"/>
      <path id="패스_5477" data-name="패스 5477" class="cls-2" d="M45.611,28.647,41,23.9s-5.538,3.164,1.582,10.153A4.386,4.386,0,0,0,45.611,28.647Z" transform="translate(12.245 7.454)"/>
      <path id="패스_5478" data-name="패스 5478" class="cls-2" d="M43.191,32.91,38.84,27.9s-5.67,2.9,1.055,10.285A4.589,4.589,0,0,0,43.191,32.91Z" transform="translate(11.501 8.728)"/>
      <path id="패스_5479" data-name="패스 5479" class="cls-2" d="M40.526,36.61,36.175,31.6s-6.461,1.846.264,9.362C36.307,40.83,41.186,40.83,40.526,36.61Z" transform="translate(10.473 9.906)"/>
      <path id="패스_5480" data-name="패스 5480" class="cls-2" d="M36.659,39.647,32.571,34.9s-5.406,2.373.132,8.57C32.7,43.47,37.318,43.6,36.659,39.647Z" transform="translate(9.463 10.957)"/>
      <path id="패스_5481" data-name="패스 5481" class="cls-2" d="M55.964.5l-9.23,6.724c-11.6,0-19.119,4.351-19.119,4.351l6.065,2.769c4.483,2.242,7.779,4.615,8.307,6.2,0,3.033-1.319,15.427-1.319,15.427s-8.043.659-6.461-10.812c0,0-3.692-.923-8.307-1.978,0,10.416-10.153,19.646-10.153,19.646s-2.769,5.933,3.428,7.647c.659,1.055,2.9,3.692,5.933,2.241.659,1.055,2.241,2.637,5.406,1.319.791,1.187,2.637,3.033,6.461.659a3.9,3.9,0,0,1,.527-.4c-5.274-6.065,0-8.439,0-8.439l4.087,4.615V50.6l.264-.264c-6.065-7.12.132-8.966.132-8.966l3.956,4.483c-5.406-6.724-.264-9.362-.264-9.362l4.351,5.01h0c0-.132.132-.132.132-.264-7.12-7.12-1.582-10.153-1.582-10.153L53.2,35.837a61.931,61.931,0,0,0,4.351-10.153l10.548-5.538Z" transform="translate(4.661)"/>
    </g>
  </g>
</svg>
