<svg xmlns="http://www.w3.org/2000/svg" xmlns:xlink="http://www.w3.org/1999/xlink" viewBox="0 0 901 324.878">
  <defs>
    <style>
      .cls-1, .cls-4, .cls-9 {
        fill: #fff;
      }

      .cls-1 {
        stroke: #f0f0f0;
      }

      .cls-2 {
        fill: #727171;
      }

      .cls-3 {
        fill: #bce2e3;
      }

      .cls-5 {
        fill: #74c6be;
      }

      .cls-6 {
        fill: #e0f1f2;
      }

      .cls-7 {
        fill: url(#linear-gradient);
      }

      .cls-11, .cls-8 {
        fill: none;
      }

      .cls-8 {
        stroke: #707070;
        stroke-dasharray: 1 2;
      }

      .cls-9 {
        stroke: #7a8c8c;
        stroke-width: 2px;
      }

      .cls-10 {
        stroke: none;
      }
    </style>
    <linearGradient id="linear-gradient" y1="0.485" x2="1" y2="0.5" gradientUnits="objectBoundingBox">
      <stop offset="0" stop-color="#b6d9c6"/>
      <stop offset="1" stop-color="#77b090"/>
    </linearGradient>
  </defs>
  <g id="그룹_1441" data-name="그룹 1441" transform="translate(-251 -853.122)">
    <g id="사각형_254" data-name="사각형 254" class="cls-1" transform="translate(550 1065)">
      <rect class="cls-10" width="284" height="113" rx="30"/>
      <rect class="cls-11" x="0.5" y="0.5" width="283" height="112" rx="29.5"/>
    </g>
    <g id="사각형_253" data-name="사각형 253" class="cls-1" transform="translate(251 1065)">
      <rect class="cls-10" width="284" height="113" rx="30"/>
      <rect class="cls-11" x="0.5" y="0.5" width="283" height="112" rx="29.5"/>
    </g>
    <g id="사각형_255" data-name="사각형 255" class="cls-1" transform="translate(868 1065)">
      <rect class="cls-10" width="284" height="113" rx="30"/>
      <rect class="cls-11" x="0.5" y="0.5" width="283" height="112" rx="29.5"/>
    </g>
    <g id="그룹_518" data-name="그룹 518" transform="translate(635 853.122)">
      <path id="패스_2044" data-name="패스 2044" class="cls-2" d="M108.5,75.127l.4,6.266-9,2.812,1.767-9.239s4.1-1.044,6.829-.241" transform="translate(-77.325 -14.632)"/>
      <path id="패스_2045" data-name="패스 2045" class="cls-3" d="M85.984,83.2s1.446,18.558,18.558,16.389l-8.757,13.417s-21.611-.964-18.719-26.994Z" transform="translate(-54.411 -16.358)"/>
      <path id="패스_2046" data-name="패스 2046" class="cls-4" d="M97.06,98.625a32.547,32.547,0,0,1-.8-12.613l9-2.812a24.419,24.419,0,0,0,3.133,9.56s-4.178-1.125-5.7,2.812c0,0-1.687,2.732-3.615,2.892Z" transform="translate(-73.682 -16.358)"/>
      <path id="패스_2047" data-name="패스 2047" class="cls-5" d="M14.079,22S27.9,23.125,30.79,71.007c0,0,0,6.186,5.543,5.7a3.4,3.4,0,0,1,3.455,2.973c.482,3.7-4.017,4.178-6.668,4.017a20.369,20.369,0,0,1-2.33-.321c-8.355-2.25-8.114-11.167-9-18.076-1.125-8.355-1.125-16.63-4.338-24.423-2.008-4.74-5.624-8.034-9-11.971Z" transform="translate(65.213 -4.325)"/>
      <path id="패스_2048" data-name="패스 2048" class="cls-3" d="M27.289,54.068c7.632-9.56,12.854-15.988,23.539-23.7.4-.241,11.89-8.516,12.212-8.114C55.247,10.846,59.987.4,59.987.4,71.636,5.945,73.243,15.827,73.243,15.827l2.812.241c8.516,1.125,9.641.723,9.641.723A28.23,28.23,0,0,1,99.916,0c8.516,15.827-5.3,26.914-5.3,26.914,10.364,5.222,11.971,49.328,11.971,49.409l2.169,54.872.643,10.364s4.1,32.939-39.447,28.52c-2.732-.241-5.463-1.687-7.793-3.053-5.383-3.214-9.882-7.954-11.649-13.979a36.618,36.618,0,0,1-1.125-7.231,42.283,42.283,0,0,1,0-8.436c.08-.4.723-4.5.964-4.981l5.624-31.091c1.526-7.552,2.973-15.023,4.5-22.575,1.285-5.142,1.044-5.222,1.285-5.383-6.507,2.571-14.622,2.732-21.531,2.25-3.856-.241-6.909-2.089-9.56-4.82-1.928-1.928-4.981-5.865-5.383-8.677-.4-3.615.321-5.865,2.008-8.034" transform="translate(-17.889 0)"/>
      <path id="패스_2049" data-name="패스 2049" class="cls-4" d="M79.081,4.3s-2.008,9.721,2.732,15.425S85.187,9.361,79.081,4.3" transform="translate(-36.02 -0.845)"/>
      <path id="패스_2050" data-name="패스 2050" class="cls-4" d="M43.518,4.8s3.053,10.042-3.455,17.755C34.359,29.3,36.207,10.906,43.518,4.8" transform="translate(38.105 -0.944)"/>
      <path id="패스_2051" data-name="패스 2051" class="cls-6" d="M103.361,59.4h0c-.08.161-.161.161-.161.161l.161-.161" transform="translate(-74.439 -11.678)"/>
      <path id="패스_2052" data-name="패스 2052" class="cls-5" d="M60.025,36.425A1.684,1.684,0,0,1,58.5,34.657l.08-.964v-.08c.482-3.7,1.848-6.025,6.668-5.624l4.74.4a1.651,1.651,0,0,1-.241,3.294l-4.74-.4c-2.249-.161-2.732,0-3.133,2.732l-.08.884a1.684,1.684,0,0,1-1.767,1.526" transform="translate(-6.681 -5.494)"/>
      <path id="패스_2053" data-name="패스 2053" class="cls-5" d="M56.625,33.223A1.684,1.684,0,0,1,55.1,31.455l.08-.884v-.08c.8-5.383,4.5-8.436,9.8-8.195l8.677.643a1.651,1.651,0,0,1-.241,3.294l-8.6-.723c-4.5-.241-5.945,2.732-6.347,5.3l-.08.884a1.628,1.628,0,0,1-1.767,1.526" transform="translate(-7.619 -4.381)"/>
      <path id="패스_2054" data-name="패스 2054" class="cls-5" d="M52.825,30.048A1.684,1.684,0,0,1,51.3,28.281V27.8A12.044,12.044,0,0,1,64.233,16.792l12.854,1.044a1.651,1.651,0,0,1-.241,3.294L63.992,20.086a8.652,8.652,0,0,0-9.319,7.954v.482a1.761,1.761,0,0,1-1.848,1.526" transform="translate(-7.997 -3.295)"/>
      <path id="패스_2055" data-name="패스 2055" class="cls-4" d="M82.2,58.645a.962.962,0,0,0,.321-.321c1.285-1.125,5.945-4.82,5.222-8.918,0,0,4.981-.482,12.694-6.106,0,0-7.231,5.543-4.82,9.721,0,.08-5.463,0-13.417,5.624" transform="translate(-54.644 -8.513)"/>
      <path id="패스_2056" data-name="패스 2056" class="cls-2" d="M4.946,77.3,3.5,83.487l8.436,4.178-.241-9.4S7.758,76.5,4.946,76.98" transform="translate(97.083 -15.118)"/>
      <path id="패스_2057" data-name="패스 2057" class="cls-3" d="M24.469,85S20.05,103.076,3.5,98.1l6.427,14.7s21.451,2.571,22.9-23.539Z" transform="translate(76.194 -16.712)"/>
      <path id="패스_2058" data-name="패스 2058" class="cls-4" d="M13.7,101.55a31.176,31.176,0,0,0,2.812-12.292L8.16,85A24.234,24.234,0,0,1,3.5,93.918a4.8,4.8,0,0,1,5.222,3.776s1.285,2.973,3.133,3.455Z" transform="translate(92.503 -16.712)"/>
      <path id="패스_2059" data-name="패스 2059" class="cls-4" d="M34.342,110.243h0a.587.587,0,0,1-.482-.562,1.769,1.769,0,0,0-.08-.643.508.508,0,0,1,.964-.321,2.961,2.961,0,0,1,.08,1.205c0,.161-.241.321-.482.321" transform="translate(49.852 -21.307)"/>
      <path id="패스_2060" data-name="패스 2060" class="cls-4" d="M40.142,95.623h0a.611.611,0,0,1-.482-.643,1.769,1.769,0,0,0-.08-.643.508.508,0,1,1,.964-.321,3.063,3.063,0,0,1,.08,1.205c0,.321-.241.4-.482.4" transform="translate(39.392 -18.417)"/>
      <path id="패스_2061" data-name="패스 2061" class="cls-4" d="M33.542,96.223h0a.611.611,0,0,1-.482-.643,1.769,1.769,0,0,0-.08-.643.508.508,0,0,1,.964-.321,2.961,2.961,0,0,1,.08,1.205.45.45,0,0,1-.482.4" transform="translate(51.295 -18.535)"/>
      <path id="패스_2062" data-name="패스 2062" class="cls-4" d="M41.242,89.423h0a.611.611,0,0,1-.482-.643,1.769,1.769,0,0,0-.08-.643.508.508,0,1,1,.964-.321,2.961,2.961,0,0,1,.08,1.205.45.45,0,0,1-.482.4" transform="translate(37.409 -17.198)"/>
      <path id="패스_2063" data-name="패스 2063" class="cls-4" d="M34.542,82.223h0a.611.611,0,0,1-.482-.643,1.769,1.769,0,0,0-.08-.643.508.508,0,0,1,.964-.321,2.961,2.961,0,0,1,.08,1.205.45.45,0,0,1-.482.4" transform="translate(49.491 -15.782)"/>
      <path id="패스_2064" data-name="패스 2064" class="cls-4" d="M36.542,92.143h0a.587.587,0,0,1-.482-.562,1.769,1.769,0,0,0-.08-.643.508.508,0,1,1,.964-.321,2.961,2.961,0,0,1,.08,1.205.4.4,0,0,1-.482.321" transform="translate(45.885 -17.749)"/>
      <path id="패스_2065" data-name="패스 2065" class="cls-4" d="M37.242,77.221h0a.611.611,0,0,1-.482-.643,1.769,1.769,0,0,0-.08-.643A.546.546,0,0,1,37,75.293a.48.48,0,0,1,.643.321,3.063,3.063,0,0,1,.08,1.205.509.509,0,0,1-.482.4" transform="translate(44.622 -14.797)"/>
      <path id="패스_2066" data-name="패스 2066" class="cls-4" d="M39.442,82.923h0a.611.611,0,0,1-.482-.643,1.769,1.769,0,0,0-.08-.643.508.508,0,1,1,.964-.321,2.961,2.961,0,0,1,.08,1.205c0,.321-.161.482-.482.4" transform="translate(40.655 -15.92)"/>
      <path id="패스_2067" data-name="패스 2067" class="cls-4" d="M36.642,86.523h0a.611.611,0,0,1-.482-.643,1.769,1.769,0,0,0-.08-.643.508.508,0,1,1,.964-.321,2.961,2.961,0,0,1,.08,1.205c0,.241-.161.4-.482.4" transform="translate(45.704 -16.628)"/>
      <path id="패스_2068" data-name="패스 2068" class="cls-4" d="M35.642,100.723h0a.611.611,0,0,1-.482-.643,1.769,1.769,0,0,0-.08-.643.508.508,0,1,1,.964-.321,2.961,2.961,0,0,1,.08,1.205.4.4,0,0,1-.482.4" transform="translate(47.508 -19.42)"/>
      <path id="패스_2069" data-name="패스 2069" class="cls-4" d="M37.942,106.723h0a.611.611,0,0,1-.482-.643,1.769,1.769,0,0,0-.08-.643.508.508,0,1,1,.964-.321,2.961,2.961,0,0,1,.08,1.205.45.45,0,0,1-.482.4" transform="translate(43.36 -20.599)"/>
      <path id="패스_2070" data-name="패스 2070" class="cls-4" d="M33.542,105.023h0a.611.611,0,0,1-.482-.643,1.769,1.769,0,0,0-.08-.643.508.508,0,0,1,.964-.321,2.961,2.961,0,0,1,.08,1.205.45.45,0,0,1-.482.4" transform="translate(51.295 -20.265)"/>
      <path id="패스_2071" data-name="패스 2071" class="cls-4" d="M40.85,102.123h0a.611.611,0,0,1-.482-.643,1.769,1.769,0,0,0-.08-.643.48.48,0,0,1,.321-.643.546.546,0,0,1,.643.321,2.961,2.961,0,0,1,.08,1.205.45.45,0,0,1-.482.4" transform="translate(38.122 -19.695)"/>
      <path id="패스_2072" data-name="패스 2072" class="cls-4" d="M77.21,151.747a.534.534,0,0,1-.4-.321c-.08-.161-.321-.4-.4-.562a.524.524,0,0,1,.562-.884,2.049,2.049,0,0,1,.723.964.506.506,0,0,1-.241.643c-.08.161-.161.161-.241.161" transform="translate(-27.079 -29.471)"/>
      <path id="패스_2073" data-name="패스 2073" class="cls-4" d="M82.467,151.147a.534.534,0,0,1-.4-.321,3.4,3.4,0,0,0-.4-.562.524.524,0,1,1,.562-.884,2.049,2.049,0,0,1,.723.964.444.444,0,0,1-.241.643c-.08.08-.161.161-.241.161" transform="translate(-36.594 -29.353)"/>
      <path id="패스_2074" data-name="패스 2074" class="cls-4" d="M82.11,139.647a.534.534,0,0,1-.4-.321,3.4,3.4,0,0,0-.4-.562.524.524,0,1,1,.562-.884,2.049,2.049,0,0,1,.723.964.506.506,0,0,1-.241.643c-.08.161-.161.161-.241.161" transform="translate(-35.916 -27.092)"/>
      <path id="패스_2075" data-name="패스 2075" class="cls-4" d="M77.975,145.86a.534.534,0,0,1-.4-.321,2.441,2.441,0,0,0-.4-.562.614.614,0,0,1-.161-.723.508.508,0,0,1,.723-.08,2.049,2.049,0,0,1,.723.964.506.506,0,0,1-.241.643.3.3,0,0,1-.241.08" transform="translate(-28.487 -28.323)"/>
      <path id="패스_2076" data-name="패스 2076" class="cls-4" d="M81.958,144.947a.534.534,0,0,1-.4-.321,2.441,2.441,0,0,0-.4-.562.508.508,0,0,1-.08-.723.523.523,0,0,1,.723-.161,2.049,2.049,0,0,1,.723.964.506.506,0,0,1-.241.643c-.161.161-.241.161-.321.161" transform="translate(-35.764 -28.134)"/>
      <path id="패스_2077" data-name="패스 2077" class="cls-4" d="M77.21,141.247a.534.534,0,0,1-.4-.321c-.08-.161-.321-.4-.4-.562a.524.524,0,1,1,.562-.884,3.033,3.033,0,0,1,.8.964.506.506,0,0,1-.241.643.321.321,0,0,1-.321.161" transform="translate(-27.16 -27.406)"/>
      <path id="패스_2078" data-name="패스 2078" class="cls-4" d="M73.51,150.16a.41.41,0,0,1-.4-.321,3.4,3.4,0,0,0-.4-.562.523.523,0,0,1-.161-.723.508.508,0,0,1,.723-.08,2.049,2.049,0,0,1,.723.964.506.506,0,0,1-.241.643.3.3,0,0,1-.241.08" transform="translate(-20.407 -29.169)"/>
      <path id="패스_2079" data-name="패스 2079" class="cls-3" d="M15.1,201.215l26.11,17.032,4.017-5.3L27.071,188.2Z" transform="translate(54.472 -37.002)"/>
      <path id="패스_2080" data-name="패스 2080" class="cls-4" d="M21.7,207.6s.4,4.5-4.1,5.142c0,0-3.455.482-2.249,3.455l9,5.865,4.017-5.3Z" transform="translate(71.329 -40.816)"/>
      <path id="패스_2081" data-name="패스 2081" class="cls-2" d="M4.017,219l12.131,2.732-10.042,10.2L0,224.3Z" transform="translate(95.682 -43.057)"/>
      <path id="패스_2082" data-name="패스 2082" class="cls-3" d="M115.977,195.57l-30.529,6.347L83.6,195.57l25.95-16.47Z" transform="translate(-71.308 -35.212)"/>
      <path id="패스_2083" data-name="패스 2083" class="cls-4" d="M117.211,192s-2.008,4.1,1.928,6.266c0,0,3.053,1.767.8,4.017l-10.524,2.169-1.848-6.347Z" transform="translate(-95.359 -37.749)"/>
      <path id="패스_2084" data-name="패스 2084" class="cls-2" d="M133.892,199.148,121.6,197.3l5.7,13.1,8.436-4.9Z" transform="translate(-121.6 -38.791)"/>
      <path id="패스_2085" data-name="패스 2085" class="cls-5" d="M115.494,79.255l.4-.241a1.161,1.161,0,0,0,.562-.8,1.383,1.383,0,0,0-.161-.964l-.08-.08a1.368,1.368,0,0,0-1.767-.4l-.08.08-.4.241a.635.635,0,1,1-.723-1.044l.4-.241h0l.161-.08a2.633,2.633,0,0,1,3.455.8c0,.08.08.08.08.161a2.643,2.643,0,0,1-.884,3.455l-.4.241a.711.711,0,0,1-.884-.161,1.173,1.173,0,0,1,.321-.964" transform="translate(-96.614 -14.823)"/>
      <path id="패스_2086" data-name="패스 2086" class="cls-5" d="M124.038,72.794l.241-.4a1.383,1.383,0,0,0,.161-.964,1.358,1.358,0,0,0-.562-.8l-.08-.08a1.388,1.388,0,0,0-1.767.4l-.08.08-.241.4a.648.648,0,1,1-1.125-.643l.241-.4h0l.08-.161a2.653,2.653,0,0,1,3.455-.8c.08,0,.08.08.161.08a2.671,2.671,0,0,1,.723,3.535l-.241.4a.646.646,0,0,1-.884.241.839.839,0,0,1-.08-.884" transform="translate(-110.622 -13.584)"/>
      <path id="패스_2087" data-name="패스 2087" class="cls-2" d="M95.435,43.247l.241-.482a1.606,1.606,0,0,0,.161-1.044,1.473,1.473,0,0,0-.562-.8l-.08-.08a1.335,1.335,0,0,0-1.848.482l-.08.08h0l-.241.482a.7.7,0,0,1-1.205-.723l.241-.4c0-.08.08-.08.08-.161a2.794,2.794,0,0,1,3.7-.884c.08,0,.08.08.161.08A3.156,3.156,0,0,1,97.2,41.479a2.585,2.585,0,0,1-.321,2.008l-.241.4a.673.673,0,0,1-.964.241c-.321-.08-.4-.482-.241-.884" transform="translate(-59.122 -7.737)"/>
      <path id="패스_2088" data-name="패스 2088" class="cls-2" d="M76.278,53.016l.321-.482a2.067,2.067,0,0,0,.08-1.205,1.6,1.6,0,0,0-.643-.964l-.08-.08a1.63,1.63,0,0,0-2.089.482l-.08.08-.241.482a.773.773,0,1,1-1.366-.723l.321-.482c0-.08.08-.08.08-.161A3.056,3.056,0,0,1,76.68,49c.08,0,.08.08.161.08a3.024,3.024,0,0,1,1.285,1.848,3.194,3.194,0,0,1-.321,2.249l-.241.482a.79.79,0,0,1-1.044.321.673.673,0,0,1-.241-.964" transform="translate(-24.3 -9.553)"/>
    </g>
    <rect id="사각형_213" data-name="사각형 213" class="cls-7" width="205.14" height="85.57" rx="42.785" transform="translate(588.955 956.83)"/>
    <rect id="사각형_214" data-name="사각형 214" class="cls-4" width="192.734" height="73.164" rx="36.582" transform="translate(595 963.033)"/>
    <path id="패스_5315" data-name="패스 5315" class="cls-8" d="M701,849.5s8.42,15.862,32.4,14.6,27.2-14.6,27.2-14.6" transform="translate(1275.6 1934.672) rotate(180)"/>
    <path id="패스_5316" data-name="패스 5316" class="cls-8" d="M701,849.5s8.42,15.862,32.4,14.6,27.2-14.6,27.2-14.6" transform="translate(1581.6 1934.672) rotate(180)"/>
    <g id="타원_51" data-name="타원 51" class="cls-9" transform="translate(518.5 1089.5) rotate(180)">
      <circle class="cls-10" cx="4" cy="4" r="4"/>
      <circle class="cls-11" cx="4" cy="4" r="3"/>
    </g>
    <g id="타원_169" data-name="타원 169" class="cls-9" transform="translate(824.5 1089.5) rotate(180)">
      <circle class="cls-10" cx="4" cy="4" r="4"/>
      <circle class="cls-11" cx="4" cy="4" r="3"/>
    </g>
    <g id="타원_168" data-name="타원 168" class="cls-9" transform="translate(578.5 1089.5) rotate(180)">
      <circle class="cls-10" cx="4" cy="4" r="4"/>
      <circle class="cls-11" cx="4" cy="4" r="3"/>
    </g>
    <g id="타원_170" data-name="타원 170" class="cls-9" transform="translate(884.5 1089.5) rotate(180)">
      <circle class="cls-10" cx="4" cy="4" r="4"/>
      <circle class="cls-11" cx="4" cy="4" r="3"/>
    </g>
  </g>
</svg>
