<svg xmlns="http://www.w3.org/2000/svg" viewBox="0 0 48.101 38.001">
  <defs>
    <style>
      .cls-1 {
        fill: none;
        stroke: #74c6be;
        stroke-linecap: round;
        stroke-linejoin: round;
        stroke-miterlimit: 10;
        stroke-width: 5px;
      }

      .cls-2 {
        fill: #bce2e3;
      }

      .cls-3 {
        fill: #595757;
      }

      .cls-4 {
        fill: #fff;
      }

      .cls-5 {
        fill: #e4f3fa;
      }

      .cls-6 {
        fill: #74c6be;
      }
    </style>
  </defs>
  <g id="그룹_1281" data-name="그룹 1281" transform="translate(0 0)">
    <path id="패스_4494" data-name="패스 4494" class="cls-1" d="M155.49,41.19a7.653,7.653,0,0,1,.725.568,13.47,13.47,0,0,1,1.682,1.765,15.4,15.4,0,0,1,1.89,3.045,17.068,17.068,0,0,1,1.374,4.438,19.765,19.765,0,0,1,.26,2.759c.028,1.12-.084,2.228-.12,3.346-.047,1.464.006,3.4.976,4.576.232.284,1.518,2.307,5.378,1.944" transform="translate(-122.054 -32.333)"/>
    <path id="패스_4495" data-name="패스 4495" class="cls-2" d="M37.243,24.882c-.72,3.176-3.481,5.982-6.146,7.617a36.482,36.482,0,0,1-9.924,4.066,32.654,32.654,0,0,1-10.223,1.391c-2.688-.194-5.823-.69-7.986-2.419A9.284,9.284,0,0,1,.276,32.014a3.94,3.94,0,0,1,.664-3.95A66.966,66.966,0,0,1,14.46,13.511c.129-.105,2.264-1.91,2.387-1.755-4.253-5.279-2.1-10.242-2.1-10.242,4.89,2.529,5.791,5.87,5.791,5.87L29.355,7A12.581,12.581,0,0,1,34.1,0c4.167,7.634-.252,11.343-.252,11.343a14.764,14.764,0,0,1,3.393,13.539" transform="translate(0.001 0)"/>
    <path id="패스_4496" data-name="패스 4496" class="cls-3" d="M57.637,78.123a.993.993,0,1,1-.993-.993.994.994,0,0,1,.993.993" transform="translate(-43.683 -60.544)"/>
    <path id="패스_4497" data-name="패스 4497" class="cls-3" d="M92.722,94.1a1.086,1.086,0,1,1-1.086-1.086A1.086,1.086,0,0,1,92.722,94.1" transform="translate(-71.078 -73.01)"/>
    <path id="패스_4498" data-name="패스 4498" class="cls-4" d="M71.057,14.02s-.753,4.249,1.882,6.786a1.531,1.531,0,0,0,.916.535c1.305,0-.019-5.483-2.8-7.322" transform="translate(-55.699 -11.005)"/>
    <path id="패스_4499" data-name="패스 4499" class="cls-4" d="M147.566,10.36c-2.8,2.688-3.284,8.771-1.91,8.771.284,0,.647-.26,1.084-.862a7.734,7.734,0,0,0,.826-7.909" transform="translate(-113.754 -8.132)"/>
    <path id="패스_4500" data-name="패스 4500" class="cls-5" d="M39.449,118.44c-.045.062-.069.1-.069.1s.024-.028.069-.09Z" transform="translate(-30.912 -92.971)"/>
    <path id="패스_4501" data-name="패스 4501" class="cls-6" d="M9.25,138.366l.065-.211a.611.611,0,0,1,.28-.351.6.6,0,0,1,.441-.062l.037.011a.6.6,0,0,1,.413.72l-.011.037h0l-.065.211a.3.3,0,0,0,.2.372.3.3,0,0,0,.374-.2l.065-.213h0l.019-.071a1.207,1.207,0,0,0-.819-1.432l-.071-.019a1.206,1.206,0,0,0-1.432.819l-.065.211a.3.3,0,0,0,.57.176" transform="translate(-6.803 -107.64)"/>
    <path id="패스_4502" data-name="패스 4502" class="cls-6" d="M30,145.1l.1-.2h0a.6.6,0,0,1,.335-.3.6.6,0,0,1,.445.015l.034.015a.607.607,0,0,1,.282.783l-.015.034h0l-.1.2a.3.3,0,0,0,.131.4.3.3,0,0,0,.4-.131l.1-.2h0l.032-.067a1.205,1.205,0,0,0-.559-1.553l-.067-.03a1.188,1.188,0,0,0-.884-.028,1.205,1.205,0,0,0-.667.589h0l-.1.2a.3.3,0,0,0,.131.4.3.3,0,0,0,.4-.135" transform="translate(-23.107 -113.016)"/>
    <path id="패스_4503" data-name="패스 4503" class="cls-4" d="M56.285,80.25c-3.441,2.952-5.774,3.357-5.774,3.357.507,1.912-1.557,3.832-2.131,4.417-.095.1-.151.148-.151.148,3.557-2.991,6.152-3.144,6.152-3.144-1.3-1.871,1.9-4.778,1.9-4.778" transform="translate(-37.859 -62.993)"/>
    <path id="패스_4504" data-name="패스 4504" class="cls-6" d="M96.76,56.885a.908.908,0,0,1-.91-.907v-.51l0-.054c.12-2.032.742-3.385,3.4-3.385h2.626a.907.907,0,1,1,0,1.815H99.254c-1.256,0-1.494.123-1.587,1.649v.484a.9.9,0,0,1-.907.907" transform="translate(-75.239 -40.842)"/>
    <path id="패스_4505" data-name="패스 4505" class="cls-6" d="M85.3,46.929a.907.907,0,0,1-.907-.905v-.512l0-.065a4.874,4.874,0,0,1,5.028-4.918h4.793a.909.909,0,0,1,0,1.817H89.445a3.09,3.09,0,0,0-3.238,3.2v.48a.91.91,0,0,1-.91.905" transform="translate(-66.243 -31.815)"/>
    <path id="패스_4506" data-name="패스 4506" class="cls-6" d="M74.23,37.264a.911.911,0,0,1-.91-.91V36.1a6.618,6.618,0,0,1,6.61-6.61h7.128a.907.907,0,0,1,0,1.815H79.93A4.8,4.8,0,0,0,75.137,36.1v.254a.909.909,0,0,1-.907.912" transform="translate(-57.553 -23.149)"/>
  </g>
</svg>
