<svg xmlns="http://www.w3.org/2000/svg" viewBox="0 0 133.011 135.73">
  <defs>
    <style>
      .cls-1 {
        fill: #727171;
      }

      .cls-2 {
        fill: #bce2e3;
      }

      .cls-3 {
        fill: #fff;
      }

      .cls-4 {
        fill: #74c6be;
      }

      .cls-5 {
        fill: #e0f1f2;
      }

      .cls-6 {
        fill: #fdd35c;
      }
    </style>
  </defs>
  <g id="그룹_1395" data-name="그룹 1395" transform="translate(-1178 -595)">
    <g id="그룹_1392" data-name="그룹 1392" transform="translate(1178 595)">
      <path id="패스_4911" data-name="패스 4911" class="cls-1" d="M100.193,75.014l-.283,4.533,6.444,2.027-1.276-6.612a10.857,10.857,0,0,0-4.931-.144" transform="translate(-42.219 -31.51)"/>
      <path id="패스_4912" data-name="패스 4912" class="cls-2" d="M90.17,83.18S89.159,96.507,76.86,94.942l6.294,9.643s15.516-.693,13.466-19.379Z" transform="translate(-32.479 -35.149)"/>
      <path id="패스_4913" data-name="패스 4913" class="cls-3" d="M104.118,94.261a23.14,23.14,0,0,0,.572-9.054L98.245,83.18a17.055,17.055,0,0,1-2.275,6.854,3.435,3.435,0,0,1,4.123,2.038s1.23,1.94,2.627,2.061Z" transform="translate(-40.554 -35.149)"/>
      <path id="패스_4914" data-name="패스 4914" class="cls-4" d="M26.971,22.03s-9.949.791-12.022,35.252c0,0,.017,4.435-3.955,4.077a2.393,2.393,0,0,0-2.471,2.148c-.335,2.633,2.9,3,4.77,2.893a9.069,9.069,0,0,0,1.68-.243c6.017-1.594,5.82-8.032,6.479-12.992.791-5.976.82-11.97,3.13-17.554,1.42-3.418,4.025-5.8,6.49-8.586Z" transform="translate(-3.591 -9.309)"/>
      <path id="패스_4915" data-name="패스 4915" class="cls-2" d="M84.23,38.867C78.744,31.972,75.008,27.4,67.3,21.844c-.254-.185-8.523-6.15-8.737-5.838A16.812,16.812,0,0,0,60.728.306c-8.332,4-9.493,11.081-9.493,11.081l-2,.162c-6.121.791-6.929.491-6.929.491A20.471,20.471,0,0,0,32.042,0c-6.127,11.352,3.823,19.361,3.823,19.361-7.455,3.719-8.6,35.448-8.6,35.5l-1.542,39.41-.473,7.437s-2.956,23.657,28.346,20.47a14.524,14.524,0,0,0,5.578-2.212c3.851-2.292,7.12-5.693,8.384-10.07a22.729,22.729,0,0,0,.785-5.214,29.606,29.606,0,0,0-.017-6.069c-.046-.3-.525-3.2-.687-3.6L63.587,72.675c-1.08-5.4-2.136-10.809-3.216-16.208-.9-3.707-.722-3.782-.93-3.863,4.683,1.859,10.48,1.957,15.475,1.605a10.4,10.4,0,0,0,6.854-3.447c1.374-1.409,3.6-4.215,3.892-6.225a6.7,6.7,0,0,0-1.432-5.67" transform="translate(-10.636)"/>
      <path id="패스_4916" data-name="패스 4916" class="cls-3" d="M82.69,4.34s1.449,7.016-1.981,11.1S78.3,7.972,82.69,4.34" transform="translate(-33.239 -1.834)"/>
      <path id="패스_4917" data-name="패스 4917" class="cls-3" d="M37.247,4.81s-2.183,7.241,2.489,12.75c4.111,4.839,2.777-8.4-2.489-12.75" transform="translate(-15.524 -2.033)"/>
      <path id="패스_4918" data-name="패스 4918" class="cls-5" d="M103.21,59.39V59.4c.069.087.1.121.1.121s-.035-.046-.1-.133" transform="translate(-43.614 -25.096)"/>
      <path id="패스_4919" data-name="패스 4919" class="cls-4" d="M66.791,34.02a1.178,1.178,0,0,0,1.086-1.27l-.052-.664-.012-.069c-.364-2.633-1.311-4.325-4.764-4.048l-3.407.271a1.182,1.182,0,1,0,.191,2.356l3.407-.271c1.634-.127,1.957.006,2.235,1.986l.052.629a1.173,1.173,0,0,0,1.265,1.08" transform="translate(-24.743 -11.806)"/>
      <path id="패스_4920" data-name="패스 4920" class="cls-4" d="M68.45,30.169a1.189,1.189,0,0,0,1.091-1.276l-.052-.664-.017-.075c-.577-3.875-3.2-6.069-7.039-5.872l-6.23.491a1.185,1.185,0,0,0,.191,2.362l6.2-.491c3.222-.167,4.256,1.969,4.539,3.811l.046.624a1.188,1.188,0,0,0,1.27,1.091" transform="translate(-23.289 -9.41)"/>
      <path id="패스_4921" data-name="패스 4921" class="cls-4" d="M69.8,26.29a1.184,1.184,0,0,0,1.086-1.276l-.023-.329a8.623,8.623,0,0,0-9.268-7.905l-9.262.739a1.182,1.182,0,1,0,.191,2.356l9.262-.739a6.264,6.264,0,0,1,6.727,5.734l.029.323a1.167,1.167,0,0,0,1.259,1.1" transform="translate(-21.654 -7.079)"/>
      <path id="패스_4922" data-name="패스 4922" class="cls-3" d="M95.323,54.384s-.087-.069-.243-.2c-.935-.82-4.279-3.47-3.748-6.415,0,0-3.574-.335-9.123-4.377,0,0,5.191,4,3.447,6.987.006,0,3.938-.075,9.666,4.007" transform="translate(-34.74 -18.335)"/>
      <path id="패스_4923" data-name="패스 4923" class="cls-1" d="M8.506,77.193l1.016,4.423L3.5,84.665l.173-6.733a10.88,10.88,0,0,1,4.845-.947" transform="translate(-1.479 -32.511)"/>
      <path id="패스_4924" data-name="패스 4924" class="cls-2" d="M9.523,85.04S12.7,98.021,24.576,94.469l-4.631,10.544S4.528,106.861,3.5,88.095Z" transform="translate(-1.479 -35.935)"/>
      <path id="패스_4925" data-name="패스 4925" class="cls-3" d="M5.538,96.929A23.172,23.172,0,0,1,3.5,88.089L9.528,85.04a17.105,17.105,0,0,0,3.366,6.392,3.435,3.435,0,0,0-3.736,2.685s-.9,2.113-2.252,2.466Z" transform="translate(-1.479 -35.935)"/>
      <path id="패스_4926" data-name="패스 4926" class="cls-3" d="M34.129,109.642l.046-.006a.357.357,0,0,0,.277-.427,1.263,1.263,0,0,1,.046-.485.362.362,0,0,0-.219-.468.374.374,0,0,0-.468.219,1.767,1.767,0,0,0-.064.878.362.362,0,0,0,.381.289" transform="translate(-14.248 -45.738)"/>
      <path id="패스_4927" data-name="패스 4927" class="cls-3" d="M39.871,95.094l.058-.012a.362.362,0,0,0,.277-.433,1.061,1.061,0,0,1,.035-.468.361.361,0,0,0-.214-.468.37.37,0,0,0-.473.219,1.745,1.745,0,0,0-.058.889.353.353,0,0,0,.375.271" transform="translate(-16.675 -39.591)"/>
      <path id="패스_4928" data-name="패스 4928" class="cls-3" d="M33.332,95.681l.046-.006a.365.365,0,0,0,.283-.433,1.107,1.107,0,0,1,.046-.479.374.374,0,0,0-.225-.468.367.367,0,0,0-.468.225,1.862,1.862,0,0,0-.064.866.346.346,0,0,0,.381.294" transform="translate(-13.913 -39.838)"/>
      <path id="패스_4929" data-name="패스 4929" class="cls-3" d="M41.029,88.858l.046-.006a.361.361,0,0,0,.277-.433,1.221,1.221,0,0,1,.04-.479.361.361,0,0,0-.681-.237,1.767,1.767,0,0,0-.064.878.342.342,0,0,0,.381.277" transform="translate(-17.164 -36.959)"/>
      <path id="패스_4930" data-name="패스 4930" class="cls-3" d="M34.342,81.674l.046-.006a.362.362,0,0,0,.283-.433,1.3,1.3,0,0,1,.04-.485.362.362,0,1,0-.687-.231,1.9,1.9,0,0,0-.064.872.367.367,0,0,0,.381.283" transform="translate(-14.34 -33.921)"/>
      <path id="패스_4931" data-name="패스 4931" class="cls-3" d="M36.312,91.59l.046-.006a.354.354,0,0,0,.283-.427,1.207,1.207,0,0,1,.04-.491.363.363,0,0,0-.687-.237,1.9,1.9,0,0,0-.064.872.353.353,0,0,0,.381.289" transform="translate(-15.172 -38.109)"/>
      <path id="패스_4932" data-name="패스 4932" class="cls-3" d="M37.052,76.63l.058-.012a.361.361,0,0,0,.271-.433,1.168,1.168,0,0,1,.046-.479.354.354,0,0,0-.219-.462.364.364,0,0,0-.468.219,1.731,1.731,0,0,0-.064.883.349.349,0,0,0,.375.283" transform="translate(-15.485 -31.786)"/>
      <path id="패스_4933" data-name="패스 4933" class="cls-3" d="M39.151,82.43l.052-.006a.367.367,0,0,0,.277-.433.942.942,0,0,1,.046-.468.365.365,0,0,0-.687-.248,1.835,1.835,0,0,0-.069.878.368.368,0,0,0,.381.277" transform="translate(-16.372 -34.243)"/>
      <path id="패스_4934" data-name="패스 4934" class="cls-3" d="M36.354,85.981l.046-.006a.365.365,0,0,0,.283-.433,1.118,1.118,0,0,1,.04-.473.364.364,0,1,0-.681-.254,1.849,1.849,0,0,0-.064.883.348.348,0,0,0,.375.283" transform="translate(-15.192 -35.739)"/>
      <path id="패스_4935" data-name="패스 4935" class="cls-3" d="M35.393,100.2l.046-.006a.361.361,0,0,0,.283-.433,1.278,1.278,0,0,1,.04-.485.356.356,0,0,0-.219-.456.365.365,0,0,0-.468.225,1.942,1.942,0,0,0-.064.866.364.364,0,0,0,.381.289" transform="translate(-14.784 -41.751)"/>
      <path id="패스_4936" data-name="패스 4936" class="cls-3" d="M37.688,106.18l.052-.006a.365.365,0,0,0,.271-.439,1.257,1.257,0,0,1,.04-.479.364.364,0,0,0-.687-.243,1.925,1.925,0,0,0-.064.878.358.358,0,0,0,.387.289" transform="translate(-15.751 -44.273)"/>
      <path id="패스_4937" data-name="패스 4937" class="cls-3" d="M33.3,104.446h.058a.357.357,0,0,0,.266-.439,1.286,1.286,0,0,1,.046-.479.366.366,0,0,0-.225-.462.372.372,0,0,0-.468.225,1.956,1.956,0,0,0-.064.883.368.368,0,0,0,.387.271" transform="translate(-13.896 -43.545)"/>
      <path id="패스_4938" data-name="패스 4938" class="cls-3" d="M40.567,101.564l.052-.006a.371.371,0,0,0,.283-.433,1.13,1.13,0,0,1,.04-.479.348.348,0,0,0-.214-.462.364.364,0,0,0-.468.219,1.885,1.885,0,0,0-.069.872.349.349,0,0,0,.375.289" transform="translate(-16.974 -42.325)"/>
      <path id="패스_4939" data-name="패스 4939" class="cls-3" d="M76.523,151.255a.382.382,0,0,0,.306-.214,1.094,1.094,0,0,1,.294-.375.364.364,0,0,0,.1-.5.37.37,0,0,0-.508-.1,1.868,1.868,0,0,0-.549.687.361.361,0,0,0,.185.479.571.571,0,0,0,.173.023" transform="translate(-32.171 -63.387)"/>
      <path id="패스_4940" data-name="패스 4940" class="cls-3" d="M81.842,150.627a.357.357,0,0,0,.294-.214,1.233,1.233,0,0,1,.3-.387.361.361,0,1,0-.41-.595,1.789,1.789,0,0,0-.543.681.357.357,0,0,0,.173.479.363.363,0,0,0,.185.035" transform="translate(-34.418 -63.118)"/>
      <path id="패스_4941" data-name="패스 4941" class="cls-3" d="M81.385,139.154a.348.348,0,0,0,.3-.214,1.19,1.19,0,0,1,.3-.381.37.37,0,0,0,.092-.514.36.36,0,0,0-.5-.092,1.855,1.855,0,0,0-.549.687.36.36,0,0,0,.185.479.312.312,0,0,0,.173.035" transform="translate(-34.226 -58.268)"/>
      <path id="패스_4942" data-name="패스 4942" class="cls-3" d="M77.322,145.366a.369.369,0,0,0,.306-.219,1.338,1.338,0,0,1,.3-.387.363.363,0,0,0,.087-.508.375.375,0,0,0-.514-.081,1.853,1.853,0,0,0-.543.681.364.364,0,0,0,.191.479.442.442,0,0,0,.173.035" transform="translate(-32.507 -60.893)"/>
      <path id="패스_4943" data-name="패스 4943" class="cls-3" d="M81.443,144.492a.377.377,0,0,0,.306-.219,1.081,1.081,0,0,1,.3-.387.366.366,0,0,0-.427-.595,1.883,1.883,0,0,0-.543.687.361.361,0,0,0,.185.473.327.327,0,0,0,.179.04" transform="translate(-34.25 -60.522)"/>
      <path id="패스_4944" data-name="패스 4944" class="cls-3" d="M76.565,140.793a.371.371,0,0,0,.306-.214,1.216,1.216,0,0,1,.3-.387.368.368,0,0,0,.087-.508.357.357,0,0,0-.5-.092,1.867,1.867,0,0,0-.549.687.362.362,0,0,0,.185.479.312.312,0,0,0,.173.035" transform="translate(-32.19 -58.96)"/>
      <path id="패스_4945" data-name="패스 4945" class="cls-3" d="M72.768,149.676a.348.348,0,0,0,.3-.214,1.382,1.382,0,0,1,.3-.387.363.363,0,1,0-.416-.595,1.85,1.85,0,0,0-.549.681.353.353,0,0,0,.179.479.452.452,0,0,0,.185.035" transform="translate(-30.581 -62.715)"/>
      <path id="패스_4946" data-name="패스 4946" class="cls-2" d="M36.769,197.547,18,209.794,15.11,206,28.143,188.21Z" transform="translate(-6.385 -79.532)"/>
      <path id="패스_4947" data-name="패스 4947" class="cls-3" d="M19.92,207.65a3.339,3.339,0,0,0,2.928,3.672s2.506.37,1.6,2.477L18,218.009l-2.887-3.8Z" transform="translate(-6.385 -87.747)"/>
      <path id="패스_4948" data-name="패스 4948" class="cls-1" d="M8.725,219.02,0,220.983l7.235,7.3,4.377-5.468Z" transform="translate(0 -92.551)"/>
      <path id="패스_4949" data-name="패스 4949" class="cls-2" d="M83.59,190.957l21.948,4.573,1.311-4.591L88.227,179.12Z" transform="translate(-35.323 -75.691)"/>
      <path id="패스_4950" data-name="패스 4950" class="cls-3" d="M110.089,192.04a3.34,3.34,0,0,1-1.392,4.487s-2.2,1.259-.589,2.893l7.541,1.571,1.3-4.591Z" transform="translate(-45.434 -81.151)"/>
      <path id="패스_4951" data-name="패스 4951" class="cls-1" d="M122.911,198.605l8.835-1.345-4.077,9.429L121.6,203.2Z" transform="translate(-51.385 -83.356)"/>
      <path id="패스_4952" data-name="패스 4952" class="cls-4" d="M114.465,78.115l-.289-.185a.929.929,0,0,1-.4-.572.9.9,0,0,1,.1-.687l.035-.046a.934.934,0,0,1,1.247-.306l.052.035.289.185a.452.452,0,0,0,.635-.133.463.463,0,0,0-.133-.641l-.289-.185-.006-.006-.092-.064a1.868,1.868,0,0,0-2.489.6c-.023.035-.04.069-.064.1a1.879,1.879,0,0,0,.6,2.489l.289.185a.469.469,0,0,0,.641-.133.453.453,0,0,0-.127-.635" transform="translate(-47.673 -31.805)"/>
      <path id="패스_4953" data-name="패스 4953" class="cls-4" d="M121.555,71.8l-.179-.294a.934.934,0,0,1-.1-.687.951.951,0,0,1,.387-.572l.046-.029a.944.944,0,0,1,1.259.271l.029.052.179.294a.46.46,0,0,0,.629.162.466.466,0,0,0,.167-.635l-.179-.289h0l-.058-.1a1.872,1.872,0,0,0-2.5-.554l-.1.064a1.85,1.85,0,0,0-.774,1.138,1.882,1.882,0,0,0,.219,1.357l.173.3a.463.463,0,0,0,.635.162.468.468,0,0,0,.167-.641" transform="translate(-50.843 -29.223)"/>
      <path id="패스_4954" data-name="패스 4954" class="cls-1" d="M93.065,42.192l-.185-.318A.988.988,0,0,1,93.2,40.54l.052-.035a1.014,1.014,0,0,1,1.34.323l.035.052-.006-.006.185.323a.493.493,0,0,0,.67.185.5.5,0,0,0,.185-.676l-.179-.312a1,1,0,0,0-.064-.1,1.991,1.991,0,0,0-2.656-.635c-.035.023-.069.04-.1.064a1.992,1.992,0,0,0-.629,2.65l.185.318a.488.488,0,0,0,.676.185.511.511,0,0,0,.179-.681" transform="translate(-38.775 -16.646)"/>
      <path id="패스_4955" data-name="패스 4955" class="cls-1" d="M73.5,51.783l-.2-.346a1.115,1.115,0,0,1-.121-.82,1.134,1.134,0,0,1,.473-.67l.058-.029a1.108,1.108,0,0,1,1.49.346l.04.058.2.352a.548.548,0,1,0,.953-.543l-.208-.352a1.145,1.145,0,0,0-.064-.115,2.216,2.216,0,0,0-2.951-.7.618.618,0,0,0-.121.075,2.2,2.2,0,0,0-.93,1.328,2.235,2.235,0,0,0,.231,1.623l.2.352a.55.55,0,0,0,.751.2.581.581,0,0,0,.2-.762" transform="translate(-30.448 -20.567)"/>
    </g>
    <g id="그룹_1393" data-name="그룹 1393" transform="translate(1262.305 681.037)">
      <g id="그룹_1360" data-name="그룹 1360" transform="translate(15.683 16.11)">
        <path id="패스_4956" data-name="패스 4956" class="cls-6" d="M31.7,30.169A2.269,2.269,0,1,1,29.429,27.9,2.27,2.27,0,0,1,31.7,30.169Z" transform="translate(-27.16 -27.9)"/>
        <path id="패스_4957" data-name="패스 4957" class="cls-6" d="M31.7,37.049a2.269,2.269,0,1,1-2.269-2.269A2.27,2.27,0,0,1,31.7,37.049Z" transform="translate(-27.16 -30.807)"/>
        <path id="패스_4958" data-name="패스 4958" class="cls-6" d="M31.7,43.929a2.269,2.269,0,1,1-2.269-2.269A2.27,2.27,0,0,1,31.7,43.929Z" transform="translate(-27.16 -33.715)"/>
        <path id="패스_4959" data-name="패스 4959" class="cls-6" d="M31.7,50.809a2.269,2.269,0,1,1-2.269-2.269A2.27,2.27,0,0,1,31.7,50.809Z" transform="translate(-27.16 -36.622)"/>
      </g>
      <g id="그룹_1361" data-name="그룹 1361">
        <path id="패스_4960" data-name="패스 4960" class="cls-4" d="M31.71,27.33s7.022,2.483,7.807,11.427c0,0,5.959-11.427-7.807-12.207Z" transform="translate(-13.4 -11.219)"/>
        <path id="패스_4961" data-name="패스 4961" class="cls-4" d="M32.93,21.879s10.786-3.759,17.1,6.173c0,0,.427-14.193-17.1-7.31Z" transform="translate(-13.915 -7.969)"/>
        <path id="패스_4962" data-name="패스 4962" class="cls-4" d="M31.09,13.969s5.041-9.614,14.193-5.78c0,0-7.662,1.42-12.628,6.317Z" transform="translate(-13.138 -3.079)"/>
        <path id="패스_4963" data-name="패스 4963" class="cls-4" d="M6.51,9.266A18.19,18.19,0,0,1,19.7,15.439l.283-.959C19.993,14.48,17.366,5.934,6.51,9.266Z" transform="translate(-2.751 -3.59)"/>
        <path id="패스_4964" data-name="패스 4964" class="cls-4" d="M0,26.658S2.98,11.685,16.815,20.2v1.49A14.163,14.163,0,0,0,0,26.658Z" transform="translate(0 -7.43)"/>
        <path id="패스_4965" data-name="패스 4965" class="cls-4" d="M14.46,37.54s-1.819-9.019,7.841-11l.393,1.2C22.695,27.747,18.612,29.167,14.46,37.54Z" transform="translate(-6.053 -11.215)"/>
        <path id="패스_4966" data-name="패스 4966" class="cls-4" d="M34.25,0s-4.117,6.248-2.269,9.51l-2.627,1.38S25.947,3.055,34.25,0Z" transform="translate(-12.111)"/>
        <path id="패스_4967" data-name="패스 4967" class="cls-4" d="M32.34,21.326a2.349,2.349,0,0,1-2.35,2.35h0a2.349,2.349,0,0,1-2.35-2.35v-4a2.349,2.349,0,0,1,2.35-2.35h0a2.349,2.349,0,0,1,2.35,2.35Z" transform="translate(-11.68 -6.33)"/>
      </g>
      <g id="그룹_1362" data-name="그룹 1362" transform="translate(36.136 28.433)">
        <path id="패스_4968" data-name="패스 4968" class="cls-6" d="M67.119,51.509a2.269,2.269,0,1,1-2.269-2.269A2.27,2.27,0,0,1,67.119,51.509Z" transform="translate(-62.58 -49.24)"/>
        <path id="패스_4969" data-name="패스 4969" class="cls-6" d="M67.119,58.389a2.269,2.269,0,1,1-2.269-2.269A2.27,2.27,0,0,1,67.119,58.389Z" transform="translate(-62.58 -52.147)"/>
        <path id="패스_4970" data-name="패스 4970" class="cls-6" d="M67.119,65.269A2.269,2.269,0,1,1,64.849,63,2.27,2.27,0,0,1,67.119,65.269Z" transform="translate(-62.58 -55.055)"/>
      </g>
      <g id="그룹_1363" data-name="그룹 1363" transform="translate(28.317 20.037)">
        <path id="패스_4971" data-name="패스 4971" class="cls-4" d="M66.94,50.129a7.37,7.37,0,0,1,4.406,6.45s3.366-6.45-4.406-6.889Z" transform="translate(-56.604 -41.034)"/>
        <path id="패스_4972" data-name="패스 4972" class="cls-4" d="M67.63,47.053s6.092-2.125,9.655,3.488c0,0,.243-8.015-9.655-4.129Z" transform="translate(-56.896 -39.2)"/>
        <path id="패스_4973" data-name="패스 4973" class="cls-4" d="M66.59,42.589s2.847-5.428,8.015-3.262A15.537,15.537,0,0,0,67.473,42.9Z" transform="translate(-56.456 -36.439)"/>
        <path id="패스_4974" data-name="패스 4974" class="cls-4" d="M52.71,39.931a10.264,10.264,0,0,1,7.455,3.488l.162-.543S58.842,38.049,52.71,39.931Z" transform="translate(-50.591 -36.726)"/>
        <path id="패스_4975" data-name="패스 4975" class="cls-4" d="M49.04,49.748s1.68-8.454,9.493-3.649v.843A7.993,7.993,0,0,0,49.04,49.748Z" transform="translate(-49.04 -38.893)"/>
        <path id="패스_4976" data-name="패스 4976" class="cls-4" d="M57.2,55.9a5.227,5.227,0,0,1,4.429-6.207l.219.676S59.548,51.168,57.2,55.9Z" transform="translate(-52.457 -41.034)"/>
        <path id="패스_4977" data-name="패스 4977" class="cls-4" d="M68.38,34.7s-2.327,3.528-1.282,5.37l-1.484.78S63.691,36.421,68.38,34.7Z" transform="translate(-55.879 -34.7)"/>
        <path id="패스_4978" data-name="패스 4978" class="cls-4" d="M67.3,46.736a1.328,1.328,0,0,1-1.328,1.328h0a1.328,1.328,0,0,1-1.328-1.328V44.478a1.328,1.328,0,0,1,1.328-1.328h0A1.328,1.328,0,0,1,67.3,44.478Z" transform="translate(-55.632 -38.271)"/>
      </g>
    </g>
    <g id="그룹_1394" data-name="그룹 1394" transform="translate(1244.405 663.136)">
      <g id="그룹_1365" data-name="그룹 1365" transform="translate(15.614 0)">
        <path id="패스_4979" data-name="패스 4979" class="cls-2" d="M35.907,11.891a.6.6,0,0,0,.277-.069,6.123,6.123,0,0,0,3.268-4.435,6.219,6.219,0,0,0-1.865-5.428A6.491,6.491,0,0,0,33.02-.01H33a6.2,6.2,0,0,0-4.406,1.877,5.387,5.387,0,0,0-1.553,3.973,5.481,5.481,0,0,0,1.813,3.915,4.4,4.4,0,0,0,6.092-.237A3.782,3.782,0,0,0,36.1,6.971a3.469,3.469,0,0,0-1.057-2.587,3.215,3.215,0,0,0-2.385-.941,2.871,2.871,0,0,0-2.09.976,2.376,2.376,0,0,0-.422,2.044A2.008,2.008,0,0,0,31.38,7.918a.611.611,0,1,0,.445-1.138.829.829,0,0,1-.5-.606,1.2,1.2,0,0,1,.15-.953,1.667,1.667,0,0,1,1.213-.554,2.015,2.015,0,0,1,1.478.583,2.243,2.243,0,0,1,.7,1.68,2.6,2.6,0,0,1-.8,1.721,3.185,3.185,0,0,1-4.417.185,4.233,4.233,0,0,1-1.4-3.037,4.119,4.119,0,0,1,1.2-3.072,4.932,4.932,0,0,1,3.54-1.513h.023a5.273,5.273,0,0,1,3.7,1.605,5.043,5.043,0,0,1,1.53,4.371,4.892,4.892,0,0,1-2.616,3.54.607.607,0,0,0-.266.82A.614.614,0,0,0,35.907,11.891Z" transform="translate(-27.035 0.01)"/>
      </g>
      <g id="그룹_1366" data-name="그룹 1366" transform="translate(0 9.961)">
        <path id="패스_4980" data-name="패스 4980" class="cls-2" d="M8.867,29.141a.6.6,0,0,0,.277-.069,6.123,6.123,0,0,0,3.268-4.435,6.219,6.219,0,0,0-1.865-5.428A6.491,6.491,0,0,0,5.98,17.24H5.957a6.2,6.2,0,0,0-4.406,1.877A5.4,5.4,0,0,0,0,23.089,5.481,5.481,0,0,0,1.811,27,4.4,4.4,0,0,0,7.9,26.768a3.782,3.782,0,0,0,1.155-2.546A3.469,3.469,0,0,0,8,21.634a3.215,3.215,0,0,0-2.385-.941,2.871,2.871,0,0,0-2.09.976A2.376,2.376,0,0,0,3.1,23.713,2.008,2.008,0,0,0,4.34,25.168a.611.611,0,1,0,.445-1.138.829.829,0,0,1-.5-.606,1.2,1.2,0,0,1,.15-.953,1.667,1.667,0,0,1,1.213-.554,2.015,2.015,0,0,1,1.478.583,2.243,2.243,0,0,1,.7,1.68,2.6,2.6,0,0,1-.8,1.721,3.185,3.185,0,0,1-4.417.185,4.233,4.233,0,0,1-1.4-3.037,4.119,4.119,0,0,1,1.2-3.072,4.932,4.932,0,0,1,3.54-1.513h.023a5.273,5.273,0,0,1,3.7,1.605,5.043,5.043,0,0,1,1.53,4.371,4.892,4.892,0,0,1-2.616,3.54.607.607,0,0,0-.266.82A.621.621,0,0,0,8.867,29.141Z" transform="translate(0.005 -17.24)"/>
      </g>
    </g>
  </g>
</svg>
