<svg xmlns="http://www.w3.org/2000/svg" viewBox="0 0 78.215 99.507">
  <defs>
    <style>
      .cls-1 {
        fill: #fbd8b1;
      }

      .cls-2 {
        fill: #bce2e3;
      }

      .cls-3 {
        fill: #74c6be;
      }

      .cls-4 {
        fill: none;
        stroke: #74c6be;
        stroke-linecap: round;
        stroke-linejoin: round;
        stroke-miterlimit: 10;
        stroke-width: 1.237px;
      }

      .cls-5 {
        fill: #fdd35c;
      }
    </style>
  </defs>
  <g id="그룹_1640" data-name="그룹 1640" transform="translate(-224.054 -767.275)">
    <g id="그룹_1368" data-name="그룹 1368" transform="translate(254.605 767.275)">
      <path id="패스_4981" data-name="패스 4981" class="cls-1" d="M47.745,6.629c-.159-.149-.348-.388-.586-.338-.288.06-.566.447-.745.656-.258.308-.537.606-.8.9l-1.63-2.9-.765.6,1.232,3.567c-.179.2-.358.388-.537.586q-1.684,1.8-3.378,3.607c-.04.04-.725.745-.715.765-.5-.6-.954-1.242-1.441-1.858l-.01-.01c.04-.129.089-.268.129-.4.278-.825.537-1.639.815-2.464.119-.368.248-.725.368-1.093a.7.7,0,0,0,.01-.546c-.149-.308-.537-.447-.705-.129-.159.3-.219.636-.358.934-.388.845-.775,1.689-1.153,2.534-.547-.7-1.093-1.4-1.63-2.116-.219-.288-.467-.556-.676-.845-.109-.149-.229-.447-.447-.457-.268-.01-.527.427-.666.616-.537.676.447,1.441.775,1.957s.686,1.053,1.023,1.58c.626.964,1.252,1.928,1.878,2.9a1.889,1.889,0,0,1,.388.755,6.575,6.575,0,0,1-.079,1.242c-.03.378-.04.755-.06,1.133a6.157,6.157,0,0,0-.079,1.322c-1.113-.586-2.216-1.163-3.329-1.749-.437-.229-1.053-.855-1.312-.149-.1.268-.348.517-.378.8-.05.447.507.666.815.864,1.113.705,2.156,1.53,3.2,2.315.05.04.507.308.507.388-.01.705-.03,1.411-.04,2.106-.01.407-.02,5.127-.03,11.884a24.31,24.31,0,0,0-2.723-.447.624.624,0,0,0-.348.715c.109.815,2.385,1.143,3.07,1.371-.03,19.336-.06,46.521-.05,47.644a1.617,1.617,0,0,1-.079.815,2.284,2.284,0,0,1-.527.447,5.246,5.246,0,0,1-.676.437,4.023,4.023,0,0,0-.348.209c-.07.05-.328.189-.248.318.07.109.308.07.407.04.4-.079.785-.248,1.172-.368.318-.1.626-.2.954-.278a1.24,1.24,0,0,1,.189-.03,9.709,9.709,0,0,0,.964,1.649c.06.1.109.189.238.209.338.04.546-.4.7-.636.159-.268.328-.537.487-.8a.958.958,0,0,1,.119-.2l2.037.189a.81.81,0,0,0,.268,0c.179-.05.1-.209-.01-.288a3.221,3.221,0,0,0-.318-.169,3.4,3.4,0,0,1-.765-.586.884.884,0,0,1-.238-.417L41.4,27.555l3.08-1.143a.641.641,0,0,0-.388-.964l-2.693.606-.02-5.823a8.374,8.374,0,0,1,1.043-4.978c.507-.825,1.073-1.56,1.6-2.365.447-.676.825-1.391,1.252-2.077.308-.517.745-1.013,1.043-1.53a9.66,9.66,0,0,1,.9-1.431C47.447,7.583,48.152,7.007,47.745,6.629Z" transform="translate(-0.206 -0.032)"/>
      <path id="패스_4982" data-name="패스 4982" class="cls-1" d="M19.326,2.186c-.2-.189-.457-.507-.765-.447-.378.079-.725.576-.964.845-.348.4-.7.785-1.043,1.172L14.437,0l-.994.775,1.61,4.64-.7.755C12.9,7.74,11.437,9.29,9.976,10.85c-.05.05-.954.964-.924.994C8.4,11.069,7.8,10.234,7.184,9.429l-.01-.01c.06-.169.119-.348.169-.517C7.7,7.84,8.048,6.767,8.4,5.7c.149-.477.318-.954.467-1.421a.939.939,0,0,0,.01-.715c-.2-.4-.7-.586-.924-.169-.209.388-.288.815-.467,1.212-.5,1.093-1,2.2-1.5,3.3C5.276,7,4.561,6.091,3.875,5.167c-.288-.378-.616-.725-.884-1.1-.139-.2-.3-.586-.586-.586-.348-.01-.676.556-.874.795-.7.874.576,1.868,1,2.534.457.686.894,1.371,1.341,2.057.815,1.252,1.62,2.514,2.434,3.766a2.514,2.514,0,0,1,.507.984,8.124,8.124,0,0,1-.109,1.62c-.04.5-.05.984-.079,1.48a8.684,8.684,0,0,0-.1,1.719Q4.367,17.3,2.206,16.156c-.566-.3-1.371-1.1-1.709-.2C.368,16.305.04,16.633,0,17c-.06.586.666.864,1.063,1.123,1.451.914,2.792,1.977,4.163,3.011.07.05.656.4.656.5l-.06,2.742c-.01.537-.03,6.657-.04,15.441a31.168,31.168,0,0,0-3.537-.586.8.8,0,0,0-.457.934c.139,1.053,3.1,1.48,3.984,1.779-.02,25.139-.06,46.611-.05,48.071a2.135,2.135,0,0,1-.1,1.063,2.408,2.408,0,0,1-.686.576,6.259,6.259,0,0,1-.874.566c-.159.089-.308.169-.457.268-.1.07-.417.248-.328.407s.4.089.527.06c.517-.109,1.023-.328,1.53-.477.407-.129.815-.258,1.232-.358a2.385,2.385,0,0,1,.238-.04,12.835,12.835,0,0,0,1.252,2.146c.079.129.149.248.318.268.437.05.715-.517.9-.825.209-.348.417-.7.636-1.043.01-.02.129-.258.159-.258l2.643.238a.822.822,0,0,0,.348-.01c.229-.07.129-.278-.01-.368s-.278-.139-.407-.229a4.374,4.374,0,0,1-.994-.755,1.072,1.072,0,0,1-.3-.537l-.278-61.336,3.994-1.49a.834.834,0,0,0-.507-1.252l-3.5.795-.02-7.571a10.8,10.8,0,0,1,1.361-6.468c.666-1.063,1.391-2.027,2.087-3.08.576-.874,1.083-1.808,1.62-2.7.407-.666.964-1.312,1.361-1.987A11.957,11.957,0,0,1,18.65,3.756C18.939,3.428,19.843,2.673,19.326,2.186Z" transform="translate(0.003)"/>
      <path id="패스_4983" data-name="패스 4983" class="cls-1" d="M35.091,28.638a7.534,7.534,0,0,0-2.464-.2c-1.063-.03-1.659.02-2.723.079.238-.4.467-.8.705-1.2.358-.586.855-1.153,1.2-1.749a11.672,11.672,0,0,1,1.033-1.639c.258-.3,1.063-.964.606-1.391-.179-.169-.407-.447-.676-.388-.338.07-.646.507-.855.745C31,23.968,30.033,25,29.069,26.045q-1.923,2.072-3.865,4.124c-.04.04-.835.845-.815.874-.576-.686-1.093-1.421-1.639-2.126a.01.01,0,0,1-.01-.01c.05-.149.1-.308.149-.457.318-.944.616-1.878.934-2.822.139-.417.288-.835.417-1.252a.852.852,0,0,0,.01-.626c-.179-.348-.616-.507-.815-.149-.189.338-.248.725-.407,1.073-.437.964-.884,1.938-1.322,2.9-.626-.8-1.252-1.61-1.858-2.414-.248-.328-.537-.626-.775-.974-.119-.179-.268-.507-.517-.517-.308-.01-.6.487-.765.7-.616.775.507,1.649.884,2.236.388.606.785,1.212,1.172,1.808.715,1.1,1.431,2.206,2.146,3.319a2.157,2.157,0,0,1,.447.874,7.587,7.587,0,0,1-.089,1.421c-.03.437-.04.864-.07,1.3a7.314,7.314,0,0,0-.089,1.51c-1.272-.666-2.544-1.331-3.806-2-.5-.258-1.2-.974-1.5-.169-.109.308-.4.6-.437.924-.05.507.586.765.934.984,1.282.8,2.464,1.749,3.667,2.653.06.05.576.348.586.437-.02.8-.03.705-.05,1.51-.04,1.789-.109,50.486-.1,52.274a1.852,1.852,0,0,1-.089.934,2.142,2.142,0,0,1-.606.507,7.843,7.843,0,0,1-.765.507c-.139.079-.278.149-.407.238-.089.06-.368.219-.288.358s.348.079.467.05a13.3,13.3,0,0,0,1.351-.427c.358-.109.715-.229,1.083-.318a1.542,1.542,0,0,1,.209-.04,11.371,11.371,0,0,0,1.1,1.888c.07.109.129.219.278.238.388.05.626-.457.795-.735l.566-.924a1.27,1.27,0,0,1,.139-.229l2.325.209a1.067,1.067,0,0,0,.308,0c.2-.06.119-.248-.01-.328-.109-.079-.248-.129-.358-.2a3.614,3.614,0,0,1-.874-.676,1.106,1.106,0,0,1-.268-.467s-.189-33.574-.2-34.618c.01-.755,1.918-1.053,2.424-1.192.487-.129,1.938-.487,2.156-.944.437-.9-1.938-.149-2.355-.03-.318.089-2.226.457-2.226.944,0-.447,0-1.093-.07-20.131a9.47,9.47,0,0,1,1.192-5.693c.447-.725.934-1.391,1.4-2.077a33.7,33.7,0,0,0,4.243-.3c.457-.079.914-.159,1.381-.209a1.418,1.418,0,0,0,.884-.3A.552.552,0,0,0,35.091,28.638Z" transform="translate(-0.101 -0.141)"/>
    </g>
    <g id="그룹_1390" data-name="그룹 1390" transform="translate(224.054 819.165)">
      <g id="그룹_1375" data-name="그룹 1375" transform="translate(42.632 0)">
        <g id="그룹_1370" data-name="그룹 1370">
          <path id="패스_4984" data-name="패스 4984" class="cls-2" d="M68.378,39.715a.437.437,0,0,1-.4-.27C62.881,27.167,63.492,13.4,63.5,13.269a.441.441,0,0,1,.881.043c-.007.135-.6,13.706,4.41,25.8a.444.444,0,0,1-.234.575A.836.836,0,0,1,68.378,39.715Z" transform="translate(-61.026 -3.723)"/>
          <path id="패스_4985" data-name="패스 4985" class="cls-2" d="M64.13,11.706a.361.361,0,0,1-.121-.021.367.367,0,0,1-.227-.469l2.244-6.526a.368.368,0,0,1,.7.241l-2.251,6.526A.358.358,0,0,1,64.13,11.706Z" transform="translate(-61.11 -1.287)"/>
          <path id="패스_4986" data-name="패스 4986" class="cls-2" d="M63.227,11.53a.372.372,0,0,1-.362-.312L61.9,4.4a.367.367,0,0,1,.312-.412.362.362,0,0,1,.412.312l.966,6.81a.367.367,0,0,1-.312.412A.121.121,0,0,1,63.227,11.53Z" transform="translate(-60.569 -1.154)"/>
          <path id="패스_4987" data-name="패스 4987" class="cls-2" d="M64.1,9.033h-.036a.367.367,0,0,1-.334-.4l.731-8.3a.378.378,0,0,1,.4-.334A.371.371,0,0,1,65.2.4l-.731,8.3A.37.37,0,0,1,64.1,9.033Z" transform="translate(-61.1 0.001)"/>
          <path id="패스_4988" data-name="패스 4988" class="cls-2" d="M64.331,13.047a.356.356,0,0,1-.241-.092.369.369,0,0,1-.036-.518l2.72-3.1a.376.376,0,0,1,.518-.036.369.369,0,0,1,.036.518l-2.713,3.1A.379.379,0,0,1,64.331,13.047Z" transform="translate(-61.168 -2.671)"/>
          <path id="패스_4989" data-name="패스 4989" class="cls-2" d="M62.9,12.907a.371.371,0,0,1-.3-.156L60.093,9.164a.367.367,0,1,1,.6-.419L63.2,12.332a.367.367,0,0,1-.092.511A.393.393,0,0,1,62.9,12.907Z" transform="translate(-60.027 -2.488)"/>
          <g id="그룹_1369" data-name="그룹 1369" transform="translate(0.746 7.129)">
            <path id="패스_4990" data-name="패스 4990" class="cls-2" d="M63.224,13.874h.007c.057,0,.114.007.163.007a2.05,2.05,0,0,0,2-1.612.19.19,0,0,0-.035-.163.216.216,0,0,0-.149-.085,2.194,2.194,0,0,0-1.449.362,2.03,2.03,0,0,0-.107-2.251.2.2,0,0,0-.142-.092.22.22,0,0,0-.163.043,2.082,2.082,0,0,0-.561,2.294,2.131,2.131,0,0,0-1.442-.568.209.209,0,0,0-.156.064.2.2,0,0,0-.057.163A2.05,2.05,0,0,0,63.224,13.874Zm-.014-.93h.014c0,.007-.007.007-.007.014A.025.025,0,0,1,63.21,12.944Z" transform="translate(-61.093 -10.038)"/>
            <path id="패스_4991" data-name="패스 4991" class="cls-2" d="M63.139,17.117H63.3A2.049,2.049,0,0,0,65.355,15.4a.22.22,0,0,0-.043-.163.215.215,0,0,0-.156-.071h-.043a2.04,2.04,0,0,0-1.9,1.044,2.063,2.063,0,0,0-1.932-1.058.228.228,0,0,0-.156.071.225.225,0,0,0-.05.163A2.055,2.055,0,0,0,63.139,17.117Z" transform="translate(-61.078 -11.519)"/>
            <path id="패스_4992" data-name="패스 4992" class="cls-2" d="M63.216,19.6h.163a2.057,2.057,0,0,0,2.052-1.719.2.2,0,0,0-.05-.163.2.2,0,0,0-.156-.071h-.043a2.028,2.028,0,0,0-1.9,1.044,2.051,2.051,0,0,0-1.932-1.058.228.228,0,0,0-.156.071.2.2,0,0,0-.05.163A2.078,2.078,0,0,0,63.216,19.6Z" transform="translate(-61.098 -12.238)"/>
            <path id="패스_4993" data-name="패스 4993" class="cls-2" d="M63.289,22.094c.071,0,.149,0,.227-.007h.007A2.056,2.056,0,0,0,65.54,20.3a.225.225,0,0,0-.05-.163.22.22,0,0,0-.156-.064,2.024,2.024,0,0,0-1.9,1.108,2.039,2.039,0,0,0-1.967-.98.185.185,0,0,0-.149.078.229.229,0,0,0-.043.163A2.027,2.027,0,0,0,63.289,22.094Z" transform="translate(-61.136 -12.945)"/>
          </g>
          <path id="패스_4994" data-name="패스 4994" class="cls-2" d="M72.61,43.15" transform="translate(-63.674 -12.505)"/>
          <path id="패스_4995" data-name="패스 4995" class="cls-2" d="M70.145,30.39s-3.032,5-2.791,8.458C67.362,38.855,68.434,37.8,70.145,30.39Z" transform="translate(-62.147 -8.807)"/>
          <path id="패스_4996" data-name="패스 4996" class="cls-2" d="M61.7,41.36s4.815,3.316,6.015,6.576C67.715,47.936,66.3,47.418,61.7,41.36Z" transform="translate(-60.512 -11.987)"/>
        </g>
        <path id="패스_4997" data-name="패스 4997" class="cls-3" d="M85.817,53.188a.437.437,0,0,1-.4-.27c-5.092-12.272-4.481-26.035-4.481-26.177a.437.437,0,0,1,.462-.412.448.448,0,0,1,.419.462c-.007.135-.6,13.706,4.41,25.793a.442.442,0,0,1-.234.575A.713.713,0,0,1,85.817,53.188Z" transform="translate(-66.079 -7.63)"/>
        <path id="패스_4998" data-name="패스 4998" class="cls-3" d="M81.57,25.179a.369.369,0,0,1-.348-.483l2.251-6.526a.362.362,0,0,1,.462-.227.37.37,0,0,1,.227.469l-2.251,6.526A.368.368,0,0,1,81.57,25.179Z" transform="translate(-66.165 -5.194)"/>
        <path id="패스_4999" data-name="패스 4999" class="cls-3" d="M80.667,25a.372.372,0,0,1-.362-.312l-.966-6.81a.367.367,0,0,1,.312-.412.362.362,0,0,1,.412.312l.966,6.81a.367.367,0,0,1-.312.412A.116.116,0,0,0,80.667,25Z" transform="translate(-65.623 -5.061)"/>
        <path id="패스_5000" data-name="패스 5000" class="cls-3" d="M81.529,22.5h-.036a.372.372,0,0,1-.334-.4l.739-8.3a.363.363,0,0,1,.4-.334.376.376,0,0,1,.334.4l-.731,8.3A.37.37,0,0,1,81.529,22.5Z" transform="translate(-66.152 -3.903)"/>
        <path id="패스_5001" data-name="패스 5001" class="cls-3" d="M81.77,26.519a.356.356,0,0,1-.241-.092.361.361,0,0,1-.035-.511l2.72-3.1a.369.369,0,0,1,.518-.036.376.376,0,0,1,.036.518l-2.72,3.1A.382.382,0,0,1,81.77,26.519Z" transform="translate(-66.223 -6.576)"/>
        <path id="패스_5002" data-name="패스 5002" class="cls-3" d="M80.328,26.375a.371.371,0,0,1-.3-.156l-2.507-3.593a.367.367,0,0,1,.092-.511.374.374,0,0,1,.511.092l2.507,3.586a.366.366,0,0,1-.092.511A.335.335,0,0,1,80.328,26.375Z" transform="translate(-65.079 -6.39)"/>
        <path id="패스_5003" data-name="패스 5003" class="cls-4" d="M90.04,56.62" transform="translate(-68.726 -16.41)"/>
        <path id="패스_5004" data-name="패스 5004" class="cls-3" d="M87.585,43.86s-3.032,5-2.791,8.458C84.794,52.318,85.867,51.267,87.585,43.86Z" transform="translate(-67.202 -12.711)"/>
        <path id="패스_5005" data-name="패스 5005" class="cls-3" d="M79.13,54.83s4.815,3.316,6.015,6.576C85.145,61.4,83.739,60.881,79.13,54.83Z" transform="translate(-65.564 -15.891)"/>
        <path id="패스_5006" data-name="패스 5006" class="cls-3" d="M87.99,64.1a.477.477,0,0,1-.17.028" transform="translate(-68.082 -18.577)"/>
        <g id="그룹_1372" data-name="그룹 1372" transform="translate(13.132 16.695)">
          <g id="그룹_1371" data-name="그룹 1371">
            <path id="패스_5007" data-name="패스 5007" class="cls-5" d="M80.662,27.344h.007c.057,0,.114.007.163.007a2.05,2.05,0,0,0,2-1.612.19.19,0,0,0-.036-.163.185.185,0,0,0-.149-.078,2.154,2.154,0,0,0-1.449.362,2.042,2.042,0,0,0-.107-2.258.22.22,0,0,0-.142-.092.2.2,0,0,0-.163.05,2.082,2.082,0,0,0-.561,2.294,2.17,2.17,0,0,0-1.449-.568.209.209,0,0,0-.156.064.214.214,0,0,0-.057.156A2.067,2.067,0,0,0,80.662,27.344Zm-.021-.93h.014c0,.007-.007.007-.007.014A.022.022,0,0,0,80.641,26.414Z" transform="translate(-78.53 -23.508)"/>
            <path id="패스_5008" data-name="패스 5008" class="cls-5" d="M80.579,30.59h.163a2.057,2.057,0,0,0,2.052-1.719.208.208,0,0,0-.206-.234h-.043a2.032,2.032,0,0,0-1.9,1.051,2.047,2.047,0,0,0-1.925-1.058.228.228,0,0,0-.156.071.225.225,0,0,0-.05.163A2.054,2.054,0,0,0,80.579,30.59Z" transform="translate(-78.518 -24.992)"/>
            <path id="패스_5009" data-name="패스 5009" class="cls-5" d="M80.656,33.067h.163a2.049,2.049,0,0,0,2.052-1.719.2.2,0,0,0-.05-.163.183.183,0,0,0-.156-.071h-.043a2.028,2.028,0,0,0-1.9,1.044A2.063,2.063,0,0,0,78.8,31.1a.228.228,0,0,0-.156.071.225.225,0,0,0-.05.163A2.071,2.071,0,0,0,80.656,33.067Z" transform="translate(-78.538 -25.708)"/>
            <path id="패스_5010" data-name="패스 5010" class="cls-5" d="M80.726,35.554c.071,0,.142,0,.22-.007h.014a2.051,2.051,0,0,0,2.01-1.79.225.225,0,0,0-.05-.163.22.22,0,0,0-.156-.064,2.023,2.023,0,0,0-1.9,1.108,2.054,2.054,0,0,0-1.967-.987.185.185,0,0,0-.149.078.22.22,0,0,0-.043.163A2.035,2.035,0,0,0,80.726,35.554Z" transform="translate(-78.573 -26.412)"/>
          </g>
          <path id="패스_5011" data-name="패스 5011" class="cls-5" d="M81.063,32.946a58.868,58.868,0,0,1-.135-6.214.437.437,0,0,1,.462-.412.448.448,0,0,1,.419.462c0,.057-.107,2.407.128,5.994Z" transform="translate(-79.208 -24.322)"/>
        </g>
        <g id="그룹_1374" data-name="그룹 1374" transform="translate(0.732 7.122)">
          <g id="그룹_1373" data-name="그룹 1373">
            <path id="패스_5012" data-name="패스 5012" class="cls-5" d="M63.214,13.871h.014c.057,0,.114.007.163.007a2.05,2.05,0,0,0,2-1.612.19.19,0,0,0-.036-.163.216.216,0,0,0-.149-.085,2.206,2.206,0,0,0-1.449.362,2.042,2.042,0,0,0-.107-2.258.2.2,0,0,0-.142-.092.22.22,0,0,0-.163.043,2.082,2.082,0,0,0-.561,2.294,2.136,2.136,0,0,0-1.449-.568.209.209,0,0,0-.156.064.2.2,0,0,0-.057.163A2.064,2.064,0,0,0,63.214,13.871Zm-.014-.93h.014c0,.007-.007.007-.007.014A.022.022,0,0,0,63.2,12.941Z" transform="translate(-61.075 -10.028)"/>
            <path id="패스_5013" data-name="패스 5013" class="cls-5" d="M63.126,17.117h.163A2.049,2.049,0,0,0,65.342,15.4a.2.2,0,0,0-.05-.163.215.215,0,0,0-.156-.071h-.043a2.04,2.04,0,0,0-1.9,1.044,2.051,2.051,0,0,0-1.932-1.058.228.228,0,0,0-.156.071.225.225,0,0,0-.05.163A2.073,2.073,0,0,0,63.126,17.117Z" transform="translate(-61.058 -11.512)"/>
            <path id="패스_5014" data-name="패스 5014" class="cls-5" d="M63.216,19.6h.163a2.065,2.065,0,0,0,2.052-1.719.2.2,0,0,0-.05-.163.2.2,0,0,0-.156-.071h-.043a2.028,2.028,0,0,0-1.9,1.044,2.063,2.063,0,0,0-1.932-1.058.228.228,0,0,0-.156.071.225.225,0,0,0-.05.163A2.071,2.071,0,0,0,63.216,19.6Z" transform="translate(-61.084 -12.231)"/>
            <path id="패스_5015" data-name="패스 5015" class="cls-5" d="M63.273,22.084c.071,0,.149,0,.227-.007h.007a2.069,2.069,0,0,0,2.017-1.79.2.2,0,0,0-.057-.163.22.22,0,0,0-.156-.064,2.044,2.044,0,0,0-1.9,1.108,2.039,2.039,0,0,0-1.967-.98.185.185,0,0,0-.149.078.229.229,0,0,0-.043.163A2.065,2.065,0,0,0,63.273,22.084Z" transform="translate(-61.113 -12.935)"/>
          </g>
          <path id="패스_5016" data-name="패스 5016" class="cls-5" d="M63.624,19.476a61.188,61.188,0,0,1-.135-6.207.441.441,0,0,1,.881.043c0,.057-.107,2.407.128,5.994Z" transform="translate(-61.755 -10.845)"/>
        </g>
      </g>
      <g id="그룹_1382" data-name="그룹 1382" transform="translate(21.319 1.03)">
        <g id="그룹_1377" data-name="그룹 1377">
          <path id="패스_5017" data-name="패스 5017" class="cls-2" d="M38.366,41.165a.437.437,0,0,1-.4-.27c-5.092-12.272-4.488-26.042-4.481-26.177a.439.439,0,0,1,.462-.419.448.448,0,0,1,.419.462c-.007.135-.6,13.706,4.41,25.793a.442.442,0,0,1-.234.575A.488.488,0,0,1,38.366,41.165Z" transform="translate(-31.013 -5.173)"/>
          <path id="패스_5018" data-name="패스 5018" class="cls-2" d="M34.12,13.156A.394.394,0,0,1,34,13.134a.37.37,0,0,1-.227-.469l2.251-6.526a.368.368,0,0,1,.7.241l-2.244,6.526A.4.4,0,0,1,34.12,13.156Z" transform="translate(-31.1 -2.737)"/>
          <path id="패스_5019" data-name="패스 5019" class="cls-2" d="M33.216,12.983a.372.372,0,0,1-.362-.312l-.966-6.81a.362.362,0,0,1,.312-.412.367.367,0,0,1,.412.312l.966,6.81a.367.367,0,0,1-.312.412Z" transform="translate(-30.559 -2.607)"/>
          <path id="패스_5020" data-name="패스 5020" class="cls-2" d="M34.092,10.483h-.028a.367.367,0,0,1-.334-.4l.739-8.3a.363.363,0,0,1,.4-.334.372.372,0,0,1,.334.4l-.746,8.3A.363.363,0,0,1,34.092,10.483Z" transform="translate(-31.093 -1.449)"/>
          <path id="패스_5021" data-name="패스 5021" class="cls-2" d="M34.32,14.5a.356.356,0,0,1-.241-.092.369.369,0,0,1-.036-.518l2.713-3.1a.369.369,0,0,1,.518-.036.376.376,0,0,1,.036.518l-2.713,3.1A.364.364,0,0,1,34.32,14.5Z" transform="translate(-31.158 -4.119)"/>
          <path id="패스_5022" data-name="패스 5022" class="cls-2" d="M32.888,14.358a.371.371,0,0,1-.3-.156l-2.507-3.586a.367.367,0,0,1,.092-.511.373.373,0,0,1,.511.092l2.507,3.586a.373.373,0,0,1-.092.511A.411.411,0,0,1,32.888,14.358Z" transform="translate(-30.017 -3.939)"/>
          <g id="그룹_1376" data-name="그룹 1376" transform="translate(0.739 7.136)">
            <path id="패스_5023" data-name="패스 5023" class="cls-2" d="M33.217,15.334h.014c.057,0,.107.007.163.007a2.05,2.05,0,0,0,2-1.612.19.19,0,0,0-.036-.163.185.185,0,0,0-.149-.078,2.154,2.154,0,0,0-1.449.362,2.042,2.042,0,0,0-.107-2.258.2.2,0,0,0-.305-.043,2.082,2.082,0,0,0-.561,2.294,2.131,2.131,0,0,0-1.442-.568.209.209,0,0,0-.156.064.188.188,0,0,0-.057.156A2.042,2.042,0,0,0,33.217,15.334ZM33.2,14.4h.014c0,.007-.007.007-.007.014S33.2,14.4,33.2,14.4Z" transform="translate(-31.078 -11.498)"/>
            <path id="패스_5024" data-name="패스 5024" class="cls-2" d="M33.126,18.577h.163a2.049,2.049,0,0,0,2.052-1.719.2.2,0,0,0-.05-.163.2.2,0,0,0-.156-.071h-.043a2.028,2.028,0,0,0-1.9,1.044,2.051,2.051,0,0,0-1.932-1.058.228.228,0,0,0-.156.071.225.225,0,0,0-.05.163A2.071,2.071,0,0,0,33.126,18.577Z" transform="translate(-31.058 -12.979)"/>
            <path id="패스_5025" data-name="패스 5025" class="cls-2" d="M33.206,21.047h.163a2.057,2.057,0,0,0,2.052-1.719.2.2,0,0,0-.05-.163.2.2,0,0,0-.156-.071h-.043a2.028,2.028,0,0,0-1.9,1.044,2.051,2.051,0,0,0-1.932-1.058.228.228,0,0,0-.156.071.215.215,0,0,0-.05.163A2.071,2.071,0,0,0,33.206,21.047Z" transform="translate(-31.081 -13.695)"/>
            <path id="패스_5026" data-name="패스 5026" class="cls-2" d="M33.273,23.534c.071,0,.149,0,.22-.007H33.5a2.056,2.056,0,0,0,2.017-1.79.208.208,0,0,0-.05-.156.264.264,0,0,0-.156-.071,2.044,2.044,0,0,0-1.9,1.108,2.039,2.039,0,0,0-1.967-.98.185.185,0,0,0-.149.078.22.22,0,0,0-.043.163A2.051,2.051,0,0,0,33.273,23.534Z" transform="translate(-31.113 -14.4)"/>
          </g>
          <path id="패스_5027" data-name="패스 5027" class="cls-2" d="M42.59,44.6" transform="translate(-33.661 -13.955)"/>
          <path id="패스_5028" data-name="패스 5028" class="cls-2" d="M40.135,31.84s-3.032,5-2.791,8.458C37.344,40.3,38.417,39.254,40.135,31.84Z" transform="translate(-32.137 -10.257)"/>
          <path id="패스_5029" data-name="패스 5029" class="cls-2" d="M31.68,42.81s4.815,3.316,6.015,6.576C37.7,49.386,36.289,48.868,31.68,42.81Z" transform="translate(-30.499 -13.437)"/>
        </g>
        <path id="패스_5030" data-name="패스 5030" class="cls-3" d="M55.8,54.638a.449.449,0,0,1-.4-.27C50.3,42.089,50.9,28.326,50.91,28.191a.428.428,0,0,1,.462-.412.441.441,0,0,1,.419.455c-.007.135-.6,13.713,4.41,25.8a.442.442,0,0,1-.234.575A.713.713,0,0,1,55.8,54.638Z" transform="translate(-36.065 -9.08)"/>
        <path id="패스_5031" data-name="패스 5031" class="cls-3" d="M51.55,26.626a.361.361,0,0,1-.121-.021.37.37,0,0,1-.227-.469l2.244-6.526a.37.37,0,0,1,.469-.227.365.365,0,0,1,.227.462L51.891,26.37A.35.35,0,0,1,51.55,26.626Z" transform="translate(-36.152 -6.641)"/>
        <path id="패스_5032" data-name="패스 5032" class="cls-3" d="M50.647,26.453a.372.372,0,0,1-.362-.312l-.966-6.81a.366.366,0,0,1,.724-.1l.966,6.81a.367.367,0,0,1-.312.412C50.682,26.446,50.661,26.453,50.647,26.453Z" transform="translate(-35.61 -6.511)"/>
        <path id="패스_5033" data-name="패스 5033" class="cls-3" d="M51.522,23.953h-.028a.371.371,0,0,1-.334-.4l.739-8.3a.367.367,0,0,1,.4-.334.376.376,0,0,1,.334.4l-.739,8.3A.375.375,0,0,1,51.522,23.953Z" transform="translate(-36.145 -5.353)"/>
        <path id="패스_5034" data-name="패스 5034" class="cls-3" d="M51.76,27.967a.356.356,0,0,1-.241-.092.369.369,0,0,1-.035-.518l2.713-3.1a.376.376,0,0,1,.518-.036.363.363,0,0,1,.036.518l-2.713,3.1A.375.375,0,0,1,51.76,27.967Z" transform="translate(-36.213 -8.025)"/>
        <path id="패스_5035" data-name="패스 5035" class="cls-3" d="M50.319,27.828a.371.371,0,0,1-.3-.156l-2.507-3.586a.367.367,0,0,1,.6-.419l2.507,3.586a.374.374,0,0,1-.092.511A.393.393,0,0,1,50.319,27.828Z" transform="translate(-35.07 -7.843)"/>
        <path id="패스_5036" data-name="패스 5036" class="cls-4" d="M60.03,58.07" transform="translate(-38.716 -17.86)"/>
        <path id="패스_5037" data-name="패스 5037" class="cls-3" d="M57.575,45.31s-3.032,5-2.791,8.458C54.784,53.768,55.857,52.724,57.575,45.31Z" transform="translate(-37.192 -14.161)"/>
        <path id="패스_5038" data-name="패스 5038" class="cls-3" d="M49.12,56.28s4.815,3.316,6.015,6.569C55.135,62.849,53.722,62.331,49.12,56.28Z" transform="translate(-35.554 -17.341)"/>
        <path id="패스_5039" data-name="패스 5039" class="cls-3" d="M57.97,65.55a.488.488,0,0,1-.17.036" transform="translate(-38.07 -20.027)"/>
        <g id="그룹_1379" data-name="그룹 1379" transform="translate(13.117 16.695)">
          <g id="그룹_1378" data-name="그룹 1378">
            <path id="패스_5040" data-name="패스 5040" class="cls-5" d="M50.647,28.794h.014c.057,0,.114.007.163.007a2.07,2.07,0,0,0,2-1.612.19.19,0,0,0-.035-.163.185.185,0,0,0-.149-.078,2.165,2.165,0,0,0-1.449.362,2.042,2.042,0,0,0-.107-2.258.2.2,0,0,0-.142-.092.22.22,0,0,0-.163.043,2.082,2.082,0,0,0-.561,2.294,2.136,2.136,0,0,0-1.449-.568.209.209,0,0,0-.156.064.2.2,0,0,0-.057.163A2.04,2.04,0,0,0,50.647,28.794Zm-.014-.93h.014l-.014.014C50.64,27.878,50.633,27.871,50.633,27.864Z" transform="translate(-48.508 -24.958)"/>
            <path id="패스_5041" data-name="패스 5041" class="cls-5" d="M50.556,32.037h.163a2.065,2.065,0,0,0,2.052-1.719.2.2,0,0,0-.05-.163.2.2,0,0,0-.156-.071h-.043a2.04,2.04,0,0,0-1.9,1.044A2.063,2.063,0,0,0,48.7,30.07a.228.228,0,0,0-.156.071.225.225,0,0,0-.05.163A2.073,2.073,0,0,0,50.556,32.037Z" transform="translate(-48.488 -26.439)"/>
            <path id="패스_5042" data-name="패스 5042" class="cls-5" d="M50.636,34.517H50.8A2.057,2.057,0,0,0,52.852,32.8a.2.2,0,0,0-.05-.163.2.2,0,0,0-.156-.071H52.6a2.028,2.028,0,0,0-1.9,1.044,2.051,2.051,0,0,0-1.932-1.058.228.228,0,0,0-.156.071.225.225,0,0,0-.05.163A2.078,2.078,0,0,0,50.636,34.517Z" transform="translate(-48.511 -27.158)"/>
            <path id="패스_5043" data-name="패스 5043" class="cls-5" d="M50.706,37c.071,0,.149-.007.227-.007h.007a2.048,2.048,0,0,0,2.017-1.79.235.235,0,0,0-.05-.163.22.22,0,0,0-.156-.064,2.068,2.068,0,0,0-1.9,1.108,2.027,2.027,0,0,0-1.967-.98.185.185,0,0,0-.149.078.22.22,0,0,0-.043.163A2.046,2.046,0,0,0,50.706,37Z" transform="translate(-48.546 -27.862)"/>
          </g>
          <path id="패스_5044" data-name="패스 5044" class="cls-5" d="M51.053,34.4a58.867,58.867,0,0,1-.135-6.214.428.428,0,0,1,.462-.412.441.441,0,0,1,.419.455c0,.057-.107,2.407.128,5.994Z" transform="translate(-49.184 -25.772)"/>
        </g>
        <g id="그룹_1381" data-name="그룹 1381" transform="translate(0.739 7.136)">
          <g id="그룹_1380" data-name="그룹 1380">
            <path id="패스_5045" data-name="패스 5045" class="cls-5" d="M33.207,15.334h.014c.057,0,.114.007.163.007a2.05,2.05,0,0,0,2-1.612.173.173,0,0,0-.043-.163.185.185,0,0,0-.149-.078,2.154,2.154,0,0,0-1.449.362,2.042,2.042,0,0,0-.107-2.258.2.2,0,0,0-.305-.043,2.072,2.072,0,0,0-.554,2.294,2.131,2.131,0,0,0-1.442-.568.2.2,0,0,0-.156.064.2.2,0,0,0-.057.163A2.05,2.05,0,0,0,33.207,15.334Zm-.014-.937a.007.007,0,0,1,.007.007.007.007,0,0,0,.007-.007.009.009,0,1,1-.014,0Z" transform="translate(-31.075 -11.498)"/>
            <path id="패스_5046" data-name="패스 5046" class="cls-5" d="M33.119,18.577h.163a2.065,2.065,0,0,0,2.052-1.719.2.2,0,0,0-.05-.163.2.2,0,0,0-.149-.071h-.043a2.028,2.028,0,0,0-1.9,1.044,2.051,2.051,0,0,0-1.932-1.058.215.215,0,0,0-.156.071.2.2,0,0,0-.05.163A2.052,2.052,0,0,0,33.119,18.577Z" transform="translate(-31.058 -12.979)"/>
            <path id="패스_5047" data-name="패스 5047" class="cls-5" d="M33.2,21.047h.163a2.065,2.065,0,0,0,2.052-1.719.2.2,0,0,0-.05-.163.2.2,0,0,0-.156-.071h-.043a2.04,2.04,0,0,0-1.9,1.044,2.051,2.051,0,0,0-1.932-1.058.228.228,0,0,0-.156.071.2.2,0,0,0-.05.163A2.078,2.078,0,0,0,33.2,21.047Z" transform="translate(-31.078 -13.695)"/>
            <path id="패스_5048" data-name="패스 5048" class="cls-5" d="M33.263,23.534c.071,0,.149,0,.22-.007h.007a2.048,2.048,0,0,0,2.017-1.79.208.208,0,0,0-.05-.156.264.264,0,0,0-.156-.071,2.044,2.044,0,0,0-1.9,1.108,2.047,2.047,0,0,0-1.967-.987.185.185,0,0,0-.149.078.22.22,0,0,0-.043.163A2.057,2.057,0,0,0,33.263,23.534Z" transform="translate(-31.11 -14.4)"/>
          </g>
          <path id="패스_5049" data-name="패스 5049" class="cls-5" d="M33.613,20.926a58.724,58.724,0,0,1-.135-6.207.439.439,0,0,1,.462-.419.448.448,0,0,1,.419.462c0,.057-.107,2.4.128,5.994Z" transform="translate(-31.751 -12.309)"/>
        </g>
      </g>
      <g id="그룹_1389" data-name="그룹 1389" transform="translate(0 2.059)">
        <g id="그룹_1384" data-name="그룹 1384">
          <path id="패스_5050" data-name="패스 5050" class="cls-2" d="M8.355,42.615a.437.437,0,0,1-.4-.27C2.851,30.067,3.462,16.3,3.469,16.169a.441.441,0,0,1,.881.043c-.007.135-.6,13.706,4.41,25.793a.442.442,0,0,1-.234.575A.523.523,0,0,1,8.355,42.615Z" transform="translate(-0.996 -6.623)"/>
          <path id="패스_5051" data-name="패스 5051" class="cls-2" d="M4.1,14.606a.361.361,0,0,1-.121-.021.37.37,0,0,1-.227-.469L6,7.589a.368.368,0,0,1,.7.241L4.448,14.357A.367.367,0,0,1,4.1,14.606Z" transform="translate(-1.08 -4.187)"/>
          <path id="패스_5052" data-name="패스 5052" class="cls-2" d="M3.2,14.43a.372.372,0,0,1-.362-.312L1.869,7.3a.366.366,0,0,1,.724-.1l.966,6.81a.374.374,0,0,1-.312.419Z" transform="translate(-0.539 -4.054)"/>
          <path id="패스_5053" data-name="패스 5053" class="cls-2" d="M4.072,11.933H4.043a.372.372,0,0,1-.334-.4l.739-8.3A.357.357,0,0,1,4.839,2.9a.366.366,0,0,1,.334.4l-.731,8.3A.37.37,0,0,1,4.072,11.933Z" transform="translate(-1.073 -2.899)"/>
          <path id="패스_5054" data-name="패스 5054" class="cls-2" d="M4.31,15.946a.356.356,0,0,1-.241-.092.369.369,0,0,1-.036-.518l2.713-3.1a.369.369,0,0,1,.518-.036.376.376,0,0,1,.036.518l-2.72,3.1A.35.35,0,0,1,4.31,15.946Z" transform="translate(-1.141 -5.569)"/>
          <path id="패스_5055" data-name="패스 5055" class="cls-2" d="M2.868,15.807a.371.371,0,0,1-.3-.156L.063,12.064a.367.367,0,0,1,.6-.419l2.507,3.586a.366.366,0,0,1-.092.511A.393.393,0,0,1,2.868,15.807Z" transform="translate(0.003 -5.388)"/>
          <g id="그룹_1383" data-name="그룹 1383" transform="translate(0.739 7.129)">
            <path id="패스_5056" data-name="패스 5056" class="cls-2" d="M3.2,16.774h.014c.057,0,.107.007.163.007a2.05,2.05,0,0,0,2-1.612.19.19,0,0,0-.036-.163.185.185,0,0,0-.149-.078,2.166,2.166,0,0,0-1.449.362,2.041,2.041,0,0,0-.107-2.258.2.2,0,0,0-.142-.092.22.22,0,0,0-.163.043,2.078,2.078,0,0,0-.554,2.294,2.136,2.136,0,0,0-1.449-.568.209.209,0,0,0-.156.064.2.2,0,0,0-.057.163A2.047,2.047,0,0,0,3.2,16.774Zm-.014-.93H3.2c0,.007-.007.007-.007.014A.022.022,0,0,0,3.183,15.844Z" transform="translate(-1.058 -12.938)"/>
            <path id="패스_5057" data-name="패스 5057" class="cls-2" d="M3.106,20.027h.163a2.065,2.065,0,0,0,2.052-1.719.208.208,0,0,0-.206-.234H5.073a2.04,2.04,0,0,0-1.9,1.044A2.063,2.063,0,0,0,1.245,18.06a.228.228,0,0,0-.156.071.2.2,0,0,0-.05.163A2.078,2.078,0,0,0,3.106,20.027Z" transform="translate(-1.038 -14.422)"/>
            <path id="패스_5058" data-name="패스 5058" class="cls-2" d="M3.2,22.5h.163a2.065,2.065,0,0,0,2.052-1.719.2.2,0,0,0-.05-.163.2.2,0,0,0-.156-.071H5.163a2.028,2.028,0,0,0-1.9,1.044A2.063,2.063,0,0,0,1.335,20.53a.228.228,0,0,0-.156.071.225.225,0,0,0-.05.163A2.071,2.071,0,0,0,3.2,22.5Z" transform="translate(-1.064 -15.138)"/>
            <path id="패스_5059" data-name="패스 5059" class="cls-2" d="M3.259,24.984c.071,0,.149,0,.227-.007H3.5a2.064,2.064,0,0,0,2.017-1.79.225.225,0,0,0-.05-.163.22.22,0,0,0-.156-.064,2.044,2.044,0,0,0-1.9,1.108,2.054,2.054,0,0,0-1.967-.987.207.207,0,0,0-.149.078.22.22,0,0,0-.043.163A2.019,2.019,0,0,0,3.259,24.984Z" transform="translate(-1.098 -15.842)"/>
          </g>
          <path id="패스_5060" data-name="패스 5060" class="cls-2" d="M12.58,46.05" transform="translate(-3.644 -15.405)"/>
          <path id="패스_5061" data-name="패스 5061" class="cls-2" d="M10.125,33.29s-3.032,5-2.791,8.458C7.334,41.755,8.407,40.7,10.125,33.29Z" transform="translate(-2.12 -11.707)"/>
          <path id="패스_5062" data-name="패스 5062" class="cls-2" d="M1.67,44.26s4.815,3.316,6.015,6.576C7.685,50.829,6.272,50.318,1.67,44.26Z" transform="translate(-0.482 -14.887)"/>
        </g>
        <path id="패스_5063" data-name="패스 5063" class="cls-3" d="M25.785,56.085a.437.437,0,0,1-.4-.27c-5.1-12.279-4.488-26.042-4.481-26.184a.433.433,0,0,1,.462-.412.439.439,0,0,1,.419.462c-.007.135-.6,13.706,4.41,25.793a.442.442,0,0,1-.234.575A.488.488,0,0,1,25.785,56.085Z" transform="translate(-6.048 -10.527)"/>
        <path id="패스_5064" data-name="패스 5064" class="cls-3" d="M21.54,28.079a.369.369,0,0,1-.348-.483l2.251-6.526a.362.362,0,0,1,.462-.227.37.37,0,0,1,.227.469l-2.251,6.526A.368.368,0,0,1,21.54,28.079Z" transform="translate(-6.135 -8.094)"/>
        <path id="패스_5065" data-name="패스 5065" class="cls-3" d="M20.637,27.893a.366.366,0,0,1-.362-.312l-.966-6.81a.367.367,0,0,1,.312-.412.362.362,0,0,1,.412.312L21,27.481a.367.367,0,0,1-.312.412Z" transform="translate(-5.593 -7.958)"/>
        <path id="패스_5066" data-name="패스 5066" class="cls-3" d="M21.509,25.4h-.036a.376.376,0,0,1-.334-.4l.739-8.3a.363.363,0,0,1,.4-.334.376.376,0,0,1,.334.4l-.731,8.3A.375.375,0,0,1,21.509,25.4Z" transform="translate(-6.125 -6.803)"/>
        <path id="패스_5067" data-name="패스 5067" class="cls-3" d="M21.74,29.408a.356.356,0,0,1-.241-.092.361.361,0,0,1-.036-.511l2.72-3.1a.362.362,0,0,1,.547.476l-2.72,3.1A.311.311,0,0,1,21.74,29.408Z" transform="translate(-6.193 -9.473)"/>
        <path id="패스_5068" data-name="패스 5068" class="cls-3" d="M20.309,29.277a.371.371,0,0,1-.3-.156L17.5,25.534a.374.374,0,0,1,.092-.511.367.367,0,0,1,.511.092L20.615,28.7a.367.367,0,0,1-.092.511A.411.411,0,0,1,20.309,29.277Z" transform="translate(-5.053 -9.292)"/>
        <path id="패스_5069" data-name="패스 5069" class="cls-4" d="M30.01,59.52" transform="translate(-8.696 -19.31)"/>
        <path id="패스_5070" data-name="패스 5070" class="cls-3" d="M27.555,46.76s-3.032,5-2.791,8.465C24.764,55.218,25.837,54.167,27.555,46.76Z" transform="translate(-7.172 -15.611)"/>
        <path id="패스_5071" data-name="패스 5071" class="cls-3" d="M19.1,57.73s4.815,3.316,6.015,6.576C25.115,64.3,23.709,63.781,19.1,57.73Z" transform="translate(-5.534 -18.791)"/>
        <path id="패스_5072" data-name="패스 5072" class="cls-3" d="M27.96,67a.477.477,0,0,1-.17.028" transform="translate(-8.052 -21.477)"/>
        <g id="그룹_1386" data-name="그룹 1386" transform="translate(13.132 16.695)">
          <g id="그룹_1385" data-name="그룹 1385">
            <path id="패스_5073" data-name="패스 5073" class="cls-5" d="M20.634,30.244h.014c.057,0,.114.007.163.007a2.05,2.05,0,0,0,2-1.612.19.19,0,0,0-.036-.163.185.185,0,0,0-.149-.078,2.154,2.154,0,0,0-1.449.362,2.042,2.042,0,0,0-.107-2.258.2.2,0,0,0-.305-.043,2.082,2.082,0,0,0-.561,2.294,2.17,2.17,0,0,0-1.449-.568.2.2,0,0,0-.156.064.188.188,0,0,0-.057.156A2.05,2.05,0,0,0,20.634,30.244Zm-.014-.93h.021c-.007.007-.007.007-.007.014S20.62,29.321,20.62,29.314Z" transform="translate(-18.503 -26.408)"/>
            <path id="패스_5074" data-name="패스 5074" class="cls-5" d="M20.549,33.487h.163a2.057,2.057,0,0,0,2.052-1.719.2.2,0,0,0-.05-.163.2.2,0,0,0-.149-.071h-.043a2.028,2.028,0,0,0-1.9,1.044A2.063,2.063,0,0,0,18.7,31.52a.228.228,0,0,0-.156.071.215.215,0,0,0-.05.163A2.047,2.047,0,0,0,20.549,33.487Z" transform="translate(-18.488 -27.889)"/>
            <path id="패스_5075" data-name="패스 5075" class="cls-5" d="M20.632,35.967H20.8a2.065,2.065,0,0,0,2.052-1.719.208.208,0,0,0-.206-.234H22.6a2.028,2.028,0,0,0-1.9,1.044A2.047,2.047,0,0,0,18.778,34a.2.2,0,0,0-.149.071.2.2,0,0,0-.05.163A2.042,2.042,0,0,0,20.632,35.967Z" transform="translate(-18.514 -28.608)"/>
            <path id="패스_5076" data-name="패스 5076" class="cls-5" d="M20.7,38.454c.071,0,.149,0,.227-.007h.014a2.046,2.046,0,0,0,2.01-1.79.225.225,0,0,0-.05-.163.22.22,0,0,0-.156-.064,2.036,2.036,0,0,0-1.9,1.108,2.039,2.039,0,0,0-1.967-.98.185.185,0,0,0-.149.078.193.193,0,0,0-.043.163A2.046,2.046,0,0,0,20.7,38.454Z" transform="translate(-18.542 -29.312)"/>
          </g>
          <path id="패스_5077" data-name="패스 5077" class="cls-5" d="M21.034,35.846a61.33,61.33,0,0,1-.135-6.214.433.433,0,0,1,.462-.412.439.439,0,0,1,.419.462c0,.057-.107,2.4.128,5.994Z" transform="translate(-19.179 -27.222)"/>
        </g>
        <g id="그룹_1388" data-name="그룹 1388" transform="translate(0.739 7.123)">
          <g id="그룹_1387" data-name="그룹 1387">
            <path id="패스_5078" data-name="패스 5078" class="cls-5" d="M3.187,16.771h.007c.057,0,.114.007.163.007a2.05,2.05,0,0,0,2-1.612A.19.19,0,0,0,5.318,15a.177.177,0,0,0-.142-.085,2.206,2.206,0,0,0-1.449.362,2.042,2.042,0,0,0-.107-2.258.211.211,0,0,0-.142-.092.225.225,0,0,0-.163.05,2.082,2.082,0,0,0-.561,2.294A2.169,2.169,0,0,0,1.313,14.7a.209.209,0,0,0-.156.064.2.2,0,0,0-.057.163A2.047,2.047,0,0,0,3.187,16.771Zm-.007-.93h.014c0,.007-.007.014-.007.021A.026.026,0,0,1,3.18,15.841Z" transform="translate(-1.055 -12.928)"/>
            <path id="패스_5079" data-name="패스 5079" class="cls-5" d="M3.106,20.027h.163a2.065,2.065,0,0,0,2.052-1.719.2.2,0,0,0-.05-.163.2.2,0,0,0-.149-.071h-.05a2.028,2.028,0,0,0-1.9,1.044A2.051,2.051,0,0,0,1.245,18.06a.228.228,0,0,0-.156.071.225.225,0,0,0-.05.163A2.071,2.071,0,0,0,3.106,20.027Z" transform="translate(-1.038 -14.415)"/>
            <path id="패스_5080" data-name="패스 5080" class="cls-5" d="M3.186,22.5h.163A2.057,2.057,0,0,0,5.4,20.779a.2.2,0,0,0-.05-.163.215.215,0,0,0-.156-.071H5.153a2.028,2.028,0,0,0-1.9,1.044A2.063,2.063,0,0,0,1.325,20.53a.2.2,0,0,0-.156.071.225.225,0,0,0-.05.163A2.071,2.071,0,0,0,3.186,22.5Z" transform="translate(-1.061 -15.131)"/>
            <path id="패스_5081" data-name="패스 5081" class="cls-5" d="M3.258,24.984c.071,0,.149,0,.227-.007H3.5a2.046,2.046,0,0,0,2.01-1.79.225.225,0,0,0-.05-.163A.22.22,0,0,0,5.3,22.96a2.023,2.023,0,0,0-1.9,1.108,2.054,2.054,0,0,0-1.967-.987.207.207,0,0,0-.149.078.193.193,0,0,0-.043.163A2.017,2.017,0,0,0,3.258,24.984Z" transform="translate(-1.098 -15.836)"/>
          </g>
          <path id="패스_5082" data-name="패스 5082" class="cls-5" d="M3.593,22.376a58.723,58.723,0,0,1-.135-6.207.441.441,0,0,1,.881.043c0,.057-.107,2.407.128,5.994Z" transform="translate(-1.731 -13.746)"/>
        </g>
      </g>
    </g>
  </g>
</svg>
