<svg xmlns="http://www.w3.org/2000/svg" viewBox="0 0 280 210">
  <defs>
    <style>
      .cls-1 {
        fill: #fff;
      }

      .cls-2 {
        fill: #acc6d2;
      }

      .cls-3 {
        fill: #74c6be;
      }

      .cls-4 {
        fill: #bce2e3;
      }

      .cls-5 {
        fill: #727171;
      }

      .cls-6 {
        fill: #e4f3fa;
      }

      .cls-7 {
        fill: #efefef;
      }

      .cls-8 {
        fill: #6fbeb7;
      }

      .cls-9 {
        fill: #dcdddd;
      }

      .cls-10 {
        fill: #e6e6e6;
      }

      .cls-11 {
        fill: #9fa0a0;
      }

      .cls-12 {
        fill: #666464;
      }

      .cls-13 {
        fill: #7d7d7d;
      }

      .cls-14 {
        fill: #e3c8a0;
      }

      .cls-15 {
        fill: #60b7a3;
      }

      .cls-16 {
        fill: #ededed;
      }

      .cls-17 {
        fill: #006b94;
      }

      .cls-18 {
        fill: #831a1f;
      }

      .cls-19 {
        fill: #972328;
      }

      .cls-20 {
        fill: #d2a587;
      }

      .cls-21 {
        fill: #eae5e3;
      }

      .cls-22 {
        fill: #2eb6aa;
      }

      .cls-23 {
        fill: #9ec364;
      }

      .cls-24 {
        fill: #ffe33f;
      }

      .cls-25 {
        fill: #595757;
      }

      .cls-26 {
        fill: #999;
      }

      .cls-27 {
        fill: none;
        stroke: #000;
        stroke-miterlimit: 10;
      }

      .cls-28 {
        fill: #e0f1f2;
      }

      .cls-29 {
        fill: #eaeaea;
      }

      .cls-30 {
        fill: #fcd68c;
      }
    </style>
  </defs>
  <g id="그룹_1645" data-name="그룹 1645" transform="translate(-20 -2602)">
    <rect id="사각형_726" data-name="사각형 726" class="cls-1" width="280" height="210" rx="20" transform="translate(20 2602)"/>
    <g id="그룹_1632" data-name="그룹 1632" transform="translate(-7165.917 6285)">
      <g id="그룹_1613" data-name="그룹 1613" transform="translate(7252.917 -3497.515)">
        <ellipse id="타원_38" data-name="타원 38" class="cls-2" cx="3.006" cy="2.892" rx="3.006" ry="2.892" transform="translate(0.066 3.346)"/>
        <path id="패스_5464" data-name="패스 5464" class="cls-2" d="M5.38,0S-.971,1.758.106,7.032l2.665-.624S1.41,2.042,5.38,0Z" transform="translate(0.017)"/>
      </g>
      <g id="그룹_1608" data-name="그룹 1608" transform="translate(7399.8 -3488.385) rotate(180)">
        <ellipse id="타원_38-2" data-name="타원 38" class="cls-2" cx="3.006" cy="2.892" rx="3.006" ry="2.892" transform="translate(0.066 3.346)"/>
        <path id="패스_5464-2" data-name="패스 5464" class="cls-2" d="M5.38,0S-.971,1.758.106,7.032l2.665-.624S1.41,2.042,5.38,0Z" transform="translate(0.017)"/>
      </g>
      <g id="그룹_1614" data-name="그룹 1614" transform="translate(7259.723 -3497.515)">
        <ellipse id="타원_38-3" data-name="타원 38" class="cls-2" cx="3.006" cy="2.892" rx="3.006" ry="2.892" transform="translate(0.066 3.346)"/>
        <path id="패스_5464-3" data-name="패스 5464" class="cls-2" d="M5.38,0S-.971,1.758.106,7.032l2.665-.624S1.41,2.042,5.38,0Z" transform="translate(0.017)"/>
      </g>
      <g id="그룹_1609" data-name="그룹 1609" transform="translate(7392.995 -3488.385) rotate(180)">
        <ellipse id="타원_38-4" data-name="타원 38" class="cls-2" cx="3.006" cy="2.892" rx="3.006" ry="2.892" transform="translate(0.066 3.346)"/>
        <path id="패스_5464-4" data-name="패스 5464" class="cls-2" d="M5.38,0S-.971,1.758.106,7.032l2.665-.624S1.41,2.042,5.38,0Z" transform="translate(0.017)"/>
      </g>
    </g>
    <g id="그룹_1629" data-name="그룹 1629" transform="translate(-7165.917 6285)">
      <g id="그룹_1610" data-name="그룹 1610" transform="translate(7283 -3681)">
        <path id="패스_5598" data-name="패스 5598" class="cls-3" d="M95.89,16.5s9.927,0,14.71,34.113c0,0,.361,4.422,4.242,3.7a2.458,2.458,0,0,1,2.617,1.985c.541,2.617-2.617,3.249-4.512,3.249a10.922,10.922,0,0,1-1.715-.09c-6.137-1.083-6.407-7.49-7.49-12.364-1.263-5.866-1.8-11.822-4.512-17.237-1.715-3.249-4.422-5.415-7.129-8.032Z" transform="translate(-8.983 -1.609)"/>
        <path id="패스_5599" data-name="패스 5599" class="cls-3" d="M115.168,153.768h0A1.2,1.2,0,0,1,114,152.6v-8.122c0-.812,0-1.9-.451-2.256-.361-.361-1.444-.271-1.985-.271l-1.9.09a1.177,1.177,0,1,1-.18-2.346l1.985-.09c.9,0,2.617-.09,3.7.9,1.173,1.083,1.173,2.707,1.173,3.971V152.6a1.2,1.2,0,0,1-1.173,1.173" transform="translate(-10.573 -13.616)"/>
        <path id="패스_5600" data-name="패스 5600" class="cls-3" d="M118.156,155.332a1.2,1.2,0,0,1-1.173-1.173V142.7a4.372,4.372,0,0,0-.271-1.624,4.148,4.148,0,0,0-3.7-2.527h-3.339a1.173,1.173,0,1,1,0-2.346h3.339a6.4,6.4,0,0,1,5.866,3.971,8.383,8.383,0,0,1,.451,2.437v11.461a1.216,1.216,0,0,1-1.173,1.263" transform="translate(-10.583 -13.285)"/>
        <path id="패스_5601" data-name="패스 5601" class="cls-3" d="M121.322,157.005a1.2,1.2,0,0,1-1.173-1.173v-13.9a7.027,7.027,0,0,0-6.678-6.588h-2.8a1.173,1.173,0,0,1,0-2.346h2.888a9.5,9.5,0,0,1,8.844,8.754v14.078a1.119,1.119,0,0,1-1.083,1.173" transform="translate(-10.681 -12.973)"/>
        <path id="패스_5602" data-name="패스 5602" class="cls-4" d="M80.763,135.189h1.715c.541,0,6.046-.361,6.137-.18l4.422,20.666h4.242l2.888-23.825s9.025-3.52,6.227-21.388l-5.505-53.606S97.1,23.735,88.975,20.486c0,0,9.747-9.205,2.346-20.486a21.521,21.521,0,0,0-9.747,13.447s-.812.361-7.31.09H72.189S70.384,6.227,61.36,2.8c0,0-2.888,8.122,3.61,16.244-.271-.271-8.393,6.588-8.664,6.859-7.581,6.407-11.1,11.552-16.244,19.222a6.824,6.824,0,0,0-.993,6.046c.451,2.076,3.068,4.783,4.6,6.137a10.98,10.98,0,0,0,7.49,3.068c5.234-.09,11.281-.632,16.064-2.978-.18.09,0,.18-.632,4.151-.271,1.624-.451,3.249-.722,4.964-.541,3.881-1.083,7.671-1.624,11.552L62.353,91.6c-.451,3.61-.993,7.129-1.444,10.739a37.222,37.222,0,0,0,.541,14.8,40.5,40.5,0,0,0,3.881,9.927c1.715,2.888,3.971,5.956,7.129,7.31a25.5,25.5,0,0,0,8.3.812" transform="translate(-3.783)"/>
        <path id="패스_5603" data-name="패스 5603" class="cls-5" d="M94.3,178.79h9.566l-.993-7.31-4.6-.18Z" transform="translate(-9.198 -16.708)"/>
        <path id="패스_5604" data-name="패스 5604" class="cls-1" d="M96.7,161.771a1.4,1.4,0,0,0,2.346-.09s1.354-1.8,2.346,0c0,0,1.083,1.173,1.8-.632,0,0,.632-.993.993-.09l-1.173,9.386-4.512-.18Z" transform="translate(-9.432 -15.663)"/>
        <path id="패스_5605" data-name="패스 5605" class="cls-1" d="M64.79,5.5s-.9,7.4,2.978,11.461c3.971,3.971,1.9-8.032-2.978-11.461" transform="translate(-6.311 -0.536)"/>
        <path id="패스_5606" data-name="패스 5606" class="cls-1" d="M96.448,3.2s2.888,7.4-1.534,13.537C91.033,22.152,91.3,8.254,96.448,3.2" transform="translate(-8.999 -0.312)"/>
        <path id="패스_5607" data-name="패스 5607" class="cls-6" d="M55.99,43.2a.28.28,0,0,0-.09.18.28.28,0,0,1,.09-.18Z" transform="translate(-5.452 -4.214)"/>
        <path id="패스_5608" data-name="패스 5608" class="cls-3" d="M41.512,54.776v-.361a.913.913,0,0,1,.361-.632.819.819,0,0,1,.632-.271h.09a.982.982,0,0,1,.812.993v.451a.609.609,0,0,0,.361.541.572.572,0,0,0,.541-.451v-.361h0V54.6a1.87,1.87,0,0,0-1.624-1.9H42.6a2.156,2.156,0,0,0-1.263.451,1.887,1.887,0,0,0-.632,1.173v.361a.572.572,0,0,0,.451.541.494.494,0,0,0,.361-.451" transform="translate(-3.97 -5.14)"/>
        <path id="패스_5609" data-name="패스 5609" class="cls-3" d="M47.116,56.809l.18-.271a1.327,1.327,0,0,1,.541-.451.793.793,0,0,1,.632.09h.09a1,1,0,0,1,.361,1.263v.09l-.271.18a.476.476,0,0,0,.18.632c.18.09.541.09.632-.18l.18-.271h0l.09-.09a1.878,1.878,0,0,0-.632-2.437l-.09-.09a1.8,1.8,0,0,0-1.354-.18,1.611,1.611,0,0,0-1.083.812l-.18.271a.476.476,0,0,0,.18.632c.09.271.361.18.541,0" transform="translate(-4.52 -5.369)"/>
        <path id="패스_5610" data-name="패스 5610" class="cls-3" d="M75.063,26.878A1.234,1.234,0,0,1,73.8,25.615V24.8c.18-2.8.993-4.6,4.6-4.6h3.61a1.263,1.263,0,0,1,0,2.527H78.4c-1.715,0-2.076.18-2.166,2.256v.632a1.216,1.216,0,0,1-1.173,1.263" transform="translate(-7.198 -1.97)"/>
        <path id="패스_5611" data-name="패스 5611" class="cls-3" d="M71.263,25.254A1.234,1.234,0,0,1,70,23.99v-.812c.271-4.061,2.8-6.588,6.859-6.678h6.588a1.263,1.263,0,0,1,0,2.527h-6.5c-3.339.09-4.242,2.437-4.422,4.332v.632a1.234,1.234,0,0,1-1.263,1.263" transform="translate(-6.828 -1.609)"/>
        <path id="패스_5612" data-name="패스 5612" class="cls-3" d="M67.663,23.549A1.234,1.234,0,0,1,66.4,22.286v-.361A9.051,9.051,0,0,1,75.425,12.9h9.747a1.263,1.263,0,1,1,0,2.527H75.515a6.625,6.625,0,0,0-6.588,6.588v.361a1.216,1.216,0,0,1-1.263,1.173" transform="translate(-6.477 -1.258)"/>
        <path id="패스_5613" data-name="패스 5613" class="cls-1" d="M66.832,119.244c-.09,0-.18-.09-.271-.18a1.344,1.344,0,0,1-.361-.812.461.461,0,0,1,.361-.451c.271,0,.361.09.451.361a.953.953,0,0,0,.18.451.425.425,0,0,1-.09.541.332.332,0,0,1-.271.09" transform="translate(-6.457 -11.49)"/>
        <path id="패스_5614" data-name="패스 5614" class="cls-1" d="M66.132,114.244c-.09,0-.18-.09-.271-.18a1.344,1.344,0,0,1-.361-.812.409.409,0,1,1,.812-.09.953.953,0,0,0,.18.451.425.425,0,0,1-.09.541.331.331,0,0,1-.271.09" transform="translate(-6.389 -11.002)"/>
        <path id="패스_5615" data-name="패스 5615" class="cls-1" d="M70.232,129.544c-.09,0-.18-.09-.271-.18a1.344,1.344,0,0,1-.361-.812.409.409,0,0,1,.812-.09.953.953,0,0,0,.18.451.425.425,0,0,1-.09.541.332.332,0,0,1-.271.09" transform="translate(-6.789 -12.495)"/>
        <path id="패스_5616" data-name="패스 5616" class="cls-1" d="M72.332,133.244c-.09,0-.18-.09-.271-.18a1.344,1.344,0,0,1-.361-.812.409.409,0,0,1,.812-.09.953.953,0,0,0,.18.451.425.425,0,0,1-.09.541.332.332,0,0,1-.271.09" transform="translate(-6.994 -12.856)"/>
        <path id="패스_5617" data-name="패스 5617" class="cls-1" d="M70.432,136.044c-.09,0-.18-.09-.271-.18a1.344,1.344,0,0,1-.361-.812.409.409,0,0,1,.812-.09.953.953,0,0,0,.18.451.425.425,0,0,1-.09.541c-.09,0-.18.09-.271.09" transform="translate(-6.808 -13.129)"/>
        <path id="패스_5618" data-name="패스 5618" class="cls-1" d="M68.732,132.544c-.09,0-.18-.09-.271-.18a1.344,1.344,0,0,1-.361-.812.461.461,0,0,1,.361-.451c.271,0,.361.09.451.361a.953.953,0,0,0,.18.451.425.425,0,0,1-.09.541.332.332,0,0,1-.271.09" transform="translate(-6.642 -12.787)"/>
        <path id="패스_5619" data-name="패스 5619" class="cls-1" d="M72.232,127.644c-.09,0-.271-.09-.271-.18a1.344,1.344,0,0,1-.361-.812.409.409,0,1,1,.812-.09.953.953,0,0,0,.18.451c.09.18.09.451-.09.541s-.18.09-.271.09" transform="translate(-6.984 -12.309)"/>
        <path id="패스_5620" data-name="패스 5620" class="cls-1" d="M66.332,127.244c-.09,0-.271-.09-.271-.18a1.344,1.344,0,0,1-.361-.812.409.409,0,1,1,.812-.09.953.953,0,0,0,.18.451c.09.18.09.451-.09.541a.332.332,0,0,1-.271.09" transform="translate(-6.408 -12.27)"/>
        <path id="패스_5621" data-name="패스 5621" class="cls-1" d="M66.532,122.944c-.09,0-.18-.09-.271-.18a1.344,1.344,0,0,1-.361-.812.409.409,0,1,1,.812-.09.953.953,0,0,0,.18.451c.09.18.09.451-.09.541s-.18.09-.271.09" transform="translate(-6.428 -11.851)"/>
        <path id="패스_5622" data-name="패스 5622" class="cls-1" d="M69.332,117.044c-.09,0-.18-.09-.271-.18a1.344,1.344,0,0,1-.361-.812.461.461,0,0,1,.361-.451c.271,0,.361.09.451.361a.953.953,0,0,0,.18.451.425.425,0,0,1-.09.541.332.332,0,0,1-.271.09" transform="translate(-6.701 -11.275)"/>
        <path id="패스_5623" data-name="패스 5623" class="cls-1" d="M69.332,125.244c-.09,0-.18-.09-.271-.18a1.344,1.344,0,0,1-.361-.812.461.461,0,0,1,.361-.451c.271,0,.361.09.451.361a.953.953,0,0,0,.18.451.425.425,0,0,1-.09.541.332.332,0,0,1-.271.09" transform="translate(-6.701 -12.075)"/>
        <path id="패스_5624" data-name="패스 5624" class="cls-1" d="M101.955,143.044a.332.332,0,0,1-.271-.09c-.18-.09-.18-.361-.09-.541a.953.953,0,0,0,.18-.451.409.409,0,0,1,.812.09,1.344,1.344,0,0,1-.361.812c0,.18-.18.18-.271.18" transform="translate(-9.904 -13.811)"/>
        <path id="패스_5625" data-name="패스 5625" class="cls-1" d="M100.655,139.744a.332.332,0,0,1-.271-.09c-.18-.09-.18-.361-.09-.541a.953.953,0,0,0,.18-.451.409.409,0,0,1,.812.09,1.344,1.344,0,0,1-.361.812c0,.09-.18.18-.271.18" transform="translate(-9.777 -13.49)"/>
        <path id="패스_5626" data-name="패스 5626" class="cls-1" d="M107.555,136.344a.332.332,0,0,1-.271-.09c-.18-.09-.18-.361-.09-.541a.953.953,0,0,0,.18-.451.409.409,0,0,1,.812.09,1.344,1.344,0,0,1-.361.812c0,.18-.18.18-.271.18" transform="translate(-10.45 -13.158)"/>
        <path id="패스_5627" data-name="패스 5627" class="cls-1" d="M105.155,140.744a.332.332,0,0,1-.271-.09c-.18-.09-.18-.361-.09-.541a.953.953,0,0,0,.18-.451.413.413,0,0,1,.451-.361c.18,0,.361.271.361.451a1.344,1.344,0,0,1-.361.812c0,.09-.09.18-.271.18" transform="translate(-10.216 -13.587)"/>
        <path id="패스_5628" data-name="패스 5628" class="cls-1" d="M104.355,138.044a.332.332,0,0,1-.271-.09c-.18-.09-.18-.361-.09-.541a.953.953,0,0,0,.18-.451.409.409,0,0,1,.812.09,1.344,1.344,0,0,1-.361.812c0,.09-.09.18-.271.18" transform="translate(-10.138 -13.324)"/>
        <path id="패스_5629" data-name="패스 5629" class="cls-1" d="M108.155,139.744a.332.332,0,0,1-.271-.09c-.18-.09-.18-.361-.09-.541a.953.953,0,0,0,.18-.451.409.409,0,0,1,.812.09,1.344,1.344,0,0,1-.361.812c-.09.09-.18.18-.271.18" transform="translate(-10.508 -13.49)"/>
        <path id="패스_5630" data-name="패스 5630" class="cls-1" d="M104.055,144.744a.332.332,0,0,1-.271-.09c-.18-.09-.18-.361-.09-.541a.953.953,0,0,0,.18-.451.409.409,0,0,1,.812.09,1.344,1.344,0,0,1-.361.812c0,.18-.09.18-.271.18" transform="translate(-10.108 -13.977)"/>
        <path id="패스_5631" data-name="패스 5631" class="cls-1" d="M104.647,73.64h0c-.271,0-.361-.18-.361-.451,0-.09,0-.361-.09-.451a.4.4,0,1,1,.722-.361,2.67,2.67,0,0,1,.18.9c-.18.18-.271.361-.451.361" transform="translate(-10.16 -7.038)"/>
        <path id="패스_5632" data-name="패스 5632" class="cls-1" d="M100.047,64.24h0c-.271,0-.361-.271-.361-.451,0-.09,0-.361-.09-.451a.4.4,0,1,1,.722-.361,2.67,2.67,0,0,1,.18.9c-.18.18-.271.361-.451.361" transform="translate(-9.711 -6.122)"/>
        <path id="패스_5633" data-name="패스 5633" class="cls-1" d="M104.447,64.24h0c-.271,0-.451-.271-.361-.451,0-.09,0-.361-.09-.451a.4.4,0,1,1,.722-.361,3.206,3.206,0,0,1,.18.9c-.18.271-.271.361-.451.361" transform="translate(-10.14 -6.122)"/>
        <path id="패스_5634" data-name="패스 5634" class="cls-1" d="M98.947,60.14h0c-.271,0-.361-.18-.361-.451,0-.09,0-.361-.09-.451a.4.4,0,0,1,.722-.361,3.207,3.207,0,0,1,.18.9c-.18.18-.271.361-.451.361" transform="translate(-9.604 -5.722)"/>
        <path id="패스_5635" data-name="패스 5635" class="cls-1" d="M102.947,54.94h0c-.271,0-.451-.18-.361-.451,0-.09,0-.361-.09-.451a.4.4,0,1,1,.722-.361,3.207,3.207,0,0,1,.18.9.461.461,0,0,1-.451.361" transform="translate(-9.994 -5.215)"/>
        <path id="패스_5636" data-name="패스 5636" class="cls-1" d="M102.147,61.73h0c-.271,0-.361-.18-.361-.451a1.341,1.341,0,0,0-.09-.541.4.4,0,1,1,.722-.361,2.67,2.67,0,0,1,.18.9c-.09.271-.18.451-.451.451" transform="translate(-9.916 -5.868)"/>
        <path id="패스_5637" data-name="패스 5637" class="cls-1" d="M100.947,51.74h0c-.271,0-.451-.271-.361-.451,0-.09,0-.361-.09-.451a.4.4,0,1,1,.722-.361,2.67,2.67,0,0,1,.18.9c-.18.18-.271.361-.451.361" transform="translate(-9.799 -4.902)"/>
        <path id="패스_5638" data-name="패스 5638" class="cls-1" d="M99.847,55.74h0c-.271,0-.451-.271-.361-.451,0-.09,0-.361-.09-.451a.4.4,0,1,1,.722-.361,3.206,3.206,0,0,1,.18.9c-.18.18-.271.361-.451.361" transform="translate(-9.692 -5.293)"/>
        <path id="패스_5639" data-name="패스 5639" class="cls-1" d="M101.847,57.93h0c-.271,0-.361-.18-.361-.451a1.341,1.341,0,0,0-.09-.541.4.4,0,1,1,.722-.361,2.67,2.67,0,0,1,.18.9c-.09.271-.271.451-.451.451" transform="translate(-9.887 -5.497)"/>
        <path id="패스_5640" data-name="패스 5640" class="cls-1" d="M103.247,67.44h0c-.271,0-.361-.271-.361-.451,0-.09,0-.361-.09-.451a.4.4,0,1,1,.722-.361,3.206,3.206,0,0,1,.18.9.6.6,0,0,1-.451.361" transform="translate(-10.023 -6.434)"/>
        <path id="패스_5641" data-name="패스 5641" class="cls-1" d="M102.047,71.53h0c-.271,0-.361-.18-.361-.451a1.341,1.341,0,0,0-.09-.541.4.4,0,1,1,.722-.361,2.67,2.67,0,0,1,.18.9c-.09.271-.271.451-.451.451" transform="translate(-9.906 -6.824)"/>
        <path id="패스_5642" data-name="패스 5642" class="cls-1" d="M104.847,70.14h0c-.271,0-.451-.18-.361-.451,0-.09,0-.361-.09-.451a.4.4,0,1,1,.722-.361,2.67,2.67,0,0,1,.18.9.6.6,0,0,1-.451.361" transform="translate(-10.179 -6.697)"/>
        <path id="패스_5643" data-name="패스 5643" class="cls-1" d="M99.847,68.54h0c-.271,0-.451-.18-.361-.451,0-.09,0-.361-.09-.451a.4.4,0,1,1,.722-.361,2.67,2.67,0,0,1,.18.9.461.461,0,0,1-.451.361" transform="translate(-9.692 -6.541)"/>
        <path id="패스_5644" data-name="패스 5644" class="cls-1" d="M55.7,44.334l.271-.271c.9-.9,4.151-3.971,3.339-7.039,0,0,3.7-.632,9.205-5.325,0,0-5.054,4.6-2.978,7.581-.09,0-4.242.271-9.837,5.054" transform="translate(-5.433 -3.092)"/>
        <path id="패스_5645" data-name="패스 5645" class="cls-4" d="M85.447,148.242l-16.966,16.7L64.6,161.6l9.927-21.3Z" transform="translate(-6.301 -13.685)"/>
        <path id="패스_5646" data-name="패스 5646" class="cls-1" d="M68.31,155.2a3.621,3.621,0,0,0,3.881,3.249s2.707-.18,2.166,2.256l-5.866,5.776-3.79-3.339Z" transform="translate(-6.311 -15.138)"/>
        <path id="패스_5647" data-name="패스 5647" class="cls-5" d="M63.664,163.9,55,167.781l9.115,6.137,3.429-6.678Z" transform="translate(-5.365 -15.987)"/>
        <path id="패스_5648" data-name="패스 5648" class="cls-5" d="M76.49,38.094a1.9,1.9,0,1,1-1.9-1.9,1.8,1.8,0,0,1,1.9,1.9" transform="translate(-7.091 -3.53)"/>
        <path id="패스_5649" data-name="패스 5649" class="cls-7" d="M48.191,79.408S38.986,56.125,15.974,50.8L0,57.388S26.081,59.1,36.369,83.83Z" transform="translate(0 -4.955)"/>
        <path id="패스_5650" data-name="패스 5650" class="cls-5" d="M46.878,81.59l3.429,2.166L47.871,88.81,43.9,84.659A9.5,9.5,0,0,1,46.788,81.5" transform="translate(-4.282 -7.949)"/>
        <path id="패스_5651" data-name="패스 5651" class="cls-4" d="M50.737,83.876s10.288,6.317,16.7-2.076l3.159,8.934s-10.017,9.205-22.291-1.8Z" transform="translate(-4.711 -7.979)"/>
        <path id="패스_5652" data-name="패스 5652" class="cls-1" d="M55.159,93.486A20.99,20.99,0,0,1,48.3,89.154L50.737,84.1a17.814,17.814,0,0,0,6.317,2.166s-2.437,1.444-1.083,3.61c0,0,.632,1.8-.09,2.707Z" transform="translate(-4.711 -8.203)"/>
        <path id="패스_5653" data-name="패스 5653" class="cls-8" d="M71.707,49.737c.09-.09.18-.09.271-.18.993-.993.812-3.339-.541-5.6s-3.52-3.61-4.783-2.978h-.09l-.09.09c-.09,0-.09.09-.18.09L65.3,41.8h.541a6.313,6.313,0,0,1,4.783,4.061,7.69,7.69,0,0,1,.09,4.512l.632-.451c.18-.09.271-.09.361-.18" transform="translate(-6.369 -3.982)"/>
        <path id="패스_5654" data-name="패스 5654" class="cls-9" d="M70.1,45.971A6.118,6.118,0,0,0,65.315,42h-.541L59.9,45.159l4.873,8.934,5.505-3.61a7.131,7.131,0,0,0-.18-4.512" transform="translate(-5.843 -4.097)"/>
        <path id="패스_5655" data-name="패스 5655" class="cls-8" d="M60.1,45.034,62.537,43.5s5.956,1.263,5.144,8.664l-2.527,1.715Z" transform="translate(-5.862 -4.243)"/>
        <path id="패스_5656" data-name="패스 5656" class="cls-10" d="M64.792,48.547c1.263,2.437,1.263,4.873-.09,5.6-1.263.722-3.339-.722-4.6-3.068-1.263-2.437-1.263-4.873.09-5.6,1.263-.722,3.339.632,4.6,3.068" transform="translate(-5.771 -4.417)"/>
        <path id="패스_5657" data-name="패스 5657" class="cls-8" d="M60.879,45.451a1.3,1.3,0,0,0-.632.18c-1.173.632-1.173,2.978,0,5.234.993,1.9,2.527,3.159,3.7,3.159a1.3,1.3,0,0,0,.632-.18c1.173-.632,1.173-2.978,0-5.234-.993-1.9-2.527-3.159-3.7-3.159m3.068,9.025c-1.354,0-3.068-1.354-4.151-3.429-1.354-2.527-1.263-5.144.18-5.866a2.635,2.635,0,0,1,.812-.18c1.354,0,3.068,1.354,4.151,3.429,1.354,2.527,1.263,5.144-.18,5.866a2.635,2.635,0,0,1-.812.18" transform="translate(-5.739 -4.389)"/>
        <path id="패스_5658" data-name="패스 5658" class="cls-11" d="M63.768,49.314c.722,1.263.722,2.617,0,2.978s-1.8-.361-2.527-1.624-.722-2.617,0-2.978c.632-.361,1.8.361,2.527,1.624" transform="translate(-5.921 -4.643)"/>
        <path id="패스_5659" data-name="패스 5659" class="cls-1" d="M63.434,48.961c-.361.18-.9-.18-1.263-.722-.361-.632-.361-1.263,0-1.444s.9.18,1.263.722c.271.632.271,1.263,0,1.444" transform="translate(-6.038 -4.56)"/>
        <path id="패스_5660" data-name="패스 5660" class="cls-5" d="M62.078,31.422v.361a.913.913,0,0,1-.361.632.975.975,0,0,1-.632.271H61a.984.984,0,0,1-.9-.993V31.6h0v-.361a.5.5,0,1,0-.993-.09v.361h0v.09a1.962,1.962,0,0,0,1.715,1.985h.09a2.217,2.217,0,0,0,1.354-.451,1.579,1.579,0,0,0,.632-1.263v-.361a.572.572,0,0,0-.451-.541c-.09,0-.271.271-.361.451" transform="translate(-5.765 -2.994)"/>
        <path id="패스_5661" data-name="패스 5661" class="cls-10" d="M91.417,78.916S96.29,68.9,107.3,77.111l-.09-2.346S95.3,65.74,88.8,78.465Z" transform="translate(-8.661 -6.99)"/>
        <path id="패스_5662" data-name="패스 5662" class="cls-10" d="M68.185,74.2S69,77.539,69.72,79.434l-3.068.271L66.2,76.727Z" transform="translate(-6.457 -7.237)"/>
        <path id="패스_5663" data-name="패스 5663" class="cls-12" d="M66.207,79.471a122.116,122.116,0,0,0-4.151,17.869c-1.444,9.837-1.8,15.883-.632,25.81a67.005,67.005,0,0,0,1.624,8.483c.361,1.354.812,2.707,1.263,3.971.271.632.812,3.52,1.444,3.881,0,0,14.078,14.71,44.221-.09l-5.234-28.879S91.386,107.808,88.859,79.2c-6.046.18-11.461,0-17.508.18a48.926,48.926,0,0,0-5.144.09" transform="translate(-5.923 -7.725)"/>
        <path id="패스_5664" data-name="패스 5664" class="cls-5" d="M70.5,95.7a40.359,40.359,0,0,0,8.3.632l.632,9.476-8.664-2.076Z" transform="translate(-6.876 -9.334)"/>
        <path id="패스_5665" data-name="패스 5665" class="cls-13" d="M70.68,105.537a12.371,12.371,0,0,0,8.934,1.715L79.434,105s-3.068-5.325-8.934-5.6Z" transform="translate(-6.876 -9.695)"/>
        <path id="패스_5666" data-name="패스 5666" class="cls-14" d="M69.163,81.332a.632.632,0,1,1-.632-.632.678.678,0,0,1,.632.632" transform="translate(-6.623 -7.871)"/>
        <path id="패스_5667" data-name="패스 5667" class="cls-14" d="M113.063,144.63a.632.632,0,1,1-.632-.632c.271-.09.632.271.632.632" transform="translate(-10.905 -14.044)"/>
        <path id="패스_5668" data-name="패스 5668" class="cls-14" d="M84.463,150.43a.632.632,0,1,1-.632-.632c.361-.09.632.18.632.632" transform="translate(-8.115 -14.609)"/>
        <path id="패스_5669" data-name="패스 5669" class="cls-14" d="M77.363,148.932a.632.632,0,1,1-.632-.632.617.617,0,0,1,.632.632" transform="translate(-7.423 -14.465)"/>
        <path id="패스_5670" data-name="패스 5670" class="cls-14" d="M90.063,81.23a.632.632,0,1,1-.632-.632c.361-.09.632.271.632.632" transform="translate(-8.661 -7.86)"/>
        <path id="패스_5671" data-name="패스 5671" class="cls-14" d="M93.927,76.466l-.18-.09c-.09.18-.271.18-.451.18a.543.543,0,0,1-.361-.09l-.993-.812c-.18-.09-.18-.271-.18-.451a.543.543,0,0,1,.09-.361c.09-.18.271-.18.451-.18a.543.543,0,0,1,.361.09l1.083.812c.18.09.18.271.18.451a.543.543,0,0,1-.09.361l.09.09.18.09a1.283,1.283,0,0,0,.18-.541.821.821,0,0,0-.361-.722l-1.083-.812a1.283,1.283,0,0,0-.541-.18.821.821,0,0,0-.722.361,1.283,1.283,0,0,0-.18.541.821.821,0,0,0,.361.722l1.083.812a1.283,1.283,0,0,0,.541.18.821.821,0,0,0,.722-.361Z" transform="translate(-8.915 -7.247)"/>
        <path id="패스_5672" data-name="패스 5672" class="cls-14" d="M68.8,75.932l-.18.09v.18a.561.561,0,0,1-.361.541l-1.263.541h-.18a.561.561,0,0,1-.541-.361v-.18a.561.561,0,0,1,.361-.541l1.263-.541h.18a.561.561,0,0,1,.541.361l.18-.09.18-.09a.867.867,0,0,0-.812-.541.543.543,0,0,0-.361.09l-1.263.541a.867.867,0,0,0-.541.812.543.543,0,0,0,.09.361.867.867,0,0,0,.812.541.543.543,0,0,0,.361-.09l1.263-.541a.867.867,0,0,0,.541-.812.543.543,0,0,0-.09-.361Z" transform="translate(-6.438 -7.345)"/>
        <rect id="사각형_598" data-name="사각형 598" class="cls-15" width="3.61" height="3.7" transform="translate(80.006 74.793) rotate(-7.342)"/>
        <path id="패스_5673" data-name="패스 5673" class="cls-1" d="M91.742,84.3l-.812.09a.7.7,0,0,0-.632.812v.09a.09.09,0,1,0,.18,0V85.2c-.09-.271.18-.541.451-.632l.722-.09a.088.088,0,0,0,.09-.09c.09-.09,0-.09,0-.09" transform="translate(-8.806 -8.223)"/>
        <path id="패스_5674" data-name="패스 5674" class="cls-1" d="M91.894,83.8l-.993.18a1.06,1.06,0,0,0-.9,1.263v.09a.09.09,0,0,0,.18,0v-.09a.846.846,0,0,1,.722-.993l.993-.18a.088.088,0,0,0,.09-.09.315.315,0,0,0-.09-.18" transform="translate(-8.777 -8.174)"/>
        <path id="패스_5675" data-name="패스 5675" class="cls-1" d="M92.026,83.4l-1.263.18A1.526,1.526,0,0,0,89.5,85.3v.09a.09.09,0,1,0,.18,0V85.3a1.248,1.248,0,0,1,1.083-1.444l1.263-.18a.088.088,0,0,0,.09-.09c0-.18-.09-.18-.09-.18" transform="translate(-8.729 -8.135)"/>
        <rect id="사각형_599" data-name="사각형 599" class="cls-16" width="13.176" height="1.354" transform="matrix(0.407, -0.914, 0.914, 0.407, 73.544, 108.697)"/>
        <rect id="사각형_600" data-name="사각형 600" class="cls-17" width="3.7" height="1.354" transform="matrix(0.408, -0.913, 0.913, 0.408, 77.459, 99.936)"/>
        <rect id="사각형_601" data-name="사각형 601" class="cls-17" width="3.7" height="0.361" transform="translate(78.416 101.446) rotate(-65.97)"/>
        <path id="패스_5676" data-name="패스 5676" class="cls-17" d="M88,109.132l.361.18.271-.632-.361-.18Z" transform="translate(-8.583 -10.583)"/>
        <rect id="사각형_602" data-name="사각형 602" class="cls-18" width="9.566" height="1.354" transform="translate(73.111 109.437) rotate(-81.512)"/>
        <path id="패스_5677" data-name="패스 5677" class="cls-19" d="M83.954,110.729l-1.354-.271.722-3.159.632.09Z" transform="translate(-8.057 -10.466)"/>
        <rect id="사각형_603" data-name="사각형 603" class="cls-16" width="6.498" height="11.822" transform="translate(65.11 101.586) rotate(-25.151)"/>
        <path id="패스_5678" data-name="패스 5678" class="cls-20" d="M73.232,112.3c0,.09,0,.18-.09.18s-.18,0-.18-.09l-.361-.812c0-.09,0-.18.09-.18s.18,0,.18.09Z" transform="translate(-7.081 -10.866)"/>
        <path id="패스_5679" data-name="패스 5679" class="cls-20" d="M74.232,111.9c0,.09,0,.18-.09.18s-.18,0-.18-.09l-.361-.812c0-.09,0-.18.09-.18s.18,0,.18.09Z" transform="translate(-7.179 -10.827)"/>
        <path id="패스_5680" data-name="패스 5680" class="cls-20" d="M75.232,111.4c0,.09,0,.18-.09.18s-.18,0-.18-.09l-.361-.812c0-.09,0-.18.09-.18s.18,0,.18.09Z" transform="translate(-7.276 -10.778)"/>
        <path id="패스_5681" data-name="패스 5681" class="cls-20" d="M76.232,111c0,.09,0,.18-.09.18s-.18,0-.18-.09l-.361-.812c0-.09,0-.18.09-.18s.18,0,.18.09Z" transform="translate(-7.374 -10.739)"/>
        <path id="패스_5682" data-name="패스 5682" class="cls-20" d="M77.132,110.6c0,.09,0,.18-.09.18s-.18,0-.18-.09l-.361-.812c0-.09,0-.18.09-.18s.18,0,.18.09Z" transform="translate(-7.462 -10.7)"/>
        <path id="패스_5683" data-name="패스 5683" class="cls-20" d="M78.132,110.2c0,.09,0,.18-.09.18s-.18,0-.18-.09l-.361-.812c0-.09,0-.18.09-.18s.18,0,.18.09Z" transform="translate(-7.559 -10.661)"/>
        <path id="패스_5684" data-name="패스 5684" class="cls-13" d="M65.8,112.3a1.423,1.423,0,0,1,.361.09,60.07,60.07,0,0,0,18.23,1.9l.271,14.169c0,.09-18.5-.812-18.861-16.154" transform="translate(-6.418 -10.954)"/>
        <path id="패스_5685" data-name="패스 5685" class="cls-21" d="M74.4,104.434a.315.315,0,0,1-.09-.18c0-.09-.09-.09-.18-.18l-.09-.09a.315.315,0,0,0-.18-.09.4.4,0,0,0-.451,0c-.09,0-.18.09-.271.09s-.09.09-.18.09h-.09c-.09,0-.09.09-.18.09s-.09.09-.18.09h0s.271-.18.451-.09c0,0,.09-.09.18.09a.4.4,0,0,0,.271.09.125.125,0,0,1,.18,0s.18.18.271,0c0,0,.09-.09.271.18,0,0,.09.18.271,0,0,0,.09-.09.271.09-.09-.09-.09-.18-.18-.271,0,.18,0,.18-.09.09Z" transform="translate(-7.072 -10.127)"/>
        <path id="패스_5686" data-name="패스 5686" class="cls-22" d="M75.351,106.476c.09,0,.271,0,.271-.09v-.09c-.09-.09,0,0-.09-.271a.194.194,0,0,0-.18-.18c-.18-.09-.271-.271-.361-.361a1.888,1.888,0,0,0-.361-.541c-.09-.271-.271-.09-.271-.09-.09.18-.271,0-.271,0-.18-.271-.271-.18-.271-.18-.09.271-.271,0-.271,0a.125.125,0,0,0-.18,0,.2.2,0,0,1-.271-.09.315.315,0,0,1-.09-.18h-.18a.682.682,0,0,0-.361.09h0c-.18.09-.09.271-.271.361a2.315,2.315,0,0,1-.451.18.946.946,0,0,0-.361.271.194.194,0,0,0-.18.18.684.684,0,0,0,.361.18l3.61.722a.28.28,0,0,0,.18.09" transform="translate(-6.945 -10.183)"/>
        <path id="패스_5687" data-name="패스 5687" class="cls-23" d="M73.4,104.261h0l.09-.09a.334.334,0,0,0,.18-.271h0c0,.271-.09.361-.271.361Z" transform="translate(-7.159 -10.134)"/>
        <path id="패스_5688" data-name="패스 5688" class="cls-23" d="M73.6,104.2c.361.18.361.09.361.09a.543.543,0,0,0-.361-.09Z" transform="translate(-7.179 -10.164)"/>
        <path id="패스_5689" data-name="패스 5689" class="cls-22" d="M72.622,102.6h0c-.09,0-.361,0-.541.722h0l-.09.09h0c-.09,0-.09,0-.09.09v.09l.09.09h0c.18,0,.18-.18.271-.271v-.18c0-.09.09-.18.09-.271s.09-.09.18-.09h0Z" transform="translate(-7.013 -10.007)"/>
        <path id="패스_5690" data-name="패스 5690" class="cls-22" d="M71.69,104.5l-.09.09.09.09h0v.09h0l.09.09h.18v-.09h-.18v-.09h-.09v-.09h0Z" transform="translate(-6.984 -10.193)"/>
        <path id="패스_5691" data-name="패스 5691" class="cls-22" d="M71.961,104.971h-.18l-.09-.271H71.6v.09l.09.271v.09a.315.315,0,0,0,.18.09h.09v-.271Z" transform="translate(-6.984 -10.212)"/>
        <path id="패스_5692" data-name="패스 5692" class="cls-22" d="M71.851,105.051h-.09c-.09,0-.18,0-.18-.09l-.09-.361H71.4l.09.361h0c0,.09.18.18.271.18h.09v-.09Z" transform="translate(-6.964 -10.203)"/>
        <path id="패스_5693" data-name="패스 5693" class="cls-4" d="M72.893,104.656a.689.689,0,0,1-.18.451l-.09.09h-.09l-.09.361h-.09V105.2h-.18l-.18.361H71.9l.09-.541h0v-.09c0-.09-.09-.18,0-.271a1.283,1.283,0,0,1,.18-.541c.09-.18.18-.451.271-.632s.09-.271.18-.451l.18-.18s-.18-.18.09-.451a.334.334,0,0,1,.18.271h.18a.334.334,0,0,1,.271-.18.318.318,0,0,1-.09.361l.09.18c.09.09.09.18.18.271,0,.09.09.18.09.271a.194.194,0,0,1-.18.18h-.18a.315.315,0,0,1-.18-.09v.812c-.361.09-.361.09-.361.18" transform="translate(-7.013 -9.988)"/>
        <path id="패스_5694" data-name="패스 5694" class="cls-24" d="M73.59,103.68l.09.09-.09-.09a.332.332,0,0,0-.09.271c0,.09.09.09.18,0l.09-.09v.09c0,.09.09.09.18.09s.09-.09,0-.18l-.09-.09h.09c.09,0,.09-.09.09-.18s-.09-.09-.18,0l-.09.09v-.09c0-.09-.09-.09-.18-.09-.09.09-.09.18,0,.18" transform="translate(-7.169 -10.095)"/>
        <path id="패스_5695" data-name="패스 5695" class="cls-24" d="M73.6,103.79c0,.09,0,.18.09.18s.18,0,.18-.09,0-.18-.09-.18-.09,0-.18.09" transform="translate(-7.179 -10.115)"/>
        <path id="패스_5696" data-name="패스 5696" class="cls-25" d="M72,104.9v.09h.18v-.09Z" transform="translate(-7.023 -10.232)"/>
        <path id="패스_5697" data-name="패스 5697" class="cls-25" d="M71.8,105.99h.18v-.09h-.09Z" transform="translate(-7.003 -10.329)"/>
        <path id="패스_5698" data-name="패스 5698" class="cls-26" d="M72.1,105Z" transform="translate(-7.033 -10.242)"/>
        <path id="패스_5699" data-name="패스 5699" class="cls-27" d="M72.1,105h0m0,0h0m0,0Z" transform="translate(-7.033 -10.242)"/>
        <path id="패스_5700" data-name="패스 5700" class="cls-25" d="M72.3,106.08h.09v-.18H72.3Z" transform="translate(-7.052 -10.329)"/>
        <path id="패스_5701" data-name="패스 5701" class="cls-1" d="M72.19,104.871l.09-.271s-.09.09-.09,0H72.1v.271Z" transform="translate(-7.033 -10.203)"/>
        <path id="패스_5702" data-name="패스 5702" class="cls-1" d="M72.3,105.7h0v.18h.09l.09-.09h-.09v-.09h0Z" transform="translate(-7.052 -10.31)"/>
        <path id="패스_5703" data-name="패스 5703" class="cls-1" d="M71.9,105.871h.09v-.18H71.9v-.09h0Z" transform="translate(-7.013 -10.3)"/>
        <path id="패스_5704" data-name="패스 5704" class="cls-28" d="M73.4,103.5Z" transform="translate(-7.159 -10.095)"/>
        <path id="패스_5705" data-name="패스 5705" class="cls-25" d="M73.3,103.2h0v.09h0l.09-.09h0l-.09.09h0v-.09Z" transform="translate(-7.15 -10.066)"/>
        <path id="패스_5706" data-name="패스 5706" class="cls-25" d="M72.99,103.2H72.9v.09h.18v-.09h0l-.09.09h0Z" transform="translate(-7.111 -10.066)"/>
        <path id="패스_5707" data-name="패스 5707" class="cls-22" d="M72.89,102.9h0v.09h.09c.09,0,0-.09-.09-.09" transform="translate(-7.101 -10.037)"/>
        <path id="패스_5708" data-name="패스 5708" class="cls-22" d="M73.061,103.071m-.09-.271H72.7v.09l.271-.09c0,.09.09.09.09.18h.09a.194.194,0,0,0-.18-.18" transform="translate(-7.091 -10.027)"/>
        <path id="패스_5709" data-name="패스 5709" class="cls-22" d="M73.241,102.78c0-.09-.09-.09-.18-.09l-.271-.09H72.7l.271.09.271.09-.09.18h.09v-.18" transform="translate(-7.091 -10.007)"/>
        <path id="패스_5710" data-name="패스 5710" class="cls-1" d="M72.6,104.9v.09h.09v-.09Z" transform="translate(-7.081 -10.232)"/>
        <path id="패스_5711" data-name="패스 5711" class="cls-1" d="M72.5,105.19h0v-.09Z" transform="translate(-7.072 -10.251)"/>
        <path id="패스_5712" data-name="패스 5712" class="cls-1" d="M72.6,105.1v.09h.09v-.09Z" transform="translate(-7.081 -10.251)"/>
        <path id="패스_5713" data-name="패스 5713" class="cls-1" d="M72.8,105.09h.09L72.8,105Z" transform="translate(-7.101 -10.242)"/>
        <path id="패스_5714" data-name="패스 5714" class="cls-1" d="M72.8,104.8v.09h.09Z" transform="translate(-7.101 -10.222)"/>
        <path id="패스_5715" data-name="패스 5715" class="cls-1" d="M72.4,104h0v.09h0V104Z" transform="translate(-7.062 -10.144)"/>
        <path id="패스_5716" data-name="패스 5716" class="cls-1" d="M72.5,103.8h0v.09h0l.09-.09Z" transform="translate(-7.072 -10.125)"/>
        <path id="패스_5717" data-name="패스 5717" class="cls-1" d="M72.4,103.6v.09h.09Z" transform="translate(-7.062 -10.105)"/>
        <path id="패스_5718" data-name="패스 5718" class="cls-1" d="M72.3,103.8v.09h.09v-.09Z" transform="translate(-7.052 -10.125)"/>
        <path id="패스_5719" data-name="패스 5719" class="cls-4" d="M73.251,104.28a.28.28,0,0,1-.361-.18l-.09.271a.319.319,0,0,0,.451.09Z" transform="translate(-7.101 -10.154)"/>
        <path id="패스_5720" data-name="패스 5720" class="cls-1" d="M73.1,104.471c.09,0,.09,0,.18-.09v-.18h-.09v.09l-.09.18Z" transform="translate(-7.13 -10.164)"/>
        <path id="패스_5721" data-name="패스 5721" class="cls-1" d="M73.39,103.571h0v-.18h0a.088.088,0,0,1-.09-.09h0v.09h0c0,.09,0,.09.09.18Z" transform="translate(-7.15 -10.076)"/>
        <path id="패스_5722" data-name="패스 5722" class="cls-25" d="M73.39,104.2l-.09.09v.09l.09-.09Z" transform="translate(-7.15 -10.164)"/>
        <path id="패스_5723" data-name="패스 5723" class="cls-23" d="M74.859,105.2c0,.18-.09.812-.09.812v.18c.09,0,.18-.09.271-.09,0,0,.18.09-.271.09v.18a.088.088,0,0,1-.09.09v-.09h0v-.18c-.271-.09-.18-.09-.18-.09,0-.09.18,0,.18.09v-.18a3.349,3.349,0,0,0,.18-.812" transform="translate(-7.265 -10.261)"/>
        <path id="패스_5724" data-name="패스 5724" class="cls-23" d="M73.641,105.893h-.271v-.18c.09-.541.09-.541,0-.812h-.09v.812l-.18-.09s0,.09.18.09v.18c-.18-.271-.18-.09-.18-.09,0,.09.18.09.18.18v.09h0v-.18c.451.18.541.09.361,0" transform="translate(-7.13 -10.232)"/>
        <path id="패스_5725" data-name="패스 5725" class="cls-24" d="M73.561,105.48h0c0-.09,0-.18-.09-.18a.088.088,0,0,0-.09.09v.09l-.09-.09H73.2a.088.088,0,0,0,.09.09h.09l-.09.09v.09a.088.088,0,0,0,.09-.09v-.09l.09.09h.09c.09,0,0-.09,0-.09" transform="translate(-7.14 -10.271)"/>
        <path id="패스_5726" data-name="패스 5726" class="cls-24" d="M73.58,105.051h0l.09-.18h.09v-.09h-.09v-.09h0v-.09h-.09v0h-.09v.09h0v.09h.09v.09h0l-.09.09v0H73.4v.18h.09l-.09.09v.18h.09v0h.09c.09-.271.09-.271,0-.361" transform="translate(-7.159 -10.203)"/>
        <path id="패스_5727" data-name="패스 5727" class="cls-24" d="M75.061,104.98h0c0-.09,0-.18-.09-.18s-.09,0-.09.09v.09l-.09-.09H74.7a.088.088,0,0,0,.09.09h.09l-.09.09v.09a.088.088,0,0,0,.09-.09v-.09l.09.09h.09v-.09" transform="translate(-7.286 -10.222)"/>
        <path id="패스_5728" data-name="패스 5728" class="cls-24" d="M74.69,105.751h0v-.18h.09v-.09h.09v.09h0l.09-.09h.09l-.09-.09v-.09a.088.088,0,0,1,.09.09v.09l.09-.09h.09a.088.088,0,0,1-.09.09h-.09l.09.09v.09a.088.088,0,0,1-.09-.09v-.09h0v.09h0l.09.09v.09l.09-.09c.09,0,.09,0,.09.09s0,.09-.09.09h-.09l-.18.09c0,.09,0,.09-.09.09s-.09,0-.09-.09v-.09l-.09.09c-.09,0-.09,0-.09-.09l.09-.09" transform="translate(-7.276 -10.271)"/>
        <path id="패스_5729" data-name="패스 5729" class="cls-24" d="M73.5,105.2Z" transform="translate(-7.169 -10.261)"/>
        <path id="패스_5730" data-name="패스 5730" class="cls-23" d="M74.418,104.6a3.742,3.742,0,0,0-.361,1.083c0,.09-.09.18-.09.271-.09-.09-.18-.18-.271-.18,0,0-.18,0,.271.271v.271h.09v-.09a.543.543,0,0,0,.361-.09s0-.18-.361.09v-.18c.271,0,.271-.09.271-.09,0-.09-.271,0-.271,0,0-.09.09-.271.09-.361s.271-.9.271-.993" transform="translate(-7.185 -10.203)"/>
        <path id="패스_5731" data-name="패스 5731" class="cls-24" d="M74.093,105.373h0c-.09.09-.09.18,0,.18,0,0,.09.09.09,0v0c0,.09.09.09.09,0a.125.125,0,0,0,0-.18h0c.09,0,.09-.09,0-.18,0,0-.09-.09-.09,0v0c0-.09-.09-.09-.09,0s-.09.09,0,.18" transform="translate(-7.22 -10.254)"/>
        <path id="패스_5732" data-name="패스 5732" class="cls-24" d="M74.186,104.771h0c-.09.09-.18.18-.09.18,0,.09.09.09.18.09l.09-.09v.09a.088.088,0,0,0,.09.09c.09,0,.09-.09.09-.18l-.09-.09h.09c.09,0,.09-.09.09-.18s-.09-.09-.18-.09l-.09.09v-.09a.088.088,0,0,0-.09-.09c0,.09-.09.18-.09.271" transform="translate(-7.224 -10.193)"/>
        <path id="패스_5733" data-name="패스 5733" class="cls-24" d="M74.48,104.39h0a.315.315,0,0,0-.18.09c0,.09,0,.09.09.09h.09l-.09.09c0,.09,0,.09.09.09s.09,0,.09-.09v-.09l.09.09c.09,0,.09,0,.09-.09s0-.09-.09-.09h-.09l.09-.09c0-.09,0-.09-.09-.09a.088.088,0,0,0-.09.09" transform="translate(-7.247 -10.173)"/>
        <path id="패스_5734" data-name="패스 5734" class="cls-24" d="M74.9,105.7Z" transform="translate(-7.306 -10.31)"/>
        <path id="패스_5735" data-name="패스 5735" class="cls-24" d="M73.4,104.69l.09.09.09-.09-.09-.09Z" transform="translate(-7.159 -10.203)"/>
        <path id="패스_5736" data-name="패스 5736" class="cls-24" d="M73.58,105.19a.09.09,0,1,1-.09-.09.088.088,0,0,1,.09.09" transform="translate(-7.159 -10.251)"/>
        <path id="패스_5737" data-name="패스 5737" class="cls-24" d="M73.4,105.5v.09h.09v-.09Z" transform="translate(-7.159 -10.29)"/>
        <path id="패스_5738" data-name="패스 5738" class="cls-24" d="M74.28,105.486a.09.09,0,1,1-.09-.09c.09-.09.18,0,.09.09" transform="translate(-7.228 -10.277)"/>
        <path id="패스_5739" data-name="패스 5739" class="cls-24" d="M74.471,104.88c0,.09-.09.09-.18.09s-.09-.09-.09-.18.09-.09.18-.09a.279.279,0,0,1,.09.18" transform="translate(-7.237 -10.212)"/>
        <path id="패스_5740" data-name="패스 5740" class="cls-24" d="M74.68,104.59a.09.09,0,1,1-.09-.09c.09,0,.09,0,.09.09" transform="translate(-7.267 -10.193)"/>
        <rect id="사각형_604" data-name="사각형 604" class="cls-24" width="0.09" height="0.09" transform="translate(67.592 94.771) rotate(-34.402)"/>
        <rect id="사각형_605" data-name="사각형 605" class="cls-24" width="0.09" height="0.09" transform="matrix(0.824, -0.567, 0.567, 0.824, 67.658, 95.138)"/>
        <path id="패스_5741" data-name="패스 5741" class="cls-24" d="M74.8,105.6v.09l.09-.09Z" transform="translate(-7.296 -10.3)"/>
        <path id="패스_5742" data-name="패스 5742" class="cls-24" d="M74.98,105.89a.09.09,0,1,1-.09-.09c.09,0,.09,0,.09.09" transform="translate(-7.296 -10.32)"/>
        <path id="패스_5743" data-name="패스 5743" class="cls-5" d="M76.478,50.044l1.985,6.768-8.122,3.881L69.8,50.586s3.79-1.534,6.768-.9" transform="translate(-6.808 -4.831)"/>
        <path id="패스_5744" data-name="패스 5744" class="cls-4" d="M78.522,57.6S84.478,77.544,100.9,73.483L95.579,88.825S74.01,89.818,70.4,61.481Z" transform="translate(-6.867 -5.618)"/>
        <path id="패스_5745" data-name="패스 5745" class="cls-1" d="M74.181,75.018A40.954,40.954,0,0,1,70.3,61.481L78.422,57.6a31.559,31.559,0,0,0,5.505,10.017s-4.422-.812-4.964,3.61c0,0-.993,3.068-2.888,3.429Z" transform="translate(-6.857 -5.618)"/>
      </g>
      <rect id="사각형_655" data-name="사각형 655" class="cls-29" width="54.383" height="1.472" transform="translate(7257.917 -3524.372)"/>
      <rect id="사각형_656" data-name="사각형 656" class="cls-29" width="54.383" height="1.472" transform="translate(7257.917 -3527.248)"/>
      <rect id="사각형_657" data-name="사각형 657" class="cls-29" width="54.383" height="1.472" transform="translate(7257.917 -3530.058)"/>
      <rect id="사각형_658" data-name="사각형 658" class="cls-29" width="54.383" height="1.472" transform="translate(7257.917 -3532.934)"/>
      <rect id="사각형_659" data-name="사각형 659" class="cls-29" width="54.383" height="1.472" transform="translate(7257.917 -3535.81)"/>
      <rect id="사각형_665" data-name="사각형 665" class="cls-29" width="54.383" height="1.472" transform="translate(7257.917 -3538.687)"/>
      <rect id="사각형_666" data-name="사각형 666" class="cls-29" width="54.383" height="1.472" transform="translate(7257.917 -3541.496)"/>
      <rect id="사각형_667" data-name="사각형 667" class="cls-29" width="54.383" height="1.472" transform="translate(7257.917 -3544.372)"/>
      <rect id="사각형_670" data-name="사각형 670" class="cls-29" width="54.383" height="1.472" transform="translate(7257.917 -3547.249)"/>
      <rect id="사각형_671" data-name="사각형 671" class="cls-29" width="54.383" height="1.472" transform="translate(7257.917 -3550.125)"/>
      <rect id="사각형_675" data-name="사각형 675" class="cls-29" width="54.383" height="1.472" transform="translate(7257.917 -3552.935)"/>
      <rect id="사각형_676" data-name="사각형 676" class="cls-29" width="54.383" height="1.472" transform="translate(7257.917 -3555.811)"/>
      <rect id="사각형_677" data-name="사각형 677" class="cls-29" width="54.383" height="1.472" transform="translate(7257.917 -3558.687)"/>
      <rect id="사각형_678" data-name="사각형 678" class="cls-29" width="54.383" height="1.472" transform="translate(7257.917 -3561.563)"/>
      <rect id="사각형_682" data-name="사각형 682" class="cls-29" width="54.383" height="1.472" transform="translate(7257.917 -3564.373)"/>
      <rect id="사각형_683" data-name="사각형 683" class="cls-29" width="54.383" height="1.472" transform="translate(7257.917 -3567.249)"/>
      <rect id="사각형_686" data-name="사각형 686" class="cls-29" width="54.383" height="1.472" transform="translate(7257.917 -3570.125)"/>
      <rect id="사각형_687" data-name="사각형 687" class="cls-29" width="54.383" height="1.472" transform="translate(7257.917 -3573.002)"/>
      <rect id="사각형_688" data-name="사각형 688" class="cls-29" width="54.383" height="1.472" transform="translate(7257.917 -3575.812)"/>
      <rect id="사각형_692" data-name="사각형 692" class="cls-29" width="54.383" height="1.472" transform="translate(7257.917 -3578.688)"/>
      <rect id="사각형_693" data-name="사각형 693" class="cls-29" width="54.383" height="1.472" transform="translate(7257.917 -3581.564)"/>
      <rect id="사각형_697" data-name="사각형 697" class="cls-29" width="54.383" height="1.472" transform="translate(7257.917 -3584.44)"/>
      <rect id="사각형_660" data-name="사각형 660" class="cls-1" width="54.383" height="1.472" transform="translate(7257.917 -3525.776)"/>
      <rect id="사각형_661" data-name="사각형 661" class="cls-1" width="54.383" height="1.472" transform="translate(7257.917 -3528.653)"/>
      <rect id="사각형_662" data-name="사각형 662" class="cls-1" width="54.383" height="1.472" transform="translate(7257.917 -3531.529)"/>
      <rect id="사각형_663" data-name="사각형 663" class="cls-1" width="54.383" height="1.472" transform="translate(7257.917 -3534.405)"/>
      <rect id="사각형_664" data-name="사각형 664" class="cls-1" width="54.383" height="1.472" transform="translate(7257.917 -3537.215)"/>
      <rect id="사각형_668" data-name="사각형 668" class="cls-1" width="54.383" height="1.472" transform="translate(7257.917 -3540.091)"/>
      <rect id="사각형_669" data-name="사각형 669" class="cls-1" width="54.383" height="1.472" transform="translate(7257.917 -3542.968)"/>
      <rect id="사각형_672" data-name="사각형 672" class="cls-1" width="54.383" height="1.472" transform="translate(7257.917 -3545.844)"/>
      <rect id="사각형_673" data-name="사각형 673" class="cls-1" width="54.383" height="1.472" transform="translate(7257.917 -3548.653)"/>
      <rect id="사각형_674" data-name="사각형 674" class="cls-1" width="54.383" height="1.472" transform="translate(7257.917 -3551.53)"/>
      <rect id="사각형_679" data-name="사각형 679" class="cls-1" width="54.383" height="1.472" transform="translate(7257.917 -3554.406)"/>
      <rect id="사각형_680" data-name="사각형 680" class="cls-1" width="54.383" height="1.472" transform="translate(7257.917 -3557.282)"/>
      <rect id="사각형_681" data-name="사각형 681" class="cls-1" width="54.383" height="1.472" transform="translate(7257.917 -3560.092)"/>
      <rect id="사각형_684" data-name="사각형 684" class="cls-1" width="54.383" height="1.472" transform="translate(7257.917 -3562.968)"/>
      <rect id="사각형_685" data-name="사각형 685" class="cls-1" width="54.383" height="1.472" transform="translate(7257.917 -3565.845)"/>
      <rect id="사각형_689" data-name="사각형 689" class="cls-1" width="54.383" height="1.472" transform="translate(7257.917 -3568.721)"/>
      <rect id="사각형_690" data-name="사각형 690" class="cls-1" width="54.383" height="1.472" transform="translate(7257.917 -3571.53)"/>
      <rect id="사각형_691" data-name="사각형 691" class="cls-1" width="54.383" height="1.472" transform="translate(7257.917 -3574.407)"/>
      <rect id="사각형_694" data-name="사각형 694" class="cls-1" width="54.383" height="1.472" transform="translate(7257.917 -3577.283)"/>
      <rect id="사각형_695" data-name="사각형 695" class="cls-1" width="54.383" height="1.472" transform="translate(7257.917 -3580.159)"/>
      <rect id="사각형_696" data-name="사각형 696" class="cls-1" width="54.383" height="1.472" transform="translate(7257.917 -3582.969)"/>
      <rect id="사각형_698" data-name="사각형 698" class="cls-1" width="54.383" height="1.472" transform="translate(7257.917 -3585.845)"/>
      <path id="패스_5825" data-name="패스 5825" class="cls-30" d="M6.064,0S5.35,8.2,0,8.275c0,0,4.138-.285,6.064,6.634,0,0,.927-5.992,5.564-6.563,0-.071-6.706-.214-5.564-8.347" transform="translate(7308 -3662.01)"/>
    </g>
  </g>
</svg>
