<svg xmlns="http://www.w3.org/2000/svg" viewBox="0 0 280 210">
  <defs>
    <style>
      .cls-1 {
        fill: #fff;
      }

      .cls-2 {
        fill: #74c6be;
      }

      .cls-3 {
        fill: #bce2e3;
      }

      .cls-4 {
        fill: #727171;
      }

      .cls-5 {
        fill: #92aca9;
      }

      .cls-6 {
        fill: #e4f3fa;
      }

      .cls-7 {
        fill: #fcd68c;
      }

      .cls-8 {
        fill: #fdd35c;
      }

      .cls-9 {
        fill: #acc6d2;
      }
    </style>
  </defs>
  <g id="그룹_1638" data-name="그룹 1638" transform="translate(-358 -1140)">
    <rect id="사각형_585" data-name="사각형 585" class="cls-1" width="280" height="210" transform="translate(358 1140)"/>
    <g id="그룹_1536" data-name="그룹 1536" transform="translate(498.34 1141.843)">
      <path id="패스_5083" data-name="패스 5083" class="cls-2" d="M90.632,21.8s9.623,0,14.275,33.074c0,0,.319,4.27,4.142,3.632a2.367,2.367,0,0,1,2.549,1.912c.51,2.485-2.549,3.123-4.4,3.123a7.267,7.267,0,0,1-1.657-.127C99.618,62.33,99.3,56.085,98.28,51.369c-1.211-5.735-1.721-11.471-4.333-16.7C92.289,31.487,89.613,29.384,87,26.9Z" transform="translate(-31.557 -7.907)"/>
      <path id="패스_5084" data-name="패스 5084" class="cls-2" d="M127.992,173.087h0a1.245,1.245,0,0,0-1.721.382,5.88,5.88,0,0,0-.319.51l-.255.382c-.382.574-.7,1.147-1.083,1.657-.446.765-.956,1.466-1.4,2.23-.191.382-.446.7-.637,1.083-.255.446-.51.828-.7,1.211l-.127.255c-.51.765-1.083,1.657-1.721,1.784a3.981,3.981,0,0,1-1.976-.892l-1.657-1.211a1.23,1.23,0,1,0-1.466,1.976l1.721,1.211c.828.574,2.23,1.593,3.824,1.338,1.657-.255,2.677-1.784,3.378-2.868l.127-.255a15.251,15.251,0,0,0,.828-1.338c.191-.319.382-.637.574-1.02.446-.7.956-1.466,1.4-2.167.382-.574.7-1.147,1.083-1.721l.191-.319.382-.574a1.3,1.3,0,0,0-.446-1.657" transform="translate(-41.515 -62.712)"/>
      <path id="패스_5085" data-name="패스 5085" class="cls-2" d="M130.714,172.987a1.245,1.245,0,0,0-1.721.382l-6.564,10.324a4.589,4.589,0,0,1-1.147,1.275,4.468,4.468,0,0,1-4.78.127l-3-1.912a1.246,1.246,0,0,0-1.338,2.1l3,1.912a6.84,6.84,0,0,0,7.584-.191,7.438,7.438,0,0,0,1.784-1.912l6.564-10.324a1.308,1.308,0,0,0-.382-1.784" transform="translate(-40.476 -62.675)"/>
      <path id="패스_5086" data-name="패스 5086" class="cls-2" d="M134.03,172.987a1.245,1.245,0,0,0-1.721.382l-7.966,12.554a7.458,7.458,0,0,1-9.75,2.1l-2.485-1.593a1.246,1.246,0,1,0-1.338,2.1l2.549,1.593.064.064a10.03,10.03,0,0,0,13-2.868l.064-.064,8.03-12.554a1.292,1.292,0,0,0-.446-1.721" transform="translate(-39.968 -62.675)"/>
      <path id="패스_5087" data-name="패스 5087" class="cls-3" d="M34.145,103.174s-1.466,15.486,10.2,27.339l2.294,19.564H51.16l2.931-18.226L61.8,131.6l4.333,20.2h4.142l2.8-23.26S81.941,125.1,79.2,107.7L73.72,55.443S69.96,23.2,62.058,20.01c0,0,9.5-8.986,2.294-20.01a20.914,20.914,0,0,0-9.5,13.064s-.765.382-7.074.064H45.744S43.959,5.99,35.165,2.613a17.113,17.113,0,0,0,3.5,15.8c-.191-.255-8.157,6.5-8.412,6.691C22.866,31.354,19.424,36.324,14.39,43.78a6.577,6.577,0,0,0-.956,5.863c.446,2.039,2.931,4.716,4.461,5.99a10.433,10.433,0,0,0,7.265,2.931c5.1-.064,11.025-.637,15.613-2.868-.191.127,0,.191-.637,4.015Z" transform="translate(-4.767 0)"/>
      <path id="패스_5088" data-name="패스 5088" class="cls-4" d="M24.479,100.191l2.039,3.632-4.525,4.27L20.4,102.1a10.064,10.064,0,0,1,4.015-2.1Z" transform="translate(-7.4 -36.273)"/>
      <path id="패스_5089" data-name="패스 5089" class="cls-4" d="M89.9,243.929h9.24l-.956-7.137-4.461-.191Z" transform="translate(-32.609 -85.822)"/>
      <path id="패스_5090" data-name="패스 5090" class="cls-4" d="M63.85,235.464l-3.25,5.8s5.863,0,8.858-.319L68.375,235.4H63.85Z" transform="translate(-21.981 -85.387)"/>
      <path id="패스_5091" data-name="패스 5091" class="cls-1" d="M74.011,224,72.8,231.329v.064h0L74.011,224h0" transform="translate(-26.407 -81.251)"/>
      <path id="패스_5092" data-name="패스 5092" class="cls-1" d="M68.525,221.9h-.191a1.453,1.453,0,0,0-.7.191l-.574.382a2.977,2.977,0,0,1-.637.319,1.764,1.764,0,0,1-.574.064,2.6,2.6,0,0,1-1.147-.319c-.191-.127-.319-.255-.51-.382a.287.287,0,0,1-.191-.191l1.02,8.539h4.525l1.211-7.329c0-.064-.127-.191-.127-.191-.064-.064-.127-.127-.127-.191-.127-.127-.191-.255-.319-.319a2.024,2.024,0,0,0-1.275-.51c-.127,0-.255-.064-.382-.064" transform="translate(-23.215 -80.49)"/>
      <path id="패스_5093" data-name="패스 5093" class="cls-5" d="M65.7,235.5Z" transform="translate(-23.831 -85.423)"/>
      <path id="패스_5094" data-name="패스 5094" class="cls-1" d="M93.1,223.6l1.784,8.348h0L93.1,223.727V223.6" transform="translate(-33.77 -81.106)"/>
      <path id="패스_5095" data-name="패스 5095" class="cls-1" d="M100.083,221.9c-.319,0-.574.446-.574.446-.319.765-.7.956-1.02.956a1.119,1.119,0,0,1-.765-.382,1.225,1.225,0,0,0-1.02-.765,1.935,1.935,0,0,0-1.275.765,1.349,1.349,0,0,1-1.147.637,1.716,1.716,0,0,1-1.083-.51l1.784,8.221h0l2.74.127,1.657.064,1.147-9.177c-.127-.319-.319-.382-.446-.382" transform="translate(-33.806 -80.49)"/>
      <path id="패스_5096" data-name="패스 5096" class="cls-5" d="M95.9,236.6h0l2.74.127Z" transform="translate(-34.786 -85.822)"/>
      <path id="패스_5097" data-name="패스 5097" class="cls-1" d="M49.049,7.6s-.892,7.265,2.931,11.152a1.853,1.853,0,0,0,1.275.765c1.912,0-.127-9.049-4.206-11.917" transform="translate(-17.759 -2.757)"/>
      <path id="패스_5098" data-name="패스 5098" class="cls-1" d="M91.072,4.5c-4.206,4.079-5.1,14.4-3,14.4.382,0,.892-.382,1.466-1.211C93.876,11.7,91.072,4.5,91.072,4.5" transform="translate(-31.551 -1.632)"/>
      <path id="패스_5099" data-name="패스 5099" class="cls-6" d="M36.827,59.6l-.127.127s.064,0,.127-.127Z" transform="translate(-13.312 -21.619)"/>
      <path id="패스_5100" data-name="패스 5100" class="cls-2" d="M16.492,74.912l.064-.319a.669.669,0,0,1,.319-.574.77.77,0,0,1,.637-.191h.064a.914.914,0,0,1,.828.956v.064l-.064.319a.451.451,0,1,0,.892.127l.064-.319h0v-.127A1.719,1.719,0,0,0,17.7,73h-.127a1.948,1.948,0,0,0-1.275.446,2.069,2.069,0,0,0-.637,1.147l-.064.319a.485.485,0,0,0,.382.51c.319-.064.51-.255.51-.51" transform="translate(-5.659 -26.479)"/>
      <path id="패스_5101" data-name="패스 5101" class="cls-2" d="M24.291,77.854l.191-.255a.991.991,0,0,1,.51-.382.754.754,0,0,1,.637.064h.064a.91.91,0,0,1,.319,1.211v.064l-.191.255a.46.46,0,0,0,.765.51l.191-.255h0L26.84,79a1.76,1.76,0,0,0-.637-2.358l-.127-.064a1.63,1.63,0,0,0-1.338-.127,1.9,1.9,0,0,0-1.083.765l-.191.255a.494.494,0,0,0,.127.637.87.87,0,0,0,.7-.255" transform="translate(-8.486 -27.701)"/>
      <path id="패스_5102" data-name="패스 5102" class="cls-1" d="M51.282,162.7h0c-.255,0-.382.191-.382.446a.921.921,0,0,0,.127.446l.191.382a.487.487,0,0,0,.319.127.383.383,0,0,0,.255-.064.337.337,0,0,0,.064-.51h0c0-.064-.064-.127-.127-.191a.383.383,0,0,1-.064-.255.367.367,0,0,0-.382-.382" transform="translate(-18.463 -59.016)"/>
      <path id="패스_5103" data-name="패스 5103" class="cls-1" d="M50.382,155.9h0c-.255,0-.382.191-.382.446a.921.921,0,0,0,.127.446l.191.382a.487.487,0,0,0,.319.127.383.383,0,0,0,.255-.064.337.337,0,0,0,.064-.51c-.064-.064-.064-.127-.127-.191a.383.383,0,0,1-.064-.255.367.367,0,0,0-.382-.382" transform="translate(-18.136 -56.55)"/>
      <path id="패스_5104" data-name="패스 5104" class="cls-1" d="M56.082,177h0c-.255,0-.382.191-.382.446a.921.921,0,0,0,.127.446,1.333,1.333,0,0,0,.255.382.487.487,0,0,0,.319.127.383.383,0,0,0,.255-.064.337.337,0,0,0,.064-.51c0-.064-.064-.127-.127-.191a.383.383,0,0,1-.064-.255.465.465,0,0,0-.446-.382" transform="translate(-20.204 -64.203)"/>
      <path id="패스_5105" data-name="패스 5105" class="cls-1" d="M58.982,182.1h0c-.255,0-.382.191-.382.446a.921.921,0,0,0,.127.446l.191.382a.487.487,0,0,0,.319.127.383.383,0,0,0,.255-.064.337.337,0,0,0,.064-.51c-.064-.064-.064-.127-.127-.191a.383.383,0,0,1-.064-.255q-.1-.382-.382-.382" transform="translate(-21.256 -66.053)"/>
      <path id="패스_5106" data-name="패스 5106" class="cls-1" d="M56.282,185.9h0c-.255,0-.382.191-.382.446a.921.921,0,0,0,.127.446l.191.382a.487.487,0,0,0,.319.127.383.383,0,0,0,.255-.064.337.337,0,0,0,.064-.51c0-.064-.064-.127-.127-.191a.383.383,0,0,1-.064-.255.367.367,0,0,0-.382-.382" transform="translate(-20.277 -67.431)"/>
      <path id="패스_5107" data-name="패스 5107" class="cls-1" d="M53.982,181.1h0c-.255,0-.382.191-.382.446a.921.921,0,0,0,.127.446l.191.382a.487.487,0,0,0,.319.127.383.383,0,0,0,.255-.064.337.337,0,0,0,.064-.51c0-.064-.064-.127-.127-.191a.383.383,0,0,1-.064-.255.367.367,0,0,0-.382-.382" transform="translate(-19.442 -65.69)"/>
      <path id="패스_5108" data-name="패스 5108" class="cls-1" d="M58.782,174.3h0c-.255,0-.382.191-.382.446a.921.921,0,0,0,.127.446l.191.382a.487.487,0,0,0,.319.127.383.383,0,0,0,.255-.064.337.337,0,0,0,.064-.51c0-.064-.064-.127-.127-.191a.383.383,0,0,1-.064-.255q-.1-.382-.382-.382" transform="translate(-21.183 -63.224)"/>
      <path id="패스_5109" data-name="패스 5109" class="cls-1" d="M50.682,173.8h0c-.255,0-.382.191-.382.446a1.181,1.181,0,0,0,.127.446l.191.382a.487.487,0,0,0,.319.127.383.383,0,0,0,.255-.064.337.337,0,0,0,.064-.51c0-.064-.064-.127-.127-.191a.383.383,0,0,1-.064-.255q-.1-.382-.382-.382" transform="translate(-18.245 -63.042)"/>
      <path id="패스_5110" data-name="패스 5110" class="cls-1" d="M50.882,167.9h0c-.255,0-.382.191-.382.446a1.181,1.181,0,0,0,.127.446l.191.382a.487.487,0,0,0,.319.127.383.383,0,0,0,.255-.064.337.337,0,0,0,.064-.51c0-.064-.064-.127-.127-.191a.383.383,0,0,1-.064-.255q-.1-.382-.382-.382" transform="translate(-18.318 -60.902)"/>
      <path id="패스_5111" data-name="패스 5111" class="cls-1" d="M54.782,159.7h0c-.255,0-.382.191-.382.446a.921.921,0,0,0,.127.446l.191.382a.487.487,0,0,0,.319.127.383.383,0,0,0,.255-.064.337.337,0,0,0,.064-.51c0-.064-.064-.127-.127-.191a.383.383,0,0,1-.064-.255q-.1-.382-.382-.382" transform="translate(-19.732 -57.928)"/>
      <path id="패스_5112" data-name="패스 5112" class="cls-1" d="M54.782,171.1h0c-.255,0-.382.191-.382.446a.921.921,0,0,0,.127.446l.191.382a.487.487,0,0,0,.319.127.383.383,0,0,0,.255-.064.337.337,0,0,0,.064-.51c0-.064-.064-.127-.127-.191a.383.383,0,0,1-.064-.255q-.1-.382-.382-.382" transform="translate(-19.732 -62.063)"/>
      <path id="패스_5113" data-name="패스 5113" class="cls-1" d="M100.534,195.7a.4.4,0,0,0-.382.319.482.482,0,0,1-.064.255c-.064.064-.064.191-.127.191a.386.386,0,0,0,.064.51c.064.064.127.064.255.064s.191-.064.319-.127l.191-.382a.921.921,0,0,0,.127-.446.367.367,0,0,0-.382-.382h0" transform="translate(-36.233 -70.986)"/>
      <path id="패스_5114" data-name="패스 5114" class="cls-1" d="M98.734,191a.4.4,0,0,0-.382.319c0,.064-.064.127-.064.255-.064.064-.064.191-.127.255a.386.386,0,0,0,.064.51c.064.064.127.064.255.064s.191-.064.319-.127l.191-.382a.921.921,0,0,0,.127-.446.465.465,0,0,0-.382-.446h0" transform="translate(-35.58 -69.281)"/>
      <path id="패스_5115" data-name="패스 5115" class="cls-1" d="M108.223,186.4a.4.4,0,0,0-.382.319c0,.064-.064.127-.064.255-.064.064-.064.191-.127.191a.332.332,0,0,0,.064.51c.064.064.127.064.255.064s.191-.064.319-.127l.191-.382a.921.921,0,0,0,.127-.446c.064-.191-.127-.382-.382-.382h0" transform="translate(-39.015 -67.613)"/>
      <path id="패스_5116" data-name="패스 5116" class="cls-1" d="M105.023,192.4a.4.4,0,0,0-.382.319c0,.064-.064.127-.064.255-.064.064-.064.191-.127.191a.332.332,0,0,0,.064.51c.064.064.127.064.255.064s.191-.064.319-.127l.191-.382a.921.921,0,0,0,.127-.446.462.462,0,0,0-.382-.382h0" transform="translate(-37.855 -69.789)"/>
      <path id="패스_5117" data-name="패스 5117" class="cls-1" d="M103.923,188.7a.4.4,0,0,0-.382.319c0,.064-.064.127-.064.255-.064.064-.064.191-.127.191a.332.332,0,0,0,.064.51c.064.064.127.064.255.064s.191-.064.319-.127l.191-.382a.921.921,0,0,0,.127-.446.367.367,0,0,0-.382-.382h0" transform="translate(-37.456 -68.447)"/>
      <path id="패스_5118" data-name="패스 5118" class="cls-1" d="M109.034,191a.4.4,0,0,0-.382.319c0,.064-.064.127-.064.255-.064.064-.064.191-.127.255a.386.386,0,0,0,.064.51c.064.064.127.064.255.064s.191-.064.319-.127h0l.191-.382a.921.921,0,0,0,.127-.446.465.465,0,0,0-.382-.446h0" transform="translate(-39.317 -69.281)"/>
      <path id="패스_5119" data-name="패스 5119" class="cls-1" d="M103.423,198a.4.4,0,0,0-.382.319c0,.064-.064.127-.064.255-.064.064-.064.191-.127.191a.332.332,0,0,0,.064.51c.064.064.127.064.255.064s.191-.064.319-.127l.191-.382a.921.921,0,0,0,.127-.446c.064-.191-.127-.382-.382-.382h0" transform="translate(-37.274 -71.82)"/>
      <path id="패스_5120" data-name="패스 5120" class="cls-1" d="M103.805,99.7c-.064,0-.127,0-.127.064a.4.4,0,0,0-.191.51c.064.064.064.319.064.446v.064a.479.479,0,0,0,.319.446h.064a.4.4,0,0,0,.382-.319v-.127a2.291,2.291,0,0,0-.127-.7c-.127-.319-.255-.382-.382-.382" transform="translate(-37.529 -36.164)"/>
      <path id="패스_5121" data-name="패스 5121" class="cls-1" d="M97.405,86.7c-.064,0-.127,0-.127.064a.4.4,0,0,0-.191.51c.064.064.064.319.064.446v.064a.479.479,0,0,0,.319.446h.064a.4.4,0,0,0,.382-.319V87.72a2.291,2.291,0,0,0-.127-.7c-.127-.255-.255-.319-.382-.319" transform="translate(-35.207 -31.449)"/>
      <path id="패스_5122" data-name="패스 5122" class="cls-1" d="M103.505,86.7h-.127a.4.4,0,0,0-.191.51c.064.064.064.319.064.446v.064a.479.479,0,0,0,.319.446h.064a.4.4,0,0,0,.382-.319V87.72a2.291,2.291,0,0,0-.127-.7c-.127-.191-.255-.319-.382-.319" transform="translate(-37.42 -31.449)"/>
      <path id="패스_5123" data-name="패스 5123" class="cls-1" d="M95.905,81c-.064,0-.127,0-.127.064a.4.4,0,0,0-.191.51c0,.064.064.127.064.191v.319a.479.479,0,0,0,.319.446h.064a.4.4,0,0,0,.382-.319V82.02a.808.808,0,0,0-.064-.382.487.487,0,0,0-.127-.319c-.064-.255-.191-.319-.319-.319" transform="translate(-34.663 -29.381)"/>
      <path id="패스_5124" data-name="패스 5124" class="cls-1" d="M101.505,73.9h-.127a.4.4,0,0,0-.191.51c.064.064.064.319.064.446v.064a.479.479,0,0,0,.319.446h.064a.4.4,0,0,0,.382-.319V74.92a2.291,2.291,0,0,0-.127-.7.385.385,0,0,0-.382-.319" transform="translate(-36.695 -26.806)"/>
      <path id="패스_5125" data-name="패스 5125" class="cls-1" d="M100.405,83.2h-.127a.4.4,0,0,0-.191.51c.064.064.064.319.064.446v.064a.479.479,0,0,0,.319.446h.064a.4.4,0,0,0,.382-.319V84.22a2.291,2.291,0,0,0-.127-.7c-.064-.255-.191-.319-.382-.319" transform="translate(-36.296 -30.179)"/>
      <path id="패스_5126" data-name="패스 5126" class="cls-1" d="M98.605,69.4c-.064,0-.127,0-.127.064a.4.4,0,0,0-.191.51c.064.064.064.319.064.446v.064a.479.479,0,0,0,.319.446h.064a.4.4,0,0,0,.382-.319v-.127a3.2,3.2,0,0,0-.127-.765.4.4,0,0,0-.382-.319" transform="translate(-35.643 -25.173)"/>
      <path id="패스_5127" data-name="패스 5127" class="cls-1" d="M97.105,74.9c-.064,0-.127,0-.127.064a.4.4,0,0,0-.191.51c.064.064.064.319.064.446v.064a.479.479,0,0,0,.319.446h.064a.4.4,0,0,0,.382-.319V75.92a2.291,2.291,0,0,0-.127-.7.4.4,0,0,0-.382-.319" transform="translate(-35.099 -27.168)"/>
      <path id="패스_5128" data-name="패스 5128" class="cls-1" d="M100.005,78c-.064,0-.127,0-.127.064a.4.4,0,0,0-.191.51c0,.064.064.127.064.191v.319a.479.479,0,0,0,.319.446h.064a.4.4,0,0,0,.382-.319v-.127a.808.808,0,0,0-.064-.382.487.487,0,0,0-.127-.319c-.064-.319-.191-.382-.319-.382" transform="translate(-36.151 -28.293)"/>
      <path id="패스_5129" data-name="패스 5129" class="cls-1" d="M101.905,91h-.127a.4.4,0,0,0-.191.51c.064.064.064.319.064.446v.064a.479.479,0,0,0,.319.446h.064a.4.4,0,0,0,.382-.319V92.02a2.291,2.291,0,0,0-.127-.7c-.127-.191-.255-.319-.382-.319" transform="translate(-36.84 -33.008)"/>
      <path id="패스_5130" data-name="패스 5130" class="cls-1" d="M100.205,96.7h-.127a.4.4,0,0,0-.191.51c.064.064.064.319.064.446v.064a.479.479,0,0,0,.319.446h.064a.4.4,0,0,0,.382-.319V97.72a2.291,2.291,0,0,0-.127-.7.4.4,0,0,0-.382-.319" transform="translate(-36.223 -35.076)"/>
      <path id="패스_5131" data-name="패스 5131" class="cls-1" d="M104.105,94.8c-.064,0-.127,0-.127.064a.4.4,0,0,0-.191.51h0c.064.064.064.319.064.446v.064a.479.479,0,0,0,.319.446h.064a.4.4,0,0,0,.382-.319V95.82a2.291,2.291,0,0,0-.127-.7c-.064-.255-.191-.319-.382-.319" transform="translate(-37.638 -34.387)"/>
      <path id="패스_5132" data-name="패스 5132" class="cls-1" d="M97.205,92.7c-.064,0-.127,0-.127.064a.4.4,0,0,0-.191.51c.064,0,.064.255.064.382v.064a.479.479,0,0,0,.319.446h.064a.4.4,0,0,0,.382-.319v-.191a2.291,2.291,0,0,0-.127-.7.4.4,0,0,0-.382-.255" transform="translate(-35.135 -33.625)"/>
      <path id="패스_5133" data-name="패스 5133" class="cls-3" d="M27.461,106s6.182,10.579,15.741,4.4l-1.338,10.515S28.8,126.584,23,110.333Z" transform="translate(-8.343 -38.449)"/>
      <path id="패스_5134" data-name="패스 5134" class="cls-1" d="M30,106" transform="translate(-10.882 -38.449)"/>
      <path id="패스_5135" data-name="패스 5135" class="cls-1" d="M27.425,106h0m0,0,0,0h0m0,0a16.182,16.182,0,0,0,4.652,4.716h0A16.182,16.182,0,0,1,27.425,106M22.9,110.27a22,22,0,0,0,4.079,7.265h0A22.687,22.687,0,0,1,22.9,110.27" transform="translate(-8.307 -38.449)"/>
      <path id="패스_5136" data-name="패스 5136" class="cls-1" d="M27.425,106h0L22.9,110.27a22,22,0,0,0,4.079,7.265l1.083-.637c1.083-.637,1.338-2.74,1.338-2.74a3.12,3.12,0,0,1,2.613-3.314A17.9,17.9,0,0,1,27.425,106Z" transform="translate(-8.307 -38.449)"/>
      <path id="패스_5137" data-name="패스 5137" class="cls-4" d="M41.579,105.791l2.039,3.632-4.525,4.27L37.5,107.7a10.064,10.064,0,0,1,4.015-2.1Z" transform="translate(-13.602 -38.304)"/>
      <path id="패스_5138" data-name="패스 5138" class="cls-3" d="M44.661,111.6S50.842,122.179,60.4,116l-1.338,10.515S46,132.184,40.2,115.933Z" transform="translate(-14.582 -40.481)"/>
      <path id="패스_5139" data-name="패스 5139" class="cls-1" d="M47.2,111.6m0,0h0m0,0h0m0,0Zm0,0a12.827,12.827,0,0,0,1.721,2.294A11.7,11.7,0,0,1,47.2,111.6" transform="translate(-17.121 -40.481)"/>
      <path id="패스_5140" data-name="패스 5140" class="cls-6" d="M46.345,115.2h0a21.165,21.165,0,0,0,1.721,1.593,10.578,10.578,0,0,1-1.721-1.593m1.721,1.593h0m0,0h0m0,.064h0m-7.966.319a22,22,0,0,0,4.079,7.265h0a22.687,22.687,0,0,1-4.079-7.265" transform="translate(-14.545 -41.786)"/>
      <path id="패스_5141" data-name="패스 5141" class="cls-1" d="M44.625,111.6h0L40.1,115.87a22,22,0,0,0,4.079,7.265l1.083-.637c1.083-.637,1.338-2.74,1.338-2.74a3.167,3.167,0,0,1,2.613-3.314,12.922,12.922,0,0,1-1.147-.828h0a21.164,21.164,0,0,1-1.721-1.593,14.823,14.823,0,0,1-1.721-2.422Z" transform="translate(-14.545 -40.481)"/>
      <path id="패스_5142" data-name="패스 5142" class="cls-1" d="M47.991,43.3c-5.353,4.588-8.922,5.226-8.922,5.226.765,2.931-2.422,5.927-3.314,6.819L35.5,55.6c5.481-4.652,9.5-4.843,9.5-4.843-1.976-2.931,3-7.456,3-7.456" transform="translate(-12.877 -15.706)"/>
      <path id="패스_5143" data-name="패스 5143" class="cls-4" d="M43.431,44.363a1.466,1.466,0,0,1-2.931,0A1.482,1.482,0,0,1,41.966,42.9a1.441,1.441,0,0,1,1.466,1.466" transform="translate(-14.691 -15.559)"/>
      <path id="패스_5144" data-name="패스 5144" class="cls-4" d="M60.514,52.957A1.657,1.657,0,1,1,58.857,51.3a1.687,1.687,0,0,1,1.657,1.657" transform="translate(-20.748 -18.608)"/>
      <path id="패스_5145" data-name="패스 5145" class="cls-4" d="M43.691,40.69a2.074,2.074,0,0,0-.191.828,1.6,1.6,0,0,0,.319,1.02,2.7,2.7,0,0,0,1.211.956A.514.514,0,0,0,45.6,43.3a.438.438,0,0,0-.191-.574,1.852,1.852,0,0,1-.828-.637,1.028,1.028,0,0,1-.191-.574.478.478,0,0,1,.064-.319v-.064h0l-.191-.064.191.127h0l-.191-.064.191.127a.438.438,0,0,0-.191-.574c-.255-.319-.51-.191-.574,0" transform="translate(-15.779 -14.689)"/>
      <path id="패스_5146" data-name="패스 5146" class="cls-4" d="M60.348,49.89l.191.127-.191-.127h0l.191.127-.191-.127h0l-.255.255a.951.951,0,0,1-.637.191,1.688,1.688,0,0,1-1.02-.382.415.415,0,0,0-.446.7,2.715,2.715,0,0,0,1.529.51,2.1,2.1,0,0,0,1.211-.382.949.949,0,0,0,.382-.446.415.415,0,0,0-.127-.574.479.479,0,0,0-.637.127" transform="translate(-20.964 -18.026)"/>
      <path id="패스_5147" data-name="패스 5147" class="cls-2" d="M5.547,68.886a3.48,3.48,0,0,0-.574.828,4.588,4.588,0,0,0-.574,2.1,3.536,3.536,0,0,0,.51,1.848.59.59,0,0,0,.765.191.59.59,0,0,0,.191-.765,2.641,2.641,0,0,1-.382-1.275,2.885,2.885,0,0,1,.446-1.529,5.875,5.875,0,0,0,.319-.51c.064-.064.064-.127.127-.127h0l-.127-.127.064.064h0l-.064-.064.064.064a.581.581,0,0,0,0-.765.521.521,0,0,0-.765.064" transform="translate(-1.596 -24.914)"/>
      <path id="패스_5148" data-name="패스 5148" class="cls-2" d="M1.784,66.518a9.061,9.061,0,0,0-.892,1.275A6.761,6.761,0,0,0,0,71.043a5.7,5.7,0,0,0,.765,2.868.59.59,0,0,0,.765.191.59.59,0,0,0,.191-.765,4.823,4.823,0,0,1-.637-2.294,5.526,5.526,0,0,1,.765-2.677c.191-.319.382-.637.51-.828q.191-.1.191-.191l.064-.064h0l-.127-.127.127.127h0l-.127-.127.127.127a.582.582,0,0,0,0-.765.67.67,0,0,0-.828,0" transform="translate(0 -24.076)"/>
      <path id="패스_5149" data-name="패스 5149" class="cls-7" d="M15.717,24.3s-.637,7.329-5.417,7.392c0,0,3.7-.255,5.417,5.927,0,0,.828-5.353,4.971-5.863,0-.064-5.99-.191-4.971-7.456" transform="translate(-3.736 -8.814)"/>
      <path id="패스_5150" data-name="패스 5150" class="cls-2" d="M63.011,33.336A1.21,1.21,0,0,1,61.8,32.126v-.765c.127-2.677.956-4.461,4.525-4.461h3.5a1.211,1.211,0,1,1,0,2.422h-3.5c-1.657,0-1.976.191-2.1,2.167v.637a1.21,1.21,0,0,1-1.211,1.211" transform="translate(-22.417 -9.757)"/>
      <path id="패스_5151" data-name="패스 5151" class="cls-2" d="M57.911,30.276A1.21,1.21,0,0,1,56.7,29.065V28.3c.255-3.951,2.74-6.373,6.628-6.5H69.7a1.211,1.211,0,1,1,0,2.422H63.391c-3.25.064-4.142,2.358-4.27,4.206v.637a1.252,1.252,0,0,1-1.211,1.211" transform="translate(-20.567 -7.907)"/>
      <path id="패스_5152" data-name="패스 5152" class="cls-2" d="M52.911,27.16A1.21,1.21,0,0,1,51.7,25.949v-.319A8.744,8.744,0,0,1,60.431,16.9h9.432a1.21,1.21,0,0,1,1.211,1.211,1.172,1.172,0,0,1-1.211,1.211H60.494a6.391,6.391,0,0,0-6.373,6.373v.319a1.158,1.158,0,0,1-1.211,1.147" transform="translate(-18.753 -6.13)"/>
    </g>
    <g id="그룹_1537" data-name="그룹 1537" transform="translate(412.813 1252.536)">
      <path id="패스_5153" data-name="패스 5153" class="cls-3" d="M7.887,25.347A20.056,20.056,0,0,1,3.4,31.657C2.157,32.737-.168,33.9,0,35.809c.415,4.152,9.881,3.4,12.455,3.4,4.982,0,9.964,0,14.946.083,5.065,0,11.459,1.661,16.109-.83,4.816-2.574-1.91-6.975-2.823-9.964-2.242-6.726-7.473-15.611-16.109-16.109-5.314-.249-9.715.83-12.788,5.314a55.35,55.35,0,0,0-3.9,7.639" transform="translate(0.01 -2.083)"/>
      <path id="패스_5154" data-name="패스 5154" class="cls-2" d="M45.018,18.929a22.046,22.046,0,0,1-5.231,8.387c-1.578,1.495-10.3,6.311-5.48,8.885,3.321,1.744,8.47,1.412,12.123,1.495,1.495.083,3.072,0,4.567,0,11.376,0,22.669.083,34.045,0,5.231-.083,18.268-.747,8.221-8.636-5.9-4.567-3.487-13.784-7.058-19.679C82.218,2.82,74.828-.252,67.272,0,54.484.5,49.253,7.387,45.018,18.929" transform="translate(-5.568 0.017)"/>
    </g>
    <g id="그룹_1538" data-name="그룹 1538" transform="translate(407 1215.17)">
      <g id="그룹_1443" data-name="그룹 1443" transform="translate(22.259 0)">
        <path id="패스_5155" data-name="패스 5155" class="cls-3" d="M39.788,17.105a.749.749,0,0,0,.415-.083,8.935,8.935,0,0,0,4.733-6.394,9.123,9.123,0,0,0-2.657-7.805A9.123,9.123,0,0,0,35.719,0h0a9.227,9.227,0,0,0-6.311,2.657A7.535,7.535,0,0,0,27,8.387a8,8,0,0,0,2.574,5.646,6.433,6.433,0,0,0,8.8-.332,5.334,5.334,0,0,0,1.661-3.654,5.006,5.006,0,0,0-1.495-3.737,4.44,4.44,0,0,0-3.4-1.329,3.819,3.819,0,0,0-2.989,1.412A3.553,3.553,0,0,0,31.567,9.3a2.969,2.969,0,0,0,1.744,2.076.962.962,0,0,0,1.163-.5.962.962,0,0,0-.5-1.162,1.346,1.346,0,0,1-.747-.913,1.311,1.311,0,0,1,.249-1.329,2.67,2.67,0,0,1,1.744-.83,2.941,2.941,0,0,1,2.159.83,3.326,3.326,0,0,1,1,2.408,3.5,3.5,0,0,1-1.163,2.491,4.643,4.643,0,0,1-6.394.249,5.786,5.786,0,0,1-1.993-4.4,5.82,5.82,0,0,1,1.744-4.4,7.044,7.044,0,0,1,5.065-2.159h0A7.44,7.44,0,0,1,40.95,3.986,7.212,7.212,0,0,1,43.109,10.3a6.9,6.9,0,0,1-3.737,5.065.955.955,0,0,0-.415,1.162A.865.865,0,0,0,39.788,17.105Z" transform="translate(-27 0)"/>
      </g>
      <g id="그룹_1444" data-name="그룹 1444" transform="translate(0 14.282)">
        <path id="패스_5156" data-name="패스 5156" class="cls-3" d="M12.82,34.305a.749.749,0,0,0,.415-.083,8.935,8.935,0,0,0,4.733-6.394,9.123,9.123,0,0,0-2.657-7.805A9.123,9.123,0,0,0,8.752,17.2h0a9.228,9.228,0,0,0-6.311,2.657A7.694,7.694,0,0,0,.2,25.587a8,8,0,0,0,2.574,5.646,6.433,6.433,0,0,0,8.8-.332,5.334,5.334,0,0,0,1.661-3.654,5.006,5.006,0,0,0-1.495-3.737,4.44,4.44,0,0,0-3.4-1.329,3.819,3.819,0,0,0-2.989,1.412A3.553,3.553,0,0,0,4.766,26.5,2.969,2.969,0,0,0,6.51,28.576a.894.894,0,0,0,.664-1.661A1.346,1.346,0,0,1,6.427,26a1.311,1.311,0,0,1,.249-1.329,2.67,2.67,0,0,1,1.744-.83,2.941,2.941,0,0,1,2.159.83,3.326,3.326,0,0,1,1,2.408,3.5,3.5,0,0,1-1.163,2.491,4.643,4.643,0,0,1-6.394.249,5.786,5.786,0,0,1-1.993-4.4,5.82,5.82,0,0,1,1.744-4.4,7.044,7.044,0,0,1,5.065-2.159h0a7.44,7.44,0,0,1,5.314,2.325A7.212,7.212,0,0,1,16.308,27.5a6.9,6.9,0,0,1-3.737,5.065.955.955,0,0,0-.415,1.163A.588.588,0,0,0,12.82,34.305Z" transform="translate(-0.193 -17.2)"/>
      </g>
    </g>
    <g id="그룹_1542" data-name="그룹 1542" transform="translate(437.229 1173.116) rotate(14)">
      <path id="패스_5295" data-name="패스 5295" class="cls-8" d="M5.986,1.27a1.285,1.285,0,0,1-1.27,1.27H1.27A1.285,1.285,0,0,1,0,1.27H0A1.285,1.285,0,0,1,1.27,0H4.717a1.285,1.285,0,0,1,1.27,1.27Z" transform="translate(16.834 5.49)"/>
      <path id="패스_5296" data-name="패스 5296" class="cls-8" d="M5.986,1.27a1.285,1.285,0,0,1-1.27,1.27H1.27A1.285,1.285,0,0,1,0,1.27H0A1.285,1.285,0,0,1,1.27,0H4.717a1.285,1.285,0,0,1,1.27,1.27Z" transform="translate(16.834 14.451)"/>
      <path id="패스_5297" data-name="패스 5297" class="cls-2" d="M0,8.889l5.261,6.893a2.136,2.136,0,0,0,1.633.8c.327,0,.653.036,1.2.036A1.609,1.609,0,0,0,9.179,16.4a.988.988,0,0,0,.327-.762,2.57,2.57,0,0,0,.036-.508V3.556c0-.907.036-1.814,0-2.721A.623.623,0,0,0,9.324.29a1.268,1.268,0,0,0-.8-.29H6.494a1.362,1.362,0,0,0-.98.617L1.633,5.152Z" transform="translate(11.428 3.022)"/>
      <g id="그룹_1453" data-name="그룹 1453" transform="translate(1.125 0)">
        <path id="패스_5298" data-name="패스 5298" class="cls-1" d="M4.209.882C3.882-.025,3.374-.025,2.54.011A3.794,3.794,0,0,0,1.125.3,2.654,2.654,0,0,0,.073,1.607h0C.036,1.644.036,1.68,0,1.716H4.281A1.328,1.328,0,0,0,4.209.882Z" transform="translate(29.932 0)"/>
        <path id="패스_5299" data-name="패스 5299" class="cls-2" d="M22.24,0H2A14.788,14.788,0,0,0,0,1.342a.538.538,0,0,0,.254.036H22.24A.689.689,0,0,0,22.93.689.667.667,0,0,0,22.24,0Z" transform="translate(0 7.92)"/>
        <path id="패스_5300" data-name="패스 5300" class="cls-2" d="M.508,0C.327.363.145.726,0,1.052H5.116L5.224,0Z" transform="translate(28.916 2.805)"/>
        <path id="패스_5301" data-name="패스 5301" class="cls-8" d="M4.717,1.088,4.825.073V0H.544C.363.363.181.689,0,1.052H4.717Z" transform="translate(29.424 1.716)"/>
      </g>
      <path id="패스_5302" data-name="패스 5302" class="cls-1" d="M4.97.254a.248.248,0,0,1-.254.254H.254A.248.248,0,0,1,0,.254H0A.248.248,0,0,1,.254,0H4.717A.248.248,0,0,1,4.97.254Z" transform="translate(2.685 8.319)"/>
      <path id="패스_5303" data-name="패스 5303" class="cls-1" d="M1.306.254a.248.248,0,0,1-.254.254h-.8A.248.248,0,0,1,0,.254H0A.248.248,0,0,1,.254,0h.8a.248.248,0,0,1,.254.254Z" transform="translate(8.381 8.319)"/>
      <path id="패스_5304" data-name="패스 5304" class="cls-1" d="M.98.254A.248.248,0,0,1,.726.508H.254A.248.248,0,0,1,0,.254H0A.248.248,0,0,1,.254,0H.726A.248.248,0,0,1,.98.254Z" transform="translate(10.449 8.319)"/>
      <path id="패스_5305" data-name="패스 5305" class="cls-1" d="M.762.254A.248.248,0,0,1,.508.508H.254A.248.248,0,0,1,0,.254H0A.248.248,0,0,1,.254,0H.508A.248.248,0,0,1,.762.254Z" transform="translate(12.118 8.319)"/>
      <path id="패스_5306" data-name="패스 5306" class="cls-1" d="M.544.254A.248.248,0,0,1,.29.508H.254A.248.248,0,0,1,0,.254H0A.248.248,0,0,1,.254,0H.29A.248.248,0,0,1,.544.254Z" transform="translate(13.46 8.319)"/>
      <path id="패스_5307" data-name="패스 5307" class="cls-1" d="M.544.254A.248.248,0,0,1,.29.508H.254A.248.248,0,0,1,0,.254H0A.248.248,0,0,1,.254,0H.29A.248.248,0,0,1,.544.254Z" transform="translate(14.512 8.319)"/>
      <path id="패스_5308" data-name="패스 5308" class="cls-1" d="M.544.254A.248.248,0,0,1,.29.508H.254A.248.248,0,0,1,0,.254H0A.248.248,0,0,1,.254,0H.29A.248.248,0,0,1,.544.254Z" transform="translate(15.601 8.319)"/>
      <path id="패스_5309" data-name="패스 5309" class="cls-1" d="M.544.254A.248.248,0,0,1,.29.508H.254A.248.248,0,0,1,0,.254H0A.248.248,0,0,1,.254,0H.29A.248.248,0,0,1,.544.254Z" transform="translate(16.653 8.319)"/>
      <path id="패스_5310" data-name="패스 5310" class="cls-1" d="M.544.254A.248.248,0,0,1,.29.508H.254A.248.248,0,0,1,0,.254H0A.248.248,0,0,1,.254,0H.29A.248.248,0,0,1,.544.254Z" transform="translate(17.705 8.319)"/>
      <path id="패스_5311" data-name="패스 5311" class="cls-1" d="M.544.254A.248.248,0,0,1,.29.508H.254A.248.248,0,0,1,0,.254H0A.248.248,0,0,1,.254,0H.29A.248.248,0,0,1,.544.254Z" transform="translate(18.794 8.319)"/>
      <path id="패스_5312" data-name="패스 5312" class="cls-1" d="M.544.254A.248.248,0,0,1,.29.508H.254A.248.248,0,0,1,0,.254H0A.248.248,0,0,1,.254,0H.29A.248.248,0,0,1,.544.254Z" transform="translate(19.846 8.319)"/>
      <path id="패스_5313" data-name="패스 5313" class="cls-1" d="M.544.254A.248.248,0,0,1,.29.508H.254A.248.248,0,0,1,0,.254H0A.248.248,0,0,1,.254,0H.29A.248.248,0,0,1,.544.254Z" transform="translate(20.898 8.319)"/>
      <path id="패스_5314" data-name="패스 5314" class="cls-1" d="M.544.254A.248.248,0,0,1,.29.508H.254A.248.248,0,0,1,0,.254H0A.248.248,0,0,1,.254,0H.29A.248.248,0,0,1,.544.254Z" transform="translate(21.986 8.319)"/>
      <g id="그룹_1454" data-name="그룹 1454" transform="translate(0 3.857)">
        <path id="패스_5315" data-name="패스 5315" class="cls-1" d="M33.923,6.785l-.073.327L35.12,0H30.041c-.145.327-.327.617-.472.943a3.943,3.943,0,0,1-2.83,2.177c-.109,0-.181.036-.29.036H6.385c-.218,0-.98.036-1.2.073a7.789,7.789,0,0,0-2.068.8H23.365a.689.689,0,0,1,0,1.379H1.379c-.073,0-.181-.036-.254-.036A2.347,2.347,0,0,0,.8,5.66,1.942,1.942,0,0,0,0,7.184H33.85C33.85,7.147,33.923,6.821,33.923,6.785Z"/>
        <path id="패스_5316" data-name="패스 5316" class="cls-8" d="M1.923,1.959H30.077c1.161,0,3.592-.834,3.809-1.959H0V.036A1.912,1.912,0,0,0,1.923,1.959Z" transform="translate(0 7.184)"/>
      </g>
      <path id="패스_5317" data-name="패스 5317" class="cls-2" d="M2.261,0H3.6a1.119,1.119,0,0,1,.98,1.234V2.249a.587.587,0,0,1-.508.58A1.044,1.044,0,0,1,3.6,2.794c-.218-.109-.435-.181-.653-.29-.544-.218-1.052-.472-1.6-.689C.919,1.633.375,1.488.121,1.052A.613.613,0,0,1,.012.689.49.49,0,0,1,.266.109,1.31,1.31,0,0,1,.919,0Z" transform="translate(31.371 5.163)"/>
    </g>
    <g id="그룹_1546" data-name="그룹 1546" transform="translate(388.917 1325.485)">
      <ellipse id="타원_38" data-name="타원 38" class="cls-9" cx="3.006" cy="2.892" rx="3.006" ry="2.892" transform="translate(0.066 3.346)"/>
      <path id="패스_5464" data-name="패스 5464" class="cls-9" d="M5.38,0S-.971,1.758.106,7.032l2.665-.624S1.41,2.042,5.38,0Z" transform="translate(0.017)"/>
    </g>
    <g id="그룹_1550" data-name="그룹 1550" transform="translate(608.8 1334.615) rotate(180)">
      <ellipse id="타원_38-2" data-name="타원 38" class="cls-9" cx="3.006" cy="2.892" rx="3.006" ry="2.892" transform="translate(0.066 3.346)"/>
      <path id="패스_5464-2" data-name="패스 5464" class="cls-9" d="M5.38,0S-.971,1.758.106,7.032l2.665-.624S1.41,2.042,5.38,0Z" transform="translate(0.017)"/>
    </g>
    <g id="그룹_1554" data-name="그룹 1554" transform="translate(395.723 1325.485)">
      <ellipse id="타원_38-3" data-name="타원 38" class="cls-9" cx="3.006" cy="2.892" rx="3.006" ry="2.892" transform="translate(0.066 3.346)"/>
      <path id="패스_5464-3" data-name="패스 5464" class="cls-9" d="M5.38,0S-.971,1.758.106,7.032l2.665-.624S1.41,2.042,5.38,0Z" transform="translate(0.017)"/>
    </g>
    <g id="그룹_1558" data-name="그룹 1558" transform="translate(601.995 1334.615) rotate(180)">
      <ellipse id="타원_38-4" data-name="타원 38" class="cls-9" cx="3.006" cy="2.892" rx="3.006" ry="2.892" transform="translate(0.066 3.346)"/>
      <path id="패스_5464-4" data-name="패스 5464" class="cls-9" d="M5.38,0S-.971,1.758.106,7.032l2.665-.624S1.41,2.042,5.38,0Z" transform="translate(0.017)"/>
    </g>
  </g>
</svg>
