<svg xmlns="http://www.w3.org/2000/svg" viewBox="0 0 280 210">
  <defs>
    <style>
      .cls-1 {
        fill: #fff;
      }

      .cls-2 {
        fill: #727171;
      }

      .cls-3 {
        fill: #ea5541;
      }

      .cls-4 {
        fill: none;
        stroke: #333;
        stroke-miterlimit: 10;
        stroke-width: 2.184px;
      }

      .cls-5 {
        fill: #fdd35c;
      }

      .cls-6 {
        fill: #bce2e3;
      }

      .cls-7 {
        fill: #74c6be;
      }

      .cls-8 {
        fill: #e0f1f2;
      }

      .cls-9 {
        fill: #acc6d2;
      }
    </style>
  </defs>
  <g id="그룹_1640" data-name="그룹 1640" transform="translate(-984 -1140)">
    <rect id="사각형_726" data-name="사각형 726" class="cls-1" width="280" height="210" transform="translate(984 1140)"/>
    <g id="그룹_1539" data-name="그룹 1539" transform="translate(1041.665 1215.103)">
      <path id="패스_5234" data-name="패스 5234" class="cls-2" d="M1.915,59.7,0,64.695v6.66l1.915.666.749-4.745L3,59.7Z" transform="translate(0 -10)"/>
      <g id="그룹_1448" data-name="그룹 1448" transform="translate(1.915)">
        <path id="패스_5235" data-name="패스 5235" class="cls-3" d="M43.592,68.305H4.631L2.3,65.808V56.9H45.59v8.824Z" transform="translate(-2.3 -9.531)"/>
        <ellipse id="타원_25" data-name="타원 25" class="cls-2" cx="3.247" cy="2.414" rx="3.247" ry="2.414" transform="translate(31.042 25.719) rotate(-86.832)"/>
        <ellipse id="타원_26" data-name="타원 26" class="cls-2" cx="3.247" cy="2.414" rx="3.247" ry="2.414" transform="matrix(0.055, -0.998, 0.998, 0.055, 30.169, 30.385)"/>
        <ellipse id="타원_27" data-name="타원 27" class="cls-2" cx="3.247" cy="2.414" rx="3.247" ry="2.414" transform="matrix(0.055, -0.998, 0.998, 0.055, 29.295, 35.641)"/>
        <path id="패스_5236" data-name="패스 5236" class="cls-4" d="M9.1,49.1" transform="translate(-3.439 -8.225)"/>
        <g id="그룹_1447" data-name="그룹 1447" transform="translate(1.415 39.96)">
          <rect id="사각형_564" data-name="사각형 564" class="cls-2" width="1.831" height="7.909" transform="translate(4.495 0.916)"/>
          <rect id="사각형_565" data-name="사각형 565" class="cls-2" width="1.831" height="7.909" transform="translate(9.324 0.916)"/>
          <rect id="사각형_566" data-name="사각형 566" class="cls-2" width="1.831" height="7.909" transform="translate(14.152 0.916)"/>
          <rect id="사각형_567" data-name="사각형 567" class="cls-2" width="1.831" height="7.909" transform="translate(18.981 0.916)"/>
          <rect id="사각형_568" data-name="사각형 568" class="cls-2" width="1.831" height="7.909" transform="translate(23.893 0.916)"/>
          <path id="패스_5237" data-name="패스 5237" class="cls-3" d="M5.831,56.075H4V48H35.052v1.748H5.831Z" transform="translate(-4 -48)"/>
        </g>
        <path id="패스_5238" data-name="패스 5238" class="cls-3" d="M5.1,69.7,6.6,87.265h6.91L15.589,69.2Z" transform="translate(-2.769 -11.591)"/>
        <path id="패스_5239" data-name="패스 5239" class="cls-3" d="M39.3,69.7l1.5,17.566h6.91L49.789,69.2Z" transform="translate(-8.498 -11.591)"/>
        <path id="패스_5240" data-name="패스 5240" class="cls-3" d="M49.555,53.328,47.64,31.6H40.814L37.9,54.494Z" transform="translate(-8.263 -5.293)"/>
        <path id="패스_5241" data-name="패스 5241" class="cls-3" d="M41.3,30.391l.416-4.412L43.131,21.9H57.95v3l-2.164,1.249H57.95v3.58Z" transform="translate(-8.833 -3.668)"/>
        <rect id="사각형_569" data-name="사각형 569" class="cls-5" width="7.492" height="8.325" transform="translate(35.631 6.16)"/>
        <rect id="사각형_570" data-name="사각형 570" class="cls-2" width="0.916" height="8.325" transform="translate(35.464 6.66)"/>
        <rect id="사각형_571" data-name="사각형 571" class="cls-2" width="0.916" height="8.325" transform="translate(39.044 6.66)"/>
        <rect id="사각형_572" data-name="사각형 572" class="cls-2" width="0.666" height="3.996" transform="translate(39.21)"/>
        <rect id="사각형_573" data-name="사각형 573" class="cls-2" width="0.916" height="8.325" transform="translate(42.707 6.66)"/>
        <path id="패스_5242" data-name="패스 5242" class="cls-3" d="M44.205,8.378h9.074a.518.518,0,0,0,.5-.333.731.731,0,0,0-.083-.583l-4.579-4.5a.631.631,0,0,0-.333-.166.433.433,0,0,0-.333.166L43.872,7.545a.493.493,0,0,0-.083.583C43.789,8.211,44.039,8.378,44.205,8.378Z" transform="translate(-9.24 -0.469)"/>
        <rect id="사각형_574" data-name="사각형 574" class="cls-3" width="9.407" height="4.495" transform="translate(34.465 14.485)"/>
        <ellipse id="타원_28" data-name="타원 28" class="cls-2" cx="0.749" cy="0.749" rx="0.749" ry="0.749" transform="translate(38.295 19.73)"/>
      </g>
      <path id="패스_5243" data-name="패스 5243" class="cls-2" d="M43.592,70.131H4.631L2.3,67.8H45.59Z" transform="translate(-0.385 -11.357)"/>
      <path id="패스_5244" data-name="패스 5244" class="cls-2" d="M41.3,31.832l16.65-.666V30.5l-16.567.666Z" transform="translate(-6.918 -5.109)"/>
      <rect id="사각형_575" data-name="사각형 575" class="cls-2" width="9.407" height="1.082" transform="translate(36.38 17.149)"/>
      <rect id="사각형_576" data-name="사각형 576" class="cls-3" width="43.123" height="1.831" transform="translate(1.915 47.369)"/>
    </g>
    <g id="그룹_1540" data-name="그룹 1540" transform="translate(1099.939 1141.843)">
      <path id="패스_5245" data-name="패스 5245" class="cls-2" d="M107.1,75.013l.337,5.251L99.9,82.62l1.481-7.741s3.433-.875,5.722-.2" transform="translate(-80.984 -24.325)"/>
      <path id="패스_5246" data-name="패스 5246" class="cls-6" d="M84.5,83.2s1.212,15.55,15.55,13.732l-7.337,11.242S74.6,107.366,77.023,85.556Z" transform="translate(-58.04 -27.194)"/>
      <path id="패스_5247" data-name="패스 5247" class="cls-1" d="M96.889,96.124a27.271,27.271,0,0,1-.673-10.568l7.539-2.356a20.461,20.461,0,0,0,2.625,8.01s-3.5-.942-4.779,2.356c0,0-1.414,2.289-3.029,2.423Z" transform="translate(-77.299 -27.194)"/>
      <path id="패스_5248" data-name="패스 5248" class="cls-7" d="M13.167,22s11.578.942,14,41.062c0,0,0,5.183,4.645,4.779a2.851,2.851,0,0,1,2.895,2.491c.4,3.1-3.366,3.5-5.587,3.366a17.067,17.067,0,0,1-1.952-.269c-7-1.885-6.8-9.357-7.539-15.146-.942-7-.942-13.934-3.635-20.464-1.683-3.972-4.712-6.731-7.539-10.03Z" transform="translate(53.276 -7.191)"/>
      <path id="패스_5249" data-name="패스 5249" class="cls-6" d="M26.946,45.3c6.395-8.01,10.77-13.4,19.723-19.858.337-.2,9.963-7.135,10.232-6.8C50.371,9.088,54.343.337,54.343.337,64.1,4.981,65.45,13.261,65.45,13.261l2.356.2c7.135.942,8.078.606,8.078.606A23.653,23.653,0,0,1,87.8,0c7.135,13.261-4.443,22.55-4.443,22.55,8.684,4.375,10.03,41.331,10.03,41.4L95.2,109.925l.539,8.684s3.433,27.6-33.052,23.9a16.576,16.576,0,0,1-6.53-2.558c-4.51-2.693-8.28-6.664-9.761-11.713a30.68,30.68,0,0,1-.942-6.058,35.429,35.429,0,0,1,0-7.068c.067-.337.606-3.77.808-4.174l4.712-26.051c1.279-6.328,2.491-12.588,3.77-18.915,1.077-4.308.875-4.375,1.077-4.51-5.453,2.154-12.251,2.289-18.04,1.885a12.008,12.008,0,0,1-8.01-4.039c-1.616-1.616-4.174-4.914-4.51-7.27A8.382,8.382,0,0,1,26.946,45.3" transform="translate(-19.07 0)"/>
      <path id="패스_5250" data-name="패스 5250" class="cls-1" d="M79.012,4.3S77.33,12.445,81.3,17.224,84.128,8.541,79.012,4.3" transform="translate(-42.93 -1.405)"/>
      <path id="패스_5251" data-name="패스 5251" class="cls-1" d="M42.414,4.8s2.558,8.414-2.895,14.877C34.74,25.331,36.288,9.916,42.414,4.8" transform="translate(25.98 -1.569)"/>
      <path id="패스_5252" data-name="패스 5252" class="cls-8" d="M103.335,59.4h0c-.067.135-.135.135-.135.135l.135-.135" transform="translate(-79.1 -19.415)"/>
      <path id="패스_5253" data-name="패스 5253" class="cls-7" d="M59.777,35.05A1.411,1.411,0,0,1,58.5,33.569l.067-.808v-.067c.4-3.1,1.548-5.049,5.587-4.712l3.972.337a1.384,1.384,0,0,1-.2,2.76l-3.972-.337c-1.885-.135-2.289,0-2.625,2.289l-.067.74a1.411,1.411,0,0,1-1.481,1.279" transform="translate(-15.078 -9.134)"/>
      <path id="패스_5254" data-name="패스 5254" class="cls-7" d="M56.376,31.449A1.411,1.411,0,0,1,55.1,29.968l.067-.74v-.067c.673-4.51,3.77-7.068,8.212-6.866l7.27.539a1.384,1.384,0,1,1-.2,2.76l-7.2-.606c-3.77-.2-4.981,2.289-5.318,4.443l-.067.74a1.364,1.364,0,0,1-1.481,1.279" transform="translate(-15.313 -7.283)"/>
      <path id="패스_5255" data-name="패스 5255" class="cls-7" d="M52.576,27.894A1.411,1.411,0,0,1,51.3,26.413v-.4a10.092,10.092,0,0,1,10.838-9.222l10.77.875a1.384,1.384,0,0,1-.2,2.76l-10.77-.875a7.249,7.249,0,0,0-7.809,6.664v.4a1.476,1.476,0,0,1-1.548,1.279" transform="translate(-15.013 -5.478)"/>
      <path id="패스_5256" data-name="패스 5256" class="cls-1" d="M82.2,56.157a.806.806,0,0,0,.269-.269c1.077-.942,4.981-4.039,4.375-7.472,0,0,4.174-.4,10.636-5.116,0,0-6.058,4.645-4.039,8.145,0,.067-4.577,0-11.242,4.712" transform="translate(-59.11 -14.153)"/>
      <path id="패스_5257" data-name="패스 5257" class="cls-2" d="M4.712,77.235,3.5,82.419l7.068,3.5-.2-7.876s-3.3-1.481-5.654-1.077" transform="translate(80.782 -25.134)"/>
      <path id="패스_5258" data-name="패스 5258" class="cls-6" d="M21.069,85S17.367,100.146,3.5,95.972l5.385,12.319s17.973,2.154,19.185-19.723Z" transform="translate(63.28 -27.782)"/>
      <path id="패스_5259" data-name="패스 5259" class="cls-1" d="M12.049,98.867a26.122,26.122,0,0,0,2.356-10.3L7.4,85a20.305,20.305,0,0,1-3.9,7.472,4.022,4.022,0,0,1,4.375,3.164S8.953,98.126,10.5,98.53Z" transform="translate(76.945 -27.782)"/>
      <path id="패스_5260" data-name="패스 5260" class="cls-1" d="M34.247,109.94h0a.492.492,0,0,1-.4-.471,1.482,1.482,0,0,0-.067-.539.426.426,0,1,1,.808-.269,2.481,2.481,0,0,1,.067,1.01c0,.135-.2.269-.4.269" transform="translate(36.301 -35.422)"/>
      <path id="패스_5261" data-name="패스 5261" class="cls-1" d="M40.047,95.307h0a.512.512,0,0,1-.4-.539,1.482,1.482,0,0,0-.067-.539.426.426,0,1,1,.808-.269,2.566,2.566,0,0,1,.067,1.01c0,.269-.2.337-.4.337" transform="translate(26.597 -30.617)"/>
      <path id="패스_5262" data-name="패스 5262" class="cls-1" d="M33.447,95.907h0a.512.512,0,0,1-.4-.539,1.482,1.482,0,0,0-.067-.539.426.426,0,1,1,.808-.269,2.481,2.481,0,0,1,.067,1.01.377.377,0,0,1-.4.337" transform="translate(37.64 -30.814)"/>
      <path id="패스_5263" data-name="패스 5263" class="cls-1" d="M41.147,89.107h0a.512.512,0,0,1-.4-.539,1.482,1.482,0,0,0-.067-.539.426.426,0,1,1,.808-.269,2.481,2.481,0,0,1,.067,1.01.377.377,0,0,1-.4.337" transform="translate(24.756 -28.591)"/>
      <path id="패스_5264" data-name="패스 5264" class="cls-1" d="M34.447,81.907h0a.512.512,0,0,1-.4-.539,1.482,1.482,0,0,0-.067-.539.426.426,0,0,1,.808-.269,2.481,2.481,0,0,1,.067,1.01.377.377,0,0,1-.4.337" transform="translate(35.967 -26.238)"/>
      <path id="패스_5265" data-name="패스 5265" class="cls-1" d="M36.447,91.84h0a.492.492,0,0,1-.4-.471,1.482,1.482,0,0,0-.067-.539.426.426,0,1,1,.808-.269,2.481,2.481,0,0,1,.067,1.01.332.332,0,0,1-.4.269" transform="translate(32.62 -29.506)"/>
      <path id="패스_5266" data-name="패스 5266" class="cls-1" d="M37.147,76.9h0a.512.512,0,0,1-.4-.539,1.482,1.482,0,0,0-.067-.539.458.458,0,0,1,.269-.539.4.4,0,0,1,.539.269,2.566,2.566,0,0,1,.067,1.01.427.427,0,0,1-.4.337" transform="translate(31.449 -24.6)"/>
      <path id="패스_5267" data-name="패스 5267" class="cls-1" d="M39.347,82.607h0a.512.512,0,0,1-.4-.539,1.482,1.482,0,0,0-.067-.539.426.426,0,0,1,.808-.269,2.481,2.481,0,0,1,.067,1.01c0,.269-.135.4-.4.337" transform="translate(27.768 -26.466)"/>
      <path id="패스_5268" data-name="패스 5268" class="cls-1" d="M36.547,86.207h0a.512.512,0,0,1-.4-.539,1.482,1.482,0,0,0-.067-.539.426.426,0,0,1,.808-.269,2.481,2.481,0,0,1,.067,1.01c0,.2-.135.337-.4.337" transform="translate(32.453 -27.643)"/>
      <path id="패스_5269" data-name="패스 5269" class="cls-1" d="M35.547,100.407h0a.512.512,0,0,1-.4-.539,1.482,1.482,0,0,0-.067-.539.426.426,0,0,1,.808-.269,2.481,2.481,0,0,1,.067,1.01.337.337,0,0,1-.4.337" transform="translate(34.126 -32.284)"/>
      <path id="패스_5270" data-name="패스 5270" class="cls-1" d="M37.847,106.407h0a.512.512,0,0,1-.4-.539,1.482,1.482,0,0,0-.067-.539.426.426,0,0,1,.808-.269,2.481,2.481,0,0,1,.067,1.01.377.377,0,0,1-.4.337" transform="translate(30.278 -34.245)"/>
      <path id="패스_5271" data-name="패스 5271" class="cls-1" d="M33.447,104.707h0a.512.512,0,0,1-.4-.539,1.482,1.482,0,0,0-.067-.539.426.426,0,0,1,.808-.269,2.481,2.481,0,0,1,.067,1.01.377.377,0,0,1-.4.337" transform="translate(37.64 -33.69)"/>
      <path id="패스_5272" data-name="패스 5272" class="cls-1" d="M40.754,101.807h0a.512.512,0,0,1-.4-.539,1.482,1.482,0,0,0-.067-.539.4.4,0,0,1,.269-.539.458.458,0,0,1,.539.269,2.481,2.481,0,0,1,.067,1.01.377.377,0,0,1-.4.337" transform="translate(25.419 -32.742)"/>
      <path id="패스_5273" data-name="패스 5273" class="cls-1" d="M77.04,151.447a.447.447,0,0,1-.337-.269c-.067-.135-.269-.337-.337-.471a.439.439,0,0,1,.471-.74,1.717,1.717,0,0,1,.606.808.424.424,0,0,1-.2.539c-.067.135-.135.135-.2.135" transform="translate(-35.034 -48.994)"/>
      <path id="패스_5274" data-name="패스 5274" class="cls-1" d="M82.3,150.847a.447.447,0,0,1-.337-.269,2.849,2.849,0,0,0-.337-.471.439.439,0,0,1,.471-.74,1.717,1.717,0,0,1,.606.808.372.372,0,0,1-.2.539c-.067.067-.135.135-.2.135" transform="translate(-43.859 -48.798)"/>
      <path id="패스_5275" data-name="패스 5275" class="cls-1" d="M81.94,139.347a.447.447,0,0,1-.337-.269,2.849,2.849,0,0,0-.337-.471.439.439,0,0,1,.471-.74,1.717,1.717,0,0,1,.606.808.424.424,0,0,1-.2.539c-.067.135-.135.135-.2.135" transform="translate(-43.233 -45.039)"/>
      <path id="패스_5276" data-name="패스 5276" class="cls-1" d="M77.811,145.568a.447.447,0,0,1-.337-.269,2.046,2.046,0,0,0-.337-.471.515.515,0,0,1-.135-.606.426.426,0,0,1,.606-.067,1.717,1.717,0,0,1,.606.808.424.424,0,0,1-.2.539.247.247,0,0,1-.2.067" transform="translate(-36.343 -47.086)"/>
      <path id="패스_5277" data-name="패스 5277" class="cls-1" d="M81.8,144.647a.447.447,0,0,1-.337-.269,2.045,2.045,0,0,0-.337-.471.426.426,0,0,1-.067-.606.438.438,0,0,1,.606-.135,1.717,1.717,0,0,1,.606.808.424.424,0,0,1-.2.539c-.135.135-.2.135-.269.135" transform="translate(-43.089 -46.771)"/>
      <path id="패스_5278" data-name="패스 5278" class="cls-1" d="M77.04,140.947a.447.447,0,0,1-.337-.269c-.067-.135-.269-.337-.337-.471a.439.439,0,1,1,.471-.74,2.541,2.541,0,0,1,.673.808.424.424,0,0,1-.2.539.269.269,0,0,1-.269.135" transform="translate(-35.102 -45.562)"/>
      <path id="패스_5279" data-name="패스 5279" class="cls-1" d="M73.34,149.868A.343.343,0,0,1,73,149.6a2.851,2.851,0,0,0-.337-.471.438.438,0,0,1-.135-.606.426.426,0,0,1,.606-.067,1.717,1.717,0,0,1,.606.808.424.424,0,0,1-.2.539.247.247,0,0,1-.2.067" transform="translate(-28.844 -48.492)"/>
      <path id="패스_5280" data-name="패스 5280" class="cls-6" d="M15.1,199.105l21.877,14.271,3.366-4.443L25.13,188.2Z" transform="translate(43.198 -61.513)"/>
      <path id="패스_5281" data-name="패스 5281" class="cls-1" d="M20.632,207.6a3.95,3.95,0,0,1-3.433,4.308s-2.895.4-1.885,2.895l7.539,4.914,3.366-4.443Z" transform="translate(57.322 -67.854)"/>
      <path id="패스_5282" data-name="패스 5282" class="cls-2" d="M3.366,219l10.165,2.289-8.414,8.549L0,223.443Z" transform="translate(80.175 -71.58)"/>
      <path id="패스_5283" data-name="패스 5283" class="cls-6" d="M110.728,192.9l-25.58,5.318L83.6,192.9l21.743-13.8Z" transform="translate(-73.301 -58.539)"/>
      <path id="패스_5284" data-name="패스 5284" class="cls-1" d="M115.648,192s-1.683,3.433,1.616,5.251c0,0,2.558,1.481.673,3.366l-8.818,1.818-1.548-5.318Z" transform="translate(-97.339 -62.755)"/>
      <path id="패스_5285" data-name="패스 5285" class="cls-2" d="M131.9,198.848,121.6,197.3l4.779,10.972,7.068-4.106Z" transform="translate(-121.6 -64.488)"/>
      <path id="패스_5286" data-name="패스 5286" class="cls-7" d="M115.089,78.629l.337-.2a.973.973,0,0,0,.471-.673,1.159,1.159,0,0,0-.135-.808l-.067-.067a1.146,1.146,0,0,0-1.481-.337l-.067.067-.337.2a.532.532,0,1,1-.606-.875l.337-.2h0l.135-.067a2.206,2.206,0,0,1,2.895.673c0,.067.067.067.067.135a2.214,2.214,0,0,1-.74,2.895l-.337.2a.6.6,0,0,1-.74-.135.983.983,0,0,1,.269-.808" transform="translate(-99.27 -24.642)"/>
      <path id="패스_5287" data-name="패스 5287" class="cls-7" d="M123.465,72.194l.2-.337a1.159,1.159,0,0,0,.135-.808,1.138,1.138,0,0,0-.471-.673l-.067-.067a1.163,1.163,0,0,0-1.481.337l-.067.067-.2.337a.543.543,0,1,1-.942-.539l.2-.337h0l.067-.135a2.223,2.223,0,0,1,2.895-.673c.067,0,.067.067.135.067a2.238,2.238,0,0,1,.606,2.962l-.2.337a.541.541,0,0,1-.74.2.7.7,0,0,1-.067-.74" transform="translate(-112.224 -22.583)"/>
      <path id="패스_5288" data-name="패스 5288" class="cls-2" d="M94.83,42.615l.2-.4a1.346,1.346,0,0,0,.135-.875,1.234,1.234,0,0,0-.471-.673l-.067-.067a1.119,1.119,0,0,0-1.548.4l-.067.067h0l-.2.4a.589.589,0,0,1-1.01-.606l.2-.337c0-.067.067-.067.067-.135a2.341,2.341,0,0,1,3.1-.74c.067,0,.067.067.135.067a2.644,2.644,0,0,1,1.01,1.414,2.166,2.166,0,0,1-.269,1.683l-.2.337a.564.564,0,0,1-.808.2c-.269-.067-.337-.4-.2-.74" transform="translate(-64.403 -12.862)"/>
      <path id="패스_5289" data-name="패스 5289" class="cls-2" d="M75.6,52.3l.269-.4a1.732,1.732,0,0,0,.067-1.01,1.34,1.34,0,0,0-.539-.808l-.067-.067a1.366,1.366,0,0,0-1.75.4l-.067.067-.2.4a.647.647,0,1,1-1.144-.606l.269-.4c0-.067.067-.067.067-.135a2.561,2.561,0,0,1,3.433-.808c.067,0,.067.067.135.067a2.534,2.534,0,0,1,1.077,1.548,2.676,2.676,0,0,1-.269,1.885l-.2.4a.662.662,0,0,1-.875.269.564.564,0,0,1-.2-.808" transform="translate(-32.047 -15.881)"/>
    </g>
    <g id="그룹_1541" data-name="그룹 1541" transform="translate(1040 1160.99)">
      <path id="패스_5290" data-name="패스 5290" class="cls-6" d="M11.085,24.46a6.581,6.581,0,0,1-8.491,2.164c-4.329-2.331-2.164-7.492-.25-9.074,4.5-3.913,11.239,2.248,8.741,6.91" transform="translate(-0.075 -2.731)"/>
      <path id="패스_5291" data-name="패스 5291" class="cls-6" d="M22.885,24.46a6.581,6.581,0,0,1-8.491,2.164c-4.329-2.331-2.164-7.492-.25-9.074,4.5-3.913,11.239,2.248,8.741,6.91" transform="translate(-2.051 -2.731)"/>
      <path id="패스_5292" data-name="패스 5292" class="cls-6" d="M34.685,24.46a6.581,6.581,0,0,1-8.491,2.164c-4.329-2.331-2.164-7.492-.25-9.074,4.5-3.913,11.239,2.248,8.741,6.91" transform="translate(-4.028 -2.731)"/>
      <g id="그룹_1451" data-name="그룹 1451" transform="translate(32.884 0)">
        <path id="패스_5293" data-name="패스 5293" class="cls-6" d="M50.585,8.158a6.473,6.473,0,0,1-8.491,2.081c-4.329-2.331-2.164-7.492-.25-9.074C46.422-2.581,53.165,3.5,50.585,8.158" transform="translate(-39.575 0.001)"/>
        <path id="패스_5294" data-name="패스 5294" class="cls-6" d="M62.385,8.158a6.473,6.473,0,0,1-8.491,2.081c-4.329-2.331-2.164-7.492-.25-9.074C58.222-2.581,64.965,3.5,62.385,8.158" transform="translate(-41.551 0.001)"/>
      </g>
    </g>
    <g id="그룹_1549" data-name="그룹 1549" transform="translate(1013.917 1325.485)">
      <ellipse id="타원_38" data-name="타원 38" class="cls-9" cx="3.006" cy="2.892" rx="3.006" ry="2.892" transform="translate(0.066 3.346)"/>
      <path id="패스_5464" data-name="패스 5464" class="cls-9" d="M5.38,0S-.971,1.758.106,7.032l2.665-.624S1.41,2.042,5.38,0Z" transform="translate(0.017)"/>
    </g>
    <g id="그룹_1553" data-name="그룹 1553" transform="translate(1233.8 1334.615) rotate(180)">
      <ellipse id="타원_38-2" data-name="타원 38" class="cls-9" cx="3.006" cy="2.892" rx="3.006" ry="2.892" transform="translate(0.066 3.346)"/>
      <path id="패스_5464-2" data-name="패스 5464" class="cls-9" d="M5.38,0S-.971,1.758.106,7.032l2.665-.624S1.41,2.042,5.38,0Z" transform="translate(0.017)"/>
    </g>
    <g id="그룹_1557" data-name="그룹 1557" transform="translate(1020.723 1325.485)">
      <ellipse id="타원_38-3" data-name="타원 38" class="cls-9" cx="3.006" cy="2.892" rx="3.006" ry="2.892" transform="translate(0.066 3.346)"/>
      <path id="패스_5464-3" data-name="패스 5464" class="cls-9" d="M5.38,0S-.971,1.758.106,7.032l2.665-.624S1.41,2.042,5.38,0Z" transform="translate(0.017)"/>
    </g>
    <g id="그룹_1561" data-name="그룹 1561" transform="translate(1226.995 1334.615) rotate(180)">
      <ellipse id="타원_38-4" data-name="타원 38" class="cls-9" cx="3.006" cy="2.892" rx="3.006" ry="2.892" transform="translate(0.066 3.346)"/>
      <path id="패스_5464-4" data-name="패스 5464" class="cls-9" d="M5.38,0S-.971,1.758.106,7.032l2.665-.624S1.41,2.042,5.38,0Z" transform="translate(0.017)"/>
    </g>
  </g>
</svg>
