<svg xmlns="http://www.w3.org/2000/svg" viewBox="0 0 280 210">
  <defs>
    <style>
      .cls-1 {
        fill: #fff;
      }

      .cls-2 {
        fill: #64c0ab;
      }

      .cls-3 {
        fill: #fdd23e;
      }

      .cls-4 {
        fill: #fbf6d2;
      }

      .cls-5 {
        fill: #9bdad9;
      }

      .cls-6 {
        fill: #e0b079;
      }

      .cls-7 {
        fill: #fdd35c;
      }

      .cls-8 {
        fill: #74c6be;
      }

      .cls-9 {
        fill: #fbc93e;
      }

      .cls-10 {
        fill: #727171;
      }

      .cls-11 {
        fill: #f2e9b6;
      }

      .cls-12 {
        fill: #acc6d2;
      }
    </style>
  </defs>
  <g id="그룹_1639" data-name="그룹 1639" transform="translate(-672 -1140)">
    <rect id="사각형_725" data-name="사각형 725" class="cls-1" width="280" height="210" transform="translate(672 1140)"/>
    <g id="그룹_1543" data-name="그룹 1543" transform="translate(825.848 1205.762)">
      <g id="그룹_1459" data-name="그룹 1459" transform="translate(0 0)">
        <g id="그룹_1456" data-name="그룹 1456" transform="translate(31.791 16.271)">
          <ellipse id="타원_29" data-name="타원 29" class="cls-2" cx="22.947" cy="22.947" rx="22.947" ry="22.947"/>
        </g>
        <g id="그룹_1457" data-name="그룹 1457" transform="translate(18.274)">
          <ellipse id="타원_30" data-name="타원 30" class="cls-2" cx="20.026" cy="20.026" rx="20.026" ry="20.026"/>
        </g>
        <g id="그룹_1458" data-name="그룹 1458" transform="translate(0 15.02)">
          <ellipse id="타원_31" data-name="타원 31" class="cls-2" cx="22.947" cy="22.947" rx="22.947" ry="22.947"/>
        </g>
      </g>
      <g id="그룹_1465" data-name="그룹 1465" transform="translate(13.851 42.382)">
        <g id="그룹_1460" data-name="그룹 1460" transform="translate(1.502 2.093)">
          <path id="패스_5318" data-name="패스 5318" class="cls-3" d="M101.291,63.071a2.777,2.777,0,0,1-.5.834,2.249,2.249,0,0,1-.584.668,3.487,3.487,0,0,1-.834.334c-.334.083-.584.167-.918.25a1.8,1.8,0,0,1-.918-.167,2.61,2.61,0,0,1-.834-.417c-.25-.167-.584-.25-.751-.5s-.25-.584-.417-.834c-.083-.334-.25-.584-.334-.918a3,3,0,0,1,.167-.918,2.61,2.61,0,0,1,.417-.834,2.539,2.539,0,0,1,.668-.668,3.9,3.9,0,0,1,.834-.417,2.638,2.638,0,0,1,1.836.167,2.5,2.5,0,0,1,.834.334,5.036,5.036,0,0,1,.668.668,2.61,2.61,0,0,1,.417.834,3.762,3.762,0,0,1,.25.918A1.551,1.551,0,0,1,101.291,63.071Z" transform="translate(-95.2 -59.4)"/>
        </g>
        <g id="그룹_1461" data-name="그룹 1461" transform="translate(1.715 1.972)">
          <path id="패스_5319" data-name="패스 5319" class="cls-3" d="M101.334,63.048a2.777,2.777,0,0,1-.5.834,2.6,2.6,0,0,1-.584.751,2.989,2.989,0,0,1-.918.334,2.608,2.608,0,0,1-1.836,0,2.5,2.5,0,0,1-.834-.334,2.539,2.539,0,0,1-.668-.668,3.918,3.918,0,0,1-.5-.751,3.365,3.365,0,0,1,0-.918,3.423,3.423,0,0,1,.083-.918,2.958,2.958,0,0,1,.25-.918,2.54,2.54,0,0,1,.668-.668,2.989,2.989,0,0,1,.918-.334,3.549,3.549,0,0,1,.918-.167,3.381,3.381,0,0,1,.918,0,2.61,2.61,0,0,1,.834.417,2.249,2.249,0,0,1,.668.584,2.61,2.61,0,0,1,.417.834,3.549,3.549,0,0,1,.167.918A2.034,2.034,0,0,1,101.334,63.048Z" transform="translate(-95.456 -59.256)"/>
        </g>
        <g id="그룹_1462" data-name="그룹 1462" transform="translate(3.033 1.203)">
          <path id="패스_5320" data-name="패스 5320" class="cls-3" d="M99.342,59.808a1.16,1.16,0,0,1-2.169.25,1.209,1.209,0,0,1-.083-.918.954.954,0,0,1,.584-.668,1.148,1.148,0,0,1,.918-.083,1.215,1.215,0,0,1,.751.5A1.706,1.706,0,0,1,99.342,59.808Z" transform="translate(-97.034 -58.334)"/>
        </g>
        <g id="그룹_1463" data-name="그룹 1463" transform="translate(3.087 4.095)">
          <path id="패스_5321" data-name="패스 5321" class="cls-4" d="M98.783,64.417c-.083,0-.083,0-.083-.083v-.167l.083-.083c0-.083.083-.083.167-.083s.083.083.083.167-.083.167-.25.25Z" transform="translate(-97.365 -62.164)"/>
          <path id="패스_5322" data-name="패스 5322" class="cls-4" d="M100.377,65.217c-.083,0-.083,0-.083-.083-.083-.083,0-.167.083-.167l.083-.083c0-.083.083-.083.167-.083s.083.083.083.167a1.152,1.152,0,0,1-.334.25Z" transform="translate(-97.623 -62.297)"/>
          <path id="패스_5323" data-name="패스 5323" class="cls-4" d="M101.583,63.117c-.083,0-.083,0-.083-.083s0-.167.083-.167l.083-.083c0-.083.083-.083.167-.083s.083.083.083.167a1.152,1.152,0,0,1-.334.25Z" transform="translate(-97.829 -61.949)"/>
          <path id="패스_5324" data-name="패스 5324" class="cls-4" d="M101.183,62.217c-.083,0-.083,0-.083-.083s0-.167.083-.167l.083-.083c0-.083.083-.083.167-.083s.083.083.083.167a1.152,1.152,0,0,1-.334.25C101.267,62.134,101.267,62.217,101.183,62.217Z" transform="translate(-97.762 -61.8)"/>
          <path id="패스_5325" data-name="패스 5325" class="cls-4" d="M100.076,64.217c-.083,0-.083,0-.083-.083a.116.116,0,0,1,0-.167l.083-.083c0-.083.083-.083.167-.083s.083.083.083.167-.083.167-.25.25Z" transform="translate(-97.573 -62.131)"/>
          <path id="패스_5326" data-name="패스 5326" class="cls-4" d="M100.383,63.217c-.083,0-.083,0-.083-.083s0-.167.083-.167l.083-.083c0-.083.083-.083.167-.083s.083.083.083.167a1.152,1.152,0,0,1-.334.25Z" transform="translate(-97.63 -61.966)"/>
          <path id="패스_5327" data-name="패스 5327" class="cls-4" d="M101.176,64.217c-.083,0-.083,0-.083-.083a.116.116,0,0,1,0-.167l.083-.083c0-.083.083-.083.167-.083s.083.083.083.167-.083.167-.25.25Z" transform="translate(-97.755 -62.131)"/>
          <path id="패스_5328" data-name="패스 5328" class="cls-4" d="M99.283,65.417c-.083,0-.083,0-.083-.083s0-.167.083-.167l.083-.083c0-.083.083-.083.167-.083s.083.083.083.167a1.152,1.152,0,0,1-.334.25Z" transform="translate(-97.448 -62.33)"/>
          <path id="패스_5329" data-name="패스 5329" class="cls-4" d="M97.183,65.017c-.083,0-.083,0-.083-.083v-.167l.083-.083c0-.083.083-.083.167-.083s.083.083.083.167-.083.167-.25.25Z" transform="translate(-97.1 -62.264)"/>
          <path id="패스_5330" data-name="패스 5330" class="cls-4" d="M98.183,65.417c-.083,0-.083,0-.083-.083v-.167l.083-.083c0-.083.083-.083.167-.083s.083.083.083.167c-.083.083-.167.25-.25.25Z" transform="translate(-97.266 -62.33)"/>
        </g>
        <g id="그룹_1464" data-name="그룹 1464">
          <path id="패스_5331" data-name="패스 5331" class="cls-5" d="M98.568,58.75c0,.083-.167.167-.334.167s-.334-.083-.334-.167a.266.266,0,0,1,.25-.25C98.317,58.583,98.568,58.667,98.568,58.75Z" transform="translate(-94.145 -57.158)"/>
          <path id="패스_5332" data-name="패스 5332" class="cls-5" d="M97.155,58.215s-2-1.585-3.755,1.335C93.4,59.55,97.322,59.8,97.155,58.215Z" transform="translate(-93.4 -57.04)"/>
          <path id="패스_5333" data-name="패스 5333" class="cls-5" d="M97.471,57.983s-.751-1.919-3.171-.668C94.3,57.316,96.887,59.152,97.471,57.983Z" transform="translate(-93.549 -56.892)"/>
          <path id="패스_5334" data-name="패스 5334" class="cls-5" d="M98.084,58.618c-.083,0-.083-.083,0,0a.642.642,0,0,0-.167-.25,1.152,1.152,0,0,0-.25-.334l-.083-.083-.083-.083v-.083c0-.083,0-.083.083-.083h.167l.083.083.083.083c.083.167.167.25.25.417.083.083.083.167.083.334Z" transform="translate(-94.079 -57.026)"/>
        </g>
      </g>
      <g id="그룹_1471" data-name="그룹 1471" transform="translate(50.615 28.364)">
        <g id="그룹_1466" data-name="그룹 1466" transform="translate(0.081 1.889)">
          <path id="패스_5335" data-name="패스 5335" class="cls-3" d="M137.676,46.148a2.5,2.5,0,0,0,.334.834,2.54,2.54,0,0,0,.668.668,3.487,3.487,0,0,0,.834.334,3.548,3.548,0,0,0,.918.167,3.366,3.366,0,0,0,.918,0,2.989,2.989,0,0,0,.918-.334,2.6,2.6,0,0,0,.584-.751,3.918,3.918,0,0,0,.5-.751,3.741,3.741,0,0,0,.083-.918,3.128,3.128,0,0,0-.083-.918c-.083-.334-.334-.5-.5-.751a5.034,5.034,0,0,0-.668-.668,3.382,3.382,0,0,0-.751-.417c-.334-.083-.584-.167-.918-.25a3.366,3.366,0,0,0-.918,0,1.852,1.852,0,0,0-.918.417c-.25.167-.334.584-.5.834s-.5.417-.584.751a3.365,3.365,0,0,0,0,.918A3.13,3.13,0,0,0,137.676,46.148Z" transform="translate(-137.556 -42.356)"/>
        </g>
        <g id="그룹_1467" data-name="그룹 1467" transform="translate(0 1.805)">
          <path id="패스_5336" data-name="패스 5336" class="cls-3" d="M137.493,46.131c.083.334.334.5.584.751a4.585,4.585,0,0,0,.584.751,3.488,3.488,0,0,0,.834.334,3.548,3.548,0,0,0,.918.167,3.366,3.366,0,0,0,.918,0,3.345,3.345,0,0,0,1.836-2,3.763,3.763,0,0,0,.25-.918,3.366,3.366,0,0,0,0-.918,2.777,2.777,0,0,0-.5-.834,4.585,4.585,0,0,0-.584-.751,3.488,3.488,0,0,0-.834-.334,3.423,3.423,0,0,0-.918-.083,3.381,3.381,0,0,0-.918,0c-.334.083-.5.334-.834.5a2.13,2.13,0,0,0-1.168,1.419,3.423,3.423,0,0,0-.083.918A2.2,2.2,0,0,0,137.493,46.131Z" transform="translate(-137.459 -42.256)"/>
        </g>
        <g id="그룹_1468" data-name="그룹 1468" transform="translate(2.233 0.953)">
          <path id="패스_5337" data-name="패스 5337" class="cls-3" d="M140.189,42.875a.954.954,0,0,0,.584.668,1.148,1.148,0,0,0,.918.083,1.061,1.061,0,0,0,.751-.584,1.148,1.148,0,0,0,.083-.918,1.062,1.062,0,0,0-.584-.751,1.148,1.148,0,0,0-.918-.083,1.061,1.061,0,0,0-.751.584A1.447,1.447,0,0,0,140.189,42.875Z" transform="translate(-140.134 -41.234)"/>
        </g>
        <g id="그룹_1469" data-name="그룹 1469" transform="translate(0.452 4.012)">
          <path id="패스_5338" data-name="패스 5338" class="cls-4" d="M141.134,47.517c.083,0,.083,0,.083-.083s0-.167-.083-.167l-.083-.083c0-.083-.083-.083-.167-.083s-.083.083-.083.167c.083.083.167.25.334.25Z" transform="translate(-138.464 -45.264)"/>
          <path id="패스_5339" data-name="패스 5339" class="cls-4" d="M139.534,48.317c.083,0,.083,0,.083-.083s0-.167-.083-.167l-.083-.083c0-.083-.083-.083-.167-.083s-.083.083-.083.167c.083.083.25.167.334.25Z" transform="translate(-138.199 -45.397)"/>
          <path id="패스_5340" data-name="패스 5340" class="cls-4" d="M138.334,46.217c.083,0,.083,0,.083-.083s0-.167-.083-.167l-.083-.083c0-.083-.083-.083-.167-.083s-.083.083-.083.167c.083.083.167.25.334.25Z" transform="translate(-138 -45.049)"/>
          <path id="패스_5341" data-name="패스 5341" class="cls-4" d="M138.734,45.317c.083,0,.083,0,.083-.083s0-.167-.083-.167l-.083-.083c0-.083-.083-.083-.167-.083s-.083.083-.083.167a1.152,1.152,0,0,0,.334.25Z" transform="translate(-138.066 -44.9)"/>
          <path id="패스_5342" data-name="패스 5342" class="cls-4" d="M139.85,47.317c.083,0,.083,0,.083-.083a.116.116,0,0,0,0-.167l-.083-.083c0-.083-.083-.083-.167-.083s-.083.083-.083.167a.221.221,0,0,0,.25.25Z" transform="translate(-138.265 -45.231)"/>
          <path id="패스_5343" data-name="패스 5343" class="cls-4" d="M139.534,46.317c.083,0,.083,0,.083-.083s0-.167-.083-.167l-.083-.083c0-.083-.083-.083-.167-.083s-.083.083-.083.167a1.152,1.152,0,0,0,.334.25Z" transform="translate(-138.199 -45.066)"/>
          <path id="패스_5344" data-name="패스 5344" class="cls-4" d="M138.75,47.417c.083,0,.083,0,.083-.083a.116.116,0,0,0,0-.167l-.083-.083c0-.083-.083-.083-.167-.083s-.083.083-.083.167.083.167.25.25Z" transform="translate(-138.083 -45.248)"/>
          <path id="패스_5345" data-name="패스 5345" class="cls-4" d="M140.634,48.617c.083,0,.083,0,.083-.083s0-.167-.083-.167l-.083-.083c0-.083-.083-.083-.167-.083s-.083.083-.083.167a1.153,1.153,0,0,0,.334.25Z" transform="translate(-138.381 -45.446)"/>
          <path id="패스_5346" data-name="패스 5346" class="cls-4" d="M142.75,48.117c.083,0,.083,0,.083-.083v-.167l-.083-.083c0-.083-.083-.083-.167-.083s-.083.083-.083.167.083.167.25.25Z" transform="translate(-138.745 -45.364)"/>
          <path id="패스_5347" data-name="패스 5347" class="cls-4" d="M141.85,48.617c.083,0,.083,0,.083-.083a.116.116,0,0,0,0-.167l-.083-.083c0-.083-.083-.083-.167-.083s-.083.083-.083.167.083.167.25.25Z" transform="translate(-138.596 -45.446)"/>
        </g>
        <g id="그룹_1470" data-name="그룹 1470" transform="translate(3.205)">
          <path id="패스_5348" data-name="패스 5348" class="cls-5" d="M141.3,41.95c0,.083.167.167.334.167s.334-.083.334-.167a.266.266,0,0,0-.25-.25C141.55,41.7,141.3,41.867,141.3,41.95Z" transform="translate(-141.3 -40.358)"/>
          <path id="패스_5349" data-name="패스 5349" class="cls-5" d="M142.1,41.421s2-1.5,3.755,1.335C145.855,42.673,142.016,42.923,142.1,41.421Z" transform="translate(-141.432 -40.246)"/>
          <path id="패스_5350" data-name="패스 5350" class="cls-5" d="M141.9,41.183s.751-1.919,3.171-.668C145.071,40.516,142.484,42.268,141.9,41.183Z" transform="translate(-141.399 -40.092)"/>
          <path id="패스_5351" data-name="패스 5351" class="cls-5" d="M141.767,41.818h0a.642.642,0,0,1,.167-.25,1.152,1.152,0,0,1,.25-.334l.083-.083.083-.083v-.083a.082.082,0,0,0-.083-.083H142.1l-.083.083-.083.083c-.083.167-.167.25-.25.417-.083.083-.083.167-.083.334.083-.083.083,0,.167,0Z" transform="translate(-141.35 -40.226)"/>
        </g>
      </g>
      <g id="그룹_1477" data-name="그룹 1477" transform="translate(37.215 8.087)">
        <g id="그룹_1472" data-name="그룹 1472" transform="translate(1.882 1.905)">
          <path id="패스_5352" data-name="패스 5352" class="cls-3" d="M129.367,21.851a2.61,2.61,0,0,1-.417.834,2.249,2.249,0,0,1-.584.668,2.777,2.777,0,0,1-.834.5,3.742,3.742,0,0,1-.918.083,3.423,3.423,0,0,1-.918-.083,2.5,2.5,0,0,1-.834-.334,2.6,2.6,0,0,1-.584-.751,3.919,3.919,0,0,1-.5-.751,3.742,3.742,0,0,1-.083-.918,3.366,3.366,0,0,1,0-.918,2.777,2.777,0,0,1,.5-.834,2.6,2.6,0,0,1,.751-.584,2.61,2.61,0,0,1,.834-.417,3.762,3.762,0,0,1,.918-.25c.334,0,.668-.083.918.083a2.61,2.61,0,0,1,.834.417,5.035,5.035,0,0,1,.668.668c.167.25.5.5.584.751a3.365,3.365,0,0,1,0,.918C129.367,21.267,129.45,21.6,129.367,21.851Z" transform="translate(-123.656 -18.075)"/>
        </g>
        <g id="그룹_1473" data-name="그룹 1473" transform="translate(1.502 1.842)">
          <path id="패스_5353" data-name="패스 5353" class="cls-3" d="M129.291,21.922a3.085,3.085,0,0,1-.417.918,2.54,2.54,0,0,1-.668.668,2.989,2.989,0,0,1-.918.334,3.762,3.762,0,0,1-.918.25,3,3,0,0,1-.918-.167,2.777,2.777,0,0,1-.834-.5,2.6,2.6,0,0,1-.751-.584,3.487,3.487,0,0,1-.334-.834c-.083-.334-.25-.584-.334-.918a3.762,3.762,0,0,1,.25-.918,2.61,2.61,0,0,1,.417-.834,2.539,2.539,0,0,1,.668-.668,7.752,7.752,0,0,1,.834-.417,1.808,1.808,0,0,1,1.836,0,2.958,2.958,0,0,1,.918.25,2.6,2.6,0,0,1,.751.584c.167.25.25.584.417.834a3.422,3.422,0,0,1,.083.918C129.291,21.254,129.375,21.588,129.291,21.922Z" transform="translate(-123.2 -18)"/>
        </g>
        <g id="그룹_1474" data-name="그룹 1474" transform="translate(2.971 0.953)">
          <path id="패스_5354" data-name="패스 5354" class="cls-3" d="M127.33,18.575a.954.954,0,0,1-.584.668,1.275,1.275,0,0,1-1.752-1.419,1.332,1.332,0,0,1,.584-.751,1.148,1.148,0,0,1,.918-.083.954.954,0,0,1,.668.584A1.168,1.168,0,0,1,127.33,18.575Z" transform="translate(-124.961 -16.934)"/>
        </g>
        <g id="그룹_1475" data-name="그룹 1475" transform="translate(3.087 4.012)">
          <path id="패스_5355" data-name="패스 5355" class="cls-4" d="M126.783,23.317c-.083,0-.083,0-.083-.083v-.167l.083-.083c0-.083.083-.083.167-.083s.083.083.083.167-.083.167-.25.25C126.867,23.234,126.867,23.317,126.783,23.317Z" transform="translate(-125.365 -20.981)"/>
          <path id="패스_5356" data-name="패스 5356" class="cls-4" d="M128.383,24.017c-.083,0-.083,0-.083-.083s0-.167.083-.167l.083-.083c0-.083.083-.083.167-.083s.083.083.083.167a1.152,1.152,0,0,1-.334.25Z" transform="translate(-125.63 -21.097)"/>
          <path id="패스_5357" data-name="패스 5357" class="cls-4" d="M129.583,21.917c-.083,0-.083,0-.083-.083s0-.167.083-.167l.083-.083c0-.083.083-.083.167-.083s.083.083.083.167c-.083.167-.167.25-.334.25Z" transform="translate(-125.829 -20.749)"/>
          <path id="패스_5358" data-name="패스 5358" class="cls-4" d="M129.283,21.017c-.083,0-.083,0-.083-.083s0-.167.083-.167l.083-.083c0-.083.083-.083.167-.083s.083.083.083.167a1.152,1.152,0,0,0-.334.25Z" transform="translate(-125.779 -20.6)"/>
          <path id="패스_5359" data-name="패스 5359" class="cls-4" d="M128.183,23.117c-.083,0-.083,0-.083-.083v-.167l.083-.083c0-.083.083-.083.167-.083s.083.083.083.167l-.25.25Z" transform="translate(-125.597 -20.948)"/>
          <path id="패스_5360" data-name="패스 5360" class="cls-4" d="M128.483,22.017c-.083,0-.083,0-.083-.083s0-.167.083-.167l.083-.083c0-.083.083-.083.167-.083s.083.083.083.167a1.152,1.152,0,0,0-.334.25Z" transform="translate(-125.646 -20.766)"/>
          <path id="패스_5361" data-name="패스 5361" class="cls-4" d="M129.276,23.117c-.083,0-.083,0-.083-.083a.116.116,0,0,1,0-.167l.083-.083c0-.083.083-.083.167-.083s.083.083.083.167l-.25.25Z" transform="translate(-125.772 -20.948)"/>
          <path id="패스_5362" data-name="패스 5362" class="cls-4" d="M127.283,24.317c-.083,0-.083,0-.083-.083s0-.167.083-.167l.083-.083c0-.083.083-.083.167-.083s.083.083.083.167a1.152,1.152,0,0,1-.334.25Z" transform="translate(-125.448 -21.146)"/>
          <path id="패스_5363" data-name="패스 5363" class="cls-4" d="M125.183,23.817c-.083,0-.083,0-.083-.083v-.167l.083-.083c0-.083.083-.083.167-.083s.083.083.083.167-.083.167-.25.25Z" transform="translate(-125.1 -21.064)"/>
          <path id="패스_5364" data-name="패스 5364" class="cls-4" d="M126.183,24.317c-.083,0-.083,0-.083-.083v-.167l.083-.083c0-.083.083-.083.167-.083s.083.083.083.167-.083.167-.25.25Z" transform="translate(-125.266 -21.146)"/>
        </g>
        <g id="그룹_1476" data-name="그룹 1476">
          <path id="패스_5365" data-name="패스 5365" class="cls-5" d="M126.568,17.65c0,.083-.167.167-.334.167s-.334-.083-.334-.167a.266.266,0,0,1,.25-.25C126.317,17.4,126.568,17.567,126.568,17.65Z" transform="translate(-122.145 -16.058)"/>
          <path id="패스_5366" data-name="패스 5366" class="cls-5" d="M125.155,17.115s-2-1.585-3.755,1.335C121.483,18.45,125.322,18.617,125.155,17.115Z" transform="translate(-121.4 -15.94)"/>
          <path id="패스_5367" data-name="패스 5367" class="cls-5" d="M125.471,16.883s-.751-1.919-3.171-.668C122.383,16.216,124.97,17.968,125.471,16.883Z" transform="translate(-121.549 -15.792)"/>
          <path id="패스_5368" data-name="패스 5368" class="cls-5" d="M126.084,17.518h0a.642.642,0,0,0-.167-.25,1.152,1.152,0,0,0-.25-.334l-.083-.083a.082.082,0,0,1-.083-.083v-.083a.082.082,0,0,1,.083-.083h.167l.083.083a.082.082,0,0,0,.083.083c.083.167.167.25.25.417.083.083.083.167.083.334Z" transform="translate(-122.079 -15.926)"/>
        </g>
      </g>
      <g id="그룹_1483" data-name="그룹 1483" transform="translate(16.153 20.019)">
        <g id="그룹_1478" data-name="그룹 1478" transform="translate(0.035 1.926)">
          <path id="패스_5369" data-name="패스 5369" class="cls-3" d="M96.283,36.155a2.61,2.61,0,0,0,.417.834,5.035,5.035,0,0,0,.668.668,2.777,2.777,0,0,0,.834.5,3.762,3.762,0,0,0,.918.25,3.762,3.762,0,0,0,.918-.25,2.61,2.61,0,0,0,.834-.417,2.25,2.25,0,0,0,.668-.584,7.753,7.753,0,0,0,.417-.834c.083-.334.334-.584.334-.918a3,3,0,0,0-.167-.918,2.61,2.61,0,0,0-.417-.834,4.77,4.77,0,0,0-.584-.668,2.61,2.61,0,0,0-.834-.417,3,3,0,0,0-.918-.167,4.062,4.062,0,0,0-1,.083,2.777,2.777,0,0,0-.834.5,5.036,5.036,0,0,0-.668.668,3.918,3.918,0,0,0-.5.751,3,3,0,0,0-.167.918A2.837,2.837,0,0,0,96.283,36.155Z" transform="translate(-96.2 -32.4)"/>
        </g>
        <g id="그룹_1479" data-name="그룹 1479" transform="translate(0 1.889)">
          <path id="패스_5370" data-name="패스 5370" class="cls-3" d="M96.277,36.148a2.61,2.61,0,0,0,.417.834,2.6,2.6,0,0,0,.584.751,2.989,2.989,0,0,0,.918.334c.334.083.584.334.918.334a3.762,3.762,0,0,0,.918-.25,2.958,2.958,0,0,0,.918-.25c.25-.167.334-.5.584-.751a2.61,2.61,0,0,0,.417-.834,3.762,3.762,0,0,0,.25-.918,3,3,0,0,0-.167-.918,2.61,2.61,0,0,0-.417-.834,5.035,5.035,0,0,0-.668-.668,3.918,3.918,0,0,0-.751-.5,3.129,3.129,0,0,0-.918-.083,3.366,3.366,0,0,0-.918,0c-.334.083-.5.417-.751.584a4.42,4.42,0,0,0-.834.5,2.989,2.989,0,0,0-.334.918,3.762,3.762,0,0,0-.25.918A1.442,1.442,0,0,0,96.277,36.148Z" transform="translate(-96.159 -32.356)"/>
        </g>
        <g id="그룹_1480" data-name="그룹 1480" transform="translate(2.255 1.037)">
          <path id="패스_5371" data-name="패스 5371" class="cls-3" d="M98.894,32.891a1.332,1.332,0,0,0,.584.751,1.148,1.148,0,0,0,.918.083.954.954,0,0,0,.668-.584,1.148,1.148,0,0,0,.083-.918,1.215,1.215,0,0,0-.5-.751,1.148,1.148,0,0,0-1.585.5A1.285,1.285,0,0,0,98.894,32.891Z" transform="translate(-98.861 -31.334)"/>
        </g>
        <g id="그룹_1481" data-name="그룹 1481" transform="translate(0.452 4.012)">
          <path id="패스_5372" data-name="패스 5372" class="cls-4" d="M99.934,37.517c.083,0,.083,0,.083-.083s0-.167-.083-.167l-.083-.083c0-.083-.083-.083-.167-.083s-.083.083-.083.167c.083.083.167.25.334.25Z" transform="translate(-97.18 -35.264)"/>
          <path id="패스_5373" data-name="패스 5373" class="cls-4" d="M98.334,38.317c.083,0,.083,0,.083-.083s0-.167-.083-.167l-.083-.083c0-.083-.083-.083-.167-.083s-.083.083-.083.167a1.152,1.152,0,0,0,.334.25Z" transform="translate(-96.915 -35.397)"/>
          <path id="패스_5374" data-name="패스 5374" class="cls-4" d="M97.034,36.217c.083,0,.083,0,.083-.083s0-.167-.083-.167l-.083-.083c0-.083-.083-.083-.167-.083s-.083.083-.083.167c.167.083.25.25.334.25Z" transform="translate(-96.7 -35.049)"/>
          <path id="패스_5375" data-name="패스 5375" class="cls-4" d="M97.434,35.317c.083,0,.083,0,.083-.083s0-.167-.083-.167l-.083-.083c0-.083-.083-.083-.167-.083s-.083.083-.083.167c.083.083.25.167.334.25Z" transform="translate(-96.766 -34.9)"/>
          <path id="패스_5376" data-name="패스 5376" class="cls-4" d="M98.55,37.317c.083,0,.083,0,.083-.083v-.167l-.083-.083c0-.083-.083-.083-.167-.083s-.083.083-.083.167a.376.376,0,0,0,.25.25Z" transform="translate(-96.965 -35.231)"/>
          <path id="패스_5377" data-name="패스 5377" class="cls-4" d="M98.25,36.317c.083,0,.083,0,.083-.083s0-.167-.083-.167l-.083-.083c0-.083-.083-.083-.167-.083,0,0,0,.083,0,.167s.167.167.25.25Z" transform="translate(-96.915 -35.066)"/>
          <path id="패스_5378" data-name="패스 5378" class="cls-4" d="M97.45,37.417c.083,0,.083,0,.083-.083a.116.116,0,0,0,0-.167l-.083-.083c0-.083-.083-.083-.167-.083s-.083.083-.083.167l.25.25Z" transform="translate(-96.783 -35.248)"/>
          <path id="패스_5379" data-name="패스 5379" class="cls-4" d="M99.434,38.617c.083,0,.083,0,.083-.083s0-.167-.083-.167l-.083-.083c0-.083-.083-.083-.167-.083s-.083.083-.083.167a1.152,1.152,0,0,0,.334.25C99.35,38.534,99.35,38.617,99.434,38.617Z" transform="translate(-97.097 -35.446)"/>
          <path id="패스_5380" data-name="패스 5380" class="cls-4" d="M101.534,38.117c.083,0,.083,0,.083-.083s0-.167-.083-.167l-.083-.083c0-.083-.083-.083-.167-.083s-.083.083-.083.167a1.152,1.152,0,0,0,.334.25Z" transform="translate(-97.445 -35.364)"/>
          <path id="패스_5381" data-name="패스 5381" class="cls-4" d="M100.55,38.617c.083,0,.083,0,.083-.083a.116.116,0,0,0,0-.167l-.083-.083c0-.083-.083-.083-.167-.083s-.083.083-.083.167.083.167.25.25Z" transform="translate(-97.296 -35.446)"/>
        </g>
        <g id="그룹_1482" data-name="그룹 1482" transform="translate(3.289)">
          <path id="패스_5382" data-name="패스 5382" class="cls-5" d="M100.1,31.95c0,.083.167.167.334.167s.334-.083.334-.167a.266.266,0,0,0-.25-.25C100.35,31.7,100.1,31.867,100.1,31.95Z" transform="translate(-100.1 -30.358)"/>
          <path id="패스_5383" data-name="패스 5383" class="cls-5" d="M100.8,31.415s2-1.585,3.755,1.335C104.555,32.666,100.716,32.917,100.8,31.415Z" transform="translate(-100.216 -30.24)"/>
          <path id="패스_5384" data-name="패스 5384" class="cls-5" d="M100.6,31.183s.751-1.919,3.171-.668C103.771,30.516,101.184,32.268,100.6,31.183Z" transform="translate(-100.183 -30.092)"/>
          <path id="패스_5385" data-name="패스 5385" class="cls-5" d="M100.567,31.818h0a.641.641,0,0,1,.167-.25,1.152,1.152,0,0,1,.25-.334l.083-.083a.082.082,0,0,0,.083-.083v-.083a.082.082,0,0,0-.083-.083H100.9l-.083.083a.082.082,0,0,1-.083.083c-.083.167-.167.25-.25.417-.083.083-.083.167-.083.334.083-.083.083,0,.167,0Z" transform="translate(-100.15 -30.226)"/>
        </g>
      </g>
      <g id="그룹_1489" data-name="그룹 1489" transform="translate(59.244 42.716)">
        <g id="그룹_1484" data-name="그룹 1484" transform="translate(1.585 1.842)">
          <path id="패스_5386" data-name="패스 5386" class="cls-3" d="M155.791,63.422a2.61,2.61,0,0,1-.417.834,2.539,2.539,0,0,1-.668.668c-.25.167-.584.167-.918.334a3.762,3.762,0,0,1-.918.25,3.549,3.549,0,0,1-.918-.167,2.61,2.61,0,0,1-.834-.417c-.25-.167-.668-.25-.834-.5a2.958,2.958,0,0,1-.25-.918c-.083-.334-.334-.584-.334-.918a4.062,4.062,0,0,1,.083-1c.083-.334.417-.5.584-.751a5.035,5.035,0,0,1,.668-.668,2.61,2.61,0,0,1,.834-.417,1.808,1.808,0,0,1,1.836,0,2.5,2.5,0,0,1,.834.334,2.6,2.6,0,0,1,.751.584,2.989,2.989,0,0,1,.334.918,2.958,2.958,0,0,1,.25.918C155.791,62.754,155.875,63.088,155.791,63.422Z" transform="translate(-149.7 -59.5)"/>
        </g>
        <g id="그룹_1485" data-name="그룹 1485" transform="translate(1.632 1.842)">
          <path id="패스_5387" data-name="패스 5387" class="cls-3" d="M155.717,63.422a2.778,2.778,0,0,1-.5.834,5.036,5.036,0,0,1-.668.668,7.754,7.754,0,0,1-.834.417c-.25.083-.584.25-.918.334a3.549,3.549,0,0,1-.918-.167,2.777,2.777,0,0,1-.834-.5,2.54,2.54,0,0,1-.668-.668c-.167-.25-.5-.5-.584-.751a3.365,3.365,0,0,1,0-.918,3.422,3.422,0,0,1,.083-.918,2.989,2.989,0,0,1,.334-.918,2.54,2.54,0,0,1,.668-.668,3.487,3.487,0,0,1,.834-.334c.334-.083.584-.334.918-.334a3.129,3.129,0,0,1,.918.083,1.852,1.852,0,0,1,.918.417,2.539,2.539,0,0,1,.668.668,3.9,3.9,0,0,1,.417.834,3.366,3.366,0,0,1,0,.918A1.436,1.436,0,0,1,155.717,63.422Z" transform="translate(-149.756 -59.5)"/>
        </g>
        <g id="그룹_1486" data-name="그룹 1486" transform="translate(2.949 1.059)">
          <path id="패스_5388" data-name="패스 5388" class="cls-3" d="M153.726,60.1a.954.954,0,0,1-.584.668,1.148,1.148,0,0,1-.918.083,1.215,1.215,0,0,1-.751-.5,1.148,1.148,0,0,1-.083-.918.934.934,0,0,1,.584-.668,1.159,1.159,0,0,1,.918-.167.954.954,0,0,1,.668.584A.974.974,0,0,1,153.726,60.1Z" transform="translate(-151.334 -58.561)"/>
        </g>
        <g id="그룹_1487" data-name="그룹 1487" transform="translate(3.05 4.012)">
          <path id="패스_5389" data-name="패스 5389" class="cls-4" d="M153.183,64.717c-.083,0-.083,0-.083-.083v-.167l.083-.083c0-.083.083-.083.167-.083s.083.083.083.167a.221.221,0,0,1-.25.25Z" transform="translate(-151.728 -62.464)"/>
          <path id="패스_5390" data-name="패스 5390" class="cls-4" d="M154.783,65.517c-.083,0-.083,0-.083-.083s0-.167.083-.167l.083-.083c0-.083.083-.083.167-.083s.083.083.083.167a1.152,1.152,0,0,1-.334.25Z" transform="translate(-151.993 -62.597)"/>
          <path id="패스_5391" data-name="패스 5391" class="cls-4" d="M155.983,63.417c-.083,0-.083,0-.083-.083s0-.167.083-.167l.083-.083c0-.083.083-.083.167-.083s.083.083.083.167c-.083.167-.167.25-.334.25Z" transform="translate(-152.191 -62.249)"/>
          <path id="패스_5392" data-name="패스 5392" class="cls-4" d="M155.583,62.517c-.083,0-.083,0-.083-.083s0-.167.083-.167l.083-.083c0-.083.083-.083.167-.083s.083.083.083.167a1.153,1.153,0,0,1-.334.25Z" transform="translate(-152.125 -62.1)"/>
          <path id="패스_5393" data-name="패스 5393" class="cls-4" d="M154.476,64.617c-.083,0-.083,0-.083-.083a.116.116,0,0,1,0-.167l.083-.083c0-.083.083-.083.167-.083s.083.083.083.167-.083.167-.25.25C154.56,64.534,154.56,64.617,154.476,64.617Z" transform="translate(-151.936 -62.448)"/>
          <path id="패스_5394" data-name="패스 5394" class="cls-4" d="M154.783,63.517c-.083,0-.083,0-.083-.083s0-.167.083-.167l.083-.083c0-.083.083-.083.167-.083s.083.083.083.167a1.152,1.152,0,0,1-.334.25Z" transform="translate(-151.993 -62.266)"/>
          <path id="패스_5395" data-name="패스 5395" class="cls-4" d="M155.576,64.617c-.083,0-.083,0-.083-.083a.116.116,0,0,1,0-.167l.083-.083c0-.083.083-.083.167-.083s.083.083.083.167-.083.167-.25.25Z" transform="translate(-152.118 -62.448)"/>
          <path id="패스_5396" data-name="패스 5396" class="cls-4" d="M153.683,65.817c-.083,0-.083,0-.083-.083s0-.167.083-.167l.083-.083c0-.083.083-.083.167-.083s.083.083.083.167a1.152,1.152,0,0,1-.334.25Z" transform="translate(-151.811 -62.646)"/>
          <path id="패스_5397" data-name="패스 5397" class="cls-4" d="M151.576,65.317c-.083,0-.083,0-.083-.083a.116.116,0,0,1,0-.167l.083-.083c0-.083.083-.083.167-.083s.083.083.083.167-.083.167-.25.25Z" transform="translate(-151.456 -62.564)"/>
          <path id="패스_5398" data-name="패스 5398" class="cls-4" d="M152.576,65.817c-.083,0-.083,0-.083-.083a.116.116,0,0,1,0-.167l.083-.083c0-.083.083-.083.167-.083s.083.083.083.167-.167.167-.25.25Z" transform="translate(-151.621 -62.646)"/>
        </g>
        <g id="그룹_1488" data-name="그룹 1488">
          <path id="패스_5399" data-name="패스 5399" class="cls-5" d="M152.968,59.15c0,.083-.167.167-.334.167s-.334-.083-.334-.167a.266.266,0,0,1,.25-.25C152.717,58.9,152.968,59.067,152.968,59.15Z" transform="translate(-148.545 -57.558)"/>
          <path id="패스_5400" data-name="패스 5400" class="cls-5" d="M151.555,58.615s-2-1.585-3.755,1.335C147.8,59.95,151.722,60.117,151.555,58.615Z" transform="translate(-147.8 -57.44)"/>
          <path id="패스_5401" data-name="패스 5401" class="cls-5" d="M151.871,58.383s-.751-1.919-3.171-.668C148.783,57.716,151.287,59.468,151.871,58.383Z" transform="translate(-147.949 -57.292)"/>
          <path id="패스_5402" data-name="패스 5402" class="cls-5" d="M152.484,59.018c0-.083-.083-.083,0,0a.641.641,0,0,0-.167-.25,1.152,1.152,0,0,0-.25-.334l-.083-.083-.083-.083v-.083a.082.082,0,0,1,.083-.083h.167l.083.083.083.083c.083.167.167.25.25.417.083.083.083.167.083.334-.083-.083-.083,0-.167,0Z" transform="translate(-148.479 -57.426)"/>
        </g>
      </g>
      <path id="패스_5403" data-name="패스 5403" class="cls-6" d="M121.5,54.4" transform="translate(-84.201 -14.098)"/>
      <path id="패스_5404" data-name="패스 5404" class="cls-7" d="M135.229,63.191c-.083-.751-.668-1.335-.918-2-.668-1.752-2.169-.167-3.254.417-2.754,1.5-5.424,4.172-8.177,5.674.25-.083-.167-3-.167-3.338a12.933,12.933,0,0,0-.584-4.005c-.334-1-.751-2.086-1.085-3.087-.417-1.085-.751-2.169-1.168-3.254-.083-.25-.584-1.252-.5-1.419,2.169-5.007,4.339-10.1,6.508-15.1.5-1.085,1.168-2.086,1.669-3.254.584-1.585.334-2.336-1.419-2.587-1.5-.25-3,3.421-3.588,4.422,0-.083-4.256-3-4.589-3.338-.834-.584-1.585-1.168-2.42-1.836-1-.751-1.168-.834-2,0-.918.918.334,1.585,1.085,2.253.834.834,1.752,1.669,2.587,2.42,1.168,1.085,2.336,2.253,3.5,3.338l-6.425,10.1c-2.086-1.085-4.089-2.169-6.175-3.254-1.335-.751-2.67-1.585-4.005-2.336-.751-.417-1-.834-1.752-.417-.834.5-1.752,2-.918,2.837,1.252,1.335,3.171,2.253,4.673,3.338,1.752,1.252,3.5,2.5,5.173,3.838.25.25.834.5,1,.834a1.677,1.677,0,0,1,.334.668c2,3.588,1.919,11.849,1.669,16.021L113.7,91.979a2,2,0,0,1-.584,1,10.86,10.86,0,0,1-1.919,1.5,6.056,6.056,0,0,0-.751.417c-.25.167-.5.584,0,.751a1.78,1.78,0,0,0,.668,0l5.09-.5c.083,0,.25.417.334.5l1.252,2c.334.584.918,1.669,1.752,1.585.334,0,.417-.25.584-.5a26.373,26.373,0,0,0,2.42-4.172s.417.083.5.083c.834.167,1.585.417,2.42.668a19.648,19.648,0,0,0,2.92.918c.25.083.834.167,1-.083.167-.334-.417-.668-.668-.751a9.1,9.1,0,0,0-.918-.5,11.461,11.461,0,0,1-1.669-1.085A8.425,8.425,0,0,1,124.8,92.73a4.364,4.364,0,0,1-.167-2.086c0-3.922-.167-7.844-.25-11.765,0-1.752-.083-3.5-.083-5.257,0-.167,1.168-.834,1.252-1a57.41,57.41,0,0,0,5.173-4.923,19.294,19.294,0,0,1,2.42-2C133.727,65.027,135.4,64.443,135.229,63.191Z" transform="translate(-80.825 -10.039)"/>
    </g>
    <g id="그룹_1544" data-name="그룹 1544" transform="translate(720.043 1227.944)">
      <g id="그룹_1503" data-name="그룹 1503" transform="translate(0 4.252)">
        <path id="패스_5439" data-name="패스 5439" class="cls-8" d="M44.08,100.943a.307.307,0,0,1-.25-.083C14.124,83.253,8.283,43.034,8.2,42.617c0-.25.083-.417.334-.417s.417.083.417.334c.083.417,5.841,40.3,35.3,57.742a.4.4,0,0,1,.167.5A.434.434,0,0,1,44.08,100.943Z" transform="translate(-1.358 -38.512)"/>
        <path id="패스_5440" data-name="패스 5440" class="cls-8" d="M38.843,103.9s-3.171-4.089-7.343,1.168c-.083,0,3.171,4.005,7.343-1.168" transform="translate(-5.215 -48.478)"/>
        <path id="패스_5441" data-name="패스 5441" class="cls-8" d="M10.142,54.6s-.5-5.173-6.842-3c0,0,.5,5.173,6.842,3" transform="translate(-0.546 -39.98)"/>
        <path id="패스_5442" data-name="패스 5442" class="cls-8" d="M36.66,99.675s-3.338-2.754,1.085-6.175c0,0,3.254,2.754-1.085,6.175" transform="translate(-5.87 -47.007)"/>
        <path id="패스_5443" data-name="패스 5443" class="cls-8" d="M10.1,48.33s-.584-4.339,5.007-3.838c0,0,.584,4.339-5.007,3.838" transform="translate(-1.669 -38.885)"/>
        <path id="패스_5444" data-name="패스 5444" class="cls-8" d="M35.156,67.456s1.5-4.089-4.089-4.756c0,0-1.419,4.089,4.089,4.756" transform="translate(-5.117 -41.907)"/>
        <path id="패스_5445" data-name="패스 5445" class="cls-8" d="M32.445,78.356s1.5-4.089-4.089-4.756c-.083,0-1.5,4.089,4.089,4.756" transform="translate(-4.659 -43.712)"/>
        <path id="패스_5446" data-name="패스 5446" class="cls-8" d="M37.052,83.756s1.5-4.089-4.089-4.756c0,0-1.5,4.089,4.089,4.756" transform="translate(-5.428 -44.606)"/>
        <path id="패스_5447" data-name="패스 5447" class="cls-8" d="M21.306,78.924s-2.253-3.755,3.087-5.424c0,0,2.253,3.755-3.087,5.424" transform="translate(-3.45 -43.695)"/>
        <path id="패스_5448" data-name="패스 5448" class="cls-8" d="M7.593,41.885S7.176,36.044,0,38.3c0,0,.5,5.757,7.593,3.588" transform="translate(0 -37.78)"/>
        <path id="패스_5449" data-name="패스 5449" class="cls-8" d="M25.493,88.628s-1.335-5.674-8.094-2.336c-.083.083,1.335,5.674,8.094,2.336" transform="translate(-2.88 -45.639)"/>
        <path id="패스_5450" data-name="패스 5450" class="cls-8" d="M13.712,67.13S12.127,60.539,4.2,64.544c0,0,1.669,6.592,9.512,2.587" transform="translate(-0.695 -41.998)"/>
        <path id="패스_5451" data-name="패스 5451" class="cls-8" d="M31.487,90.477h0a.382.382,0,0,1-.417-.334c0-.167-1.585-13.768,5.424-25.283a.373.373,0,0,1,.668.334c-6.842,11.348-5.34,24.7-5.34,24.866C31.9,90.227,31.737,90.394,31.487,90.477Z" transform="translate(-5.119 -42.231)"/>
        <path id="패스_5452" data-name="패스 5452" class="cls-8" d="M45.427,61.582S41,57.744,37.5,64.419c-.083,0,4.422,3.755,7.927-2.837" transform="translate(-6.209 -41.54)"/>
      </g>
      <g id="그룹_1504" data-name="그룹 1504" transform="translate(8.96 19.059)">
        <path id="패스_5453" data-name="패스 5453" class="cls-1" d="M10.79,61.846a7.136,7.136,0,0,1,0,1.335c-.668,4.422,5.257,5.007,7.927,3.755a5.846,5.846,0,0,0,2.253-2.253c.668-.918,2-1.669,2.336-2.754.584-1.836-.834-4.256-2-5.424-1.5-1.419-3.254-1.085-4.923-.334a19.975,19.975,0,0,1-2.336,1.085c-1.335.417-2.42.668-2.92,2.169A12.938,12.938,0,0,0,10.79,61.846Z" transform="translate(-10.738 -55.525)"/>
        <ellipse id="타원_32" data-name="타원 32" class="cls-1" cx="2.253" cy="2.253" rx="2.253" ry="2.253" transform="translate(3.31 3.609) rotate(-9.062)"/>
        <ellipse id="타원_33" data-name="타원 33" class="cls-9" cx="2.003" cy="2.003" rx="2.003" ry="2.003" transform="translate(3.683 3.659) rotate(-9.062)"/>
      </g>
      <g id="그룹_1506" data-name="그룹 1506" transform="translate(25.168 31.708)">
        <path id="패스_5454" data-name="패스 5454" class="cls-1" d="M30.194,74.285c-.083,1.335-.083,2.754,1.085,3.588,1.419,1,4.005,1.419,5.424.167A5.269,5.269,0,0,0,38.538,75.2a3.8,3.8,0,0,0-.5-2.5,3.443,3.443,0,0,0-2.169-2,3.573,3.573,0,0,0-1.836.5,3.181,3.181,0,0,1-1.252.083,2.707,2.707,0,0,0-1.919.668,3.238,3.238,0,0,0-.668,2.336Z" transform="translate(-30.162 -70.684)"/>
        <g id="그룹_1505" data-name="그룹 1505" transform="translate(2.266 1.496)">
          <ellipse id="타원_34" data-name="타원 34" class="cls-1" cx="1.836" cy="1.836" rx="1.836" ry="1.836" transform="translate(0 0.579) rotate(-9.068)"/>
          <ellipse id="타원_35" data-name="타원 35" class="cls-9" cx="1.669" cy="1.669" rx="1.669" ry="1.669" transform="translate(0.278 0.555) rotate(-9.079)"/>
        </g>
      </g>
      <g id="그룹_1508" data-name="그룹 1508" transform="translate(1.971 0)">
        <path id="패스_5455" data-name="패스 5455" class="cls-1" d="M2.394,36.285c-.083,1.335-.083,2.754,1.085,3.588,1.419,1,4.005,1.419,5.424.167A5.269,5.269,0,0,0,10.738,37.2a3.8,3.8,0,0,0-.5-2.5,3.443,3.443,0,0,0-2.169-2,3.573,3.573,0,0,0-1.836.5,3.181,3.181,0,0,1-1.252.083,2.707,2.707,0,0,0-1.919.668,3.677,3.677,0,0,0-.668,2.336Z" transform="translate(-2.362 -32.684)"/>
        <g id="그룹_1507" data-name="그룹 1507" transform="translate(2.27 1.504)">
          <ellipse id="타원_36" data-name="타원 36" class="cls-1" cx="1.836" cy="1.836" rx="1.836" ry="1.836" transform="translate(0 0.578) rotate(-9.05)"/>
          <ellipse id="타원_37" data-name="타원 37" class="cls-9" cx="1.669" cy="1.669" rx="1.669" ry="1.669" transform="translate(0.355 0.541) rotate(-9.102)"/>
        </g>
      </g>
    </g>
    <g id="그룹_1545" data-name="그룹 1545" transform="translate(765.167 1141.843)">
      <path id="패스_5405" data-name="패스 5405" class="cls-10" d="M50.3,30.1S52.974.68,73.383.117c0,0,15.342-2.815,23.083,30.543Z" transform="translate(-37.048 -0.058)"/>
      <path id="패스_5406" data-name="패스 5406" class="cls-10" d="M51.913,31.6h48.418c1.126,9.853,2.534,19.705,3.519,29.558,1.83,17.312,3.66,34.625,6.193,51.8,1.126,7.741,5.489,19.142.844,26.32-3.8,5.912-11.119,6.052-17.453,6.052-8.867,0-17.735-.281-26.6,0-6.334.141-14.075.985-19-4.223-4.5-4.786-4.082-11.823-3.66-17.875.422-6.334.985-12.668,1.548-19,.844-10.134,1.689-20.127,2.534-30.261.7-9.149,1.548-18.438,2.252-27.587.422-4.645.7-9.149,1.126-13.794V32.3" transform="translate(-39.646 12.795)"/>
      <path id="패스_5407" data-name="패스 5407" class="cls-10" d="M102.352,30.156a2.372,2.372,0,0,1-2.393,2.393H49.993A2.372,2.372,0,0,1,47.6,30.156V25.793A2.372,2.372,0,0,1,49.993,23.4H99.959a2.372,2.372,0,0,1,2.393,2.393Z" transform="translate(-38.148 9.454)"/>
      <path id="패스_5408" data-name="패스 5408" class="cls-11" d="M62.826,40.06c0,2.111-1.126,3.66-2.393,3.66-1.408,0-2.534-1.689-2.534-3.66,0-2.111,1.126-3.66,2.393-3.66C61.7,36.4,62.826,38.089,62.826,40.06Z" transform="translate(-33.951 14.751)"/>
      <path id="패스_5409" data-name="패스 5409" class="cls-11" d="M75.726,40.56c0,2.111-1.126,3.66-2.393,3.66-1.408,0-2.534-1.689-2.534-3.66s1.126-3.66,2.393-3.66C74.6,36.9,75.726,38.448,75.726,40.56Z" transform="translate(-28.694 14.955)"/>
      <path id="패스_5410" data-name="패스 5410" class="cls-10" d="M40.906,99.361a6.277,6.277,0,0,0,5.63,6.756l1.689.141c3.378.281,6.475-4.786,6.756-8.164l3.378-36.032a6.277,6.277,0,0,0-5.63-6.756H50.9a6.277,6.277,0,0,0-6.756,5.63Z" transform="translate(-40.885 22.447)"/>
      <path id="패스_5411" data-name="패스 5411" class="cls-11" d="M62.379,52.494a8.066,8.066,0,0,1-1.548-1.548,2,2,0,1,1,3.1-2.534A5.741,5.741,0,0,0,67.868,50.8a6.07,6.07,0,0,0,3.941-1.548,1.991,1.991,0,0,1,2.815,2.815,10.178,10.178,0,0,1-6.9,2.674A8.36,8.36,0,0,1,62.379,52.494Z" transform="translate(-32.94 19.348)"/>
      <path id="패스_5412" data-name="패스 5412" class="cls-10" d="M100.135,105.037c.422,3.1-1.689,9.008-4.786,9.43l-4.5,1.267c-3.1.422-2.393-3.519-2.815-6.756L81.415,62.389a5.608,5.608,0,0,1,4.926-6.334l1.548-.141a5.608,5.608,0,0,1,6.334,4.926Z" transform="translate(-24.389 22.683)"/>
      <path id="패스_5413" data-name="패스 5413" class="cls-10" d="M92.966,57.882a3.742,3.742,0,0,1-3.237,4.082l-.985.141a3.742,3.742,0,0,1-4.082-3.237L82.41,37.332a3.742,3.742,0,0,1,3.237-4.082l.985-.141a3.742,3.742,0,0,1,4.082,3.237Z" transform="translate(-23.977 13.397)"/>
      <path id="패스_5414" data-name="패스 5414" class="cls-10" d="M44,58.056a3.854,3.854,0,0,0,3.378,4.082l.985.141A3.854,3.854,0,0,0,52.448,58.9l1.83-21.676A3.854,3.854,0,0,0,50.9,33.144L49.914,33a3.769,3.769,0,0,0-4.082,3.378Z" transform="translate(-39.618 13.363)"/>
      <g id="그룹_1492" data-name="그룹 1492" transform="translate(19.249 8.889)">
        <path id="패스_5415" data-name="패스 5415" class="cls-11" d="M58.807,8.522a.517.517,0,0,1-.422-.141.7.7,0,0,1-.141-.985c.141-.141.141-.422.282-.422a.718.718,0,0,1,1.408.282,1.463,1.463,0,0,1-.563,1.126A.846.846,0,0,1,58.807,8.522Z" transform="translate(-53.122 -6.374)"/>
        <path id="패스_5416" data-name="패스 5416" class="cls-11" d="M62.007,8.522a.517.517,0,0,1-.422-.141.7.7,0,0,1-.141-.985.7.7,0,0,0,.141-.422.718.718,0,0,1,1.408.282,1.462,1.462,0,0,1-.563,1.126C62.43,8.522,62.148,8.522,62.007,8.522Z" transform="translate(-51.818 -6.374)"/>
        <path id="패스_5417" data-name="패스 5417" class="cls-11" d="M58.207,13.722a.517.517,0,0,1-.422-.141.7.7,0,0,1-.141-.985c.141-.141.141-.422.282-.422a.718.718,0,1,1,1.408.282,2.1,2.1,0,0,1-.563,1.267Z" transform="translate(-53.366 -4.255)"/>
        <path id="패스_5418" data-name="패스 5418" class="cls-11" d="M57.007,11.263a.517.517,0,0,1-.422-.141.7.7,0,0,1-.141-.985c.141-.141.141-.422.282-.563a.718.718,0,0,1,1.408.282,1.738,1.738,0,0,1-.563,1.126A1.067,1.067,0,0,1,57.007,11.263Z" transform="translate(-53.855 -5.314)"/>
        <path id="패스_5419" data-name="패스 5419" class="cls-11" d="M60.107,11.263a.517.517,0,0,1-.422-.141.7.7,0,0,1-.141-.985c.141-.141.141-.422.282-.563a.718.718,0,0,1,1.408.282,1.738,1.738,0,0,1-.563,1.126A.731.731,0,0,1,60.107,11.263Z" transform="translate(-52.592 -5.314)"/>
        <g id="그룹_1491" data-name="그룹 1491" transform="translate(27.587 92.228)">
          <path id="패스_5420" data-name="패스 5420" class="cls-11" d="M76.861,81.841A1.064,1.064,0,0,1,76.3,81.7a.744.744,0,0,1-.141-1.126,1.067,1.067,0,0,0,.281-.563.7.7,0,0,1,.845-.7.788.788,0,0,1,.7.845,2.15,2.15,0,0,1-.563,1.408C77.283,81.841,77.142,81.841,76.861,81.841Z" transform="translate(-73.427 -68.892)"/>
          <path id="패스_5421" data-name="패스 5421" class="cls-11" d="M75.061,78.134a.846.846,0,0,1-.563-.141.744.744,0,0,1-.141-1.126,1.067,1.067,0,0,0,.282-.563.788.788,0,0,1,.844-.7c.422,0,.7.422.7.985a2.5,2.5,0,0,1-.563,1.408C75.483,77.993,75.2,78.134,75.061,78.134Z" transform="translate(-74.161 -70.392)"/>
          <path id="패스_5422" data-name="패스 5422" class="cls-11" d="M81.661,74.434a.846.846,0,0,1-.563-.141.744.744,0,0,1-.141-1.126,1.067,1.067,0,0,0,.282-.563c0-.422.422-.7.985-.7.422,0,.7.422.7.985a2.5,2.5,0,0,1-.563,1.408A1.055,1.055,0,0,1,81.661,74.434Z" transform="translate(-71.471 -71.9)"/>
          <path id="패스_5423" data-name="패스 5423" class="cls-11" d="M79.361,78.034a1.064,1.064,0,0,1-.563-.141.744.744,0,0,1-.141-1.126,1.067,1.067,0,0,0,.281-.563c0-.422.422-.7.985-.7.422,0,.7.422.7.985a2.972,2.972,0,0,1-.563,1.408A6.093,6.093,0,0,1,79.361,78.034Z" transform="translate(-72.408 -70.433)"/>
          <path id="패스_5424" data-name="패스 5424" class="cls-11" d="M77.961,74.434a.846.846,0,0,1-.563-.141.744.744,0,0,1-.141-1.126,1.067,1.067,0,0,0,.281-.563c0-.422.422-.7.985-.7.422,0,.7.422.7.985a2.5,2.5,0,0,1-.563,1.408A6.094,6.094,0,0,1,77.961,74.434Z" transform="translate(-72.979 -71.9)"/>
          <path id="패스_5425" data-name="패스 5425" class="cls-11" d="M83.661,77.834a.846.846,0,0,1-.563-.141.744.744,0,0,1-.141-1.126A1.067,1.067,0,0,0,83.238,76c0-.422.422-.7.985-.7.422,0,.7.422.7.985a2.5,2.5,0,0,1-.563,1.408A1.53,1.53,0,0,1,83.661,77.834Z" transform="translate(-70.656 -70.514)"/>
          <path id="패스_5426" data-name="패스 5426" class="cls-11" d="M81.361,81.142A.846.846,0,0,1,80.8,81a.744.744,0,0,1-.141-1.126,1.067,1.067,0,0,0,.282-.563.7.7,0,0,1,.845-.7.788.788,0,0,1,.7.845,2.5,2.5,0,0,1-.563,1.408C81.924,81,81.642,81.142,81.361,81.142Z" transform="translate(-71.593 -69.178)"/>
        </g>
        <path id="패스_5427" data-name="패스 5427" class="cls-11" d="M59.861,98.434a.846.846,0,0,1-.563-.141.744.744,0,0,1-.141-1.126,1.067,1.067,0,0,0,.281-.563.777.777,0,0,1,1.548.141,2.5,2.5,0,0,1-.563,1.408A1.067,1.067,0,0,1,59.861,98.434Z" transform="translate(-52.768 30.109)"/>
        <path id="패스_5428" data-name="패스 5428" class="cls-11" d="M55.461,98.234a.846.846,0,0,1-.563-.141.744.744,0,0,1-.141-1.126,1.067,1.067,0,0,0,.282-.563c0-.422.422-.7.985-.7.422,0,.7.422.7.985a2.5,2.5,0,0,1-.563,1.408A6.1,6.1,0,0,0,55.461,98.234Z" transform="translate(-54.561 30.027)"/>
        <path id="패스_5429" data-name="패스 5429" class="cls-11" d="M63.861,98.742A.846.846,0,0,1,63.3,98.6a.744.744,0,0,1-.141-1.126,1.067,1.067,0,0,0,.282-.563.7.7,0,0,1,.845-.7.788.788,0,0,1,.7.845,2.5,2.5,0,0,1-.563,1.408C64.424,98.6,64.142,98.742,63.861,98.742Z" transform="translate(-51.138 30.223)"/>
      </g>
      <g id="그룹_1502" data-name="그룹 1502" transform="translate(7.2 86.48)">
        <g id="그룹_1493" data-name="그룹 1493" transform="translate(0 0.141)">
          <path id="패스_5430" data-name="패스 5430" class="cls-11" d="M46.845,103.966a.844.844,0,1,1,0-1.689h5.067c1.126-.141,2.252-1.126,3.237-2.674,1.408-2.534,1.83-5.771.985-7.741a5.889,5.889,0,0,0-1.126-1.689c-1.267-1.689-3.378-1.971-5.63-2.252-.422,0-.845-.141-1.267-.141a.938.938,0,0,1-.7-.985c.845-11.119,1.971-24.35,1.971-24.35a.918.918,0,0,1,1.83.141c0,.141-1.548,19.424-1.83,23.505a.517.517,0,0,1,.422.141c2.393.282,4.926.7,6.756,2.956A8.4,8.4,0,0,1,57.823,91.3c1.126,2.393.563,6.334-.985,9.29a6.013,6.013,0,0,1-4.645,3.519Z" transform="translate(-46 -61.6)"/>
        </g>
        <g id="그룹_1494" data-name="그룹 1494" transform="translate(6.475 29.698)">
          <line id="선_132" data-name="선 132" class="cls-11" x2="3.519" y2="0.282" transform="translate(0.845 0.985)"/>
          <path id="패스_5431" data-name="패스 5431" class="cls-11" d="M54.963,84.711h0l-3.519-.281a.918.918,0,0,1,.141-1.83l3.519.281a.941.941,0,0,1,.845.985A1.207,1.207,0,0,1,54.963,84.711Z" transform="translate(-50.6 -82.6)"/>
        </g>
        <g id="그룹_1495" data-name="그룹 1495" transform="translate(6.193 33.358)">
          <line id="선_133" data-name="선 133" class="cls-11" x2="3.519" y2="0.141" transform="translate(0.845 0.985)"/>
          <path id="패스_5432" data-name="패스 5432" class="cls-11" d="M54.763,87.171h0l-3.519-.141a.918.918,0,1,1,.141-1.83l3.519.141a.941.941,0,0,1,.844.985A1.028,1.028,0,0,1,54.763,87.171Z" transform="translate(-50.4 -85.2)"/>
        </g>
        <g id="그룹_1496" data-name="그룹 1496" transform="translate(5.208 37.017)">
          <line id="선_134" data-name="선 134" class="cls-11" x2="3.519" y2="0.141" transform="translate(0.985 0.985)"/>
          <path id="패스_5433" data-name="패스 5433" class="cls-11" d="M54.2,89.911h0l-3.66-.281a.918.918,0,1,1,.141-1.83l3.66.281a.941.941,0,0,1,.845.985A1.207,1.207,0,0,1,54.2,89.911Z" transform="translate(-49.7 -87.8)"/>
        </g>
        <g id="그룹_1497" data-name="그룹 1497" transform="translate(48.908 31.806)">
          <path id="패스_5434" data-name="패스 5434" class="cls-11" d="M92.785,102.539H86.592A5.955,5.955,0,0,1,82.229,99.3c-1.548-2.815-1.971-6.9-.844-9.43,1.267-3.1,4.223-4.223,6.193-4.926.141,0,3.8-1.267,4.5-.7a.774.774,0,0,1,.422.7,1.028,1.028,0,0,1-.844.985h-.141a29.623,29.623,0,0,0-3.378.844c-2.674.845-4.363,2.111-5.067,3.941a10.068,10.068,0,0,0,.7,7.741,4.279,4.279,0,0,0,2.956,2.393h6.052a.845.845,0,1,1,0,1.689Z" transform="translate(-80.748 -84.098)"/>
        </g>
        <g id="그룹_1498" data-name="그룹 1498" transform="translate(49.263 37.721)">
          <line id="선_135" data-name="선 135" class="cls-11" x1="4.504" y2="0.422" transform="translate(0.845 0.985)"/>
          <path id="패스_5435" data-name="패스 5435" class="cls-11" d="M81.845,90.552A.811.811,0,0,1,81,89.708a.931.931,0,0,1,.845-.985l4.5-.422a.931.931,0,0,1,.985.845,1.028,1.028,0,0,1-.844.985l-4.645.422Z" transform="translate(-81 -88.3)"/>
        </g>
        <g id="그룹_1499" data-name="그룹 1499" transform="translate(49.263 41.522)">
          <line id="선_136" data-name="선 136" class="cls-11" x1="4.645" y2="0.282" transform="translate(0.845 0.844)"/>
          <path id="패스_5436" data-name="패스 5436" class="cls-11" d="M81.845,93.111A.908.908,0,0,1,81,92.267a1.028,1.028,0,0,1,.845-.985l4.5-.281a.918.918,0,1,1,.141,1.83l-4.645.282Z" transform="translate(-81 -91)"/>
        </g>
        <g id="그룹_1500" data-name="그룹 1500" transform="translate(50.952 45.04)">
          <line id="선_137" data-name="선 137" class="cls-11" x1="3.8" y2="0.141" transform="translate(0.845 0.985)"/>
          <path id="패스_5437" data-name="패스 5437" class="cls-11" d="M83.045,95.47a.908.908,0,0,1-.845-.845,1.207,1.207,0,0,1,.845-.985l3.8-.141a1.054,1.054,0,0,1,.985.844,1.207,1.207,0,0,1-.845.985l-3.941.141Z" transform="translate(-82.2 -93.5)"/>
        </g>
        <g id="그룹_1501" data-name="그룹 1501" transform="translate(55.174 0)">
          <line id="선_138" data-name="선 138" class="cls-11" x1="3.519" y1="31.528" transform="translate(0.845 0.985)"/>
          <path id="패스_5438" data-name="패스 5438" class="cls-11" d="M89.563,95a.811.811,0,0,1-.845-.845L85.2,62.485c0-.422.282-.985.7-.985a.931.931,0,0,1,.985.845l3.519,31.669c.141.422-.282.844-.845.985Z" transform="translate(-85.2 -61.5)"/>
        </g>
      </g>
      <path id="패스_5456" data-name="패스 5456" class="cls-11" d="M68.857,40.9c-.141-.141-.141-.282-.281-.422-1.408-1.126-2.393,1.408-2.815,2.393-.7,1.126-3.66,3.66-2.252,5.067,1.126,1.267,3.378,1.408,5.067,1.267,3.237-.422,1.971-3.237,1.267-5.208C69.42,43.015,69.42,41.749,68.857,40.9Z" transform="translate(-31.818 16.299)"/>
      <path id="패스_5457" data-name="패스 5457" class="cls-11" d="M55.707,105.334a.517.517,0,0,1-.422-.141.852.852,0,0,1-.141-1.126,1.067,1.067,0,0,0,.282-.563.777.777,0,1,1,1.548.141,2.1,2.1,0,0,1-.563,1.267C56.13,105.193,55.989,105.334,55.707,105.334Z" transform="translate(-35.136 41.81)"/>
      <path id="패스_5458" data-name="패스 5458" class="cls-11" d="M53.007,101.434a.517.517,0,0,1-.422-.141.852.852,0,0,1-.141-1.126,1.067,1.067,0,0,0,.282-.563.777.777,0,0,1,1.548.141,2.1,2.1,0,0,1-.563,1.267A.766.766,0,0,1,53.007,101.434Z" transform="translate(-36.237 40.221)"/>
      <path id="패스_5459" data-name="패스 5459" class="cls-11" d="M57.407,101.834a.517.517,0,0,1-.422-.141.852.852,0,0,1-.141-1.126,1.067,1.067,0,0,0,.282-.563.777.777,0,0,1,1.548.141,2.1,2.1,0,0,1-.563,1.267A1.286,1.286,0,0,1,57.407,101.834Z" transform="translate(-34.444 40.384)"/>
      <path id="패스_5460" data-name="패스 5460" class="cls-11" d="M61.707,101.893a.517.517,0,0,1-.422-.141.7.7,0,0,1-.141-.985,1.067,1.067,0,0,0,.282-.563.777.777,0,0,1,1.548.141,2.1,2.1,0,0,1-.563,1.267A2.378,2.378,0,0,1,61.707,101.893Z" transform="translate(-32.691 40.465)"/>
      <path id="패스_5461" data-name="패스 5461" class="cls-11" d="M65.807,101.893a.517.517,0,0,1-.422-.141.7.7,0,0,1-.141-.985,1.067,1.067,0,0,0,.282-.563.777.777,0,0,1,1.548.141,2.1,2.1,0,0,1-.563,1.267A2.377,2.377,0,0,1,65.807,101.893Z" transform="translate(-31.021 40.465)"/>
      <path id="패스_5462" data-name="패스 5462" class="cls-11" d="M59.707,105.134a.517.517,0,0,1-.422-.141.852.852,0,0,1-.141-1.126,1.067,1.067,0,0,0,.281-.563.777.777,0,1,1,1.548.141,2.1,2.1,0,0,1-.563,1.267C60.27,105.134,59.989,105.134,59.707,105.134Z" transform="translate(-33.506 41.728)"/>
      <path id="패스_5463" data-name="패스 5463" class="cls-11" d="M63.607,105.134a.517.517,0,0,1-.422-.141.852.852,0,0,1-.141-1.126,1.067,1.067,0,0,0,.282-.563.777.777,0,1,1,1.548.141,2.1,2.1,0,0,1-.563,1.267C64.03,105.134,63.889,105.134,63.607,105.134Z" transform="translate(-31.917 41.728)"/>
    </g>
    <g id="그룹_1548" data-name="그룹 1548" transform="translate(691.917 1325.485)">
      <ellipse id="타원_38" data-name="타원 38" class="cls-12" cx="3.006" cy="2.892" rx="3.006" ry="2.892" transform="translate(0.066 3.346)"/>
      <path id="패스_5464" data-name="패스 5464" class="cls-12" d="M5.38,0S-.971,1.758.106,7.032l2.665-.624S1.41,2.042,5.38,0Z" transform="translate(0.017)"/>
    </g>
    <g id="그룹_1552" data-name="그룹 1552" transform="translate(929.8 1334.615) rotate(180)">
      <ellipse id="타원_38-2" data-name="타원 38" class="cls-12" cx="3.006" cy="2.892" rx="3.006" ry="2.892" transform="translate(0.066 3.346)"/>
      <path id="패스_5464-2" data-name="패스 5464" class="cls-12" d="M5.38,0S-.971,1.758.106,7.032l2.665-.624S1.41,2.042,5.38,0Z" transform="translate(0.017)"/>
    </g>
    <g id="그룹_1556" data-name="그룹 1556" transform="translate(698.723 1325.485)">
      <ellipse id="타원_38-3" data-name="타원 38" class="cls-12" cx="3.006" cy="2.892" rx="3.006" ry="2.892" transform="translate(0.066 3.346)"/>
      <path id="패스_5464-3" data-name="패스 5464" class="cls-12" d="M5.38,0S-.971,1.758.106,7.032l2.665-.624S1.41,2.042,5.38,0Z" transform="translate(0.017)"/>
    </g>
    <g id="그룹_1560" data-name="그룹 1560" transform="translate(922.995 1334.615) rotate(180)">
      <ellipse id="타원_38-4" data-name="타원 38" class="cls-12" cx="3.006" cy="2.892" rx="3.006" ry="2.892" transform="translate(0.066 3.346)"/>
      <path id="패스_5464-4" data-name="패스 5464" class="cls-12" d="M5.38,0S-.971,1.758.106,7.032l2.665-.624S1.41,2.042,5.38,0Z" transform="translate(0.017)"/>
    </g>
  </g>
</svg>
