<svg xmlns="http://www.w3.org/2000/svg" xmlns:xlink="http://www.w3.org/1999/xlink" viewBox="0 0 950.908 184.917">
  <defs>
    <style>
      .cls-1 {
        fill: url(#linear-gradient);
      }

      .cls-2, .cls-9 {
        fill: #fff;
      }

      .cls-3 {
        fill: #74c6be;
      }

      .cls-4 {
        fill: #bce2e3;
      }

      .cls-5 {
        fill: #727171;
      }

      .cls-6 {
        fill: #92aca9;
      }

      .cls-7 {
        fill: #e4f3fa;
      }

      .cls-8 {
        fill: #fcd68c;
      }

      .cls-9 {
        stroke: #707070;
      }

      .cls-10, .cls-12 {
        fill: none;
      }

      .cls-10 {
        stroke: #5ec2ac;
        stroke-linecap: round;
      }

      .cls-11 {
        stroke: none;
      }
    </style>
    <linearGradient id="linear-gradient" y1="0.485" x2="1" y2="0.5" gradientUnits="objectBoundingBox">
      <stop offset="0" stop-color="#95d7c8"/>
      <stop offset="1" stop-color="#29ae91"/>
    </linearGradient>
  </defs>
  <g id="그룹_1441" data-name="그룹 1441" transform="translate(-224.092 -620.225)">
    <rect id="사각형_211" data-name="사각형 211" class="cls-1" width="912.3" height="80.382" rx="40.191" transform="translate(262.7 698.93)"/>
    <rect id="사각형_212" data-name="사각형 212" class="cls-2" width="901.994" height="70.077" rx="35.038" transform="translate(267.853 704.083)"/>
    <g id="그룹_517" data-name="그룹 517" transform="translate(224.092 620.225)">
      <path id="패스_1974" data-name="패스 1974" class="cls-3" d="M111.587,21.8s-11.255,0-16.7,38.683c0,0-.373,4.994-4.845,4.248a2.768,2.768,0,0,0-2.981,2.236c-.6,2.907,2.981,3.652,5.143,3.652a8.5,8.5,0,0,0,1.938-.149c6.932-1.267,7.3-8.571,8.5-14.087,1.416-6.708,2.012-13.416,5.068-19.528,1.938-3.727,5.068-6.186,8.124-9.093Z" transform="translate(-69.968 -5.552)"/>
      <path id="패스_1975" data-name="패스 1975" class="cls-3" d="M115.119,173.121h0a1.456,1.456,0,0,1,2.012.447,6.877,6.877,0,0,1,.373.6l.3.447c.447.671.82,1.342,1.267,1.938.522.894,1.118,1.714,1.64,2.609.224.447.522.82.745,1.267.3.522.6.969.82,1.416l.149.3c.6.894,1.267,1.938,2.012,2.087a4.656,4.656,0,0,0,2.311-1.043l1.938-1.416a1.439,1.439,0,1,1,1.714,2.311l-2.012,1.416c-.969.671-2.609,1.863-4.472,1.565-1.938-.3-3.13-2.087-3.95-3.354l-.149-.3a17.84,17.84,0,0,1-.969-1.565c-.224-.373-.447-.745-.671-1.193-.522-.82-1.118-1.714-1.64-2.534-.447-.671-.82-1.342-1.267-2.012l-.224-.373-.447-.671a1.515,1.515,0,0,1,.522-1.938" transform="translate(-105.549 -44.029)"/>
      <path id="패스_1976" data-name="패스 1976" class="cls-3" d="M112.268,173.021a1.456,1.456,0,0,1,2.012.447l7.677,12.074a5.367,5.367,0,0,0,1.342,1.491,5.225,5.225,0,0,0,5.59.149l3.5-2.236a1.458,1.458,0,1,1,1.565,2.46l-3.5,2.236a8,8,0,0,1-8.869-.224,8.7,8.7,0,0,1-2.087-2.236l-7.677-12.074a1.53,1.53,0,0,1,.447-2.087" transform="translate(-107.094 -44.004)"/>
      <path id="패스_1977" data-name="패스 1977" class="cls-3" d="M110.889,173.021a1.456,1.456,0,0,1,2.012.447l9.317,14.683a8.722,8.722,0,0,0,11.4,2.46l2.907-1.863a1.458,1.458,0,0,1,1.565,2.46l-2.981,1.863-.075.075a11.73,11.73,0,0,1-15.2-3.354l-.075-.075-9.391-14.683a1.511,1.511,0,0,1,.522-2.012" transform="translate(-110.188 -44.004)"/>
      <path id="패스_1978" data-name="패스 1978" class="cls-4" d="M66.452,120.669s1.714,18.112-11.925,31.975l-2.683,22.882H46.552l-3.429-21.316-9.019-.3-5.068,23.627H24.192l-3.279-27.2s-10.36-4.025-7.155-24.372l6.41-61.117s4.4-37.714,13.64-41.44c0,0-11.105-10.509-2.683-23.4A24.46,24.46,0,0,1,42.229,15.279s.894.447,8.273.075h2.385s2.087-8.348,12.372-12.3c0,0,3.354,9.317-4.1,18.484.224-.3,9.54,7.6,9.838,7.826C79.645,36.67,83.67,42.484,89.558,51.2a7.692,7.692,0,0,1,1.118,6.857c-.522,2.385-3.429,5.515-5.217,7.006a12.2,12.2,0,0,1-8.5,3.429C71,68.421,64.067,67.751,58.7,65.142c.224.149,0,.224.745,4.7Z" transform="translate(9.896 0)"/>
      <path id="패스_1979" data-name="패스 1979" class="cls-5" d="M22.785,100.224,20.4,104.472l5.292,4.994,1.863-7.006s-2.534-2.161-4.7-2.46Z" transform="translate(67.949 -25.467)"/>
      <path id="패스_1980" data-name="패스 1980" class="cls-5" d="M100.707,245.171H89.9l1.118-8.348,5.217-.224Z" transform="translate(-57.002 -60.255)"/>
      <path id="패스_1981" data-name="패스 1981" class="cls-5" d="M67.159,235.475l3.8,6.783s-6.857,0-10.36-.373l1.267-6.484h5.292Z" transform="translate(-5.417 -59.949)"/>
      <path id="패스_1982" data-name="패스 1982" class="cls-2" d="M72.8,224l1.416,8.571v.075h0L72.8,224h0" transform="translate(-17.766 -57.046)"/>
      <path id="패스_1983" data-name="패스 1983" class="cls-2" d="M66.609,221.9h.224a1.7,1.7,0,0,1,.82.224l.671.447a3.479,3.479,0,0,0,.745.373,2.063,2.063,0,0,0,.671.075,3.037,3.037,0,0,0,1.342-.373c.224-.149.373-.3.6-.447a.336.336,0,0,0,.224-.224l-1.193,9.987H65.416L64,223.391c0-.075.149-.224.149-.224.075-.075.149-.149.149-.224.149-.149.224-.3.373-.373a2.367,2.367,0,0,1,1.491-.6c.149,0,.3-.075.447-.075" transform="translate(-8.892 -56.511)"/>
      <path id="패스_1984" data-name="패스 1984" class="cls-6" d="M70.992,235.5Z" transform="translate(-9.25 -59.974)"/>
      <path id="패스_1985" data-name="패스 1985" class="cls-2" d="M95.187,223.6,93.1,233.364h0l2.087-9.615V223.6" transform="translate(-53.866 -56.944)"/>
      <path id="패스_1986" data-name="패스 1986" class="cls-2" d="M93.722,221.9c.373,0,.671.522.671.522.373.894.82,1.118,1.193,1.118a1.309,1.309,0,0,0,.894-.447,1.432,1.432,0,0,1,1.193-.894,2.263,2.263,0,0,1,1.491.894,1.578,1.578,0,0,0,1.342.745,2.007,2.007,0,0,0,1.267-.6l-2.087,9.615h0l-3.2.149-1.938.075L93.2,222.347c.149-.373.373-.447.522-.447" transform="translate(-60.525 -56.511)"/>
      <path id="패스_1987" data-name="패스 1987" class="cls-6" d="M99.1,236.6h0l-3.2.149Z" transform="translate(-59.871 -60.255)"/>
      <path id="패스_1988" data-name="패스 1988" class="cls-2" d="M54.724,7.6s1.043,8.5-3.429,13.043a2.167,2.167,0,0,1-1.491.894c-2.236,0,.149-10.584,4.919-13.938" transform="translate(19.39 -1.935)"/>
      <path id="패스_1989" data-name="패스 1989" class="cls-2" d="M88.027,4.5c4.919,4.77,5.963,16.844,3.5,16.844-.447,0-1.043-.447-1.714-1.416C84.747,12.922,88.027,4.5,88.027,4.5" transform="translate(-46.93 -1.146)"/>
      <path id="패스_1990" data-name="패스 1990" class="cls-7" d="M36.7,59.6l.149.149s-.075,0-.149-.149Z" transform="translate(46.507 -15.178)"/>
      <path id="패스_1991" data-name="패스 1991" class="cls-3" d="M18.884,75.236l-.075-.373a.783.783,0,0,0-.373-.671.9.9,0,0,0-.745-.224h-.075a1.069,1.069,0,0,0-.969,1.118v.075l.075.373a.527.527,0,1,1-1.043.149l-.075-.373h0v-.149A2.01,2.01,0,0,1,17.468,73h.149a2.278,2.278,0,0,1,1.491.522,2.42,2.42,0,0,1,.745,1.342l.075.373a.567.567,0,0,1-.447.6c-.373-.075-.6-.3-.6-.6" transform="translate(79.154 -18.591)"/>
      <path id="패스_1992" data-name="패스 1992" class="cls-3" d="M26.631,78.106l-.224-.3a1.159,1.159,0,0,0-.6-.447.882.882,0,0,0-.745.075h-.075a1.065,1.065,0,0,0-.373,1.416v.075l.224.3a.537.537,0,1,1-.894.6l-.224-.3h0l-.075-.075A2.059,2.059,0,0,1,24.4,76.69l.149-.075a1.907,1.907,0,0,1,1.565-.149,2.222,2.222,0,0,1,1.267.894l.224.3a.578.578,0,0,1-.149.745,1.018,1.018,0,0,1-.82-.3" transform="translate(64.165 -19.449)"/>
      <path id="패스_1993" data-name="패스 1993" class="cls-2" d="M51.675,162.7h0c.3,0,.447.224.447.522a1.077,1.077,0,0,1-.149.522l-.224.447a.569.569,0,0,1-.373.149.448.448,0,0,1-.3-.075.394.394,0,0,1-.075-.6h0c0-.075.075-.149.149-.224a.448.448,0,0,0,.075-.3.43.43,0,0,1,.447-.447" transform="translate(20.65 -41.435)"/>
      <path id="패스_1994" data-name="패스 1994" class="cls-2" d="M50.775,155.9h0c.3,0,.447.224.447.522a1.077,1.077,0,0,1-.149.522l-.224.447a.569.569,0,0,1-.373.149.448.448,0,0,1-.3-.075.394.394,0,0,1-.075-.6c.075-.075.075-.149.149-.224a.448.448,0,0,0,.075-.3.43.43,0,0,1,.447-.447" transform="translate(22.221 -39.703)"/>
      <path id="패스_1995" data-name="패스 1995" class="cls-2" d="M56.549,177h0c.3,0,.447.224.447.522a1.077,1.077,0,0,1-.149.522,1.559,1.559,0,0,1-.3.447.569.569,0,0,1-.373.149.448.448,0,0,1-.3-.075.394.394,0,0,1-.075-.6c0-.075.075-.149.149-.224a.448.448,0,0,0,.075-.3.544.544,0,0,1,.522-.447" transform="translate(12.198 -45.076)"/>
      <path id="패스_1996" data-name="패스 1996" class="cls-2" d="M59.375,182.1h0c.3,0,.447.224.447.522a1.077,1.077,0,0,1-.149.522l-.224.447a.569.569,0,0,1-.373.149.448.448,0,0,1-.3-.075.394.394,0,0,1-.075-.6c.075-.075.075-.149.149-.224a.448.448,0,0,0,.075-.3q.112-.447.447-.447" transform="translate(7.212 -46.375)"/>
      <path id="패스_1997" data-name="패스 1997" class="cls-2" d="M56.675,185.9h0c.3,0,.447.224.447.522a1.077,1.077,0,0,1-.149.522l-.224.447a.569.569,0,0,1-.373.149.448.448,0,0,1-.3-.075.394.394,0,0,1-.075-.6c0-.075.075-.149.149-.224a.448.448,0,0,0,.075-.3.43.43,0,0,1,.447-.447" transform="translate(11.924 -47.343)"/>
      <path id="패스_1998" data-name="패스 1998" class="cls-2" d="M54.375,181.1h0c.3,0,.447.224.447.522a1.077,1.077,0,0,1-.149.522l-.224.447a.569.569,0,0,1-.373.149.448.448,0,0,1-.3-.075.394.394,0,0,1-.075-.6c0-.075.075-.149.149-.224a.448.448,0,0,0,.075-.3.43.43,0,0,1,.447-.447" transform="translate(15.938 -46.12)"/>
      <path id="패스_1999" data-name="패스 1999" class="cls-2" d="M59.175,174.3h0c.3,0,.447.224.447.522a1.077,1.077,0,0,1-.149.522l-.224.447a.569.569,0,0,1-.373.149.448.448,0,0,1-.3-.075.394.394,0,0,1-.075-.6c0-.075.075-.149.149-.224a.448.448,0,0,0,.075-.3q.112-.447.447-.447" transform="translate(7.561 -44.389)"/>
      <path id="패스_2000" data-name="패스 2000" class="cls-2" d="M51.075,173.8h0c.3,0,.447.224.447.522a1.382,1.382,0,0,1-.149.522l-.224.447a.569.569,0,0,1-.373.149.448.448,0,0,1-.3-.075.394.394,0,0,1-.075-.6c0-.075.075-.149.149-.224a.448.448,0,0,0,.075-.3q.112-.447.447-.447" transform="translate(21.698 -44.261)"/>
      <path id="패스_2001" data-name="패스 2001" class="cls-2" d="M51.275,167.9h0c.3,0,.447.224.447.522a1.382,1.382,0,0,1-.149.522l-.224.447a.569.569,0,0,1-.373.149.448.448,0,0,1-.3-.075.394.394,0,0,1-.075-.6c0-.075.075-.149.149-.224a.448.448,0,0,0,.075-.3q.112-.447.447-.447" transform="translate(21.349 -42.759)"/>
      <path id="패스_2002" data-name="패스 2002" class="cls-2" d="M55.175,159.7h0c.3,0,.447.224.447.522a1.077,1.077,0,0,1-.149.522l-.224.447a.569.569,0,0,1-.373.149.448.448,0,0,1-.3-.075.394.394,0,0,1-.075-.6c0-.075.075-.149.149-.224a.448.448,0,0,0,.075-.3q.112-.447.447-.447" transform="translate(14.542 -40.671)"/>
      <path id="패스_2003" data-name="패스 2003" class="cls-2" d="M55.175,171.1h0c.3,0,.447.224.447.522a1.077,1.077,0,0,1-.149.522l-.224.447a.569.569,0,0,1-.373.149.448.448,0,0,1-.3-.075.394.394,0,0,1-.075-.6c0-.075.075-.149.149-.224a.448.448,0,0,0,.075-.3q.112-.447.447-.447" transform="translate(14.542 -43.574)"/>
      <path id="패스_2004" data-name="패스 2004" class="cls-2" d="M100.338,195.7a.472.472,0,0,1,.447.373.563.563,0,0,0,.075.3c.075.075.075.224.149.224a.451.451,0,0,1-.075.6c-.075.075-.149.075-.3.075s-.224-.075-.373-.149l-.224-.447a1.077,1.077,0,0,1-.149-.522.43.43,0,0,1,.447-.447h0" transform="translate(-64.831 -49.839)"/>
      <path id="패스_2005" data-name="패스 2005" class="cls-2" d="M98.538,191a.472.472,0,0,1,.447.373c0,.075.075.149.075.3.075.075.075.224.149.3a.451.451,0,0,1-.075.6c-.075.075-.149.075-.3.075s-.224-.075-.373-.149l-.224-.447a1.077,1.077,0,0,1-.149-.522.544.544,0,0,1,.447-.522h0" transform="translate(-61.69 -48.642)"/>
      <path id="패스_2006" data-name="패스 2006" class="cls-2" d="M108.022,186.4a.472.472,0,0,1,.447.373c0,.075.075.149.075.3.075.075.075.224.149.224a.388.388,0,0,1-.074.6c-.075.075-.149.075-.3.075s-.224-.075-.373-.149l-.224-.447a1.077,1.077,0,0,1-.149-.522c-.075-.224.149-.447.447-.447h0" transform="translate(-78.254 -47.47)"/>
      <path id="패스_2007" data-name="패스 2007" class="cls-2" d="M104.808,192.4a.472.472,0,0,1,.447.373c0,.075.075.149.075.3.075.075.075.224.149.224a.388.388,0,0,1-.075.6c-.075.074-.149.074-.3.074s-.224-.074-.373-.149l-.224-.447a1.077,1.077,0,0,1-.149-.522.541.541,0,0,1,.447-.447h0" transform="translate(-72.655 -48.998)"/>
      <path id="패스_2008" data-name="패스 2008" class="cls-2" d="M103.708,188.7a.472.472,0,0,1,.447.373c0,.075.075.149.075.3.075.075.075.224.149.224a.388.388,0,0,1-.075.6c-.075.075-.149.075-.3.075s-.224-.075-.373-.149l-.224-.447a1.077,1.077,0,0,1-.149-.522.43.43,0,0,1,.447-.447h0" transform="translate(-70.735 -48.056)"/>
      <path id="패스_2009" data-name="패스 2009" class="cls-2" d="M108.838,191a.472.472,0,0,1,.447.373c0,.075.075.149.075.3.075.075.075.224.149.3a.451.451,0,0,1-.075.6c-.075.075-.149.075-.3.075s-.224-.075-.373-.149h0l-.224-.447a1.077,1.077,0,0,1-.149-.522.545.545,0,0,1,.447-.522h0" transform="translate(-79.666 -48.642)"/>
      <path id="패스_2010" data-name="패스 2010" class="cls-2" d="M103.222,198a.472.472,0,0,1,.447.373c0,.075.075.149.075.3.075.075.075.224.149.224a.388.388,0,0,1-.075.6c-.075.075-.149.075-.3.075s-.224-.075-.373-.149l-.224-.447a1.078,1.078,0,0,1-.149-.522c-.075-.224.149-.447.447-.447h0" transform="translate(-69.877 -50.424)"/>
      <path id="패스_2011" data-name="패스 2011" class="cls-2" d="M104.059,99.7c.075,0,.149,0,.149.075a.469.469,0,0,1,.224.6c-.075.075-.075.373-.075.522v.075a.56.56,0,0,1-.373.522h-.075a.472.472,0,0,1-.447-.373v-.149a2.679,2.679,0,0,1,.149-.82c.149-.373.3-.447.447-.447" transform="translate(-70.862 -25.39)"/>
      <path id="패스_2012" data-name="패스 2012" class="cls-2" d="M97.659,86.7c.075,0,.149,0,.149.075a.469.469,0,0,1,.224.6c-.075.075-.075.373-.075.522v.075a.56.56,0,0,1-.373.522H97.51a.472.472,0,0,1-.447-.373v-.224a2.68,2.68,0,0,1,.149-.82c.149-.3.3-.373.447-.373" transform="translate(-59.692 -22.08)"/>
      <path id="패스_2013" data-name="패스 2013" class="cls-2" d="M103.759,86.7h.149a.469.469,0,0,1,.224.6c-.075.075-.075.373-.075.522v.075a.56.56,0,0,1-.373.522h-.075a.472.472,0,0,1-.447-.373v-.149a2.679,2.679,0,0,1,.149-.82c.149-.224.3-.373.447-.373" transform="translate(-70.339 -22.08)"/>
      <path id="패스_2014" data-name="패스 2014" class="cls-2" d="M96.159,81c.075,0,.149,0,.149.075a.469.469,0,0,1,.224.6c0,.075-.075.149-.075.224v.373a.56.56,0,0,1-.373.522H96.01a.472.472,0,0,1-.447-.373v-.224a.945.945,0,0,1,.075-.447.569.569,0,0,1,.149-.373c.075-.3.224-.373.373-.373" transform="translate(-57.074 -20.628)"/>
      <path id="패스_2015" data-name="패스 2015" class="cls-2" d="M101.759,73.9h.149a.469.469,0,0,1,.224.6c-.075.075-.075.373-.075.522v.075a.56.56,0,0,1-.373.522h-.075a.472.472,0,0,1-.447-.373v-.149a2.679,2.679,0,0,1,.149-.82.451.451,0,0,1,.447-.373" transform="translate(-66.848 -18.82)"/>
      <path id="패스_2016" data-name="패스 2016" class="cls-2" d="M100.659,83.2h.149a.469.469,0,0,1,.224.6c-.075.075-.075.373-.075.522v.075a.56.56,0,0,1-.373.522h-.075a.472.472,0,0,1-.447-.373v-.149a2.679,2.679,0,0,1,.149-.82c.075-.3.224-.373.447-.373" transform="translate(-64.928 -21.188)"/>
      <path id="패스_2017" data-name="패스 2017" class="cls-2" d="M98.859,69.4c.075,0,.149,0,.149.075a.469.469,0,0,1,.224.6c-.075.075-.075.373-.075.522v.075a.56.56,0,0,1-.373.522H98.71a.472.472,0,0,1-.447-.373v-.149a3.741,3.741,0,0,1,.149-.894.472.472,0,0,1,.447-.373" transform="translate(-61.787 -17.674)"/>
      <path id="패스_2018" data-name="패스 2018" class="cls-2" d="M97.359,74.9c.075,0,.149,0,.149.075a.469.469,0,0,1,.224.6c-.075.075-.075.373-.075.522v.075a.561.561,0,0,1-.373.522H97.21a.472.472,0,0,1-.447-.373v-.224a2.679,2.679,0,0,1,.149-.82.472.472,0,0,1,.447-.373" transform="translate(-59.169 -19.075)"/>
      <path id="패스_2019" data-name="패스 2019" class="cls-2" d="M100.259,78c.075,0,.149,0,.149.075a.469.469,0,0,1,.224.6c0,.075-.075.149-.075.224v.373a.56.56,0,0,1-.373.522h-.075a.472.472,0,0,1-.447-.373v-.149a.945.945,0,0,1,.075-.447.569.569,0,0,1,.149-.373c.075-.373.224-.447.373-.447" transform="translate(-64.23 -19.864)"/>
      <path id="패스_2020" data-name="패스 2020" class="cls-2" d="M102.159,91h.149a.469.469,0,0,1,.224.6c-.075.075-.075.373-.075.522v.075a.56.56,0,0,1-.373.522h-.075a.472.472,0,0,1-.447-.373v-.149a2.679,2.679,0,0,1,.149-.82c.149-.224.3-.373.447-.373" transform="translate(-67.546 -23.175)"/>
      <path id="패스_2021" data-name="패스 2021" class="cls-2" d="M100.459,96.7h.149a.469.469,0,0,1,.224.6c-.075.075-.075.373-.075.522v.075a.56.56,0,0,1-.373.522h-.075a.472.472,0,0,1-.447-.373v-.149a2.68,2.68,0,0,1,.149-.82.472.472,0,0,1,.447-.373" transform="translate(-64.579 -24.626)"/>
      <path id="패스_2022" data-name="패스 2022" class="cls-2" d="M104.359,94.8c.075,0,.149,0,.149.075a.469.469,0,0,1,.224.6h0c-.075.075-.075.373-.075.522v.075a.561.561,0,0,1-.373.522h-.075a.472.472,0,0,1-.447-.373v-.224a2.678,2.678,0,0,1,.149-.82c.075-.3.224-.373.447-.373" transform="translate(-71.386 -24.143)"/>
      <path id="패스_2023" data-name="패스 2023" class="cls-2" d="M97.459,92.7c.075,0,.149,0,.149.075a.469.469,0,0,1,.224.6c-.075,0-.075.3-.075.447v.075a.56.56,0,0,1-.373.522H97.31a.472.472,0,0,1-.447-.373v-.224a2.679,2.679,0,0,1,.149-.82.464.464,0,0,1,.447-.3" transform="translate(-59.343 -23.608)"/>
      <path id="패스_2024" data-name="패스 2024" class="cls-4" d="M41.41,106S34.18,118.373,23,111.143l1.565,12.3s15.279,6.633,22.062-12.373Z" transform="translate(46.94 -26.995)"/>
      <path id="패스_2025" data-name="패스 2025" class="cls-2" d="M30,106" transform="translate(58.349 -26.995)"/>
      <path id="패스_2026" data-name="패스 2026" class="cls-2" d="M28.341,106h0m0,0,0,0h0m0,0a18.925,18.925,0,0,1-5.441,5.515h0A18.925,18.925,0,0,0,28.341,106m5.292,4.994a25.736,25.736,0,0,1-4.77,8.5h0a26.534,26.534,0,0,0,4.77-8.5" transform="translate(60.008 -26.995)"/>
      <path id="패스_2027" data-name="패스 2027" class="cls-2" d="M28.266,106h0l5.292,4.994a25.736,25.736,0,0,1-4.77,8.5l-1.267-.745c-1.267-.745-1.565-3.2-1.565-3.2a3.649,3.649,0,0,0-3.056-3.876A20.938,20.938,0,0,0,28.266,106Z" transform="translate(60.083 -26.995)"/>
      <path id="패스_2028" data-name="패스 2028" class="cls-5" d="M39.885,105.824,37.5,110.072l5.292,4.994,1.863-7.006s-2.534-2.161-4.7-2.46Z" transform="translate(38.104 -26.893)"/>
      <path id="패스_2029" data-name="패스 2029" class="cls-4" d="M58.61,111.6s-7.23,12.373-18.41,5.143l1.565,12.3s15.279,6.633,22.062-12.373Z" transform="translate(16.92 -28.421)"/>
      <path id="패스_2030" data-name="패스 2030" class="cls-2" d="M49.212,111.6m0,0h0m0,0h0m0,0Zm0,0a15,15,0,0,1-2.012,2.683,13.682,13.682,0,0,0,2.012-2.683" transform="translate(26.318 -28.421)"/>
      <path id="패스_2031" data-name="패스 2031" class="cls-7" d="M42.112,115.2h0a24.76,24.76,0,0,1-2.012,1.863,12.372,12.372,0,0,0,2.012-1.863M40.1,117.063h0m0,0h0m0,.075h0m9.317.373a25.736,25.736,0,0,1-4.77,8.5h0a26.534,26.534,0,0,0,4.77-8.5" transform="translate(31.405 -29.338)"/>
      <path id="패스_2032" data-name="패스 2032" class="cls-2" d="M45.466,111.6h0l5.292,4.994a25.736,25.736,0,0,1-4.77,8.5l-1.267-.745c-1.267-.745-1.565-3.2-1.565-3.2a3.7,3.7,0,0,0-3.056-3.876,15.117,15.117,0,0,0,1.342-.969h0a24.759,24.759,0,0,0,2.012-1.863,17.337,17.337,0,0,0,2.012-2.832Z" transform="translate(30.064 -28.421)"/>
      <path id="패스_2033" data-name="패스 2033" class="cls-2" d="M35.5,43.3c6.261,5.366,10.435,6.112,10.435,6.112-.894,3.429,2.832,6.932,3.876,7.975l.3.3C43.7,52.244,39,52.02,39,52.02c2.311-3.429-3.5-8.72-3.5-8.72" transform="translate(34.142 -11.027)"/>
      <path id="패스_2034" data-name="패스 2034" class="cls-5" d="M40.5,44.613a1.714,1.714,0,1,0,3.429,0A1.734,1.734,0,0,0,42.214,42.9,1.686,1.686,0,0,0,40.5,44.613" transform="translate(36.595 -10.924)"/>
      <path id="패스_2035" data-name="패스 2035" class="cls-5" d="M57.2,53.238A1.938,1.938,0,1,0,59.138,51.3,1.973,1.973,0,0,0,57.2,53.238" transform="translate(7.001 -13.064)"/>
      <path id="패스_2036" data-name="패스 2036" class="cls-5" d="M45.8,40.722a2.426,2.426,0,0,1,.224.969,1.877,1.877,0,0,1-.373,1.193A3.163,3.163,0,0,1,44.231,44a.6.6,0,0,1-.671-.224.512.512,0,0,1,.224-.671,2.166,2.166,0,0,0,.969-.745,1.2,1.2,0,0,0,.224-.671.558.558,0,0,0-.075-.373v-.075h0l.224-.075-.224.149h0l.224-.075-.224.149a.512.512,0,0,1,.224-.671c.3-.373.6-.224.671,0" transform="translate(32.268 -10.313)"/>
      <path id="패스_2037" data-name="패스 2037" class="cls-5" d="M58.768,49.923l-.224.149.224-.149h0l-.224.149.224-.149h0l.3.3a1.113,1.113,0,0,0,.745.224A1.974,1.974,0,0,0,61,50a.486.486,0,0,1,.522.82,3.175,3.175,0,0,1-1.789.6,2.455,2.455,0,0,1-1.416-.447,1.11,1.11,0,0,1-.447-.522.485.485,0,0,1,.149-.671.56.56,0,0,1,.745.149" transform="translate(5.881 -12.656)"/>
      <path id="패스_2038" data-name="패스 2038" class="cls-3" d="M5.462,68.92a4.069,4.069,0,0,1,.671.969,5.365,5.365,0,0,1,.671,2.46,4.136,4.136,0,0,1-.6,2.161.691.691,0,0,1-.894.224.691.691,0,0,1-.224-.894,3.089,3.089,0,0,0,.447-1.491,3.374,3.374,0,0,0-.522-1.789,6.877,6.877,0,0,1-.373-.6c-.075-.075-.075-.149-.149-.149h0l.149-.149-.075.075h0l.075-.075-.075.075a.68.68,0,0,1,0-.894.609.609,0,0,1,.894.075" transform="translate(100.625 -17.492)"/>
      <path id="패스_2039" data-name="패스 2039" class="cls-3" d="M1.137,66.543A10.6,10.6,0,0,1,2.18,68.033a7.908,7.908,0,0,1,1.043,3.8,6.672,6.672,0,0,1-.894,3.354.691.691,0,0,1-.894.224.69.69,0,0,1-.224-.894,5.641,5.641,0,0,0,.745-2.683,6.463,6.463,0,0,0-.894-3.13c-.224-.373-.447-.745-.6-.969q-.224-.112-.224-.224l-.075-.075h0l.149-.149-.149.149h0l.149-.149-.149.149a.68.68,0,0,1,0-.894.784.784,0,0,1,.969,0" transform="translate(107.485 -16.904)"/>
      <path id="패스_2040" data-name="패스 2040" class="cls-8" d="M16.114,24.3s.745,8.571,6.335,8.646c0,0-4.323-.3-6.335,6.932,0,0-.969-6.261-5.814-6.857,0-.075,7.006-.224,5.814-8.72" transform="translate(80.583 -6.188)"/>
      <path id="패스_2041" data-name="패스 2041" class="cls-3" d="M71.191,34.428a1.415,1.415,0,0,0,1.416-1.416v-.894c-.149-3.13-1.118-5.217-5.292-5.217h-4.1a1.416,1.416,0,1,0,0,2.832h4.1c1.938,0,2.311.224,2.46,2.534v.745a1.415,1.415,0,0,0,1.416,1.416" transform="translate(-7.959 -6.851)"/>
      <path id="패스_2042" data-name="패스 2042" class="cls-3" d="M71.9,31.713A1.415,1.415,0,0,0,73.321,30.3V29.4c-.3-4.621-3.2-7.453-7.751-7.6H58.116a1.416,1.416,0,0,0,0,2.832h7.379c3.8.075,4.845,2.758,4.994,4.919V30.3A1.465,1.465,0,0,0,71.9,31.713" transform="translate(-4.871 -5.552)"/>
      <path id="패스_2043" data-name="패스 2043" class="cls-3" d="M72.942,28.9a1.415,1.415,0,0,0,1.416-1.416v-.373A10.227,10.227,0,0,0,64.147,16.9H53.116A1.415,1.415,0,0,0,51.7,18.316a1.37,1.37,0,0,0,1.416,1.416H64.072a7.475,7.475,0,0,1,7.453,7.453v.373A1.354,1.354,0,0,0,72.942,28.9" transform="translate(-2.182 -4.304)"/>
    </g>
    <g id="그룹_521" data-name="그룹 521" transform="translate(491.825 736)">
      <g id="그룹_519" data-name="그룹 519" transform="translate(10.69 0) rotate(45)">
        <g id="사각형_218" data-name="사각형 218" class="cls-9" transform="translate(0 0)">
          <rect class="cls-11" width="7.239" height="2.068" rx="1"/>
          <rect class="cls-12" x="0.5" y="0.5" width="6.239" height="1.068" rx="0.5"/>
        </g>
        <g id="사각형_219" data-name="사각형 219" class="cls-9" transform="translate(5.171 7.239) rotate(-90)">
          <rect class="cls-11" width="7.239" height="2.068" rx="1"/>
          <rect class="cls-12" x="0.5" y="0.5" width="6.239" height="1.068" rx="0.5"/>
        </g>
      </g>
      <g id="그룹_520" data-name="그룹 520" transform="translate(5.119 0) rotate(45)">
        <g id="사각형_218-2" data-name="사각형 218" class="cls-9" transform="translate(0 0)">
          <rect class="cls-11" width="7.239" height="2.068" rx="1"/>
          <rect class="cls-12" x="0.5" y="0.5" width="6.239" height="1.068" rx="0.5"/>
        </g>
        <g id="사각형_219-2" data-name="사각형 219" class="cls-9" transform="translate(5.171 7.239) rotate(-90)">
          <rect class="cls-11" width="7.239" height="2.068" rx="1"/>
          <rect class="cls-12" x="0.5" y="0.5" width="6.239" height="1.068" rx="0.5"/>
        </g>
      </g>
    </g>
    <line id="선_132" data-name="선 132" class="cls-10" y2="31" transform="translate(427.5 724.5)"/>
  </g>
</svg>
