<svg xmlns="http://www.w3.org/2000/svg" xmlns:xlink="http://www.w3.org/1999/xlink" viewBox="0 0 162.493 131.877">
  <defs>
    <style>
      .cls-1 {
        fill: url(#linear-gradient);
      }

      .cls-2 {
        fill: #fff;
      }

      .cls-3 {
        fill: #74c6be;
      }

      .cls-4 {
        fill: #bce2e3;
      }

      .cls-5 {
        fill: #727171;
      }

      .cls-6 {
        fill: #92aca9;
      }

      .cls-7 {
        fill: #e4f3fa;
      }

      .cls-8 {
        fill: #fcd68c;
      }
    </style>
    <linearGradient id="linear-gradient" y1="0.485" x2="1" y2="0.5" gradientUnits="objectBoundingBox">
      <stop offset="0" stop-color="#95d7c8"/>
      <stop offset="1" stop-color="#29ae91"/>
    </linearGradient>
  </defs>
  <g id="그룹_1268" data-name="그룹 1268" transform="translate(-67.411 -691.174)">
    <rect id="사각형_230" data-name="사각형 230" class="cls-1" width="143.371" height="67.52" rx="33.76" transform="translate(86.533 741.383)"/>
    <rect id="사각형_231" data-name="사각형 231" class="cls-2" width="132.614" height="56.764" rx="28.382" transform="translate(91.911 746.761)"/>
    <g id="그룹_580" data-name="그룹 580" transform="translate(67.411 691.174)">
      <path id="패스_1974" data-name="패스 1974" class="cls-3" d="M104.535,21.8s-8.026,0-11.907,27.587c0,0-.266,3.561-3.455,3.03a1.974,1.974,0,0,0-2.126,1.595c-.425,2.073,2.126,2.6,3.668,2.6A6.062,6.062,0,0,0,92.1,56.51c4.943-.9,5.209-6.113,6.06-10.046,1.01-4.784,1.435-9.568,3.614-13.927,1.382-2.658,3.615-4.412,5.794-6.485Z" transform="translate(-74.854 -10.212)"/>
      <path id="패스_1975" data-name="패스 1975" class="cls-3" d="M114.928,173.054h0a1.039,1.039,0,0,1,1.435.319,4.907,4.907,0,0,1,.266.425l.213.319c.319.478.585.957.9,1.382.372.638.8,1.223,1.169,1.86.159.319.372.585.532.9.213.372.425.691.585,1.01l.106.213c.425.638.9,1.382,1.435,1.488a3.32,3.32,0,0,0,1.648-.744l1.382-1.01a1.026,1.026,0,0,1,1.223,1.648l-1.435,1.01a4.544,4.544,0,0,1-3.189,1.116c-1.382-.213-2.232-1.488-2.817-2.392l-.106-.213a12.719,12.719,0,0,1-.691-1.116c-.159-.266-.319-.532-.478-.85-.372-.585-.8-1.223-1.169-1.807-.319-.478-.585-.957-.9-1.435l-.159-.266-.319-.478a1.08,1.08,0,0,1,.372-1.382" transform="translate(-108.102 -80.99)"/>
      <path id="패스_1976" data-name="패스 1976" class="cls-3" d="M112.073,172.954a1.039,1.039,0,0,1,1.435.319l5.475,8.611a3.828,3.828,0,0,0,.957,1.063,3.726,3.726,0,0,0,3.987.106l2.5-1.595a1.04,1.04,0,1,1,1.116,1.754l-2.5,1.595a5.705,5.705,0,0,1-6.325-.159,6.2,6.2,0,0,1-1.488-1.595l-5.475-8.611a1.091,1.091,0,0,1,.319-1.488" transform="translate(-108.383 -80.943)"/>
      <path id="패스_1977" data-name="패스 1977" class="cls-3" d="M110.688,172.954a1.039,1.039,0,0,1,1.435.319l6.644,10.471A6.221,6.221,0,0,0,126.9,185.5l2.073-1.329a1.04,1.04,0,0,1,1.116,1.754l-2.126,1.329-.053.053a8.366,8.366,0,0,1-10.844-2.392l-.053-.053-6.7-10.471a1.078,1.078,0,0,1,.372-1.435" transform="translate(-110.188 -80.943)"/>
      <path id="패스_1978" data-name="패스 1978" class="cls-4" d="M51.161,86.057s1.223,12.917-8.5,22.8l-1.914,16.318H36.969l-2.445-15.2-6.432-.213-3.615,16.85H21.023l-2.339-19.4s-7.388-2.87-5.1-17.382l4.571-43.587s3.136-26.9,9.727-29.554c0,0-7.92-7.495-1.914-16.691a17.444,17.444,0,0,1,7.92,10.9s.638.319,5.9.053h1.7S42.975,5,50.311,2.179a14.274,14.274,0,0,1-2.924,13.182c.159-.213,6.8,5.422,7.016,5.581C60.57,26.152,63.44,30.3,67.639,36.517a5.486,5.486,0,0,1,.8,4.89c-.372,1.7-2.445,3.933-3.721,5a8.7,8.7,0,0,1-6.06,2.445c-4.252-.053-9.2-.532-13.023-2.392.159.106,0,.159.532,3.349Z" transform="translate(3.288 0)"/>
      <path id="패스_1979" data-name="패스 1979" class="cls-5" d="M22.1,100.159l-1.7,3.03,3.774,3.561,1.329-5A8.4,8.4,0,0,0,22.154,100Z" transform="translate(42.607 -46.845)"/>
      <path id="패스_1980" data-name="패스 1980" class="cls-5" d="M97.607,242.713H89.9l.8-5.953,3.721-.159Z" transform="translate(-66.438 -110.836)"/>
      <path id="패스_1981" data-name="패스 1981" class="cls-5" d="M65.278,235.453l2.711,4.837s-4.89,0-7.388-.266l.9-4.624h3.774Z" transform="translate(-21.245 -110.274)"/>
      <path id="패스_1982" data-name="패스 1982" class="cls-2" d="M72.8,224l1.01,6.113v.053h0L72.8,224h0" transform="translate(-33.552 -104.934)"/>
      <path id="패스_1983" data-name="패스 1983" class="cls-2" d="M65.86,221.9h.159a1.212,1.212,0,0,1,.585.159l.478.319a2.481,2.481,0,0,0,.532.266,1.471,1.471,0,0,0,.478.053,2.166,2.166,0,0,0,.957-.266c.159-.106.266-.213.425-.319a.24.24,0,0,0,.159-.159l-.85,7.123H65.01L64,222.963c0-.053.106-.159.106-.159.053-.053.106-.106.106-.159.106-.106.159-.213.266-.266a1.688,1.688,0,0,1,1.063-.425c.106,0,.213-.053.319-.053" transform="translate(-24.698 -103.95)"/>
      <path id="패스_1984" data-name="패스 1984" class="cls-6" d="M69.474,235.5Z" transform="translate(-25.442 -110.321)"/>
      <path id="패스_1985" data-name="패스 1985" class="cls-2" d="M94.588,223.6,93.1,230.563h0l1.488-6.857V223.6" transform="translate(-65.12 -104.746)"/>
      <path id="패스_1986" data-name="패스 1986" class="cls-2" d="M93.572,221.9c.266,0,.478.372.478.372.266.638.585.8.85.8a.934.934,0,0,0,.638-.319,1.021,1.021,0,0,1,.85-.638,1.614,1.614,0,0,1,1.063.638,1.125,1.125,0,0,0,.957.532,1.432,1.432,0,0,0,.9-.425l-1.488,6.857h0l-2.286.106-1.382.053-.957-7.654c.106-.266.266-.319.372-.319" transform="translate(-69.897 -103.95)"/>
      <path id="패스_1987" data-name="패스 1987" class="cls-6" d="M98.186,236.6h0l-2.286.106Z" transform="translate(-70.206 -110.836)"/>
      <path id="패스_1988" data-name="패스 1988" class="cls-2" d="M53.07,7.6s.744,6.06-2.445,9.3a1.546,1.546,0,0,1-1.063.638c-1.595,0,.106-7.548,3.508-9.94" transform="translate(-0.214 -3.56)"/>
      <path id="패스_1989" data-name="패스 1989" class="cls-2" d="M87.728,4.5c3.508,3.4,4.252,12.013,2.5,12.013-.319,0-.744-.319-1.223-1.01-3.615-5-1.276-11-1.276-11" transform="translate(-58.419 -2.108)"/>
      <path id="패스_1990" data-name="패스 1990" class="cls-7" d="M36.7,59.6l.106.106s-.053,0-.106-.106Z" transform="translate(22.64 -27.92)"/>
      <path id="패스_1991" data-name="패스 1991" class="cls-3" d="M17.942,74.595l-.053-.266a.558.558,0,0,0-.266-.478.642.642,0,0,0-.532-.159h-.053a.763.763,0,0,0-.691.8v.053l.053.266a.376.376,0,0,1-.744.106l-.053-.266h0v-.106A1.434,1.434,0,0,1,16.932,73h.106a1.625,1.625,0,0,1,1.063.372,1.726,1.726,0,0,1,.532.957l.053.266a.4.4,0,0,1-.319.425c-.266-.053-.425-.213-.425-.425" transform="translate(51.975 -34.197)"/>
      <path id="패스_1992" data-name="패스 1992" class="cls-3" d="M25.7,77.608l-.159-.213a.826.826,0,0,0-.425-.319.629.629,0,0,0-.532.053h-.053a.759.759,0,0,0-.266,1.01v.053l.159.213a.383.383,0,1,1-.638.425l-.159-.213h0l-.053-.053a1.468,1.468,0,0,1,.532-1.967l.106-.053a1.36,1.36,0,0,1,1.116-.106,1.585,1.585,0,0,1,.9.638l.159.213a.412.412,0,0,1-.106.532.726.726,0,0,1-.585-.213" transform="translate(39.049 -35.775)"/>
      <path id="패스_1993" data-name="패스 1993" class="cls-2" d="M51.452,162.7h0c.213,0,.319.159.319.372a.768.768,0,0,1-.106.372l-.159.319a.406.406,0,0,1-.266.106.32.32,0,0,1-.213-.053.281.281,0,0,1-.053-.425h0c0-.053.053-.106.106-.159a.32.32,0,0,0,.053-.213.306.306,0,0,1,.319-.319" transform="translate(0.127 -76.217)"/>
      <path id="패스_1994" data-name="패스 1994" class="cls-2" d="M50.552,155.9h0c.213,0,.319.159.319.372a.768.768,0,0,1-.106.372l-.159.319a.406.406,0,0,1-.266.106.32.32,0,0,1-.213-.053.281.281,0,0,1-.053-.425c.053-.053.053-.106.106-.159a.32.32,0,0,0,.053-.213.306.306,0,0,1,.319-.319" transform="translate(1.506 -73.032)"/>
      <path id="패스_1995" data-name="패스 1995" class="cls-2" d="M56.306,177h0c.213,0,.319.159.319.372a.768.768,0,0,1-.106.372,1.112,1.112,0,0,1-.213.319.406.406,0,0,1-.266.106.32.32,0,0,1-.213-.053.281.281,0,0,1-.053-.425c0-.053.053-.106.106-.159a.32.32,0,0,0,.053-.213.388.388,0,0,1,.372-.319" transform="translate(-7.277 -82.916)"/>
      <path id="패스_1996" data-name="패스 1996" class="cls-2" d="M59.153,182.1h0c.213,0,.319.159.319.372a.768.768,0,0,1-.106.372l-.159.319a.406.406,0,0,1-.266.106.32.32,0,0,1-.213-.053.281.281,0,0,1-.053-.425c.053-.053.053-.106.106-.159a.32.32,0,0,0,.053-.213q.08-.319.319-.319" transform="translate(-11.665 -85.305)"/>
      <path id="패스_1997" data-name="패스 1997" class="cls-2" d="M56.452,185.9h0c.213,0,.319.159.319.372a.768.768,0,0,1-.106.372l-.159.319a.406.406,0,0,1-.266.106.32.32,0,0,1-.213-.053.281.281,0,0,1-.053-.425c0-.053.053-.106.106-.159a.32.32,0,0,0,.053-.213.306.306,0,0,1,.319-.319" transform="translate(-7.53 -87.086)"/>
      <path id="패스_1998" data-name="패스 1998" class="cls-2" d="M54.153,181.1h0c.213,0,.319.159.319.372a.768.768,0,0,1-.106.372l-.159.319a.406.406,0,0,1-.266.106.319.319,0,0,1-.213-.053.281.281,0,0,1-.053-.425c0-.053.053-.106.106-.159a.32.32,0,0,0,.053-.213.306.306,0,0,1,.319-.319" transform="translate(-4.008 -84.837)"/>
      <path id="패스_1999" data-name="패스 1999" class="cls-2" d="M58.952,174.3h0c.213,0,.319.159.319.372a.768.768,0,0,1-.106.372l-.159.319a.406.406,0,0,1-.266.106.319.319,0,0,1-.213-.053.281.281,0,0,1-.053-.425c0-.053.053-.106.106-.159a.32.32,0,0,0,.053-.213q.08-.319.319-.319" transform="translate(-11.359 -81.652)"/>
      <path id="패스_2000" data-name="패스 2000" class="cls-2" d="M50.853,173.8h0c.213,0,.319.159.319.372a.985.985,0,0,1-.106.372l-.159.319a.406.406,0,0,1-.266.106.32.32,0,0,1-.213-.053.281.281,0,0,1-.053-.425c0-.053.053-.106.106-.159a.32.32,0,0,0,.053-.213q.08-.319.319-.319" transform="translate(1.046 -81.417)"/>
      <path id="패스_2001" data-name="패스 2001" class="cls-2" d="M51.052,167.9h0c.213,0,.319.159.319.372a.985.985,0,0,1-.106.372l-.159.319a.406.406,0,0,1-.266.106.32.32,0,0,1-.213-.053.281.281,0,0,1-.053-.425c0-.053.053-.106.106-.159a.32.32,0,0,0,.053-.213q.08-.319.319-.319" transform="translate(0.74 -78.653)"/>
      <path id="패스_2002" data-name="패스 2002" class="cls-2" d="M54.952,159.7h0c.213,0,.319.159.319.372a.768.768,0,0,1-.106.372l-.159.319a.406.406,0,0,1-.266.106.32.32,0,0,1-.213-.053.281.281,0,0,1-.053-.425c0-.053.053-.106.106-.159a.32.32,0,0,0,.053-.213q.08-.319.319-.319" transform="translate(-5.233 -74.812)"/>
      <path id="패스_2003" data-name="패스 2003" class="cls-2" d="M54.952,171.1h0c.213,0,.319.159.319.372a.768.768,0,0,1-.106.372l-.159.319a.406.406,0,0,1-.266.106.32.32,0,0,1-.213-.053.281.281,0,0,1-.053-.425c0-.053.053-.106.106-.159a.32.32,0,0,0,.053-.213q.08-.319.319-.319" transform="translate(-5.233 -80.152)"/>
      <path id="패스_2004" data-name="패스 2004" class="cls-2" d="M100.21,195.7a.337.337,0,0,1,.319.266.4.4,0,0,0,.053.213c.053.053.053.159.106.159a.322.322,0,0,1-.053.425c-.053.053-.106.053-.213.053s-.159-.053-.266-.106l-.159-.319a.768.768,0,0,1-.106-.372.306.306,0,0,1,.319-.319h0" transform="translate(-74.888 -91.676)"/>
      <path id="패스_2005" data-name="패스 2005" class="cls-2" d="M98.41,191a.337.337,0,0,1,.319.266c0,.053.053.106.053.213.053.053.053.159.106.213a.322.322,0,0,1-.053.425c-.053.053-.106.053-.213.053s-.159-.053-.266-.106l-.159-.319a.768.768,0,0,1-.106-.372A.388.388,0,0,1,98.41,191h0" transform="translate(-72.131 -89.475)"/>
      <path id="패스_2006" data-name="패스 2006" class="cls-2" d="M107.89,186.4a.337.337,0,0,1,.319.266c0,.053.053.106.053.213.053.053.053.159.106.159a.277.277,0,0,1-.053.425c-.053.053-.106.053-.213.053s-.159-.053-.266-.106l-.159-.319a.768.768,0,0,1-.106-.372c-.053-.159.106-.319.319-.319h0" transform="translate(-86.66 -87.32)"/>
      <path id="패스_2007" data-name="패스 2007" class="cls-2" d="M104.68,192.4a.337.337,0,0,1,.319.266c0,.053.053.106.053.213.053.053.053.159.106.159a.277.277,0,0,1-.053.425c-.053.053-.106.053-.213.053s-.159-.053-.266-.106l-.159-.319a.768.768,0,0,1-.106-.372.386.386,0,0,1,.319-.319h0" transform="translate(-81.749 -90.131)"/>
      <path id="패스_2008" data-name="패스 2008" class="cls-2" d="M103.58,188.7a.337.337,0,0,1,.319.266c0,.053.053.106.053.213.053.053.053.159.106.159a.277.277,0,0,1-.053.425c-.053.053-.106.053-.213.053s-.159-.053-.266-.106l-.159-.319a.768.768,0,0,1-.106-.372.306.306,0,0,1,.319-.319h0" transform="translate(-80.064 -88.397)"/>
      <path id="패스_2009" data-name="패스 2009" class="cls-2" d="M108.71,191a.337.337,0,0,1,.319.266c0,.053.053.106.053.213.053.053.053.159.106.213a.322.322,0,0,1-.053.425c-.053.053-.106.053-.213.053s-.159-.053-.266-.106h0l-.159-.319a.768.768,0,0,1-.106-.372.388.388,0,0,1,.319-.372h0" transform="translate(-87.905 -89.475)"/>
      <path id="패스_2010" data-name="패스 2010" class="cls-2" d="M103.09,198a.337.337,0,0,1,.319.266c0,.053.053.106.053.213.053.053.053.159.106.159a.277.277,0,0,1-.053.425c-.053.053-.106.053-.213.053s-.159-.053-.266-.106l-.159-.319a.769.769,0,0,1-.106-.372c-.053-.159.106-.319.319-.319h0" transform="translate(-79.309 -92.754)"/>
      <path id="패스_2011" data-name="패스 2011" class="cls-2" d="M103.888,99.7c.053,0,.106,0,.106.053a.335.335,0,0,1,.159.425c-.053.053-.053.266-.053.372v.053a.4.4,0,0,1-.266.372h-.053a.337.337,0,0,1-.319-.266V100.6a1.911,1.911,0,0,1,.106-.585c.106-.266.213-.319.319-.319" transform="translate(-80.213 -46.705)"/>
      <path id="패스_2012" data-name="패스 2012" class="cls-2" d="M97.488,86.7c.053,0,.106,0,.106.053a.335.335,0,0,1,.159.425c-.053.053-.053.266-.053.372V87.6a.4.4,0,0,1-.266.372h-.053a.337.337,0,0,1-.319-.266V87.55a1.911,1.911,0,0,1,.106-.585c.106-.213.213-.266.319-.266" transform="translate(-70.411 -40.615)"/>
      <path id="패스_2013" data-name="패스 2013" class="cls-2" d="M103.588,86.7h.106a.335.335,0,0,1,.159.425c-.053.053-.053.266-.053.372v.053a.4.4,0,0,1-.266.372h-.053a.337.337,0,0,1-.319-.266V87.55a1.911,1.911,0,0,1,.106-.585c.106-.159.213-.266.319-.266" transform="translate(-79.753 -40.615)"/>
      <path id="패스_2014" data-name="패스 2014" class="cls-2" d="M95.988,81c.053,0,.106,0,.106.053a.335.335,0,0,1,.159.425c0,.053-.053.106-.053.159V81.9a.4.4,0,0,1-.266.372h-.053a.337.337,0,0,1-.319-.266V81.85a.674.674,0,0,1,.053-.319.406.406,0,0,1,.106-.266c.053-.213.159-.266.266-.266" transform="translate(-68.114 -37.945)"/>
      <path id="패스_2015" data-name="패스 2015" class="cls-2" d="M101.588,73.9h.106a.335.335,0,0,1,.159.425c-.053.053-.053.266-.053.372v.053a.4.4,0,0,1-.266.372h-.053a.337.337,0,0,1-.319-.266V74.75a1.911,1.911,0,0,1,.106-.585.321.321,0,0,1,.319-.266" transform="translate(-76.691 -34.619)"/>
      <path id="패스_2016" data-name="패스 2016" class="cls-2" d="M100.488,83.2h.106a.335.335,0,0,1,.159.425c-.053.053-.053.266-.053.372v.053a.4.4,0,0,1-.266.372h-.053a.337.337,0,0,1-.319-.266V84.05a1.911,1.911,0,0,1,.106-.585c.053-.213.159-.266.319-.266" transform="translate(-75.006 -38.975)"/>
      <path id="패스_2017" data-name="패스 2017" class="cls-2" d="M98.688,69.4c.053,0,.106,0,.106.053a.335.335,0,0,1,.159.425c-.053.053-.053.266-.053.372V70.3a.4.4,0,0,1-.266.372h-.053a.337.337,0,0,1-.319-.266V70.3a2.668,2.668,0,0,1,.106-.638.337.337,0,0,1,.319-.266" transform="translate(-72.249 -32.511)"/>
      <path id="패스_2018" data-name="패스 2018" class="cls-2" d="M97.188,74.9c.053,0,.106,0,.106.053a.335.335,0,0,1,.159.425c-.053.053-.053.266-.053.372V75.8a.4.4,0,0,1-.266.372h-.053a.337.337,0,0,1-.319-.266V75.75a1.911,1.911,0,0,1,.106-.585.337.337,0,0,1,.319-.266" transform="translate(-69.952 -35.087)"/>
      <path id="패스_2019" data-name="패스 2019" class="cls-2" d="M100.088,78c.053,0,.106,0,.106.053a.335.335,0,0,1,.159.425c0,.053-.053.106-.053.159V78.9a.4.4,0,0,1-.266.372h-.053a.337.337,0,0,1-.319-.266V78.9a.674.674,0,0,1,.053-.319.406.406,0,0,1,.106-.266c.053-.266.159-.319.266-.319" transform="translate(-74.393 -36.539)"/>
      <path id="패스_2020" data-name="패스 2020" class="cls-2" d="M101.988,91h.106a.335.335,0,0,1,.159.425c-.053.053-.053.266-.053.372v.053a.4.4,0,0,1-.266.372h-.053a.337.337,0,0,1-.319-.266V91.85a1.911,1.911,0,0,1,.106-.585c.106-.159.213-.266.319-.266" transform="translate(-77.303 -42.629)"/>
      <path id="패스_2021" data-name="패스 2021" class="cls-2" d="M100.288,96.7h.106a.335.335,0,0,1,.159.425c-.053.053-.053.266-.053.372v.053a.4.4,0,0,1-.266.372h-.053a.337.337,0,0,1-.319-.266V97.55a1.911,1.911,0,0,1,.106-.585.337.337,0,0,1,.319-.266" transform="translate(-74.7 -45.299)"/>
      <path id="패스_2022" data-name="패스 2022" class="cls-2" d="M104.188,94.8c.053,0,.106,0,.106.053a.335.335,0,0,1,.159.425h0c-.053.053-.053.266-.053.372V95.7a.4.4,0,0,1-.266.372h-.053a.337.337,0,0,1-.319-.266V95.65a1.91,1.91,0,0,1,.106-.585c.053-.213.159-.266.319-.266" transform="translate(-80.673 -44.409)"/>
      <path id="패스_2023" data-name="패스 2023" class="cls-2" d="M97.288,92.7c.053,0,.106,0,.106.053a.335.335,0,0,1,.159.425c-.053,0-.053.213-.053.319v.053a.4.4,0,0,1-.266.372h-.053a.337.337,0,0,1-.319-.266V93.5a1.911,1.911,0,0,1,.106-.585.331.331,0,0,1,.319-.213" transform="translate(-70.105 -43.426)"/>
      <path id="패스_2024" data-name="패스 2024" class="cls-4" d="M36.129,106S30.973,114.824,23,109.668l1.116,8.771s10.9,4.731,15.734-8.824Z" transform="translate(26.879 -49.656)"/>
      <path id="패스_2025" data-name="패스 2025" class="cls-2" d="M30,106" transform="translate(33.008 -49.656)"/>
      <path id="패스_2026" data-name="패스 2026" class="cls-2" d="M26.78,106h0m0,0,0,0h0m0,0a13.5,13.5,0,0,1-3.88,3.933h0A13.5,13.5,0,0,0,26.78,106m3.774,3.561a18.354,18.354,0,0,1-3.4,6.06h0a18.923,18.923,0,0,0,3.4-6.06" transform="translate(36.227 -49.656)"/>
      <path id="패스_2027" data-name="패스 2027" class="cls-2" d="M26.727,106h0l3.774,3.561a18.354,18.354,0,0,1-3.4,6.06l-.9-.532c-.9-.532-1.116-2.286-1.116-2.286A2.6,2.6,0,0,0,22.9,110.04,14.932,14.932,0,0,0,26.727,106Z" transform="translate(36.281 -49.656)"/>
      <path id="패스_2028" data-name="패스 2028" class="cls-5" d="M39.2,105.759l-1.7,3.03,3.774,3.561,1.329-5a8.394,8.394,0,0,0-3.349-1.754Z" transform="translate(16.419 -49.469)"/>
      <path id="패스_2029" data-name="패스 2029" class="cls-4" d="M53.329,111.6s-5.156,8.824-13.129,3.668l1.116,8.771s10.9,4.731,15.734-8.824Z" transform="translate(0.536 -52.279)"/>
      <path id="패스_2030" data-name="패스 2030" class="cls-2" d="M48.635,111.6m0,0h0m0,0h0m0,0Zm0,0a10.7,10.7,0,0,1-1.435,1.914,9.757,9.757,0,0,0,1.435-1.914" transform="translate(5.23 -52.279)"/>
      <path id="패스_2031" data-name="패스 2031" class="cls-7" d="M41.535,115.2h0a17.655,17.655,0,0,1-1.435,1.329,8.823,8.823,0,0,0,1.435-1.329M40.1,116.529h0m0,0h0m0,.053h0m6.644.266a18.355,18.355,0,0,1-3.4,6.06h0a18.924,18.924,0,0,0,3.4-6.06" transform="translate(10.895 -53.966)"/>
      <path id="패스_2032" data-name="패스 2032" class="cls-2" d="M43.927,111.6h0l3.774,3.561a18.354,18.354,0,0,1-3.4,6.06l-.9-.532c-.9-.532-1.116-2.286-1.116-2.286A2.642,2.642,0,0,0,40.1,115.64a10.781,10.781,0,0,0,.957-.691h0a17.659,17.659,0,0,0,1.435-1.329,12.364,12.364,0,0,0,1.435-2.02Z" transform="translate(9.938 -52.279)"/>
      <path id="패스_2033" data-name="패스 2033" class="cls-2" d="M35.5,43.3c4.465,3.827,7.442,4.359,7.442,4.359-.638,2.445,2.02,4.943,2.764,5.688l.213.213c-4.571-3.88-7.92-4.04-7.92-4.04,1.648-2.445-2.5-6.219-2.5-6.219" transform="translate(14.166 -20.284)"/>
      <path id="패스_2034" data-name="패스 2034" class="cls-5" d="M40.5,44.12a1.223,1.223,0,1,0,2.445,0A1.236,1.236,0,0,0,41.723,42.9,1.2,1.2,0,0,0,40.5,44.12" transform="translate(14.482 -20.094)"/>
      <path id="패스_2035" data-name="패스 2035" class="cls-5" d="M57.2,52.682A1.382,1.382,0,1,0,58.582,51.3,1.407,1.407,0,0,0,57.2,52.682" transform="translate(-11.414 -24.032)"/>
      <path id="패스_2036" data-name="패스 2036" class="cls-5" d="M45.137,40.657a1.73,1.73,0,0,1,.159.691,1.339,1.339,0,0,1-.266.85,2.256,2.256,0,0,1-1.01.8.429.429,0,0,1-.478-.159.365.365,0,0,1,.159-.478,1.544,1.544,0,0,0,.691-.532.857.857,0,0,0,.159-.478.4.4,0,0,0-.053-.266v-.053h0l.159-.053-.159.106h0l.159-.053-.159.106a.365.365,0,0,1,.159-.478c.213-.266.425-.159.478,0" transform="translate(10.535 -18.97)"/>
      <path id="패스_2037" data-name="패스 2037" class="cls-5" d="M58.489,49.858l-.159.106.159-.106h0l-.159.106.159-.106h0l.213.213a.794.794,0,0,0,.532.159,1.408,1.408,0,0,0,.85-.319.347.347,0,0,1,.372.585,2.265,2.265,0,0,1-1.276.425,1.751,1.751,0,0,1-1.01-.319.792.792,0,0,1-.319-.372.346.346,0,0,1,.106-.478.4.4,0,0,1,.532.106" transform="translate(-12.384 -23.28)"/>
      <path id="패스_2038" data-name="패스 2038" class="cls-3" d="M5.157,68.853a2.9,2.9,0,0,1,.478.691A3.826,3.826,0,0,1,6.114,71.3a2.949,2.949,0,0,1-.425,1.541.465.465,0,0,1-.8-.478A2.2,2.2,0,0,0,5.211,71.3a2.406,2.406,0,0,0-.372-1.276,4.905,4.905,0,0,1-.266-.425c-.053-.053-.053-.106-.106-.106h0l.106-.106-.053.053h0l.053-.053-.053.053a.485.485,0,0,1,0-.638.434.434,0,0,1,.638.053" transform="translate(70.501 -32.176)"/>
      <path id="패스_2039" data-name="패스 2039" class="cls-3" d="M.811,66.495a7.558,7.558,0,0,1,.744,1.063A5.639,5.639,0,0,1,2.3,70.269a4.758,4.758,0,0,1-.638,2.392.492.492,0,0,1-.638.159.492.492,0,0,1-.159-.638A4.023,4.023,0,0,0,1.4,70.269a4.61,4.61,0,0,0-.638-2.233C.6,67.77.439,67.5.332,67.345q-.159-.08-.159-.159L.12,67.132h0l.106-.106-.106.106h0l.106-.106-.106.106a.485.485,0,0,1,0-.638.559.559,0,0,1,.691,0" transform="translate(76.655 -31.094)"/>
      <path id="패스_2040" data-name="패스 2040" class="cls-8" d="M14.446,24.3s.532,6.113,4.518,6.166c0,0-3.083-.213-4.518,4.943,0,0-.691-4.465-4.146-4.89,0-.053,5-.159,4.146-6.219" transform="translate(54.515 -11.383)"/>
      <path id="패스_2041" data-name="패스 2041" class="cls-3" d="M68.5,32.269a1.009,1.009,0,0,0,1.01-1.01v-.638c-.106-2.232-.8-3.721-3.774-3.721H62.81a1.01,1.01,0,1,0,0,2.02h2.923c1.382,0,1.648.159,1.754,1.807v.532a1.009,1.009,0,0,0,1.01,1.01" transform="translate(-23.402 -12.601)"/>
      <path id="패스_2042" data-name="패스 2042" class="cls-3" d="M67.544,28.87a1.009,1.009,0,0,0,1.01-1.01v-.638A5.368,5.368,0,0,0,63.025,21.8H57.71a1.01,1.01,0,0,0,0,2.02h5.262a3.4,3.4,0,0,1,3.561,3.508v.532a1.044,1.044,0,0,0,1.01,1.01" transform="translate(-19.737 -10.212)"/>
      <path id="패스_2043" data-name="패스 2043" class="cls-3" d="M66.849,25.458a1.009,1.009,0,0,0,1.01-1.01v-.266A7.293,7.293,0,0,0,60.577,16.9H52.71a1.009,1.009,0,0,0-1.01,1.01.977.977,0,0,0,1.01,1.01h7.814a5.331,5.331,0,0,1,5.315,5.315V24.5a.966.966,0,0,0,1.01.957" transform="translate(-16.385 -7.917)"/>
    </g>
  </g>
</svg>
