<svg xmlns="http://www.w3.org/2000/svg" xmlns:xlink="http://www.w3.org/1999/xlink" viewBox="0 0 250.2 278.336">
  <defs>
    <style>
      .cls-1 {
        fill: url(#linear-gradient);
      }

      .cls-2, .cls-3 {
        fill: #fff;
      }

      .cls-3 {
        stroke: #707070;
      }

      .cls-4 {
        fill: #74c6be;
      }

      .cls-5 {
        fill: #bce2e3;
      }

      .cls-6 {
        fill: #727171;
      }

      .cls-7 {
        fill: #92aca9;
      }

      .cls-8 {
        fill: #e4f3fa;
      }

      .cls-9 {
        fill: #fcd68c;
      }

      .cls-10, .cls-12 {
        fill: none;
      }

      .cls-10 {
        stroke: #5ec2ac;
        stroke-linecap: round;
      }

      .cls-11 {
        stroke: none;
      }
    </style>
    <linearGradient id="linear-gradient" y1="0.5" x2="1" y2="0.5" gradientUnits="objectBoundingBox">
      <stop offset="0" stop-color="#95d7c8"/>
      <stop offset="1" stop-color="#29ae91"/>
    </linearGradient>
  </defs>
  <g id="그룹_1440" data-name="그룹 1440" transform="translate(-33.8 -685.664)">
    <ellipse id="타원_175" data-name="타원 175" class="cls-1" cx="125.1" cy="125.1" rx="125.1" ry="125.1" transform="translate(33.8 713.8)"/>
    <ellipse id="타원_176" data-name="타원 176" class="cls-2" cx="115.946" cy="115.946" rx="115.946" ry="115.946" transform="translate(42.953 722.954)"/>
    <g id="그룹_581" data-name="그룹 581" transform="translate(1373.175 478) rotate(90)">
      <g id="그룹_519" data-name="그룹 519" transform="translate(985.967 131.78) rotate(45)">
        <g id="사각형_218" data-name="사각형 218" class="cls-3" transform="translate(308 1218)">
          <rect class="cls-11" width="5.197" height="1.485" rx="0.742"/>
          <rect class="cls-12" x="0.5" y="0.5" width="4.197" height="0.485" rx="0.242"/>
        </g>
        <g id="사각형_219" data-name="사각형 219" class="cls-3" transform="translate(311.712 1223.197) rotate(-90)">
          <rect class="cls-11" width="5.197" height="1.485" rx="0.742"/>
          <rect class="cls-12" x="0.5" y="0.5" width="4.197" height="0.485" rx="0.242"/>
        </g>
      </g>
      <g id="그룹_520" data-name="그룹 520" transform="translate(981.967 131.78) rotate(45)">
        <g id="사각형_218-2" data-name="사각형 218" class="cls-3" transform="translate(308 1218)">
          <rect class="cls-11" width="5.197" height="1.485" rx="0.742"/>
          <rect class="cls-12" x="0.5" y="0.5" width="4.197" height="0.485" rx="0.242"/>
        </g>
        <g id="사각형_219-2" data-name="사각형 219" class="cls-3" transform="translate(311.712 1223.197) rotate(-90)">
          <rect class="cls-11" width="5.197" height="1.485" rx="0.742"/>
          <rect class="cls-12" x="0.5" y="0.5" width="4.197" height="0.485" rx="0.242"/>
        </g>
      </g>
    </g>
    <g id="그룹_580" data-name="그룹 580" transform="translate(60.5 685.664)">
      <path id="패스_1974" data-name="패스 1974" class="cls-4" d="M103.607,21.8s-7.6,0-11.276,26.127c0,0-.252,3.373-3.272,2.869a1.869,1.869,0,0,0-2.014,1.51c-.4,1.963,2.014,2.467,3.474,2.467a5.741,5.741,0,0,0,1.309-.1c4.682-.856,4.933-5.789,5.739-9.515.956-4.531,1.359-9.061,3.423-13.189,1.309-2.517,3.423-4.178,5.487-6.142Z" transform="translate(-75.496 -10.826)"/>
      <path id="패스_1975" data-name="패스 1975" class="cls-4" d="M114.9,173.045h0a.984.984,0,0,1,1.359.3,4.65,4.65,0,0,1,.252.4l.2.3c.3.453.554.906.856,1.309.352.6.755,1.158,1.107,1.762.151.3.352.554.5.856.2.352.4.654.554.956l.1.2c.4.6.856,1.309,1.359,1.41a3.145,3.145,0,0,0,1.561-.7l1.309-.956a.972.972,0,1,1,1.158,1.561l-1.359.956a4.3,4.3,0,0,1-3.02,1.057c-1.309-.2-2.114-1.41-2.668-2.265l-.1-.2a12.044,12.044,0,0,1-.654-1.057c-.151-.252-.3-.5-.453-.805-.352-.554-.755-1.158-1.108-1.712-.3-.453-.554-.906-.856-1.359l-.151-.252-.3-.453a1.023,1.023,0,0,1,.352-1.309" transform="translate(-108.438 -85.854)"/>
      <path id="패스_1976" data-name="패스 1976" class="cls-4" d="M112.047,172.945a.984.984,0,0,1,1.359.3l5.185,8.155a3.625,3.625,0,0,0,.906,1.007,3.529,3.529,0,0,0,3.776.1l2.366-1.51a.985.985,0,1,1,1.057,1.661l-2.366,1.51a5.4,5.4,0,0,1-5.991-.151,5.877,5.877,0,0,1-1.41-1.51l-5.185-8.155a1.034,1.034,0,0,1,.3-1.41" transform="translate(-108.553 -85.804)"/>
      <path id="패스_1977" data-name="패스 1977" class="cls-4" d="M110.662,172.945a.984.984,0,0,1,1.359.3l6.293,9.917a5.891,5.891,0,0,0,7.7,1.661l1.963-1.259a.985.985,0,0,1,1.057,1.661l-2.014,1.259-.05.05a7.923,7.923,0,0,1-10.27-2.265l-.05-.05-6.343-9.917a1.021,1.021,0,0,1,.352-1.359" transform="translate(-110.188 -85.804)"/>
      <path id="패스_1978" data-name="패스 1978" class="cls-5" d="M49.149,81.5s1.158,12.233-8.055,21.6l-1.812,15.455H35.708l-2.316-14.4-6.091-.2-3.423,15.958H20.606l-2.215-18.375s-7-2.718-4.833-16.462L17.887,43.8s2.97-25.473,9.212-27.99c0,0-7.5-7.1-1.812-15.807a16.521,16.521,0,0,1,7.5,10.32s.6.3,5.588.05h1.611s1.41-5.638,8.357-8.306a13.519,13.519,0,0,1-2.769,12.485c.151-.2,6.444,5.135,6.645,5.286,5.84,4.933,8.558,8.86,12.535,14.75a5.2,5.2,0,0,1,.755,4.631c-.352,1.611-2.316,3.725-3.524,4.732a8.241,8.241,0,0,1-5.739,2.316c-4.027-.05-8.709-.5-12.334-2.265.151.1,0,.151.5,3.172Z" transform="translate(2.419 0)"/>
      <path id="패스_1979" data-name="패스 1979" class="cls-6" d="M22.011,100.151,20.4,103.021l3.574,3.373,1.259-4.732A7.95,7.95,0,0,0,22.061,100Z" transform="translate(39.273 -49.659)"/>
      <path id="패스_1980" data-name="패스 1980" class="cls-6" d="M97.2,242.389H89.9l.755-5.638,3.524-.151Z" transform="translate(-67.68 -117.492)"/>
      <path id="패스_1981" data-name="패스 1981" class="cls-6" d="M65.03,235.45l2.567,4.581s-4.631,0-7-.252l.856-4.38H65.03Z" transform="translate(-23.328 -116.897)"/>
      <path id="패스_1982" data-name="패스 1982" class="cls-2" d="M72.8,224l.956,5.789v.05h0L72.8,224h0" transform="translate(-35.629 -111.235)"/>
      <path id="패스_1983" data-name="패스 1983" class="cls-2" d="M65.762,221.9h.151a1.148,1.148,0,0,1,.554.151l.453.3a2.351,2.351,0,0,0,.5.252,1.394,1.394,0,0,0,.453.05,2.051,2.051,0,0,0,.906-.252c.151-.1.252-.2.4-.3a.227.227,0,0,0,.151-.151l-.805,6.746H64.956L64,222.907c0-.05.1-.151.1-.151.05-.05.1-.1.1-.151.1-.1.151-.2.252-.252a1.6,1.6,0,0,1,1.007-.4c.1,0,.2-.05.3-.05" transform="translate(-26.778 -110.193)"/>
      <path id="패스_1984" data-name="패스 1984" class="cls-7" d="M69.274,235.5Z" transform="translate(-27.572 -116.946)"/>
      <path id="패스_1985" data-name="패스 1985" class="cls-2" d="M94.51,223.6l-1.41,6.595h0l1.41-6.494v-.1" transform="translate(-66.601 -111.037)"/>
      <path id="패스_1986" data-name="패스 1986" class="cls-2" d="M93.552,221.9c.252,0,.453.352.453.352.252.6.554.755.805.755a.884.884,0,0,0,.6-.3.967.967,0,0,1,.805-.6,1.528,1.528,0,0,1,1.007.6,1.066,1.066,0,0,0,.906.5,1.356,1.356,0,0,0,.856-.4L97.58,229.3h0l-2.165.1-1.309.05L93.2,222.2c.1-.252.252-.3.352-.3" transform="translate(-71.131 -110.193)"/>
      <path id="패스_1987" data-name="패스 1987" class="cls-7" d="M98.065,236.6h0l-2.165.1Z" transform="translate(-71.565 -117.492)"/>
      <path id="패스_1988" data-name="패스 1988" class="cls-2" d="M52.852,7.6s.7,5.739-2.316,8.81a1.464,1.464,0,0,1-1.007.6c-1.51,0,.1-7.148,3.323-9.414" transform="translate(-2.794 -3.774)"/>
      <path id="패스_1989" data-name="패스 1989" class="cls-2" d="M87.688,4.5c3.323,3.222,4.027,11.377,2.366,11.377-.3,0-.7-.3-1.158-.956C85.473,10.189,87.688,4.5,87.688,4.5" transform="translate(-59.93 -2.235)"/>
      <path id="패스_1990" data-name="패스 1990" class="cls-8" d="M36.7,59.6l.1.1s-.05,0-.1-.1Z" transform="translate(19.5 -29.597)"/>
      <path id="패스_1991" data-name="패스 1991" class="cls-4" d="M17.818,74.51l-.05-.252a.529.529,0,0,0-.252-.453.609.609,0,0,0-.5-.151h-.05a.722.722,0,0,0-.654.755v.05l.05.252a.356.356,0,0,1-.7.1l-.05-.252h0v-.1A1.358,1.358,0,0,1,16.862,73h.1a1.539,1.539,0,0,1,1.007.352,1.635,1.635,0,0,1,.5.906l.05.252a.383.383,0,0,1-.3.4c-.252-.05-.4-.2-.4-.4" transform="translate(48.399 -36.251)"/>
      <path id="패스_1992" data-name="패스 1992" class="cls-4" d="M25.581,77.542l-.151-.2a.783.783,0,0,0-.4-.3.6.6,0,0,0-.5.05h-.05a.719.719,0,0,0-.252.956v.05l.151.2a.363.363,0,1,1-.6.4l-.151-.2h0l-.05-.05a1.39,1.39,0,0,1,.5-1.863l.1-.05a1.288,1.288,0,0,1,1.057-.1,1.5,1.5,0,0,1,.856.6l.151.2a.39.39,0,0,1-.1.5.688.688,0,0,1-.554-.2" transform="translate(35.744 -37.924)"/>
      <path id="패스_1993" data-name="패스 1993" class="cls-2" d="M51.423,162.7h0c.2,0,.3.151.3.352a.728.728,0,0,1-.1.352l-.151.3a.384.384,0,0,1-.252.1.3.3,0,0,1-.2-.05.266.266,0,0,1-.05-.4h0c0-.05.05-.1.1-.151a.3.3,0,0,0,.05-.2.29.29,0,0,1,.3-.3" transform="translate(-2.573 -80.795)"/>
      <path id="패스_1994" data-name="패스 1994" class="cls-2" d="M50.523,155.9h0c.2,0,.3.151.3.352a.728.728,0,0,1-.1.352l-.151.3a.385.385,0,0,1-.252.1.3.3,0,0,1-.2-.05.266.266,0,0,1-.05-.4c.05-.05.05-.1.1-.151a.3.3,0,0,0,.05-.2.29.29,0,0,1,.3-.3" transform="translate(-1.22 -77.418)"/>
      <path id="패스_1995" data-name="패스 1995" class="cls-2" d="M56.274,177h0c.2,0,.3.151.3.352a.728.728,0,0,1-.1.352,1.053,1.053,0,0,1-.2.3.385.385,0,0,1-.252.1.3.3,0,0,1-.2-.05.266.266,0,0,1-.05-.4c0-.05.05-.1.1-.151a.3.3,0,0,0,.05-.2.368.368,0,0,1,.352-.3" transform="translate(-9.84 -87.896)"/>
      <path id="패스_1996" data-name="패스 1996" class="cls-2" d="M59.123,182.1h0c.2,0,.3.151.3.352a.728.728,0,0,1-.1.352l-.151.3a.384.384,0,0,1-.252.1.3.3,0,0,1-.2-.05.266.266,0,0,1-.05-.4c.05-.05.05-.1.1-.151a.3.3,0,0,0,.05-.2q.076-.3.3-.3" transform="translate(-14.149 -90.428)"/>
      <path id="패스_1997" data-name="패스 1997" class="cls-2" d="M56.423,185.9h0c.2,0,.3.151.3.352a.728.728,0,0,1-.1.352l-.151.3a.385.385,0,0,1-.252.1.3.3,0,0,1-.2-.05.266.266,0,0,1-.05-.4c0-.05.05-.1.1-.151a.3.3,0,0,0,.05-.2.29.29,0,0,1,.3-.3" transform="translate(-10.09 -92.315)"/>
      <path id="패스_1998" data-name="패스 1998" class="cls-2" d="M54.123,181.1h0c.2,0,.3.151.3.352a.728.728,0,0,1-.1.352l-.151.3a.384.384,0,0,1-.252.1.3.3,0,0,1-.2-.05.266.266,0,0,1-.05-.4c0-.05.05-.1.1-.151a.3.3,0,0,0,.05-.2.29.29,0,0,1,.3-.3" transform="translate(-6.632 -89.932)"/>
      <path id="패스_1999" data-name="패스 1999" class="cls-2" d="M58.923,174.3h0c.2,0,.3.151.3.352a.728.728,0,0,1-.1.352l-.151.3a.384.384,0,0,1-.252.1.3.3,0,0,1-.2-.05.266.266,0,0,1-.05-.4c0-.05.05-.1.1-.151a.3.3,0,0,0,.05-.2q.076-.3.3-.3" transform="translate(-13.849 -86.555)"/>
      <path id="패스_2000" data-name="패스 2000" class="cls-2" d="M50.823,173.8h0c.2,0,.3.151.3.352a.933.933,0,0,1-.1.352l-.151.3a.385.385,0,0,1-.252.1.3.3,0,0,1-.2-.05.266.266,0,0,1-.05-.4c0-.05.05-.1.1-.151a.3.3,0,0,0,.05-.2q.076-.3.3-.3" transform="translate(-1.671 -86.307)"/>
      <path id="패스_2001" data-name="패스 2001" class="cls-2" d="M51.023,167.9h0c.2,0,.3.151.3.352a.933.933,0,0,1-.1.352l-.151.3a.385.385,0,0,1-.252.1.3.3,0,0,1-.2-.05.266.266,0,0,1-.05-.4c0-.05.05-.1.1-.151a.3.3,0,0,0,.05-.2q.076-.3.3-.3" transform="translate(-1.972 -83.377)"/>
      <path id="패스_2002" data-name="패스 2002" class="cls-2" d="M54.923,159.7h0c.2,0,.3.151.3.352a.728.728,0,0,1-.1.352l-.151.3a.385.385,0,0,1-.252.1.3.3,0,0,1-.2-.05.266.266,0,0,1-.05-.4c0-.05.05-.1.1-.151a.3.3,0,0,0,.05-.2q.076-.3.3-.3" transform="translate(-7.835 -79.305)"/>
      <path id="패스_2003" data-name="패스 2003" class="cls-2" d="M54.923,171.1h0c.2,0,.3.151.3.352a.728.728,0,0,1-.1.352l-.151.3a.385.385,0,0,1-.252.1.3.3,0,0,1-.2-.05.266.266,0,0,1-.05-.4c0-.05.05-.1.1-.151a.3.3,0,0,0,.05-.2q.076-.3.3-.3" transform="translate(-7.835 -84.966)"/>
      <path id="패스_2004" data-name="패스 2004" class="cls-2" d="M100.193,195.7a.319.319,0,0,1,.3.252.38.38,0,0,0,.05.2c.05.05.05.151.1.151a.3.3,0,0,1-.05.4c-.05.05-.1.05-.2.05s-.151-.05-.252-.1l-.151-.3a.728.728,0,0,1-.1-.352.29.29,0,0,1,.3-.3h0" transform="translate(-76.211 -97.182)"/>
      <path id="패스_2005" data-name="패스 2005" class="cls-2" d="M98.393,191a.319.319,0,0,1,.3.252c0,.05.05.1.05.2.05.05.05.151.1.2a.3.3,0,0,1-.05.4c-.05.05-.1.05-.2.05s-.151-.05-.252-.1l-.151-.3a.728.728,0,0,1-.1-.352.368.368,0,0,1,.3-.352h0" transform="translate(-73.505 -94.848)"/>
      <path id="패스_2006" data-name="패스 2006" class="cls-2" d="M107.872,186.4a.319.319,0,0,1,.3.252c0,.05.05.1.05.2.05.05.05.151.1.151a.262.262,0,0,1-.05.4c-.05.05-.1.05-.2.05s-.151-.05-.252-.1l-.151-.3a.728.728,0,0,1-.1-.352c-.05-.151.1-.3.3-.3h0" transform="translate(-87.766 -92.564)"/>
      <path id="패스_2007" data-name="패스 2007" class="cls-2" d="M104.663,192.4a.319.319,0,0,1,.3.252c0,.05.05.1.05.2.05.05.05.151.1.151a.262.262,0,0,1-.05.4c-.05.05-.1.05-.2.05s-.151-.05-.252-.1l-.151-.3a.728.728,0,0,1-.1-.352.365.365,0,0,1,.3-.3h0" transform="translate(-82.946 -95.543)"/>
      <path id="패스_2008" data-name="패스 2008" class="cls-2" d="M103.563,188.7a.319.319,0,0,1,.3.252c0,.05.05.1.05.2.05.05.05.151.1.151a.262.262,0,0,1-.05.4c-.05.05-.1.05-.2.05s-.151-.05-.252-.1l-.151-.3a.728.728,0,0,1-.1-.352.29.29,0,0,1,.3-.3h0" transform="translate(-81.292 -93.706)"/>
      <path id="패스_2009" data-name="패스 2009" class="cls-2" d="M108.693,191a.319.319,0,0,1,.3.252c0,.05.05.1.05.2.05.05.05.151.1.2a.3.3,0,0,1-.05.4c-.05.05-.1.05-.2.05s-.151-.05-.252-.1h0l-.151-.3a.727.727,0,0,1-.1-.352.368.368,0,0,1,.3-.352h0" transform="translate(-88.99 -94.848)"/>
      <path id="패스_2010" data-name="패스 2010" class="cls-2" d="M103.072,198a.319.319,0,0,1,.3.252c0,.05.05.1.05.2.05.05.05.151.1.151a.262.262,0,0,1-.05.4c-.05.05-.1.05-.2.05s-.151-.05-.252-.1l-.151-.3a.728.728,0,0,1-.1-.352c-.05-.151.1-.3.3-.3h0" transform="translate(-80.55 -98.324)"/>
      <path id="패스_2011" data-name="패스 2011" class="cls-2" d="M103.865,99.7c.05,0,.1,0,.1.05a.317.317,0,0,1,.151.4c-.05.05-.05.252-.05.352v.05a.379.379,0,0,1-.252.352h-.05a.319.319,0,0,1-.3-.252v-.1a1.81,1.81,0,0,1,.1-.554c.1-.252.2-.3.3-.3" transform="translate(-81.444 -49.51)"/>
      <path id="패스_2012" data-name="패스 2012" class="cls-2" d="M97.465,86.7c.05,0,.1,0,.1.05a.317.317,0,0,1,.151.4c-.05.05-.05.252-.05.352v.05a.379.379,0,0,1-.252.352h-.05a.319.319,0,0,1-.3-.252v-.151a1.81,1.81,0,0,1,.1-.554c.1-.2.2-.252.3-.252" transform="translate(-71.822 -43.054)"/>
      <path id="패스_2013" data-name="패스 2013" class="cls-2" d="M103.565,86.7h.1a.317.317,0,0,1,.151.4c-.05.05-.05.252-.05.352v.05a.379.379,0,0,1-.252.352h-.05a.319.319,0,0,1-.3-.252v-.1a1.81,1.81,0,0,1,.1-.554c.1-.151.2-.252.3-.252" transform="translate(-80.992 -43.054)"/>
      <path id="패스_2014" data-name="패스 2014" class="cls-2" d="M95.965,81c.05,0,.1,0,.1.05a.317.317,0,0,1,.151.4c0,.05-.05.1-.05.151v.252a.379.379,0,0,1-.252.352h-.05a.319.319,0,0,1-.3-.252v-.151a.638.638,0,0,1,.05-.3.385.385,0,0,1,.1-.252c.05-.2.151-.252.252-.252" transform="translate(-69.567 -40.224)"/>
      <path id="패스_2015" data-name="패스 2015" class="cls-2" d="M101.565,73.9h.1a.317.317,0,0,1,.151.4c-.05.05-.05.252-.05.352v.05a.379.379,0,0,1-.252.352h-.05a.319.319,0,0,1-.3-.252v-.1a1.809,1.809,0,0,1,.1-.554.3.3,0,0,1,.3-.252" transform="translate(-77.986 -36.698)"/>
      <path id="패스_2016" data-name="패스 2016" class="cls-2" d="M100.465,83.2h.1a.317.317,0,0,1,.151.4c-.05.05-.05.252-.05.352v.05a.379.379,0,0,1-.252.352h-.05a.319.319,0,0,1-.3-.252v-.1a1.81,1.81,0,0,1,.1-.554c.05-.2.151-.252.3-.252" transform="translate(-76.332 -41.316)"/>
      <path id="패스_2017" data-name="패스 2017" class="cls-2" d="M98.665,69.4c.05,0,.1,0,.1.05a.317.317,0,0,1,.151.4c-.05.05-.05.252-.05.352v.05a.379.379,0,0,1-.252.352h-.05a.319.319,0,0,1-.3-.252v-.1a2.527,2.527,0,0,1,.1-.6.319.319,0,0,1,.3-.252" transform="translate(-73.626 -34.463)"/>
      <path id="패스_2018" data-name="패스 2018" class="cls-2" d="M97.165,74.9c.05,0,.1,0,.1.05a.317.317,0,0,1,.151.4c-.05.05-.05.252-.05.352v.05a.379.379,0,0,1-.252.352h-.05a.319.319,0,0,1-.3-.252v-.151a1.81,1.81,0,0,1,.1-.554.319.319,0,0,1,.3-.252" transform="translate(-71.371 -37.194)"/>
      <path id="패스_2019" data-name="패스 2019" class="cls-2" d="M100.065,78c.05,0,.1,0,.1.05a.317.317,0,0,1,.151.4c0,.05-.05.1-.05.151v.252a.379.379,0,0,1-.252.352h-.05a.319.319,0,0,1-.3-.252v-.1a.638.638,0,0,1,.05-.3.384.384,0,0,1,.1-.252c.05-.252.151-.3.252-.3" transform="translate(-75.731 -38.734)"/>
      <path id="패스_2020" data-name="패스 2020" class="cls-2" d="M101.965,91h.1a.317.317,0,0,1,.151.4c-.05.05-.05.252-.05.352v.05a.379.379,0,0,1-.252.352h-.05a.319.319,0,0,1-.3-.252v-.1a1.809,1.809,0,0,1,.1-.554c.1-.151.2-.252.3-.252" transform="translate(-78.587 -45.189)"/>
      <path id="패스_2021" data-name="패스 2021" class="cls-2" d="M100.265,96.7h.1a.317.317,0,0,1,.151.4c-.05.05-.05.252-.05.352v.05a.379.379,0,0,1-.252.352h-.05a.319.319,0,0,1-.3-.252v-.1a1.81,1.81,0,0,1,.1-.554.319.319,0,0,1,.3-.252" transform="translate(-76.031 -48.02)"/>
      <path id="패스_2022" data-name="패스 2022" class="cls-2" d="M104.165,94.8c.05,0,.1,0,.1.05a.317.317,0,0,1,.151.4h0c-.05.05-.05.252-.05.352v.05a.379.379,0,0,1-.252.352h-.05a.319.319,0,0,1-.3-.252v-.151a1.809,1.809,0,0,1,.1-.554c.05-.2.151-.252.3-.252" transform="translate(-81.895 -47.076)"/>
      <path id="패스_2023" data-name="패스 2023" class="cls-2" d="M97.265,92.7c.05,0,.1,0,.1.05a.317.317,0,0,1,.151.4c-.05,0-.05.2-.05.3v.05a.379.379,0,0,1-.252.352h-.05a.319.319,0,0,1-.3-.252v-.151a1.809,1.809,0,0,1,.1-.554.313.313,0,0,1,.3-.2" transform="translate(-71.521 -46.034)"/>
      <path id="패스_2024" data-name="패스 2024" class="cls-5" d="M35.434,106S30.551,114.357,23,109.474l1.057,8.306s10.32,4.48,14.9-8.357Z" transform="translate(24.239 -52.638)"/>
      <path id="패스_2025" data-name="패스 2025" class="cls-2" d="M30,106" transform="translate(29.673 -52.638)"/>
      <path id="패스_2026" data-name="패스 2026" class="cls-2" d="M26.575,106h0m0,0,0,0h0m0,0a12.783,12.783,0,0,1-3.675,3.725h0A12.783,12.783,0,0,0,26.575,106m3.574,3.373a17.383,17.383,0,0,1-3.222,5.739h0a17.922,17.922,0,0,0,3.222-5.739" transform="translate(33.098 -52.638)"/>
      <path id="패스_2027" data-name="패스 2027" class="cls-2" d="M26.525,106h0l3.574,3.373a17.383,17.383,0,0,1-3.222,5.739l-.856-.5c-.856-.5-1.057-2.165-1.057-2.165a2.464,2.464,0,0,0-2.064-2.618A14.142,14.142,0,0,0,26.525,106Z" transform="translate(33.148 -52.638)"/>
      <path id="패스_2028" data-name="패스 2028" class="cls-6" d="M39.111,105.751,37.5,108.621l3.574,3.373,1.259-4.732a7.95,7.95,0,0,0-3.172-1.661Z" transform="translate(13.565 -52.44)"/>
      <path id="패스_2029" data-name="패스 2029" class="cls-5" d="M52.634,111.6s-4.883,8.357-12.434,3.474l1.057,8.306s10.32,4.48,14.9-8.357Z" transform="translate(-1.62 -55.419)"/>
      <path id="패스_2030" data-name="패스 2030" class="cls-2" d="M48.559,111.6m0,0h0m0,0h0m0,0Zm0,0a10.133,10.133,0,0,1-1.359,1.812,9.241,9.241,0,0,0,1.359-1.812" transform="translate(2.455 -55.419)"/>
      <path id="패스_2031" data-name="패스 2031" class="cls-8" d="M41.459,115.2h0a16.722,16.722,0,0,1-1.359,1.259,8.357,8.357,0,0,0,1.359-1.259M40.1,116.459h0m0,0h0m0,.05h0m6.293.252a17.383,17.383,0,0,1-3.222,5.739h0a17.922,17.922,0,0,0,3.222-5.739" transform="translate(8.196 -57.207)"/>
      <path id="패스_2032" data-name="패스 2032" class="cls-2" d="M43.725,111.6h0l3.574,3.373a17.383,17.383,0,0,1-3.222,5.739l-.856-.5c-.856-.5-1.057-2.165-1.057-2.165a2.5,2.5,0,0,0-2.064-2.618,10.21,10.21,0,0,0,.906-.654h0a16.726,16.726,0,0,0,1.359-1.259,11.71,11.71,0,0,0,1.359-1.913Z" transform="translate(7.29 -55.419)"/>
      <path id="패스_2033" data-name="패스 2033" class="cls-2" d="M35.5,43.3c4.229,3.625,7.048,4.128,7.048,4.128-.6,2.316,1.913,4.682,2.618,5.387l.2.2c-4.329-3.675-7.5-3.826-7.5-3.826C39.427,46.874,35.5,43.3,35.5,43.3" transform="translate(11.538 -21.502)"/>
      <path id="패스_2034" data-name="패스 2034" class="cls-6" d="M40.5,44.055a1.158,1.158,0,1,0,2.316,0A1.171,1.171,0,0,0,41.658,42.9,1.138,1.138,0,0,0,40.5,44.055" transform="translate(11.572 -21.3)"/>
      <path id="패스_2035" data-name="패스 2035" class="cls-6" d="M57.2,52.609A1.309,1.309,0,1,0,58.509,51.3,1.333,1.333,0,0,0,57.2,52.609" transform="translate(-13.837 -25.475)"/>
      <path id="패스_2036" data-name="패스 2036" class="cls-6" d="M45.051,40.649a1.639,1.639,0,0,1,.151.654,1.268,1.268,0,0,1-.252.805,2.137,2.137,0,0,1-.956.755.406.406,0,0,1-.453-.151.346.346,0,0,1,.151-.453,1.463,1.463,0,0,0,.654-.5A.812.812,0,0,0,44.5,41.3a.377.377,0,0,0-.05-.252V41h0l.151-.05-.151.1h0L44.6,41l-.151.1a.346.346,0,0,1,.151-.453c.2-.252.4-.151.453,0" transform="translate(7.675 -20.109)"/>
      <path id="패스_2037" data-name="패스 2037" class="cls-6" d="M58.452,49.849l-.151.1.151-.1h0l-.151.1.151-.1h0l.2.2a.752.752,0,0,0,.5.151,1.333,1.333,0,0,0,.805-.3.328.328,0,0,1,.352.554,2.145,2.145,0,0,1-1.208.4,1.658,1.658,0,0,1-.956-.3.75.75,0,0,1-.3-.352.328.328,0,0,1,.1-.453.378.378,0,0,1,.5.1" transform="translate(-14.787 -24.678)"/>
      <path id="패스_2038" data-name="패스 2038" class="cls-4" d="M5.117,68.844a2.749,2.749,0,0,1,.453.654,3.624,3.624,0,0,1,.453,1.661,2.793,2.793,0,0,1-.4,1.46.44.44,0,1,1-.755-.453,2.086,2.086,0,0,0,.3-1.007,2.279,2.279,0,0,0-.352-1.208,4.645,4.645,0,0,1-.252-.4c-.05-.05-.05-.1-.1-.1h0l.1-.1-.05.05h0l.05-.05-.05.05a.459.459,0,0,1,0-.6.411.411,0,0,1,.6.05" transform="translate(66.536 -34.109)"/>
      <path id="패스_2039" data-name="패스 2039" class="cls-4" d="M.768,66.488a7.158,7.158,0,0,1,.7,1.007,5.341,5.341,0,0,1,.7,2.567,4.506,4.506,0,0,1-.6,2.265.466.466,0,0,1-.6.151.466.466,0,0,1-.151-.6,3.81,3.81,0,0,0,.5-1.812,4.366,4.366,0,0,0-.6-2.114c-.151-.252-.3-.5-.4-.654q-.151-.076-.151-.151l-.05-.05h0l.1-.1-.1.1h0l.1-.1-.1.1a.459.459,0,0,1,0-.6.529.529,0,0,1,.654,0" transform="translate(72.598 -32.961)"/>
      <path id="패스_2040" data-name="패스 2040" class="cls-9" d="M14.227,24.3s.5,5.789,4.279,5.84c0,0-2.92-.2-4.279,4.682,0,0-.654-4.229-3.927-4.631,0-.05,4.732-.151,3.927-5.89" transform="translate(51.084 -12.067)"/>
      <path id="패스_2041" data-name="패스 2041" class="cls-4" d="M68.143,31.984a.956.956,0,0,0,.956-.956v-.6C69,28.31,68.344,26.9,65.525,26.9H62.757a.956.956,0,1,0,0,1.913h2.769c1.309,0,1.561.151,1.661,1.712v.5a.956.956,0,0,0,.956.956" transform="translate(-25.434 -13.358)"/>
      <path id="패스_2042" data-name="패스 2042" class="cls-4" d="M66.97,28.5a.956.956,0,0,0,.956-.956v-.6A5.084,5.084,0,0,0,62.691,21.8H57.657a.956.956,0,1,0,0,1.913H62.64a3.217,3.217,0,0,1,3.373,3.323v.5a.989.989,0,0,0,.956.956" transform="translate(-21.694 -10.826)"/>
      <path id="패스_2043" data-name="패스 2043" class="cls-4" d="M66.047,25A.956.956,0,0,0,67,24.048V23.8a6.907,6.907,0,0,0-6.9-6.9H52.656a.956.956,0,0,0-.956.956.926.926,0,0,0,.956.956h7.4a5.049,5.049,0,0,1,5.034,5.034V24.1a.915.915,0,0,0,.956.906" transform="translate(-18.254 -8.392)"/>
    </g>
    <line id="선_133" data-name="선 133" class="cls-10" x1="71" transform="translate(122.5 800.5)"/>
  </g>
</svg>
