<svg id="그룹_449" data-name="그룹 449" xmlns="http://www.w3.org/2000/svg" viewBox="0 0 94.617 147.643">
  <defs>
    <style>
      .cls-1 {
        fill: #e3904a;
      }

      .cls-2 {
        fill: #74c6be;
      }

      .cls-3 {
        fill: #bce2e3;
      }

      .cls-4 {
        fill: #fff;
      }

      .cls-5 {
        fill: #e0f1f2;
      }

      .cls-6 {
        fill: #727171;
      }

      .cls-7 {
        fill: #ea5541;
      }

      .cls-8 {
        fill: #fdd35c;
      }

      .cls-9 {
        fill: #f9c164;
      }
    </style>
  </defs>
  <path id="패스_198" data-name="패스 198" class="cls-1" d="M68.423,6.341a.923.923,0,0,0-1.839.153c.077.766.077,3.218-.843,4.214a1.058,1.058,0,0,1-.306.23l-.69-8.2a.923.923,0,1,0-1.839.153c.153,1.379.23,2.681.383,4.06a33.609,33.609,0,0,1,.383,7.355c-.077.306-.46,4.137-.536,4.137a1.709,1.709,0,0,1-1-.46c-1.379-1.456-1.073-5.746-.613-8.2a.9.9,0,0,0-1.762-.383c-.153.766-1.379,7.278,1.073,9.806a3.148,3.148,0,0,0,2.145,1L62.14,26.49a.839.839,0,0,0,.766,1h.077a.914.914,0,0,0,.919-.843l1.685-13.714v-.153a3.333,3.333,0,0,0,1.532-1c1.609-1.685,1.379-5.056,1.3-5.44" transform="translate(-13.874 -0.432)"/>
  <path id="패스_199" data-name="패스 199" class="cls-1" d="M52.575,26.965c-.46-1.992-1-3.984-1.532-5.976-.536-1.839-1-3.677-1.456-5.516-.23-1.073-.46-2.222-.613-3.294,1.073-.613,2.835-2.452,2.528-8.351a.923.923,0,1,0-1.839.153c.153,3.448-.383,5.21-.919,6.052-.306-2.375-.46-4.75-.613-7.125A19.247,19.247,0,0,1,47.825.84a.849.849,0,0,0-1-.843.849.849,0,0,0-.843,1c.077.69.077,1.3.153,1.992A80.2,80.2,0,0,0,47.748,15.7c-1.3-.383-3.448-1.839-4.6-7.125a.9.9,0,0,0-1.762.383c1.609,7.355,5.286,8.581,6.9,8.734.306,1.3.69,2.6,1.073,3.831.536,1.915,1.073,3.907,1.532,5.9a.849.849,0,0,0,.919.69h.23a.986.986,0,0,0,.536-1.149" transform="translate(-9.672 0.013)"/>
  <path id="패스_200" data-name="패스 200" class="cls-2" d="M40.222,34.6s-8.427.69-10.19,29.879c0,0,0,3.754-3.371,3.448a2.019,2.019,0,0,0-2.069,1.839c-.306,2.222,2.452,2.528,4.06,2.452a4.81,4.81,0,0,0,1.456-.23c5.133-1.379,4.9-6.819,5.516-11.032.69-5.056.69-10.113,2.681-14.863,1.226-2.911,3.371-4.9,5.516-7.278Z" transform="translate(-5.746 -8.082)"/>
  <path id="패스_201" data-name="패스 201" class="cls-3" d="M85.232,53.444c-4.673-5.823-7.815-9.73-14.327-14.4-.23-.153-7.2-5.21-7.431-4.98A14.237,14.237,0,0,0,65.313,20.73c-7.048,3.448-8.044,9.423-8.044,9.423l-1.685.153c-5.21.69-5.9.383-5.9.383A17.387,17.387,0,0,0,41.026,20.5c-5.21,9.653,3.218,16.4,3.218,16.4-6.282,3.141-7.278,30.032-7.278,30.032l-1.3,33.4-.383,6.282s-2.528,20.073,23.98,17.315a13.335,13.335,0,0,0,4.75-1.839,15,15,0,0,0,7.125-8.5,21.483,21.483,0,0,0,.69-4.444,28.714,28.714,0,0,0,0-5.133c-.077-.23-.46-2.681-.613-3.065L67.764,82.02c-.919-4.6-1.839-9.117-2.758-13.714-.766-3.141-.613-3.218-.766-3.294,3.984,1.609,8.887,1.685,13.1,1.379a9.074,9.074,0,0,0,5.823-2.911c1.149-1.226,3.065-3.6,3.294-5.286a5.523,5.523,0,0,0-1.226-4.75" transform="translate(-8.236 -4.785)"/>
  <path id="패스_202" data-name="패스 202" class="cls-4" d="M72.753,23.3s1.226,5.976-1.685,9.423S69,26.365,72.753,23.3" transform="translate(-16.212 -5.439)"/>
  <path id="패스_203" data-name="패스 203" class="cls-4" d="M42.971,23.6s-1.839,6.129,2.145,10.8c3.448,4.06,2.375-7.125-2.145-10.8" transform="translate(-9.95 -5.51)"/>
  <path id="패스_204" data-name="패스 204" class="cls-5" d="M85,58.4h0l.077.077c0,.077,0,0-.077-.077" transform="translate(-19.879 -13.648)"/>
  <path id="패스_205" data-name="패스 205" class="cls-2" d="M63.446,43.526a1.013,1.013,0,0,0,.919-1.073l-.077-.536V41.84c-.306-2.222-1.073-3.677-4.06-3.448l-2.911.23a1,1,0,1,0,.153,1.992l2.911-.23c1.379-.077,1.685,0,1.915,1.685l.077.536a1.074,1.074,0,0,0,1.073.919" transform="translate(-13.188 -8.964)"/>
  <path id="패스_206" data-name="패스 206" class="cls-2" d="M65.636,41.463a1.013,1.013,0,0,0,.919-1.073l-.077-.536v-.077A5.356,5.356,0,0,0,60.5,34.8l-5.286.383a1,1,0,0,0,.153,1.992l5.286-.383a3.376,3.376,0,0,1,3.831,3.218l.077.536a.974.974,0,0,0,1.073.919" transform="translate(-12.697 -8.126)"/>
  <path id="패스_207" data-name="패스 207" class="cls-2" d="M67.58,39.334a1.013,1.013,0,0,0,.919-1.073v-.306a7.23,7.23,0,0,0-7.815-6.665l-7.968.613a1,1,0,1,0,.153,1.992l7.815-.613a5.249,5.249,0,0,1,5.669,4.827v.306a1.242,1.242,0,0,0,1.226.919" transform="translate(-12.112 -7.3)"/>
  <path id="패스_208" data-name="패스 208" class="cls-4" d="M82.709,57.57a.948.948,0,0,0-.23-.153c-.766-.69-3.6-2.911-3.141-5.44,0,0-3.065-.306-7.738-3.677,0,0,4.367,3.371,2.911,5.9,0,0,3.371-.077,8.2,3.371" transform="translate(-16.745 -11.286)"/>
  <path id="패스_209" data-name="패스 209" class="cls-6" d="M78.9,47.179A1.3,1.3,0,1,0,80.126,45.8,1.4,1.4,0,0,0,78.9,47.179" transform="translate(-18.452 -10.701)"/>
  <path id="패스_210" data-name="패스 210" class="cls-6" d="M66.5,54.93A1.422,1.422,0,1,0,67.8,53.4a1.442,1.442,0,0,0-1.3,1.532" transform="translate(-15.55 -12.477)"/>
  <path id="패스_211" data-name="패스 211" class="cls-7" d="M103.618,63.159A6.359,6.359,0,1,1,97.259,56.8a6.343,6.343,0,0,1,6.359,6.359" transform="translate(-21.259 -13.274)"/>
  <path id="패스_212" data-name="패스 212" class="cls-4" d="M94.9,64.2a1.3,1.3,0,1,1-1.3-1.3,1.291,1.291,0,0,1,1.3,1.3" transform="translate(-21.586 -14.701)"/>
  <path id="패스_213" data-name="패스 213" class="cls-3" d="M45.789,133.172l-13.944,9.117L29.7,139.454,39.353,126.2Z" transform="translate(-6.946 -29.505)"/>
  <path id="패스_214" data-name="패스 214" class="cls-4" d="M33.2,137.1a2.491,2.491,0,0,0,2.145,2.758s1.839.306,1.226,1.839l-4.827,3.141L29.6,142Z" transform="translate(-6.923 -32.054)"/>
  <path id="패스_215" data-name="패스 215" class="cls-6" d="M27.712,143.5,21.2,144.956l5.363,5.44,3.294-4.06Z" transform="translate(-4.958 -33.551)"/>
  <path id="패스_216" data-name="패스 216" class="cls-3" d="M68,129.911l16.4,3.371.919-3.371L71.448,121.1Z" transform="translate(-15.903 -28.312)"/>
  <path id="패스_217" data-name="패스 217" class="cls-4" d="M83.429,128.3a2.555,2.555,0,0,1-1,3.371s-1.609.919-.46,2.145l5.593,1.149,1-3.448Z" transform="translate(-19.074 -29.996)"/>
  <path id="패스_218" data-name="패스 218" class="cls-6" d="M90.319,132.3l6.589-1-3.065,6.972-4.444-2.6Z" transform="translate(-20.908 -30.697)"/>
  <path id="패스_219" data-name="패스 219" class="cls-7" d="M78.673,130.106a3.6,3.6,0,0,1-3.6,3.6H24.2a3.6,3.6,0,0,1-3.6-3.6V99a3.6,3.6,0,0,1,3.6-3.6H75.072a3.6,3.6,0,0,1,3.6,3.6Z" transform="translate(-4.818 -22.301)"/>
  <path id="패스_220" data-name="패스 220" class="cls-2" d="M102.144,128.352a8.446,8.446,0,0,0-1.379.153c-2.835.613-4.75,2.452-6.206,6.052,2.069-.383,4.06-.766,5.9-1.226,1.456-.383,3.141-.843,3.984-1.839a1.682,1.682,0,0,0,.383-.919,2.064,2.064,0,0,0-.69-1.609,2.71,2.71,0,0,0-1.992-.613m-11.262,12.1a2.664,2.664,0,0,1-2.681-2.375v-.766a.972.972,0,0,1,.077-.46C89.5,131.8,92.031,124.9,99.615,123.219a9.873,9.873,0,0,1,7.815,1.3,7.116,7.116,0,0,1,2.835,5.593,6.614,6.614,0,0,1-1.685,4.75c-1.762,2.069-4.29,2.988-6.742,3.6a77.245,77.245,0,0,1-10.726,1.915.281.281,0,0,1-.23.077" transform="translate(-20.627 -28.746)"/>
  <path id="패스_221" data-name="패스 221" class="cls-2" d="M73.9,128.361a3.082,3.082,0,0,0-1.992.536,1.764,1.764,0,0,0-.69,1.609,1.682,1.682,0,0,0,.383.919c.843,1,2.528,1.456,3.984,1.839,1.839.46,3.831.919,5.9,1.226-1.379-3.6-3.371-5.44-6.206-6.052a8.8,8.8,0,0,0-1.379-.077m11.262,12.1h-.306a93.474,93.474,0,0,1-10.726-1.915c-2.452-.613-4.98-1.532-6.742-3.6A6.966,6.966,0,0,1,65.7,130.2a7.347,7.347,0,0,1,2.835-5.593,9.3,9.3,0,0,1,7.815-1.3c7.661,1.685,10.113,8.581,11.339,13.637a.972.972,0,0,1,.077.46,1.306,1.306,0,0,1,0,.766,2.532,2.532,0,0,1-2.6,2.3" transform="translate(-15.363 -28.754)"/>
  <path id="패스_222" data-name="패스 222" class="cls-8" d="M108.369,177.106a3.6,3.6,0,0,1-3.6,3.6H62.4a3.6,3.6,0,0,1-3.6-3.6V146a3.6,3.6,0,0,1,3.6-3.6h42.367a3.6,3.6,0,0,1,3.6,3.6Z" transform="translate(-13.752 -33.293)"/>
  <rect id="사각형_96" data-name="사각형 96" class="cls-2" width="5.516" height="38.46" transform="translate(67.113 108.954)"/>
  <path id="패스_223" data-name="패스 223" class="cls-9" d="M34.658,118.023a26.813,26.813,0,0,1,1.073-3.524,13.847,13.847,0,0,1,2.375-4.06,5.821,5.821,0,0,1,1.685-1.3,7.834,7.834,0,0,1,2.145-.843,8.443,8.443,0,0,1,1.379-.153,5.331,5.331,0,0,1,1.226.153,1.541,1.541,0,0,1,.613.306,1.79,1.79,0,0,1,.536.536A3.019,3.019,0,0,1,46,110.285h0v.077a.691.691,0,0,1-.077.383,1.6,1.6,0,0,1-.306.46,2.065,2.065,0,0,1-.613.536,5.157,5.157,0,0,1-1.456.69c-.613.23-1.226.383-1.915.613a84.6,84.6,0,0,1-9.96,1.839,2.7,2.7,0,0,0,.613,5.363,108.881,108.881,0,0,0,10.726-1.915,19.538,19.538,0,0,0,3.371-1.149,10.256,10.256,0,0,0,1.762-1,7.973,7.973,0,0,0,2.835-3.448,6.352,6.352,0,0,0,.46-2.452V109.9h0a8.282,8.282,0,0,0-.843-3.141,8.721,8.721,0,0,0-1.379-1.915,7.743,7.743,0,0,0-2.835-1.685,10.618,10.618,0,0,0-3.065-.46,9.517,9.517,0,0,0-2.528.306,11.8,11.8,0,0,0-4.673,2.069,13.189,13.189,0,0,0-2.6,2.452,18.416,18.416,0,0,0-2.528,4.444,36.434,36.434,0,0,0-1.456,4.673,2.608,2.608,0,0,0,1.992,3.218,2.481,2.481,0,0,0,3.141-1.839" transform="translate(-6.848 -24.009)"/>
  <path id="패스_224" data-name="패스 224" class="cls-9" d="M28.988,116.744a32.938,32.938,0,0,0-1.3-4.214,18.245,18.245,0,0,0-3.524-5.823,13.46,13.46,0,0,0-2.835-2.222,13.091,13.091,0,0,0-3.677-1.379,14.241,14.241,0,0,0-2.528-.306,8.571,8.571,0,0,0-2.758.383,9.154,9.154,0,0,0-1.992.843A7.289,7.289,0,0,0,8,106.477,7.564,7.564,0,0,0,7,110H7v.383a6.634,6.634,0,0,0,1.685,4.444,9.212,9.212,0,0,0,1.609,1.456,14.282,14.282,0,0,0,2.6,1.379c.843.306,1.685.536,2.452.766a73.193,73.193,0,0,0,10.726,1.915,2.7,2.7,0,0,0,.613-5.363,71.341,71.341,0,0,1-9.96-1.839,15.5,15.5,0,0,1-2.452-.766,5.714,5.714,0,0,1-.919-.536,4.378,4.378,0,0,1-.613-.536,4.691,4.691,0,0,1-.306-.46.833.833,0,0,1-.077-.383v-.077h0a2.8,2.8,0,0,1,.23-1.073,1.6,1.6,0,0,1,.306-.46,3.349,3.349,0,0,1,.766-.46,3.711,3.711,0,0,1,1.379-.23,8.441,8.441,0,0,1,1.379.153,6.974,6.974,0,0,1,2.758,1.149,9.114,9.114,0,0,1,1.532,1.456,11.887,11.887,0,0,1,1.762,3.065,29.131,29.131,0,0,1,1.226,3.907,2.677,2.677,0,0,0,3.218,1.992,2.548,2.548,0,0,0,2.069-3.141" transform="translate(-1.637 -24.032)"/>
  <path id="패스_225" data-name="패스 225" class="cls-2" d="M49.569,172.635a3.6,3.6,0,0,1-3.6,3.6H3.6a3.6,3.6,0,0,1-3.6-3.6V125.9a3.6,3.6,0,0,1,3.6-3.6H45.968a3.6,3.6,0,0,1,3.6,3.6Z" transform="translate(0 -28.592)"/>
  <rect id="사각형_97" data-name="사각형 97" class="cls-9" width="5.516" height="53.936" transform="translate(21.988 93.708)"/>
  <path id="패스_226" data-name="패스 226" class="cls-4" d="M73,101.873v12.1a1.073,1.073,0,1,0,2.145,0v-12.1a1.073,1.073,0,1,0-2.145,0" transform="translate(-17.073 -23.564)"/>
  <path id="패스_227" data-name="패스 227" class="cls-4" d="M78.277,108.6h-12.1a1.073,1.073,0,1,0,0,2.145h12.1a1.047,1.047,0,0,0,1.073-1.073,1.153,1.153,0,0,0-1.073-1.073" transform="translate(-15.225 -25.388)"/>
  <path id="패스_228" data-name="패스 228" class="cls-4" d="M67.695,104.921l8.581,8.5a1.023,1.023,0,0,0,1.532,0,1.164,1.164,0,0,0,0-1.532l-8.581-8.581a1.164,1.164,0,0,0-1.532,0,1.111,1.111,0,0,0,0,1.609" transform="translate(-15.751 -24.085)"/>
  <path id="패스_229" data-name="패스 229" class="cls-4" d="M76.275,103.395l-8.581,8.581a1.083,1.083,0,0,0,1.532,1.532l8.581-8.581a1.165,1.165,0,0,0,0-1.532,1.023,1.023,0,0,0-1.532,0" transform="translate(-15.751 -24.09)"/>
  <path id="패스_230" data-name="패스 230" class="cls-7" d="M20.857,92.655,7.067,77.409a2.013,2.013,0,0,0-2.758-.153,2.013,2.013,0,0,0-.153,2.758L17.946,95.26a2.013,2.013,0,0,0,2.758.153,1.877,1.877,0,0,0,.153-2.758" transform="translate(-0.861 -17.947)"/>
  <path id="패스_231" data-name="패스 231" class="cls-7" d="M93.459,95.252l13.79-15.246a1.953,1.953,0,0,0-2.911-2.6L90.548,92.647A1.949,1.949,0,0,0,90.7,95.4a1.881,1.881,0,0,0,2.758-.153" transform="translate(-21.06 -17.939)"/>
</svg>
