<svg xmlns="http://www.w3.org/2000/svg" viewBox="0 0 58.467 45.473">
  <defs>
    <style>
      .cls-1 {
        fill: #fdd35c;
      }

      .cls-2 {
        fill: #4d4d4d;
      }

      .cls-3 {
        fill: #74c6be;
      }

      .cls-4 {
        fill: #fff;
      }

      .cls-5 {
        fill: #f2e9b6;
      }

      .cls-6 {
        fill: #bce2e3;
      }

      .cls-7 {
        fill: #ea5541;
      }
    </style>
  </defs>
  <g id="그룹_1300" data-name="그룹 1300" transform="translate(0.011)">
    <g id="그룹_1288" data-name="그룹 1288" transform="translate(41.585 26.044)">
      <path id="패스_4832" data-name="패스 4832" class="cls-1" d="M55.839,34.063c0,1.075-2.646,1.406-3.638,1.406a1.986,1.986,0,0,1,0-3.969C53.194,31.5,55.839,32.906,55.839,34.063Z" transform="translate(-50.3 -31.5)"/>
      <path id="패스_4833" data-name="패스 4833" class="cls-2" d="M57.2,38.866c.909.661,1.736,1.323,1.157,2.15a2.032,2.032,0,0,1-2.728.413,1.9,1.9,0,0,1-.5-2.646C55.708,37.874,56.287,38.2,57.2,38.866Z" transform="translate(-51.078 -32.665)"/>
      <path id="패스_4834" data-name="패스 4834" class="cls-3" d="M63.4,36.671c.909.661,1.736,1.323,1.158,2.15a2.032,2.032,0,0,1-2.728.413,1.9,1.9,0,0,1-.5-2.646C61.991,35.679,62.569,36.093,63.4,36.671Z" transform="translate(-52.152 -32.289)"/>
    </g>
    <g id="그룹_1290" data-name="그룹 1290" transform="translate(35.652 23.233)">
      <g id="그룹_1289" data-name="그룹 1289">
        <path id="패스_4835" data-name="패스 4835" class="cls-4" d="M55.175,41.081h0a16.158,16.158,0,0,1-9.673-3.39,8,8,0,0,1-2.067-3.059,4.732,4.732,0,0,1,.579-4.465A5.025,5.025,0,0,1,48.23,28.1a34.3,34.3,0,0,1,9.012,1.406,40.246,40.246,0,0,1,4.713,1.654c2.563,1.24,3.886,2.646,3.969,4.134A3.66,3.66,0,0,1,64.435,38.1,16.6,16.6,0,0,1,55.175,41.081ZM48.313,28.927a4.388,4.388,0,0,0-3.555,1.736,4.062,4.062,0,0,0-.5,3.638,9.168,9.168,0,0,0,1.819,2.728,14.887,14.887,0,0,0,9.012,3.142h0a16.072,16.072,0,0,0,8.847-2.894,2.576,2.576,0,0,0,1.075-1.984c-.083-1.075-1.24-2.232-3.472-3.39a39.17,39.17,0,0,0-4.63-1.654,38.245,38.245,0,0,0-8.6-1.323Z" transform="translate(-43.123 -28.1)"/>
        <path id="패스_4836" data-name="패스 4836" class="cls-4" d="M47.809,38.7h-.083a.47.47,0,0,1-.331-.579c.083-.331,2.067-7.772,5.126-9.839a.482.482,0,0,1,.5.827c-2.811,1.9-4.8,9.26-4.8,9.343C48.222,38.617,48.057,38.7,47.809,38.7Z" transform="translate(-43.86 -28.117)"/>
        <path id="패스_4837" data-name="패스 4837" class="cls-4" d="M51.709,40.282h-.083A.47.47,0,0,1,51.3,39.7c.083-.331,2.232-7.854,5.291-9.921a.482.482,0,0,1,.5.827c-2.811,1.9-4.878,9.343-4.961,9.425A.7.7,0,0,1,51.709,40.282Z" transform="translate(-44.535 -28.376)"/>
        <path id="패스_4838" data-name="패스 4838" class="cls-4" d="M56,41.151h-.165a.554.554,0,0,1-.331-.579c.083-.331,2.48-7.524,5.539-9.591a.482.482,0,0,1,.5.827c-2.811,1.9-5.209,9.012-5.209,9.095C56.409,41.069,56.161,41.151,56,41.151Z" transform="translate(-45.267 -28.584)"/>
        <path id="패스_4839" data-name="패스 4839" class="cls-4" d="M62.209,41.267h-.083a.47.47,0,0,1-.331-.579c.083-.248,1.488-5.539,4.63-7.606a.482.482,0,0,1,.5.827c-2.811,1.9-4.217,7.028-4.217,7.028C62.54,41.1,62.374,41.267,62.209,41.267Z" transform="translate(-46.354 -28.948)"/>
      </g>
      <path id="패스_4840" data-name="패스 4840" class="cls-4" d="M62.388,40.495a.3.3,0,0,1-.248-.083,33.946,33.946,0,0,0-15.544-3.8.457.457,0,0,1-.083-.909,34.876,34.876,0,0,1,16.04,3.886.366.366,0,0,1,.165.579C62.636,40.412,62.553,40.495,62.388,40.495Z" transform="translate(-43.639 -29.416)"/>
      <path id="패스_4841" data-name="패스 4841" class="cls-4" d="M64.9,38.148a.627.627,0,0,1-.331-.165c-.083-.083-5.953-5.539-20.67-5.374h0a.524.524,0,0,1-.5-.413.463.463,0,0,1,.413-.5c15.213-.165,21.083,5.374,21.331,5.622a.5.5,0,0,1,0,.661C65.144,38.148,64.979,38.148,64.9,38.148Z" transform="translate(-43.171 -28.723)"/>
    </g>
    <g id="그룹_1293" data-name="그룹 1293" transform="translate(12.719)">
      <path id="패스_4842" data-name="패스 4842" class="cls-2" d="M38.63,24.761c-.248-.248-.579-.413-.827-.661L23,24.679a3.262,3.262,0,0,0-1.24.5,11.163,11.163,0,0,0-2.728,1.571c-2.15,1.488-3.8,3.721-3.638,6.449a4.871,4.871,0,0,0,3.472,4.217,17.645,17.645,0,0,0,3.472.827,35.851,35.851,0,0,0,7.854.248q3.348-.124,6.7-.5c1.984-.248,3.142.165,4.382-1.654a6.691,6.691,0,0,0,.992-3.059,19.082,19.082,0,0,1,.248-3.059c.5-1.323,2.15-1.24,3.307-1.24a11.251,11.251,0,0,1,3.307.331,13.329,13.329,0,0,1,2.4.744,2.937,2.937,0,0,1,.744.331l.827-1.736C45.823,23.025,39.87,24.431,38.63,24.761Z" transform="translate(-15.386 -4.174)"/>
      <g id="그룹_1292" data-name="그룹 1292" transform="translate(3.503)">
        <ellipse id="타원_125" data-name="타원 125" class="cls-2" cx="10.748" cy="11.823" rx="10.748" ry="11.823" transform="translate(0.642 1.157)"/>
        <ellipse id="타원_126" data-name="타원 126" class="cls-5" cx="8.847" cy="9.756" rx="8.847" ry="9.756" transform="translate(2.544 3.224)"/>
        <path id="패스_4843" data-name="패스 4843" class="cls-2" d="M21.3,13.847s8.847-11.162,19.843,0l-.992-5.539L34.611,5l-11,1.9L21.8,10.953Z" transform="translate(-19.914 -0.866)"/>
        <g id="그룹_1291" data-name="그룹 1291" transform="translate(2.544)">
          <path id="패스_4844" data-name="패스 4844" class="cls-6" d="M38.525,5.324A3.228,3.228,0,0,1,35.3,8.549H28.024A3.228,3.228,0,0,1,24.8,5.324h0A3.228,3.228,0,0,1,28.024,2.1H35.3a3.228,3.228,0,0,1,3.224,3.224Z" transform="translate(-23.064 -0.364)"/>
          <path id="패스_4845" data-name="패스 4845" class="cls-7" d="M34.936,1.736a3.224,3.224,0,1,1,0,6.449H27.661a3.224,3.224,0,1,1,0-6.449h7.276m0-1.736H27.661a4.961,4.961,0,1,0,0,9.921h7.276a4.961,4.961,0,0,0,0-9.921Z" transform="translate(-22.7)"/>
        </g>
        <path id="패스_4846" data-name="패스 4846" class="cls-2" d="M29.736,15.023c0,.744-.413,1.323-.827,1.323-.5,0-.909-.579-.909-1.323s.413-1.323.827-1.323C29.323,13.7,29.736,14.279,29.736,15.023Z" transform="translate(-21.074 -2.373)"/>
        <ellipse id="타원_127" data-name="타원 127" class="cls-2" cx="0.909" cy="1.323" rx="0.909" ry="1.323" transform="matrix(1, -0.003, 0.003, 1, 13.205, 11.578)"/>
        <path id="패스_4847" data-name="패스 4847" class="cls-2" d="M30.142,22.134a3.819,3.819,0,0,1-.579-.579.7.7,0,0,1,1.075-.909,1.964,1.964,0,0,0,1.406.827,2,2,0,0,0,1.406-.579.7.7,0,0,1,.992.992,3.9,3.9,0,0,1-2.4.909A2.268,2.268,0,0,1,30.142,22.134Z" transform="translate(-21.314 -3.531)"/>
        <path id="패스_4848" data-name="패스 4848" class="cls-7" d="M33.181,16.243c0-.083-.083-.083-.083-.165-.5-.413-.827.5-.992.827-.248.413-1.24,1.323-.827,1.819a2.21,2.21,0,0,0,1.736.413c1.158-.165.661-1.157.413-1.819A4.1,4.1,0,0,0,33.181,16.243Z" transform="translate(-21.625 -2.767)"/>
        <path id="패스_4849" data-name="패스 4849" class="cls-7" d="M45.057,12.845a.8.8,0,0,1-.744-.5,8.784,8.784,0,0,0-2.894-3.472.837.837,0,0,1,.909-1.406A10.9,10.9,0,0,1,45.883,11.6a.869.869,0,0,1-.413,1.157A.9.9,0,0,1,45.057,12.845Z" transform="translate(-23.332 -1.27)"/>
        <path id="패스_4850" data-name="패스 4850" class="cls-7" d="M20.514,13.25a.745.745,0,0,1-.413-.083.951.951,0,0,1-.413-1.157,10.133,10.133,0,0,1,3.555-4.134.837.837,0,0,1,1.157.331.89.89,0,0,1-.248,1.157,8.1,8.1,0,0,0-2.894,3.472A.868.868,0,0,1,20.514,13.25Z" transform="translate(-19.623 -1.344)"/>
      </g>
      <path id="패스_4851" data-name="패스 4851" class="cls-5" d="M59.988,31.236s.744.5.827,1.075a1.8,1.8,0,0,1,0,1.24v.165c0,.413.331.165.5,0a.825.825,0,0,0,.331-.413c0-.083.165-.5.083-.5,0,0,.413.413.165,1.571,0,.083-.083.248,0,.331.331.248.661-.661.744-.909,0-.083.165-.579.083-.661a1.454,1.454,0,0,1,.661.992c0,.083.083.248.165.248.248,0,.331-.579.331-.744a1.9,1.9,0,0,0-.331-1.157h.165c.165,0,.248.083.413.165a.847.847,0,0,1,.413.5c.083.083.165.579.413.413.165-.083.083-.661,0-.827a1.939,1.939,0,0,0-.909-.909h.827c.165,0,.413.165.579.165.331-.083-.165-.5-.331-.579l-.5-.248a16.526,16.526,0,0,0-1.736-.827c-.331-.165-.661-.248-1.075-.413h-.083l-.909-.413S59.657,30.988,59.988,31.236Z" transform="translate(-23.102 -5.11)"/>
    </g>
    <path id="패스_4852" data-name="패스 4852" class="cls-4" d="M12.078,42.109a1.533,1.533,0,0,1-.579-.165,8.058,8.058,0,0,1-4.3-7.028v-.827a8.361,8.361,0,0,1,5.622-7.606,1.205,1.205,0,0,1,.909,2.232A5.947,5.947,0,0,0,9.68,34.089v.827a5.592,5.592,0,0,0,3.142,4.878,1.2,1.2,0,0,1,.413,1.654A1.549,1.549,0,0,1,12.078,42.109Z" transform="translate(-1.249 -4.573)"/>
    <path id="패스_4853" data-name="패스 4853" class="cls-4" d="M40.855,50.352a1.29,1.29,0,0,1-1.075-.661,1.245,1.245,0,0,1,.579-1.571,20.529,20.529,0,0,0,4.547-2.976,1.171,1.171,0,0,1,1.571,1.736,20.92,20.92,0,0,1-5.126,3.307A.607.607,0,0,1,40.855,50.352Z" transform="translate(-6.876 -7.772)"/>
    <path id="패스_4854" data-name="패스 4854" class="cls-4" d="M3.554,28.418a1.334,1.334,0,0,1-.744-.248,1.179,1.179,0,0,1-.165-1.654A16.413,16.413,0,0,1,12.814,20.4a1.169,1.169,0,1,1,.331,2.315A13.807,13.807,0,0,0,4.463,28,1.328,1.328,0,0,1,3.554,28.418Z" transform="translate(-0.414 -3.531)"/>
    <path id="패스_4855" data-name="패스 4855" class="cls-4" d="M22.652,51.551C8.762,51.551.742,46.094,0,36.338A1.13,1.13,0,0,1,1.073,35.1a1.13,1.13,0,0,1,1.24,1.075c.744,10.748,11.492,13.063,20.339,13.063a45.157,45.157,0,0,0,4.8-.331,1.169,1.169,0,1,1,.331,2.315C26.124,51.386,24.388,51.551,22.652,51.551Z" transform="translate(0 -6.078)"/>
    <path id="패스_4856" data-name="패스 4856" class="cls-4" d="M26.05,48.086a31.638,31.638,0,0,1-6.532-.744,1.153,1.153,0,0,1,.579-2.232c2.563.579,9.177,1.654,14.634-1.24a1.165,1.165,0,0,1,1.075,2.067A22.451,22.451,0,0,1,26.05,48.086Z" transform="translate(-3.232 -7.573)"/>
  </g>
</svg>
