<svg xmlns="http://www.w3.org/2000/svg" viewBox="0 0 142.18 103.69">
  <defs>
    <style>
      .cls-1 {
        fill: #74c6be;
      }

      .cls-2 {
        fill: #ea5541;
      }

      .cls-3 {
        fill: #fff;
      }

      .cls-4 {
        fill: #fdd35c;
      }

      .cls-5 {
        fill: #bce2e3;
      }

      .cls-6 {
        opacity: 0.5;
      }

      .cls-7 {
        fill: #727171;
      }
    </style>
  </defs>
  <g id="그룹_690" data-name="그룹 690" transform="translate(0 0.01)">
    <g id="그룹_676" data-name="그룹 676">
      <g id="그룹_673" data-name="그룹 673">
        <path id="패스_3445" data-name="패스 3445" class="cls-1" d="M99.42,44.16a.274.274,0,0,0,.2.01c24.83-6.94,36.82-34.79,36.94-35.07a.283.283,0,0,0-.15-.38.286.286,0,0,0-.38.15c-.12.28-11.99,27.87-36.55,34.73a.29.29,0,0,0-.2.36A.208.208,0,0,0,99.42,44.16Z"/>
        <path id="패스_3446" data-name="패스 3446" class="cls-1" d="M107.38,40.86s3.09-2.3,5.07,2.27c.01,0-3.1,2.25-5.07-2.27"/>
        <path id="패스_3447" data-name="패스 3447" class="cls-1" d="M132.57,16.15s1.36-3.61,5.5-.84c0,0-1.4,3.57-5.5.84"/>
        <path id="패스_3448" data-name="패스 3448" class="cls-1" d="M109.94,39.41s2.96-1.32.42-4.65c0,0-2.92,1.35-.42,4.65"/>
        <path id="패스_3449" data-name="패스 3449" class="cls-1" d="M134.37,12.6s1.27-2.98-2.86-3.7c0,.01-1.23,2.99,2.86,3.7"/>
        <path id="패스_3450" data-name="패스 3450" class="cls-1" d="M115.72,20.06s-.27-3.23,3.87-2.62c0,0,.24,3.21-3.87,2.62"/>
        <path id="패스_3451" data-name="패스 3451" class="cls-1" d="M115.61,27.02s-.27-3.23,3.87-2.62c0,0,.23,3.21-3.87,2.62"/>
        <path id="패스_3452" data-name="패스 3452" class="cls-1" d="M111.97,29.53s-.28-3.23,3.86-2.62c0-.01.24,3.21-3.86,2.62"/>
        <path id="패스_3453" data-name="패스 3453" class="cls-1" d="M122.6,29.37s2.33-2.25-1.19-4.52c0,0-2.29,2.26,1.19,4.52"/>
        <path id="패스_3454" data-name="패스 3454" class="cls-1" d="M136,8.96s1.41-4.13,6.18-1.13c.01-.01-1.45,4.08-6.18,1.13"/>
        <path id="패스_3455" data-name="패스 3455" class="cls-1" d="M117.71,34.06s2.08-3.83,6.28-.08c0,0-2.12,3.78-6.28.08"/>
        <path id="패스_3456" data-name="패스 3456" class="cls-1" d="M128.07,23.06s2.45-4.46,7.33-.05c0,0-2.5,4.39-7.33.05"/>
        <path id="패스_3457" data-name="패스 3457" class="cls-1" d="M113.94,37.07c.01,0,.01.01,0,0a.294.294,0,0,0,.39-.15c.04-.1,3.77-9.6.99-19.26a.294.294,0,0,0-.36-.2.3.3,0,0,0-.2.36c2.73,9.46-.93,18.79-.97,18.88A.3.3,0,0,0,113.94,37.07Z"/>
        <path id="패스_3458" data-name="패스 3458" class="cls-1" d="M110.19,14.29s3.91-1.92,5.17,3.57c.01,0-3.91,1.86-5.17-3.57"/>
      </g>
      <path id="패스_3459" data-name="패스 3459" class="cls-2" d="M131.69,20.91a8.56,8.56,0,0,0-.24,1c-.34,3.3-4.75,2.57-6.45,1.18a4.235,4.235,0,0,1-1.16-2.06c-.29-.79-1.13-1.58-1.18-2.44-.09-1.43,1.4-2.9,2.51-3.5,1.39-.74,2.54-.16,3.61.74.5.41.95.9,1.48,1.26.86.57,1.63.94,1.65,2.13A6.18,6.18,0,0,1,131.69,20.91Z"/>
      <path id="패스_3460" data-name="패스 3460" class="cls-3" d="M126.18,18.55a1.659,1.659,0,1,0,2.19-.84A1.659,1.659,0,0,0,126.18,18.55Z"/>
      <path id="패스_3461" data-name="패스 3461" class="cls-4" d="M126.26,18.44a1.5,1.5,0,1,0,1.98-.76A1.491,1.491,0,0,0,126.26,18.44Z"/>
      <path id="패스_3462" data-name="패스 3462" class="cls-2" d="M118.17,24.93c-.21.95-.46,2.03-1.47,2.4-1.23.46-3.16.25-3.95-.92a4.018,4.018,0,0,1-.78-2.42,2.885,2.885,0,0,1,.85-1.7c.47-.49,1.18-1.13,1.93-1.01a2.913,2.913,0,0,1,1.22.74,2.214,2.214,0,0,0,.87.31,2.336,2.336,0,0,1,1.25.83,2.159,2.159,0,0,1,.09,1.71A.149.149,0,0,0,118.17,24.93Z"/>
      <g id="그룹_674" data-name="그룹 674">
        <path id="패스_3463" data-name="패스 3463" class="cls-3" d="M113.79,23.55a1.363,1.363,0,0,0,2.49,1.11,1.344,1.344,0,0,0-.69-1.79A1.363,1.363,0,0,0,113.79,23.55Z"/>
        <path id="패스_3464" data-name="패스 3464" class="cls-4" d="M113.86,23.46a1.231,1.231,0,1,0,1.63-.63A1.247,1.247,0,0,0,113.86,23.46Z"/>
      </g>
      <path id="패스_3465" data-name="패스 3465" class="cls-2" d="M140.97,6.58c-.2.95-.46,2.03-1.46,2.4-1.23.46-3.16.25-3.95-.91a4.026,4.026,0,0,1-.78-2.43,2.885,2.885,0,0,1,.85-1.7c.48-.49,1.18-1.13,1.92-1a2.814,2.814,0,0,1,1.22.74,2.4,2.4,0,0,0,.87.32,2.247,2.247,0,0,1,1.25.83,2.181,2.181,0,0,1,.1,1.7C140.97,6.54,140.97,6.56,140.97,6.58Z"/>
      <g id="그룹_675" data-name="그룹 675">
        <path id="패스_3466" data-name="패스 3466" class="cls-3" d="M136.59,5.2a1.363,1.363,0,1,0,1.8-.69A1.362,1.362,0,0,0,136.59,5.2Z"/>
        <path id="패스_3467" data-name="패스 3467" class="cls-4" d="M136.66,5.11a1.238,1.238,0,1,0,1.64-.62A1.23,1.23,0,0,0,136.66,5.11Z"/>
      </g>
    </g>
    <g id="그룹_689" data-name="그룹 689">
      <g id="그룹_677" data-name="그룹 677">
        <path id="패스_3468" data-name="패스 3468" class="cls-1" d="M6.39,68.85h0a.974.974,0,0,0,1.38-.16c.1-.13.21-.26.31-.39l.21-.26.99-1.23c.43-.54.87-1.08,1.3-1.63.2-.26.4-.53.6-.79.23-.32.45-.62.68-.9l.14-.18c.44-.55.99-1.23,1.49-1.26.44-.03,1.14.58,1.47.87l1.21,1.11a.977.977,0,0,0,1.32-1.44l-1.23-1.12a4.326,4.326,0,0,0-2.9-1.36,4.291,4.291,0,0,0-2.89,1.98l-.13.17c-.26.32-.51.66-.74.98-.18.25-.37.5-.55.74-.43.54-.86,1.07-1.29,1.61-.33.41-.67.82-1,1.24l-.21.25c-.11.14-.22.27-.33.42A.978.978,0,0,0,6.39,68.85Z"/>
      </g>
      <g id="그룹_678" data-name="그룹 678">
        <path id="패스_3469" data-name="패스 3469" class="cls-1" d="M3.4,68.56a.971.971,0,0,0,1.37-.15l6.06-7.58a4.267,4.267,0,0,1,1.04-.92,3.473,3.473,0,0,1,3.8.33L17.89,62a.972.972,0,0,0,1.37-.15.984.984,0,0,0-.15-1.38L16.89,58.7a5.437,5.437,0,0,0-6.01-.49,6.236,6.236,0,0,0-1.56,1.37l-6.08,7.6A1,1,0,0,0,3.4,68.56Z"/>
      </g>
      <g id="그룹_679" data-name="그룹 679">
        <path id="패스_3470" data-name="패스 3470" class="cls-1" d="M.36,68.25a.976.976,0,0,0,1.38-.16l7.37-9.22a5.964,5.964,0,0,1,7.9-.84l1.84,1.47a.971.971,0,0,0,1.37-.15.984.984,0,0,0-.15-1.38L18.2,56.48c-.02-.01-.04-.03-.06-.04a7.976,7.976,0,0,0-10.5,1.15.218.218,0,0,0-.04.05L.2,66.89A.99.99,0,0,0,.36,68.25Z"/>
      </g>
      <g id="그룹_680" data-name="그룹 680">
        <path id="패스_3471" data-name="패스 3471" class="cls-5" d="M22.62,83.77S34.15,87.72,36.3,98.35l3.81-1.11s1.53-10.5-10.31-19.1C29.8,78.13,23.65,77.67,22.62,83.77Z"/>
        <path id="패스_3472" data-name="패스 3472" class="cls-5" d="M87.23,77.97s11.49,8.77-6.56,19.25l-3.12-2.05s10.1-7.19,5.01-13.06Z"/>
        <path id="패스_3473" data-name="패스 3473" class="cls-5" d="M12.48,66.18a14.051,14.051,0,0,1,7.18-7.79c6.35-3.06,11.36-2.64,18.29-2.6,8.19.04,13.03.69,17.85-1.43,2.95-1.29,4.69-6.15,5.08-9.51,0-.04,3.02-26.09,9.4-28.67,0,0-7.67-7.24-1.88-16.19a16.935,16.935,0,0,1,7.67,10.58s.64.3,5.74.05h1.66s1.42-5.75,8.55-8.5A13.866,13.866,0,0,1,89.21,14.9c.19-.24,6.61,5.21,6.81,5.38,5.98,5.08,8.76,9.09,12.82,15.12a5.5,5.5,0,0,1,.8,4.76c-.37,1.63-2.39,3.8-3.61,4.87a8.628,8.628,0,0,1-5.87,2.39c-4.13-.04-8.9-.5-12.63-2.34.17.08.02.13.51,3.24.54,4.52,1.05,9.04,1.58,13.56,1.23,10.45-.75,20.36-11.55,24.74a43.643,43.643,0,0,1-12.03,2.81C53.59,90.6,47,91.11,34.48,89.36a48.215,48.215,0,0,1-10.39-2.6C15.4,83.49,9.09,75.56,12.48,66.18Z"/>
        <path id="패스_3474" data-name="패스 3474" class="cls-5" d="M75.01,87.72s13.2.45,18.81,10.79l3.6-2.37S95.68,84.77,80.67,79.6C80.67,79.6,74.15,81.07,75.01,87.72Z"/>
        <path id="패스_3475" data-name="패스 3475" class="cls-5" d="M15.31,80.84s10.24,9.51,2.27,12.48L13.93,94.4l2.21,2.84s15.4.48,10.96-12.59Z"/>
      </g>
      <path id="패스_3476" data-name="패스 3476" class="cls-1" d="M69.21,10.6S60.97,10.6,57,38.83c0,0-.28,3.65-3.52,3.1a1.988,1.988,0,0,0-2.18,1.61c-.45,2.15,2.2,2.66,3.74,2.7a7.321,7.321,0,0,0,1.4-.09c5.06-.92,5.31-6.23,6.18-10.27,1.04-4.87,1.46-9.8,3.73-14.25,1.39-2.72,3.69-4.51,5.91-6.64Z"/>
      <path id="패스_3477" data-name="패스 3477" class="cls-3" d="M34.01,92.68c.01.01.01.02.02.03a16.684,16.684,0,0,1,2.27,5.63l3.81-1.11a15.87,15.87,0,0,0-.55-5.74,2.156,2.156,0,0,0-2.61.57,1.694,1.694,0,0,1-2.06.56s-.5-.3-.79-.08Z"/>
      <path id="패스_3478" data-name="패스 3478" class="cls-3" d="M91.35,3.9s.73,5.87-2.36,9.01S87.49,6.6,91.35,3.9Z"/>
      <path id="패스_3479" data-name="패스 3479" class="cls-3" d="M68.5,2.31s-2.27,5.82,1.22,10.66C72.78,17.22,72.55,6.24,68.5,2.31Z"/>
      <g id="그룹_683" data-name="그룹 683" class="cls-6">
        <path id="패스_3480" data-name="패스 3480" class="cls-3" d="M97.62,30.75h0C97.72,30.88,97.73,30.9,97.62,30.75Z"/>
      </g>
      <path id="패스_3481" data-name="패스 3481" class="cls-1" d="M107.86,39.17l-.03-.26a.737.737,0,0,0-.76-.66h-.04a.732.732,0,0,0-.66.75v.05h0l.03.26a.353.353,0,0,1-.32.39.361.361,0,0,1-.4-.32l-.03-.27h0v-.08a1.459,1.459,0,0,1,1.31-1.51.277.277,0,0,0,.09-.01,1.45,1.45,0,0,1,1.01.35,1.425,1.425,0,0,1,.49.95l.03.26a.374.374,0,0,1-.32.4.328.328,0,0,1-.4-.3"/>
      <path id="패스_3482" data-name="패스 3482" class="cls-1" d="M103.88,40.54l-.14-.22h0a.682.682,0,0,0-.43-.32.752.752,0,0,0-.53.06l-.04.02a.735.735,0,0,0-.26.97l.02.04h0l.14.23a.348.348,0,0,1-.12.49.368.368,0,0,1-.5-.11l-.14-.23h0c-.01-.03-.03-.05-.04-.08a1.448,1.448,0,0,1,.52-1.92.351.351,0,0,1,.08-.05,1.508,1.508,0,0,1,1.06-.13,1.439,1.439,0,0,1,.86.64h0l.14.22a.366.366,0,0,1-.62.39Z"/>
      <g id="그룹_684" data-name="그룹 684">
        <path id="패스_3483" data-name="패스 3483" class="cls-1" d="M83.96,19.64a.973.973,0,0,0,.98-.97v-.6c-.13-2.19-.8-3.65-3.66-3.65H78.46a.98.98,0,1,0,0,1.96h2.82c1.36,0,1.61.13,1.71,1.78v.52A.962.962,0,0,0,83.96,19.64Z"/>
      </g>
      <g id="그룹_685" data-name="그룹 685">
        <path id="패스_3484" data-name="패스 3484" class="cls-1" d="M86.62,18.64a.98.98,0,0,0,.98-.97v-.56a.127.127,0,0,0-.01-.06,5.252,5.252,0,0,0-5.41-5.3H77.02a.98.98,0,1,0,0,1.96h5.14a3.32,3.32,0,0,1,3.49,3.44v.52A.958.958,0,0,0,86.62,18.64Z"/>
      </g>
      <g id="그룹_686" data-name="그룹 686">
        <path id="패스_3485" data-name="패스 3485" class="cls-1" d="M89.18,17.57a.982.982,0,0,0,.98-.98v-.27a7.119,7.119,0,0,0-7.11-7.11H75.37a.98.98,0,1,0,0,1.96h7.68a5.166,5.166,0,0,1,5.16,5.16v.27A.965.965,0,0,0,89.18,17.57Z"/>
      </g>
      <path id="패스_3486" data-name="패스 3486" class="cls-3" d="M98.32,32.25s-.07-.06-.19-.18c-.72-.73-3.3-3.13-2.67-5.53,0,0-2.92-.51-7.22-4.2,0,0,4.01,3.63,2.38,5.98C90.62,28.32,93.87,28.51,98.32,32.25Z"/>
      <path id="패스_3487" data-name="패스 3487" class="cls-3" d="M109.3,51.35l.01-.04c.01-.03.01-.05.02-.08s.01-.1.01-.14-.02-.08-.05-.09a.047.047,0,0,0-.08.01.185.185,0,0,0-.02.07.075.075,0,0,0,.01.05c0,.03.02.05.02.07a.368.368,0,0,0,.08.15"/>
      <path id="패스_3488" data-name="패스 3488" class="cls-3" d="M109.38,51.88v.03c-.01.03-.01.06-.02.09a.66.66,0,0,0-.01.14.153.153,0,0,0,.04.1.065.065,0,0,0,.09-.01.185.185,0,0,0,.02-.07.075.075,0,0,0-.01-.05.639.639,0,0,0-.02-.07c-.03-.06-.06-.11-.09-.16"/>
      <path id="패스_3489" data-name="패스 3489" class="cls-3" d="M109.08,51.66l-.04-.01c-.03-.01-.06-.01-.08-.02a.757.757,0,0,0-.15-.01.149.149,0,0,0-.09.04c-.03.03-.03.06.01.09a.185.185,0,0,0,.07.02.075.075,0,0,0,.05-.01.185.185,0,0,1,.07-.02c.05-.02.1-.05.16-.08"/>
      <path id="패스_3490" data-name="패스 3490" class="cls-3" d="M109.6,51.57l.03.01c.03,0,.06.01.08.01a.709.709,0,0,0,.14.01.178.178,0,0,0,.1-.04.06.06,0,0,0,0-.08.185.185,0,0,0-.07-.02.075.075,0,0,0-.05.01.254.254,0,0,0-.07.02.8.8,0,0,0-.16.08"/>
      <g id="그룹_687" data-name="그룹 687">
        <path id="패스_3491" data-name="패스 3491" class="cls-3" d="M62.98,52.51h.04a.3.3,0,0,0,.26-.34.9.9,0,0,1,.07-.39.3.3,0,0,0-.15-.4.313.313,0,0,0-.4.15,1.5,1.5,0,0,0-.11.72A.285.285,0,0,0,62.98,52.51Z"/>
        <path id="패스_3492" data-name="패스 3492" class="cls-3" d="M66.26,45.81h.05a.294.294,0,0,0,.25-.34.823.823,0,0,1,.06-.38.3.3,0,0,0-.15-.4.3.3,0,0,0-.4.15,1.563,1.563,0,0,0-.11.73A.294.294,0,0,0,66.26,45.81Z"/>
        <path id="패스_3493" data-name="패스 3493" class="cls-3" d="M63.12,45.85h.04a.3.3,0,0,0,.26-.34.915.915,0,0,1,.07-.4.286.286,0,0,0-.16-.39.313.313,0,0,0-.4.15,1.479,1.479,0,0,0-.11.71A.31.31,0,0,0,63.12,45.85Z"/>
        <path id="패스_3494" data-name="패스 3494" class="cls-3" d="M67.04,42.89h.04a.309.309,0,0,0,.26-.34,1.059,1.059,0,0,1,.06-.39.3.3,0,0,0-.55-.25,1.541,1.541,0,0,0-.11.72A.31.31,0,0,0,67.04,42.89Z"/>
        <path id="패스_3495" data-name="패스 3495" class="cls-3" d="M64.14,39.23h.04a.3.3,0,0,0,.26-.34.923.923,0,0,1,.07-.39.289.289,0,0,0-.15-.39.3.3,0,0,0-.4.16,1.5,1.5,0,0,0-.11.71A.284.284,0,0,0,64.14,39.23Z"/>
        <path id="패스_3496" data-name="패스 3496" class="cls-3" d="M64.7,44.02h.04a.3.3,0,0,0,.26-.34,1.179,1.179,0,0,1,.06-.4.294.294,0,0,0-.16-.39.3.3,0,0,0-.39.16,1.5,1.5,0,0,0-.11.71A.3.3,0,0,0,64.7,44.02Z"/>
        <path id="패스_3497" data-name="패스 3497" class="cls-3" d="M65.61,36.93h.05a.3.3,0,0,0,.25-.34.923.923,0,0,1,.07-.39.3.3,0,0,0-.55-.25,1.424,1.424,0,0,0-.11.72A.3.3,0,0,0,65.61,36.93Z"/>
        <path id="패스_3498" data-name="패스 3498" class="cls-3" d="M66.4,39.76h.04a.3.3,0,0,0,.25-.34.879.879,0,0,1,.07-.38.3.3,0,0,0-.15-.4.293.293,0,0,0-.4.15,1.424,1.424,0,0,0-.11.72A.293.293,0,0,0,66.4,39.76Z"/>
        <path id="패스_3499" data-name="패스 3499" class="cls-3" d="M64.93,41.35h.04a.311.311,0,0,0,.26-.34,1.059,1.059,0,0,1,.06-.39.3.3,0,1,0-.55-.25,1.5,1.5,0,0,0-.11.72A.3.3,0,0,0,64.93,41.35Z"/>
        <path id="패스_3500" data-name="패스 3500" class="cls-3" d="M63.94,48.07h.04a.3.3,0,0,0,.26-.34.967.967,0,0,1,.07-.4.289.289,0,0,0-.15-.39.3.3,0,0,0-.4.16,1.479,1.479,0,0,0-.11.71A.285.285,0,0,0,63.94,48.07Z"/>
        <path id="패스_3501" data-name="패스 3501" class="cls-3" d="M64.8,51.01h.04a.289.289,0,0,0,.25-.34,1.125,1.125,0,0,1,.06-.39.3.3,0,0,0-.15-.4.3.3,0,0,0-.4.15,1.541,1.541,0,0,0-.11.72A.32.32,0,0,0,64.8,51.01Z"/>
        <path id="패스_3502" data-name="패스 3502" class="cls-3" d="M62.78,50.01h.05a.3.3,0,0,0,.25-.34.95.95,0,0,1,.07-.39.3.3,0,0,0-.15-.4.313.313,0,0,0-.4.15,1.561,1.561,0,0,0-.11.72A.284.284,0,0,0,62.78,50.01Z"/>
        <path id="패스_3503" data-name="패스 3503" class="cls-3" d="M66.34,48.91h.04a.3.3,0,0,0,.26-.34,1.036,1.036,0,0,1,.07-.39.3.3,0,0,0-.15-.4.313.313,0,0,0-.4.15,1.519,1.519,0,0,0-.11.71A.286.286,0,0,0,66.34,48.91Z"/>
        <path id="패스_3504" data-name="패스 3504" class="cls-3" d="M18.47,67.29a.279.279,0,0,0,.26-.15,1.1,1.1,0,0,1,.27-.3.3.3,0,0,0-.3-.52,1.507,1.507,0,0,0-.49.52.3.3,0,0,0,.12.41A.23.23,0,0,0,18.47,67.29Z"/>
        <path id="패스_3505" data-name="패스 3505" class="cls-3" d="M21.02,67.2a.279.279,0,0,0,.26-.15.994.994,0,0,1,.27-.3.3.3,0,0,0-.3-.52,1.425,1.425,0,0,0-.49.52.3.3,0,0,0,.12.41A.325.325,0,0,0,21.02,67.2Z"/>
        <path id="패스_3506" data-name="패스 3506" class="cls-3" d="M21.24,61.73a.315.315,0,0,0,.27-.16.758.758,0,0,1,.27-.29.3.3,0,1,0-.3-.52,1.626,1.626,0,0,0-.49.53.307.307,0,0,0,.12.41A.415.415,0,0,0,21.24,61.73Z"/>
        <path id="패스_3507" data-name="패스 3507" class="cls-3" d="M19.07,64.52a.288.288,0,0,0,.26-.16.862.862,0,0,1,.28-.29.3.3,0,1,0-.31-.51,1.6,1.6,0,0,0-.49.52.307.307,0,0,0,.12.41A.353.353,0,0,0,19.07,64.52Z"/>
        <path id="패스_3508" data-name="패스 3508" class="cls-3" d="M21.06,64.27a.315.315,0,0,0,.27-.16.8.8,0,0,1,.26-.29.3.3,0,1,0-.3-.52,1.477,1.477,0,0,0-.49.54.288.288,0,0,0,.13.4A.308.308,0,0,0,21.06,64.27Z"/>
        <path id="패스_3509" data-name="패스 3509" class="cls-3" d="M18.88,62.32a.279.279,0,0,0,.26-.15,1.011,1.011,0,0,1,.28-.3.294.294,0,0,0,.1-.41.309.309,0,0,0-.41-.11,1.6,1.6,0,0,0-.49.52.3.3,0,0,0,.12.41A.23.23,0,0,0,18.88,62.32Z"/>
        <path id="패스_3510" data-name="패스 3510" class="cls-3" d="M16.75,66.4a.3.3,0,0,0,.27-.16.843.843,0,0,1,.27-.29.3.3,0,1,0-.31-.51,1.533,1.533,0,0,0-.49.53.307.307,0,0,0,.12.41A.59.59,0,0,0,16.75,66.4Z"/>
        <path id="패스_3511" data-name="패스 3511" class="cls-3" d="M81.55,73.85a.3.3,0,0,0,.26-.16.843.843,0,0,1,.27-.29.306.306,0,0,0,.11-.41.289.289,0,0,0-.41-.11,1.574,1.574,0,0,0-.5.53.3.3,0,0,0,.12.41A1.31,1.31,0,0,0,81.55,73.85Z"/>
        <path id="패스_3512" data-name="패스 3512" class="cls-3" d="M84.11,73.75a.3.3,0,0,0,.26-.15.994.994,0,0,1,.27-.3.3.3,0,0,0-.3-.52,1.507,1.507,0,0,0-.49.52.3.3,0,0,0,.12.41A.23.23,0,0,0,84.11,73.75Z"/>
        <path id="패스_3513" data-name="패스 3513" class="cls-3" d="M84.33,68.28a.315.315,0,0,0,.27-.16.843.843,0,0,1,.27-.29.3.3,0,0,0-.3-.52,1.567,1.567,0,0,0-.5.53.307.307,0,0,0,.12.41A.319.319,0,0,0,84.33,68.28Z"/>
        <path id="패스_3514" data-name="패스 3514" class="cls-3" d="M82.16,71.08a.315.315,0,0,0,.27-.16.984.984,0,0,1,.27-.3.3.3,0,0,0-.31-.51,1.626,1.626,0,0,0-.49.53.307.307,0,0,0,.12.41A.319.319,0,0,0,82.16,71.08Z"/>
        <path id="패스_3515" data-name="패스 3515" class="cls-3" d="M84.15,70.82a.315.315,0,0,0,.27-.16,1.1,1.1,0,0,1,.27-.3.3.3,0,0,0-.31-.51,1.533,1.533,0,0,0-.49.53.31.31,0,0,0,.12.41A.319.319,0,0,0,84.15,70.82Z"/>
        <path id="패스_3516" data-name="패스 3516" class="cls-3" d="M81.97,68.88a.311.311,0,0,0,.26-.15.994.994,0,0,1,.27-.3.3.3,0,0,0-.3-.52,1.574,1.574,0,0,0-.5.53.3.3,0,0,0,.12.41A.4.4,0,0,0,81.97,68.88Z"/>
        <path id="패스_3517" data-name="패스 3517" class="cls-3" d="M79.84,72.96a.272.272,0,0,0,.26-.16,1.131,1.131,0,0,1,.27-.3.3.3,0,0,0-.3-.52,1.671,1.671,0,0,0-.5.53.3.3,0,0,0,.12.41A.282.282,0,0,0,79.84,72.96Z"/>
        <path id="패스_3518" data-name="패스 3518" class="cls-3" d="M55.37,85.22a1.232,1.232,0,0,0,.2-.02.3.3,0,1,0-.11-.59.942.942,0,0,1-.4-.04.3.3,0,0,0-.39.18.289.289,0,0,0,.18.38A1.564,1.564,0,0,0,55.37,85.22Z"/>
        <path id="패스_3519" data-name="패스 3519" class="cls-3" d="M58.87,84.6a.972.972,0,0,0,.18-.01.3.3,0,1,0-.11-.59,1.155,1.155,0,0,1-.4-.05.286.286,0,0,0-.38.18.289.289,0,0,0,.18.38A1.676,1.676,0,0,0,58.87,84.6Z"/>
        <path id="패스_3520" data-name="패스 3520" class="cls-3" d="M47.63,85.06a1.232,1.232,0,0,0,.2-.02.3.3,0,1,0-.11-.59.869.869,0,0,1-.39-.04.3.3,0,0,0-.39.17.3.3,0,0,0,.16.39A1.512,1.512,0,0,0,47.63,85.06Z"/>
        <path id="패스_3521" data-name="패스 3521" class="cls-3" d="M44.68,84.43a1.148,1.148,0,0,0,.19-.01.3.3,0,0,0,.24-.35.3.3,0,0,0-.35-.24.942.942,0,0,1-.4-.04.3.3,0,0,0-.22.56A2.052,2.052,0,0,0,44.68,84.43Z"/>
        <path id="패스_3522" data-name="패스 3522" class="cls-3" d="M43.2,86.33a1.232,1.232,0,0,0,.2-.02.3.3,0,0,0,.24-.35.3.3,0,0,0-.35-.24.855.855,0,0,1-.39-.04.3.3,0,0,0-.39.16.3.3,0,0,0,.17.39A1.238,1.238,0,0,0,43.2,86.33Z"/>
        <path id="패스_3523" data-name="패스 3523" class="cls-3" d="M45.93,86.71a.9.9,0,0,0,.18-.02.3.3,0,0,0,.24-.35A.3.3,0,0,0,46,86.1a1.135,1.135,0,0,1-.4-.04.3.3,0,0,0-.39.18.289.289,0,0,0,.18.38A1.8,1.8,0,0,0,45.93,86.71Z"/>
        <path id="패스_3524" data-name="패스 3524" class="cls-3" d="M48.52,83.35a1.232,1.232,0,0,0,.2-.02.3.3,0,0,0,.24-.35.29.29,0,0,0-.35-.23,1.074,1.074,0,0,1-.39-.05.3.3,0,0,0-.39.18.3.3,0,0,0,.17.39A1.894,1.894,0,0,0,48.52,83.35Z"/>
        <path id="패스_3525" data-name="패스 3525" class="cls-3" d="M50.01,87.25a.555.555,0,0,0,.19-.02.3.3,0,0,0,.24-.35.3.3,0,0,0-.35-.24,1.113,1.113,0,0,1-.4-.04.3.3,0,0,0-.39.17.3.3,0,0,0,.18.39A1.676,1.676,0,0,0,50.01,87.25Z"/>
        <path id="패스_3526" data-name="패스 3526" class="cls-3" d="M52.9,86.23a1.108,1.108,0,0,0,.19-.02.3.3,0,0,0,.24-.35.292.292,0,0,0-.35-.24.768.768,0,0,1-.39-.05.307.307,0,0,0-.39.17.3.3,0,0,0,.17.39A1.353,1.353,0,0,0,52.9,86.23Z"/>
        <path id="패스_3527" data-name="패스 3527" class="cls-3" d="M56.31,83.05a.681.681,0,0,0,.2-.02.3.3,0,1,0-.11-.59.884.884,0,0,1-.39-.04.3.3,0,0,0-.22.56A1.473,1.473,0,0,0,56.31,83.05Z"/>
        <path id="패스_3528" data-name="패스 3528" class="cls-3" d="M50.73,84.8a1.226,1.226,0,0,0,.19-.02.3.3,0,1,0-.11-.59,1.113,1.113,0,0,1-.4-.04.3.3,0,0,0-.39.18.307.307,0,0,0,.17.39A2.052,2.052,0,0,0,50.73,84.8Z"/>
      </g>
      <path id="패스_3529" data-name="패스 3529" class="cls-3" d="M88.37,92.35a20.912,20.912,0,0,1,5.32,5.91l3.73-2.12a18.72,18.72,0,0,0-4.14-8.2,2.267,2.267,0,0,0-3.14,2.04s.22,1.38-.78,1.61a.846.846,0,0,0-.99.54v.22Z"/>
      <path id="패스_3530" data-name="패스 3530" class="cls-3" d="M81.34,91.61a23.168,23.168,0,0,1-3.8,3.56l3.12,2.05a36.234,36.234,0,0,0,5.03-3.46s-2.45.54-3.06-.87S81.34,91.61,81.34,91.61Z"/>
      <path id="패스_3531" data-name="패스 3531" class="cls-3" d="M19.58,92.13a5.723,5.723,0,0,1-2,1.19L13.93,94.4l2.21,2.84a18.762,18.762,0,0,0,6.18-1s.45-1.53-1.79-2.14c0,0-1.3-.08-1.11-1.25Z"/>
      <g id="그룹_688" data-name="그룹 688">
        <path id="패스_3532" data-name="패스 3532" class="cls-7" d="M42.79,103.18l-6.88.04.36-5.18,3.84-.8Z"/>
        <path id="패스_3533" data-name="패스 3533" class="cls-7" d="M102.08,101.46l-7.13,2.22-1.26-5.42,3.74-2.11Z"/>
        <path id="패스_3534" data-name="패스 3534" class="cls-7" d="M13.92,94.4l2.22,2.84-4.59,1.93-2.44-4.1Z"/>
        <path id="패스_3535" data-name="패스 3535" class="cls-7" d="M80.67,97.22,78.4,94.43l-4.01,1.72,3.1,3.46Z"/>
        <path id="패스_3536" data-name="패스 3536" class="cls-7" d="M93.73,22.34a1.265,1.265,0,1,0,1.26-1.27A1.263,1.263,0,0,0,93.73,22.34Z"/>
        <path id="패스_3537" data-name="패스 3537" class="cls-7" d="M83.98,27.36a1.38,1.38,0,1,0,1.38-1.38A1.376,1.376,0,0,0,83.98,27.36Z"/>
      </g>
    </g>
  </g>
</svg>
