<svg id="그룹_1128" data-name="그룹 1128" xmlns="http://www.w3.org/2000/svg" viewBox="0 0 24.675 22.567">
  <defs>
    <style>
      .cls-1 {
        fill: #fff;
      }

      .cls-2 {
        fill: #28c942;
      }
    </style>
  </defs>
  <g id="그룹_1038" data-name="그룹 1038" transform="translate(0 6.815)">
    <g id="그룹_1037" data-name="그룹 1037">
      <g id="그룹_1036" data-name="그룹 1036">
        <g id="그룹_1035" data-name="그룹 1035">
          <g id="그룹_1034" data-name="그룹 1034">
            <path id="패스_4376" data-name="패스 4376" class="cls-1" d="M12.815,36.68h0c-2.247,0-5.34-1.758-8.206-4.657A18.314,18.314,0,0,1,.571,26.259c-.814-2.052-.716-3.712.293-4.722a2.32,2.32,0,0,1,.716-.488,1.348,1.348,0,0,1,1.5.261L6.66,24.957a1.3,1.3,0,0,1,.261,1.465A2.527,2.527,0,0,0,7.735,28.9a2.982,2.982,0,0,0,1.954.944,1.35,1.35,0,0,0,.521-.1A1.343,1.343,0,0,1,11.675,30l3.582,3.647a1.285,1.285,0,0,1,.228,1.5,2.124,2.124,0,0,1-.521.684A2.868,2.868,0,0,1,12.815,36.68ZM2.1,22.612c-.033.033-.065.065-.1.065-.488.488-.488,1.563.065,2.931a16.927,16.927,0,0,0,3.68,5.21c2.507,2.54,5.275,4.2,7.066,4.2h0a1.439,1.439,0,0,0,1.042-.358c.033-.033.065-.065.065-.1l-3.256-3.289a3.07,3.07,0,0,1-.977.163A4.554,4.554,0,0,1,6.563,30a4.018,4.018,0,0,1-1.2-4.1Z" transform="translate(-0.026 -20.928)"/>
          </g>
        </g>
      </g>
    </g>
  </g>
  <g id="그룹_1039" data-name="그룹 1039" transform="translate(8.165)">
    <path id="패스_4377" data-name="패스 4377" class="cls-2" d="M30.18,13.937a.748.748,0,0,1-.456-.13.811.811,0,0,1-.358-.847l.261-1.237H29.3a4.211,4.211,0,0,1-4.2-4.2V4.2A4.211,4.211,0,0,1,29.3,0h8.108a4.211,4.211,0,0,1,4.2,4.2V7.49a4.211,4.211,0,0,1-4.2,4.2H33.567l-2.9,2.084A.736.736,0,0,1,30.18,13.937ZM29.3,1.628A2.578,2.578,0,0,0,26.728,4.2V7.49A2.578,2.578,0,0,0,29.3,10.062h1.368a.715.715,0,0,1,.619.293.761.761,0,0,1,.163.684l-.033.2,1.4-1.009a.8.8,0,0,1,.488-.163h4.1A2.578,2.578,0,0,0,39.982,7.49V4.2a2.578,2.578,0,0,0-2.573-2.573H29.3Z" transform="translate(-25.1)"/>
  </g>
</svg>
