<svg xmlns="http://www.w3.org/2000/svg" viewBox="0 0 174.591 81.918">
  <defs>
    <style>
      .cls-1 {
        opacity: 0.1;
      }

      .cls-2 {
        fill: #f9c164;
      }

      .cls-3 {
        fill: #ea5541;
      }

      .cls-4 {
        fill: #74c6be;
      }

      .cls-5 {
        fill: #fdd35c;
      }

      .cls-6 {
        opacity: 0.5;
      }

      .cls-7 {
        fill: #fff;
      }

      .cls-8 {
        fill: #bce2e3;
      }

      .cls-9 {
        fill: #727171;
      }
    </style>
  </defs>
  <g id="그룹_1444" data-name="그룹 1444" transform="translate(-39.381 -837.408)">
    <g id="그룹_1443" data-name="그룹 1443" class="cls-1" transform="translate(39.381 838.078)">
      <g id="그룹_1420" data-name="그룹 1420" transform="translate(0 0)">
        <g id="그룹_1416" data-name="그룹 1416">
          <path id="패스_5506" data-name="패스 5506" d="M49,13.573a17.4,17.4,0,0,1,2.275-5.716,7.2,7.2,0,0,1,1.768-1.835,6.6,6.6,0,0,1,2.447-1.061,5.045,5.045,0,0,1,1.223-.134,3.74,3.74,0,0,1,1.1.143,2.076,2.076,0,0,1,.564.249,1.4,1.4,0,0,1,.5.507,2.373,2.373,0,0,1,.277,1.032h0v.048a.845.845,0,0,1-.076.354,1.652,1.652,0,0,1-.277.44,3.8,3.8,0,0,1-1.357.946,14.009,14.009,0,0,1-2.189.717,70.483,70.483,0,0,1-8.918,1.625,2.407,2.407,0,0,0,.574,4.779,73.552,73.552,0,0,0,9.54-1.74,18.78,18.78,0,0,0,2.982-.994,8.553,8.553,0,0,0,3.03-2.208,6.662,6.662,0,0,0,1.071-1.759,5.579,5.579,0,0,0,.421-2.16c0-.115,0-.239-.01-.354h0a7.34,7.34,0,0,0-.746-2.829A6.057,6.057,0,0,0,61.951,1.95a6.63,6.63,0,0,0-2.514-1.5A7.762,7.762,0,0,0,56.713,0a10.457,10.457,0,0,0-2.256.249,11.512,11.512,0,0,0-4.206,1.845,11.841,11.841,0,0,0-2.323,2.2,16,16,0,0,0-2.285,3.957,27.243,27.243,0,0,0-1.319,4.2A2.4,2.4,0,1,0,49,13.573Z" transform="translate(-1.951 0)"/>
          <path id="패스_5507" data-name="패스 5507" d="M47.863,12.445a21.96,21.96,0,0,0-2.992-7.322,12.113,12.113,0,0,0-2.944-3.03A11.512,11.512,0,0,0,37.721.249,10.457,10.457,0,0,0,35.465,0a9.005,9.005,0,0,0-2.457.335,7.186,7.186,0,0,0-1.759.784A6.27,6.27,0,0,0,29.128,3.3a7.047,7.047,0,0,0-.908,3.145h0c-.01.115-.01.239-.01.354a5.954,5.954,0,0,0,.421,2.16A6.662,6.662,0,0,0,29.7,10.715a8.637,8.637,0,0,0,3.03,2.208,17.37,17.37,0,0,0,2.992.994,73.847,73.847,0,0,0,9.54,1.74,2.407,2.407,0,0,0,.574-4.779,68.823,68.823,0,0,1-8.918-1.625,14.009,14.009,0,0,1-2.189-.717,3.681,3.681,0,0,1-1.357-.946,1.707,1.707,0,0,1-.277-.44.845.845,0,0,1-.076-.354V6.748h0a2.435,2.435,0,0,1,.229-.956,1.315,1.315,0,0,1,.277-.382A1.864,1.864,0,0,1,34.241,5a3.672,3.672,0,0,1,1.2-.182,5.6,5.6,0,0,1,1.223.143,6.6,6.6,0,0,1,2.447,1.061,7.017,7.017,0,0,1,1.367,1.3,11.024,11.024,0,0,1,1.587,2.772,24.3,24.3,0,0,1,1.09,3.479,2.418,2.418,0,0,0,4.7-1.128" transform="translate(-1.245)"/>
          <path id="패스_5508" data-name="패스 5508" d="M67.487,44.91a3.206,3.206,0,0,1-3.212,3.212H26.452A3.206,3.206,0,0,1,23.24,44.91V17.162a3.206,3.206,0,0,1,3.212-3.212H64.275a3.206,3.206,0,0,1,3.212,3.212Z" transform="translate(-1.026 -0.616)"/>
          <path id="패스_5509" data-name="패스 5509" d="M75.563,38.417a5.686,5.686,0,0,0-1.233.143c-2.523.554-4.263,2.218-5.506,5.4,1.873-.306,3.623-.679,5.276-1.1A7.1,7.1,0,0,0,77.647,41.2,1.278,1.278,0,0,0,78,40.358a1.8,1.8,0,0,0-.65-1.462,2.984,2.984,0,0,0-1.787-.478M65.469,49.276a2.406,2.406,0,0,1-2.371-2.82,2.048,2.048,0,0,1,.067-.411c1.09-4.521,3.317-10.7,10.142-12.2a8.486,8.486,0,0,1,6.949,1.195,6.509,6.509,0,0,1,2.552,5,6,6,0,0,1-1.482,4.263A11.122,11.122,0,0,1,75.3,47.517a73.647,73.647,0,0,1-9.539,1.74,2.9,2.9,0,0,1-.3.019" transform="translate(-2.783 -1.483)"/>
          <path id="패스_5510" data-name="패스 5510" d="M54.315,38.417a2.984,2.984,0,0,0-1.787.478,1.782,1.782,0,0,0-.65,1.462,1.258,1.258,0,0,0,.354.841,7.1,7.1,0,0,0,3.546,1.663c1.654.43,3.4.793,5.276,1.1-1.252-3.183-2.982-4.846-5.506-5.4a5.686,5.686,0,0,0-1.233-.143M64.409,49.276c-.1,0-.191-.01-.287-.019a73.347,73.347,0,0,1-9.54-1.74c-2.189-.564-4.435-1.338-6.022-3.212a6.014,6.014,0,0,1-1.482-4.263,6.492,6.492,0,0,1,2.552-5,8.486,8.486,0,0,1,6.949-1.195c6.825,1.5,9.052,7.676,10.142,12.2a2.048,2.048,0,0,1,.067.411,2.406,2.406,0,0,1-2.38,2.82" transform="translate(-2.078 -1.483)"/>
          <path id="패스_5511" data-name="패스 5511" d="M86.346,78.51a3.206,3.206,0,0,1-3.212,3.212H45.3A3.206,3.206,0,0,1,42.09,78.51V50.762A3.206,3.206,0,0,1,45.3,47.55H83.125a3.206,3.206,0,0,1,3.212,3.212V78.51Z" transform="translate(-1.858 -2.099)"/>
          <rect id="사각형_515" data-name="사각형 515" width="4.951" height="34.335" transform="translate(59.885 45.289)"/>
          <path id="패스_5512" data-name="패스 5512" d="M25.759,32.794a17.4,17.4,0,0,1,2.275-5.716A7.2,7.2,0,0,1,29.8,25.242a6.6,6.6,0,0,1,2.447-1.061,5.045,5.045,0,0,1,1.224-.134,3.74,3.74,0,0,1,1.1.143,2.075,2.075,0,0,1,.564.249,1.51,1.51,0,0,1,.507.507,2.264,2.264,0,0,1,.268,1.032h0v.048a.845.845,0,0,1-.076.354,1.652,1.652,0,0,1-.277.44,3.8,3.8,0,0,1-1.357.946,14.009,14.009,0,0,1-2.189.717,70.483,70.483,0,0,1-8.918,1.625,2.407,2.407,0,0,0,.574,4.779,73.553,73.553,0,0,0,9.54-1.74,18.152,18.152,0,0,0,2.982-.994,8.553,8.553,0,0,0,3.03-2.208,6.662,6.662,0,0,0,1.071-1.759,5.579,5.579,0,0,0,.421-2.16c0-.115,0-.229-.01-.354h0a7.341,7.341,0,0,0-.746-2.839,6.223,6.223,0,0,0-1.233-1.673,6.63,6.63,0,0,0-2.514-1.5,8.537,8.537,0,0,0-2.753-.43,10.68,10.68,0,0,0-2.265.249,11.512,11.512,0,0,0-4.206,1.845,11.841,11.841,0,0,0-2.323,2.2,15.7,15.7,0,0,0-2.285,3.957,28.385,28.385,0,0,0-1.329,4.2,2.422,2.422,0,0,0,4.712,1.118Z" transform="translate(-0.926 -0.849)"/>
          <path id="패스_5513" data-name="패스 5513" d="M24.622,31.665a21.96,21.96,0,0,0-2.992-7.322,12.113,12.113,0,0,0-2.944-3.03,11.512,11.512,0,0,0-4.206-1.845,10.612,10.612,0,0,0-2.265-.249,9.005,9.005,0,0,0-2.457.335A7.187,7.187,0,0,0,8,20.338a6.138,6.138,0,0,0-2.122,2.189,7.047,7.047,0,0,0-.908,3.145h0c-.01.115-.01.229-.01.354a5.954,5.954,0,0,0,.421,2.16,6.662,6.662,0,0,0,1.071,1.759,8.638,8.638,0,0,0,3.03,2.208,17.562,17.562,0,0,0,2.982.994A73.848,73.848,0,0,0,22,34.887a2.407,2.407,0,1,0,.574-4.779,68.822,68.822,0,0,1-8.918-1.625,14.009,14.009,0,0,1-2.189-.717,3.8,3.8,0,0,1-1.357-.946,1.817,1.817,0,0,1-.277-.44,1.027,1.027,0,0,1-.076-.354v-.048h0a2.435,2.435,0,0,1,.229-.956,1.315,1.315,0,0,1,.277-.382,1.864,1.864,0,0,1,.717-.411,3.672,3.672,0,0,1,1.2-.182,6.388,6.388,0,0,1,1.233.134,6.6,6.6,0,0,1,2.447,1.061,7.017,7.017,0,0,1,1.367,1.3,11.024,11.024,0,0,1,1.587,2.772,24.3,24.3,0,0,1,1.09,3.479,2.423,2.423,0,0,0,4.712-1.128" transform="translate(-0.219 -0.848)"/>
          <path id="패스_5514" data-name="패스 5514" d="M44.247,78.115a3.206,3.206,0,0,1-3.212,3.212H3.212A3.213,3.213,0,0,1,0,78.115V36.392A3.206,3.206,0,0,1,3.212,33.18H41.035a3.206,3.206,0,0,1,3.212,3.212Z" transform="translate(0 -1.465)"/>
          <rect id="사각형_516" data-name="사각형 516" width="4.951" height="48.147" transform="translate(19.653 31.715)"/>
        </g>
      </g>
    </g>
    <g id="그룹_1443-2" data-name="그룹 1443" transform="translate(39.381 837.408)">
      <g id="그룹_1420-2" data-name="그룹 1420" transform="translate(0 0)">
        <g id="그룹_1416-2" data-name="그룹 1416">
          <path id="패스_5506-2" data-name="패스 5506" class="cls-2" d="M49,13.573a17.4,17.4,0,0,1,2.275-5.716,7.2,7.2,0,0,1,1.768-1.835,6.6,6.6,0,0,1,2.447-1.061,5.045,5.045,0,0,1,1.223-.134,3.74,3.74,0,0,1,1.1.143,2.076,2.076,0,0,1,.564.249,1.4,1.4,0,0,1,.5.507,2.373,2.373,0,0,1,.277,1.032h0v.048a.845.845,0,0,1-.076.354,1.652,1.652,0,0,1-.277.44,3.8,3.8,0,0,1-1.357.946,14.009,14.009,0,0,1-2.189.717,70.483,70.483,0,0,1-8.918,1.625,2.407,2.407,0,0,0,.574,4.779,73.552,73.552,0,0,0,9.54-1.74,18.78,18.78,0,0,0,2.982-.994,8.553,8.553,0,0,0,3.03-2.208,6.662,6.662,0,0,0,1.071-1.759,5.579,5.579,0,0,0,.421-2.16c0-.115,0-.239-.01-.354h0a7.34,7.34,0,0,0-.746-2.829A6.057,6.057,0,0,0,61.951,1.95a6.63,6.63,0,0,0-2.514-1.5A7.762,7.762,0,0,0,56.713,0a10.457,10.457,0,0,0-2.256.249,11.512,11.512,0,0,0-4.206,1.845,11.841,11.841,0,0,0-2.323,2.2,16,16,0,0,0-2.285,3.957,27.243,27.243,0,0,0-1.319,4.2A2.4,2.4,0,1,0,49,13.573Z" transform="translate(-1.951 0)"/>
          <path id="패스_5507-2" data-name="패스 5507" class="cls-2" d="M47.863,12.445a21.96,21.96,0,0,0-2.992-7.322,12.113,12.113,0,0,0-2.944-3.03A11.512,11.512,0,0,0,37.721.249,10.457,10.457,0,0,0,35.465,0a9.005,9.005,0,0,0-2.457.335,7.186,7.186,0,0,0-1.759.784A6.27,6.27,0,0,0,29.128,3.3a7.047,7.047,0,0,0-.908,3.145h0c-.01.115-.01.239-.01.354a5.954,5.954,0,0,0,.421,2.16A6.662,6.662,0,0,0,29.7,10.715a8.637,8.637,0,0,0,3.03,2.208,17.37,17.37,0,0,0,2.992.994,73.847,73.847,0,0,0,9.54,1.74,2.407,2.407,0,0,0,.574-4.779,68.823,68.823,0,0,1-8.918-1.625,14.009,14.009,0,0,1-2.189-.717,3.681,3.681,0,0,1-1.357-.946,1.707,1.707,0,0,1-.277-.44.845.845,0,0,1-.076-.354V6.748h0a2.435,2.435,0,0,1,.229-.956,1.315,1.315,0,0,1,.277-.382A1.864,1.864,0,0,1,34.241,5a3.672,3.672,0,0,1,1.2-.182,5.6,5.6,0,0,1,1.223.143,6.6,6.6,0,0,1,2.447,1.061,7.017,7.017,0,0,1,1.367,1.3,11.024,11.024,0,0,1,1.587,2.772,24.3,24.3,0,0,1,1.09,3.479,2.418,2.418,0,0,0,4.7-1.128" transform="translate(-1.245)"/>
          <path id="패스_5508-2" data-name="패스 5508" class="cls-3" d="M67.487,44.91a3.206,3.206,0,0,1-3.212,3.212H26.452A3.206,3.206,0,0,1,23.24,44.91V17.162a3.206,3.206,0,0,1,3.212-3.212H64.275a3.206,3.206,0,0,1,3.212,3.212Z" transform="translate(-1.026 -0.616)"/>
          <path id="패스_5509-2" data-name="패스 5509" class="cls-4" d="M75.563,38.417a5.686,5.686,0,0,0-1.233.143c-2.523.554-4.263,2.218-5.506,5.4,1.873-.306,3.623-.679,5.276-1.1A7.1,7.1,0,0,0,77.647,41.2,1.278,1.278,0,0,0,78,40.358a1.8,1.8,0,0,0-.65-1.462,2.984,2.984,0,0,0-1.787-.478M65.469,49.276a2.406,2.406,0,0,1-2.371-2.82,2.048,2.048,0,0,1,.067-.411c1.09-4.521,3.317-10.7,10.142-12.2a8.486,8.486,0,0,1,6.949,1.195,6.509,6.509,0,0,1,2.552,5,6,6,0,0,1-1.482,4.263A11.122,11.122,0,0,1,75.3,47.517a73.647,73.647,0,0,1-9.539,1.74,2.9,2.9,0,0,1-.3.019" transform="translate(-2.783 -1.483)"/>
          <path id="패스_5510-2" data-name="패스 5510" class="cls-4" d="M54.315,38.417a2.984,2.984,0,0,0-1.787.478,1.782,1.782,0,0,0-.65,1.462,1.258,1.258,0,0,0,.354.841,7.1,7.1,0,0,0,3.546,1.663c1.654.43,3.4.793,5.276,1.1-1.252-3.183-2.982-4.846-5.506-5.4a5.686,5.686,0,0,0-1.233-.143M64.409,49.276c-.1,0-.191-.01-.287-.019a73.347,73.347,0,0,1-9.54-1.74c-2.189-.564-4.435-1.338-6.022-3.212a6.014,6.014,0,0,1-1.482-4.263,6.492,6.492,0,0,1,2.552-5,8.486,8.486,0,0,1,6.949-1.195c6.825,1.5,9.052,7.676,10.142,12.2a2.048,2.048,0,0,1,.067.411,2.406,2.406,0,0,1-2.38,2.82" transform="translate(-2.078 -1.483)"/>
          <path id="패스_5511-2" data-name="패스 5511" class="cls-5" d="M86.346,78.51a3.206,3.206,0,0,1-3.212,3.212H45.3A3.206,3.206,0,0,1,42.09,78.51V50.762A3.206,3.206,0,0,1,45.3,47.55H83.125a3.206,3.206,0,0,1,3.212,3.212V78.51Z" transform="translate(-1.858 -2.099)"/>
          <rect id="사각형_515-2" data-name="사각형 515" class="cls-4" width="4.951" height="34.335" transform="translate(59.885 45.289)"/>
          <path id="패스_5512-2" data-name="패스 5512" class="cls-2" d="M25.759,32.794a17.4,17.4,0,0,1,2.275-5.716A7.2,7.2,0,0,1,29.8,25.242a6.6,6.6,0,0,1,2.447-1.061,5.045,5.045,0,0,1,1.224-.134,3.74,3.74,0,0,1,1.1.143,2.075,2.075,0,0,1,.564.249,1.51,1.51,0,0,1,.507.507,2.264,2.264,0,0,1,.268,1.032h0v.048a.845.845,0,0,1-.076.354,1.652,1.652,0,0,1-.277.44,3.8,3.8,0,0,1-1.357.946,14.009,14.009,0,0,1-2.189.717,70.483,70.483,0,0,1-8.918,1.625,2.407,2.407,0,0,0,.574,4.779,73.553,73.553,0,0,0,9.54-1.74,18.152,18.152,0,0,0,2.982-.994,8.553,8.553,0,0,0,3.03-2.208,6.662,6.662,0,0,0,1.071-1.759,5.579,5.579,0,0,0,.421-2.16c0-.115,0-.229-.01-.354h0a7.341,7.341,0,0,0-.746-2.839,6.223,6.223,0,0,0-1.233-1.673,6.63,6.63,0,0,0-2.514-1.5,8.537,8.537,0,0,0-2.753-.43,10.68,10.68,0,0,0-2.265.249,11.512,11.512,0,0,0-4.206,1.845,11.841,11.841,0,0,0-2.323,2.2,15.7,15.7,0,0,0-2.285,3.957,28.385,28.385,0,0,0-1.329,4.2,2.422,2.422,0,0,0,4.712,1.118Z" transform="translate(-0.926 -0.849)"/>
          <path id="패스_5513-2" data-name="패스 5513" class="cls-2" d="M24.622,31.665a21.96,21.96,0,0,0-2.992-7.322,12.113,12.113,0,0,0-2.944-3.03,11.512,11.512,0,0,0-4.206-1.845,10.612,10.612,0,0,0-2.265-.249,9.005,9.005,0,0,0-2.457.335A7.187,7.187,0,0,0,8,20.338a6.138,6.138,0,0,0-2.122,2.189,7.047,7.047,0,0,0-.908,3.145h0c-.01.115-.01.229-.01.354a5.954,5.954,0,0,0,.421,2.16,6.662,6.662,0,0,0,1.071,1.759,8.638,8.638,0,0,0,3.03,2.208,17.562,17.562,0,0,0,2.982.994A73.848,73.848,0,0,0,22,34.887a2.407,2.407,0,1,0,.574-4.779,68.822,68.822,0,0,1-8.918-1.625,14.009,14.009,0,0,1-2.189-.717,3.8,3.8,0,0,1-1.357-.946,1.817,1.817,0,0,1-.277-.44,1.027,1.027,0,0,1-.076-.354v-.048h0a2.435,2.435,0,0,1,.229-.956,1.315,1.315,0,0,1,.277-.382,1.864,1.864,0,0,1,.717-.411,3.672,3.672,0,0,1,1.2-.182,6.388,6.388,0,0,1,1.233.134,6.6,6.6,0,0,1,2.447,1.061,7.017,7.017,0,0,1,1.367,1.3,11.024,11.024,0,0,1,1.587,2.772,24.3,24.3,0,0,1,1.09,3.479,2.423,2.423,0,0,0,4.712-1.128" transform="translate(-0.219 -0.848)"/>
          <path id="패스_5514-2" data-name="패스 5514" class="cls-4" d="M44.247,78.115a3.206,3.206,0,0,1-3.212,3.212H3.212A3.213,3.213,0,0,1,0,78.115V36.392A3.206,3.206,0,0,1,3.212,33.18H41.035a3.206,3.206,0,0,1,3.212,3.212Z" transform="translate(0 -1.465)"/>
          <rect id="사각형_516-2" data-name="사각형 516" class="cls-2" width="4.951" height="48.147" transform="translate(19.653 31.715)"/>
        </g>
      </g>
    </g>
    <g id="그룹_1441" data-name="그룹 1441" class="cls-1" transform="translate(110.424 843.81)">
      <g id="그룹_1346" data-name="그룹 1346" transform="translate(72.295 2.136)">
        <g id="그룹_1343" data-name="그룹 1343" transform="translate(0 2.778)">
          <path id="패스_5258" data-name="패스 5258" d="M99.378,34.524a.2.2,0,0,0,.146.007c18.083-5.054,26.815-25.337,26.9-25.541a.206.206,0,0,0-.109-.277.209.209,0,0,0-.277.109c-.087.2-8.732,20.3-26.619,25.293a.212.212,0,0,0-.146.262A.151.151,0,0,0,99.378,34.524Z" transform="translate(-99.267 -7.27)"/>
          <path id="패스_5259" data-name="패스 5259" d="M107.38,40.7s2.25-1.675,3.692,1.653c.007,0-2.258,1.639-3.692-1.653" transform="translate(-101.471 -15.852)"/>
          <path id="패스_5260" data-name="패스 5260" d="M132.57,15.638s.99-2.629,4.006-.612c0,0-1.02,2.6-4.006.612" transform="translate(-108.316 -8.783)"/>
          <path id="패스_5261" data-name="패스 5261" d="M109.665,38.147s2.156-.961.306-3.387c0,0-2.127.983-.306,3.387" transform="translate(-101.892 -14.352)"/>
          <path id="패스_5262" data-name="패스 5262" d="M133.546,11.595s.925-2.17-2.083-2.695c0,.007-.9,2.178,2.083,2.695" transform="translate(-107.981 -7.325)"/>
          <path id="패스_5263" data-name="패스 5263" d="M115.719,19.327s-.2-2.352,2.818-1.908c0,0,.175,2.338-2.818,1.908" transform="translate(-103.737 -9.625)"/>
          <path id="패스_5264" data-name="패스 5264" d="M115.609,26.287s-.2-2.352,2.818-1.908c0,0,.168,2.338-2.818,1.908" transform="translate(-103.707 -11.516)"/>
          <path id="패스_5265" data-name="패스 5265" d="M111.969,28.8s-.2-2.352,2.811-1.908c0-.007.175,2.338-2.811,1.908" transform="translate(-102.717 -12.198)"/>
          <path id="패스_5266" data-name="패스 5266" d="M122.076,28.142s1.7-1.639-.867-3.292c0,0-1.668,1.646.867,3.292" transform="translate(-105.083 -11.659)"/>
          <path id="패스_5267" data-name="패스 5267" d="M136,8.356s1.027-3.008,4.5-.823c.007-.007-1.056,2.971-4.5.823" transform="translate(-109.248 -6.738)"/>
          <path id="패스_5268" data-name="패스 5268" d="M117.71,33.591s1.515-2.789,4.574-.058c0,0-1.544,2.753-4.574.058" transform="translate(-104.278 -13.692)"/>
          <path id="패스_5269" data-name="패스 5269" d="M128.07,22.517s1.784-3.248,5.338-.036c0,0-1.821,3.2-5.338.036" transform="translate(-107.093 -10.63)"/>
          <path id="패스_5270" data-name="패스 5270" d="M113.895,31.739c.007,0,.007.007,0,0a.214.214,0,0,0,.284-.109c.029-.073,2.746-6.992.721-14.027a.214.214,0,0,0-.262-.146.221.221,0,0,0-.146.262c1.988,6.89-.677,13.684-.706,13.75A.22.22,0,0,0,113.895,31.739Z" transform="translate(-103.209 -9.648)"/>
          <path id="패스_5271" data-name="패스 5271" d="M110.19,14.2s2.848-1.4,3.765,2.6c.007,0-2.848,1.355-3.765-2.6" transform="translate(-102.235 -8.701)"/>
        </g>
        <path id="패스_5272" data-name="패스 5272" d="M129.235,19.237a6.237,6.237,0,0,0-.175.728c-.248,2.4-3.459,1.872-4.7.859a3.084,3.084,0,0,1-.845-1.5c-.211-.575-.823-1.151-.859-1.777-.066-1.041,1.02-2.112,1.828-2.549a2.2,2.2,0,0,1,2.629.539c.364.3.692.655,1.078.918.626.415,1.187.685,1.2,1.551A4.5,4.5,0,0,1,129.235,19.237Z" transform="translate(-105.622 -6.137)"/>
        <path id="패스_5273" data-name="패스 5273" d="M126.141,18.283a1.208,1.208,0,1,0,1.595-.612A1.209,1.209,0,0,0,126.141,18.283Z" transform="translate(-106.541 -6.902)"/>
        <path id="패스_5274" data-name="패스 5274" d="M126.224,18.2a1.092,1.092,0,1,0,1.442-.553A1.086,1.086,0,0,0,126.224,18.2Z" transform="translate(-106.566 -6.898)"/>
        <path id="패스_5275" data-name="패스 5275" d="M116.483,23.934c-.153.692-.335,1.478-1.071,1.748a2.6,2.6,0,0,1-2.877-.67,2.926,2.926,0,0,1-.568-1.762,2.1,2.1,0,0,1,.619-1.238c.342-.357.859-.823,1.406-.736a2.121,2.121,0,0,1,.889.539,1.613,1.613,0,0,0,.634.226,1.7,1.7,0,0,1,.91.6,1.572,1.572,0,0,1,.066,1.245A.108.108,0,0,0,116.483,23.934Z" transform="translate(-102.716 -7.907)"/>
        <g id="그룹_1344" data-name="그룹 1344" transform="translate(10.489 14.423)">
          <path id="패스_5276" data-name="패스 5276" d="M113.757,23.332a.993.993,0,0,0,1.813.808.979.979,0,0,0-.5-1.3A.992.992,0,0,0,113.757,23.332Z" transform="translate(-113.67 -22.733)"/>
          <path id="패스_5277" data-name="패스 5277" d="M113.83,23.261a.9.9,0,1,0,1.187-.459A.908.908,0,0,0,113.83,23.261Z" transform="translate(-113.692 -22.727)"/>
        </g>
        <path id="패스_5278" data-name="패스 5278" d="M139.285,5.586c-.146.692-.335,1.478-1.063,1.748a2.607,2.607,0,0,1-2.877-.663,2.932,2.932,0,0,1-.568-1.77,2.1,2.1,0,0,1,.619-1.238c.35-.357.859-.823,1.4-.728a2.049,2.049,0,0,1,.889.539,1.748,1.748,0,0,0,.634.233,1.636,1.636,0,0,1,.91.6A1.588,1.588,0,0,1,139.3,5.55C139.285,5.557,139.285,5.572,139.285,5.586Z" transform="translate(-108.914 -2.923)"/>
        <g id="그룹_1345" data-name="그룹 1345" transform="translate(27.094 1.062)">
          <path id="패스_5279" data-name="패스 5279" d="M136.557,4.98a.993.993,0,1,0,1.311-.5A.992.992,0,0,0,136.557,4.98Z" transform="translate(-136.47 -4.384)"/>
          <path id="패스_5280" data-name="패스 5280" d="M136.63,4.912a.9.9,0,1,0,1.194-.452A.9.9,0,0,0,136.63,4.912Z" transform="translate(-136.492 -4.381)"/>
        </g>
      </g>
      <g id="그룹_1359" data-name="그룹 1359" transform="translate(0 0)">
        <g id="그룹_1347" data-name="그룹 1347" transform="translate(4.387 43.781)">
          <path id="패스_5281" data-name="패스 5281" d="M6.29,66.474h0A.709.709,0,0,0,7.3,66.357c.073-.095.153-.189.226-.284l.153-.189.721-.9c.313-.393.634-.787.947-1.187.146-.189.291-.386.437-.575.168-.233.328-.452.5-.655l.1-.131c.32-.4.721-.9,1.085-.918.32-.022.83.422,1.071.634l.881.808a.711.711,0,0,0,.961-1.049l-.9-.816a3.151,3.151,0,0,0-2.112-.99,3.125,3.125,0,0,0-2.1,1.442l-.095.124c-.189.233-.371.481-.539.714-.131.182-.269.364-.4.539-.313.393-.626.779-.939,1.173-.24.3-.488.6-.728.9l-.153.182c-.08.1-.16.2-.24.306A.712.712,0,0,0,6.29,66.474Z" transform="translate(-6.023 -60.105)"/>
        </g>
        <g id="그룹_1348" data-name="그룹 1348" transform="translate(2.209 41.902)">
          <path id="패스_5282" data-name="패스 5282" d="M3.3,65.562a.707.707,0,0,0,1-.109l4.413-5.52a3.108,3.108,0,0,1,.757-.67,2.529,2.529,0,0,1,2.767.24l1.617,1.282a.708.708,0,0,0,1-.109.716.716,0,0,0-.109-1.005l-1.617-1.289a3.96,3.96,0,0,0-4.377-.357,4.542,4.542,0,0,0-1.136,1L3.184,64.557A.725.725,0,0,0,3.3,65.562Z" transform="translate(-3.032 -57.525)"/>
        </g>
        <g id="그룹_1349" data-name="그룹 1349" transform="translate(0 40.052)">
          <path id="패스_5283" data-name="패스 5283" d="M.262,64.646a.711.711,0,0,0,1.005-.117l5.367-6.715a4.344,4.344,0,0,1,5.753-.612l1.34,1.071a.707.707,0,0,0,1-.109.716.716,0,0,0-.109-1.005l-1.362-1.085c-.015-.007-.029-.022-.044-.029a5.809,5.809,0,0,0-7.647.838.159.159,0,0,0-.029.036L.146,63.655A.721.721,0,0,0,.262,64.646Z" transform="translate(0.001 -54.984)"/>
        </g>
        <g id="그룹_1350" data-name="그룹 1350" transform="translate(8.411)">
          <path id="패스_5284" data-name="패스 5284" d="M22.62,82.237s8.4,2.877,9.963,10.618l2.775-.808s1.114-7.647-7.509-13.91C27.849,78.13,23.37,77.795,22.62,82.237Z" transform="translate(-14.556 -21.221)"/>
          <path id="패스_5285" data-name="패스 5285" d="M84.6,77.97s8.368,6.387-4.778,14.019L77.55,90.5s7.356-5.236,3.649-9.511Z" transform="translate(-29.482 -21.178)"/>
          <path id="패스_5286" data-name="패스 5286" d="M12.227,48.2a10.233,10.233,0,0,1,5.229-5.673c4.625-2.229,8.273-1.923,13.32-1.894,5.965.029,9.49.5,13-1.041,2.148-.939,3.416-4.479,3.7-6.926,0-.029,2.2-19,6.846-20.88,0,0-5.586-5.273-1.369-11.791A12.333,12.333,0,0,1,58.538,7.7s.466.218,4.18.036h1.209a9.9,9.9,0,0,1,6.227-6.19,10.1,10.1,0,0,1-2.046,9.307c.138-.175,4.814,3.794,4.96,3.918,4.355,3.7,6.38,6.62,9.337,11.012a4.008,4.008,0,0,1,.583,3.467,8.916,8.916,0,0,1-2.629,3.547,6.284,6.284,0,0,1-4.275,1.741c-3.008-.029-6.482-.364-9.2-1.7.124.058.015.095.371,2.36.393,3.292.765,6.584,1.151,9.876.9,7.611-.546,14.828-8.412,18.018a31.784,31.784,0,0,1-8.761,2.046c-9.067.852-13.867,1.224-22.985-.051a35.113,35.113,0,0,1-7.567-1.894C14.353,60.8,9.758,55.026,12.227,48.2Z" transform="translate(-11.548 0.01)"/>
          <path id="패스_5287" data-name="패스 5287" d="M74.989,85.514s9.613.328,13.7,7.858l2.622-1.726s-1.267-8.281-12.2-12.046C79.111,79.6,74.362,80.671,74.989,85.514Z" transform="translate(-28.77 -21.621)"/>
          <path id="패스_5288" data-name="패스 5288" d="M14.935,80.84s7.458,6.926,1.653,9.089l-2.658.787,1.61,2.068s11.216.35,7.982-9.169Z" transform="translate(-12.195 -21.958)"/>
        </g>
        <path id="패스_5289" data-name="패스 5289" d="M64.33,10.6s-6,0-8.892,20.559c0,0-.2,2.658-2.564,2.258a1.448,1.448,0,0,0-1.588,1.173c-.328,1.566,1.6,1.937,2.724,1.966a5.332,5.332,0,0,0,1.02-.066c3.685-.67,3.867-4.537,4.5-7.479.757-3.547,1.063-7.137,2.717-10.378,1.012-1.981,2.687-3.285,4.3-4.836Z" transform="translate(-13.925 -2.873)"/>
        <path id="패스_5290" data-name="패스 5290" d="M34.01,92.3c.007.007.007.015.015.022a12.151,12.151,0,0,1,1.653,4.1l2.775-.808a11.558,11.558,0,0,0-.4-4.18,1.57,1.57,0,0,0-1.9.415,1.234,1.234,0,0,1-1.5.408s-.364-.218-.575-.058Z" transform="translate(-9.241 -24.793)"/>
        <path id="패스_5291" data-name="패스 5291" d="M90.266,3.9s.532,4.275-1.719,6.562S87.455,5.866,90.266,3.9Z" transform="translate(-23.737 -1.052)"/>
        <path id="패스_5292" data-name="패스 5292" d="M68.3,2.31s-1.653,4.239.889,7.764C71.42,13.169,71.252,5.172,68.3,2.31Z" transform="translate(-18.415 -0.62)"/>
        <g id="그룹_1353" data-name="그룹 1353" class="cls-6" transform="translate(71.09 22.391)">
          <path id="패스_5293" data-name="패스 5293" d="M97.618,30.746h0C97.691,30.841,97.7,30.855,97.618,30.746Z" transform="translate(-97.612 -30.735)"/>
        </g>
        <path id="패스_5294" data-name="패스 5294" d="M107.259,38.718l-.022-.189a.537.537,0,0,0-.553-.481h-.029a.533.533,0,0,0-.481.546v.036h0l.022.189a.257.257,0,0,1-.233.284.263.263,0,0,1-.291-.233l-.022-.2h0v-.058a1.063,1.063,0,0,1,.954-1.1.2.2,0,0,0,.066-.007,1.056,1.056,0,0,1,.736.255,1.037,1.037,0,0,1,.357.692l.022.189a.273.273,0,0,1-.233.291.239.239,0,0,1-.291-.218" transform="translate(-28.706 -10.184)"/>
        <path id="패스_5295" data-name="패스 5295" d="M103.279,40.189l-.1-.16h0a.5.5,0,0,0-.313-.233.548.548,0,0,0-.386.044l-.029.015a.535.535,0,0,0-.189.706l.015.029h0l.1.168a.253.253,0,0,1-.087.357.268.268,0,0,1-.364-.08l-.1-.168h0c-.007-.022-.022-.036-.029-.058a1.054,1.054,0,0,1,.379-1.4.255.255,0,0,1,.058-.036,1.1,1.1,0,0,1,.772-.095,1.048,1.048,0,0,1,.626.466h0l.1.16a.267.267,0,0,1-.452.284Z" transform="translate(-27.624 -10.657)"/>
        <g id="그룹_1354" data-name="그룹 1354" transform="translate(56.428 10.509)">
          <path id="패스_5296" data-name="패스 5296" d="M82.2,18.222a.709.709,0,0,0,.714-.706v-.437c-.095-1.595-.583-2.658-2.666-2.658H78.194a.714.714,0,0,0,0,1.427h2.054c.99,0,1.173.095,1.245,1.3v.379A.7.7,0,0,0,82.2,18.222Z" transform="translate(-77.48 -14.42)"/>
        </g>
        <g id="그룹_1355" data-name="그룹 1355" transform="translate(55.379 8.565)">
          <path id="패스_5297" data-name="패스 5297" d="M83.745,16.768a.713.713,0,0,0,.714-.706v-.408a.092.092,0,0,0-.007-.044,3.825,3.825,0,0,0-3.94-3.86H76.754a.714.714,0,1,0,0,1.427H80.5a2.418,2.418,0,0,1,2.542,2.505v.379A.7.7,0,0,0,83.745,16.768Z" transform="translate(-76.04 -11.75)"/>
        </g>
        <g id="그룹_1356" data-name="그룹 1356" transform="translate(54.178 6.715)">
          <path id="패스_5298" data-name="패스 5298" d="M85.161,15.3a.715.715,0,0,0,.714-.714v-.2A5.184,5.184,0,0,0,80.7,9.21H75.1a.714.714,0,1,0,0,1.427H80.7A3.762,3.762,0,0,1,84.455,14.4v.2A.7.7,0,0,0,85.161,15.3Z" transform="translate(-74.39 -9.21)"/>
        </g>
        <path id="패스_5299" data-name="패스 5299" d="M95.581,29.557s-.051-.044-.138-.131c-.524-.532-2.4-2.28-1.945-4.027,0,0-2.127-.371-5.258-3.059,0,0,2.92,2.644,1.733,4.355C89.973,26.7,92.34,26.834,95.581,29.557Z" transform="translate(-23.976 -6.063)"/>
        <path id="패스_5300" data-name="패스 5300" d="M109.27,51.25l.007-.029c.007-.022.007-.036.015-.058s.007-.073.007-.1-.015-.058-.036-.066A.035.035,0,0,0,109.2,51a.135.135,0,0,0-.015.051.055.055,0,0,0,.007.036c0,.022.015.036.015.051a.268.268,0,0,0,.058.109" transform="translate(-29.668 -13.845)"/>
        <path id="패스_5301" data-name="패스 5301" d="M109.372,51.88V51.9c-.007.022-.007.044-.015.066a.481.481,0,0,0-.007.1.111.111,0,0,0,.029.073.047.047,0,0,0,.066-.007.135.135,0,0,0,.015-.051.055.055,0,0,0-.007-.036.468.468,0,0,0-.015-.051c-.022-.044-.044-.08-.066-.117" transform="translate(-29.712 -14.089)"/>
        <path id="패스_5302" data-name="패스 5302" d="M108.976,51.649l-.029-.007c-.022-.007-.044-.007-.058-.015a.551.551,0,0,0-.109-.007.108.108,0,0,0-.066.029c-.022.022-.022.044.007.066a.135.135,0,0,0,.051.015.055.055,0,0,0,.036-.007.135.135,0,0,1,.051-.015c.036-.015.073-.036.117-.058" transform="translate(-29.535 -14.019)"/>
        <path id="패스_5303" data-name="패스 5303" d="M109.6,51.54l.022.007c.022,0,.044.007.058.007a.516.516,0,0,0,.1.007.129.129,0,0,0,.073-.029.044.044,0,0,0,0-.058.135.135,0,0,0-.051-.015.055.055,0,0,0-.036.007.185.185,0,0,0-.051.015.581.581,0,0,0-.117.058" transform="translate(-29.78 -13.975)"/>
        <g id="그룹_1357" data-name="그룹 1357" transform="translate(11.984 26.06)">
          <path id="패스_5304" data-name="패스 5304" d="M62.9,52.2h.029a.217.217,0,0,0,.189-.248.653.653,0,0,1,.051-.284.221.221,0,0,0-.109-.291.228.228,0,0,0-.291.109,1.093,1.093,0,0,0-.08.524A.208.208,0,0,0,62.9,52.2Z" transform="translate(-29.015 -40.007)"/>
          <path id="패스_5305" data-name="패스 5305" d="M66.176,45.5h.036a.214.214,0,0,0,.182-.248.6.6,0,0,1,.044-.277.221.221,0,0,0-.109-.291.219.219,0,0,0-.291.109,1.138,1.138,0,0,0-.08.532A.214.214,0,0,0,66.176,45.5Z" transform="translate(-29.903 -38.188)"/>
          <path id="패스_5306" data-name="패스 5306" d="M63.036,45.537h.029a.217.217,0,0,0,.189-.248A.666.666,0,0,1,63.306,45a.208.208,0,0,0-.117-.284.228.228,0,0,0-.291.109,1.077,1.077,0,0,0-.08.517A.226.226,0,0,0,63.036,45.537Z" transform="translate(-29.05 -38.198)"/>
          <path id="패스_5307" data-name="패스 5307" d="M66.956,42.576h.029a.225.225,0,0,0,.189-.248.771.771,0,0,1,.044-.284.22.22,0,0,0-.4-.182,1.122,1.122,0,0,0-.08.524A.226.226,0,0,0,66.956,42.576Z" transform="translate(-30.115 -37.392)"/>
          <path id="패스_5308" data-name="패스 5308" d="M64.059,38.918h.029a.217.217,0,0,0,.189-.248.672.672,0,0,1,.051-.284.211.211,0,0,0-.109-.284.218.218,0,0,0-.291.117,1.092,1.092,0,0,0-.08.517A.207.207,0,0,0,64.059,38.918Z" transform="translate(-29.33 -36.4)"/>
          <path id="패스_5309" data-name="패스 5309" d="M64.616,43.707h.029a.217.217,0,0,0,.189-.248.858.858,0,0,1,.044-.291.214.214,0,0,0-.117-.284.22.22,0,0,0-.284.117,1.092,1.092,0,0,0-.08.517A.22.22,0,0,0,64.616,43.707Z" transform="translate(-29.48 -37.701)"/>
          <path id="패스_5310" data-name="패스 5310" d="M65.528,36.616h.036a.219.219,0,0,0,.182-.248.672.672,0,0,1,.051-.284.22.22,0,1,0-.4-.182,1.037,1.037,0,0,0-.08.524A.218.218,0,0,0,65.528,36.616Z" transform="translate(-29.729 -35.773)"/>
          <path id="패스_5311" data-name="패스 5311" d="M66.315,39.448h.029a.219.219,0,0,0,.182-.248.641.641,0,0,1,.051-.277.221.221,0,0,0-.109-.291.213.213,0,0,0-.291.109,1.037,1.037,0,0,0-.08.524A.214.214,0,0,0,66.315,39.448Z" transform="translate(-29.94 -36.544)"/>
          <path id="패스_5312" data-name="패스 5312" d="M64.846,41.036h.029a.226.226,0,0,0,.189-.248.771.771,0,0,1,.044-.284.22.22,0,1,0-.4-.182,1.093,1.093,0,0,0-.08.524A.22.22,0,0,0,64.846,41.036Z" transform="translate(-29.542 -36.974)"/>
          <path id="패스_5313" data-name="패스 5313" d="M63.859,47.756h.029a.217.217,0,0,0,.189-.248.7.7,0,0,1,.051-.291.211.211,0,0,0-.109-.284.216.216,0,0,0-.291.117,1.077,1.077,0,0,0-.08.517A.208.208,0,0,0,63.859,47.756Z" transform="translate(-29.276 -38.8)"/>
          <path id="패스_5314" data-name="패스 5314" d="M64.714,50.7h.029a.21.21,0,0,0,.182-.248.819.819,0,0,1,.044-.284.221.221,0,0,0-.109-.291.219.219,0,0,0-.291.109,1.122,1.122,0,0,0-.08.524A.233.233,0,0,0,64.714,50.7Z" transform="translate(-29.504 -39.598)"/>
          <path id="패스_5315" data-name="패스 5315" d="M62.7,49.7h.036a.215.215,0,0,0,.182-.248.692.692,0,0,1,.051-.284.221.221,0,0,0-.109-.291.228.228,0,0,0-.291.109,1.137,1.137,0,0,0-.08.524A.207.207,0,0,0,62.7,49.7Z" transform="translate(-28.961 -39.328)"/>
          <path id="패스_5316" data-name="패스 5316" d="M66.259,48.6h.029a.217.217,0,0,0,.189-.248.755.755,0,0,1,.051-.284.221.221,0,0,0-.109-.291.228.228,0,0,0-.291.109,1.107,1.107,0,0,0-.08.517A.208.208,0,0,0,66.259,48.6Z" transform="translate(-29.928 -39.029)"/>
          <path id="패스_5317" data-name="패스 5317" d="M18.389,67.016a.2.2,0,0,0,.189-.109.8.8,0,0,1,.2-.218.219.219,0,0,0-.218-.379,1.1,1.1,0,0,0-.357.379.217.217,0,0,0,.087.3A.167.167,0,0,0,18.389,67.016Z" transform="translate(-16.921 -44.062)"/>
          <path id="패스_5318" data-name="패스 5318" d="M20.939,66.926a.2.2,0,0,0,.189-.109.724.724,0,0,1,.2-.218.219.219,0,0,0-.218-.379,1.038,1.038,0,0,0-.357.379.217.217,0,0,0,.087.3A.237.237,0,0,0,20.939,66.926Z" transform="translate(-17.614 -44.038)"/>
          <path id="패스_5319" data-name="패스 5319" d="M21.162,61.456a.23.23,0,0,0,.2-.117.552.552,0,0,1,.2-.211.219.219,0,0,0-.218-.379,1.184,1.184,0,0,0-.357.386.223.223,0,0,0,.087.3A.3.3,0,0,0,21.162,61.456Z" transform="translate(-17.677 -42.552)"/>
          <path id="패스_5320" data-name="패스 5320" d="M18.99,64.247a.21.21,0,0,0,.189-.117.627.627,0,0,1,.2-.211.217.217,0,0,0-.226-.371,1.165,1.165,0,0,0-.357.379.223.223,0,0,0,.087.3A.257.257,0,0,0,18.99,64.247Z" transform="translate(-17.085 -43.311)"/>
          <path id="패스_5321" data-name="패스 5321" d="M20.98,64a.23.23,0,0,0,.2-.117.585.585,0,0,1,.189-.211.219.219,0,1,0-.218-.379,1.076,1.076,0,0,0-.357.393.21.21,0,0,0,.095.291A.224.224,0,0,0,20.98,64Z" transform="translate(-17.625 -43.242)"/>
          <path id="패스_5322" data-name="패스 5322" d="M18.8,62.046a.2.2,0,0,0,.189-.109.736.736,0,0,1,.2-.218.214.214,0,0,0,.073-.3.225.225,0,0,0-.3-.08,1.165,1.165,0,0,0-.357.379.219.219,0,0,0,.087.3A.167.167,0,0,0,18.8,62.046Z" transform="translate(-17.032 -42.712)"/>
          <path id="패스_5323" data-name="패스 5323" d="M16.67,66.127a.215.215,0,0,0,.2-.117.614.614,0,0,1,.2-.211.217.217,0,1,0-.226-.371,1.117,1.117,0,0,0-.357.386.223.223,0,0,0,.087.3A.43.43,0,0,0,16.67,66.127Z" transform="translate(-16.454 -43.821)"/>
          <path id="패스_5324" data-name="패스 5324" d="M81.466,73.574a.218.218,0,0,0,.189-.117.614.614,0,0,1,.2-.211.223.223,0,0,0,.08-.3.211.211,0,0,0-.3-.08,1.146,1.146,0,0,0-.364.386.219.219,0,0,0,.087.3A.953.953,0,0,0,81.466,73.574Z" transform="translate(-34.058 -45.843)"/>
          <path id="패스_5325" data-name="패스 5325" d="M84.029,73.476a.217.217,0,0,0,.189-.109.724.724,0,0,1,.2-.218.219.219,0,0,0-.218-.379,1.1,1.1,0,0,0-.357.379.219.219,0,0,0,.087.3A.167.167,0,0,0,84.029,73.476Z" transform="translate(-34.756 -45.818)"/>
          <path id="패스_5326" data-name="패스 5326" d="M84.25,68.006a.23.23,0,0,0,.2-.117.614.614,0,0,1,.2-.211.219.219,0,1,0-.218-.379,1.141,1.141,0,0,0-.364.386.223.223,0,0,0,.087.3A.233.233,0,0,0,84.25,68.006Z" transform="translate(-34.817 -44.331)"/>
          <path id="패스_5327" data-name="패스 5327" d="M82.08,70.8a.23.23,0,0,0,.2-.117.716.716,0,0,1,.2-.218.217.217,0,0,0-.226-.371,1.184,1.184,0,0,0-.357.386.223.223,0,0,0,.087.3A.233.233,0,0,0,82.08,70.8Z" transform="translate(-34.227 -45.09)"/>
          <path id="패스_5328" data-name="패스 5328" d="M84.07,70.544a.23.23,0,0,0,.2-.117.8.8,0,0,1,.2-.218.217.217,0,0,0-.226-.371,1.117,1.117,0,0,0-.357.386.225.225,0,0,0,.087.3A.233.233,0,0,0,84.07,70.544Z" transform="translate(-34.768 -45.02)"/>
          <path id="패스_5329" data-name="패스 5329" d="M81.886,68.606a.227.227,0,0,0,.189-.109.724.724,0,0,1,.2-.218.219.219,0,0,0-.218-.379,1.146,1.146,0,0,0-.364.386.219.219,0,0,0,.087.3A.292.292,0,0,0,81.886,68.606Z" transform="translate(-34.172 -44.495)"/>
          <path id="패스_5330" data-name="패스 5330" d="M79.756,72.683a.2.2,0,0,0,.189-.117.824.824,0,0,1,.2-.218.219.219,0,0,0-.218-.379,1.217,1.217,0,0,0-.364.386.217.217,0,0,0,.087.3A.205.205,0,0,0,79.756,72.683Z" transform="translate(-33.593 -45.6)"/>
          <path id="패스_5331" data-name="패스 5331" d="M55.174,85.038a.9.9,0,0,0,.146-.015.219.219,0,0,0-.08-.43.686.686,0,0,1-.291-.029.218.218,0,0,0-.284.131.211.211,0,0,0,.131.277A1.139,1.139,0,0,0,55.174,85.038Z" transform="translate(-26.833 -49.026)"/>
          <path id="패스_5332" data-name="패스 5332" d="M58.672,84.418a.709.709,0,0,0,.131-.007.219.219,0,1,0-.08-.43.842.842,0,0,1-.291-.036.208.208,0,0,0-.277.131.211.211,0,0,0,.131.277A1.22,1.22,0,0,0,58.672,84.418Z" transform="translate(-27.781 -48.858)"/>
          <path id="패스_5333" data-name="패스 5333" d="M47.437,84.878a.9.9,0,0,0,.146-.015.219.219,0,0,0-.08-.43.633.633,0,0,1-.284-.029.217.217,0,0,0-.284.124.22.22,0,0,0,.117.284A1.1,1.1,0,0,0,47.437,84.878Z" transform="translate(-24.732 -48.982)"/>
          <path id="패스_5334" data-name="패스 5334" d="M44.482,84.251a.836.836,0,0,0,.138-.007.221.221,0,0,0,.175-.255.218.218,0,0,0-.255-.175.686.686,0,0,1-.291-.029.219.219,0,0,0-.16.408A1.5,1.5,0,0,0,44.482,84.251Z" transform="translate(-23.925 -48.814)"/>
          <path id="패스_5335" data-name="패스 5335" d="M43.007,86.148a.9.9,0,0,0,.146-.015.221.221,0,0,0,.175-.255.218.218,0,0,0-.255-.175.623.623,0,0,1-.284-.029.22.22,0,0,0-.284.117.217.217,0,0,0,.124.284A.9.9,0,0,0,43.007,86.148Z" transform="translate(-23.528 -49.327)"/>
          <path id="패스_5336" data-name="패스 5336" d="M45.729,86.528a.652.652,0,0,0,.131-.015.221.221,0,0,0,.175-.255.218.218,0,0,0-.255-.175.826.826,0,0,1-.291-.029.218.218,0,0,0-.284.131.211.211,0,0,0,.131.277A1.307,1.307,0,0,0,45.729,86.528Z" transform="translate(-24.262 -49.431)"/>
          <path id="패스_5337" data-name="패스 5337" d="M48.327,83.168a.9.9,0,0,0,.146-.015.221.221,0,0,0,.175-.255.211.211,0,0,0-.255-.168.782.782,0,0,1-.284-.036.218.218,0,0,0-.284.131.221.221,0,0,0,.124.284A1.38,1.38,0,0,0,48.327,83.168Z" transform="translate(-24.974 -48.518)"/>
          <path id="패스_5338" data-name="패스 5338" d="M49.812,87.068a.4.4,0,0,0,.138-.015.216.216,0,0,0,.175-.255.221.221,0,0,0-.255-.175.811.811,0,0,1-.291-.029.221.221,0,0,0-.284.124.218.218,0,0,0,.131.284A1.221,1.221,0,0,0,49.812,87.068Z" transform="translate(-25.373 -49.578)"/>
          <path id="패스_5339" data-name="패스 5339" d="M52.7,86.045a.807.807,0,0,0,.138-.015.221.221,0,0,0,.175-.255.212.212,0,0,0-.255-.175.559.559,0,0,1-.284-.036.224.224,0,0,0-.284.124.215.215,0,0,0,.124.284A.986.986,0,0,0,52.7,86.045Z" transform="translate(-26.161 -49.298)"/>
          <path id="패스_5340" data-name="패스 5340" d="M56.117,82.868a.5.5,0,0,0,.146-.015.219.219,0,1,0-.08-.43.644.644,0,0,1-.284-.029.219.219,0,1,0-.16.408A1.073,1.073,0,0,0,56.117,82.868Z" transform="translate(-27.09 -48.436)"/>
          <path id="패스_5341" data-name="패스 5341" d="M50.532,84.618a.893.893,0,0,0,.138-.015.219.219,0,0,0-.08-.43.81.81,0,0,1-.291-.029.221.221,0,0,0-.284.131.224.224,0,0,0,.124.284A1.5,1.5,0,0,0,50.532,84.618Z" transform="translate(-25.569 -48.912)"/>
        </g>
        <path id="패스_5342" data-name="패스 5342" d="M88.37,91.113a15.23,15.23,0,0,1,3.874,4.3l2.716-1.544A13.633,13.633,0,0,0,91.946,87.9a1.651,1.651,0,0,0-2.287,1.486s.16,1.005-.568,1.173a.616.616,0,0,0-.721.393Z" transform="translate(-24.011 -23.848)"/>
        <path id="패스_5343" data-name="패스 5343" d="M80.307,91.609A16.873,16.873,0,0,1,77.54,94.2l2.272,1.493a26.387,26.387,0,0,0,3.663-2.52s-1.784.393-2.229-.634S80.307,91.609,80.307,91.609Z" transform="translate(-21.068 -24.883)"/>
        <path id="패스_5344" data-name="패스 5344" d="M18.045,92.13A4.168,4.168,0,0,1,16.588,93l-2.658.787,1.61,2.068a13.664,13.664,0,0,0,4.5-.728s.328-1.114-1.3-1.559c0,0-.947-.058-.808-.91Z" transform="translate(-3.785 -25.026)"/>
        <g id="그룹_1358" data-name="그룹 1358" transform="translate(6.635 15.352)">
          <path id="패스_5345" data-name="패스 5345" d="M40.921,101.566l-5.011.029.262-3.773,2.8-.583Z" transform="translate(-16.392 -41.766)"/>
          <path id="패스_5346" data-name="패스 5346" d="M99.8,100.017l-5.193,1.617-.918-3.947,2.724-1.537Z" transform="translate(-32.092 -41.47)"/>
          <path id="패스_5347" data-name="패스 5347" d="M12.613,94.4l1.617,2.068-3.343,1.406L9.11,94.888Z" transform="translate(-9.11 -40.995)"/>
          <path id="패스_5348" data-name="패스 5348" d="M78.964,96.462,77.31,94.43l-2.92,1.253,2.258,2.52Z" transform="translate(-26.848 -41.003)"/>
          <path id="패스_5349" data-name="패스 5349" d="M93.73,21.995a.921.921,0,1,0,.918-.925A.92.92,0,0,0,93.73,21.995Z" transform="translate(-32.102 -21.07)"/>
          <path id="패스_5350" data-name="패스 5350" d="M83.98,26.985a1.005,1.005,0,1,0,1.005-1.005A1,1,0,0,0,83.98,26.985Z" transform="translate(-29.453 -22.404)"/>
        </g>
      </g>
    </g>
    <g id="그룹_1441-2" data-name="그룹 1441" transform="translate(110.424 843.14)">
      <g id="그룹_1346-2" data-name="그룹 1346" transform="translate(72.295 2.136)">
        <g id="그룹_1343-2" data-name="그룹 1343" transform="translate(0 2.778)">
          <path id="패스_5258-2" data-name="패스 5258" class="cls-4" d="M99.378,34.524a.2.2,0,0,0,.146.007c18.083-5.054,26.815-25.337,26.9-25.541a.206.206,0,0,0-.109-.277.209.209,0,0,0-.277.109c-.087.2-8.732,20.3-26.619,25.293a.212.212,0,0,0-.146.262A.151.151,0,0,0,99.378,34.524Z" transform="translate(-99.267 -7.27)"/>
          <path id="패스_5259-2" data-name="패스 5259" class="cls-4" d="M107.38,40.7s2.25-1.675,3.692,1.653c.007,0-2.258,1.639-3.692-1.653" transform="translate(-101.471 -15.852)"/>
          <path id="패스_5260-2" data-name="패스 5260" class="cls-4" d="M132.57,15.638s.99-2.629,4.006-.612c0,0-1.02,2.6-4.006.612" transform="translate(-108.316 -8.783)"/>
          <path id="패스_5261-2" data-name="패스 5261" class="cls-4" d="M109.665,38.147s2.156-.961.306-3.387c0,0-2.127.983-.306,3.387" transform="translate(-101.892 -14.352)"/>
          <path id="패스_5262-2" data-name="패스 5262" class="cls-4" d="M133.546,11.595s.925-2.17-2.083-2.695c0,.007-.9,2.178,2.083,2.695" transform="translate(-107.981 -7.325)"/>
          <path id="패스_5263-2" data-name="패스 5263" class="cls-4" d="M115.719,19.327s-.2-2.352,2.818-1.908c0,0,.175,2.338-2.818,1.908" transform="translate(-103.737 -9.625)"/>
          <path id="패스_5264-2" data-name="패스 5264" class="cls-4" d="M115.609,26.287s-.2-2.352,2.818-1.908c0,0,.168,2.338-2.818,1.908" transform="translate(-103.707 -11.516)"/>
          <path id="패스_5265-2" data-name="패스 5265" class="cls-4" d="M111.969,28.8s-.2-2.352,2.811-1.908c0-.007.175,2.338-2.811,1.908" transform="translate(-102.717 -12.198)"/>
          <path id="패스_5266-2" data-name="패스 5266" class="cls-4" d="M122.076,28.142s1.7-1.639-.867-3.292c0,0-1.668,1.646.867,3.292" transform="translate(-105.083 -11.659)"/>
          <path id="패스_5267-2" data-name="패스 5267" class="cls-4" d="M136,8.356s1.027-3.008,4.5-.823c.007-.007-1.056,2.971-4.5.823" transform="translate(-109.248 -6.738)"/>
          <path id="패스_5268-2" data-name="패스 5268" class="cls-4" d="M117.71,33.591s1.515-2.789,4.574-.058c0,0-1.544,2.753-4.574.058" transform="translate(-104.278 -13.692)"/>
          <path id="패스_5269-2" data-name="패스 5269" class="cls-4" d="M128.07,22.517s1.784-3.248,5.338-.036c0,0-1.821,3.2-5.338.036" transform="translate(-107.093 -10.63)"/>
          <path id="패스_5270-2" data-name="패스 5270" class="cls-4" d="M113.895,31.739c.007,0,.007.007,0,0a.214.214,0,0,0,.284-.109c.029-.073,2.746-6.992.721-14.027a.214.214,0,0,0-.262-.146.221.221,0,0,0-.146.262c1.988,6.89-.677,13.684-.706,13.75A.22.22,0,0,0,113.895,31.739Z" transform="translate(-103.209 -9.648)"/>
          <path id="패스_5271-2" data-name="패스 5271" class="cls-4" d="M110.19,14.2s2.848-1.4,3.765,2.6c.007,0-2.848,1.355-3.765-2.6" transform="translate(-102.235 -8.701)"/>
        </g>
        <path id="패스_5272-2" data-name="패스 5272" class="cls-3" d="M129.235,19.237a6.237,6.237,0,0,0-.175.728c-.248,2.4-3.459,1.872-4.7.859a3.084,3.084,0,0,1-.845-1.5c-.211-.575-.823-1.151-.859-1.777-.066-1.041,1.02-2.112,1.828-2.549a2.2,2.2,0,0,1,2.629.539c.364.3.692.655,1.078.918.626.415,1.187.685,1.2,1.551A4.5,4.5,0,0,1,129.235,19.237Z" transform="translate(-105.622 -6.137)"/>
        <path id="패스_5273-2" data-name="패스 5273" class="cls-7" d="M126.141,18.283a1.208,1.208,0,1,0,1.595-.612A1.209,1.209,0,0,0,126.141,18.283Z" transform="translate(-106.541 -6.902)"/>
        <path id="패스_5274-2" data-name="패스 5274" class="cls-5" d="M126.224,18.2a1.092,1.092,0,1,0,1.442-.553A1.086,1.086,0,0,0,126.224,18.2Z" transform="translate(-106.566 -6.898)"/>
        <path id="패스_5275-2" data-name="패스 5275" class="cls-3" d="M116.483,23.934c-.153.692-.335,1.478-1.071,1.748a2.6,2.6,0,0,1-2.877-.67,2.926,2.926,0,0,1-.568-1.762,2.1,2.1,0,0,1,.619-1.238c.342-.357.859-.823,1.406-.736a2.121,2.121,0,0,1,.889.539,1.613,1.613,0,0,0,.634.226,1.7,1.7,0,0,1,.91.6,1.572,1.572,0,0,1,.066,1.245A.108.108,0,0,0,116.483,23.934Z" transform="translate(-102.716 -7.907)"/>
        <g id="그룹_1344-2" data-name="그룹 1344" transform="translate(10.489 14.423)">
          <path id="패스_5276-2" data-name="패스 5276" class="cls-7" d="M113.757,23.332a.993.993,0,0,0,1.813.808.979.979,0,0,0-.5-1.3A.992.992,0,0,0,113.757,23.332Z" transform="translate(-113.67 -22.733)"/>
          <path id="패스_5277-2" data-name="패스 5277" class="cls-5" d="M113.83,23.261a.9.9,0,1,0,1.187-.459A.908.908,0,0,0,113.83,23.261Z" transform="translate(-113.692 -22.727)"/>
        </g>
        <path id="패스_5278-2" data-name="패스 5278" class="cls-3" d="M139.285,5.586c-.146.692-.335,1.478-1.063,1.748a2.607,2.607,0,0,1-2.877-.663,2.932,2.932,0,0,1-.568-1.77,2.1,2.1,0,0,1,.619-1.238c.35-.357.859-.823,1.4-.728a2.049,2.049,0,0,1,.889.539,1.748,1.748,0,0,0,.634.233,1.636,1.636,0,0,1,.91.6A1.588,1.588,0,0,1,139.3,5.55C139.285,5.557,139.285,5.572,139.285,5.586Z" transform="translate(-108.914 -2.923)"/>
        <g id="그룹_1345-2" data-name="그룹 1345" transform="translate(27.094 1.062)">
          <path id="패스_5279-2" data-name="패스 5279" class="cls-7" d="M136.557,4.98a.993.993,0,1,0,1.311-.5A.992.992,0,0,0,136.557,4.98Z" transform="translate(-136.47 -4.384)"/>
          <path id="패스_5280-2" data-name="패스 5280" class="cls-5" d="M136.63,4.912a.9.9,0,1,0,1.194-.452A.9.9,0,0,0,136.63,4.912Z" transform="translate(-136.492 -4.381)"/>
        </g>
      </g>
      <g id="그룹_1359-2" data-name="그룹 1359" transform="translate(0 0)">
        <g id="그룹_1347-2" data-name="그룹 1347" transform="translate(4.387 43.781)">
          <path id="패스_5281-2" data-name="패스 5281" class="cls-4" d="M6.29,66.474h0A.709.709,0,0,0,7.3,66.357c.073-.095.153-.189.226-.284l.153-.189.721-.9c.313-.393.634-.787.947-1.187.146-.189.291-.386.437-.575.168-.233.328-.452.5-.655l.1-.131c.32-.4.721-.9,1.085-.918.32-.022.83.422,1.071.634l.881.808a.711.711,0,0,0,.961-1.049l-.9-.816a3.151,3.151,0,0,0-2.112-.99,3.125,3.125,0,0,0-2.1,1.442l-.095.124c-.189.233-.371.481-.539.714-.131.182-.269.364-.4.539-.313.393-.626.779-.939,1.173-.24.3-.488.6-.728.9l-.153.182c-.08.1-.16.2-.24.306A.712.712,0,0,0,6.29,66.474Z" transform="translate(-6.023 -60.105)"/>
        </g>
        <g id="그룹_1348-2" data-name="그룹 1348" transform="translate(2.209 41.902)">
          <path id="패스_5282-2" data-name="패스 5282" class="cls-4" d="M3.3,65.562a.707.707,0,0,0,1-.109l4.413-5.52a3.108,3.108,0,0,1,.757-.67,2.529,2.529,0,0,1,2.767.24l1.617,1.282a.708.708,0,0,0,1-.109.716.716,0,0,0-.109-1.005l-1.617-1.289a3.96,3.96,0,0,0-4.377-.357,4.542,4.542,0,0,0-1.136,1L3.184,64.557A.725.725,0,0,0,3.3,65.562Z" transform="translate(-3.032 -57.525)"/>
        </g>
        <g id="그룹_1349-2" data-name="그룹 1349" transform="translate(0 40.052)">
          <path id="패스_5283-2" data-name="패스 5283" class="cls-4" d="M.262,64.646a.711.711,0,0,0,1.005-.117l5.367-6.715a4.344,4.344,0,0,1,5.753-.612l1.34,1.071a.707.707,0,0,0,1-.109.716.716,0,0,0-.109-1.005l-1.362-1.085c-.015-.007-.029-.022-.044-.029a5.809,5.809,0,0,0-7.647.838.159.159,0,0,0-.029.036L.146,63.655A.721.721,0,0,0,.262,64.646Z" transform="translate(0.001 -54.984)"/>
        </g>
        <g id="그룹_1350-2" data-name="그룹 1350" transform="translate(8.411)">
          <path id="패스_5284-2" data-name="패스 5284" class="cls-8" d="M22.62,82.237s8.4,2.877,9.963,10.618l2.775-.808s1.114-7.647-7.509-13.91C27.849,78.13,23.37,77.795,22.62,82.237Z" transform="translate(-14.556 -21.221)"/>
          <path id="패스_5285-2" data-name="패스 5285" class="cls-8" d="M84.6,77.97s8.368,6.387-4.778,14.019L77.55,90.5s7.356-5.236,3.649-9.511Z" transform="translate(-29.482 -21.178)"/>
          <path id="패스_5286-2" data-name="패스 5286" class="cls-8" d="M12.227,48.2a10.233,10.233,0,0,1,5.229-5.673c4.625-2.229,8.273-1.923,13.32-1.894,5.965.029,9.49.5,13-1.041,2.148-.939,3.416-4.479,3.7-6.926,0-.029,2.2-19,6.846-20.88,0,0-5.586-5.273-1.369-11.791A12.333,12.333,0,0,1,58.538,7.7s.466.218,4.18.036h1.209a9.9,9.9,0,0,1,6.227-6.19,10.1,10.1,0,0,1-2.046,9.307c.138-.175,4.814,3.794,4.96,3.918,4.355,3.7,6.38,6.62,9.337,11.012a4.008,4.008,0,0,1,.583,3.467,8.916,8.916,0,0,1-2.629,3.547,6.284,6.284,0,0,1-4.275,1.741c-3.008-.029-6.482-.364-9.2-1.7.124.058.015.095.371,2.36.393,3.292.765,6.584,1.151,9.876.9,7.611-.546,14.828-8.412,18.018a31.784,31.784,0,0,1-8.761,2.046c-9.067.852-13.867,1.224-22.985-.051a35.113,35.113,0,0,1-7.567-1.894C14.353,60.8,9.758,55.026,12.227,48.2Z" transform="translate(-11.548 0.01)"/>
          <path id="패스_5287-2" data-name="패스 5287" class="cls-8" d="M74.989,85.514s9.613.328,13.7,7.858l2.622-1.726s-1.267-8.281-12.2-12.046C79.111,79.6,74.362,80.671,74.989,85.514Z" transform="translate(-28.77 -21.621)"/>
          <path id="패스_5288-2" data-name="패스 5288" class="cls-8" d="M14.935,80.84s7.458,6.926,1.653,9.089l-2.658.787,1.61,2.068s11.216.35,7.982-9.169Z" transform="translate(-12.195 -21.958)"/>
        </g>
        <path id="패스_5289-2" data-name="패스 5289" class="cls-4" d="M64.33,10.6s-6,0-8.892,20.559c0,0-.2,2.658-2.564,2.258a1.448,1.448,0,0,0-1.588,1.173c-.328,1.566,1.6,1.937,2.724,1.966a5.332,5.332,0,0,0,1.02-.066c3.685-.67,3.867-4.537,4.5-7.479.757-3.547,1.063-7.137,2.717-10.378,1.012-1.981,2.687-3.285,4.3-4.836Z" transform="translate(-13.925 -2.873)"/>
        <path id="패스_5290-2" data-name="패스 5290" class="cls-7" d="M34.01,92.3c.007.007.007.015.015.022a12.151,12.151,0,0,1,1.653,4.1l2.775-.808a11.558,11.558,0,0,0-.4-4.18,1.57,1.57,0,0,0-1.9.415,1.234,1.234,0,0,1-1.5.408s-.364-.218-.575-.058Z" transform="translate(-9.241 -24.793)"/>
        <path id="패스_5291-2" data-name="패스 5291" class="cls-7" d="M90.266,3.9s.532,4.275-1.719,6.562S87.455,5.866,90.266,3.9Z" transform="translate(-23.737 -1.052)"/>
        <path id="패스_5292-2" data-name="패스 5292" class="cls-7" d="M68.3,2.31s-1.653,4.239.889,7.764C71.42,13.169,71.252,5.172,68.3,2.31Z" transform="translate(-18.415 -0.62)"/>
        <g id="그룹_1353-2" data-name="그룹 1353" class="cls-6" transform="translate(71.09 22.391)">
          <path id="패스_5293-2" data-name="패스 5293" class="cls-7" d="M97.618,30.746h0C97.691,30.841,97.7,30.855,97.618,30.746Z" transform="translate(-97.612 -30.735)"/>
        </g>
        <path id="패스_5294-2" data-name="패스 5294" class="cls-4" d="M107.259,38.718l-.022-.189a.537.537,0,0,0-.553-.481h-.029a.533.533,0,0,0-.481.546v.036h0l.022.189a.257.257,0,0,1-.233.284.263.263,0,0,1-.291-.233l-.022-.2h0v-.058a1.063,1.063,0,0,1,.954-1.1.2.2,0,0,0,.066-.007,1.056,1.056,0,0,1,.736.255,1.037,1.037,0,0,1,.357.692l.022.189a.273.273,0,0,1-.233.291.239.239,0,0,1-.291-.218" transform="translate(-28.706 -10.184)"/>
        <path id="패스_5295-2" data-name="패스 5295" class="cls-4" d="M103.279,40.189l-.1-.16h0a.5.5,0,0,0-.313-.233.548.548,0,0,0-.386.044l-.029.015a.535.535,0,0,0-.189.706l.015.029h0l.1.168a.253.253,0,0,1-.087.357.268.268,0,0,1-.364-.08l-.1-.168h0c-.007-.022-.022-.036-.029-.058a1.054,1.054,0,0,1,.379-1.4.255.255,0,0,1,.058-.036,1.1,1.1,0,0,1,.772-.095,1.048,1.048,0,0,1,.626.466h0l.1.16a.267.267,0,0,1-.452.284Z" transform="translate(-27.624 -10.657)"/>
        <g id="그룹_1354-2" data-name="그룹 1354" transform="translate(56.428 10.509)">
          <path id="패스_5296-2" data-name="패스 5296" class="cls-4" d="M82.2,18.222a.709.709,0,0,0,.714-.706v-.437c-.095-1.595-.583-2.658-2.666-2.658H78.194a.714.714,0,0,0,0,1.427h2.054c.99,0,1.173.095,1.245,1.3v.379A.7.7,0,0,0,82.2,18.222Z" transform="translate(-77.48 -14.42)"/>
        </g>
        <g id="그룹_1355-2" data-name="그룹 1355" transform="translate(55.379 8.565)">
          <path id="패스_5297-2" data-name="패스 5297" class="cls-4" d="M83.745,16.768a.713.713,0,0,0,.714-.706v-.408a.092.092,0,0,0-.007-.044,3.825,3.825,0,0,0-3.94-3.86H76.754a.714.714,0,1,0,0,1.427H80.5a2.418,2.418,0,0,1,2.542,2.505v.379A.7.7,0,0,0,83.745,16.768Z" transform="translate(-76.04 -11.75)"/>
        </g>
        <g id="그룹_1356-2" data-name="그룹 1356" transform="translate(54.178 6.715)">
          <path id="패스_5298-2" data-name="패스 5298" class="cls-4" d="M85.161,15.3a.715.715,0,0,0,.714-.714v-.2A5.184,5.184,0,0,0,80.7,9.21H75.1a.714.714,0,1,0,0,1.427H80.7A3.762,3.762,0,0,1,84.455,14.4v.2A.7.7,0,0,0,85.161,15.3Z" transform="translate(-74.39 -9.21)"/>
        </g>
        <path id="패스_5299-2" data-name="패스 5299" class="cls-7" d="M95.581,29.557s-.051-.044-.138-.131c-.524-.532-2.4-2.28-1.945-4.027,0,0-2.127-.371-5.258-3.059,0,0,2.92,2.644,1.733,4.355C89.973,26.7,92.34,26.834,95.581,29.557Z" transform="translate(-23.976 -6.063)"/>
        <path id="패스_5300-2" data-name="패스 5300" class="cls-7" d="M109.27,51.25l.007-.029c.007-.022.007-.036.015-.058s.007-.073.007-.1-.015-.058-.036-.066A.035.035,0,0,0,109.2,51a.135.135,0,0,0-.015.051.055.055,0,0,0,.007.036c0,.022.015.036.015.051a.268.268,0,0,0,.058.109" transform="translate(-29.668 -13.845)"/>
        <path id="패스_5301-2" data-name="패스 5301" class="cls-7" d="M109.372,51.88V51.9c-.007.022-.007.044-.015.066a.481.481,0,0,0-.007.1.111.111,0,0,0,.029.073.047.047,0,0,0,.066-.007.135.135,0,0,0,.015-.051.055.055,0,0,0-.007-.036.468.468,0,0,0-.015-.051c-.022-.044-.044-.08-.066-.117" transform="translate(-29.712 -14.089)"/>
        <path id="패스_5302-2" data-name="패스 5302" class="cls-7" d="M108.976,51.649l-.029-.007c-.022-.007-.044-.007-.058-.015a.551.551,0,0,0-.109-.007.108.108,0,0,0-.066.029c-.022.022-.022.044.007.066a.135.135,0,0,0,.051.015.055.055,0,0,0,.036-.007.135.135,0,0,1,.051-.015c.036-.015.073-.036.117-.058" transform="translate(-29.535 -14.019)"/>
        <path id="패스_5303-2" data-name="패스 5303" class="cls-7" d="M109.6,51.54l.022.007c.022,0,.044.007.058.007a.516.516,0,0,0,.1.007.129.129,0,0,0,.073-.029.044.044,0,0,0,0-.058.135.135,0,0,0-.051-.015.055.055,0,0,0-.036.007.185.185,0,0,0-.051.015.581.581,0,0,0-.117.058" transform="translate(-29.78 -13.975)"/>
        <g id="그룹_1357-2" data-name="그룹 1357" transform="translate(11.984 26.06)">
          <path id="패스_5304-2" data-name="패스 5304" class="cls-7" d="M62.9,52.2h.029a.217.217,0,0,0,.189-.248.653.653,0,0,1,.051-.284.221.221,0,0,0-.109-.291.228.228,0,0,0-.291.109,1.093,1.093,0,0,0-.08.524A.208.208,0,0,0,62.9,52.2Z" transform="translate(-29.015 -40.007)"/>
          <path id="패스_5305-2" data-name="패스 5305" class="cls-7" d="M66.176,45.5h.036a.214.214,0,0,0,.182-.248.6.6,0,0,1,.044-.277.221.221,0,0,0-.109-.291.219.219,0,0,0-.291.109,1.138,1.138,0,0,0-.08.532A.214.214,0,0,0,66.176,45.5Z" transform="translate(-29.903 -38.188)"/>
          <path id="패스_5306-2" data-name="패스 5306" class="cls-7" d="M63.036,45.537h.029a.217.217,0,0,0,.189-.248A.666.666,0,0,1,63.306,45a.208.208,0,0,0-.117-.284.228.228,0,0,0-.291.109,1.077,1.077,0,0,0-.08.517A.226.226,0,0,0,63.036,45.537Z" transform="translate(-29.05 -38.198)"/>
          <path id="패스_5307-2" data-name="패스 5307" class="cls-7" d="M66.956,42.576h.029a.225.225,0,0,0,.189-.248.771.771,0,0,1,.044-.284.22.22,0,0,0-.4-.182,1.122,1.122,0,0,0-.08.524A.226.226,0,0,0,66.956,42.576Z" transform="translate(-30.115 -37.392)"/>
          <path id="패스_5308-2" data-name="패스 5308" class="cls-7" d="M64.059,38.918h.029a.217.217,0,0,0,.189-.248.672.672,0,0,1,.051-.284.211.211,0,0,0-.109-.284.218.218,0,0,0-.291.117,1.092,1.092,0,0,0-.08.517A.207.207,0,0,0,64.059,38.918Z" transform="translate(-29.33 -36.4)"/>
          <path id="패스_5309-2" data-name="패스 5309" class="cls-7" d="M64.616,43.707h.029a.217.217,0,0,0,.189-.248.858.858,0,0,1,.044-.291.214.214,0,0,0-.117-.284.22.22,0,0,0-.284.117,1.092,1.092,0,0,0-.08.517A.22.22,0,0,0,64.616,43.707Z" transform="translate(-29.48 -37.701)"/>
          <path id="패스_5310-2" data-name="패스 5310" class="cls-7" d="M65.528,36.616h.036a.219.219,0,0,0,.182-.248.672.672,0,0,1,.051-.284.22.22,0,1,0-.4-.182,1.037,1.037,0,0,0-.08.524A.218.218,0,0,0,65.528,36.616Z" transform="translate(-29.729 -35.773)"/>
          <path id="패스_5311-2" data-name="패스 5311" class="cls-7" d="M66.315,39.448h.029a.219.219,0,0,0,.182-.248.641.641,0,0,1,.051-.277.221.221,0,0,0-.109-.291.213.213,0,0,0-.291.109,1.037,1.037,0,0,0-.08.524A.214.214,0,0,0,66.315,39.448Z" transform="translate(-29.94 -36.544)"/>
          <path id="패스_5312-2" data-name="패스 5312" class="cls-7" d="M64.846,41.036h.029a.226.226,0,0,0,.189-.248.771.771,0,0,1,.044-.284.22.22,0,1,0-.4-.182,1.093,1.093,0,0,0-.08.524A.22.22,0,0,0,64.846,41.036Z" transform="translate(-29.542 -36.974)"/>
          <path id="패스_5313-2" data-name="패스 5313" class="cls-7" d="M63.859,47.756h.029a.217.217,0,0,0,.189-.248.7.7,0,0,1,.051-.291.211.211,0,0,0-.109-.284.216.216,0,0,0-.291.117,1.077,1.077,0,0,0-.08.517A.208.208,0,0,0,63.859,47.756Z" transform="translate(-29.276 -38.8)"/>
          <path id="패스_5314-2" data-name="패스 5314" class="cls-7" d="M64.714,50.7h.029a.21.21,0,0,0,.182-.248.819.819,0,0,1,.044-.284.221.221,0,0,0-.109-.291.219.219,0,0,0-.291.109,1.122,1.122,0,0,0-.08.524A.233.233,0,0,0,64.714,50.7Z" transform="translate(-29.504 -39.598)"/>
          <path id="패스_5315-2" data-name="패스 5315" class="cls-7" d="M62.7,49.7h.036a.215.215,0,0,0,.182-.248.692.692,0,0,1,.051-.284.221.221,0,0,0-.109-.291.228.228,0,0,0-.291.109,1.137,1.137,0,0,0-.08.524A.207.207,0,0,0,62.7,49.7Z" transform="translate(-28.961 -39.328)"/>
          <path id="패스_5316-2" data-name="패스 5316" class="cls-7" d="M66.259,48.6h.029a.217.217,0,0,0,.189-.248.755.755,0,0,1,.051-.284.221.221,0,0,0-.109-.291.228.228,0,0,0-.291.109,1.107,1.107,0,0,0-.08.517A.208.208,0,0,0,66.259,48.6Z" transform="translate(-29.928 -39.029)"/>
          <path id="패스_5317-2" data-name="패스 5317" class="cls-7" d="M18.389,67.016a.2.2,0,0,0,.189-.109.8.8,0,0,1,.2-.218.219.219,0,0,0-.218-.379,1.1,1.1,0,0,0-.357.379.217.217,0,0,0,.087.3A.167.167,0,0,0,18.389,67.016Z" transform="translate(-16.921 -44.062)"/>
          <path id="패스_5318-2" data-name="패스 5318" class="cls-7" d="M20.939,66.926a.2.2,0,0,0,.189-.109.724.724,0,0,1,.2-.218.219.219,0,0,0-.218-.379,1.038,1.038,0,0,0-.357.379.217.217,0,0,0,.087.3A.237.237,0,0,0,20.939,66.926Z" transform="translate(-17.614 -44.038)"/>
          <path id="패스_5319-2" data-name="패스 5319" class="cls-7" d="M21.162,61.456a.23.23,0,0,0,.2-.117.552.552,0,0,1,.2-.211.219.219,0,0,0-.218-.379,1.184,1.184,0,0,0-.357.386.223.223,0,0,0,.087.3A.3.3,0,0,0,21.162,61.456Z" transform="translate(-17.677 -42.552)"/>
          <path id="패스_5320-2" data-name="패스 5320" class="cls-7" d="M18.99,64.247a.21.21,0,0,0,.189-.117.627.627,0,0,1,.2-.211.217.217,0,0,0-.226-.371,1.165,1.165,0,0,0-.357.379.223.223,0,0,0,.087.3A.257.257,0,0,0,18.99,64.247Z" transform="translate(-17.085 -43.311)"/>
          <path id="패스_5321-2" data-name="패스 5321" class="cls-7" d="M20.98,64a.23.23,0,0,0,.2-.117.585.585,0,0,1,.189-.211.219.219,0,1,0-.218-.379,1.076,1.076,0,0,0-.357.393.21.21,0,0,0,.095.291A.224.224,0,0,0,20.98,64Z" transform="translate(-17.625 -43.242)"/>
          <path id="패스_5322-2" data-name="패스 5322" class="cls-7" d="M18.8,62.046a.2.2,0,0,0,.189-.109.736.736,0,0,1,.2-.218.214.214,0,0,0,.073-.3.225.225,0,0,0-.3-.08,1.165,1.165,0,0,0-.357.379.219.219,0,0,0,.087.3A.167.167,0,0,0,18.8,62.046Z" transform="translate(-17.032 -42.712)"/>
          <path id="패스_5323-2" data-name="패스 5323" class="cls-7" d="M16.67,66.127a.215.215,0,0,0,.2-.117.614.614,0,0,1,.2-.211.217.217,0,1,0-.226-.371,1.117,1.117,0,0,0-.357.386.223.223,0,0,0,.087.3A.43.43,0,0,0,16.67,66.127Z" transform="translate(-16.454 -43.821)"/>
          <path id="패스_5324-2" data-name="패스 5324" class="cls-7" d="M81.466,73.574a.218.218,0,0,0,.189-.117.614.614,0,0,1,.2-.211.223.223,0,0,0,.08-.3.211.211,0,0,0-.3-.08,1.146,1.146,0,0,0-.364.386.219.219,0,0,0,.087.3A.953.953,0,0,0,81.466,73.574Z" transform="translate(-34.058 -45.843)"/>
          <path id="패스_5325-2" data-name="패스 5325" class="cls-7" d="M84.029,73.476a.217.217,0,0,0,.189-.109.724.724,0,0,1,.2-.218.219.219,0,0,0-.218-.379,1.1,1.1,0,0,0-.357.379.219.219,0,0,0,.087.3A.167.167,0,0,0,84.029,73.476Z" transform="translate(-34.756 -45.818)"/>
          <path id="패스_5326-2" data-name="패스 5326" class="cls-7" d="M84.25,68.006a.23.23,0,0,0,.2-.117.614.614,0,0,1,.2-.211.219.219,0,1,0-.218-.379,1.141,1.141,0,0,0-.364.386.223.223,0,0,0,.087.3A.233.233,0,0,0,84.25,68.006Z" transform="translate(-34.817 -44.331)"/>
          <path id="패스_5327-2" data-name="패스 5327" class="cls-7" d="M82.08,70.8a.23.23,0,0,0,.2-.117.716.716,0,0,1,.2-.218.217.217,0,0,0-.226-.371,1.184,1.184,0,0,0-.357.386.223.223,0,0,0,.087.3A.233.233,0,0,0,82.08,70.8Z" transform="translate(-34.227 -45.09)"/>
          <path id="패스_5328-2" data-name="패스 5328" class="cls-7" d="M84.07,70.544a.23.23,0,0,0,.2-.117.8.8,0,0,1,.2-.218.217.217,0,0,0-.226-.371,1.117,1.117,0,0,0-.357.386.225.225,0,0,0,.087.3A.233.233,0,0,0,84.07,70.544Z" transform="translate(-34.768 -45.02)"/>
          <path id="패스_5329-2" data-name="패스 5329" class="cls-7" d="M81.886,68.606a.227.227,0,0,0,.189-.109.724.724,0,0,1,.2-.218.219.219,0,0,0-.218-.379,1.146,1.146,0,0,0-.364.386.219.219,0,0,0,.087.3A.292.292,0,0,0,81.886,68.606Z" transform="translate(-34.172 -44.495)"/>
          <path id="패스_5330-2" data-name="패스 5330" class="cls-7" d="M79.756,72.683a.2.2,0,0,0,.189-.117.824.824,0,0,1,.2-.218.219.219,0,0,0-.218-.379,1.217,1.217,0,0,0-.364.386.217.217,0,0,0,.087.3A.205.205,0,0,0,79.756,72.683Z" transform="translate(-33.593 -45.6)"/>
          <path id="패스_5331-2" data-name="패스 5331" class="cls-7" d="M55.174,85.038a.9.9,0,0,0,.146-.015.219.219,0,0,0-.08-.43.686.686,0,0,1-.291-.029.218.218,0,0,0-.284.131.211.211,0,0,0,.131.277A1.139,1.139,0,0,0,55.174,85.038Z" transform="translate(-26.833 -49.026)"/>
          <path id="패스_5332-2" data-name="패스 5332" class="cls-7" d="M58.672,84.418a.709.709,0,0,0,.131-.007.219.219,0,1,0-.08-.43.842.842,0,0,1-.291-.036.208.208,0,0,0-.277.131.211.211,0,0,0,.131.277A1.22,1.22,0,0,0,58.672,84.418Z" transform="translate(-27.781 -48.858)"/>
          <path id="패스_5333-2" data-name="패스 5333" class="cls-7" d="M47.437,84.878a.9.9,0,0,0,.146-.015.219.219,0,0,0-.08-.43.633.633,0,0,1-.284-.029.217.217,0,0,0-.284.124.22.22,0,0,0,.117.284A1.1,1.1,0,0,0,47.437,84.878Z" transform="translate(-24.732 -48.982)"/>
          <path id="패스_5334-2" data-name="패스 5334" class="cls-7" d="M44.482,84.251a.836.836,0,0,0,.138-.007.221.221,0,0,0,.175-.255.218.218,0,0,0-.255-.175.686.686,0,0,1-.291-.029.219.219,0,0,0-.16.408A1.5,1.5,0,0,0,44.482,84.251Z" transform="translate(-23.925 -48.814)"/>
          <path id="패스_5335-2" data-name="패스 5335" class="cls-7" d="M43.007,86.148a.9.9,0,0,0,.146-.015.221.221,0,0,0,.175-.255.218.218,0,0,0-.255-.175.623.623,0,0,1-.284-.029.22.22,0,0,0-.284.117.217.217,0,0,0,.124.284A.9.9,0,0,0,43.007,86.148Z" transform="translate(-23.528 -49.327)"/>
          <path id="패스_5336-2" data-name="패스 5336" class="cls-7" d="M45.729,86.528a.652.652,0,0,0,.131-.015.221.221,0,0,0,.175-.255.218.218,0,0,0-.255-.175.826.826,0,0,1-.291-.029.218.218,0,0,0-.284.131.211.211,0,0,0,.131.277A1.307,1.307,0,0,0,45.729,86.528Z" transform="translate(-24.262 -49.431)"/>
          <path id="패스_5337-2" data-name="패스 5337" class="cls-7" d="M48.327,83.168a.9.9,0,0,0,.146-.015.221.221,0,0,0,.175-.255.211.211,0,0,0-.255-.168.782.782,0,0,1-.284-.036.218.218,0,0,0-.284.131.221.221,0,0,0,.124.284A1.38,1.38,0,0,0,48.327,83.168Z" transform="translate(-24.974 -48.518)"/>
          <path id="패스_5338-2" data-name="패스 5338" class="cls-7" d="M49.812,87.068a.4.4,0,0,0,.138-.015.216.216,0,0,0,.175-.255.221.221,0,0,0-.255-.175.811.811,0,0,1-.291-.029.221.221,0,0,0-.284.124.218.218,0,0,0,.131.284A1.221,1.221,0,0,0,49.812,87.068Z" transform="translate(-25.373 -49.578)"/>
          <path id="패스_5339-2" data-name="패스 5339" class="cls-7" d="M52.7,86.045a.807.807,0,0,0,.138-.015.221.221,0,0,0,.175-.255.212.212,0,0,0-.255-.175.559.559,0,0,1-.284-.036.224.224,0,0,0-.284.124.215.215,0,0,0,.124.284A.986.986,0,0,0,52.7,86.045Z" transform="translate(-26.161 -49.298)"/>
          <path id="패스_5340-2" data-name="패스 5340" class="cls-7" d="M56.117,82.868a.5.5,0,0,0,.146-.015.219.219,0,1,0-.08-.43.644.644,0,0,1-.284-.029.219.219,0,1,0-.16.408A1.073,1.073,0,0,0,56.117,82.868Z" transform="translate(-27.09 -48.436)"/>
          <path id="패스_5341-2" data-name="패스 5341" class="cls-7" d="M50.532,84.618a.893.893,0,0,0,.138-.015.219.219,0,0,0-.08-.43.81.81,0,0,1-.291-.029.221.221,0,0,0-.284.131.224.224,0,0,0,.124.284A1.5,1.5,0,0,0,50.532,84.618Z" transform="translate(-25.569 -48.912)"/>
        </g>
        <path id="패스_5342-2" data-name="패스 5342" class="cls-7" d="M88.37,91.113a15.23,15.23,0,0,1,3.874,4.3l2.716-1.544A13.633,13.633,0,0,0,91.946,87.9a1.651,1.651,0,0,0-2.287,1.486s.16,1.005-.568,1.173a.616.616,0,0,0-.721.393Z" transform="translate(-24.011 -23.848)"/>
        <path id="패스_5343-2" data-name="패스 5343" class="cls-7" d="M80.307,91.609A16.873,16.873,0,0,1,77.54,94.2l2.272,1.493a26.387,26.387,0,0,0,3.663-2.52s-1.784.393-2.229-.634S80.307,91.609,80.307,91.609Z" transform="translate(-21.068 -24.883)"/>
        <path id="패스_5344-2" data-name="패스 5344" class="cls-7" d="M18.045,92.13A4.168,4.168,0,0,1,16.588,93l-2.658.787,1.61,2.068a13.664,13.664,0,0,0,4.5-.728s.328-1.114-1.3-1.559c0,0-.947-.058-.808-.91Z" transform="translate(-3.785 -25.026)"/>
        <g id="그룹_1358-2" data-name="그룹 1358" transform="translate(6.635 15.352)">
          <path id="패스_5345-2" data-name="패스 5345" class="cls-9" d="M40.921,101.566l-5.011.029.262-3.773,2.8-.583Z" transform="translate(-16.392 -41.766)"/>
          <path id="패스_5346-2" data-name="패스 5346" class="cls-9" d="M99.8,100.017l-5.193,1.617-.918-3.947,2.724-1.537Z" transform="translate(-32.092 -41.47)"/>
          <path id="패스_5347-2" data-name="패스 5347" class="cls-9" d="M12.613,94.4l1.617,2.068-3.343,1.406L9.11,94.888Z" transform="translate(-9.11 -40.995)"/>
          <path id="패스_5348-2" data-name="패스 5348" class="cls-9" d="M78.964,96.462,77.31,94.43l-2.92,1.253,2.258,2.52Z" transform="translate(-26.848 -41.003)"/>
          <path id="패스_5349-2" data-name="패스 5349" class="cls-9" d="M93.73,21.995a.921.921,0,1,0,.918-.925A.92.92,0,0,0,93.73,21.995Z" transform="translate(-32.102 -21.07)"/>
          <path id="패스_5350-2" data-name="패스 5350" class="cls-9" d="M83.98,26.985a1.005,1.005,0,1,0,1.005-1.005A1,1,0,0,0,83.98,26.985Z" transform="translate(-29.453 -22.404)"/>
        </g>
      </g>
    </g>
  </g>
</svg>
