<svg xmlns="http://www.w3.org/2000/svg" viewBox="0 0 455.863 265.82">
  <defs>
    <style>
      .cls-1 {
        opacity: 0.1;
      }

      .cls-2 {
        fill: #74c6be;
      }

      .cls-3 {
        fill: #64c0ab;
      }

      .cls-4 {
        fill: #bce2e3;
      }

      .cls-5 {
        fill: #727171;
      }

      .cls-6 {
        fill: #fff;
      }

      .cls-7 {
        fill: #e0f1f2;
      }

      .cls-8 {
        fill: #e6e6e6;
      }

      .cls-9 {
        fill: #666464;
      }

      .cls-10 {
        fill: #7d7d7d;
      }

      .cls-11 {
        fill: #e3c8a0;
      }

      .cls-12 {
        fill: #60b7a3;
      }

      .cls-13 {
        fill: #b5b5b6;
      }

      .cls-14 {
        fill: #ea5541;
      }

      .cls-15 {
        fill: #898989;
      }

      .cls-16 {
        fill: #ededed;
      }

      .cls-17 {
        fill: #006b94;
      }

      .cls-18 {
        fill: #831a1f;
      }

      .cls-19 {
        fill: #972328;
      }

      .cls-20 {
        fill: #d2a587;
      }

      .cls-21 {
        fill: #f6c3d9;
      }

      .cls-22 {
        fill: #fdd35c;
      }

      .cls-23 {
        fill: #6a6969;
      }

      .cls-24 {
        fill: #efefef;
      }

      .cls-25 {
        fill: #f7f8f8;
      }

      .cls-26 {
        fill: #e3904a;
      }
    </style>
  </defs>
  <g id="그룹_1465" data-name="그룹 1465" transform="translate(-132.939 -420.66)">
    <g id="그룹_1428" data-name="그룹 1428" class="cls-1" transform="translate(134.947 421.67)">
      <path id="패스_5517" data-name="패스 5517" d="M99.287,16.93s-16.13,0-23.887,54.742c0,0-.543,7.089-6.915,6a3.857,3.857,0,0,0-4.257,3.113c-.871,4.16,4.315,5.15,7.315,5.221a13.825,13.825,0,0,0,2.757-.17c9.915-1.783,10.415-12.083,12.115-19.922,2.043-9.451,2.857-19,7.3-27.633,2.714-5.292,7.229-8.744,11.558-12.89Z" transform="translate(-58.963 7.028)"/>
      <path id="패스_5518" data-name="패스 5518" d="M82.846,165.712h.029a1.859,1.859,0,0,0,1.843-1.882V155.3c0-.623-.043-1.245-.057-1.868-.029-.75-.057-1.443-.057-2.151v-.424c.014-1.33.014-2.985.714-3.636.643-.566,2.4-.5,3.243-.453l3.143.2a1.851,1.851,0,1,0,.243-3.693l-3.186-.212c-1.486-.071-4.186-.184-5.958,1.415-1.929,1.726-1.943,4.414-1.943,6.353v.4c-.014.792.029,1.571.057,2.335.029.58.043,1.16.057,1.754.014,1.3,0,2.6,0,3.905v4.627a1.872,1.872,0,0,0,1.872,1.868" transform="translate(-71.28 59.344)"/>
      <path id="패스_5519" data-name="패스 5519" d="M82.722,170.222a1.857,1.857,0,0,0,1.857-1.854V149.975a8.182,8.182,0,0,1,.457-2.589,6.688,6.688,0,0,1,6.072-4.018h5.429a1.854,1.854,0,1,0,0-3.707H91.108a10.392,10.392,0,0,0-9.558,6.381,11.471,11.471,0,0,0-.7,3.877v18.45a1.869,1.869,0,0,0,1.872,1.854" transform="translate(-75.985 57.948)"/>
      <path id="패스_5520" data-name="패스 5520" d="M83.777,174.772a1.851,1.851,0,0,0,1.872-1.854V150.535a11.366,11.366,0,0,1,10.8-10.6h4.5a1.854,1.854,0,1,0,0-3.707H96.378l-.129.014a15.2,15.2,0,0,0-14.33,14.121v22.582a1.833,1.833,0,0,0,1.857,1.825" transform="translate(-81.927 56.525)"/>
      <path id="패스_5521" data-name="패스 5521" d="M87.545,169.932s2.489,25.525-17.511,44.993l-3.888,32.189H58.37l-5.066-30-13.181-.382-7.379,33.222H25.63L20.8,211.7s-15.155-5.674-10.457-34.3l9.4-86.054S26.131,38.22,39.68,32.971c0,0-16.259-14.757-3.976-32.981A34.738,34.738,0,0,1,51.949,21.553s1.37.594,12.165.085h3.52s3-11.715,18.115-17.3c0,0,4.9,13.074-5.965,26.034.412-.5,14.006,10.626,14.418,10.965,12.7,10.329,18.572,18.507,27.187,30.8,1.973,2.816,2.68,5.532,1.694,9.692-.781,3.325-5.066,7.754-7.658,9.918-3.608,3.028-7.614,4.924-12.445,4.881-8.763-.085-18.881-1.019-26.79-4.768.353.17.029.269,1.09,6.608Z" transform="translate(4.335)"/>
      <path id="패스_5522" data-name="패스 5522" d="M81.765,187.521H66.35l1.614-11.687,7.372-.354Z" transform="translate(-37.854 72.809)"/>
      <path id="패스_5523" data-name="패스 5523" d="M53.968,174.65l5.415,9.607s-9.729.042-14.773-.523l1.814-9.084" transform="translate(16.464 72.465)"/>
      <path id="패스_5524" data-name="패스 5524" d="M58.409,164.776c-.014.085-.229.241-.3.3a5.528,5.528,0,0,1-.814.608,3.579,3.579,0,0,1-2.814.4,3.763,3.763,0,0,1-1.072-.523c-.329-.212-.6-.467-.929-.651a3,3,0,0,0-1.114-.269,5.248,5.248,0,0,0-.943.014,3.808,3.808,0,0,0-2.157.863,4.107,4.107,0,0,0-.543.566,3.106,3.106,0,0,0-.243.354c-.057.071-.243.3-.229.382l1.972,12.069h7.529Z" transform="translate(13.615 68.303)"/>
      <path id="패스_5525" data-name="패스 5525" d="M80.978,166.345a2.369,2.369,0,0,1-3.843-.085s-2.2-2.858-3.857,0c0,0-1.757,1.91-2.986-.948,0,0-.957-1.571-1.572-.085l1.929,15.1,7.358-.269Z" transform="translate(-40.478 68.29)"/>
      <path id="패스_5526" data-name="패스 5526" d="M44.18,5.62s1.5,11.956-4.858,18.337S36.265,11.124,44.18,5.62" transform="translate(44.251 2.336)"/>
      <path id="패스_5527" data-name="패스 5527" d="M65.711,3.32s-4.672,11.843,2.5,21.7c6.3,8.673,5.829-13.7-2.5-21.7" transform="translate(-25.316 1.382)"/>
      <path id="패스_5528" data-name="패스 5528" d="M26.948,44.24c.114.156.171.241.157.241s-.057-.071-.157-.226Z" transform="translate(74.784 18.359)"/>
      <path id="패스_5529" data-name="패스 5529" d="M15.818,57.374l-.043-.552a1.466,1.466,0,0,0-.514-.976,1.542,1.542,0,0,0-1.043-.368l-.1.014a1.482,1.482,0,0,0-1.357,1.528l.014.1.057.538a.74.74,0,0,1-1.472.156l-.057-.538v-.014a.682.682,0,0,1-.014-.17,2.961,2.961,0,0,1,2.686-3.056.762.762,0,0,0,.186-.014,2.928,2.928,0,0,1,2.057.722,2.826,2.826,0,0,1,1.014,1.938l.057.538a.743.743,0,0,1-.657.806.755.755,0,0,1-.814-.651" transform="translate(107.927 22.416)"/>
      <path id="패스_5530" data-name="패스 5530" d="M30.194,32.275l.057.538a1.531,1.531,0,0,0,.514.99,1.6,1.6,0,0,0,1.043.354h.1a1.516,1.516,0,0,0,1.357-1.542l-.014-.1h0l-.057-.538a.74.74,0,0,1,1.472-.156l.057.538a.8.8,0,0,1,.014.184,2.983,2.983,0,0,1-2.686,3.07c-.057,0-.129.014-.186.014a3.011,3.011,0,0,1-2.072-.722,2.883,2.883,0,0,1-1.014-1.938l-.057-.538a.74.74,0,0,1,1.472-.156" transform="translate(64.515 12.935)"/>
      <path id="패스_5531" data-name="패스 5531" d="M43.564,39.309l.057.538a1.582,1.582,0,0,0,.5.99,1.53,1.53,0,0,0,1.043.354l.086-.014a1.476,1.476,0,0,0,1.357-1.542v-.1L46.55,39a.735.735,0,0,1,.657-.806.752.752,0,0,1,.829.651l.043.552a.741.741,0,0,1,.014.184,2.981,2.981,0,0,1-2.686,3.056c-.071,0-.129.014-.186.014a2.952,2.952,0,0,1-2.057-.722,2.914,2.914,0,0,1-1.014-1.938l-.057-.538a.735.735,0,0,1,.657-.806.747.747,0,0,1,.814.665" transform="translate(31.564 15.848)"/>
      <path id="패스_5532" data-name="패스 5532" d="M21.645,59.125l-.286-.467a1.487,1.487,0,0,0-.9-.651,1.462,1.462,0,0,0-1.086.127l-.086.042a1.477,1.477,0,0,0-.543,1.967l.057.085.286.467a.718.718,0,0,1-.243,1,.747.747,0,0,1-1.029-.241l-.286-.467h0c-.029-.057-.071-.1-.1-.156a2.971,2.971,0,0,1,1.057-3.919c.057-.028.1-.057.157-.085a3.031,3.031,0,0,1,2.186-.255,3,3,0,0,1,1.772,1.3l.3.467a.739.739,0,0,1-1.257.778" transform="translate(93.297 23.438)"/>
      <path id="패스_5533" data-name="패스 5533" d="M58.644,31.4a2,2,0,0,0,2.014-1.995V28.291l-.014-.113C60.373,23.721,59,20.75,53.115,20.75H47.3a1.988,1.988,0,1,0,.014,3.976h5.815c2.786,0,3.315.269,3.515,3.622v1.061a1.981,1.981,0,0,0,2,1.995" transform="translate(14.166 8.613)"/>
      <path id="패스_5534" data-name="패스 5534" d="M63.239,30.952a2,2,0,0,0,2.014-1.981V27.853l-.014-.141c-.457-6.565-4.615-10.6-11.129-10.781H43.494a1.988,1.988,0,1,0,0,3.976H54.052c5.486.156,6.929,3.877,7.172,7.018v1.047a2.018,2.018,0,0,0,2.014,1.981" transform="translate(15.059 7.028)"/>
      <path id="패스_5535" data-name="패스 5535" d="M68.192,30.285a2,2,0,0,0,2.014-1.995v-.552A14.582,14.582,0,0,0,55.563,13.25H39.79a2,2,0,1,0,0,3.99H55.563A10.571,10.571,0,0,1,66.178,27.753V28.3a2,2,0,0,0,2.014,1.981" transform="translate(15.403 5.501)"/>
      <path id="패스_5536" data-name="패스 5536" d="M38.054,122.965a.61.61,0,0,0,.486-.226,3.049,3.049,0,0,0,.6-1.358.618.618,0,0,0-1.229-.141,1.7,1.7,0,0,1-.329.736.606.606,0,0,0,.1.863.537.537,0,0,0,.371.127" transform="translate(47.362 50.081)"/>
      <path id="패스_5537" data-name="패스 5537" d="M37.447,117.905a.6.6,0,0,0,.486-.241,3.049,3.049,0,0,0,.586-1.344.618.618,0,0,0-1.229-.142,1.866,1.866,0,0,1-.343.75.608.608,0,0,0,.114.863.762.762,0,0,0,.386.113" transform="translate(48.905 47.981)"/>
      <path id="패스_5538" data-name="패스 5538" d="M41.614,133.529a.585.585,0,0,0,.486-.241,3.156,3.156,0,0,0,.6-1.344.612.612,0,0,0-.529-.693.626.626,0,0,0-.7.523,2.356,2.356,0,0,1-.329.75.606.606,0,0,0,.1.863.532.532,0,0,0,.371.142" transform="translate(38.588 54.457)"/>
      <path id="패스_5539" data-name="패스 5539" d="M43.745,137.325a.61.61,0,0,0,.486-.226,3.138,3.138,0,0,0,.6-1.358A.618.618,0,0,0,43.6,135.6a1.8,1.8,0,0,1-.329.736.619.619,0,0,0,.086.863.631.631,0,0,0,.386.127" transform="translate(33.338 56.038)"/>
      <path id="패스_5540" data-name="패스 5540" d="M41.788,140.159a.625.625,0,0,0,.486-.241,3.181,3.181,0,0,0,.586-1.358.618.618,0,0,0-1.229-.141,2.013,2.013,0,0,1-.329.736.606.606,0,0,0,.1.863.567.567,0,0,0,.386.141" transform="translate(38.194 57.208)"/>
      <path id="패스_5541" data-name="패스 5541" d="M40.1,136.585a.657.657,0,0,0,.486-.226A2.886,2.886,0,0,0,41.172,135a.63.63,0,0,0-.543-.679.606.606,0,0,0-.686.538,1.925,1.925,0,0,1-.329.722.606.606,0,0,0,.1.863.566.566,0,0,0,.386.142" transform="translate(42.357 55.731)"/>
      <path id="패스_5542" data-name="패스 5542" d="M43.627,131.575a.6.6,0,0,0,.486-.241,3.013,3.013,0,0,0,.571-1.344.609.609,0,0,0-.543-.679.631.631,0,0,0-.686.538,2.008,2.008,0,0,1-.329.75.608.608,0,0,0,.114.863.806.806,0,0,0,.386.113" transform="translate(33.689 53.653)"/>
      <path id="패스_5543" data-name="패스 5543" d="M37.619,131.205a.6.6,0,0,0,.486-.241,3,3,0,0,0,.571-1.358.617.617,0,0,0-1.229-.113,1.861,1.861,0,0,1-.329.736.608.608,0,0,0,.114.863,1,1,0,0,0,.386.113" transform="translate(48.499 53.499)"/>
      <path id="패스_5544" data-name="패스 5544" d="M37.754,126.809a.6.6,0,0,0,.486-.241,3.181,3.181,0,0,0,.586-1.358.6.6,0,0,0-.543-.679.614.614,0,0,0-.686.538,2.15,2.15,0,0,1-.329.75.619.619,0,0,0,.1.863.662.662,0,0,0,.386.127" transform="translate(48.13 51.67)"/>
      <path id="패스_5545" data-name="패스 5545" d="M40.647,120.749a.61.61,0,0,0,.486-.226,3.179,3.179,0,0,0,.6-1.372.63.63,0,0,0-.543-.679.606.606,0,0,0-.686.538,1.926,1.926,0,0,1-.329.722.617.617,0,0,0,.086.863.542.542,0,0,0,.386.156" transform="translate(40.976 49.155)"/>
      <path id="패스_5546" data-name="패스 5546" d="M40.646,129.179a.657.657,0,0,0,.486-.226,3.088,3.088,0,0,0,.6-1.372.63.63,0,0,0-.543-.679.606.606,0,0,0-.686.538,2.09,2.09,0,0,1-.329.736.606.606,0,0,0,.1.863.532.532,0,0,0,.371.142" transform="translate(40.977 52.652)"/>
      <path id="패스_5547" data-name="패스 5547" d="M74.855,147.4a.621.621,0,0,0,.371-.127.605.605,0,0,0,.114-.863,1.8,1.8,0,0,1-.329-.75.618.618,0,0,0-1.229.141,3.321,3.321,0,0,0,.571,1.358.631.631,0,0,0,.5.241" transform="translate(-42.172 60.212)"/>
      <path id="패스_5548" data-name="패스 5548" d="M73.5,143.979a.625.625,0,0,0,.5-.99,2.054,2.054,0,0,1-.329-.736A.609.609,0,0,0,73,141.7a.617.617,0,0,0-.557.665,2.977,2.977,0,0,0,.571,1.358.581.581,0,0,0,.486.255" transform="translate(-38.851 58.793)"/>
      <path id="패스_5549" data-name="패스 5549" d="M80.565,140.529a.662.662,0,0,0,.386-.127.621.621,0,0,0,.114-.863,1.831,1.831,0,0,1-.329-.75.618.618,0,0,0-1.229.141,3.181,3.181,0,0,0,.586,1.358.559.559,0,0,0,.471.241" transform="translate(-56.842 57.361)"/>
      <path id="패스_5550" data-name="패스 5550" d="M78.139,145a.662.662,0,0,0,.386-.127.621.621,0,0,0,.114-.863,2.039,2.039,0,0,1-.343-.764.613.613,0,1,0-1.214.17,3.261,3.261,0,0,0,.586,1.33.539.539,0,0,0,.471.255" transform="translate(-50.289 59.216)"/>
      <path id="패스_5551" data-name="패스 5551" d="M77.355,142.225a.662.662,0,0,0,.386-.127.606.606,0,0,0,.1-.863,2.135,2.135,0,0,1-.343-.736.6.6,0,0,0-.686-.538.617.617,0,0,0-.543.679,3.049,3.049,0,0,0,.586,1.344.653.653,0,0,0,.5.241" transform="translate(-48.32 58.071)"/>
      <path id="패스_5552" data-name="패스 5552" d="M81.167,143.979a.591.591,0,0,0,.371-.127.621.621,0,0,0,.114-.863,1.831,1.831,0,0,1-.329-.75.6.6,0,0,0-.686-.538.627.627,0,0,0-.543.679,3.123,3.123,0,0,0,.586,1.344.58.58,0,0,0,.486.255" transform="translate(-58.272 58.793)"/>
      <path id="패스_5553" data-name="패스 5553" d="M76.991,149.149a.662.662,0,0,0,.386-.127.621.621,0,0,0,.114-.863,2.044,2.044,0,0,1-.329-.75.62.62,0,0,0-.686-.538.612.612,0,0,0-.529.693,3.049,3.049,0,0,0,.586,1.344.517.517,0,0,0,.457.241" transform="translate(-47.486 60.938)"/>
      <path id="패스_5554" data-name="패스 5554" d="M76.978,76.274h.086a.606.606,0,0,0,.529-.679,1.763,1.763,0,0,1,.143-.792A.6.6,0,0,0,77.421,74a.614.614,0,0,0-.814.311,3.169,3.169,0,0,0-.243,1.457.627.627,0,0,0,.614.509" transform="translate(-48.255 30.682)"/>
      <path id="패스_5555" data-name="패스 5555" d="M72.273,66.643l.086-.014a.612.612,0,0,0,.529-.693,1.789,1.789,0,0,1,.129-.778.618.618,0,0,0-.3-.821.629.629,0,0,0-.829.3,3.052,3.052,0,0,0-.229,1.471.626.626,0,0,0,.614.538" transform="translate(-36.637 26.673)"/>
      <path id="패스_5556" data-name="패스 5556" d="M76.809,66.672h.086a.592.592,0,0,0,.514-.693,1.9,1.9,0,0,1,.129-.778.6.6,0,0,0-.314-.806.626.626,0,0,0-.814.311,3.05,3.05,0,0,0-.229,1.457.653.653,0,0,0,.629.509" transform="translate(-47.778 26.7)"/>
      <path id="패스_5557" data-name="패스 5557" d="M71.13,62.426h.086a.612.612,0,0,0,.529-.693,1.8,1.8,0,0,1,.143-.792.6.6,0,0,0-.314-.806.631.631,0,0,0-.814.311A3.05,3.05,0,0,0,70.53,61.9a.6.6,0,0,0,.6.524" transform="translate(-33.854 24.933)"/>
      <path id="패스_5558" data-name="패스 5558" d="M75.309,57.148h.086a.612.612,0,0,0,.529-.693,1.731,1.731,0,0,1,.143-.792.6.6,0,0,0-.314-.806.616.616,0,0,0-.814.3,3.081,3.081,0,0,0-.243,1.471.614.614,0,0,0,.614.524" transform="translate(-44.14 22.741)"/>
      <path id="패스_5559" data-name="패스 5559" d="M74.508,64.046h.071a.609.609,0,0,0,.543-.679,1.822,1.822,0,0,1,.143-.806.6.6,0,0,0-.314-.806.631.631,0,0,0-.814.311,3.169,3.169,0,0,0-.243,1.457.626.626,0,0,0,.614.524" transform="translate(-42.167 25.605)"/>
      <path id="패스_5560" data-name="패스 5560" d="M73.217,53.849H73.3a.6.6,0,0,0,.514-.693,1.9,1.9,0,0,1,.129-.778.62.62,0,0,0-.286-.821.636.636,0,0,0-.829.283,2.92,2.92,0,0,0-.243,1.486.641.641,0,0,0,.629.524" transform="translate(-38.929 21.371)"/>
      <path id="패스_5561" data-name="패스 5561" d="M72.051,57.926h.086a.619.619,0,0,0,.529-.693,1.8,1.8,0,0,1,.143-.792.6.6,0,0,0-.314-.806.626.626,0,0,0-.814.311,2.916,2.916,0,0,0-.229,1.471.6.6,0,0,0,.6.509" transform="translate(-36.122 23.066)"/>
      <path id="패스_5562" data-name="패스 5562" d="M74.155,60.208h.071a.617.617,0,0,0,.543-.679,1.823,1.823,0,0,1,.143-.806.6.6,0,0,0-.314-.806.614.614,0,0,0-.814.311,3.171,3.171,0,0,0-.229,1.457.59.59,0,0,0,.6.524" transform="translate(-41.316 24.01)"/>
      <path id="패스_5563" data-name="패스 5563" d="M75.616,69.888h.1a.606.606,0,0,0,.514-.693,2,2,0,0,1,.129-.792.6.6,0,0,0-.314-.806.619.619,0,0,0-.814.311A2.942,2.942,0,0,0,75,69.379a.625.625,0,0,0,.614.509" transform="translate(-44.871 28.026)"/>
      <path id="패스_5564" data-name="패스 5564" d="M74.365,74.106h.086a.606.606,0,0,0,.529-.679,1.857,1.857,0,0,1,.143-.806.622.622,0,0,0-.329-.806.633.633,0,0,0-.814.325,3.2,3.2,0,0,0-.229,1.457.627.627,0,0,0,.614.509" transform="translate(-41.805 29.78)"/>
      <path id="패스_5565" data-name="패스 5565" d="M77.284,72.682l.086-.014a.612.612,0,0,0,.529-.693,2,2,0,0,1,.129-.792.6.6,0,0,0-.314-.806.614.614,0,0,0-.814.311,3.022,3.022,0,0,0-.229,1.457.637.637,0,0,0,.614.538" transform="translate(-48.985 29.18)"/>
      <path id="패스_5566" data-name="패스 5566" d="M72.128,71.1h.086a.612.612,0,0,0,.529-.693,1.731,1.731,0,0,1,.143-.792.6.6,0,0,0-.314-.806.614.614,0,0,0-.814.311,3.2,3.2,0,0,0-.243,1.457.615.615,0,0,0,.614.524" transform="translate(-36.302 28.528)"/>
      <path id="패스_5567" data-name="패스 5567" d="M52.24,89.469s-16.7,11.6-26.773-4.259L20.18,101.821s15.858,17.46,35.9-2.872Z" transform="translate(55.468 35.357)"/>
      <path id="패스_5568" data-name="패스 5568" d="M23.06,105.722A35.6,35.6,0,0,0,34.3,97.7l-3.857-9.48A26.332,26.332,0,0,1,20.16,92.139s3.872,2.688,1.586,6.777c0,0-1.1,3.3.114,5.051Z" transform="translate(77.446 36.606)"/>
      <path id="패스_5569" data-name="패스 5569" d="M46.78,52.34s-.129-.127-.386-.368c-1.472-1.486-6.786-6.381-5.486-11.263,0,0-6-1.033-14.858-8.56,0,0,8.243,7.414,4.886,12.182.014,0,6.7.382,15.844,8.008" transform="translate(56.265 13.343)"/>
      <path id="패스_5570" data-name="패스 5570" d="M7.8,92.638a.626.626,0,0,0,.614-.538,15.068,15.068,0,0,1,.714-2.985C9.8,87.105,12.8,80.257,22.986,76.55a.58.58,0,0,0,.357-.764.588.588,0,0,0-.771-.354C11.871,79.323,8.685,86.61,7.956,88.747a18.459,18.459,0,0,0-.771,3.226.6.6,0,0,0,.529.665Z" transform="translate(107.703 31.283)"/>
      <path id="패스_5571" data-name="패스 5571" d="M24.671,87.768C13.47,71.5,17.413,73.959,17.413,73.959c4.715,3.707,6.672,10.6,7.486,13.371Z" transform="translate(91.902 30.634)"/>
      <path id="패스_5572" data-name="패스 5572" d="M86.218,85.944S78.36,69.885,60.53,83.086l.214-3.693s19.287-14.446,29.8,6Z" transform="translate(-38.414 30.888)"/>
      <path id="패스_5573" data-name="패스 5573" d="M40.094,76.96a76.893,76.893,0,0,1-2.514,8.32l4.972.368.7-4.782Z" transform="translate(43.019 31.934)"/>
      <path id="패스_5574" data-name="패스 5574" d="M87.5,118.252l-5.072-2.7-.743,4.273,5.243,2.6Z" transform="translate(-66.282 47.945)"/>
      <path id="패스_5575" data-name="패스 5575" d="M102.662,82.485a195.329,195.329,0,0,1,6.643,28.595c2.343,15.762,2.915,25.482,1.043,41.343a91.242,91.242,0,0,1-2.629,13.555c-.6,2.151-1.272,4.273-2,6.381-.371,1.061-1.329,5.7-2.272,6.2,0,0-22.8,23.6-71.52-.1l8.443-46.281S61.917,127.861,66,81.99c9.729.269,18.573.014,28.3.283,2.772.057,5.558.142,8.358.212" transform="translate(-19.149 34.021)"/>
      <path id="패스_5576" data-name="패스 5576" d="M56.353,98.93s-8.043,1.4-13.472.99l-1,15.139,14.072-3.382Z" transform="translate(23.506 41.049)"/>
      <path id="패스_5577" data-name="패스 5577" d="M56.311,112.542a20.444,20.444,0,0,1-14.4,2.759l.357-3.65s4.943-8.574,14.387-8.97Z" transform="translate(23.157 42.605)"/>
      <path id="패스_5578" data-name="패스 5578" d="M39.12,84.691a1.065,1.065,0,0,0,1.072,1.061,1.061,1.061,0,1,0,0-2.122,1.056,1.056,0,0,0-1.072,1.061" transform="translate(42.774 34.701)"/>
      <path id="패스_5579" data-name="패스 5579" d="M83.96,149.231a1.079,1.079,0,1,0,1.072-1.061,1.077,1.077,0,0,0-1.072,1.061" transform="translate(-68.137 61.478)"/>
      <path id="패스_5580" data-name="패스 5580" d="M54.82,155.151a1.086,1.086,0,1,0,1.086-1.061,1.068,1.068,0,0,0-1.086,1.061" transform="translate(4.065 63.934)"/>
      <path id="패스_5581" data-name="패스 5581" d="M47.57,153.7a1.079,1.079,0,1,0,1.072-1.061A1.065,1.065,0,0,0,47.57,153.7" transform="translate(21.948 63.333)"/>
      <path id="패스_5582" data-name="패스 5582" d="M60.53,84.511A1.079,1.079,0,1,0,61.6,83.45a1.077,1.077,0,0,0-1.072,1.061" transform="translate(-9.993 34.627)"/>
      <path id="패스_5583" data-name="패스 5583" d="M63.753,80.552,64,80.368a.882.882,0,0,0,.7.34.9.9,0,0,0,.529-.17l1.729-1.288a.848.848,0,0,0,.343-.693.811.811,0,0,0-.186-.524.862.862,0,0,0-.7-.34.9.9,0,0,0-.529.17l-1.729,1.288a.848.848,0,0,0-.343.693.883.883,0,0,0,.171.524l-.229.184-.243.184a1.455,1.455,0,0,1,.286-2.052L65.51,77.4a1.489,1.489,0,0,1,2.072.283h0a1.455,1.455,0,0,1-.286,2.052l-1.714,1.288a1.523,1.523,0,0,1-.9.3,1.506,1.506,0,0,1-1.186-.58Z" transform="translate(-19.156 31.992)"/>
      <path id="패스_5584" data-name="패스 5584" d="M37.66,79.095l.271.113a.965.965,0,0,0-.071.34.871.871,0,0,0,.543.806l1.986.835a.991.991,0,0,0,.343.071.89.89,0,0,0,.814-.524.964.964,0,0,0,.071-.34.88.88,0,0,0-.529-.806h-.014L39.1,78.755a.991.991,0,0,0-.343-.071.89.89,0,0,0-.814.524l-.286-.113-.271-.113a1.49,1.49,0,0,1,1.357-.891,1.72,1.72,0,0,1,.586.113l1.986.835h0a1.479,1.479,0,0,1,.9,1.358,1.6,1.6,0,0,1-.114.566,1.5,1.5,0,0,1-1.372.891,1.72,1.72,0,0,1-.586-.113l-1.986-.835a1.475,1.475,0,0,1-.9-1.344,1.675,1.675,0,0,1,.114-.58Z" transform="translate(44.53 32.403)"/>
      <path id="패스_5614" data-name="패스 5614" d="M0,5.866l5.814-.007L5.821,0,.007.007Z" transform="translate(51.984 127.271) rotate(-172.658)"/>
      <path id="패스_5585" data-name="패스 5585" d="M62.4,87.281l1.186.184a1.2,1.2,0,0,1,1,1.358l-.029.2a.172.172,0,0,1-.214.141.184.184,0,0,1-.157-.2l.029-.2a.832.832,0,0,0-.7-.948l-1.186-.184a.19.19,0,0,1-.157-.212.232.232,0,0,1,.229-.141" transform="translate(-14.313 36.215)"/>
      <path id="패스_5586" data-name="패스 5586" d="M61.945,86.811l1.586.241a1.811,1.811,0,0,1,1.514,2.066l-.029.2a.191.191,0,0,1-.214.156.184.184,0,0,1-.157-.2l.029-.212A1.444,1.444,0,0,0,63.459,87.4l-1.586-.241a.17.17,0,0,1-.143-.212.193.193,0,0,1,.214-.142" transform="translate(-14.142 36.02)"/>
      <path id="패스_5587" data-name="패스 5587" d="M61.531,86.341l2,.311a2.427,2.427,0,0,1,2.029,2.759l-.029.2a.188.188,0,0,1-.371-.057l.029-.2a2.071,2.071,0,0,0-1.729-2.349l-2-.311a.19.19,0,0,1-.157-.212.221.221,0,0,1,.229-.141" transform="translate(-14.057 35.825)"/>
      <path id="패스_5588" data-name="패스 5588" d="M45.617,95.585l20.1-8.065-.371,1.486L44.46,97.976Z" transform="translate(10.25 36.315)"/>
      <path id="패스_5589" data-name="패스 5589" d="M47.59,101.6,61.834,84.241l1.657-.651L51.676,101.135Z" transform="translate(7.962 34.685)"/>
      <path id="패스_5590" data-name="패스 5590" d="M54.035,92.848a.736.736,0,0,0,.943.41.724.724,0,0,0,.414-.934.747.747,0,0,0-.957-.41.73.73,0,0,0-.4.934" transform="translate(6.848 38.119)"/>
      <path id="패스_5591" data-name="패스 5591" d="M60.8,88.97a4.966,4.966,0,0,1,6.415,2.773,4.887,4.887,0,0,1-2.8,6.353A4.966,4.966,0,0,1,58,95.323a4.9,4.9,0,0,1,2.8-6.353m2.886,7.287a2.916,2.916,0,0,0,1.672-3.778,2.963,2.963,0,0,0-3.815-1.655A2.916,2.916,0,0,0,59.869,94.6a2.963,2.963,0,0,0,3.815,1.655" transform="translate(-10.783 36.776)"/>
      <path id="패스_5592" data-name="패스 5592" d="M55.693,95.34a4.966,4.966,0,0,1,6.415,2.773,4.887,4.887,0,0,1-2.8,6.353,4.966,4.966,0,0,1-6.415-2.773,4.887,4.887,0,0,1,2.8-6.353m2.943,7.442a3.069,3.069,0,0,0,1.757-4,3.118,3.118,0,0,0-4.043-1.74,3.069,3.069,0,0,0-1.757,4,3.13,3.13,0,0,0,4.043,1.74" transform="translate(1.816 39.418)"/>
      <path id="패스_5593" data-name="패스 5593" d="M61.073,92.29l.386,1.938L56.13,96.577,57.8,93.351Z" transform="translate(-2.369 38.294)"/>
      <path id="패스_5594" data-name="패스 5594" d="M58.536,92.96l2.214,1.3L59.336,96.78,54.45,97.94Z" transform="translate(0.787 38.572)"/>
      <path id="패스_5595" data-name="패스 5595" d="M93.74,113.532s-20.487,5.179-21.4-10.145c0,0-2.8-9.395,13.115-19.738,0,0-5.629,15.918,8.786,16.017.014,0,7.972,1.684-.5,13.866" transform="translate(-62.787 34.71)"/>
      <path id="패스_5596" data-name="패스 5596" d="M66.773,109.226a35.483,35.483,0,0,0,12.872-5.079L78.231,94.03a26.265,26.265,0,0,1-10.944,1.33s3.1,3.537-.114,6.961c0,0-1.872,2.929-1.129,4.924Z" transform="translate(-34.994 39.016)"/>
      <path id="패스_5597" data-name="패스 5597" d="M66.489,92.294,60.06,94.841l1.414,10.116,8.3-6.013s-.871-4.57-3.029-6.834" transform="translate(-16.52 38.22)"/>
      <path id="패스_5615" data-name="패스 5615" d="M0,2.231l21.187-.077L21.195,0,.008.077Z" transform="translate(61.381 176.603) rotate(-114.035)"/>
      <path id="패스_5598" data-name="패스 5598" d="M59.924,116.764l1.986-.877-2.429-5.377-1.972.877Z" transform="translate(-4.828 45.854)"/>
      <path id="패스_5616" data-name="패스 5616" d="M0,.578,5.9.556,5.9,0,0,.021Z" transform="translate(54.855 164.372) rotate(-113.974)"/>
      <path id="패스_5617" data-name="패스 5617" d="M0,.56l1.105,0,0-.556L0,0Z" transform="translate(53.277 159.771) rotate(-114.143)"/>
      <path id="패스_5618" data-name="패스 5618" d="M0,2.179l15.27-.022,0-2.157L0,.022Z" transform="translate(62.027 177.281) rotate(-98.534)"/>
      <path id="패스_5599" data-name="패스 5599" d="M54.27,116.209l2.143-.325L55.2,110.79l-.929.184Z" transform="translate(5.449 45.97)"/>
      <path id="패스_5619" data-name="패스 5619" d="M0,19.06l10.425-.039L10.5,0,.071.039Z" transform="translate(69.141 181.585) rotate(-154.849)"/>
      <path id="패스_5600" data-name="패스 5600" d="M44.037,116.42a.258.258,0,0,0,.129.34.268.268,0,0,0,.343-.127l.6-1.316a.258.258,0,0,0-.129-.34.263.263,0,0,0-.343.127Z" transform="translate(31.764 47.698)"/>
      <path id="패스_5601" data-name="패스 5601" d="M45.037,115.98a.258.258,0,0,0,.129.34.268.268,0,0,0,.343-.127l.6-1.316a.258.258,0,0,0-.129-.34.263.263,0,0,0-.343.127Z" transform="translate(29.3 47.515)"/>
      <path id="패스_5602" data-name="패스 5602" d="M46.037,115.54a.258.258,0,0,0,.129.34.268.268,0,0,0,.343-.127l.6-1.316a.258.258,0,0,0-.129-.34.263.263,0,0,0-.343.127Z" transform="translate(26.836 47.333)"/>
      <path id="패스_5603" data-name="패스 5603" d="M47.037,115.1a.258.258,0,0,0,.129.34.263.263,0,0,0,.343-.127l.6-1.33a.258.258,0,0,0-.129-.34.242.242,0,0,0-.329.127Z" transform="translate(24.371 47.146)"/>
      <path id="패스_5604" data-name="패스 5604" d="M48.037,114.664a.258.258,0,0,0,.129.34.263.263,0,0,0,.343-.127l.6-1.33a.258.258,0,0,0-.129-.34.263.263,0,0,0-.343.127Z" transform="translate(21.907 46.963)"/>
      <path id="패스_5605" data-name="패스 5605" d="M49.037,114.224a.259.259,0,0,0,.471.212l.6-1.33a.258.258,0,0,0-.129-.34.263.263,0,0,0-.343.127Z" transform="translate(19.443 46.781)"/>
      <path id="패스_5606" data-name="패스 5606" d="M67.518,115.87s-.2.057-.571.156c-2.857.75-16.044,3.976-29.416,3.07l-.4,22.737c0,.014,29.788-1.429,30.388-25.963" transform="translate(19.097 48.077)"/>
      <path id="패스_5607" data-name="패스 5607" d="M6.342,89.838a.445.445,0,0,0,.586.085A11.365,11.365,0,0,1,8.957,88.9c1.443-.58,6.729-2.136,13.63,1.74a.433.433,0,0,0,.6-.17.42.42,0,0,0-.157-.594c-7.243-4.089-12.858-2.405-14.4-1.8a11.873,11.873,0,0,0-2.186,1.1.447.447,0,0,0-.129.608Z" transform="translate(109.174 36.191)"/>
      <path id="패스_5608" data-name="패스 5608" d="M5.869,96.949a6.385,6.385,0,0,1,1.286-2.943,7.181,7.181,0,0,1-2.743,1.7,3.374,3.374,0,1,1-.5-6.678A6.617,6.617,0,0,1,6.869,90.3a7.109,7.109,0,0,1-1.714-2.7,3.4,3.4,0,1,1,6.743-.509,6.323,6.323,0,0,1-1.286,2.943,7.132,7.132,0,0,1,2.729-1.7,3.374,3.374,0,1,1,.5,6.678,6.4,6.4,0,0,1-2.957-1.273A6.987,6.987,0,0,1,12.6,96.454a3.393,3.393,0,1,1-6.729.5" transform="translate(123.434 34.682)"/>
      <path id="패스_5609" data-name="패스 5609" d="M12.819,86.182a8.714,8.714,0,0,1-1.957-3.919,9.325,9.325,0,0,1-.629,4.33,4.688,4.688,0,0,1-6.786,1.471,4.583,4.583,0,0,1-.7-6.848A8.864,8.864,0,0,1,6.7,79.277a9.744,9.744,0,0,1-4.357-.608,4.621,4.621,0,0,1-1.5-6.721,4.7,4.7,0,0,1,6.915-.707A8.643,8.643,0,0,1,9.719,75.16a9.482,9.482,0,0,1,.629-4.315,4.69,4.69,0,0,1,6.786-1.471,4.6,4.6,0,0,1,.7,6.848,8.791,8.791,0,0,1-3.957,1.938,9.808,9.808,0,0,1,4.372.623,4.589,4.589,0,0,1,1.486,6.707,4.7,4.7,0,0,1-6.915.693" transform="translate(120.755 28.428)"/>
      <path id="패스_5610" data-name="패스 5610" d="M8.878,75.835l-.1-.014-.243-.042a2.331,2.331,0,0,0-.443-.028.485.485,0,0,0-.271.127.146.146,0,0,0,.029.255.3.3,0,0,0,.2.057l.157-.014a.831.831,0,0,0,.2-.071,4,4,0,0,0,.471-.269" transform="translate(121.382 31.432)"/>
      <path id="패스_5611" data-name="패스 5611" d="M13.86,87.54c2.729,5.334,1.314,4.542,1.314,4.542-1.586-1.189-1.5-3.481-1.486-4.4Z" transform="translate(106.256 36.324)"/>
      <path id="패스_5612" data-name="패스 5612" d="M11.33,88.643c3.215-5.051,3.257-3.452,3.257-3.452-.214,1.953-2.243,3.056-3.057,3.509Z" transform="translate(110.572 35.249)"/>
      <path id="패스_5613" data-name="패스 5613" d="M21.185,85.461,15.57,89.479l3.857,9.48L26,91.12s-1.957-4.216-4.615-5.9" transform="translate(92.507 35.361)"/>
    </g>
    <g id="그룹_1427" data-name="그룹 1427" class="cls-1" transform="translate(-380.32 -315)">
      <g id="그룹_1425" data-name="그룹 1425" transform="translate(630 883)">
        <path id="패스_5620" data-name="패스 5620" d="M139.641,31.07V84.53a2.605,2.605,0,0,1-5.211,0V31.07Z" transform="translate(-133.378)"/>
        <rect id="사각형_520" data-name="사각형 520" width="4.098" height="17.25" transform="translate(10.852 85.99)"/>
        <path id="패스_5621" data-name="패스 5621" d="M120.59,108.85a7.045,7.045,0,1,0,7.045-7.03,7.041,7.041,0,0,0-7.045,7.03" transform="translate(-114.548)"/>
        <path id="패스_5622" data-name="패스 5622" d="M120.6,108.85H123.2a4.443,4.443,0,1,0,1.3-3.13,4.376,4.376,0,0,0-1.3,3.13H117.99a9.638,9.638,0,1,1,2.826,6.81,9.6,9.6,0,0,1-2.826-6.81Z" transform="translate(-114.553)"/>
        <rect id="사각형_521" data-name="사각형 521" width="81.508" height="2.17" transform="translate(48.721 91.9)"/>
        <rect id="사각형_522" data-name="사각형 522" width="81.508" height="2.17" transform="translate(48.721 87.63)"/>
        <rect id="사각형_523" data-name="사각형 523" width="81.508" height="2.17" transform="translate(48.721 83.35)"/>
        <rect id="사각형_524" data-name="사각형 524" width="81.508" height="2.17" transform="translate(48.721 79.08)"/>
        <rect id="사각형_525" data-name="사각형 525" width="81.508" height="2.17" transform="translate(48.721 74.8)"/>
        <rect id="사각형_526" data-name="사각형 526" width="81.508" height="2.17" transform="translate(48.721 70.53)"/>
        <rect id="사각형_527" data-name="사각형 527" width="81.508" height="2.17" transform="translate(48.721 66.26)"/>
        <rect id="사각형_528" data-name="사각형 528" width="81.508" height="2.17" transform="translate(48.721 61.98)"/>
        <rect id="사각형_529" data-name="사각형 529" width="81.508" height="2.17" transform="translate(48.721 57.71)"/>
        <rect id="사각형_530" data-name="사각형 530" width="81.508" height="2.17" transform="translate(48.721 53.43)"/>
        <rect id="사각형_531" data-name="사각형 531" width="81.508" height="2.17" transform="translate(48.721 49.16)"/>
        <rect id="사각형_532" data-name="사각형 532" width="81.508" height="2.17" transform="translate(48.721 44.88)"/>
        <rect id="사각형_533" data-name="사각형 533" width="81.508" height="2.17" transform="translate(48.721 40.61)"/>
        <rect id="사각형_534" data-name="사각형 534" width="81.508" height="2.17" transform="translate(48.721 36.33)"/>
        <rect id="사각형_535" data-name="사각형 535" width="81.508" height="2.17" transform="translate(48.721 32.06)"/>
        <rect id="사각형_536" data-name="사각형 536" width="81.508" height="2.17" transform="translate(48.721 27.79)"/>
        <rect id="사각형_537" data-name="사각형 537" width="81.508" height="2.17" transform="translate(48.721 23.51)"/>
        <rect id="사각형_538" data-name="사각형 538" width="81.508" height="2.17" transform="translate(48.721 19.24)"/>
        <rect id="사각형_539" data-name="사각형 539" width="81.508" height="2.17" transform="translate(48.721 14.96)"/>
        <rect id="사각형_540" data-name="사각형 540" width="81.508" height="2.17" transform="translate(48.721 10.69)"/>
        <rect id="사각형_541" data-name="사각형 541" width="81.508" height="2.17" transform="translate(48.721 6.41)"/>
        <rect id="사각형_542" data-name="사각형 542" width="81.508" height="2.17" transform="translate(48.721 2.14)"/>
        <rect id="사각형_543" data-name="사각형 543" width="81.508" height="2.17" transform="translate(48.721 89.77)"/>
        <rect id="사각형_544" data-name="사각형 544" width="81.508" height="2.17" transform="translate(48.721 85.49)"/>
        <rect id="사각형_545" data-name="사각형 545" width="81.508" height="2.17" transform="translate(48.721 81.22)"/>
        <rect id="사각형_546" data-name="사각형 546" width="81.508" height="2.17" transform="translate(48.721 76.94)"/>
        <rect id="사각형_547" data-name="사각형 547" width="81.508" height="2.17" transform="translate(48.721 72.67)"/>
        <rect id="사각형_548" data-name="사각형 548" width="81.508" height="2.17" transform="translate(48.721 68.39)"/>
        <rect id="사각형_549" data-name="사각형 549" width="81.508" height="2.17" transform="translate(48.721 64.12)"/>
        <rect id="사각형_550" data-name="사각형 550" width="81.508" height="2.17" transform="translate(48.721 59.84)"/>
        <rect id="사각형_551" data-name="사각형 551" width="81.508" height="2.17" transform="translate(48.721 55.57)"/>
        <rect id="사각형_552" data-name="사각형 552" width="81.508" height="2.17" transform="translate(48.721 51.29)"/>
        <rect id="사각형_553" data-name="사각형 553" width="81.508" height="2.17" transform="translate(48.721 47.02)"/>
        <rect id="사각형_554" data-name="사각형 554" width="81.508" height="2.17" transform="translate(48.721 42.75)"/>
        <rect id="사각형_555" data-name="사각형 555" width="81.508" height="2.17" transform="translate(48.721 38.47)"/>
        <rect id="사각형_556" data-name="사각형 556" width="81.508" height="2.17" transform="translate(48.721 34.2)"/>
        <rect id="사각형_557" data-name="사각형 557" width="81.508" height="2.17" transform="translate(48.721 29.92)"/>
        <rect id="사각형_558" data-name="사각형 558" width="81.508" height="2.17" transform="translate(48.721 25.65)"/>
        <rect id="사각형_559" data-name="사각형 559" width="81.508" height="2.17" transform="translate(48.721 21.37)"/>
        <rect id="사각형_560" data-name="사각형 560" width="81.508" height="2.17" transform="translate(48.721 17.1)"/>
        <rect id="사각형_561" data-name="사각형 561" width="81.508" height="2.17" transform="translate(48.721 12.82)"/>
        <rect id="사각형_562" data-name="사각형 562" width="81.508" height="2.17" transform="translate(48.721 8.55)"/>
        <rect id="사각형_563" data-name="사각형 563" width="81.508" height="2.17" transform="translate(48.721 4.28)"/>
        <rect id="사각형_564" data-name="사각형 564" width="81.508" height="2.17" transform="translate(48.721)"/>
        <rect id="사각형_565" data-name="사각형 565" width="23.529" height="5.95" transform="translate(5.451 71.27)"/>
        <path id="패스_5623" data-name="패스 5623" d="M112.262,76.59l5.221,21.7H106.55V75.49Z" transform="translate(-83.282)"/>
        <path id="패스_5624" data-name="패스 5624" d="M125.887,106.06H12.312L1.55,97.98H125.887Z" transform="translate(13.531)"/>
        <path id="패스_5625" data-name="패스 5625" d="M7.676,105.97H48.45V98.54H7.676Zm50.6,0H99.065V98.54H58.28Zm47.5,5.2H0V94.07H105.779Z" transform="translate(35.193)"/>
        <path id="패스_5626" data-name="패스 5626" d="M122.41,93.05l10.432,7.34V79.95H122.41Z" transform="translate(-114.534)"/>
        <path id="패스_5629" data-name="패스 5629" d="M0,4.984l13.148-.013,0-4.984L0,0Z" transform="translate(21.717 102.922) rotate(-144.064)"/>
        <path id="패스_5627" data-name="패스 5627" d="M110.16,99.65a2.044,2.044,0,1,0,2.044-2.04,2.044,2.044,0,0,0-2.044,2.04" transform="translate(-83.665)"/>
        <rect id="사각형_567" data-name="사각형 567" width="6.513" height="7.19" transform="translate(3.658 79.95)"/>
        <path id="패스_5628" data-name="패스 5628" d="M133.24,40.18a3.728,3.728,0,0,0,7.455,0V23.2a3.728,3.728,0,0,0-7.455,0Z" transform="translate(-133.24)"/>
      </g>
    </g>
    <g id="그룹_1437" data-name="그룹 1437" class="cls-1" transform="translate(416.852 585.851)">
      <g id="그룹_1429" data-name="그룹 1429" transform="translate(14.366 20.891)">
        <path id="패스_5630" data-name="패스 5630" d="M27.214,59.061a33.714,33.714,0,0,1-7.692,10.865c-2.123,1.912-6.168,3.919-5.832,7.219.715,7.093,17.054,5.832,21.435,5.832,8.564,0,17.138.063,25.712.084,8.711.021,19.733,2.89,27.793-1.4,8.238-4.382-3.215-11.979-4.928-17.138C79.836,52.851,70.947,37.573,56.047,36.764c-9.226-.494-16.7,1.376-22.055,9.194C31.06,50.224,29.316,54.742,27.214,59.061Z" transform="translate(-13.671 -19.025)"/>
        <path id="패스_5631" data-name="패스 5631" d="M79.378,52.5a37.145,37.145,0,0,1-8.984,14.437C67.63,69.57,52.7,77.85,61,82.179c5.769,3.005,14.553,2.427,20.879,2.627,2.637.084,5.254-.032,7.881-.021,19.544.032,39.088.168,58.632,0,9.047-.074,31.533-1.355,14.217-14.858-10.14-7.9-5.979-23.716-12.22-33.9-6.9-11.264-19.754-16.633-32.752-16.119C95.654,20.773,86.575,32.615,79.378,52.5Z" transform="translate(-11.395 -19.878)"/>
      </g>
      <g id="그룹_1432" data-name="그룹 1432" transform="translate(49.585 0)">
        <g id="그룹_1430" data-name="그룹 1430" transform="translate(6.221 5.626)">
          <path id="패스_5632" data-name="패스 5632" d="M76.16,24.66a2.179,2.179,0,1,0,1.072,2.89A2.188,2.188,0,0,0,76.16,24.66Z" transform="translate(-52.097 -4.38)"/>
          <path id="패스_5633" data-name="패스 5633" d="M84.426,35.237c-4.3-5.611-5.937-6.2-6.378-5.874s-.284,2.08,4.014,7.681c1.986,2.6,4.487,5.516,6.641,7.891l1.6-1.25C88.587,41,86.412,37.833,84.426,35.237Z" transform="translate(-51.852 -4.135)"/>
          <path id="패스_5634" data-name="패스 5634" d="M75.007,30.81C74,30.81,72.5,46.3,71.75,61.923h6.315C77.393,46.3,76.016,30.81,75.007,30.81Z" transform="translate(-52.164 -4.058)"/>
          <path id="패스_5635" data-name="패스 5635" d="M71.4,70.384h7.019c-.053-2.511-.137-5.117-.242-7.744H71.663C71.558,65.267,71.463,67.873,71.4,70.384Z" transform="translate(-52.182 -2.442)"/>
          <path id="패스_5636" data-name="패스 5636" d="M78.973,14.6c-2.806,6.483-2.522,8.206-2.017,8.427s1.954-.767,4.76-7.24c1.3-3.005,2.637-6.609,3.657-9.646L83.5,5.35C81.978,8.156,80.266,11.6,78.973,14.6Z" transform="translate(-51.916 -5.35)"/>
          <path id="패스_5637" data-name="패스 5637" d="M63.712,30.191c6.935-1.355,8.185-2.574,8.091-3.11s-1.734-1.187-8.669.179c-3.2.63-6.935,1.566-10.024,2.448l.41,1.986C56.7,31.357,60.5,30.821,63.712,30.191Z" transform="translate(-53.11 -4.279)"/>
        </g>
        <g id="그룹_1431" data-name="그룹 1431">
          <path id="패스_5638" data-name="패스 5638" d="M84.013,82.109V79.136a5.085,5.085,0,0,0-5.1-5.086H71.436a5.09,5.09,0,0,0-5.086,5.086v2.974Z" transform="translate(-46.217 3.763)"/>
          <path id="패스_5639" data-name="패스 5639" d="M92.961,48.821c.231-.179-1.166-2.679-3.184-5.821l-1.6,1.25C90.691,46.993,92.73,49,92.961,48.821Z" transform="translate(-45.109 2.187)"/>
          <path id="패스_5640" data-name="패스 5640" d="M86.691,0c-.273-.126-1.776,2.322-3.541,5.6l1.87.788C86.218,2.879,86.964.116,86.691,0Z" transform="translate(-45.364 0.004)"/>
          <path id="패스_5641" data-name="패스 5641" d="M71.32,76.8H78.5c0-2.144-.032-4.424-.084-6.788H71.4C71.352,72.374,71.32,74.654,71.32,76.8Z" transform="translate(-45.964 3.558)"/>
          <path id="패스_5642" data-name="패스 5642" d="M71.755,60.42c-.042.778-.074,1.555-.105,2.333h6.515L78.07,60.42Z" transform="translate(-45.948 3.071)"/>
          <path id="패스_5643" data-name="패스 5643" d="M47.19,31.809c.053.294,2.921.147,6.62-.263L53.4,29.56C49.838,30.579,47.138,31.525,47.19,31.809Z" transform="translate(-47.189 1.505)"/>
          <path id="패스_5644" data-name="패스 5644" d="M75.667,25.575a1.121,1.121,0,1,0,.557,1.492A1.127,1.127,0,0,0,75.667,25.575Z" transform="translate(-45.824 1.298)"/>
        </g>
      </g>
      <g id="그룹_1435" data-name="그룹 1435" transform="translate(0 24.001)">
        <path id="패스_5645" data-name="패스 5645" d="M20.446,40.247a1.54,1.54,0,1,0,.746,2.038A1.522,1.522,0,0,0,20.446,40.247Z" transform="translate(0.928 -21.961)"/>
        <path id="패스_5646" data-name="패스 5646" d="M26.273,47.7c-3.026-3.951-4.193-4.371-4.5-4.14s-.2,1.471,2.827,5.422c1.4,1.828,3.163,3.9,4.686,5.569l1.135-.883C29.2,51.769,27.67,49.531,26.273,47.7Z" transform="translate(1.1 -21.788)"/>
        <path id="패스_5647" data-name="패스 5647" d="M19.631,44.58c-.715,0-1.776,10.928-2.3,21.95h4.455C21.3,55.508,20.335,44.58,19.631,44.58Z" transform="translate(0.88 -21.734)"/>
        <path id="패스_5648" data-name="패스 5648" d="M17.08,72.5h4.949c-.032-1.776-.095-3.615-.168-5.464H17.269C17.185,68.889,17.122,70.728,17.08,72.5Z" transform="translate(0.868 -20.594)"/>
        <path id="패스_5649" data-name="패스 5649" d="M22.42,33.145c-1.975,4.571-1.776,5.79-1.429,5.947s1.376-.536,3.362-5.107c.914-2.112,1.86-4.665,2.574-6.809L25.6,26.62C24.542,28.6,23.334,31.023,22.42,33.145Z" transform="translate(1.055 -22.645)"/>
        <path id="패스_5650" data-name="패스 5650" d="M11.651,44.148c4.9-.956,5.779-1.807,5.706-2.2s-1.219-.83-6.1.126c-2.27.441-4.9,1.1-7.072,1.723l.284,1.408C6.712,44.967,9.392,44.589,11.651,44.148Z" transform="translate(0.213 -21.89)"/>
        <g id="그룹_1434" data-name="그룹 1434">
          <g id="그룹_1433" data-name="그룹 1433">
            <path id="패스_5651" data-name="패스 5651" d="M25.982,80.775v-2.1a3.592,3.592,0,0,0-3.594-3.594H17.1a3.6,3.6,0,0,0-3.594,3.594v2.1Z" transform="translate(0.686 -20.186)"/>
            <path id="패스_5652" data-name="패스 5652" d="M32.293,57.288c.168-.126-.82-1.891-2.238-4.108l-1.135.883C30.685,56.007,32.135,57.415,32.293,57.288Z" transform="translate(1.469 -21.297)"/>
            <path id="패스_5653" data-name="패스 5653" d="M17.02,77.031h5.065c0-1.513-.021-3.121-.053-4.791H17.083C17.041,73.911,17.02,75.518,17.02,77.031Z" transform="translate(0.865 -20.33)"/>
            <path id="패스_5654" data-name="패스 5654" d="M17.334,65.48c-.032.546-.053,1.093-.074,1.65h4.592c-.021-.546-.042-1.093-.063-1.65Z" transform="translate(0.877 -20.673)"/>
            <path id="패스_5655" data-name="패스 5655" d="M27.871,22.84c-.189-.084-1.25,1.639-2.5,3.961l1.324.557C27.535,24.879,28.06,22.924,27.871,22.84Z" transform="translate(1.288 -22.837)"/>
            <path id="패스_5656" data-name="패스 5656" d="M0,45.287c.042.2,2.059.105,4.676-.189l-.284-1.4C1.86,44.415-.042,45.087,0,45.287Z" transform="translate(0.001 -21.778)"/>
          </g>
          <path id="패스_5657" data-name="패스 5657" d="M20.094,40.883a.792.792,0,0,0-1.051.389.792.792,0,0,0,1.44.662A.8.8,0,0,0,20.094,40.883Z" transform="translate(0.963 -21.925)"/>
        </g>
      </g>
    </g>
    <g id="그룹_1424" data-name="그룹 1424" transform="translate(132.947 420.67)">
      <path id="패스_5517-2" data-name="패스 5517" class="cls-2" d="M99.287,16.93s-16.13,0-23.887,54.742c0,0-.543,7.089-6.915,6a3.857,3.857,0,0,0-4.257,3.113c-.871,4.16,4.315,5.15,7.315,5.221a13.825,13.825,0,0,0,2.757-.17c9.915-1.783,10.415-12.083,12.115-19.922,2.043-9.451,2.857-19,7.3-27.633,2.714-5.292,7.229-8.744,11.558-12.89Z" transform="translate(-58.963 7.028)"/>
      <path id="패스_5518-2" data-name="패스 5518" class="cls-3" d="M82.846,165.712h.029a1.859,1.859,0,0,0,1.843-1.882V155.3c0-.623-.043-1.245-.057-1.868-.029-.75-.057-1.443-.057-2.151v-.424c.014-1.33.014-2.985.714-3.636.643-.566,2.4-.5,3.243-.453l3.143.2a1.851,1.851,0,1,0,.243-3.693l-3.186-.212c-1.486-.071-4.186-.184-5.958,1.415-1.929,1.726-1.943,4.414-1.943,6.353v.4c-.014.792.029,1.571.057,2.335.029.58.043,1.16.057,1.754.014,1.3,0,2.6,0,3.905v4.627a1.872,1.872,0,0,0,1.872,1.868" transform="translate(-71.28 59.344)"/>
      <path id="패스_5519-2" data-name="패스 5519" class="cls-3" d="M82.722,170.222a1.857,1.857,0,0,0,1.857-1.854V149.975a8.182,8.182,0,0,1,.457-2.589,6.688,6.688,0,0,1,6.072-4.018h5.429a1.854,1.854,0,1,0,0-3.707H91.108a10.392,10.392,0,0,0-9.558,6.381,11.471,11.471,0,0,0-.7,3.877v18.45a1.869,1.869,0,0,0,1.872,1.854" transform="translate(-75.985 57.948)"/>
      <path id="패스_5520-2" data-name="패스 5520" class="cls-3" d="M83.777,174.772a1.851,1.851,0,0,0,1.872-1.854V150.535a11.366,11.366,0,0,1,10.8-10.6h4.5a1.854,1.854,0,1,0,0-3.707H96.378l-.129.014a15.2,15.2,0,0,0-14.33,14.121v22.582a1.833,1.833,0,0,0,1.857,1.825" transform="translate(-81.927 56.525)"/>
      <path id="패스_5521-2" data-name="패스 5521" class="cls-4" d="M87.545,169.932s2.489,25.525-17.511,44.993l-3.888,32.189H58.37l-5.066-30-13.181-.382-7.379,33.222H25.63L20.8,211.7s-15.155-5.674-10.457-34.3l9.4-86.054S26.131,38.22,39.68,32.971c0,0-16.259-14.757-3.976-32.981A34.738,34.738,0,0,1,51.949,21.553s1.37.594,12.165.085h3.52s3-11.715,18.115-17.3c0,0,4.9,13.074-5.965,26.034.412-.5,14.006,10.626,14.418,10.965,12.7,10.329,18.572,18.507,27.187,30.8,1.973,2.816,2.68,5.532,1.694,9.692-.781,3.325-5.066,7.754-7.658,9.918-3.608,3.028-7.614,4.924-12.445,4.881-8.763-.085-18.881-1.019-26.79-4.768.353.17.029.269,1.09,6.608Z" transform="translate(4.335)"/>
      <path id="패스_5522-2" data-name="패스 5522" class="cls-5" d="M81.765,187.521H66.35l1.614-11.687,7.372-.354Z" transform="translate(-37.854 72.809)"/>
      <path id="패스_5523-2" data-name="패스 5523" class="cls-5" d="M53.968,174.65l5.415,9.607s-9.729.042-14.773-.523l1.814-9.084" transform="translate(16.464 72.465)"/>
      <path id="패스_5524-2" data-name="패스 5524" class="cls-6" d="M58.409,164.776c-.014.085-.229.241-.3.3a5.528,5.528,0,0,1-.814.608,3.579,3.579,0,0,1-2.814.4,3.763,3.763,0,0,1-1.072-.523c-.329-.212-.6-.467-.929-.651a3,3,0,0,0-1.114-.269,5.248,5.248,0,0,0-.943.014,3.808,3.808,0,0,0-2.157.863,4.107,4.107,0,0,0-.543.566,3.106,3.106,0,0,0-.243.354c-.057.071-.243.3-.229.382l1.972,12.069h7.529Z" transform="translate(13.615 68.303)"/>
      <path id="패스_5525-2" data-name="패스 5525" class="cls-6" d="M80.978,166.345a2.369,2.369,0,0,1-3.843-.085s-2.2-2.858-3.857,0c0,0-1.757,1.91-2.986-.948,0,0-.957-1.571-1.572-.085l1.929,15.1,7.358-.269Z" transform="translate(-40.478 68.29)"/>
      <path id="패스_5526-2" data-name="패스 5526" class="cls-6" d="M44.18,5.62s1.5,11.956-4.858,18.337S36.265,11.124,44.18,5.62" transform="translate(44.251 2.336)"/>
      <path id="패스_5527-2" data-name="패스 5527" class="cls-6" d="M65.711,3.32s-4.672,11.843,2.5,21.7c6.3,8.673,5.829-13.7-2.5-21.7" transform="translate(-25.316 1.382)"/>
      <path id="패스_5528-2" data-name="패스 5528" class="cls-7" d="M26.948,44.24c.114.156.171.241.157.241s-.057-.071-.157-.226Z" transform="translate(74.784 18.359)"/>
      <path id="패스_5529-2" data-name="패스 5529" class="cls-2" d="M15.818,57.374l-.043-.552a1.466,1.466,0,0,0-.514-.976,1.542,1.542,0,0,0-1.043-.368l-.1.014a1.482,1.482,0,0,0-1.357,1.528l.014.1.057.538a.74.74,0,0,1-1.472.156l-.057-.538v-.014a.682.682,0,0,1-.014-.17,2.961,2.961,0,0,1,2.686-3.056.762.762,0,0,0,.186-.014,2.928,2.928,0,0,1,2.057.722,2.826,2.826,0,0,1,1.014,1.938l.057.538a.743.743,0,0,1-.657.806.755.755,0,0,1-.814-.651" transform="translate(107.927 22.416)"/>
      <path id="패스_5530-2" data-name="패스 5530" class="cls-5" d="M30.194,32.275l.057.538a1.531,1.531,0,0,0,.514.99,1.6,1.6,0,0,0,1.043.354h.1a1.516,1.516,0,0,0,1.357-1.542l-.014-.1h0l-.057-.538a.74.74,0,0,1,1.472-.156l.057.538a.8.8,0,0,1,.014.184,2.983,2.983,0,0,1-2.686,3.07c-.057,0-.129.014-.186.014a3.011,3.011,0,0,1-2.072-.722,2.883,2.883,0,0,1-1.014-1.938l-.057-.538a.74.74,0,0,1,1.472-.156" transform="translate(64.515 12.935)"/>
      <path id="패스_5531-2" data-name="패스 5531" class="cls-5" d="M43.564,39.309l.057.538a1.582,1.582,0,0,0,.5.99,1.53,1.53,0,0,0,1.043.354l.086-.014a1.476,1.476,0,0,0,1.357-1.542v-.1L46.55,39a.735.735,0,0,1,.657-.806.752.752,0,0,1,.829.651l.043.552a.741.741,0,0,1,.014.184,2.981,2.981,0,0,1-2.686,3.056c-.071,0-.129.014-.186.014a2.952,2.952,0,0,1-2.057-.722,2.914,2.914,0,0,1-1.014-1.938l-.057-.538a.735.735,0,0,1,.657-.806.747.747,0,0,1,.814.665" transform="translate(31.564 15.848)"/>
      <path id="패스_5532-2" data-name="패스 5532" class="cls-2" d="M21.645,59.125l-.286-.467a1.487,1.487,0,0,0-.9-.651,1.462,1.462,0,0,0-1.086.127l-.086.042a1.477,1.477,0,0,0-.543,1.967l.057.085.286.467a.718.718,0,0,1-.243,1,.747.747,0,0,1-1.029-.241l-.286-.467h0c-.029-.057-.071-.1-.1-.156a2.971,2.971,0,0,1,1.057-3.919c.057-.028.1-.057.157-.085a3.031,3.031,0,0,1,2.186-.255,3,3,0,0,1,1.772,1.3l.3.467a.739.739,0,0,1-1.257.778" transform="translate(93.297 23.438)"/>
      <path id="패스_5533-2" data-name="패스 5533" class="cls-2" d="M58.644,31.4a2,2,0,0,0,2.014-1.995V28.291l-.014-.113C60.373,23.721,59,20.75,53.115,20.75H47.3a1.988,1.988,0,1,0,.014,3.976h5.815c2.786,0,3.315.269,3.515,3.622v1.061a1.981,1.981,0,0,0,2,1.995" transform="translate(14.166 8.613)"/>
      <path id="패스_5534-2" data-name="패스 5534" class="cls-2" d="M63.239,30.952a2,2,0,0,0,2.014-1.981V27.853l-.014-.141c-.457-6.565-4.615-10.6-11.129-10.781H43.494a1.988,1.988,0,1,0,0,3.976H54.052c5.486.156,6.929,3.877,7.172,7.018v1.047a2.018,2.018,0,0,0,2.014,1.981" transform="translate(15.059 7.028)"/>
      <path id="패스_5535-2" data-name="패스 5535" class="cls-2" d="M68.192,30.285a2,2,0,0,0,2.014-1.995v-.552A14.582,14.582,0,0,0,55.563,13.25H39.79a2,2,0,1,0,0,3.99H55.563A10.571,10.571,0,0,1,66.178,27.753V28.3a2,2,0,0,0,2.014,1.981" transform="translate(15.403 5.501)"/>
      <path id="패스_5536-2" data-name="패스 5536" class="cls-6" d="M38.054,122.965a.61.61,0,0,0,.486-.226,3.049,3.049,0,0,0,.6-1.358.618.618,0,0,0-1.229-.141,1.7,1.7,0,0,1-.329.736.606.606,0,0,0,.1.863.537.537,0,0,0,.371.127" transform="translate(47.362 50.081)"/>
      <path id="패스_5537-2" data-name="패스 5537" class="cls-6" d="M37.447,117.905a.6.6,0,0,0,.486-.241,3.049,3.049,0,0,0,.586-1.344.618.618,0,0,0-1.229-.142,1.866,1.866,0,0,1-.343.75.608.608,0,0,0,.114.863.762.762,0,0,0,.386.113" transform="translate(48.905 47.981)"/>
      <path id="패스_5538-2" data-name="패스 5538" class="cls-6" d="M41.614,133.529a.585.585,0,0,0,.486-.241,3.156,3.156,0,0,0,.6-1.344.612.612,0,0,0-.529-.693.626.626,0,0,0-.7.523,2.356,2.356,0,0,1-.329.75.606.606,0,0,0,.1.863.532.532,0,0,0,.371.142" transform="translate(38.588 54.457)"/>
      <path id="패스_5539-2" data-name="패스 5539" class="cls-6" d="M43.745,137.325a.61.61,0,0,0,.486-.226,3.138,3.138,0,0,0,.6-1.358A.618.618,0,0,0,43.6,135.6a1.8,1.8,0,0,1-.329.736.619.619,0,0,0,.086.863.631.631,0,0,0,.386.127" transform="translate(33.338 56.038)"/>
      <path id="패스_5540-2" data-name="패스 5540" class="cls-6" d="M41.788,140.159a.625.625,0,0,0,.486-.241,3.181,3.181,0,0,0,.586-1.358.618.618,0,0,0-1.229-.141,2.013,2.013,0,0,1-.329.736.606.606,0,0,0,.1.863.567.567,0,0,0,.386.141" transform="translate(38.194 57.208)"/>
      <path id="패스_5541-2" data-name="패스 5541" class="cls-6" d="M40.1,136.585a.657.657,0,0,0,.486-.226A2.886,2.886,0,0,0,41.172,135a.63.63,0,0,0-.543-.679.606.606,0,0,0-.686.538,1.925,1.925,0,0,1-.329.722.606.606,0,0,0,.1.863.566.566,0,0,0,.386.142" transform="translate(42.357 55.731)"/>
      <path id="패스_5542-2" data-name="패스 5542" class="cls-6" d="M43.627,131.575a.6.6,0,0,0,.486-.241,3.013,3.013,0,0,0,.571-1.344.609.609,0,0,0-.543-.679.631.631,0,0,0-.686.538,2.008,2.008,0,0,1-.329.75.608.608,0,0,0,.114.863.806.806,0,0,0,.386.113" transform="translate(33.689 53.653)"/>
      <path id="패스_5543-2" data-name="패스 5543" class="cls-6" d="M37.619,131.205a.6.6,0,0,0,.486-.241,3,3,0,0,0,.571-1.358.617.617,0,0,0-1.229-.113,1.861,1.861,0,0,1-.329.736.608.608,0,0,0,.114.863,1,1,0,0,0,.386.113" transform="translate(48.499 53.499)"/>
      <path id="패스_5544-2" data-name="패스 5544" class="cls-6" d="M37.754,126.809a.6.6,0,0,0,.486-.241,3.181,3.181,0,0,0,.586-1.358.6.6,0,0,0-.543-.679.614.614,0,0,0-.686.538,2.15,2.15,0,0,1-.329.75.619.619,0,0,0,.1.863.662.662,0,0,0,.386.127" transform="translate(48.13 51.67)"/>
      <path id="패스_5545-2" data-name="패스 5545" class="cls-6" d="M40.647,120.749a.61.61,0,0,0,.486-.226,3.179,3.179,0,0,0,.6-1.372.63.63,0,0,0-.543-.679.606.606,0,0,0-.686.538,1.926,1.926,0,0,1-.329.722.617.617,0,0,0,.086.863.542.542,0,0,0,.386.156" transform="translate(40.976 49.155)"/>
      <path id="패스_5546-2" data-name="패스 5546" class="cls-6" d="M40.646,129.179a.657.657,0,0,0,.486-.226,3.088,3.088,0,0,0,.6-1.372.63.63,0,0,0-.543-.679.606.606,0,0,0-.686.538,2.09,2.09,0,0,1-.329.736.606.606,0,0,0,.1.863.532.532,0,0,0,.371.142" transform="translate(40.977 52.652)"/>
      <path id="패스_5547-2" data-name="패스 5547" class="cls-6" d="M74.855,147.4a.621.621,0,0,0,.371-.127.605.605,0,0,0,.114-.863,1.8,1.8,0,0,1-.329-.75.618.618,0,0,0-1.229.141,3.321,3.321,0,0,0,.571,1.358.631.631,0,0,0,.5.241" transform="translate(-42.172 60.212)"/>
      <path id="패스_5548-2" data-name="패스 5548" class="cls-6" d="M73.5,143.979a.625.625,0,0,0,.5-.99,2.054,2.054,0,0,1-.329-.736A.609.609,0,0,0,73,141.7a.617.617,0,0,0-.557.665,2.977,2.977,0,0,0,.571,1.358.581.581,0,0,0,.486.255" transform="translate(-38.851 58.793)"/>
      <path id="패스_5549-2" data-name="패스 5549" class="cls-6" d="M80.565,140.529a.662.662,0,0,0,.386-.127.621.621,0,0,0,.114-.863,1.831,1.831,0,0,1-.329-.75.618.618,0,0,0-1.229.141,3.181,3.181,0,0,0,.586,1.358.559.559,0,0,0,.471.241" transform="translate(-56.842 57.361)"/>
      <path id="패스_5550-2" data-name="패스 5550" class="cls-6" d="M78.139,145a.662.662,0,0,0,.386-.127.621.621,0,0,0,.114-.863,2.039,2.039,0,0,1-.343-.764.613.613,0,1,0-1.214.17,3.261,3.261,0,0,0,.586,1.33.539.539,0,0,0,.471.255" transform="translate(-50.289 59.216)"/>
      <path id="패스_5551-2" data-name="패스 5551" class="cls-6" d="M77.355,142.225a.662.662,0,0,0,.386-.127.606.606,0,0,0,.1-.863,2.135,2.135,0,0,1-.343-.736.6.6,0,0,0-.686-.538.617.617,0,0,0-.543.679,3.049,3.049,0,0,0,.586,1.344.653.653,0,0,0,.5.241" transform="translate(-48.32 58.071)"/>
      <path id="패스_5552-2" data-name="패스 5552" class="cls-6" d="M81.167,143.979a.591.591,0,0,0,.371-.127.621.621,0,0,0,.114-.863,1.831,1.831,0,0,1-.329-.75.6.6,0,0,0-.686-.538.627.627,0,0,0-.543.679,3.123,3.123,0,0,0,.586,1.344.58.58,0,0,0,.486.255" transform="translate(-58.272 58.793)"/>
      <path id="패스_5553-2" data-name="패스 5553" class="cls-6" d="M76.991,149.149a.662.662,0,0,0,.386-.127.621.621,0,0,0,.114-.863,2.044,2.044,0,0,1-.329-.75.62.62,0,0,0-.686-.538.612.612,0,0,0-.529.693,3.049,3.049,0,0,0,.586,1.344.517.517,0,0,0,.457.241" transform="translate(-47.486 60.938)"/>
      <path id="패스_5554-2" data-name="패스 5554" class="cls-6" d="M76.978,76.274h.086a.606.606,0,0,0,.529-.679,1.763,1.763,0,0,1,.143-.792A.6.6,0,0,0,77.421,74a.614.614,0,0,0-.814.311,3.169,3.169,0,0,0-.243,1.457.627.627,0,0,0,.614.509" transform="translate(-48.255 30.682)"/>
      <path id="패스_5555-2" data-name="패스 5555" class="cls-6" d="M72.273,66.643l.086-.014a.612.612,0,0,0,.529-.693,1.789,1.789,0,0,1,.129-.778.618.618,0,0,0-.3-.821.629.629,0,0,0-.829.3,3.052,3.052,0,0,0-.229,1.471.626.626,0,0,0,.614.538" transform="translate(-36.637 26.673)"/>
      <path id="패스_5556-2" data-name="패스 5556" class="cls-6" d="M76.809,66.672h.086a.592.592,0,0,0,.514-.693,1.9,1.9,0,0,1,.129-.778.6.6,0,0,0-.314-.806.626.626,0,0,0-.814.311,3.05,3.05,0,0,0-.229,1.457.653.653,0,0,0,.629.509" transform="translate(-47.778 26.7)"/>
      <path id="패스_5557-2" data-name="패스 5557" class="cls-6" d="M71.13,62.426h.086a.612.612,0,0,0,.529-.693,1.8,1.8,0,0,1,.143-.792.6.6,0,0,0-.314-.806.631.631,0,0,0-.814.311A3.05,3.05,0,0,0,70.53,61.9a.6.6,0,0,0,.6.524" transform="translate(-33.854 24.933)"/>
      <path id="패스_5558-2" data-name="패스 5558" class="cls-6" d="M75.309,57.148h.086a.612.612,0,0,0,.529-.693,1.731,1.731,0,0,1,.143-.792.6.6,0,0,0-.314-.806.616.616,0,0,0-.814.3,3.081,3.081,0,0,0-.243,1.471.614.614,0,0,0,.614.524" transform="translate(-44.14 22.741)"/>
      <path id="패스_5559-2" data-name="패스 5559" class="cls-6" d="M74.508,64.046h.071a.609.609,0,0,0,.543-.679,1.822,1.822,0,0,1,.143-.806.6.6,0,0,0-.314-.806.631.631,0,0,0-.814.311,3.169,3.169,0,0,0-.243,1.457.626.626,0,0,0,.614.524" transform="translate(-42.167 25.605)"/>
      <path id="패스_5560-2" data-name="패스 5560" class="cls-6" d="M73.217,53.849H73.3a.6.6,0,0,0,.514-.693,1.9,1.9,0,0,1,.129-.778.62.62,0,0,0-.286-.821.636.636,0,0,0-.829.283,2.92,2.92,0,0,0-.243,1.486.641.641,0,0,0,.629.524" transform="translate(-38.929 21.371)"/>
      <path id="패스_5561-2" data-name="패스 5561" class="cls-6" d="M72.051,57.926h.086a.619.619,0,0,0,.529-.693,1.8,1.8,0,0,1,.143-.792.6.6,0,0,0-.314-.806.626.626,0,0,0-.814.311,2.916,2.916,0,0,0-.229,1.471.6.6,0,0,0,.6.509" transform="translate(-36.122 23.066)"/>
      <path id="패스_5562-2" data-name="패스 5562" class="cls-6" d="M74.155,60.208h.071a.617.617,0,0,0,.543-.679,1.823,1.823,0,0,1,.143-.806.6.6,0,0,0-.314-.806.614.614,0,0,0-.814.311,3.171,3.171,0,0,0-.229,1.457.59.59,0,0,0,.6.524" transform="translate(-41.316 24.01)"/>
      <path id="패스_5563-2" data-name="패스 5563" class="cls-6" d="M75.616,69.888h.1a.606.606,0,0,0,.514-.693,2,2,0,0,1,.129-.792.6.6,0,0,0-.314-.806.619.619,0,0,0-.814.311A2.942,2.942,0,0,0,75,69.379a.625.625,0,0,0,.614.509" transform="translate(-44.871 28.026)"/>
      <path id="패스_5564-2" data-name="패스 5564" class="cls-6" d="M74.365,74.106h.086a.606.606,0,0,0,.529-.679,1.857,1.857,0,0,1,.143-.806.622.622,0,0,0-.329-.806.633.633,0,0,0-.814.325,3.2,3.2,0,0,0-.229,1.457.627.627,0,0,0,.614.509" transform="translate(-41.805 29.78)"/>
      <path id="패스_5565-2" data-name="패스 5565" class="cls-6" d="M77.284,72.682l.086-.014a.612.612,0,0,0,.529-.693,2,2,0,0,1,.129-.792.6.6,0,0,0-.314-.806.614.614,0,0,0-.814.311,3.022,3.022,0,0,0-.229,1.457.637.637,0,0,0,.614.538" transform="translate(-48.985 29.18)"/>
      <path id="패스_5566-2" data-name="패스 5566" class="cls-6" d="M72.128,71.1h.086a.612.612,0,0,0,.529-.693,1.731,1.731,0,0,1,.143-.792.6.6,0,0,0-.314-.806.614.614,0,0,0-.814.311,3.2,3.2,0,0,0-.243,1.457.615.615,0,0,0,.614.524" transform="translate(-36.302 28.528)"/>
      <path id="패스_5567-2" data-name="패스 5567" class="cls-4" d="M52.24,89.469s-16.7,11.6-26.773-4.259L20.18,101.821s15.858,17.46,35.9-2.872Z" transform="translate(55.468 35.357)"/>
      <path id="패스_5568-2" data-name="패스 5568" class="cls-6" d="M23.06,105.722A35.6,35.6,0,0,0,34.3,97.7l-3.857-9.48A26.332,26.332,0,0,1,20.16,92.139s3.872,2.688,1.586,6.777c0,0-1.1,3.3.114,5.051Z" transform="translate(77.446 36.606)"/>
      <path id="패스_5569-2" data-name="패스 5569" class="cls-6" d="M46.78,52.34s-.129-.127-.386-.368c-1.472-1.486-6.786-6.381-5.486-11.263,0,0-6-1.033-14.858-8.56,0,0,8.243,7.414,4.886,12.182.014,0,6.7.382,15.844,8.008" transform="translate(56.265 13.343)"/>
      <path id="패스_5570-2" data-name="패스 5570" class="cls-3" d="M7.8,92.638a.626.626,0,0,0,.614-.538,15.068,15.068,0,0,1,.714-2.985C9.8,87.105,12.8,80.257,22.986,76.55a.58.58,0,0,0,.357-.764.588.588,0,0,0-.771-.354C11.871,79.323,8.685,86.61,7.956,88.747a18.459,18.459,0,0,0-.771,3.226.6.6,0,0,0,.529.665Z" transform="translate(107.703 31.283)"/>
      <path id="패스_5571-2" data-name="패스 5571" class="cls-3" d="M24.671,87.768C13.47,71.5,17.413,73.959,17.413,73.959c4.715,3.707,6.672,10.6,7.486,13.371Z" transform="translate(91.902 30.634)"/>
      <path id="패스_5572-2" data-name="패스 5572" class="cls-8" d="M86.218,85.944S78.36,69.885,60.53,83.086l.214-3.693s19.287-14.446,29.8,6Z" transform="translate(-38.414 30.888)"/>
      <path id="패스_5573-2" data-name="패스 5573" class="cls-8" d="M40.094,76.96a76.893,76.893,0,0,1-2.514,8.32l4.972.368.7-4.782Z" transform="translate(43.019 31.934)"/>
      <path id="패스_5574-2" data-name="패스 5574" class="cls-8" d="M87.5,118.252l-5.072-2.7-.743,4.273,5.243,2.6Z" transform="translate(-66.282 47.945)"/>
      <path id="패스_5575-2" data-name="패스 5575" class="cls-9" d="M102.662,82.485a195.329,195.329,0,0,1,6.643,28.595c2.343,15.762,2.915,25.482,1.043,41.343a91.242,91.242,0,0,1-2.629,13.555c-.6,2.151-1.272,4.273-2,6.381-.371,1.061-1.329,5.7-2.272,6.2,0,0-22.8,23.6-71.52-.1l8.443-46.281S61.917,127.861,66,81.99c9.729.269,18.573.014,28.3.283,2.772.057,5.558.142,8.358.212" transform="translate(-19.149 34.021)"/>
      <path id="패스_5576-2" data-name="패스 5576" class="cls-5" d="M56.353,98.93s-8.043,1.4-13.472.99l-1,15.139,14.072-3.382Z" transform="translate(23.506 41.049)"/>
      <path id="패스_5577-2" data-name="패스 5577" class="cls-10" d="M56.311,112.542a20.444,20.444,0,0,1-14.4,2.759l.357-3.65s4.943-8.574,14.387-8.97Z" transform="translate(23.157 42.605)"/>
      <path id="패스_5578-2" data-name="패스 5578" class="cls-11" d="M39.12,84.691a1.065,1.065,0,0,0,1.072,1.061,1.061,1.061,0,1,0,0-2.122,1.056,1.056,0,0,0-1.072,1.061" transform="translate(42.774 34.701)"/>
      <path id="패스_5579-2" data-name="패스 5579" class="cls-11" d="M83.96,149.231a1.079,1.079,0,1,0,1.072-1.061,1.077,1.077,0,0,0-1.072,1.061" transform="translate(-68.137 61.478)"/>
      <path id="패스_5580-2" data-name="패스 5580" class="cls-11" d="M54.82,155.151a1.086,1.086,0,1,0,1.086-1.061,1.068,1.068,0,0,0-1.086,1.061" transform="translate(4.065 63.934)"/>
      <path id="패스_5581-2" data-name="패스 5581" class="cls-11" d="M47.57,153.7a1.079,1.079,0,1,0,1.072-1.061A1.065,1.065,0,0,0,47.57,153.7" transform="translate(21.948 63.333)"/>
      <path id="패스_5582-2" data-name="패스 5582" class="cls-11" d="M60.53,84.511A1.079,1.079,0,1,0,61.6,83.45a1.077,1.077,0,0,0-1.072,1.061" transform="translate(-9.993 34.627)"/>
      <path id="패스_5583-2" data-name="패스 5583" class="cls-11" d="M63.753,80.552,64,80.368a.882.882,0,0,0,.7.34.9.9,0,0,0,.529-.17l1.729-1.288a.848.848,0,0,0,.343-.693.811.811,0,0,0-.186-.524.862.862,0,0,0-.7-.34.9.9,0,0,0-.529.17l-1.729,1.288a.848.848,0,0,0-.343.693.883.883,0,0,0,.171.524l-.229.184-.243.184a1.455,1.455,0,0,1,.286-2.052L65.51,77.4a1.489,1.489,0,0,1,2.072.283h0a1.455,1.455,0,0,1-.286,2.052l-1.714,1.288a1.523,1.523,0,0,1-.9.3,1.506,1.506,0,0,1-1.186-.58Z" transform="translate(-19.156 31.992)"/>
      <path id="패스_5584-2" data-name="패스 5584" class="cls-11" d="M37.66,79.095l.271.113a.965.965,0,0,0-.071.34.871.871,0,0,0,.543.806l1.986.835a.991.991,0,0,0,.343.071.89.89,0,0,0,.814-.524.964.964,0,0,0,.071-.34.88.88,0,0,0-.529-.806h-.014L39.1,78.755a.991.991,0,0,0-.343-.071.89.89,0,0,0-.814.524l-.286-.113-.271-.113a1.49,1.49,0,0,1,1.357-.891,1.72,1.72,0,0,1,.586.113l1.986.835h0a1.479,1.479,0,0,1,.9,1.358,1.6,1.6,0,0,1-.114.566,1.5,1.5,0,0,1-1.372.891,1.72,1.72,0,0,1-.586-.113l-1.986-.835a1.475,1.475,0,0,1-.9-1.344,1.675,1.675,0,0,1,.114-.58Z" transform="translate(44.53 32.403)"/>
      <path id="패스_5614-2" data-name="패스 5614" class="cls-12" d="M0,5.866l5.814-.007L5.821,0,.007.007Z" transform="translate(51.984 127.271) rotate(-172.658)"/>
      <path id="패스_5585-2" data-name="패스 5585" class="cls-6" d="M62.4,87.281l1.186.184a1.2,1.2,0,0,1,1,1.358l-.029.2a.172.172,0,0,1-.214.141.184.184,0,0,1-.157-.2l.029-.2a.832.832,0,0,0-.7-.948l-1.186-.184a.19.19,0,0,1-.157-.212.232.232,0,0,1,.229-.141" transform="translate(-14.313 36.215)"/>
      <path id="패스_5586-2" data-name="패스 5586" class="cls-6" d="M61.945,86.811l1.586.241a1.811,1.811,0,0,1,1.514,2.066l-.029.2a.191.191,0,0,1-.214.156.184.184,0,0,1-.157-.2l.029-.212A1.444,1.444,0,0,0,63.459,87.4l-1.586-.241a.17.17,0,0,1-.143-.212.193.193,0,0,1,.214-.142" transform="translate(-14.142 36.02)"/>
      <path id="패스_5587-2" data-name="패스 5587" class="cls-6" d="M61.531,86.341l2,.311a2.427,2.427,0,0,1,2.029,2.759l-.029.2a.188.188,0,0,1-.371-.057l.029-.2a2.071,2.071,0,0,0-1.729-2.349l-2-.311a.19.19,0,0,1-.157-.212.221.221,0,0,1,.229-.141" transform="translate(-14.057 35.825)"/>
      <path id="패스_5588-2" data-name="패스 5588" class="cls-13" d="M45.617,95.585l20.1-8.065-.371,1.486L44.46,97.976Z" transform="translate(10.25 36.315)"/>
      <path id="패스_5589-2" data-name="패스 5589" class="cls-6" d="M47.59,101.6,61.834,84.241l1.657-.651L51.676,101.135Z" transform="translate(7.962 34.685)"/>
      <path id="패스_5590-2" data-name="패스 5590" class="cls-13" d="M54.035,92.848a.736.736,0,0,0,.943.41.724.724,0,0,0,.414-.934.747.747,0,0,0-.957-.41.73.73,0,0,0-.4.934" transform="translate(6.848 38.119)"/>
      <path id="패스_5591-2" data-name="패스 5591" class="cls-14" d="M60.8,88.97a4.966,4.966,0,0,1,6.415,2.773,4.887,4.887,0,0,1-2.8,6.353A4.966,4.966,0,0,1,58,95.323a4.9,4.9,0,0,1,2.8-6.353m2.886,7.287a2.916,2.916,0,0,0,1.672-3.778,2.963,2.963,0,0,0-3.815-1.655A2.916,2.916,0,0,0,59.869,94.6a2.963,2.963,0,0,0,3.815,1.655" transform="translate(-10.783 36.776)"/>
      <path id="패스_5592-2" data-name="패스 5592" class="cls-14" d="M55.693,95.34a4.966,4.966,0,0,1,6.415,2.773,4.887,4.887,0,0,1-2.8,6.353,4.966,4.966,0,0,1-6.415-2.773,4.887,4.887,0,0,1,2.8-6.353m2.943,7.442a3.069,3.069,0,0,0,1.757-4,3.118,3.118,0,0,0-4.043-1.74,3.069,3.069,0,0,0-1.757,4,3.13,3.13,0,0,0,4.043,1.74" transform="translate(1.816 39.418)"/>
      <path id="패스_5593-2" data-name="패스 5593" class="cls-14" d="M61.073,92.29l.386,1.938L56.13,96.577,57.8,93.351Z" transform="translate(-2.369 38.294)"/>
      <path id="패스_5594-2" data-name="패스 5594" class="cls-14" d="M58.536,92.96l2.214,1.3L59.336,96.78,54.45,97.94Z" transform="translate(0.787 38.572)"/>
      <path id="패스_5595-2" data-name="패스 5595" class="cls-4" d="M93.74,113.532s-20.487,5.179-21.4-10.145c0,0-2.8-9.395,13.115-19.738,0,0-5.629,15.918,8.786,16.017.014,0,7.972,1.684-.5,13.866" transform="translate(-62.787 34.71)"/>
      <path id="패스_5596-2" data-name="패스 5596" class="cls-6" d="M66.773,109.226a35.483,35.483,0,0,0,12.872-5.079L78.231,94.03a26.265,26.265,0,0,1-10.944,1.33s3.1,3.537-.114,6.961c0,0-1.872,2.929-1.129,4.924Z" transform="translate(-34.994 39.016)"/>
      <path id="패스_5597-2" data-name="패스 5597" class="cls-15" d="M66.489,92.294,60.06,94.841l1.414,10.116,8.3-6.013s-.871-4.57-3.029-6.834" transform="translate(-16.52 38.22)"/>
      <path id="패스_5615-2" data-name="패스 5615" class="cls-16" d="M0,2.231l21.187-.077L21.195,0,.008.077Z" transform="translate(61.381 176.603) rotate(-114.035)"/>
      <path id="패스_5598-2" data-name="패스 5598" class="cls-17" d="M59.924,116.764l1.986-.877-2.429-5.377-1.972.877Z" transform="translate(-4.828 45.854)"/>
      <path id="패스_5616-2" data-name="패스 5616" class="cls-17" d="M0,.578,5.9.556,5.9,0,0,.021Z" transform="translate(54.855 164.372) rotate(-113.974)"/>
      <path id="패스_5617-2" data-name="패스 5617" class="cls-17" d="M0,.56l1.105,0,0-.556L0,0Z" transform="translate(53.277 159.771) rotate(-114.143)"/>
      <path id="패스_5618-2" data-name="패스 5618" class="cls-18" d="M0,2.179l15.27-.022,0-2.157L0,.022Z" transform="translate(62.027 177.281) rotate(-98.534)"/>
      <path id="패스_5599-2" data-name="패스 5599" class="cls-19" d="M54.27,116.209l2.143-.325L55.2,110.79l-.929.184Z" transform="translate(5.449 45.97)"/>
      <path id="패스_5619-2" data-name="패스 5619" class="cls-16" d="M0,19.06l10.425-.039L10.5,0,.071.039Z" transform="translate(69.141 181.585) rotate(-154.849)"/>
      <path id="패스_5600-2" data-name="패스 5600" class="cls-20" d="M44.037,116.42a.258.258,0,0,0,.129.34.268.268,0,0,0,.343-.127l.6-1.316a.258.258,0,0,0-.129-.34.263.263,0,0,0-.343.127Z" transform="translate(31.764 47.698)"/>
      <path id="패스_5601-2" data-name="패스 5601" class="cls-20" d="M45.037,115.98a.258.258,0,0,0,.129.34.268.268,0,0,0,.343-.127l.6-1.316a.258.258,0,0,0-.129-.34.263.263,0,0,0-.343.127Z" transform="translate(29.3 47.515)"/>
      <path id="패스_5602-2" data-name="패스 5602" class="cls-20" d="M46.037,115.54a.258.258,0,0,0,.129.34.268.268,0,0,0,.343-.127l.6-1.316a.258.258,0,0,0-.129-.34.263.263,0,0,0-.343.127Z" transform="translate(26.836 47.333)"/>
      <path id="패스_5603-2" data-name="패스 5603" class="cls-20" d="M47.037,115.1a.258.258,0,0,0,.129.34.263.263,0,0,0,.343-.127l.6-1.33a.258.258,0,0,0-.129-.34.242.242,0,0,0-.329.127Z" transform="translate(24.371 47.146)"/>
      <path id="패스_5604-2" data-name="패스 5604" class="cls-20" d="M48.037,114.664a.258.258,0,0,0,.129.34.263.263,0,0,0,.343-.127l.6-1.33a.258.258,0,0,0-.129-.34.263.263,0,0,0-.343.127Z" transform="translate(21.907 46.963)"/>
      <path id="패스_5605-2" data-name="패스 5605" class="cls-20" d="M49.037,114.224a.259.259,0,0,0,.471.212l.6-1.33a.258.258,0,0,0-.129-.34.263.263,0,0,0-.343.127Z" transform="translate(19.443 46.781)"/>
      <path id="패스_5606-2" data-name="패스 5606" class="cls-10" d="M67.518,115.87s-.2.057-.571.156c-2.857.75-16.044,3.976-29.416,3.07l-.4,22.737c0,.014,29.788-1.429,30.388-25.963" transform="translate(19.097 48.077)"/>
      <path id="패스_5607-2" data-name="패스 5607" class="cls-3" d="M6.342,89.838a.445.445,0,0,0,.586.085A11.365,11.365,0,0,1,8.957,88.9c1.443-.58,6.729-2.136,13.63,1.74a.433.433,0,0,0,.6-.17.42.42,0,0,0-.157-.594c-7.243-4.089-12.858-2.405-14.4-1.8a11.873,11.873,0,0,0-2.186,1.1.447.447,0,0,0-.129.608Z" transform="translate(109.174 36.191)"/>
      <path id="패스_5608-2" data-name="패스 5608" class="cls-21" d="M5.869,96.949a6.385,6.385,0,0,1,1.286-2.943,7.181,7.181,0,0,1-2.743,1.7,3.374,3.374,0,1,1-.5-6.678A6.617,6.617,0,0,1,6.869,90.3a7.109,7.109,0,0,1-1.714-2.7,3.4,3.4,0,1,1,6.743-.509,6.323,6.323,0,0,1-1.286,2.943,7.132,7.132,0,0,1,2.729-1.7,3.374,3.374,0,1,1,.5,6.678,6.4,6.4,0,0,1-2.957-1.273A6.987,6.987,0,0,1,12.6,96.454a3.393,3.393,0,1,1-6.729.5" transform="translate(123.434 34.682)"/>
      <path id="패스_5609-2" data-name="패스 5609" class="cls-22" d="M12.819,86.182a8.714,8.714,0,0,1-1.957-3.919,9.325,9.325,0,0,1-.629,4.33,4.688,4.688,0,0,1-6.786,1.471,4.583,4.583,0,0,1-.7-6.848A8.864,8.864,0,0,1,6.7,79.277a9.744,9.744,0,0,1-4.357-.608,4.621,4.621,0,0,1-1.5-6.721,4.7,4.7,0,0,1,6.915-.707A8.643,8.643,0,0,1,9.719,75.16a9.482,9.482,0,0,1,.629-4.315,4.69,4.69,0,0,1,6.786-1.471,4.6,4.6,0,0,1,.7,6.848,8.791,8.791,0,0,1-3.957,1.938,9.808,9.808,0,0,1,4.372.623,4.589,4.589,0,0,1,1.486,6.707,4.7,4.7,0,0,1-6.915.693" transform="translate(120.755 28.428)"/>
      <path id="패스_5610-2" data-name="패스 5610" class="cls-6" d="M8.878,75.835l-.1-.014-.243-.042a2.331,2.331,0,0,0-.443-.028.485.485,0,0,0-.271.127.146.146,0,0,0,.029.255.3.3,0,0,0,.2.057l.157-.014a.831.831,0,0,0,.2-.071,4,4,0,0,0,.471-.269" transform="translate(121.382 31.432)"/>
      <path id="패스_5611-2" data-name="패스 5611" class="cls-3" d="M13.86,87.54c2.729,5.334,1.314,4.542,1.314,4.542-1.586-1.189-1.5-3.481-1.486-4.4Z" transform="translate(106.256 36.324)"/>
      <path id="패스_5612-2" data-name="패스 5612" class="cls-3" d="M11.33,88.643c3.215-5.051,3.257-3.452,3.257-3.452-.214,1.953-2.243,3.056-3.057,3.509Z" transform="translate(110.572 35.249)"/>
      <path id="패스_5613-2" data-name="패스 5613" class="cls-15" d="M21.185,85.461,15.57,89.479l3.857,9.48L26,91.12s-1.957-4.216-4.615-5.9" transform="translate(92.507 35.361)"/>
    </g>
    <g id="그룹_1426" data-name="그룹 1426" transform="translate(-382.32 -317)">
      <g id="그룹_1425-2" data-name="그룹 1425" transform="translate(630 883)">
        <path id="패스_5620-2" data-name="패스 5620" class="cls-2" d="M139.641,31.07V84.53a2.605,2.605,0,0,1-5.211,0V31.07Z" transform="translate(-133.378)"/>
        <rect id="사각형_520-2" data-name="사각형 520" class="cls-23" width="4.098" height="17.25" transform="translate(10.852 85.99)"/>
        <path id="패스_5621-2" data-name="패스 5621" class="cls-24" d="M120.59,108.85a7.045,7.045,0,1,0,7.045-7.03,7.041,7.041,0,0,0-7.045,7.03" transform="translate(-114.548)"/>
        <path id="패스_5622-2" data-name="패스 5622" class="cls-23" d="M120.6,108.85H123.2a4.443,4.443,0,1,0,1.3-3.13,4.376,4.376,0,0,0-1.3,3.13H117.99a9.638,9.638,0,1,1,2.826,6.81,9.6,9.6,0,0,1-2.826-6.81Z" transform="translate(-114.553)"/>
        <rect id="사각형_521-2" data-name="사각형 521" class="cls-25" width="81.508" height="2.17" transform="translate(48.721 91.9)"/>
        <rect id="사각형_522-2" data-name="사각형 522" class="cls-25" width="81.508" height="2.17" transform="translate(48.721 87.63)"/>
        <rect id="사각형_523-2" data-name="사각형 523" class="cls-25" width="81.508" height="2.17" transform="translate(48.721 83.35)"/>
        <rect id="사각형_524-2" data-name="사각형 524" class="cls-25" width="81.508" height="2.17" transform="translate(48.721 79.08)"/>
        <rect id="사각형_525-2" data-name="사각형 525" class="cls-25" width="81.508" height="2.17" transform="translate(48.721 74.8)"/>
        <rect id="사각형_526-2" data-name="사각형 526" class="cls-25" width="81.508" height="2.17" transform="translate(48.721 70.53)"/>
        <rect id="사각형_527-2" data-name="사각형 527" class="cls-25" width="81.508" height="2.17" transform="translate(48.721 66.26)"/>
        <rect id="사각형_528-2" data-name="사각형 528" class="cls-25" width="81.508" height="2.17" transform="translate(48.721 61.98)"/>
        <rect id="사각형_529-2" data-name="사각형 529" class="cls-25" width="81.508" height="2.17" transform="translate(48.721 57.71)"/>
        <rect id="사각형_530-2" data-name="사각형 530" class="cls-25" width="81.508" height="2.17" transform="translate(48.721 53.43)"/>
        <rect id="사각형_531-2" data-name="사각형 531" class="cls-25" width="81.508" height="2.17" transform="translate(48.721 49.16)"/>
        <rect id="사각형_532-2" data-name="사각형 532" class="cls-25" width="81.508" height="2.17" transform="translate(48.721 44.88)"/>
        <rect id="사각형_533-2" data-name="사각형 533" class="cls-25" width="81.508" height="2.17" transform="translate(48.721 40.61)"/>
        <rect id="사각형_534-2" data-name="사각형 534" class="cls-25" width="81.508" height="2.17" transform="translate(48.721 36.33)"/>
        <rect id="사각형_535-2" data-name="사각형 535" class="cls-25" width="81.508" height="2.17" transform="translate(48.721 32.06)"/>
        <rect id="사각형_536-2" data-name="사각형 536" class="cls-25" width="81.508" height="2.17" transform="translate(48.721 27.79)"/>
        <rect id="사각형_537-2" data-name="사각형 537" class="cls-25" width="81.508" height="2.17" transform="translate(48.721 23.51)"/>
        <rect id="사각형_538-2" data-name="사각형 538" class="cls-25" width="81.508" height="2.17" transform="translate(48.721 19.24)"/>
        <rect id="사각형_539-2" data-name="사각형 539" class="cls-25" width="81.508" height="2.17" transform="translate(48.721 14.96)"/>
        <rect id="사각형_540-2" data-name="사각형 540" class="cls-25" width="81.508" height="2.17" transform="translate(48.721 10.69)"/>
        <rect id="사각형_541-2" data-name="사각형 541" class="cls-25" width="81.508" height="2.17" transform="translate(48.721 6.41)"/>
        <rect id="사각형_542-2" data-name="사각형 542" class="cls-25" width="81.508" height="2.17" transform="translate(48.721 2.14)"/>
        <rect id="사각형_543-2" data-name="사각형 543" class="cls-6" width="81.508" height="2.17" transform="translate(48.721 89.77)"/>
        <rect id="사각형_544-2" data-name="사각형 544" class="cls-6" width="81.508" height="2.17" transform="translate(48.721 85.49)"/>
        <rect id="사각형_545-2" data-name="사각형 545" class="cls-6" width="81.508" height="2.17" transform="translate(48.721 81.22)"/>
        <rect id="사각형_546-2" data-name="사각형 546" class="cls-6" width="81.508" height="2.17" transform="translate(48.721 76.94)"/>
        <rect id="사각형_547-2" data-name="사각형 547" class="cls-6" width="81.508" height="2.17" transform="translate(48.721 72.67)"/>
        <rect id="사각형_548-2" data-name="사각형 548" class="cls-6" width="81.508" height="2.17" transform="translate(48.721 68.39)"/>
        <rect id="사각형_549-2" data-name="사각형 549" class="cls-6" width="81.508" height="2.17" transform="translate(48.721 64.12)"/>
        <rect id="사각형_550-2" data-name="사각형 550" class="cls-6" width="81.508" height="2.17" transform="translate(48.721 59.84)"/>
        <rect id="사각형_551-2" data-name="사각형 551" class="cls-6" width="81.508" height="2.17" transform="translate(48.721 55.57)"/>
        <rect id="사각형_552-2" data-name="사각형 552" class="cls-6" width="81.508" height="2.17" transform="translate(48.721 51.29)"/>
        <rect id="사각형_553-2" data-name="사각형 553" class="cls-6" width="81.508" height="2.17" transform="translate(48.721 47.02)"/>
        <rect id="사각형_554-2" data-name="사각형 554" class="cls-6" width="81.508" height="2.17" transform="translate(48.721 42.75)"/>
        <rect id="사각형_555-2" data-name="사각형 555" class="cls-6" width="81.508" height="2.17" transform="translate(48.721 38.47)"/>
        <rect id="사각형_556-2" data-name="사각형 556" class="cls-6" width="81.508" height="2.17" transform="translate(48.721 34.2)"/>
        <rect id="사각형_557-2" data-name="사각형 557" class="cls-6" width="81.508" height="2.17" transform="translate(48.721 29.92)"/>
        <rect id="사각형_558-2" data-name="사각형 558" class="cls-6" width="81.508" height="2.17" transform="translate(48.721 25.65)"/>
        <rect id="사각형_559-2" data-name="사각형 559" class="cls-6" width="81.508" height="2.17" transform="translate(48.721 21.37)"/>
        <rect id="사각형_560-2" data-name="사각형 560" class="cls-6" width="81.508" height="2.17" transform="translate(48.721 17.1)"/>
        <rect id="사각형_561-2" data-name="사각형 561" class="cls-6" width="81.508" height="2.17" transform="translate(48.721 12.82)"/>
        <rect id="사각형_562-2" data-name="사각형 562" class="cls-6" width="81.508" height="2.17" transform="translate(48.721 8.55)"/>
        <rect id="사각형_563-2" data-name="사각형 563" class="cls-6" width="81.508" height="2.17" transform="translate(48.721 4.28)"/>
        <rect id="사각형_564-2" data-name="사각형 564" class="cls-6" width="81.508" height="2.17" transform="translate(48.721)"/>
        <rect id="사각형_565-2" data-name="사각형 565" class="cls-2" width="23.529" height="5.95" transform="translate(5.451 71.27)"/>
        <path id="패스_5623-2" data-name="패스 5623" class="cls-2" d="M112.262,76.59l5.221,21.7H106.55V75.49Z" transform="translate(-83.282)"/>
        <path id="패스_5624-2" data-name="패스 5624" class="cls-2" d="M125.887,106.06H12.312L1.55,97.98H125.887Z" transform="translate(13.531)"/>
        <path id="패스_5625-2" data-name="패스 5625" class="cls-26" d="M7.676,105.97H48.45V98.54H7.676Zm50.6,0H99.065V98.54H58.28Zm47.5,5.2H0V94.07H105.779Z" transform="translate(35.193)"/>
        <path id="패스_5626-2" data-name="패스 5626" class="cls-2" d="M122.41,93.05l10.432,7.34V79.95H122.41Z" transform="translate(-114.534)"/>
        <path id="패스_5629-2" data-name="패스 5629" class="cls-2" d="M0,4.984l13.148-.013,0-4.984L0,0Z" transform="translate(21.717 102.922) rotate(-144.064)"/>
        <path id="패스_5627-2" data-name="패스 5627" class="cls-23" d="M110.16,99.65a2.044,2.044,0,1,0,2.044-2.04,2.044,2.044,0,0,0-2.044,2.04" transform="translate(-83.665)"/>
        <rect id="사각형_567-2" data-name="사각형 567" class="cls-2" width="6.513" height="7.19" transform="translate(3.658 79.95)"/>
        <path id="패스_5628-2" data-name="패스 5628" class="cls-23" d="M133.24,40.18a3.728,3.728,0,0,0,7.455,0V23.2a3.728,3.728,0,0,0-7.455,0Z" transform="translate(-133.24)"/>
      </g>
    </g>
    <g id="그룹_1436" data-name="그룹 1436" transform="translate(415 584)">
      <g id="그룹_1429-2" data-name="그룹 1429" transform="translate(14.366 20.891)">
        <path id="패스_5630-2" data-name="패스 5630" class="cls-4" d="M27.214,59.061a33.714,33.714,0,0,1-7.692,10.865c-2.123,1.912-6.168,3.919-5.832,7.219.715,7.093,17.054,5.832,21.435,5.832,8.564,0,17.138.063,25.712.084,8.711.021,19.733,2.89,27.793-1.4,8.238-4.382-3.215-11.979-4.928-17.138C79.836,52.851,70.947,37.573,56.047,36.764c-9.226-.494-16.7,1.376-22.055,9.194C31.06,50.224,29.316,54.742,27.214,59.061Z" transform="translate(-13.671 -19.025)"/>
        <path id="패스_5631-2" data-name="패스 5631" class="cls-2" d="M79.378,52.5a37.145,37.145,0,0,1-8.984,14.437C67.63,69.57,52.7,77.85,61,82.179c5.769,3.005,14.553,2.427,20.879,2.627,2.637.084,5.254-.032,7.881-.021,19.544.032,39.088.168,58.632,0,9.047-.074,31.533-1.355,14.217-14.858-10.14-7.9-5.979-23.716-12.22-33.9-6.9-11.264-19.754-16.633-32.752-16.119C95.654,20.773,86.575,32.615,79.378,52.5Z" transform="translate(-11.395 -19.878)"/>
      </g>
      <g id="그룹_1432-2" data-name="그룹 1432" transform="translate(49.585 0)">
        <g id="그룹_1430-2" data-name="그룹 1430" transform="translate(6.221 5.626)">
          <path id="패스_5632-2" data-name="패스 5632" class="cls-6" d="M76.16,24.66a2.179,2.179,0,1,0,1.072,2.89A2.188,2.188,0,0,0,76.16,24.66Z" transform="translate(-52.097 -4.38)"/>
          <path id="패스_5633-2" data-name="패스 5633" class="cls-6" d="M84.426,35.237c-4.3-5.611-5.937-6.2-6.378-5.874s-.284,2.08,4.014,7.681c1.986,2.6,4.487,5.516,6.641,7.891l1.6-1.25C88.587,41,86.412,37.833,84.426,35.237Z" transform="translate(-51.852 -4.135)"/>
          <path id="패스_5634-2" data-name="패스 5634" class="cls-6" d="M75.007,30.81C74,30.81,72.5,46.3,71.75,61.923h6.315C77.393,46.3,76.016,30.81,75.007,30.81Z" transform="translate(-52.164 -4.058)"/>
          <path id="패스_5635-2" data-name="패스 5635" class="cls-6" d="M71.4,70.384h7.019c-.053-2.511-.137-5.117-.242-7.744H71.663C71.558,65.267,71.463,67.873,71.4,70.384Z" transform="translate(-52.182 -2.442)"/>
          <path id="패스_5636-2" data-name="패스 5636" class="cls-6" d="M78.973,14.6c-2.806,6.483-2.522,8.206-2.017,8.427s1.954-.767,4.76-7.24c1.3-3.005,2.637-6.609,3.657-9.646L83.5,5.35C81.978,8.156,80.266,11.6,78.973,14.6Z" transform="translate(-51.916 -5.35)"/>
          <path id="패스_5637-2" data-name="패스 5637" class="cls-6" d="M63.712,30.191c6.935-1.355,8.185-2.574,8.091-3.11s-1.734-1.187-8.669.179c-3.2.63-6.935,1.566-10.024,2.448l.41,1.986C56.7,31.357,60.5,30.821,63.712,30.191Z" transform="translate(-53.11 -4.279)"/>
        </g>
        <g id="그룹_1431-2" data-name="그룹 1431">
          <path id="패스_5638-2" data-name="패스 5638" class="cls-14" d="M84.013,82.109V79.136a5.085,5.085,0,0,0-5.1-5.086H71.436a5.09,5.09,0,0,0-5.086,5.086v2.974Z" transform="translate(-46.217 3.763)"/>
          <path id="패스_5639-2" data-name="패스 5639" class="cls-14" d="M92.961,48.821c.231-.179-1.166-2.679-3.184-5.821l-1.6,1.25C90.691,46.993,92.73,49,92.961,48.821Z" transform="translate(-45.109 2.187)"/>
          <path id="패스_5640-2" data-name="패스 5640" class="cls-14" d="M86.691,0c-.273-.126-1.776,2.322-3.541,5.6l1.87.788C86.218,2.879,86.964.116,86.691,0Z" transform="translate(-45.364 0.004)"/>
          <path id="패스_5641-2" data-name="패스 5641" class="cls-14" d="M71.32,76.8H78.5c0-2.144-.032-4.424-.084-6.788H71.4C71.352,72.374,71.32,74.654,71.32,76.8Z" transform="translate(-45.964 3.558)"/>
          <path id="패스_5642-2" data-name="패스 5642" class="cls-14" d="M71.755,60.42c-.042.778-.074,1.555-.105,2.333h6.515L78.07,60.42Z" transform="translate(-45.948 3.071)"/>
          <path id="패스_5643-2" data-name="패스 5643" class="cls-14" d="M47.19,31.809c.053.294,2.921.147,6.62-.263L53.4,29.56C49.838,30.579,47.138,31.525,47.19,31.809Z" transform="translate(-47.189 1.505)"/>
          <path id="패스_5644-2" data-name="패스 5644" class="cls-14" d="M75.667,25.575a1.121,1.121,0,1,0,.557,1.492A1.127,1.127,0,0,0,75.667,25.575Z" transform="translate(-45.824 1.298)"/>
        </g>
      </g>
      <g id="그룹_1435-2" data-name="그룹 1435" transform="translate(0 24.001)">
        <path id="패스_5645-2" data-name="패스 5645" class="cls-6" d="M20.446,40.247a1.54,1.54,0,1,0,.746,2.038A1.522,1.522,0,0,0,20.446,40.247Z" transform="translate(0.928 -21.961)"/>
        <path id="패스_5646-2" data-name="패스 5646" class="cls-6" d="M26.273,47.7c-3.026-3.951-4.193-4.371-4.5-4.14s-.2,1.471,2.827,5.422c1.4,1.828,3.163,3.9,4.686,5.569l1.135-.883C29.2,51.769,27.67,49.531,26.273,47.7Z" transform="translate(1.1 -21.788)"/>
        <path id="패스_5647-2" data-name="패스 5647" class="cls-6" d="M19.631,44.58c-.715,0-1.776,10.928-2.3,21.95h4.455C21.3,55.508,20.335,44.58,19.631,44.58Z" transform="translate(0.88 -21.734)"/>
        <path id="패스_5648-2" data-name="패스 5648" class="cls-6" d="M17.08,72.5h4.949c-.032-1.776-.095-3.615-.168-5.464H17.269C17.185,68.889,17.122,70.728,17.08,72.5Z" transform="translate(0.868 -20.594)"/>
        <path id="패스_5649-2" data-name="패스 5649" class="cls-6" d="M22.42,33.145c-1.975,4.571-1.776,5.79-1.429,5.947s1.376-.536,3.362-5.107c.914-2.112,1.86-4.665,2.574-6.809L25.6,26.62C24.542,28.6,23.334,31.023,22.42,33.145Z" transform="translate(1.055 -22.645)"/>
        <path id="패스_5650-2" data-name="패스 5650" class="cls-6" d="M11.651,44.148c4.9-.956,5.779-1.807,5.706-2.2s-1.219-.83-6.1.126c-2.27.441-4.9,1.1-7.072,1.723l.284,1.408C6.712,44.967,9.392,44.589,11.651,44.148Z" transform="translate(0.213 -21.89)"/>
        <g id="그룹_1434-2" data-name="그룹 1434">
          <g id="그룹_1433-2" data-name="그룹 1433">
            <path id="패스_5651-2" data-name="패스 5651" class="cls-22" d="M25.982,80.775v-2.1a3.592,3.592,0,0,0-3.594-3.594H17.1a3.6,3.6,0,0,0-3.594,3.594v2.1Z" transform="translate(0.686 -20.186)"/>
            <path id="패스_5652-2" data-name="패스 5652" class="cls-22" d="M32.293,57.288c.168-.126-.82-1.891-2.238-4.108l-1.135.883C30.685,56.007,32.135,57.415,32.293,57.288Z" transform="translate(1.469 -21.297)"/>
            <path id="패스_5653-2" data-name="패스 5653" class="cls-22" d="M17.02,77.031h5.065c0-1.513-.021-3.121-.053-4.791H17.083C17.041,73.911,17.02,75.518,17.02,77.031Z" transform="translate(0.865 -20.33)"/>
            <path id="패스_5654-2" data-name="패스 5654" class="cls-22" d="M17.334,65.48c-.032.546-.053,1.093-.074,1.65h4.592c-.021-.546-.042-1.093-.063-1.65Z" transform="translate(0.877 -20.673)"/>
            <path id="패스_5655-2" data-name="패스 5655" class="cls-22" d="M27.871,22.84c-.189-.084-1.25,1.639-2.5,3.961l1.324.557C27.535,24.879,28.06,22.924,27.871,22.84Z" transform="translate(1.288 -22.837)"/>
            <path id="패스_5656-2" data-name="패스 5656" class="cls-22" d="M0,45.287c.042.2,2.059.105,4.676-.189l-.284-1.4C1.86,44.415-.042,45.087,0,45.287Z" transform="translate(0.001 -21.778)"/>
          </g>
          <path id="패스_5657-2" data-name="패스 5657" class="cls-22" d="M20.094,40.883a.792.792,0,0,0-1.051.389.792.792,0,0,0,1.44.662A.8.8,0,0,0,20.094,40.883Z" transform="translate(0.963 -21.925)"/>
        </g>
      </g>
    </g>
  </g>
</svg>
