<svg xmlns="http://www.w3.org/2000/svg" viewBox="0 0 258.061 102.134">
  <defs>
    <style>
      .cls-1 {
        opacity: 0.1;
      }

      .cls-2 {
        fill: #74c6be;
      }

      .cls-3 {
        fill: #64c0ab;
      }

      .cls-4 {
        fill: #bce2e3;
      }

      .cls-5 {
        fill: #727171;
      }

      .cls-6 {
        fill: #fff;
      }

      .cls-7 {
        fill: #e0f1f2;
      }

      .cls-8 {
        fill: #e6e6e6;
      }

      .cls-9 {
        fill: #666464;
      }

      .cls-10 {
        fill: #7d7d7d;
      }

      .cls-11 {
        fill: #e3c8a0;
      }

      .cls-12 {
        fill: #60b7a3;
      }

      .cls-13 {
        fill: #b5b5b6;
      }

      .cls-14 {
        fill: #ea5541;
      }

      .cls-15 {
        fill: #898989;
      }

      .cls-16 {
        fill: #ededed;
      }

      .cls-17 {
        fill: #006b94;
      }

      .cls-18 {
        fill: #831a1f;
      }

      .cls-19 {
        fill: #972328;
      }

      .cls-20 {
        fill: #d2a587;
      }

      .cls-21 {
        fill: #f6c3d9;
      }

      .cls-22 {
        fill: #fdd35c;
      }

      .cls-23 {
        fill: #6a6969;
      }

      .cls-24 {
        fill: #efefef;
      }

      .cls-25 {
        fill: #f7f8f8;
      }

      .cls-26 {
        fill: #e3904a;
      }
    </style>
  </defs>
  <g id="그룹_1464" data-name="그룹 1464" transform="translate(-38.939 -535.603)">
    <g id="그룹_1437" data-name="그룹 1437" class="cls-1" transform="translate(151.583 565.104)">
      <g id="그룹_1429" data-name="그룹 1429" transform="translate(12.149 17.668)">
        <path id="패스_5630" data-name="패스 5630" d="M25.124,55.609a28.511,28.511,0,0,1-6.5,9.188c-1.8,1.617-5.216,3.315-4.932,6.1.6,6,14.422,4.932,18.128,4.932,7.242,0,14.493.053,21.744.071,7.367.018,16.688,2.444,23.5-1.182,6.967-3.706-2.719-10.13-4.168-14.493-3.27-9.873-10.788-22.793-23.388-23.477-7.8-.418-14.12,1.164-18.652,7.775C28.377,48.135,26.9,51.956,25.124,55.609Z" transform="translate(-13.671 -21.75)"/>
        <path id="패스_5631" data-name="패스 5631" d="M76.159,47.462a31.413,31.413,0,0,1-7.6,12.21C66.224,61.9,53.6,68.9,60.617,72.566c4.878,2.541,12.307,2.053,17.657,2.222,2.23.071,4.443-.027,6.665-.018,16.528.027,33.056.142,49.585,0,7.651-.062,26.667-1.146,12.023-12.565-8.575-6.682-5.056-20.056-10.335-28.667-5.838-9.526-16.706-14.067-27.7-13.631C89.923,20.635,82.245,30.65,76.159,47.462Z" transform="translate(-18.666 -19.878)"/>
      </g>
      <g id="그룹_1432" data-name="그룹 1432" transform="translate(41.934 0)">
        <g id="그룹_1430" data-name="그룹 1430" transform="translate(5.261 4.758)">
          <path id="패스_5632" data-name="패스 5632" d="M75.682,24.629a1.843,1.843,0,1,0,.906,2.444A1.85,1.85,0,0,0,75.682,24.629Z" transform="translate(-55.333 -7.479)"/>
          <path id="패스_5633" data-name="패스 5633" d="M83.417,34.32c-3.634-4.745-5.021-5.243-5.394-4.967s-.24,1.759,3.395,6.5c1.679,2.195,3.794,4.665,5.616,6.673l1.351-1.057C86.936,39.189,85.1,36.515,83.417,34.32Z" transform="translate(-55.87 -8.017)"/>
          <path id="패스_5634" data-name="패스 5634" d="M74.5,30.81c-.853,0-2.124,13.1-2.755,26.312h5.341C76.522,43.908,75.358,30.81,74.5,30.81Z" transform="translate(-55.186 -8.186)"/>
          <path id="패스_5635" data-name="패스 5635" d="M71.4,69.189h5.936c-.044-2.124-.116-4.328-.2-6.549H71.622C71.533,64.862,71.453,67.065,71.4,69.189Z" transform="translate(-55.147 -11.731)"/>
          <path id="패스_5636" data-name="패스 5636" d="M78.612,13.17c-2.373,5.483-2.133,6.94-1.706,7.127s1.653-.649,4.025-6.123c1.1-2.541,2.23-5.589,3.092-8.157L82.442,5.35C81.153,7.723,79.7,10.637,78.612,13.17Z" transform="translate(-55.73 -5.35)"/>
          <path id="패스_5637" data-name="패스 5637" d="M62.076,29.613c5.865-1.146,6.922-2.177,6.842-2.63s-1.466-1-7.331.151c-2.71.533-5.865,1.324-8.477,2.07l.347,1.679C56.149,30.6,59.357,30.146,62.076,29.613Z" transform="translate(-53.11 -7.7)"/>
        </g>
        <g id="그룹_1431" data-name="그룹 1431">
          <path id="패스_5638" data-name="패스 5638" d="M81.288,80.866V78.351a4.3,4.3,0,0,0-4.31-4.3H70.651a4.3,4.3,0,0,0-4.3,4.3v2.515Z" transform="translate(-49.324 -8.244)"/>
          <path id="패스_5639" data-name="패스 5639" d="M92.223,47.923c.2-.151-.986-2.266-2.692-4.923L88.18,44.057C90.3,46.377,92.028,48.074,92.223,47.923Z" transform="translate(-51.755 -4.786)"/>
          <path id="패스_5640" data-name="패스 5640" d="M86.145,0c-.231-.107-1.5,1.964-2.995,4.736l1.582.666C85.745,2.434,86.376.1,86.145,0Z" transform="translate(-51.195 0.004)"/>
          <path id="패스_5641" data-name="패스 5641" d="M71.32,75.75h6.069c0-1.813-.027-3.741-.071-5.74H71.391C71.347,72.009,71.32,73.938,71.32,75.75Z" transform="translate(-49.877 -7.794)"/>
          <path id="패스_5642" data-name="패스 5642" d="M71.739,60.42c-.036.658-.062,1.315-.089,1.973h5.509l-.08-1.973Z" transform="translate(-49.914 -6.726)"/>
          <path id="패스_5643" data-name="패스 5643" d="M47.19,31.462c.044.249,2.47.124,5.6-.222l-.347-1.679C49.429,30.422,47.145,31.222,47.19,31.462Z" transform="translate(-47.189 -3.289)"/>
          <path id="패스_5644" data-name="패스 5644" d="M75.422,25.559a.948.948,0,1,0,.471,1.262A.954.954,0,0,0,75.422,25.559Z" transform="translate(-50.185 -2.834)"/>
        </g>
      </g>
      <g id="그룹_1435" data-name="그룹 1435" transform="translate(0 20.297)">
        <path id="패스_5645" data-name="패스 5645" d="M20.108,40.225a1.3,1.3,0,1,0,.631,1.724A1.287,1.287,0,0,0,20.108,40.225Z" transform="translate(-2.033 -24.761)"/>
        <path id="패스_5646" data-name="패스 5646" d="M25.561,47.056c-2.559-3.341-3.546-3.7-3.8-3.5s-.169,1.244,2.39,4.585c1.182,1.546,2.675,3.3,3.963,4.71l.96-.746C28.04,50.495,26.743,48.6,25.561,47.056Z" transform="translate(-2.412 -25.14)"/>
        <path id="패스_5647" data-name="패스 5647" d="M19.276,44.58c-.6,0-1.5,9.242-1.946,18.563H21.1C20.689,53.822,19.871,44.58,19.276,44.58Z" transform="translate(-1.93 -25.259)"/>
        <path id="패스_5648" data-name="패스 5648" d="M17.08,71.661h4.185c-.027-1.5-.08-3.057-.142-4.621H17.24C17.169,68.6,17.116,70.159,17.08,71.661Z" transform="translate(-1.902 -27.761)"/>
        <path id="패스_5649" data-name="패스 5649" d="M22.165,32.138c-1.671,3.865-1.5,4.9-1.209,5.03s1.164-.453,2.844-4.319c.773-1.786,1.573-3.945,2.177-5.758l-1.12-.471C23.96,28.291,22.938,30.343,22.165,32.138Z" transform="translate(-2.313 -23.259)"/>
        <path id="패스_5650" data-name="패스 5650" d="M10.5,43.74c4.141-.809,4.887-1.528,4.825-1.857s-1.031-.7-5.163.107c-1.919.373-4.141.933-5.98,1.457l.24,1.191C6.322,44.433,8.588,44.113,10.5,43.74Z" transform="translate(-0.465 -24.917)"/>
        <g id="그룹_1434" data-name="그룹 1434">
          <g id="그룹_1433" data-name="그룹 1433">
            <path id="패스_5651" data-name="패스 5651" d="M24.058,79.9V78.119a3.038,3.038,0,0,0-3.039-3.039h-4.47a3.043,3.043,0,0,0-3.039,3.039V79.9Z" transform="translate(-1.504 -28.656)"/>
            <path id="패스_5652" data-name="패스 5652" d="M31.772,56.654c.142-.107-.693-1.6-1.893-3.474l-.96.746C30.413,55.57,31.639,56.761,31.772,56.654Z" transform="translate(-3.221 -26.217)"/>
            <path id="패스_5653" data-name="패스 5653" d="M17.02,76.292H21.3c0-1.28-.018-2.639-.044-4.052H17.073C17.038,73.653,17.02,75.012,17.02,76.292Z" transform="translate(-1.895 -28.34)"/>
            <path id="패스_5654" data-name="패스 5654" d="M17.322,65.48c-.027.462-.044.924-.062,1.4h3.883c-.018-.462-.036-.924-.053-1.4Z" transform="translate(-1.922 -27.587)"/>
            <path id="패스_5655" data-name="패스 5655" d="M27.485,22.84c-.16-.071-1.057,1.386-2.115,3.35l1.12.471C27.2,24.564,27.645,22.911,27.485,22.84Z" transform="translate(-2.825 -22.837)"/>
            <path id="패스_5656" data-name="패스 5656" d="M0,45.042c.036.169,1.742.089,3.954-.16L3.714,43.7C1.573,44.3-.036,44.873,0,45.042Z" transform="translate(0.001 -25.161)"/>
          </g>
          <path id="패스_5657" data-name="패스 5657" d="M19.921,40.872a.67.67,0,0,0-.889.329.67.67,0,1,0,1.217.56A.673.673,0,0,0,19.921,40.872Z" transform="translate(-2.112 -24.839)"/>
        </g>
      </g>
    </g>
    <g id="그룹_1463" data-name="그룹 1463" transform="translate(-46 -5)">
      <g id="그룹_1424" data-name="그룹 1424" transform="translate(84.939 540.603)">
        <path id="패스_5517" data-name="패스 5517" class="cls-2" d="M77.706,16.93s-6.229,0-9.224,21.139c0,0-.21,2.737-2.67,2.317a1.489,1.489,0,0,0-1.644,1.2c-.337,1.606,1.666,1.989,2.825,2.016a5.338,5.338,0,0,0,1.065-.066c3.829-.688,4.022-4.666,4.678-7.693.789-3.65,1.1-7.338,2.819-10.671C76.6,23.131,78.346,21.8,80.018,20.2Z" transform="translate(-62.132 -7.674)"/>
        <path id="패스_5518" data-name="패스 5518" class="cls-3" d="M81.625,151.787h.011a.718.718,0,0,0,.712-.727v-3.295c0-.24-.017-.481-.022-.721-.011-.29-.022-.557-.022-.831v-.164c.006-.514.006-1.153.276-1.4a2.234,2.234,0,0,1,1.252-.175l1.214.076a.715.715,0,1,0,.094-1.426l-1.23-.082a3.191,3.191,0,0,0-2.3.546,3.113,3.113,0,0,0-.75,2.453v.153c-.006.306.011.606.022.9.011.224.017.448.022.678.006.5,0,1.005,0,1.508v1.787a.723.723,0,0,0,.723.721" transform="translate(-77.156 -64.874)"/>
        <path id="패스_5519" data-name="패스 5519" class="cls-3" d="M81.573,151.462a.717.717,0,0,0,.717-.716v-7.1a3.159,3.159,0,0,1,.177-1,2.583,2.583,0,0,1,2.345-1.552h2.1a.716.716,0,1,0,0-1.432h-2.1a4.013,4.013,0,0,0-3.691,2.464,4.43,4.43,0,0,0-.27,1.5v7.125a.722.722,0,0,0,.723.716" transform="translate(-78.969 -63.348)"/>
        <path id="패스_5520" data-name="패스 5520" class="cls-3" d="M82.637,151.113a.715.715,0,0,0,.723-.716v-8.644a4.389,4.389,0,0,1,4.171-4.092h1.738a.716.716,0,1,0,0-1.432H87.5l-.05.005a5.87,5.87,0,0,0-5.534,5.453v8.72a.708.708,0,0,0,.717.7" transform="translate(-81.92 -61.792)"/>
        <path id="패스_5521" data-name="패스 5521" class="cls-4" d="M39.6,65.615A23.018,23.018,0,0,1,32.839,82.99l-1.5,12.43h-3L26.378,83.837l-5.09-.148L18.439,96.518H15.692L13.826,81.744S7.974,79.553,9.789,68.5L13.417,35.27s2.468-20.516,7.7-22.544c0,0-6.279-5.7-1.536-12.736a13.414,13.414,0,0,1,6.273,8.327s.529.229,4.7.033h1.359s1.16-4.524,7-6.682a10.577,10.577,0,0,1-2.3,10.053c.159-.191,5.409,4.1,5.568,4.234,4.9,3.989,7.172,7.147,10.5,11.895a4.173,4.173,0,0,1,.654,3.743c-.3,1.284-1.956,2.994-2.957,3.83a7.2,7.2,0,0,1-4.806,1.885c-3.384-.033-7.291-.393-10.345-1.841.136.066.011.1.421,2.552Z" transform="translate(-4.118 0.01)"/>
        <path id="패스_5522" data-name="패스 5522" class="cls-5" d="M72.3,180.13H66.35l.623-4.513,2.847-.137Z" transform="translate(-55.343 -79.596)"/>
        <path id="패스_5523" data-name="패스 5523" class="cls-5" d="M48.224,174.65l2.091,3.71s-3.757.016-5.7-.2l.7-3.508" transform="translate(-21.023 -79.22)"/>
        <path id="패스_5524" data-name="패스 5524" class="cls-6" d="M51.559,164.68c-.006.033-.088.093-.116.115a2.135,2.135,0,0,1-.314.235,1.382,1.382,0,0,1-1.087.153,1.453,1.453,0,0,1-.414-.2c-.127-.082-.232-.18-.359-.251a1.157,1.157,0,0,0-.43-.1,2.026,2.026,0,0,0-.364.005,1.471,1.471,0,0,0-.833.333,1.586,1.586,0,0,0-.21.219,1.2,1.2,0,0,0-.094.137c-.022.027-.094.115-.088.148l.761,4.661h2.907Z" transform="translate(-23.744 -74.67)"/>
        <path id="패스_5525" data-name="패스 5525" class="cls-6" d="M73.454,165.267a.915.915,0,0,1-1.484-.033s-.85-1.1-1.49,0c0,0-.679.738-1.153-.366,0,0-.37-.606-.607-.033l.745,5.83,2.841-.1Z" transform="translate(-57.811 -74.656)"/>
        <path id="패스_5526" data-name="패스 5526" class="cls-6" d="M39.148,5.62s.579,4.617-1.876,7.081S36.091,7.745,39.148,5.62" transform="translate(-4.996 -2.544)"/>
        <path id="패스_5527" data-name="패스 5527" class="cls-6" d="M64.793,3.32s-1.8,4.573.965,8.381c2.433,3.349,2.251-5.289-.965-8.381" transform="translate(-49.191 -1.501)"/>
        <path id="패스_5528" data-name="패스 5528" class="cls-7" d="M26.948,44.24c.044.06.066.093.061.093s-.022-.027-.061-.087Z" transform="translate(12.339 -20.063)"/>
        <path id="패스_5529" data-name="패스 5529" class="cls-2" d="M13.037,55.314,13.02,55.1a.566.566,0,0,0-.2-.377.6.6,0,0,0-.4-.142l-.039.005a.572.572,0,0,0-.524.59l.006.038.022.208a.286.286,0,0,1-.568.06l-.022-.208v-.005a.263.263,0,0,1-.006-.066,1.143,1.143,0,0,1,1.037-1.18.294.294,0,0,0,.072-.005,1.131,1.131,0,0,1,.794.279,1.091,1.091,0,0,1,.392.749l.022.208a.287.287,0,0,1-.254.311.292.292,0,0,1-.314-.251" transform="translate(34.752 -24.499)"/>
        <path id="패스_5530" data-name="패스 5530" class="cls-5" d="M29.288,31.595l.022.208a.591.591,0,0,0,.2.382.619.619,0,0,0,.4.137h.039a.585.585,0,0,0,.524-.6l-.006-.038h0l-.022-.208a.286.286,0,0,1,.568-.06l.022.208a.309.309,0,0,1,.006.071,1.152,1.152,0,0,1-1.037,1.186c-.022,0-.05.005-.072.005a1.163,1.163,0,0,1-.8-.279,1.113,1.113,0,0,1-.392-.749l-.022-.208a.286.286,0,0,1,.568-.06" transform="translate(7.288 -14.133)"/>
        <path id="패스_5531" data-name="패스 5531" class="cls-5" d="M42.658,38.62l.022.208a.611.611,0,0,0,.193.382.591.591,0,0,0,.4.137l.033-.005a.57.57,0,0,0,.524-.6v-.038l-.022-.208a.284.284,0,0,1,.254-.311.29.29,0,0,1,.32.251l.017.213a.286.286,0,0,1,.006.071A1.151,1.151,0,0,1,43.37,39.9c-.028,0-.05.005-.072.005a1.14,1.14,0,0,1-.794-.279,1.125,1.125,0,0,1-.392-.749l-.022-.208a.284.284,0,0,1,.254-.311.289.289,0,0,1,.314.257" transform="translate(-13.644 -17.317)"/>
        <path id="패스_5532" data-name="패스 5532" class="cls-2" d="M18.844,57.5l-.11-.18a.574.574,0,0,0-.348-.251.565.565,0,0,0-.419.049l-.033.016a.57.57,0,0,0-.21.759l.022.033.11.18a.277.277,0,0,1-.094.388.288.288,0,0,1-.4-.093l-.11-.18h0c-.011-.022-.028-.038-.039-.06a1.147,1.147,0,0,1,.408-1.513l.061-.033a1.17,1.17,0,0,1,.844-.1,1.157,1.157,0,0,1,.684.5l.116.18a.286.286,0,0,1-.485.3" transform="translate(25.545 -25.616)"/>
        <path id="패스_5533" data-name="패스 5533" class="cls-2" d="M50.453,24.864a.773.773,0,0,0,.778-.77v-.432l-.006-.044c-.1-1.721-.634-2.868-2.907-2.868H46.072a.768.768,0,1,0,.006,1.535h2.245c1.076,0,1.28.1,1.357,1.4v.41a.765.765,0,0,0,.772.77" transform="translate(-22.334 -9.407)"/>
        <path id="패스_5534" data-name="패스 5534" class="cls-2" d="M49.882,22.345a.772.772,0,0,0,.778-.765v-.432l-.006-.055a4.15,4.15,0,0,0-4.3-4.163h-4.1a.768.768,0,1,0,0,1.535h4.077a2.631,2.631,0,0,1,2.77,2.71v.4a.779.779,0,0,0,.778.765" transform="translate(-19.644 -7.674)"/>
        <path id="패스_5535" data-name="패스 5535" class="cls-2" d="M49.53,19.828a.773.773,0,0,0,.778-.77v-.213a5.631,5.631,0,0,0-5.655-5.595H38.562a.77.77,0,1,0,0,1.541h6.091a4.082,4.082,0,0,1,4.1,4.06v.213a.772.772,0,0,0,.778.765" transform="translate(-17.246 -6.005)"/>
        <path id="패스_5536" data-name="패스 5536" class="cls-6" d="M37.681,121.573a.236.236,0,0,0,.188-.087,1.177,1.177,0,0,0,.232-.525.239.239,0,0,0-.474-.055.657.657,0,0,1-.127.284.234.234,0,0,0,.039.333.207.207,0,0,0,.143.049" transform="translate(-4.694 -54.746)"/>
        <path id="패스_5537" data-name="패스 5537" class="cls-6" d="M37.06,116.513a.233.233,0,0,0,.188-.093,1.178,1.178,0,0,0,.226-.519.239.239,0,0,0-.474-.055.72.72,0,0,1-.132.29.235.235,0,0,0,.044.333.294.294,0,0,0,.149.044" transform="translate(-3.711 -52.45)"/>
        <path id="패스_5538" data-name="패스 5538" class="cls-6" d="M41.241,132.128a.226.226,0,0,0,.188-.093,1.219,1.219,0,0,0,.232-.519.236.236,0,0,0-.2-.268.242.242,0,0,0-.27.2.91.91,0,0,1-.127.29.234.234,0,0,0,.039.333.205.205,0,0,0,.143.055" transform="translate(-10.267 -59.531)"/>
        <path id="패스_5539" data-name="패스 5539" class="cls-6" d="M43.372,135.933a.236.236,0,0,0,.188-.087,1.212,1.212,0,0,0,.232-.525.239.239,0,0,0-.474-.055.7.7,0,0,1-.127.284.239.239,0,0,0,.033.333.244.244,0,0,0,.149.049" transform="translate(-13.602 -61.26)"/>
        <path id="패스_5540" data-name="패스 5540" class="cls-6" d="M41.407,138.758a.241.241,0,0,0,.188-.093,1.228,1.228,0,0,0,.226-.525.239.239,0,0,0-.474-.055.777.777,0,0,1-.127.284.234.234,0,0,0,.039.333.219.219,0,0,0,.149.055" transform="translate(-10.518 -62.539)"/>
        <path id="패스_5541" data-name="패스 5541" class="cls-6" d="M39.719,135.193a.254.254,0,0,0,.188-.087,1.114,1.114,0,0,0,.226-.525.243.243,0,0,0-.21-.262.234.234,0,0,0-.265.208.744.744,0,0,1-.127.279.234.234,0,0,0,.039.333.219.219,0,0,0,.149.055" transform="translate(-7.874 -60.924)"/>
        <path id="패스_5542" data-name="패스 5542" class="cls-6" d="M43.24,130.183a.233.233,0,0,0,.188-.093,1.163,1.163,0,0,0,.221-.519.235.235,0,0,0-.21-.262.244.244,0,0,0-.265.208.775.775,0,0,1-.127.29.235.235,0,0,0,.044.333.311.311,0,0,0,.149.044" transform="translate(-13.381 -58.652)"/>
        <path id="패스_5543" data-name="패스 5543" class="cls-6" d="M37.232,129.813a.233.233,0,0,0,.188-.093,1.159,1.159,0,0,0,.221-.525.238.238,0,0,0-.474-.044.719.719,0,0,1-.127.284.235.235,0,0,0,.044.333.387.387,0,0,0,.149.044" transform="translate(-3.974 -58.483)"/>
        <path id="패스_5544" data-name="패스 5544" class="cls-6" d="M37.375,125.409a.233.233,0,0,0,.188-.093,1.229,1.229,0,0,0,.226-.525.232.232,0,0,0-.21-.262.237.237,0,0,0-.265.208.83.83,0,0,1-.127.29.239.239,0,0,0,.039.333.256.256,0,0,0,.149.049" transform="translate(-4.207 -56.483)"/>
        <path id="패스_5545" data-name="패스 5545" class="cls-6" d="M40.273,119.348a.236.236,0,0,0,.188-.087,1.228,1.228,0,0,0,.232-.53.243.243,0,0,0-.21-.262.234.234,0,0,0-.265.208.744.744,0,0,1-.127.279.238.238,0,0,0,.033.333.209.209,0,0,0,.149.06" transform="translate(-8.751 -53.734)"/>
        <path id="패스_5546" data-name="패스 5546" class="cls-6" d="M40.273,127.778a.254.254,0,0,0,.188-.087,1.193,1.193,0,0,0,.232-.53.243.243,0,0,0-.21-.262.234.234,0,0,0-.265.208.807.807,0,0,1-.127.284.234.234,0,0,0,.039.333.205.205,0,0,0,.143.055" transform="translate(-8.751 -57.558)"/>
        <path id="패스_5547" data-name="패스 5547" class="cls-6" d="M74.194,146a.24.24,0,0,0,.143-.049.234.234,0,0,0,.044-.333.7.7,0,0,1-.127-.29.239.239,0,0,0-.474.055,1.283,1.283,0,0,0,.221.525.244.244,0,0,0,.193.093" transform="translate(-61.571 -65.823)"/>
        <path id="패스_5548" data-name="패스 5548" class="cls-6" d="M72.846,142.578a.241.241,0,0,0,.193-.382.793.793,0,0,1-.127-.284.235.235,0,0,0-.259-.213.238.238,0,0,0-.215.257,1.15,1.15,0,0,0,.221.525.224.224,0,0,0,.188.1" transform="translate(-59.464 -64.271)"/>
        <path id="패스_5549" data-name="패스 5549" class="cls-6" d="M79.913,139.128a.256.256,0,0,0,.149-.049.24.24,0,0,0,.044-.333.707.707,0,0,1-.127-.29.239.239,0,0,0-.474.055,1.228,1.228,0,0,0,.226.525.216.216,0,0,0,.182.093" transform="translate(-70.749 -62.706)"/>
        <path id="패스_5550" data-name="패스 5550" class="cls-6" d="M77.484,143.6a.256.256,0,0,0,.149-.049.24.24,0,0,0,.044-.333.787.787,0,0,1-.132-.3.237.237,0,1,0-.469.066,1.259,1.259,0,0,0,.226.514.208.208,0,0,0,.182.1" transform="translate(-66.727 -64.734)"/>
        <path id="패스_5551" data-name="패스 5551" class="cls-6" d="M76.686,140.833a.256.256,0,0,0,.149-.049.234.234,0,0,0,.039-.333.825.825,0,0,1-.132-.284.233.233,0,0,0-.265-.208.238.238,0,0,0-.21.262,1.178,1.178,0,0,0,.226.519.252.252,0,0,0,.193.093" transform="translate(-65.471 -63.482)"/>
        <path id="패스_5552" data-name="패스 5552" class="cls-6" d="M80.508,142.578a.228.228,0,0,0,.143-.049.24.24,0,0,0,.044-.333.707.707,0,0,1-.127-.29.233.233,0,0,0-.265-.208.242.242,0,0,0-.21.262,1.206,1.206,0,0,0,.226.519.224.224,0,0,0,.188.1" transform="translate(-71.664 -64.271)"/>
        <path id="패스_5553" data-name="패스 5553" class="cls-6" d="M76.348,147.748a.256.256,0,0,0,.149-.049.24.24,0,0,0,.044-.333.789.789,0,0,1-.127-.29.239.239,0,0,0-.265-.208.236.236,0,0,0-.2.268,1.178,1.178,0,0,0,.226.519.2.2,0,0,0,.177.093" transform="translate(-64.951 -66.617)"/>
        <path id="패스_5554" data-name="패스 5554" class="cls-6" d="M76.593,74.842h.033a.234.234,0,0,0,.2-.262.681.681,0,0,1,.055-.306.233.233,0,0,0-.121-.311.237.237,0,0,0-.314.12,1.224,1.224,0,0,0-.094.563.242.242,0,0,0,.237.2" transform="translate(-65.499 -33.536)"/>
        <path id="패스_5555" data-name="패스 5555" class="cls-6" d="M71.884,65.192l.033-.005a.236.236,0,0,0,.2-.268.691.691,0,0,1,.05-.3.238.238,0,0,0-.116-.317.243.243,0,0,0-.32.115,1.178,1.178,0,0,0-.088.568.242.242,0,0,0,.237.208" transform="translate(-58.12 -29.153)"/>
        <path id="패스_5556" data-name="패스 5556" class="cls-6" d="M76.411,65.244h.033a.229.229,0,0,0,.2-.268.732.732,0,0,1,.05-.3.231.231,0,0,0-.121-.311.242.242,0,0,0-.314.12,1.178,1.178,0,0,0-.088.563.252.252,0,0,0,.243.2" transform="translate(-65.198 -29.183)"/>
        <path id="패스_5557" data-name="패스 5557" class="cls-6" d="M70.75,60.989h.033a.236.236,0,0,0,.2-.268.694.694,0,0,1,.055-.306.233.233,0,0,0-.121-.311.244.244,0,0,0-.314.12,1.178,1.178,0,0,0-.088.563.232.232,0,0,0,.232.2" transform="translate(-56.353 -27.251)"/>
        <path id="패스_5558" data-name="패스 5558" class="cls-6" d="M74.924,55.707h.033a.236.236,0,0,0,.2-.268.668.668,0,0,1,.055-.306.233.233,0,0,0-.121-.311.238.238,0,0,0-.314.115,1.19,1.19,0,0,0-.094.568.237.237,0,0,0,.237.2" transform="translate(-62.884 -24.854)"/>
        <path id="패스_5559" data-name="패스 5559" class="cls-6" d="M74.123,62.609h.028a.235.235,0,0,0,.21-.262.7.7,0,0,1,.055-.311.233.233,0,0,0-.121-.311.244.244,0,0,0-.314.12,1.224,1.224,0,0,0-.094.563.242.242,0,0,0,.237.2" transform="translate(-61.632 -27.986)"/>
        <path id="패스_5560" data-name="패스 5560" class="cls-6" d="M72.819,52.407h.033a.231.231,0,0,0,.2-.268.732.732,0,0,1,.05-.3.239.239,0,0,0-.11-.317.246.246,0,0,0-.32.109,1.127,1.127,0,0,0-.094.574.248.248,0,0,0,.243.2" transform="translate(-59.576 -23.356)"/>
        <path id="패스_5561" data-name="패스 5561" class="cls-6" d="M71.671,56.489H71.7a.239.239,0,0,0,.2-.268.694.694,0,0,1,.055-.306.231.231,0,0,0-.121-.311.242.242,0,0,0-.314.12,1.126,1.126,0,0,0-.088.568.232.232,0,0,0,.232.2" transform="translate(-57.793 -25.209)"/>
        <path id="패스_5562" data-name="패스 5562" class="cls-6" d="M73.778,58.768h.028a.238.238,0,0,0,.21-.262.7.7,0,0,1,.055-.311.233.233,0,0,0-.121-.311.237.237,0,0,0-.314.12,1.224,1.224,0,0,0-.088.563.228.228,0,0,0,.232.2" transform="translate(-61.094 -26.242)"/>
        <path id="패스_5563" data-name="패스 5563" class="cls-6" d="M75.226,68.448h.039a.234.234,0,0,0,.2-.268.773.773,0,0,1,.05-.306.233.233,0,0,0-.121-.311.239.239,0,0,0-.314.12,1.136,1.136,0,0,0-.088.568.241.241,0,0,0,.237.2" transform="translate(-63.351 -30.633)"/>
        <path id="패스_5564" data-name="패스 5564" class="cls-6" d="M73.98,72.67h.033a.234.234,0,0,0,.2-.262.717.717,0,0,1,.055-.311.24.24,0,0,0-.127-.311.244.244,0,0,0-.314.126,1.236,1.236,0,0,0-.088.563.242.242,0,0,0,.237.2" transform="translate(-61.403 -32.55)"/>
        <path id="패스_5565" data-name="패스 5565" class="cls-6" d="M76.9,71.233l.033-.005a.236.236,0,0,0,.2-.268.772.772,0,0,1,.05-.306.233.233,0,0,0-.121-.311.237.237,0,0,0-.314.12,1.167,1.167,0,0,0-.088.563.246.246,0,0,0,.237.208" transform="translate(-65.965 -31.894)"/>
        <path id="패스_5566" data-name="패스 5566" class="cls-6" d="M71.743,69.658h.033a.236.236,0,0,0,.2-.268.668.668,0,0,1,.055-.306.233.233,0,0,0-.121-.311.237.237,0,0,0-.314.12,1.237,1.237,0,0,0-.094.563.238.238,0,0,0,.237.2" transform="translate(-57.906 -31.182)"/>
        <path id="패스_5567" data-name="패스 5567" class="cls-4" d="M32.56,86.855s-6.449,4.48-10.339-1.645L20.18,91.624s6.124,6.742,13.864-1.109Z" transform="translate(9.035 -38.648)"/>
        <path id="패스_5568" data-name="패스 5568" class="cls-6" d="M21.28,94.979a13.749,13.749,0,0,0,4.342-3.1l-1.49-3.661a10.169,10.169,0,0,1-3.972,1.513,1.993,1.993,0,0,1,.612,2.617s-.425,1.273.044,1.951Z" transform="translate(17.535 -40.013)"/>
        <path id="패스_5569" data-name="패스 5569" class="cls-6" d="M34.055,39.947s-.05-.049-.149-.142c-.568-.574-2.621-2.464-2.119-4.349,0,0-2.317-.4-5.738-3.306,0,0,3.183,2.863,1.887,4.7.006,0,2.587.148,6.118,3.092" transform="translate(5.74 -14.579)"/>
        <path id="패스_5570" data-name="패스 5570" class="cls-3" d="M7.419,82.05a.242.242,0,0,0,.237-.208,5.819,5.819,0,0,1,.276-1.153c.259-.776,1.418-3.42,5.352-4.852a.224.224,0,0,0,.138-.3.227.227,0,0,0-.3-.137c-4.132,1.5-5.363,4.316-5.644,5.141a7.128,7.128,0,0,0-.3,1.246.233.233,0,0,0,.2.257Z" transform="translate(37.186 -34.193)"/>
        <path id="패스_5571" data-name="패스 5571" class="cls-3" d="M19.8,79.21c-4.325-6.283-2.8-5.333-2.8-5.333,1.821,1.432,2.576,4.092,2.891,5.163Z" transform="translate(25.216 -33.484)"/>
        <path id="패스_5572" data-name="패스 5572" class="cls-8" d="M70.45,78.881s-3.034-6.2-9.92-1.1l.083-1.426s7.448-5.579,11.508,2.317Z" transform="translate(-51.987 -33.762)"/>
        <path id="패스_5573" data-name="패스 5573" class="cls-8" d="M38.551,76.96a29.693,29.693,0,0,1-.971,3.213l1.92.142.27-1.847Z" transform="translate(-6.453 -34.905)"/>
        <path id="패스_5574" data-name="패스 5574" class="cls-8" d="M83.935,116.594l-1.959-1.044-.287,1.65,2.025,1.005Z" transform="translate(-75.737 -52.411)"/>
        <path id="패스_5575" data-name="패스 5575" class="cls-9" d="M59.243,82.181a75.428,75.428,0,0,1,2.565,11.042,52.527,52.527,0,0,1,.4,15.965,35.235,35.235,0,0,1-1.015,5.234c-.232.83-.491,1.65-.772,2.464-.143.41-.513,2.2-.877,2.393,0,0-8.805,9.114-27.618-.038l3.261-17.872s8.32-1.666,9.9-19.38c3.757.1,7.172.005,10.929.109,1.07.022,2.146.055,3.227.082" transform="translate(-26.991 -37.187)"/>
        <path id="패스_5576" data-name="패스 5576" class="cls-5" d="M47.469,98.93a26.569,26.569,0,0,1-5.2.382l-.386,5.846,5.434-1.306Z" transform="translate(-16.628 -44.871)"/>
        <path id="패스_5577" data-name="패스 5577" class="cls-10" d="M47.471,106.488a7.9,7.9,0,0,1-5.561,1.065l.138-1.41A7.324,7.324,0,0,1,47.6,102.68Z" transform="translate(-16.781 -46.573)"/>
        <path id="패스_5578" data-name="패스 5578" class="cls-11" d="M39.12,84.04a.411.411,0,0,0,.414.41.41.41,0,1,0,0-.82.408.408,0,0,0-.414.41" transform="translate(-7.493 -37.931)"/>
        <path id="패스_5579" data-name="패스 5579" class="cls-11" d="M83.96,148.58a.417.417,0,1,0,.414-.41.416.416,0,0,0-.414.41" transform="translate(-77.847 -67.208)"/>
        <path id="패스_5580" data-name="패스 5580" class="cls-11" d="M54.82,154.5a.419.419,0,1,0,.419-.41.413.413,0,0,0-.419.41" transform="translate(-32.078 -69.893)"/>
        <path id="패스_5581" data-name="패스 5581" class="cls-11" d="M47.57,153.05a.417.417,0,1,0,.414-.41.411.411,0,0,0-.414.41" transform="translate(-20.722 -69.236)"/>
        <path id="패스_5582" data-name="패스 5582" class="cls-11" d="M60.53,83.86a.417.417,0,1,0,.414-.41.416.416,0,0,0-.414.41" transform="translate(-41.012 -37.849)"/>
        <path id="패스_5583" data-name="패스 5583" class="cls-11" d="M63.42,78.433l.094-.071a.341.341,0,0,0,.27.131.349.349,0,0,0,.2-.066l.668-.5a.327.327,0,0,0,.132-.268.313.313,0,0,0-.072-.2.333.333,0,0,0-.27-.131.349.349,0,0,0-.2.066l-.668.5a.327.327,0,0,0-.132.268.341.341,0,0,0,.066.2l-.088.071-.094.071a.562.562,0,0,1,.11-.792l.662-.5a.575.575,0,0,1,.8.109h0a.562.562,0,0,1-.11.792l-.662.5a.588.588,0,0,1-.348.115.582.582,0,0,1-.458-.224Z" transform="translate(-46.195 -34.969)"/>
        <path id="패스_5584" data-name="패스 5584" class="cls-11" d="M37.414,78.478l.1.044a.372.372,0,0,0-.028.131.336.336,0,0,0,.21.311l.767.322a.382.382,0,0,0,.132.027.344.344,0,0,0,.314-.2.372.372,0,0,0,.028-.131.34.34,0,0,0-.2-.311h-.006l-.761-.322a.383.383,0,0,0-.132-.027.344.344,0,0,0-.314.2l-.11-.044-.1-.044a.575.575,0,0,1,.524-.344.664.664,0,0,1,.226.044l.767.322h0a.571.571,0,0,1,.348.525.618.618,0,0,1-.044.219.577.577,0,0,1-.53.344.664.664,0,0,1-.226-.044l-.767-.322a.57.57,0,0,1-.348-.519.647.647,0,0,1,.044-.224Z" transform="translate(-5.673 -35.418)"/>
        <path id="패스_5614" data-name="패스 5614" class="cls-12" d="M0,2.265l2.245,0L2.248,0,0,0Z" transform="translate(20.077 49.151) rotate(-172.658)"/>
        <path id="패스_5585" data-name="패스 5585" class="cls-6" d="M62.259,87.279l.458.071a.462.462,0,0,1,.386.525l-.011.076a.066.066,0,0,1-.083.055.071.071,0,0,1-.061-.076l.011-.076a.321.321,0,0,0-.27-.366l-.458-.071a.073.073,0,0,1-.061-.082.09.09,0,0,1,.088-.055" transform="translate(-43.687 -39.586)"/>
        <path id="패스_5586" data-name="패스 5586" class="cls-6" d="M61.809,86.809l.612.093a.7.7,0,0,1,.585.8L63,87.777a.074.074,0,0,1-.083.06.071.071,0,0,1-.061-.076l.011-.082a.558.558,0,0,0-.469-.639l-.612-.093a.066.066,0,0,1-.055-.082.075.075,0,0,1,.083-.055" transform="translate(-43.347 -39.373)"/>
        <path id="패스_5587" data-name="패스 5587" class="cls-6" d="M61.39,86.339l.772.12a.937.937,0,0,1,.783,1.065l-.011.076a.073.073,0,0,1-.143-.022L62.8,87.5a.8.8,0,0,0-.668-.907l-.772-.12a.073.073,0,0,1-.061-.082.085.085,0,0,1,.088-.055" transform="translate(-43.054 -39.16)"/>
        <path id="패스_5588" data-name="패스 5588" class="cls-13" d="M44.907,90.634l7.762-3.114-.143.574L44.46,91.558Z" transform="translate(-23.33 -39.696)"/>
        <path id="패스_5589" data-name="패스 5589" class="cls-6" d="M47.59,90.545l5.5-6.7.64-.251-4.563,6.775Z" transform="translate(-26.135 -37.913)"/>
        <path id="패스_5590" data-name="패스 5590" class="cls-13" d="M54,92.245a.284.284,0,0,0,.364.158.28.28,0,0,0,.16-.361.288.288,0,0,0-.37-.158.282.282,0,0,0-.154.361" transform="translate(-30.492 -41.667)"/>
        <path id="패스_5591" data-name="패스 5591" class="cls-14" d="M58.871,88.761a1.918,1.918,0,0,1,2.477,1.071,1.887,1.887,0,0,1-1.081,2.453,1.918,1.918,0,0,1-2.477-1.071,1.892,1.892,0,0,1,1.081-2.453m1.114,2.814a1.126,1.126,0,0,0,.645-1.459,1.144,1.144,0,0,0-1.473-.639,1.126,1.126,0,0,0-.645,1.459,1.144,1.144,0,0,0,1.473.639" transform="translate(-39.555 -40.199)"/>
        <path id="패스_5592" data-name="패스 5592" class="cls-14" d="M53.763,95.131A1.918,1.918,0,0,1,56.241,96.2a1.887,1.887,0,0,1-1.081,2.453,1.918,1.918,0,0,1-2.477-1.071,1.887,1.887,0,0,1,1.081-2.453M54.9,98a1.185,1.185,0,0,0,.679-1.546,1.2,1.2,0,0,0-1.561-.672,1.185,1.185,0,0,0-.679,1.546A1.209,1.209,0,0,0,54.9,98" transform="translate(-31.553 -43.088)"/>
        <path id="패스_5593" data-name="패스 5593" class="cls-14" d="M58.039,92.29l.149.749-2.058.907.645-1.246Z" transform="translate(-35.367 -41.859)"/>
        <path id="패스_5594" data-name="패스 5594" class="cls-14" d="M56.028,92.96l.855.5-.546.973-1.887.448Z" transform="translate(-33.117 -42.163)"/>
        <path id="패스_5595" data-name="패스 5595" class="cls-4" d="M80.486,95.189s-7.911,2-8.264-3.918c0,0-1.081-3.628,5.065-7.622,0,0-2.174,6.147,3.393,6.185.006,0,3.078.65-.193,5.354" transform="translate(-68.53 -37.94)"/>
        <path id="패스_5596" data-name="패스 5596" class="cls-6" d="M66.219,99.9a13.7,13.7,0,0,0,4.971-1.961l-.546-3.907a10.143,10.143,0,0,1-4.226.514,1.992,1.992,0,0,1-.044,2.688s-.723,1.131-.436,1.9Z" transform="translate(-53.944 -42.649)"/>
        <path id="패스_5597" data-name="패스 5597" class="cls-15" d="M62.543,92.181l-2.483.983.546,3.907,3.205-2.322a6.313,6.313,0,0,0-1.17-2.639" transform="translate(-43.244 -41.778)"/>
        <path id="패스_5615" data-name="패스 5615" class="cls-16" d="M0,.861,8.182.832l0-.832L0,.03Z" transform="translate(23.706 68.201) rotate(-114.035)"/>
        <path id="패스_5598" data-name="패스 5598" class="cls-17" d="M58.442,112.925l.767-.339-.938-2.076-.761.339Z" transform="translate(-37.163 -50.124)"/>
        <path id="패스_5616" data-name="패스 5616" class="cls-17" d="M0,.223,2.277.215V0L0,.008Z" transform="translate(21.186 63.478) rotate(-113.974)"/>
        <path id="패스_5617" data-name="패스 5617" class="cls-17" d="M0,.216l.427,0V0L0,0Z" transform="translate(20.576 61.701) rotate(-114.143)"/>
        <path id="패스_5618" data-name="패스 5618" class="cls-18" d="M0,.841,5.9.833V0L0,.008Z" transform="translate(23.955 68.463) rotate(-98.534)"/>
        <path id="패스_5599" data-name="패스 5599" class="cls-19" d="M54.27,112.883l.828-.126-.469-1.967-.359.071Z" transform="translate(-31.206 -50.251)"/>
        <path id="패스_5619" data-name="패스 5619" class="cls-16" d="M0,7.36l4.026-.015L4.053,0,.027.015Z" transform="translate(26.702 70.125) rotate(-154.849)"/>
        <path id="패스_5600" data-name="패스 5600" class="cls-20" d="M44.023,115.52a.1.1,0,0,0,.05.131.1.1,0,0,0,.132-.049l.232-.508a.1.1,0,0,0-.05-.131.1.1,0,0,0-.132.049Z" transform="translate(-14.749 -52.141)"/>
        <path id="패스_5601" data-name="패스 5601" class="cls-20" d="M45.023,115.08a.1.1,0,0,0,.05.131.1.1,0,0,0,.132-.049l.232-.508a.1.1,0,0,0-.05-.131.1.1,0,0,0-.132.049Z" transform="translate(-16.314 -51.941)"/>
        <path id="패스_5602" data-name="패스 5602" class="cls-20" d="M46.023,114.64a.1.1,0,0,0,.05.131.1.1,0,0,0,.132-.049l.232-.508a.1.1,0,0,0-.05-.131.1.1,0,0,0-.132.049Z" transform="translate(-17.88 -51.741)"/>
        <path id="패스_5603" data-name="패스 5603" class="cls-20" d="M47.023,114.2a.1.1,0,0,0,.05.131.1.1,0,0,0,.132-.049l.232-.514a.1.1,0,0,0-.05-.131.094.094,0,0,0-.127.049Z" transform="translate(-19.445 -51.537)"/>
        <path id="패스_5604" data-name="패스 5604" class="cls-20" d="M48.023,113.756a.1.1,0,0,0,.05.131.1.1,0,0,0,.132-.049l.232-.514a.1.1,0,0,0-.05-.131.1.1,0,0,0-.132.049Z" transform="translate(-21.011 -51.338)"/>
        <path id="패스_5605" data-name="패스 5605" class="cls-20" d="M49.023,113.316a.1.1,0,0,0,.182.082l.232-.514a.1.1,0,0,0-.05-.131.1.1,0,0,0-.132.049Z" transform="translate(-22.576 -51.138)"/>
        <path id="패스_5606" data-name="패스 5606" class="cls-10" d="M48.865,115.87l-.221.06a38.553,38.553,0,0,1-11.36,1.186l-.154,8.78c0,.005,11.5-.552,11.735-10.026" transform="translate(-15.414 -52.556)"/>
        <path id="패스_5607" data-name="패스 5607" class="cls-3" d="M6.283,88.231a.172.172,0,0,0,.226.033,4.388,4.388,0,0,1,.783-.393,6.153,6.153,0,0,1,5.263.672.167.167,0,0,0,.232-.066.162.162,0,0,0-.061-.229,6.491,6.491,0,0,0-5.561-.694,4.584,4.584,0,0,0-.844.426.172.172,0,0,0-.05.235Z" transform="translate(38.328 -39.559)"/>
        <path id="패스_5608" data-name="패스 5608" class="cls-21" d="M2.5,88.745a2.466,2.466,0,0,1,.5-1.136,2.773,2.773,0,0,1-1.059.656,1.3,1.3,0,1,1-.193-2.579,2.555,2.555,0,0,1,1.142.492,2.745,2.745,0,0,1-.662-1.044,1.313,1.313,0,1,1,2.6-.2,2.442,2.442,0,0,1-.5,1.136,2.754,2.754,0,0,1,1.054-.656A1.3,1.3,0,1,1,5.574,88,2.471,2.471,0,0,1,4.432,87.5a2.7,2.7,0,0,1,.662,1.049,1.31,1.31,0,1,1-2.6.191" transform="translate(47.439 -37.91)"/>
        <path id="패스_5609" data-name="패스 5609" class="cls-22" d="M4.946,75.334a3.365,3.365,0,0,1-.756-1.513,3.6,3.6,0,0,1-.243,1.672,1.81,1.81,0,0,1-2.621.568,1.77,1.77,0,0,1-.27-2.644,3.423,3.423,0,0,1,1.528-.749A3.763,3.763,0,0,1,.9,72.433a1.784,1.784,0,0,1-.579-2.6,1.816,1.816,0,0,1,2.67-.273,3.338,3.338,0,0,1,.756,1.513,3.661,3.661,0,0,1,.243-1.666,1.811,1.811,0,0,1,2.621-.568,1.777,1.777,0,0,1,.27,2.644,3.4,3.4,0,0,1-1.528.749,3.787,3.787,0,0,1,1.688.24,1.772,1.772,0,0,1,.574,2.59,1.815,1.815,0,0,1-2.67.268" transform="translate(46.638 -31.072)"/>
        <path id="패스_5610" data-name="패스 5610" class="cls-6" d="M8.192,75.783l-.039-.005-.094-.016a.9.9,0,0,0-.171-.011.187.187,0,0,0-.1.049.056.056,0,0,0,.011.1.118.118,0,0,0,.077.022l.061-.005a.321.321,0,0,0,.077-.027,1.544,1.544,0,0,0,.182-.1" transform="translate(42.112 -34.356)"/>
        <path id="패스_5611" data-name="패스 5611" class="cls-3" d="M13.752,87.54c1.054,2.06.508,1.754.508,1.754a2.018,2.018,0,0,1-.574-1.7Z" transform="translate(32.635 -39.705)"/>
        <path id="패스_5612" data-name="패스 5612" class="cls-3" d="M11.33,86.376c1.241-1.951,1.258-1.333,1.258-1.333-.083.754-.866,1.18-1.181,1.355Z" transform="translate(35.747 -38.53)"/>
        <path id="패스_5613" data-name="패스 5613" class="cls-15" d="M17.738,85.313,15.57,86.865l1.49,3.661L19.6,87.5a6.329,6.329,0,0,0-1.782-2.278" transform="translate(26.168 -38.652)"/>
      </g>
      <g id="그룹_1426" data-name="그룹 1426" transform="translate(129.248 596.727)">
        <g id="그룹_1425" data-name="그룹 1425" transform="translate(0)">
          <path id="패스_5620" data-name="패스 5620" class="cls-2" d="M136.442,31.07V51.714a1.006,1.006,0,0,1-2.012,0V31.07Z" transform="translate(-134.024 -19.072)"/>
          <rect id="사각형_520" data-name="사각형 520" class="cls-23" width="1.583" height="6.661" transform="translate(4.191 33.206)"/>
          <path id="패스_5621" data-name="패스 5621" class="cls-24" d="M120.59,104.535a2.72,2.72,0,1,0,2.72-2.715,2.719,2.719,0,0,0-2.72,2.715" transform="translate(-118.257 -62.501)"/>
          <path id="패스_5622" data-name="패스 5622" class="cls-23" d="M119,102.939H120a1.716,1.716,0,1,0,.5-1.209,1.69,1.69,0,0,0-.5,1.209H117.99a3.722,3.722,0,1,1,1.091,2.63,3.706,3.706,0,0,1-1.091-2.63Z" transform="translate(-116.663 -60.905)"/>
          <rect id="사각형_521" data-name="사각형 521" class="cls-25" width="31.475" height="0.838" transform="translate(18.814 35.488)"/>
          <rect id="사각형_522" data-name="사각형 522" class="cls-25" width="31.475" height="0.838" transform="translate(18.814 33.839)"/>
          <rect id="사각형_523" data-name="사각형 523" class="cls-25" width="31.475" height="0.838" transform="translate(18.814 32.187)"/>
          <rect id="사각형_524" data-name="사각형 524" class="cls-25" width="31.475" height="0.838" transform="translate(18.814 30.538)"/>
          <rect id="사각형_525" data-name="사각형 525" class="cls-25" width="31.475" height="0.838" transform="translate(18.814 28.885)"/>
          <rect id="사각형_526" data-name="사각형 526" class="cls-25" width="31.475" height="0.838" transform="translate(18.814 27.236)"/>
          <rect id="사각형_527" data-name="사각형 527" class="cls-25" width="31.475" height="0.838" transform="translate(18.814 25.587)"/>
          <rect id="사각형_528" data-name="사각형 528" class="cls-25" width="31.475" height="0.838" transform="translate(18.814 23.934)"/>
          <rect id="사각형_529" data-name="사각형 529" class="cls-25" width="31.475" height="0.838" transform="translate(18.814 22.285)"/>
          <rect id="사각형_530" data-name="사각형 530" class="cls-25" width="31.475" height="0.838" transform="translate(18.814 20.633)"/>
          <rect id="사각형_531" data-name="사각형 531" class="cls-25" width="31.475" height="0.838" transform="translate(18.814 18.984)"/>
          <rect id="사각형_532" data-name="사각형 532" class="cls-25" width="31.475" height="0.838" transform="translate(18.814 17.331)"/>
          <rect id="사각형_533" data-name="사각형 533" class="cls-25" width="31.475" height="0.838" transform="translate(18.814 15.682)"/>
          <rect id="사각형_534" data-name="사각형 534" class="cls-25" width="31.475" height="0.838" transform="translate(18.814 14.029)"/>
          <rect id="사각형_535" data-name="사각형 535" class="cls-25" width="31.475" height="0.838" transform="translate(18.814 12.38)"/>
          <rect id="사각형_536" data-name="사각형 536" class="cls-25" width="31.475" height="0.838" transform="translate(18.814 10.731)"/>
          <rect id="사각형_537" data-name="사각형 537" class="cls-25" width="31.475" height="0.838" transform="translate(18.814 9.079)"/>
          <rect id="사각형_538" data-name="사각형 538" class="cls-25" width="31.475" height="0.838" transform="translate(18.814 7.43)"/>
          <rect id="사각형_539" data-name="사각형 539" class="cls-25" width="31.475" height="0.838" transform="translate(18.814 5.777)"/>
          <rect id="사각형_540" data-name="사각형 540" class="cls-25" width="31.475" height="0.838" transform="translate(18.814 4.128)"/>
          <rect id="사각형_541" data-name="사각형 541" class="cls-25" width="31.475" height="0.838" transform="translate(18.814 2.475)"/>
          <rect id="사각형_542" data-name="사각형 542" class="cls-25" width="31.475" height="0.838" transform="translate(18.814 0.826)"/>
          <rect id="사각형_543" data-name="사각형 543" class="cls-6" width="31.475" height="0.838" transform="translate(18.814 34.666)"/>
          <rect id="사각형_544" data-name="사각형 544" class="cls-6" width="31.475" height="0.838" transform="translate(18.814 33.013)"/>
          <rect id="사각형_545" data-name="사각형 545" class="cls-6" width="31.475" height="0.838" transform="translate(18.814 31.364)"/>
          <rect id="사각형_546" data-name="사각형 546" class="cls-6" width="31.475" height="0.838" transform="translate(18.814 29.711)"/>
          <rect id="사각형_547" data-name="사각형 547" class="cls-6" width="31.475" height="0.838" transform="translate(18.814 28.062)"/>
          <rect id="사각형_548" data-name="사각형 548" class="cls-6" width="31.475" height="0.838" transform="translate(18.814 26.41)"/>
          <rect id="사각형_549" data-name="사각형 549" class="cls-6" width="31.475" height="0.838" transform="translate(18.814 24.761)"/>
          <rect id="사각형_550" data-name="사각형 550" class="cls-6" width="31.475" height="0.838" transform="translate(18.814 23.108)"/>
          <rect id="사각형_551" data-name="사각형 551" class="cls-6" width="31.475" height="0.838" transform="translate(18.814 21.459)"/>
          <rect id="사각형_552" data-name="사각형 552" class="cls-6" width="31.475" height="0.838" transform="translate(18.814 19.806)"/>
          <rect id="사각형_553" data-name="사각형 553" class="cls-6" width="31.475" height="0.838" transform="translate(18.814 18.157)"/>
          <rect id="사각형_554" data-name="사각형 554" class="cls-6" width="31.475" height="0.838" transform="translate(18.814 16.508)"/>
          <rect id="사각형_555" data-name="사각형 555" class="cls-6" width="31.475" height="0.838" transform="translate(18.814 14.856)"/>
          <rect id="사각형_556" data-name="사각형 556" class="cls-6" width="31.475" height="0.838" transform="translate(18.814 13.207)"/>
          <rect id="사각형_557" data-name="사각형 557" class="cls-6" width="31.475" height="0.838" transform="translate(18.814 11.554)"/>
          <rect id="사각형_558" data-name="사각형 558" class="cls-6" width="31.475" height="0.838" transform="translate(18.814 9.905)"/>
          <rect id="사각형_559" data-name="사각형 559" class="cls-6" width="31.475" height="0.838" transform="translate(18.814 8.252)"/>
          <rect id="사각형_560" data-name="사각형 560" class="cls-6" width="31.475" height="0.838" transform="translate(18.814 6.603)"/>
          <rect id="사각형_561" data-name="사각형 561" class="cls-6" width="31.475" height="0.838" transform="translate(18.814 4.951)"/>
          <rect id="사각형_562" data-name="사각형 562" class="cls-6" width="31.475" height="0.838" transform="translate(18.814 3.302)"/>
          <rect id="사각형_563" data-name="사각형 563" class="cls-6" width="31.475" height="0.838" transform="translate(18.814 1.653)"/>
          <rect id="사각형_564" data-name="사각형 564" class="cls-6" width="31.475" height="0.838" transform="translate(18.814)"/>
          <rect id="사각형_565" data-name="사각형 565" class="cls-2" width="9.086" height="2.298" transform="translate(2.105 27.522)"/>
          <path id="패스_5623" data-name="패스 5623" class="cls-2" d="M108.756,75.915l2.016,8.38H106.55v-8.8Z" transform="translate(-97.565 -46.339)"/>
          <path id="패스_5624" data-name="패스 5624" class="cls-2" d="M49.564,101.1H5.706L1.55,97.98H49.564Z" transform="translate(4.274 -60.144)"/>
          <path id="패스_5625" data-name="패스 5625" class="cls-26" d="M2.964,98.665H18.71V95.8H2.964Zm19.542,0H38.255V95.8H22.506Zm18.342,2.008H0v-6.6H40.848Z" transform="translate(13.59 -57.744)"/>
          <path id="패스_5626" data-name="패스 5626" class="cls-2" d="M122.41,85.009l4.028,2.834V79.95H122.41Z" transform="translate(-119.368 -49.076)"/>
          <path id="패스_5629" data-name="패스 5629" class="cls-2" d="M0,1.93l5.077,0L5.079,0,0,0Z" transform="translate(8.385 39.75) rotate(-144.064)"/>
          <path id="패스_5627" data-name="패스 5627" class="cls-23" d="M110.16,98.4a.789.789,0,1,0,.789-.788.789.789,0,0,0-.789.788" transform="translate(-99.929 -59.917)"/>
          <rect id="사각형_567" data-name="사각형 567" class="cls-2" width="2.515" height="2.777" transform="translate(1.412 30.874)"/>
          <path id="패스_5628" data-name="패스 5628" class="cls-23" d="M133.24,27.474a1.44,1.44,0,0,0,2.879,0V20.917a1.44,1.44,0,0,0-2.879,0Z" transform="translate(-133.24 -11.958)"/>
        </g>
      </g>
      <g id="그룹_1436" data-name="그룹 1436" transform="translate(196.017 568.539)">
        <g id="그룹_1429-2" data-name="그룹 1429" transform="translate(12.149 17.668)">
          <path id="패스_5630-2" data-name="패스 5630" class="cls-4" d="M25.124,55.609a28.511,28.511,0,0,1-6.5,9.188c-1.8,1.617-5.216,3.315-4.932,6.1.6,6,14.422,4.932,18.128,4.932,7.242,0,14.493.053,21.744.071,7.367.018,16.688,2.444,23.5-1.182,6.967-3.706-2.719-10.13-4.168-14.493-3.27-9.873-10.788-22.793-23.388-23.477-7.8-.418-14.12,1.164-18.652,7.775C28.377,48.135,26.9,51.956,25.124,55.609Z" transform="translate(-13.671 -21.75)"/>
          <path id="패스_5631-2" data-name="패스 5631" class="cls-2" d="M76.159,47.462a31.413,31.413,0,0,1-7.6,12.21C66.224,61.9,53.6,68.9,60.617,72.566c4.878,2.541,12.307,2.053,17.657,2.222,2.23.071,4.443-.027,6.665-.018,16.528.027,33.056.142,49.585,0,7.651-.062,26.667-1.146,12.023-12.565-8.575-6.682-5.056-20.056-10.335-28.667-5.838-9.526-16.706-14.067-27.7-13.631C89.923,20.635,82.245,30.65,76.159,47.462Z" transform="translate(-18.666 -19.878)"/>
        </g>
        <g id="그룹_1432-2" data-name="그룹 1432" transform="translate(41.934 0)">
          <g id="그룹_1430-2" data-name="그룹 1430" transform="translate(5.261 4.758)">
            <path id="패스_5632-2" data-name="패스 5632" class="cls-6" d="M75.682,24.629a1.843,1.843,0,1,0,.906,2.444A1.85,1.85,0,0,0,75.682,24.629Z" transform="translate(-55.333 -7.479)"/>
            <path id="패스_5633-2" data-name="패스 5633" class="cls-6" d="M83.417,34.32c-3.634-4.745-5.021-5.243-5.394-4.967s-.24,1.759,3.395,6.5c1.679,2.195,3.794,4.665,5.616,6.673l1.351-1.057C86.936,39.189,85.1,36.515,83.417,34.32Z" transform="translate(-55.87 -8.017)"/>
            <path id="패스_5634-2" data-name="패스 5634" class="cls-6" d="M74.5,30.81c-.853,0-2.124,13.1-2.755,26.312h5.341C76.522,43.908,75.358,30.81,74.5,30.81Z" transform="translate(-55.186 -8.186)"/>
            <path id="패스_5635-2" data-name="패스 5635" class="cls-6" d="M71.4,69.189h5.936c-.044-2.124-.116-4.328-.2-6.549H71.622C71.533,64.862,71.453,67.065,71.4,69.189Z" transform="translate(-55.147 -11.731)"/>
            <path id="패스_5636-2" data-name="패스 5636" class="cls-6" d="M78.612,13.17c-2.373,5.483-2.133,6.94-1.706,7.127s1.653-.649,4.025-6.123c1.1-2.541,2.23-5.589,3.092-8.157L82.442,5.35C81.153,7.723,79.7,10.637,78.612,13.17Z" transform="translate(-55.73 -5.35)"/>
            <path id="패스_5637-2" data-name="패스 5637" class="cls-6" d="M62.076,29.613c5.865-1.146,6.922-2.177,6.842-2.63s-1.466-1-7.331.151c-2.71.533-5.865,1.324-8.477,2.07l.347,1.679C56.149,30.6,59.357,30.146,62.076,29.613Z" transform="translate(-53.11 -7.7)"/>
          </g>
          <g id="그룹_1431-2" data-name="그룹 1431">
            <path id="패스_5638-2" data-name="패스 5638" class="cls-14" d="M81.288,80.866V78.351a4.3,4.3,0,0,0-4.31-4.3H70.651a4.3,4.3,0,0,0-4.3,4.3v2.515Z" transform="translate(-49.324 -8.244)"/>
            <path id="패스_5639-2" data-name="패스 5639" class="cls-14" d="M92.223,47.923c.2-.151-.986-2.266-2.692-4.923L88.18,44.057C90.3,46.377,92.028,48.074,92.223,47.923Z" transform="translate(-51.755 -4.786)"/>
            <path id="패스_5640-2" data-name="패스 5640" class="cls-14" d="M86.145,0c-.231-.107-1.5,1.964-2.995,4.736l1.582.666C85.745,2.434,86.376.1,86.145,0Z" transform="translate(-51.195 0.004)"/>
            <path id="패스_5641-2" data-name="패스 5641" class="cls-14" d="M71.32,75.75h6.069c0-1.813-.027-3.741-.071-5.74H71.391C71.347,72.009,71.32,73.938,71.32,75.75Z" transform="translate(-49.877 -7.794)"/>
            <path id="패스_5642-2" data-name="패스 5642" class="cls-14" d="M71.739,60.42c-.036.658-.062,1.315-.089,1.973h5.509l-.08-1.973Z" transform="translate(-49.914 -6.726)"/>
            <path id="패스_5643-2" data-name="패스 5643" class="cls-14" d="M47.19,31.462c.044.249,2.47.124,5.6-.222l-.347-1.679C49.429,30.422,47.145,31.222,47.19,31.462Z" transform="translate(-47.189 -3.289)"/>
            <path id="패스_5644-2" data-name="패스 5644" class="cls-14" d="M75.422,25.559a.948.948,0,1,0,.471,1.262A.954.954,0,0,0,75.422,25.559Z" transform="translate(-50.185 -2.834)"/>
          </g>
        </g>
        <g id="그룹_1435-2" data-name="그룹 1435" transform="translate(0 20.297)">
          <path id="패스_5645-2" data-name="패스 5645" class="cls-6" d="M20.108,40.225a1.3,1.3,0,1,0,.631,1.724A1.287,1.287,0,0,0,20.108,40.225Z" transform="translate(-2.033 -24.761)"/>
          <path id="패스_5646-2" data-name="패스 5646" class="cls-6" d="M25.561,47.056c-2.559-3.341-3.546-3.7-3.8-3.5s-.169,1.244,2.39,4.585c1.182,1.546,2.675,3.3,3.963,4.71l.96-.746C28.04,50.495,26.743,48.6,25.561,47.056Z" transform="translate(-2.412 -25.14)"/>
          <path id="패스_5647-2" data-name="패스 5647" class="cls-6" d="M19.276,44.58c-.6,0-1.5,9.242-1.946,18.563H21.1C20.689,53.822,19.871,44.58,19.276,44.58Z" transform="translate(-1.93 -25.259)"/>
          <path id="패스_5648-2" data-name="패스 5648" class="cls-6" d="M17.08,71.661h4.185c-.027-1.5-.08-3.057-.142-4.621H17.24C17.169,68.6,17.116,70.159,17.08,71.661Z" transform="translate(-1.902 -27.761)"/>
          <path id="패스_5649-2" data-name="패스 5649" class="cls-6" d="M22.165,32.138c-1.671,3.865-1.5,4.9-1.209,5.03s1.164-.453,2.844-4.319c.773-1.786,1.573-3.945,2.177-5.758l-1.12-.471C23.96,28.291,22.938,30.343,22.165,32.138Z" transform="translate(-2.313 -23.259)"/>
          <path id="패스_5650-2" data-name="패스 5650" class="cls-6" d="M10.5,43.74c4.141-.809,4.887-1.528,4.825-1.857s-1.031-.7-5.163.107c-1.919.373-4.141.933-5.98,1.457l.24,1.191C6.322,44.433,8.588,44.113,10.5,43.74Z" transform="translate(-0.465 -24.917)"/>
          <g id="그룹_1434-2" data-name="그룹 1434">
            <g id="그룹_1433-2" data-name="그룹 1433">
              <path id="패스_5651-2" data-name="패스 5651" class="cls-22" d="M24.058,79.9V78.119a3.038,3.038,0,0,0-3.039-3.039h-4.47a3.043,3.043,0,0,0-3.039,3.039V79.9Z" transform="translate(-1.504 -28.656)"/>
              <path id="패스_5652-2" data-name="패스 5652" class="cls-22" d="M31.772,56.654c.142-.107-.693-1.6-1.893-3.474l-.96.746C30.413,55.57,31.639,56.761,31.772,56.654Z" transform="translate(-3.221 -26.217)"/>
              <path id="패스_5653-2" data-name="패스 5653" class="cls-22" d="M17.02,76.292H21.3c0-1.28-.018-2.639-.044-4.052H17.073C17.038,73.653,17.02,75.012,17.02,76.292Z" transform="translate(-1.895 -28.34)"/>
              <path id="패스_5654-2" data-name="패스 5654" class="cls-22" d="M17.322,65.48c-.027.462-.044.924-.062,1.4h3.883c-.018-.462-.036-.924-.053-1.4Z" transform="translate(-1.922 -27.587)"/>
              <path id="패스_5655-2" data-name="패스 5655" class="cls-22" d="M27.485,22.84c-.16-.071-1.057,1.386-2.115,3.35l1.12.471C27.2,24.564,27.645,22.911,27.485,22.84Z" transform="translate(-2.825 -22.837)"/>
              <path id="패스_5656-2" data-name="패스 5656" class="cls-22" d="M0,45.042c.036.169,1.742.089,3.954-.16L3.714,43.7C1.573,44.3-.036,44.873,0,45.042Z" transform="translate(0.001 -25.161)"/>
            </g>
            <path id="패스_5657-2" data-name="패스 5657" class="cls-22" d="M19.921,40.872a.67.67,0,0,0-.889.329.67.67,0,1,0,1.217.56A.673.673,0,0,0,19.921,40.872Z" transform="translate(-2.112 -24.839)"/>
          </g>
        </g>
      </g>
    </g>
  </g>
</svg>
