<?xml version="1.0" encoding="utf-8"?>
<!-- Generator: Adobe Illustrator 23.0.0, SVG Export Plug-In . SVG Version: 6.00 Build 0)  -->
<svg version="1.1" id="레이어_1" xmlns="http://www.w3.org/2000/svg" xmlns:xlink="http://www.w3.org/1999/xlink" x="0px"
	 y="0px" viewBox="0 0 266.46 73.7" style="enable-background:new 0 0 266.46 73.7;" xml:space="preserve">
<style type="text/css">
	.st0{fill:#CCCCCC;}
	.st1{fill:url(#SVGID_1_);}
	.st2{fill:url(#SVGID_2_);}
	.st3{fill:url(#SVGID_3_);}
	.st4{fill:none;}
	.st5{fill:#666666;}
	.st6{fill:url(#SVGID_4_);}
</style>
<path class="st0" d="M126.99,29.67c0,0.38,0,30.47,0,30.84c0.32,0,3.7,0,4.02,0c0-0.37,0-16.8,0-16.8c0-0.11,0.08-0.19,0.19-0.19
	c0,0,4.32,0,4.66,0c0-0.32,0-3.12,0-3.44c-0.35,0-4.66,0-4.66,0c-0.1,0-0.19-0.08-0.19-0.18c0,0,0-9.85,0-10.23
	C130.69,29.67,127.32,29.67,126.99,29.67L126.99,29.67 M112.51,31.17c0,0.34,0,3.35,0,3.35c0,1.5-0.14,3.01-0.4,4.44
	c-0.26,1.44-0.65,2.71-1.19,3.78c-0.59,1.19-1.51,2.49-2.71,3.83c-1.17,1.29-2.51,2.48-3.97,3.55c0.24,0.25,2.35,2.51,2.53,2.71
	c0.7-0.46,1.44-1.04,2.21-1.7c0.82-0.71,1.61-1.48,2.36-2.27c0.68-0.7,1.3-1.4,1.86-2.11c0.55-0.71,0.98-1.36,1.31-1.95l0.16-0.1
	l0.17,0.1c0.35,0.66,0.83,1.37,1.41,2.11c0.58,0.73,1.25,1.47,1.95,2.15c0.68,0.67,1.4,1.29,2.14,1.88
	c0.68,0.57,1.33,1.02,1.92,1.38c0.17-0.22,2.1-2.52,2.32-2.77c-1.35-0.92-2.57-1.9-3.59-2.96c-1.06-1.1-1.89-2.27-2.5-3.46
	c-0.56-1.11-1-2.45-1.31-3.99c-0.3-1.54-0.45-3.17-0.45-4.8c0,0,0-2.81,0-3.15C116.43,31.17,112.83,31.17,112.51,31.17L112.51,31.17
	z"/>
<path class="st0" d="M147.61,28.52c0,0.33,0,3.74,0,3.74c0,0.11-0.08,0.17-0.18,0.17c0,0-6.63,0-6.98,0c0,0.32,0,3.09,0,3.41
	c0.33,0,3.47,0,3.47,0l0.18,0.11l0.02,0.07l-0.06,0.13c-0.61,0.65-1.12,1.43-1.49,2.33c-0.37,0.88-0.55,1.82-0.55,2.81
	c0,1.82,0.53,3.45,1.57,4.82c1.06,1.38,2.42,2.29,4.08,2.72l0.13,0.17v2.53c0,0.11-0.07,0.18-0.17,0.18l-1.62,0.04
	c0,0-6.52,0-6.86,0c0,0.32,0,3.05,0,3.37c0.35-0.01,6.68-0.05,6.68-0.05c2.49-0.03,5.3-0.15,8.34-0.35c2.96-0.22,5.2-0.42,6.66-0.63
	c0-0.28,0-2.95,0-3.28c-0.36,0.03-3.7,0.33-3.7,0.33l-4.96,0.36l-0.14-0.04l-0.05-0.14v-2.48l0.13-0.17
	c1.53-0.54,2.79-1.47,3.72-2.81c0.94-1.35,1.41-2.89,1.41-4.57c0-0.99-0.18-1.93-0.55-2.81c-0.38-0.9-0.89-1.66-1.53-2.32
	l-0.05-0.13l0.01-0.07l0.18-0.11c0,0,2.95,0,3.29,0c0-0.32,0-3.09,0-3.41c-0.35,0-6.57,0-6.57,0c-0.11,0-0.19-0.07-0.19-0.17
	c0,0,0-3.41,0-3.74C151.51,28.52,147.94,28.52,147.61,28.52L147.61,28.52 M145.64,41.17c0-1.19,0.42-2.22,1.24-3.09
	c0.82-0.86,1.73-1.3,2.73-1.3c1,0,1.93,0.45,2.74,1.3c0.81,0.87,1.21,1.91,1.21,3.09c0,1.17-0.4,2.2-1.21,3.06
	c-0.81,0.87-1.74,1.32-2.74,1.32c-1,0-1.91-0.45-2.73-1.32C146.06,43.37,145.64,42.34,145.64,41.17L145.64,41.17 M162.46,29.67
	c0,0.39,0,30.37,0,30.72c0.32,0,3.69,0,4.01,0c0-0.35,0-30.33,0-30.72C166.14,29.67,162.78,29.67,162.46,29.67L162.46,29.67z"/>
<path class="st0" d="M195.19,29.61c0,0.33,0,7.92,0,7.92c0,0.1-0.08,0.19-0.18,0.19c0,0-5.96,0-6.31,0c0,0.31,0,3.16,0,3.43
	c0.35,0,6.31,0,6.31,0c0.1,0,0.18,0.08,0.18,0.19c0,0,0,8.85,0,9.2c0.32,0,3.73,0,4.05,0c0-0.35,0-20.58,0-20.92
	C198.93,29.61,195.51,29.61,195.19,29.61L195.19,29.61 M173.19,31.2c0,0.32,0,3.13,0,3.44c0.35,0,5.92,0,5.92,0
	c0.1,0,0.18,0.08,0.18,0.19v1.2c0,1.1-0.21,2.23-0.62,3.37c-0.41,1.11-0.92,2.12-1.51,2.96c-0.7,0.99-1.58,1.95-2.59,2.83
	c-0.96,0.82-1.94,1.48-2.91,2c0.25,0.3,2.41,2.58,2.59,2.77c0.7-0.41,1.45-0.89,2.22-1.46c0.83-0.61,1.64-1.33,2.43-2.11
	c0.73-0.78,1.3-1.42,1.7-1.94c0.39-0.49,0.69-0.95,0.86-1.32l0.16-0.1l0.17,0.09c0.25,0.41,0.62,0.91,1.14,1.47
	c0.51,0.58,1.11,1.15,1.75,1.71c0.6,0.52,1.35,1.05,2.23,1.58c0.81,0.49,1.55,0.88,2.21,1.2c0.16-0.21,1.83-2.55,2.03-2.83
	c-0.96-0.52-1.91-1.13-2.85-1.82c-1.01-0.75-1.83-1.53-2.48-2.3c-0.62-0.74-1.15-1.66-1.58-2.75c-0.42-1.09-0.63-2.27-0.63-3.43
	v-1.12c0-0.11,0.08-0.19,0.18-0.19c0,0,5.57,0,5.92,0c0-0.31,0-3.13,0-3.44C189.36,31.2,173.54,31.2,173.19,31.2L173.19,31.2
	 M180.05,52.8c0,0.33,0,3.09,0,3.41c0.36,0,14.73,0,14.73,0c0.09,0,0.18,0.06,0.18,0.17c0,0,0,7.19,0,7.54c0.32,0,3.77,0,4.1,0
	c0-0.35,0-10.78,0-11.12C198.7,52.8,180.41,52.8,180.05,52.8L180.05,52.8z"/>
<path class="st0" d="M227.23,29.64c0,0.36,0,30.49,0,30.86c0.33,0,3.78,0,4.1,0c0-0.37,0-30.5,0-30.86
	C231.01,29.64,227.56,29.64,227.23,29.64L227.23,29.64 M206.99,31.69c0,0.33,0,3.2,0,3.52c0.35,0,10.11,0,10.11,0l0.14,0.06
	l0.04,0.12v0.02c-0.16,1.57-0.62,3.12-1.37,4.58c-0.76,1.46-1.76,2.85-2.95,4.11c-1.17,1.24-2.5,2.39-3.96,3.41
	c-1.38,0.97-2.8,1.78-4.22,2.43c0.29,0.31,2.46,2.51,2.63,2.69c2.14-1,4.12-2.19,5.85-3.57c1.77-1.4,3.31-3.03,4.56-4.83
	c1.21-1.72,2.17-3.66,2.88-5.78c0.69-2.08,1.09-4.36,1.2-6.77C221.52,31.69,207.34,31.69,206.99,31.69L206.99,31.69z"/>
<path class="st0" d="M259.26,29.61c0,0.33,0,7.55,0,7.55c0,0.09-0.09,0.18-0.18,0.18c0,0-3.9,0-4.24,0c0,0.31,0,3.19,0,3.56
	c0.34,0,4.24,0,4.24,0c0.1,0,0.18,0.04,0.18,0.16c0,0,0,7.56,0,7.92c0.32,0,3.74,0,4.06,0c0-0.37,0-19.04,0-19.38
	C262.99,29.61,259.58,29.61,259.26,29.61L259.26,29.61 M238.82,32.93c-1.65,1.71-2.49,3.81-2.49,6.25c0,2.42,0.83,4.51,2.49,6.22
	c1.64,1.71,3.67,2.58,6.03,2.58c2.35,0,4.37-0.87,6.02-2.58c1.65-1.71,2.48-3.8,2.48-6.22c0-2.44-0.83-4.54-2.48-6.25
	c-1.65-1.71-3.67-2.57-6.02-2.57C242.5,30.36,240.47,31.22,238.82,32.93L238.82,32.93 M241.73,42.81L241.73,42.81
	c-0.86-0.99-1.3-2.22-1.3-3.64c0-1.44,0.44-2.67,1.3-3.67c0.88-1,1.92-1.51,3.12-1.51c1.19,0,2.23,0.5,3.11,1.51
	c0.87,1,1.31,2.23,1.31,3.67c0,1.42-0.44,2.65-1.31,3.64c-0.87,1.01-1.92,1.52-3.11,1.52C243.65,44.33,242.61,43.82,241.73,42.81
	L241.73,42.81 M258.88,50.51c0,0.33,0,3,0,3c0,0.11-0.08,0.18-0.18,0.18h-9.88c-0.11,0-0.19-0.07-0.19-0.18c0,0,0-2.67,0-3
	c-0.32,0-3.77,0-4.1,0c0,0.36,0,12.33,0,12.7c0.36,0,18.08,0,18.44,0c0-0.36,0-12.33,0-12.7C262.65,50.51,259.2,50.51,258.88,50.51
	L258.88,50.51 M248.63,59.61v-2.4c0-0.1,0.08-0.19,0.19-0.19h9.88c0.1,0,0.18,0.08,0.18,0.19v2.4c0,0.11-0.08,0.2-0.18,0.2h-9.88
	C248.72,59.8,248.63,59.72,248.63,59.61L248.63,59.61z"/>
<polygon class="st0" points="264.12,19.31 206.44,19.31 206.44,19.86 264.12,19.86 264.12,19.31 "/>
<line class="st0" x1="176.1" y1="25.27" x2="175.12" y2="25.27"/>
<linearGradient id="SVGID_1_" gradientUnits="userSpaceOnUse" x1="-1235.9437" y1="4237.6216" x2="-1036.0092" y2="4237.6216" gradientTransform="matrix(-0.0172 0.2462 -0.2462 -0.0172 1069.681 388.104)">
	<stop  offset="0.0674" style="stop-color:#9AC717"/>
	<stop  offset="0.9607" style="stop-color:#00A93A"/>
</linearGradient>
<path class="st1" d="M64.01,21.92c3.31-8.82-1.8-18.26-10.69-19.64c-13.83-2.16-19.9,12.91-14.9,21.8
	c5.14,9.13,17.49,11.55,17.58,25.74c0.06,9.29-7.98,13.39-13.29,13.17c-3.09-0.14-5.27-1.53-5.41-4.25
	c-0.51-5.95,6.71-7.11,6.71-7.11c-5.86-0.14-16.25,1.24-17.69,10.23c-1.69,10.61,11.26,14.44,21.57,7.06
	c10.48-7.47,12.25-18.33,8.11-28.9c-1.78-4.54-6.3-10.08-9.09-13.54c-2.21-2.76-4-6.85-2.17-10.69c3.09-6.41,13.41-7.46,16.74,0.21
	c0.99,2.29,0.9,4.51,0.88,5.25c-0.01,0.57-0.02,1.03,0.06,1.3c0.27,0.84,1.12,0.49,1.28,0.12C63.86,22.33,63.87,22.29,64.01,21.92z"
	/>
<linearGradient id="SVGID_2_" gradientUnits="userSpaceOnUse" x1="-1241.5621" y1="4158.1733" x2="-1039.1453" y2="4158.1733" gradientTransform="matrix(-0.0172 0.2462 -0.2462 -0.0172 1081.6488 388.0718)">
	<stop  offset="0.0674" style="stop-color:#9AC717"/>
	<stop  offset="0.9607" style="stop-color:#00A93A"/>
</linearGradient>
<path class="st2" d="M80.26,2.16c-3.62,0.74-8.03,4.63-7.98,12.13c0.01,0.91,0.25,1.15,0.46,0.95c0.09-0.06,0.24-0.33,0.24-0.33
	s1.16-2.54,4.42-4.4c3.95-2.25,5.81-0.65,8.16-2.96C87.92,5.27,85.24,1.15,80.26,2.16z"/>
<linearGradient id="SVGID_3_" gradientUnits="userSpaceOnUse" x1="-2788.0977" y1="-2130.5017" x2="-2586.8188" y2="-2130.5017" gradientTransform="matrix(0.2154 -0.0377 0.0377 0.2154 725.4766 380.5637)">
	<stop  offset="0.2472" style="stop-color:#F5A500"/>
	<stop  offset="0.3363" style="stop-color:#F49C00"/>
	<stop  offset="0.4956" style="stop-color:#F08300"/>
	<stop  offset="0.7051" style="stop-color:#EA5703"/>
	<stop  offset="0.9045" style="stop-color:#E60012"/>
</linearGradient>
<path class="st3" d="M86.49,18.92c0,0,1.24-0.99,0.23-2.24c-1.73-1.89-5.79,0.25-7.32,2.88c0,0-0.15,0.24-0.1,0.43
	c0.03,0.09,0.14,0.15,0.36,0.19c1.1,0.2,1.7,0.6,3.01,1.37c1.3,0.76,3.54,2.58,5.34,1.09C89.72,21.21,88.47,18.94,86.49,18.92z"/>
<polygon class="st4" points="36.04,38.07 36.06,38.08 36.08,38.07 "/>
<path class="st0" d="M15.94,30.69c-0.17-0.06-0.48,0.16-0.7,0.18c-0.33,0.02-0.45-0.13-0.37-0.39l-0.08,0.2
	c-0.19,0.55-0.38,1.13-0.28,1.68c0.05,0.22,0.14,0.55,0.51,0.49c0.3-0.05,0.5-0.45,0.63-0.63C15.82,31.95,16.46,30.86,15.94,30.69z"
	/>
<path class="st0" d="M23.89,38.1c-0.06,0.18-0.34,0.41-0.49,0.5c-0.22,0.11-0.46,0.21-0.54,0.46c-0.08,0.22,0,0.38,0.23,0.43
	c0.52,0.13,0.85-0.36,0.93-0.81l0.01-0.12c0.01-0.08,0.01-0.17-0.02-0.27C23.99,38.23,23.95,38.16,23.89,38.1z"/>
<path class="st0" d="M31.98,38.08c-0.13-0.06-0.27-0.09-0.42-0.11c-0.12,0.14-0.24,0.27-0.37,0.42c-0.34,0.38-0.71,0.91-1.01,1.37
	c0.21-0.03,0.42-0.05,0.62-0.1c0.45-0.09,0.99-0.33,1.27-0.68c0.11-0.13,0.22-0.32,0.21-0.5C32.24,38.23,32.17,38.18,31.98,38.08z"
	/>
<path class="st4" d="M36.08,38.08h-0.01c-0.15,0.26-0.47,0.18-0.69,0.31c-0.16,0.09-0.6,0.41-0.53,0.63
	c0.1,0.33,0.56-0.02,0.69-0.11c0.14-0.1,0.26-0.22,0.34-0.35C35.97,38.46,36.12,38.21,36.08,38.08z"/>
<polygon class="st5" points="37.91,37.43 37.98,37.37 37.98,37.33 "/>
<path class="st0" d="M14.87,30.48l0.05-0.16C14.89,30.38,14.87,30.43,14.87,30.48z"/>
<path class="st0" d="M18.52,30.39c-0.09-0.28-0.12-0.44-0.41-0.57c-0.22-0.13-0.55-0.21-0.85-0.22c-0.5-0.02-1.18,0.24-1.59,0.51
	c0.19-0.47,0.37-0.96,0.53-1.44c0.13-0.42,0.38-0.72,0.54-1.11c0.31-0.67,0.63-1.3,0.98-1.97c0.29-0.55,0.62-1.04,0.85-1.59
	c0.22-0.5,0.61-0.84,0.88-1.33c0.1-0.16,0.37-0.35,0.44-0.51c0.08-0.13,0.57-0.67,0.57-0.82c-0.25-0.08-0.9,0.65-1.05,0.79
	l0.03-0.08c-0.09,0.1-0.36,0.26-0.45,0.37c-0.24,0.28-0.44,0.61-0.69,0.91c-0.28,0.36-0.43,0.61-0.73,0.95
	c-0.29,0.31-0.69,0.87-0.88,1.24c-0.27,0.55-0.5,0.95-0.83,1.46c-0.28,0.41-0.44,0.81-0.65,1.24c-0.24,0.5-0.49,0.97-0.61,1.48
	c-0.12,0.52-0.46,1.02-0.62,1.51c-0.14,0.38-0.13,0.74-0.18,1.12c-0.07,0.59-0.07,1.1,0.11,1.65c0.19,0.57,0.83,0.97,1.5,0.85
	c0.63-0.12,1.27-0.73,1.73-1.13C18.03,32.93,18.89,31.43,18.52,30.39 M16.15,32.97c-0.14,0.2-0.35,0.58-0.63,0.64
	c-0.37,0.05-0.48-0.28-0.52-0.51c-0.11-0.53,0.1-1.12,0.29-1.67l0.07-0.21c0.01-0.05,0.04-0.09,0.05-0.14l-0.05,0.14
	c-0.07,0.26,0.05,0.41,0.38,0.39c0.21-0.01,0.53-0.24,0.71-0.18C16.95,31.61,16.31,32.71,16.15,32.97z"/>
<path class="st0" d="M38.6,38.93c0.22-0.18,0.71-0.44,0.82-0.04c0.04,0.13-0.07,0.39-0.11,0.51c-0.06,0.11-0.23,0.31-0.22,0.42
	c0.02,0.16,0.23,0.21,0.35,0.18c0.19-0.03,0.32-0.18,0.48-0.31c0.31-0.3,0.44-0.71,0.59-1.11c0.1-0.29,0.13-0.71-0.11-0.92
	c-0.22-0.17-0.63-0.23-0.88-0.2c-0.26,0.02-0.61,0.2-0.76,0.4c-0.21-0.07-0.14-0.11-0.07-0.26c0.03-0.13,0-0.21-0.15-0.28
	c-0.14-0.07-0.41-0.06-0.55,0.05c-0.04,0.15-0.05,0.29-0.07,0.45c-0.06,0.31-0.17,0.62-0.25,0.93c-0.11,0.35-0.32,0.7-0.49,1.01
	C37.8,40.43,38.22,39.24,38.6,38.93z"/>
<path class="st0" d="M12.13,28.73c-0.43-0.31-1.13-0.36-1.64-0.39l-0.17,0c0.12-0.15,0.25-0.31,0.38-0.46
	c0.3-0.37,0.49-0.93,0.63-1.37c0.1-0.29,0.24-0.54,0.26-0.84c0.05-0.63-0.07-1.28-0.49-1.79c-0.31-0.38-0.79-0.7-1.32-0.77
	c-0.12-0.01-0.34,0.02-0.47,0.01c-0.15-0.01-0.3-0.01-0.46,0.01C8.01,23.2,7.1,23.74,6.73,24.4c-0.23,0.41-0.2,1.08,0.21,1.38
	c0.24,0.18,0.66,0.43,0.95,0.41c0.26,0,0.53-0.22,0.44-0.48c-0.04-0.12-0.18-0.26-0.23-0.37c-0.07-0.13-0.15-0.26-0.17-0.4
	c-0.02-0.3,0.6-0.58,0.9-0.66c0.41-0.11,1.09,0.13,1.34,0.46c0.1,0.14,0.15,0.38,0.16,0.54c0.06,0.72-0.25,1.49-0.75,2.05
	c-0.34,0.34-0.62,0.71-0.95,1.02c-0.09,0.09-0.18,0.16-0.27,0.23c-0.34,0.13-0.66,0.23-1,0.39c-0.19,0.11-0.38,0.2-0.55,0.32
	c-0.27,0.2-0.57,0.23-0.65,0.57c-0.05,0.23,0.07,0.41,0.31,0.48c0.18,0.08,0.34,0.03,0.5-0.01c0.1-0.02,0.18-0.01,0.28-0.04
	c0.22-0.09,0.42-0.26,0.63-0.38c0.27-0.1,0.53-0.21,0.8-0.3c0.6-0.22,1.42-0.42,2.05-0.3c0.81,0.15,0.71,1.37,0.56,1.92
	c-0.05,0.17-0.06,0.41-0.18,0.59c-0.09,0.18-0.24,0.3-0.34,0.48c-0.12,0.21-0.19,0.43-0.3,0.63c-0.28,0.45-0.61,0.87-0.9,1.3
	c-0.23,0.34-0.54,0.61-0.83,0.91c-0.23,0.23-0.43,0.54-0.66,0.77c-0.39,0.39-0.82,0.74-1.22,1.12c-0.3,0.29-0.56,0.62-0.89,0.91
	c-0.52,0.45-0.97,0.95-1.53,1.35c-0.2,0.15-0.45,0.23-0.64,0.41c-0.4,0.37-0.84,0.72-1.3,0.99c-0.49,0.37-0.96,0.74-0.97,1.34
	c-0.01,0.56,0.72,0.66,1.23,0.81c0.5,0.16,0.97-0.12,1.39-0.4c0.38-0.25,0.71-0.55,1.08-0.8c0.11-0.07,0.25-0.12,0.37-0.22
	c0.14-0.13,0.25-0.3,0.4-0.47c0.15-0.1,0.34-0.26,0.5-0.38c0.22-0.18,0.47-0.36,0.65-0.59c0.17-0.21,0.38-0.37,0.57-0.58
	c0.3-0.36,0.7-0.65,1.02-1.01c0.47-0.54,0.91-1.09,1.33-1.67c0.43-0.59,0.78-1.2,1.19-1.79c0.34-0.48,0.54-1.01,0.81-1.5
	c0.12-0.24,0.26-0.45,0.39-0.71c0.28-0.53,0.35-1.14,0.4-1.74c0.03-0.21,0.07-0.43,0.02-0.67C12.78,29.72,12.67,29.15,12.13,28.73z"
	/>
<path class="st0" d="M20.53,38.67c-0.39,0.12-0.81,0.47-1.28,0.41c-0.16-0.02-0.34-0.09-0.5-0.14c-0.33-0.13-0.34-0.46-0.3-0.73
	c0.05-0.28,0.22-0.62,0.37-0.88c0.12-0.22,0.31-0.42,0.48-0.61c0.33-0.36,0.72-0.69,1.18-0.95c0.6-0.34,1.39-0.8,2.18-0.75
	c0.27,0.01,0.48,0.12,0.64,0.34c0.07,0.11,0.17,0.44,0.31,0.43l0.17-0.05c0.05-0.06,0.08-0.23,0.11-0.32l0.05-0.16
	c0.02-0.07-0.01-0.1,0.02-0.18c0.03-0.1,0.03-0.22-0.03-0.32c-0.03-0.06-0.08-0.15-0.18-0.23c-0.18-0.14-0.44-0.2-0.65-0.31
	c-0.21-0.11-0.53-0.06-0.76-0.05c-0.47,0.03-0.96,0.13-1.42,0.27c-2.33,0.74-3.93,2.57-4.68,4.45c-0.16,0.39-0.21,0.88,0.06,1.29
	c0.28,0.38,0.84,0.48,1.34,0.53c0.36,0,0.92,0,1.27-0.06c0.26-0.08,0.49-0.18,0.75-0.26c0.23-0.09,0.34-0.2,0.57-0.32
	c0.44-0.22,0.79-0.48,0.91-0.89c0.04-0.15,0.15-0.37,0.05-0.5C21.05,38.48,20.71,38.61,20.53,38.67z"/>
<path class="st0" d="M27.57,39.05c0.3-0.33,0.3,0.22,0.22,0.41c-0.15,0.47-0.61,0.68-0.25,0.76c0.21,0.05,0.54-0.26,0.65-0.37
	c0.23-0.25,0.33-0.5,0.46-0.8c0.12-0.26,0.24-0.48,0.29-0.76c0.04-0.25,0.06-0.5-0.09-0.69c-0.17-0.2-0.43-0.14-0.65,0
	c-0.09,0.04-0.21,0.09-0.28,0.16l-0.11,0.13l-0.06-0.14c-0.04-0.14-0.16-0.17-0.29-0.26c-0.38-0.25-0.79,0.08-1.06,0.37
	c-0.28-0.06-0.17-0.94-0.68-0.57c-0.22,0.15-0.14,0.41-0.11,0.6c0.06,0.47-0.05,0.85-0.22,1.29c-0.07,0.17-0.11,0.45-0.07,0.64
	c0.1,0.45,0.53-0.25,0.64-0.4c0.11-0.16,0.28-0.35,0.38-0.5c0.1-0.16,0.06-0.19,0.27-0.2c0.24-0.04,0.23,0.32,0.14,0.54
	c-0.09,0.23-0.3,0.87,0.16,0.62C27.24,39.68,27.32,39.32,27.57,39.05z"/>
<path class="st0" d="M36.65,39.72c0.11-0.09,0.16-0.63,0.17-0.77c0.03-0.33,0.22-1.26-0.17-1.46l-0.12,0.06
	c-0.1-0.53-1.27,0.04-1.53,0.17c-0.55,0.3-1.22,0.95-1.36,1.53c-0.15,0.67,0.39,0.92,1,0.79c0.57-0.11,0.89-0.52,1.38-0.73
	C36.21,39.38,36.38,39.9,36.65,39.72 M35.54,38.91c-0.13,0.09-0.6,0.45-0.69,0.11c-0.07-0.22,0.37-0.54,0.53-0.63
	c0.22-0.13,0.54-0.05,0.69-0.31l-0.02,0h0.04l-0.02,0h0.01c0.04,0.13-0.11,0.38-0.2,0.48C35.8,38.69,35.68,38.81,35.54,38.91z"/>
<path class="st0" d="M32.96,37.59c-0.27-0.17-0.6-0.2-0.91-0.2l0.1-0.14c0.08-0.15,0.36-0.55-0.08-0.47
	c-0.35,0.07-0.26-0.02-0.55,0.13l-0.05,0.03c-0.29,0.02-0.46,0.25-0.64,0.45c-0.4,0.02-1.07,0.1-1.02,0.26
	c0.01,0.08,0.27,0.2,0.33,0.22c0.09,0.04,0.16,0.05,0.23,0.06c-0.23,0.31-0.44,0.63-0.61,0.89c-0.14,0.2-0.17,0.33-0.31,0.54
	c-0.09,0.13-0.17,0.26-0.26,0.38c-0.07,0.02-0.13,0.03-0.17,0.06l0.08,0.12c-0.04,0.06-0.09,0.12-0.11,0.19
	c-0.14,0.28-0.28,0.53-0.41,0.8c-0.18,0.44-0.72,1.75-0.8,1.96c-0.07,0.26-0.19,0.67-0.26,0.91c-0.27,0.95-0.45,2.55-0.45,2.8
	c0,0.25,0.02,0.5,0.05,0.77c0,0.08,0.01,0.53,0.17,0.57c0.17,0.03,0.19-0.38,0.21-0.48c0.03-0.48,0.2-1.83,0.26-2.05
	c0.06-0.26,0.16-0.68,0.24-0.94c0.15-0.42,0.25-0.79,0.4-1.22c0.19-0.52,0.37-0.8,0.59-1.31c0.1-0.25,0.52-1.01,0.61-1.21
	c0.03-0.06,0.13-0.24,0.26-0.47c0.08,0.02,0.15,0.04,0.19,0.05c0.29,0.04,0.61,0,0.89-0.05c0.3-0.04,0.61-0.05,0.87-0.22
	c0.31-0.18,0.63-0.3,0.88-0.55c0.28-0.31,0.56-0.71,0.67-1.13c0.05-0.17,0.01-0.28-0.09-0.4C33.2,37.84,33.09,37.68,32.96,37.59
	 M32.07,38.98c-0.29,0.35-0.82,0.58-1.27,0.68c-0.2,0.05-0.41,0.07-0.62,0.1c0.3-0.45,0.68-0.99,1.01-1.37
	c0.13-0.15,0.25-0.29,0.37-0.42c0.15,0.02,0.29,0.05,0.42,0.11c0.19,0.1,0.26,0.16,0.29,0.41C32.28,38.67,32.18,38.85,32.07,38.98z"
	/>
<path class="st0" d="M44.52,36.69c-0.07-0.05-0.18,0.17-0.29,0.33c-0.28,0.47-0.71,1.45-1.83,2.86c-0.06-0.15-0.28-0.34-0.33-0.45
	c-0.13-0.21-0.21-0.44-0.25-0.68c-0.03-0.24-0.06-0.49-0.06-0.73c0.02-0.18-0.03-0.46-0.2-0.57l-0.01-0.06
	c-0.1-0.09-0.25-0.06-0.31,0c-0.16,0.14-0.13,0.47-0.16,0.65c-0.04,0.25-0.11,0.49-0.1,0.73c0,0.17,0.05,0.36,0.1,0.52
	c0.04,0.14,0.1,0.28,0.23,0.38c0.13,0.11,0.23,0.23,0.39,0.3c0.12,0.05,0.35,0.15,0.51,0.11c-0.15,0.19-0.32,0.38-0.5,0.59
	c-1.5,1.69-4.5,3.94-5.19,4.49c-0.69,0.54-0.65,0.74-0.11,0.91c0.53,0.16,0.93,0.25,3.12-1.68c3.18-2.77,4.4-5.4,4.8-6.21
	C44.73,37.37,44.73,36.83,44.52,36.69z"/>
<path class="st0" d="M24.25,37.45c-0.25-0.6-1.3,0.2-1.54,0.39c-0.6,0.49-1.33,1.38-0.82,2.21c0.06,0.09,0.16,0.23,0.24,0.3
	c0.22,0.15,0.5,0.13,0.75,0.12c0.29-0.02,0.57-0.03,0.82-0.15c0.35-0.17,0.68-0.47,0.81-0.86c0.07-0.21,0.13-0.42,0.21-0.62
	c0.04-0.09,0.07-0.18,0.09-0.27c0.01-0.17-0.01-0.34-0.04-0.5C24.72,37.85,24.57,37.22,24.25,37.45 M24.03,38.56l-0.01,0.12
	c-0.09,0.46-0.41,0.94-0.93,0.81c-0.23-0.05-0.31-0.21-0.23-0.43c0.08-0.24,0.33-0.34,0.54-0.46c0.15-0.09,0.43-0.31,0.49-0.5
	c0.06,0.05,0.1,0.13,0.12,0.19C24.04,38.39,24.04,38.48,24.03,38.56z"/>
<path class="st0" d="M25.07,25.54c-0.25-0.11-0.62-0.2-0.89-0.17c-0.31,0.05-0.56,0.06-0.83,0.21c-0.44,0.25-0.6,0.42-1.16,0.93
	c-0.23,0.21-0.63,0.47-0.95,0.5c0.07-0.38,0.21-1.07,0.47-1.47c0.18-0.29,0.29-0.88,0.52-1.18c0.13-0.18,0.18-0.32,0.28-0.49
	c0.71-0.42,1.4-0.81,2.15-1.17c0.41-0.21,0.7-0.39,1.14-0.54c0.37-0.12,0.76-0.35,1.14-0.46c0.31-0.11,0.65-0.23,0.98-0.35
	c0.81-0.26,1.31-0.33,1.93-0.53c0.56-0.19,1.09-0.26,1.71-0.37c0.33-0.08,0.65-0.16,1-0.19c0.2-0.02,1.59-0.05,1.46-0.2
	c-0.19-0.28-1.1-0.33-1.3-0.33c-0.71-0.02-1.53,0.05-2.12,0.1c-1.14,0.1-1.84,0.33-2.96,0.63c-1.11,0.29-2.23,0.69-3.27,1.17
	c-0.15,0.07-0.35,0.13-0.53,0.19c0.18-0.42,0.12-0.55-0.5-0.68H23.3c-0.35-0.1-0.71,0.23-0.88,0.52c-0.15,0.22-0.3,0.45-0.44,0.68
	c-0.06,0.11-0.11,0.22-0.17,0.35c-0.25,0.13-0.48,0.25-0.72,0.4c-0.46,0.29-0.96,0.52-1.33,0.94c-0.23,0.25-0.69,0.71-0.66,1.1
	c0.08,0.24,0.13,0.47,0.45,0.5c0.3,0.04,0.46-0.21,0.68-0.35c0.24-0.17,0.47-0.36,0.72-0.49l0,0c-0.05,0.14-0.11,0.28-0.15,0.37
	c-0.13,0.32-0.17,0.46-0.28,0.78c-0.17,0.53-0.35,0.69-0.31,1.26c0.08,1.13,1.37,1.33,2.36,0.53c0.21-0.17,0.21-0.35,0.46-0.5
	c0.23-0.14,0.59-0.24,0.76,0.06c0.21,0.41-0.17,1.22-0.35,1.6c-0.12,0.27-0.64,1.21-1.16,1.81c-0.26,0.28,0.06,0.8,0.74,0.72
	c0.41-0.04,0.91-0.71,1.09-1.01c0.35-0.55,0.79-1.18,0.99-1.81c0.18-0.54,0.29-0.94,0.39-1.52C25.56,26.56,25.58,25.77,25.07,25.54z
	"/>
<path class="st0" d="M19.17,32.2c-0.16,0.28-0.09,0.83,0.51,0.71c0.61-0.11,1.13-1.19,0.01-1.23l0.07,0.24
	C19.68,31.58,19.2,32.12,19.17,32.2z"/>
<polygon class="st0" points="19.12,24.51 19.09,24.37 19.06,24.28 "/>
<linearGradient id="SVGID_4_" gradientUnits="userSpaceOnUse" x1="-2408.936" y1="-1781.6149" x2="-2207.9612" y2="-1781.6149" gradientTransform="matrix(0.2431 -0.0417 0.0426 0.2383 705.4343 370.4292)">
	<stop  offset="0.2472" style="stop-color:#F5A500"/>
	<stop  offset="0.3363" style="stop-color:#F49C00"/>
	<stop  offset="0.4956" style="stop-color:#F08300"/>
	<stop  offset="0.7051" style="stop-color:#EA5703"/>
	<stop  offset="0.9045" style="stop-color:#E60012"/>
</linearGradient>
<path class="st6" d="M92.03,43.76c-2.83-2.34-5.86,0.17-7.71,1.62c-0.92,0.73-1.44,0.51-1.75,0.16c-0.31-0.37-0.72-1.09-1.57-1.17
	c-2.17-0.21-2.68,1.7-4.12,3.88c-2.1,3.12-6.61,4.08-9.63,2.28c-2.27-1.34-3.38-3.34-3.86-4.51c10.59-0.87,18.42-4.35,19.65-13.29
	c1.22-8.81-8.88-11.68-16.02-8.05c-7.27,3.67-8.17,11.83-7.07,16.42c0.5-0.16,1.38-0.39,2.04-0.57c0.04-6.31,2.34-8.66,5.41-9.79
	c4.93-1.81,8.41,1.53,6.08,5.07c-3.62,5.48-13.9,6.91-20.92,8.15c-5.21,0.94-14.4,1.79-19.64,7.55c1.85-1.19,3.88-2.16,12.86-3.45
	c8.63-1.25,10.12-0.9,15.57-1.7c1.84,5.05,7.01,14.37,20.46,11.78c8.69-1.68,11.52-6.27,11.78-9.86
	C93.73,46.16,92.92,44.48,92.03,43.76z"/>
<path class="st0" d="M111.71,19.52l-0.06,0.28c-0.27,1.29,0.46,1.7,1.23,1.7c0.96,0,1.78-0.41,2.02-1.54
	c0.45-2.1-3.86-1.87-3.26-4.72c0.36-1.68,1.74-2.58,3.33-2.58c1.73,0,2.53,0.84,2.04,2.78h-1.26c0.23-1.04,0.05-1.72-1.09-1.72
	c-0.72,0-1.54,0.37-1.75,1.39c-0.44,2.09,3.88,1.79,3.24,4.8c-0.42,2-1.94,2.64-3.5,2.64c-2.81,0.03-2.35-2.12-2.13-3.03H111.71z"/>
<path class="st0" d="M119.88,21.59c-1.12,0-1.23-0.78-0.77-2.93c0.39-1.82,1.03-2.21,1.86-2.21c0.83,0,1.31,0.39,0.92,2.21
	C121.44,20.82,121,21.59,119.88,21.59 M119.69,22.48c1.41,0,2.61-0.42,3.23-3.35c0.41-1.95,0.54-3.55-1.77-3.55
	c-2.3,0-2.87,1.6-3.28,3.55C117.26,22.05,118.29,22.48,119.69,22.48z"/>
<path class="st0" d="M128.38,17.83c0.26-1.09-0.22-1.38-0.63-1.38c-0.83,0-1.48,0.39-1.86,2.21c-0.46,2.16-0.35,2.93,0.77,2.93
	c0.25,0,1.06-0.26,1.27-1.46h1.13c-0.36,1.87-1.85,2.34-2.59,2.34c-1.41,0-2.44-0.42-1.81-3.35c0.41-1.95,0.98-3.55,3.28-3.55
	c1.33,0,1.94,0.77,1.56,2.26H128.38z"/>
<path class="st0" d="M131.58,22.34h-1.08l1.41-6.64h1.08L131.58,22.34 M132.45,12.85h1.21l-0.25,1.16h-1.21L132.45,12.85z"/>
<path class="st0" d="M134.85,20.37c-0.14,0.64,0.05,1.22,0.78,1.22c0.66,0,1.56-0.41,1.91-2.55
	C136.51,19.06,135.15,18.96,134.85,20.37 M137.07,21.38h-0.03c-0.49,0.76-1.07,1.09-1.9,1.09c-1.41,0-1.62-0.91-1.35-2.18
	c0.43-2.01,2.42-2.1,3.92-2.06c0.21-0.88,0.43-1.84-0.72-1.84c-0.73,0-1.21,0.49-1.29,1.18h-1.17c0.37-1.48,1.26-2,2.67-2
	c1.71,0,1.97,0.88,1.73,2l-0.68,3.19c-0.11,0.53-0.18,1.07-0.2,1.58h-1.18L137.07,21.38z"/>
<polygon class="st0" points="141.07,22.34 139.99,22.34 142.01,12.85 143.09,12.85 "/>
<polygon class="st0" points="145.97,22.34 147.99,12.85 152.88,12.85 152.66,13.9 148.98,13.9 148.33,16.95 151.75,16.95 
	151.53,18.01 148.11,18.01 147.41,21.29 151.17,21.29 150.95,22.34 "/>
<path class="st0" d="M156.03,22.34l0.98-4.6c0.15-0.71,0.02-1.29-0.89-1.29c-1.18,0-1.58,1.05-1.77,1.96l-0.84,3.93h-1.08l1.12-5.26
	c0.1-0.46,0.17-0.92,0.22-1.38h1.14l-0.18,0.86h0.05c0.58-0.75,1.13-0.98,1.99-0.98c1.42,0,1.59,0.85,1.31,2.17l-0.98,4.6H156.03z"
	/>
<path class="st0" d="M160.53,15.7l0.27-1.27l1.18-0.49l-0.38,1.76h1.45l-0.17,0.82h-1.45l-0.87,4.06c-0.09,0.42-0.21,0.96,0.78,0.96
	c0.08,0,0.25-0.03,0.5-0.05l-0.18,0.83c-0.36,0.03-0.73,0.1-1.09,0.1c-1.03,0-1.4-0.42-1.23-1.18l1-4.72h-1.09l0.17-0.82H160.53z"/>
<path class="st0" d="M167.11,18.56c0.41-1.93-0.08-2.17-0.87-2.17c-0.68,0-1.32,0.33-1.72,2.17H167.11 M164.34,19.37
	c-0.39,1.85,0.03,2.22,0.87,2.22c0.74,0,1.24-0.59,1.43-1.26h1.18c-0.32,1.47-1.38,2.14-2.77,2.14c-1.41,0-2.44-0.42-1.81-3.35
	c0.41-1.95,0.98-3.55,3.28-3.55c1.89,0,2.15,1.04,1.68,3.23l-0.12,0.56H164.34z"/>
<path class="st0" d="M171.55,16.7h0.03c0.66-1.01,1.24-1.13,2.29-1.13l-0.24,1.12c-0.19-0.03-0.37-0.07-0.56-0.07
	c-1.2,0-1.69,0.91-1.88,1.8l-0.83,3.92h-1.08l1.41-6.64h1.08L171.55,16.7z"/>
<path class="st0" d="M178.07,18.91c0.21-1,0.52-2.46-0.83-2.46c-1.33,0-1.6,1.84-1.82,2.85c-0.19,0.88-0.43,2.29,0.76,2.29
	C177.34,21.59,177.7,20.69,178.07,18.91 M176.02,16.49h0.03c0.5-0.62,1.02-0.92,1.72-0.92c1.06,0,2.05,0.42,1.43,3.34
	c-0.35,1.66-0.81,3.56-2.96,3.56c-0.63,0-1.03-0.28-1.29-0.8h-0.04l-0.68,3.18h-1.08l1.94-9.15h1.08L176.02,16.49z"/>
<path class="st0" d="M182.5,16.7h0.03c0.66-1.01,1.24-1.13,2.29-1.13l-0.24,1.12c-0.19-0.03-0.37-0.07-0.56-0.07
	c-1.2,0-1.69,0.91-1.88,1.8l-0.83,3.92h-1.08l1.41-6.64h1.08L182.5,16.7z"/>
<path class="st0" d="M185.61,22.34h-1.08l1.41-6.64h1.08L185.61,22.34 M186.48,12.85h1.21l-0.24,1.16h-1.21L186.48,12.85z"/>
<path class="st0" d="M189.41,22.48c-1.43,0-2.2-0.63-1.83-2.16h1.22c-0.08,0.38-0.26,1.28,0.84,1.28c0.64,0,1.21-0.33,1.36-1.01
	c0.25-1.18-3.05-1.21-2.63-3.2c0.15-0.7,0.81-1.81,2.67-1.81c1.18,0,2.08,0.56,1.71,1.88h-1.2c0.16-0.7-0.13-1.06-0.81-1.06
	c-0.58,0-1.09,0.31-1.21,0.89c-0.25,1.17,3.07,1.14,2.64,3.17C191.85,21.91,190.72,22.48,189.41,22.48z"/>
<path class="st0" d="M197.76,18.56c0.41-1.93-0.08-2.17-0.87-2.17c-0.68,0-1.32,0.33-1.72,2.17H197.76 M195,19.37
	c-0.4,1.85,0.03,2.22,0.87,2.22c0.74,0,1.24-0.59,1.43-1.26h1.18c-0.33,1.47-1.38,2.14-2.77,2.14c-1.41,0-2.44-0.42-1.81-3.35
	c0.41-1.95,0.98-3.55,3.28-3.55c1.89,0,2.14,1.04,1.68,3.23l-0.12,0.56H195z"/>
</svg>
