<svg xmlns="http://www.w3.org/2000/svg" viewBox="0 0 204.152 998.445">
  <defs>
    <style>
      .cls-1 {
        fill: #f7c7c6;
      }

      .cls-1, .cls-2 {
        stroke: #fff;
        stroke-linecap: round;
        stroke-width: 6px;
      }

      .cls-2 {
        fill: #dcc7e1;
      }

      .cls-13, .cls-3 {
        fill: #fff;
      }

      .cls-4 {
        fill: #74c6be;
      }

      .cls-5 {
        fill: #fbb03f;
      }

      .cls-6 {
        fill: #88d6f4;
      }

      .cls-7 {
        fill: #97c3e5;
      }

      .cls-8 {
        opacity: 0.58;
      }

      .cls-9 {
        fill: #757474;
      }

      .cls-10 {
        fill: #ededed;
      }

      .cls-11 {
        fill: #f7b716;
      }

      .cls-12, .cls-21 {
        fill: #f3775f;
      }

      .cls-13 {
        font-size: 14px;
        font-family: NanumGothic, Nanum Gothic;
      }

      .cls-14 {
        fill: #727171;
      }

      .cls-15 {
        fill: #bce2e3;
      }

      .cls-16 {
        fill: #e0f1f2;
      }

      .cls-17 {
        fill: #ea5541;
      }

      .cls-18 {
        fill: #e8f5f7;
      }

      .cls-19 {
        fill: #9ad7da;
      }

      .cls-20, .cls-21 {
        opacity: 0.17;
      }

      .cls-22 {
        fill: #6cc8bf;
      }

      .cls-23 {
        fill: #afdfdf;
      }

      .cls-24 {
        fill: #daf0f6;
      }

      .cls-25 {
        fill: #58595b;
      }
    </style>
  </defs>
  <g id="그룹_1392" data-name="그룹 1392" transform="translate(-57.5 -3153.095)">
    <path id="패스_5109" data-name="패스 5109" class="cls-1" d="M198.153,99.349A99.077,99.077,0,1,0,99.1,198.7,99.374,99.374,0,0,0,198.153,99.349Z" transform="translate(60.5 3949.842)"/>
    <path id="패스_5220" data-name="패스 5220" class="cls-2" d="M195.685,117.165,228.71,98.089,195.439,78.866a98.821,98.821,0,1,0,.246,38.3Z" transform="translate(257.96 3752) rotate(90)"/>
    <path id="패스_5219" data-name="패스 5219" class="cls-1" d="M195.685,117.165,228.71,98.089,195.439,78.866a98.821,98.821,0,1,0,.246,38.3Z" transform="translate(257.96 3554) rotate(90)"/>
    <path id="패스_5218" data-name="패스 5218" class="cls-2" d="M195.685,117.165,228.71,98.089,195.439,78.866a98.821,98.821,0,1,0,.246,38.3Z" transform="translate(257.96 3355) rotate(90)"/>
    <path id="패스_5105" data-name="패스 5105" class="cls-1" d="M195.681,117.162l33.024-19.075L195.434,78.864a98.819,98.819,0,1,0,.246,38.3Z" transform="translate(257.955 3156.095) rotate(90)"/>
    <g id="그룹_1343" data-name="그룹 1343" transform="translate(118.495 3200.4)">
      <path id="패스_5157" data-name="패스 5157" class="cls-3" d="M3.735,0A3.8,3.8,0,0,0,0,3.735V59.466A3.709,3.709,0,0,0,3.735,63.2H79.718a3.709,3.709,0,0,0,3.735-3.735V13.933L67.509,0Z"/>
      <path id="패스_5158" data-name="패스 5158" class="cls-4" d="M47,0V10.2a3.709,3.709,0,0,0,3.735,3.735H63.087Z" transform="translate(20.509)"/>
      <path id="패스_5159" data-name="패스 5159" class="cls-4" d="M49.293,28.949,46.276,45.467l-2.3-4.74L40.1,44.318,42.973,27.8Z" transform="translate(17.498 12.131)"/>
      <path id="패스_5160" data-name="패스 5160" class="cls-4" d="M44.7,28.949l3.016,16.518,2.3-4.74,3.878,3.591L51.02,27.8Z" transform="translate(19.506 12.131)"/>
      <g id="그룹_1342" data-name="그룹 1342" transform="translate(53.576 22.695)">
        <path id="패스_5161" data-name="패스 5161" class="cls-5" d="M60.713,27.435c0,.144-1.293.287-1.293.431s1.293.431,1.293.575-1.293.144-1.293.287,1.293.431,1.293.575-1.293,0-1.436.144c0,.144,1.293.575,1.149.718,0,.144-1.293,0-1.436.144,0,.144,1.149.718,1.149.862s-1.293-.144-1.436,0c0,.144,1.149.718,1.005.862,0,.144-1.293-.287-1.436-.144,0,.144,1.005.862,1.005,1.005-.144.144-1.293-.431-1.436-.287s1.005,1.005.862,1.149-1.293-.431-1.293-.431c-.144.144.862,1.005.718,1.149s-1.149-.575-1.293-.431.862,1.149.718,1.149c-.144.144-1.149-.718-1.293-.575,0,.144.718,1.293.718,1.436-.144.144-1.149-.718-1.149-.718-.144.144.575,1.149.431,1.293s-1.005-.862-1.149-.718.431,1.293.431,1.293c-.144.144-1.005-1.005-1.149-.862s.431,1.293.287,1.436-.862-1.005-1.005-1.005.287,1.293.144,1.436c-.144,0-.718-1.149-.862-1.005-.144,0,.144,1.293,0,1.436-.144,0-.718-1.149-.862-1.149s0,1.293-.144,1.436c-.144,0-.575-1.149-.718-1.149s0,1.293-.144,1.436c-.144,0-.431-1.293-.575-1.293s-.144,1.293-.287,1.293-.431-1.293-.575-1.293-.287,1.293-.431,1.293-.287-1.293-.431-1.293-.431,1.293-.575,1.293-.144-1.293-.287-1.293-.431,1.293-.575,1.293,0-1.293-.144-1.436c-.144,0-.575,1.293-.718,1.149-.144,0,0-1.293-.144-1.436-.144,0-.718,1.149-.862,1.149s.144-1.293,0-1.436c-.144,0-.718,1.149-.862,1.005-.144,0,.287-1.293.144-1.436-.144,0-.862,1.005-1.005,1.005-.144-.144.431-1.293.287-1.436s-1.005,1.005-1.149.862.431-1.293.431-1.293c-.144-.144-1.005.862-1.149.718s.575-1.149.431-1.293-1.149.862-1.149.718c-.144-.144.718-1.149.575-1.293s-1.149.718-1.293.575.718-1.149.718-1.149c-.144-.144-1.149.575-1.293.431s.862-1.005.718-1.149S39.6,33.9,39.6,33.9c-.144-.144,1.005-1.005.862-1.149s-1.293.431-1.436.287c-.431-.287.718-1.005.718-1.149s-1.293.287-1.436.144c0-.144,1.149-.718,1.005-.862,0-.144-1.293.144-1.436,0,0-.144,1.149-.718,1.149-.862s-1.293,0-1.436-.144c0-.144,1.149-.575,1.149-.718s-1.293,0-1.436-.144c0-.144,1.293-.431,1.293-.575S37.3,28.584,37.3,28.44s1.293-.431,1.293-.575-1.293-.287-1.293-.431,1.293-.287,1.293-.431-1.293-.431-1.293-.575,1.293-.144,1.293-.287-1.293-.431-1.293-.575,1.293,0,1.436-.144c0-.144-1.293-.575-1.149-.718,0-.144,1.293,0,1.436-.144,0-.144-1.149-.718-1.149-.862s1.293.144,1.436,0c0-.144-1.149-.718-1.005-.862,0-.144,1.293.287,1.436.144,0-.144-1.005-.862-1.005-1.005.144-.144,1.293.431,1.436.287s-1.005-1.005-.862-1.149,1.293.431,1.293.431c.144-.144-.862-1.005-.718-1.149s1.149.575,1.293.431-.862-1.149-.718-1.149c.144-.144,1.149.718,1.293.575s-.718-1.149-.575-1.293,1.149.718,1.149.718c.144-.144-.575-1.149-.431-1.293s1.005.862,1.149.718-.431-1.293-.431-1.293c.144-.144,1.005,1.005,1.149.862s-.431-1.293-.287-1.436.862,1.005,1.005,1.005-.287-1.293-.144-1.436c.144,0,.718,1.149.862,1.005.144,0-.144-1.293,0-1.436.144,0,.718,1.149.862,1.149s0-1.293.144-1.436c.144,0,.575,1.149.718,1.149s0-1.293.144-1.436c.144,0,.431,1.293.575,1.293s.144-1.293.287-1.293.431,1.293.575,1.293.287-1.293.431-1.293.287,1.293.431,1.293S49.8,15.8,49.94,15.8s.144,1.293.287,1.293.431-1.293.575-1.293,0,1.293.144,1.436c.144,0,.575-1.293.718-1.149.144,0,0,1.293.144,1.436.144,0,.718-1.149.862-1.149s-.144,1.293,0,1.436c.144,0,.718-1.149.862-1.005.144,0-.287,1.293-.144,1.436.144,0,.862-1.005,1.005-1.005.144.144-.431,1.293-.287,1.436s1.005-1.005,1.149-.862-.431,1.293-.431,1.293c.144.144,1.005-.862,1.149-.718s-.575,1.149-.431,1.293,1.149-.862,1.149-.718c.144.144-.718,1.149-.575,1.293s1.149-.718,1.293-.575-.718,1.149-.718,1.149c.144.144,1.149-.575,1.293-.431s-.862,1.005-.718,1.149,1.293-.431,1.293-.431c.144.144-1.005,1.005-.862,1.149s1.293-.431,1.436-.287-1.005.862-1.005,1.005,1.293-.287,1.436-.144c0,.144-1.149.718-1.005.862,0,.144,1.293-.144,1.436,0,0,.144-1.149.718-1.149.862s1.293,0,1.436.144c0,.144-1.149.575-1.149.718s1.293,0,1.436.144c0,.144-1.293.431-1.293.575s1.293.144,1.293.287-1.293.431-1.293.575S60.713,27.291,60.713,27.435Z" transform="translate(-37.3 -15.8)"/>
      </g>
      <path id="패스_5162" data-name="패스 5162" class="cls-3" d="M48.236,35.973a9.336,9.336,0,1,1,9.336-9.336A9.318,9.318,0,0,1,48.236,35.973Z" transform="translate(16.975 7.549)"/>
      <path id="패스_5163" data-name="패스 5163" class="cls-3" d="M48.105,35.511a8.905,8.905,0,1,1,8.905-8.905A8.769,8.769,0,0,1,48.105,35.511Zm0-17.811a8.905,8.905,0,1,0,8.905,8.905A8.858,8.858,0,0,0,48.105,17.7Z" transform="translate(17.106 7.724)"/>
      <path id="패스_5164" data-name="패스 5164" class="cls-3" d="M48.105,17.7a8.905,8.905,0,1,0,8.905,8.905A8.684,8.684,0,0,0,48.105,17.7Zm0,16.375a7.469,7.469,0,1,1,7.469-7.469A7.509,7.509,0,0,1,48.105,34.075Z" transform="translate(17.106 7.724)"/>
      <circle id="타원_136" data-name="타원 136" class="cls-5" cx="6.895" cy="6.895" r="6.895" transform="translate(58.316 27.435)"/>
      <rect id="사각형_486" data-name="사각형 486" class="cls-4" width="41.511" height="3.16" transform="translate(5.745 8.905)"/>
      <rect id="사각형_487" data-name="사각형 487" class="cls-4" width="30.738" height="3.16" transform="translate(5.745 24.705)"/>
      <rect id="사각형_488" data-name="사각형 488" class="cls-4" width="22.838" height="3.16" transform="translate(5.745 16.805)"/>
      <rect id="사각형_489" data-name="사각형 489" class="cls-4" width="22.838" height="3.16" transform="translate(5.745 32.749)"/>
      <rect id="사각형_490" data-name="사각형 490" class="cls-4" width="30.738" height="3.16" transform="translate(5.745 48.549)"/>
      <rect id="사각형_491" data-name="사각형 491" class="cls-4" width="41.08" height="3.16" transform="translate(5.745 40.649)"/>
    </g>
    <g id="그룹_1344" data-name="그룹 1344" transform="translate(138 3398.2)">
      <path id="패스_5165" data-name="패스 5165" class="cls-6" d="M46.8,36.9" transform="translate(7.362 5.805)"/>
      <path id="패스_5166" data-name="패스 5166" class="cls-3" d="M24.819,39.7h0c.116,1.852.231,3.935.347,6.134.116,2.083.231,4.166.347,6.134.116,1.62.116,3.24.231,4.745a.352.352,0,0,0,0,.463V58.22c.116,1.5.116,2.662.231,3.472v.81h0v.347c.116.463.231.81.463.81h0c.116.116.231.116.463.231a4.543,4.543,0,0,0,1.62.347c.463,0,1.042.116,1.5.116h1.157c.347-.347.116-.579-.347-.694A7.979,7.979,0,0,0,29.68,63.2c-.579-.231-1.042-.463-1.5-.694.116-.694.347-1.967.579-4.166,0-.347.116-.694.116-1.157.116-1.389.347-3.009.463-4.976.116-1.852.231-3.819.347-6.134V45.6c0-1.273.231-3.7.231-5.787,0-1.157.116-2.2.116-2.893,0-1.273.116-2.315.116-3.356.116-2.778.231-4.514.231-6.134a40.209,40.209,0,0,0-.231-4.976c0-.463-.116-.81-.116-1.157-.116-.926-.231-1.852-.347-2.662a18.161,18.161,0,0,1,1.389,2.43.4.4,0,0,0,.116.231,12.432,12.432,0,0,1,1.042,6.134c0,1.62-.231,3.588-.463,6.134a2.876,2.876,0,0,1-.116.926,1.488,1.488,0,0,0,.116.81l.116.116h.231c.463,0,.694-.694.694-.694a7.191,7.191,0,0,0,.347-1.157,42.158,42.158,0,0,0,1.042-6.134,12.813,12.813,0,0,0,0-3.009,17.82,17.82,0,0,0-.81-3.125,41.611,41.611,0,0,0-1.62-4.051,4.669,4.669,0,0,0-1.852-2.083,4.691,4.691,0,0,0-1.042-.579A4.661,4.661,0,0,1,27.134,13.2a.113.113,0,0,0-.116-.116h0l-.347-.347v-.116a5.324,5.324,0,0,0,1.967-3.588,2.5,2.5,0,0,0,.463-1.62,2.548,2.548,0,0,0-.116-.926A4.046,4.046,0,0,0,21,6.14a5.6,5.6,0,0,1,2.662,3.7,3.2,3.2,0,0,1,.116,1.042,6.6,6.6,0,0,1-.116,1.5,6.471,6.471,0,0,1-1.62,3.588v.116c.116.231.463.579,1.389,1.042a6.13,6.13,0,0,1,1.157.694,6.023,6.023,0,0,1,2.083,2.43,31.54,31.54,0,0,1,1.62,4.166,15.44,15.44,0,0,1,.81,3.356,14.637,14.637,0,0,1,0,3.24,40.552,40.552,0,0,1-1.042,6.365,3.26,3.26,0,0,1-.463,1.273,1.5,1.5,0,0,1-1.389,1.157,1.043,1.043,0,0,1-.579-.116,1.155,1.155,0,0,1-.579-.463" transform="translate(3.304 0.456)"/>
      <path id="패스_5167" data-name="패스 5167" class="cls-3" d="M30.119,36.918h0c.116,1.852.231,3.935.347,6.134.116,2.083.231,4.166.347,6.134.116,1.62.116,3.24.231,4.745-.116.116-.116.231,0,.463v1.042c.116,1.5.116,2.662.231,3.472v.81h0v.347c.116.463.231.81.463.81h0c.116.116.231.116.463.231a4.543,4.543,0,0,0,1.62.347c.463,0,1.042.116,1.5.116h1.157c.347-.347.116-.579-.347-.694a7.979,7.979,0,0,0-1.157-.463c-.579-.231-1.042-.463-1.5-.694.116-.694.347-1.967.579-4.166,0-.347.116-.694.116-1.157.116-1.389.347-3.009.463-4.976.116-1.852.231-3.819.347-6.134v-.463c0-1.273.231-3.7.231-5.787,0-1.157.116-2.2.116-2.893,0-1.273.116-2.315.116-3.356.116-2.778.231-4.514.231-6.134a40.208,40.208,0,0,0-.231-4.976c0-.463-.116-.81-.116-1.157-.116-.926-.231-1.852-.347-2.662a18.161,18.161,0,0,1,1.389,2.43.4.4,0,0,0,.116.231,12.432,12.432,0,0,1,1.042,6.134c0,1.62-.231,3.588-.463,6.134a2.876,2.876,0,0,1-.116.926,1.488,1.488,0,0,0,.116.81l.116.116h.231c.463,0,.694-.694.694-.694a7.191,7.191,0,0,0,.347-1.157,42.157,42.157,0,0,0,1.042-6.134,12.7,12.7,0,0,0,0-3.009,17.82,17.82,0,0,0-.81-3.125,41.611,41.611,0,0,0-1.62-4.051,4.669,4.669,0,0,0-1.852-2.083A4.691,4.691,0,0,0,34.17,11.8a4.661,4.661,0,0,1-1.736-1.389.113.113,0,0,0-.116-.116h0l-.347-.347V9.837a5.324,5.324,0,0,0,1.967-3.588,5.635,5.635,0,0,0,.116-1.389,2.548,2.548,0,0,0-.116-.926A3.715,3.715,0,0,0,30.235,0,4.179,4.179,0,0,0,26.3,3.24a5.6,5.6,0,0,1,2.662,3.7,3.2,3.2,0,0,1,.116,1.042,6.6,6.6,0,0,1-.116,1.5,6.471,6.471,0,0,1-1.62,3.588v.116c.116.231.463.579,1.389,1.042a6.13,6.13,0,0,1,1.157.694,6.023,6.023,0,0,1,2.083,2.43,31.541,31.541,0,0,1,1.62,4.166,15.439,15.439,0,0,1,.81,3.356,14.637,14.637,0,0,1,0,3.24,40.551,40.551,0,0,1-1.042,6.365,3.26,3.26,0,0,1-.463,1.273,1.5,1.5,0,0,1-1.389,1.157,1.043,1.043,0,0,1-.579-.116,1.155,1.155,0,0,1-.579-.463" transform="translate(4.137)"/>
      <path id="패스_5168" data-name="패스 5168" class="cls-3" d="M14.9,39.7h0c-.116,1.852-.231,3.935-.347,6.134-.116,2.083-.231,4.166-.347,6.134-.116,1.62-.116,3.24-.231,4.745a.352.352,0,0,1,0,.463V58.22c-.116,1.5-.116,2.662-.231,3.472v.81h0v.347c-.116.463-.231.81-.463.81h0c-.116.116-.231.116-.463.231a4.543,4.543,0,0,1-1.62.347c-.463,0-1.042.116-1.5.116H8.421c-.347-.347-.116-.579.347-.694A7.979,7.979,0,0,1,9.925,63.2c.579-.231,1.042-.463,1.5-.694-.116-.694-.347-1.967-.579-4.166,0-.347-.116-.694-.116-1.157-.116-1.389-.347-3.009-.463-4.976-.116-1.852-.231-3.819-.347-6.134V45.6c0-1.273-.231-3.7-.231-5.787,0-1.157-.116-2.2-.116-2.893,0-1.273-.116-2.315-.116-3.356-.116-2.778-.231-4.514-.231-6.134a40.209,40.209,0,0,1,.231-4.976c0-.463.116-.81.116-1.157.116-.926.231-1.852.347-2.662a18.161,18.161,0,0,0-1.389,2.43.4.4,0,0,1-.116.231,12.432,12.432,0,0,0-1.042,6.134c0,1.62.231,3.588.463,6.134a2.876,2.876,0,0,0,.116.926,1.488,1.488,0,0,1-.116.81l-.116.116H7.495c-.463,0-.694-.694-.694-.694a7.191,7.191,0,0,1-.347-1.157,42.158,42.158,0,0,1-1.042-6.134,12.813,12.813,0,0,1,0-3.009,17.82,17.82,0,0,1,.81-3.125,41.611,41.611,0,0,1,1.62-4.051,4.669,4.669,0,0,1,1.852-2.083,4.691,4.691,0,0,1,1.042-.579A4.661,4.661,0,0,0,12.471,13.2a.113.113,0,0,1,.116-.116h0l.347-.347v-.116a5.324,5.324,0,0,1-1.967-3.588,3.144,3.144,0,0,1-.347-1.62,2.548,2.548,0,0,1,.116-.926A4.2,4.2,0,0,1,14.786,2.9a4.179,4.179,0,0,1,3.935,3.24,5.6,5.6,0,0,0-2.662,3.7,3.2,3.2,0,0,0-.116,1.042,6.6,6.6,0,0,0,.116,1.5,6.471,6.471,0,0,0,1.62,3.588v.116c-.116.231-.463.579-1.389,1.042a6.13,6.13,0,0,0-1.157.694,6.023,6.023,0,0,0-2.083,2.43,31.54,31.54,0,0,0-1.62,4.166,15.44,15.44,0,0,0-.81,3.356,14.637,14.637,0,0,0,0,3.24,40.552,40.552,0,0,0,1.042,6.365,7.635,7.635,0,0,0,.463,1.273,1.5,1.5,0,0,0,1.389,1.157,1.043,1.043,0,0,0,.579-.116,1.155,1.155,0,0,0,.579-.463" transform="translate(0.838 0.456)"/>
      <path id="패스_5169" data-name="패스 5169" class="cls-3" d="M9.721,36.918h0c-.116,1.852-.231,3.935-.347,6.134-.116,2.083-.231,4.166-.347,6.134-.116,1.62-.116,3.24-.231,4.745.116.116.116.231,0,.463v1.042c-.116,1.5-.116,2.662-.231,3.472v.81h0v.347c-.116.463-.231.81-.463.81h0c-.116.116-.231.116-.463.231a4.543,4.543,0,0,1-1.62.347c-.463,0-1.042.116-1.5.116H3.24c-.347-.347-.116-.579.347-.694a7.979,7.979,0,0,1,1.157-.463c.579-.231,1.042-.463,1.5-.694-.116-.694-.347-1.967-.579-4.166,0-.347-.116-.694-.116-1.157-.116-1.389-.347-3.009-.463-4.976-.116-1.852-.231-3.819-.347-6.134v-.463c0-1.273-.231-3.7-.231-5.787,0-1.157-.116-2.2-.116-2.893,0-1.273-.116-2.315-.116-3.356-.116-2.778-.231-4.514-.231-6.134a40.209,40.209,0,0,1,.231-4.976c0-.463.116-.81.116-1.157a19.51,19.51,0,0,1,.231-2.893,18.161,18.161,0,0,0-1.389,2.43.4.4,0,0,1-.116.231,12.432,12.432,0,0,0-1.042,6.134c0,1.62.231,3.588.463,6.134a2.876,2.876,0,0,0,.116.926,1.488,1.488,0,0,1-.116.81l-.231.231H2.083c-.463,0-.694-.694-.694-.694a7.191,7.191,0,0,1-.347-1.157A42.158,42.158,0,0,1,0,24.535c0-1.273,0-2.43,0-3.009A17.82,17.82,0,0,1,.81,18.4a41.611,41.611,0,0,1,1.62-4.051,4.669,4.669,0,0,1,1.852-2.083,2.733,2.733,0,0,1,1.042-.694A4.661,4.661,0,0,0,7.06,10.184a.113.113,0,0,1,.116-.116h0l.347-.347V9.606A5.324,5.324,0,0,1,5.555,6.018a6.773,6.773,0,0,1-.231-1.5,2.548,2.548,0,0,1,.116-.926A4.2,4.2,0,0,1,9.49,0a4.179,4.179,0,0,1,3.935,3.24,5.6,5.6,0,0,0-2.662,3.7V7.985a6.6,6.6,0,0,0,.116,1.5,6.471,6.471,0,0,0,1.62,3.588v.116c-.116.231-.463.579-1.389,1.042a6.13,6.13,0,0,0-1.157.694A6.023,6.023,0,0,0,7.87,17.36a31.54,31.54,0,0,0-1.62,4.166,15.439,15.439,0,0,0-.81,3.356,14.637,14.637,0,0,0,0,3.24,40.552,40.552,0,0,0,1.042,6.365,7.636,7.636,0,0,0,.463,1.273,1.5,1.5,0,0,0,1.389,1.157,1.043,1.043,0,0,0,.579-.116,1.155,1.155,0,0,0,.579-.463"/>
      <path id="패스_5170" data-name="패스 5170" class="cls-4" d="M30.028,27.195a17.82,17.82,0,0,0-.81-3.125,41.612,41.612,0,0,0-1.62-4.051,4.669,4.669,0,0,0-1.852-2.083,4.691,4.691,0,0,0-1.042-.579,4.661,4.661,0,0,1-1.736-1.389.113.113,0,0,0-.116-.116h0l-.347-.347V15.39A5.324,5.324,0,0,0,24.473,11.8a5.634,5.634,0,0,0,.116-1.389,2.548,2.548,0,0,0-.116-.926A4.2,4.2,0,0,0,20.422,5.9a4.381,4.381,0,0,0-4.166,4.514,5.635,5.635,0,0,0,.116,1.389,4.861,4.861,0,0,0,1.967,3.588l-.463.463h0l-.116.116a4.406,4.406,0,0,1-.694.579h0a14.43,14.43,0,0,1-3.125,1.389,3.015,3.015,0,0,0-1.273,1.389,45.718,45.718,0,0,0-1.852,4.745,20.87,20.87,0,0,0-.81,3.125,10.618,10.618,0,0,0,.231,3.125,40.168,40.168,0,0,0,1.389,6.134,3.466,3.466,0,0,0,.463,1.157s.347.926.81.579c0,0,.231-.116.231-.926a2.548,2.548,0,0,0-.116-.926c-.231-2.662-.347-4.629-.463-6.134a13.9,13.9,0,0,1,1.042-6.134.4.4,0,0,1,.116-.231q.521-1.042,1.389-2.43c-.116.81-.231,1.736-.347,2.662,0,.347-.116.81-.116,1.157A40.209,40.209,0,0,0,14.4,30.2c0,1.736.116,3.472.231,6.134,0,.926.116,2.083.116,3.356,0,.579,0,1.62.116,2.893.116,2.083.231,4.4.231,5.787v.463c.116,2.315.231,4.4.347,6.134.231,2.546.347,4.629.579,6.134.231,2.2.463,3.588.579,4.166-.463.231-1.042.463-1.5.694a4.836,4.836,0,0,0-1.157.463c-.463.231-.694.463-.347.694h1.157a6.6,6.6,0,0,0,1.5-.116,4.084,4.084,0,0,0,1.62-.347.877.877,0,0,0,.463-.231h0c.116,0,.347-.231.463-.81v-.463c0-.231.116-.579,0-.81,0-.81.116-2.083.231-3.472.116-1.736.231-3.935.347-6.134.116-1.967.231-4.166.347-6.134.116-2.2.231-4.4.347-6.134h0c.116,1.852.231,3.935.347,6.134.116,2.083.231,4.166.347,6.134.116,1.62.116,3.24.231,4.745-.116.116-.116.231,0,.463v1.042c.116,1.5.116,2.662.231,3.472v.81h0v.347c.116.463.231.81.463.81h0c.116.116.231.116.463.231a4.543,4.543,0,0,0,1.62.347c.463,0,1.042.116,1.5.116H26.44c.347-.347.116-.579-.347-.694a7.978,7.978,0,0,0-1.157-.463c-.579-.231-1.042-.463-1.5-.694.116-.694.347-1.967.579-4.166,0-.347.116-.694.116-1.157.116-1.389.347-3.009.463-4.976.116-1.852.231-3.819.347-6.134v-.463c0-1.273.231-3.7.231-5.787,0-1.157.116-2.2.116-2.893,0-1.273.116-2.315.116-3.356.116-2.778.231-4.514.231-6.134a40.208,40.208,0,0,0-.231-4.976c0-.463-.116-.81-.116-1.157-.116-.926-.231-1.852-.347-2.662a18.161,18.161,0,0,1,1.389,2.43.4.4,0,0,0,.116.231A12.432,12.432,0,0,1,27.482,30.2c0,1.62-.231,3.588-.463,6.134a2.876,2.876,0,0,1-.116.926,1.488,1.488,0,0,0,.116.81l.116.116h.231c.463,0,.694-.694.694-.694a7.191,7.191,0,0,0,.347-1.157A42.158,42.158,0,0,0,29.449,30.2,4.555,4.555,0,0,0,30.028,27.195Z" transform="translate(1.567 0.928)"/>
      <path id="패스_5171" data-name="패스 5171" class="cls-3" d="M18.007,15.394c0-.116.116-.116.116-.231L19.28,14.7h.347l1.042.694c.116,0,.116.116.116.231s0,.231-.116.231l-1.157,1.5,1.157,7.985v.231l-1.157,1.967a.425.425,0,0,1-.347.116h0c-.116,0-.116-.116-.231-.231l-.926-2.083v-.231l.926-7.754-.926-1.736A.16.16,0,0,1,18.007,15.394Z" transform="translate(2.825 2.313)"/>
    </g>
    <g id="그룹_1352" data-name="그룹 1352" transform="translate(132 3600.2)">
      <path id="패스_5173" data-name="패스 5173" class="cls-4" d="M51.7,64.789a2.579,2.579,0,0,1-2.641,2.641H2.641A2.657,2.657,0,0,1,0,64.789V5.041A2.579,2.579,0,0,1,2.641,2.4H49.056A2.579,2.579,0,0,1,51.7,5.041Z" transform="translate(0 0.619)"/>
      <path id="패스_5174" data-name="패스 5174" class="cls-3" d="M47.151,60.723a2.579,2.579,0,0,1-2.641,2.641H5.641A2.579,2.579,0,0,1,3,60.723V7.641A2.579,2.579,0,0,1,5.641,5H44.509a2.579,2.579,0,0,1,2.641,2.641Z" transform="translate(0.774 1.289)"/>
      <path id="패스_5175" data-name="패스 5175" class="cls-4" d="M35.025,6.163A2.579,2.579,0,0,1,32.383,8.8H13.641A2.577,2.577,0,0,1,11,6.163V2.641A2.657,2.657,0,0,1,13.641,0H32.383a2.579,2.579,0,0,1,2.641,2.641Z" transform="translate(2.836)"/>
      <path id="패스_5176" data-name="패스 5176" class="cls-7" d="M12.341,21.973H7.309A1.453,1.453,0,0,1,5.8,20.463V15.809A1.453,1.453,0,0,1,7.309,14.3h5.031a1.453,1.453,0,0,1,1.509,1.509v4.654A1.53,1.53,0,0,1,12.341,21.973ZM7.309,15.18a.594.594,0,0,0-.629.629v4.654a.594.594,0,0,0,.629.629h5.031a.594.594,0,0,0,.629-.629V15.809a.594.594,0,0,0-.629-.629H7.309Z" transform="translate(1.496 3.687)"/>
      <path id="패스_5177" data-name="패스 5177" class="cls-7" d="M12.341,32.373H7.309A1.453,1.453,0,0,1,5.8,30.863V26.209A1.453,1.453,0,0,1,7.309,24.7h5.031a1.453,1.453,0,0,1,1.509,1.509v4.654A1.53,1.53,0,0,1,12.341,32.373ZM7.309,25.58a.594.594,0,0,0-.629.629v4.654a.594.594,0,0,0,.629.629h5.031a.594.594,0,0,0,.629-.629V26.209a.594.594,0,0,0-.629-.629Z" transform="translate(1.496 6.369)"/>
      <path id="패스_5178" data-name="패스 5178" class="cls-7" d="M12.341,42.773H7.309A1.453,1.453,0,0,1,5.8,41.263V36.609A1.453,1.453,0,0,1,7.309,35.1h5.031a1.453,1.453,0,0,1,1.509,1.509v4.654A1.53,1.53,0,0,1,12.341,42.773ZM7.309,35.98a.594.594,0,0,0-.629.629v4.654a.594.594,0,0,0,.629.629h5.031a.594.594,0,0,0,.629-.629V36.609a.594.594,0,0,0-.629-.629Z" transform="translate(1.496 9.051)"/>
      <path id="패스_5179" data-name="패스 5179" class="cls-7" d="M39.738,19.106H14.2a.5.5,0,0,1,0-1.006H39.738a.541.541,0,0,1,.5.5C40.241,18.98,40.115,19.106,39.738,19.106Z" transform="translate(3.533 4.667)"/>
      <path id="패스_5180" data-name="패스 5180" class="cls-7" d="M39.738,29.506H14.2a.5.5,0,0,1,0-1.006H39.738a.541.541,0,0,1,.5.5C40.241,29.38,40.115,29.506,39.738,29.506Z" transform="translate(3.533 7.349)"/>
      <path id="패스_5181" data-name="패스 5181" class="cls-7" d="M39.738,39.906H14.2a.5.5,0,0,1,0-1.006H39.738a.541.541,0,0,1,.5.5C40.241,39.78,40.115,39.906,39.738,39.906Z" transform="translate(3.533 10.03)"/>
      <path id="패스_5182" data-name="패스 5182" class="cls-5" d="M10.5,19.116h0a.761.761,0,0,1-.755-.377l-2.516-3.4a.861.861,0,0,1,.252-1.258.861.861,0,0,1,1.258.252l2.013,2.641,5.66-5.031a.894.894,0,1,1,1.132,1.384l-6.415,5.786C10.882,18.991,10.63,19.116,10.5,19.116Z" transform="translate(1.823 3.022)"/>
      <path id="패스_5183" data-name="패스 5183" class="cls-5" d="M10.5,28.468h0a.761.761,0,0,1-.755-.377l-2.516-3.4a.861.861,0,0,1,.252-1.258.861.861,0,0,1,1.258.252l1.887,2.39,5.66-5.031a.894.894,0,0,1,1.132,1.384l-6.415,5.786A.954.954,0,0,1,10.5,28.468Z" transform="translate(1.823 5.368)"/>
      <g id="그룹_1347" data-name="그룹 1347" transform="translate(16.101 3.145)">
        <g id="그룹_1345" data-name="그룹 1345" class="cls-8" transform="translate(0.377 0.377)">
          <circle id="타원_137" data-name="타원 137" class="cls-9" cx="1.258" cy="1.258" r="1.258"/>
        </g>
        <g id="그룹_1346" data-name="그룹 1346">
          <circle id="타원_138" data-name="타원 138" class="cls-3" cx="1.258" cy="1.258" r="1.258"/>
        </g>
      </g>
      <g id="그룹_1350" data-name="그룹 1350" transform="translate(32.956 3.145)">
        <g id="그룹_1348" data-name="그룹 1348" class="cls-8" transform="translate(0.377 0.377)">
          <circle id="타원_139" data-name="타원 139" class="cls-9" cx="1.258" cy="1.258" r="1.258"/>
        </g>
        <g id="그룹_1349" data-name="그룹 1349">
          <circle id="타원_140" data-name="타원 140" class="cls-3" cx="1.258" cy="1.258" r="1.258"/>
        </g>
      </g>
      <g id="그룹_1351" data-name="그룹 1351" transform="translate(21.761 26.792)">
        <path id="패스_5184" data-name="패스 5184" class="cls-5" d="M17.3,21.3l1.132,1.761,1.006-1.509Z" transform="translate(-17.3 -21.3)"/>
        <path id="패스_5185" data-name="패스 5185" class="cls-3" d="M23.106,22l-3.9-.5L18.2,23.009l2.264,3.27Z" transform="translate(-17.068 -21.248)"/>
        <path id="패스_5186" data-name="패스 5186" class="cls-3" d="M51.778,44.461a.819.819,0,0,1-1.132.252l-2.767-1.635a.819.819,0,0,1-.252-1.132l1.635-2.767a.819.819,0,0,1,1.132-.252l2.767,1.635a.819.819,0,0,1,.252,1.132Z" transform="translate(-9.514 -16.789)"/>
        <rect id="사각형_492" data-name="사각형 492" class="cls-3" width="5.031" height="1.006" transform="translate(28.015 19.931) rotate(-58.627)"/>
        <rect id="사각형_493" data-name="사각형 493" class="cls-3" width="5.031" height="1.006" transform="matrix(0.52, -0.854, 0.854, 0.52, 16.622, 12.988)"/>
        <path id="패스_5187" data-name="패스 5187" class="cls-10" d="M18.2,22.955l2.264,3.27,1.258-2.138L18.7,22.2Z" transform="translate(-17.068 -21.068)"/>
        <path id="패스_5188" data-name="패스 5188" class="cls-10" d="M48.507,40.3l-.88,1.384a.819.819,0,0,0,.252,1.132l2.767,1.635a.819.819,0,0,0,1.132-.252l.881-1.384Z" transform="translate(-9.514 -16.401)"/>
        <path id="패스_5189" data-name="패스 5189" class="cls-5" d="M57.987,44.919h0l.629-1.006L22.641,21.9l-1.132.755-1.384,2.264h.126L20,26.177,55.975,48.063l.629-.88h.126Z" transform="translate(-16.604 -21.145)"/>
        <path id="패스_5190" data-name="패스 5190" class="cls-11" d="M20.881,23.4l-.755,1.132h.126L20,25.79,55.975,47.677l.629-.88h.126l.629-1.132Z" transform="translate(-16.604 -20.759)"/>
        <rect id="사각형_494" data-name="사각형 494" class="cls-7" width="5.031" height="1.006" transform="matrix(0.52, -0.854, 0.854, 0.52, 39.415, 26.88)"/>
      </g>
    </g>
    <g id="그룹_1353" data-name="그룹 1353" transform="translate(132 3802)">
      <path id="패스_5191" data-name="패스 5191" class="cls-3" d="M51.692,3.1A3.046,3.046,0,0,0,48.6,0H3.1A3.046,3.046,0,0,0,0,3.1V65.153a3.046,3.046,0,0,0,3.1,3.1H40.25L51.692,55.057Z"/>
      <path id="패스_5192" data-name="패스 5192" class="cls-4" d="M41.342,40.9H33A3.046,3.046,0,0,0,29.9,44v10.1Z" transform="translate(10.35 14.157)"/>
      <circle id="타원_141" data-name="타원 141" class="cls-12" cx="13.327" cy="13.327" r="13.327" transform="translate(12.923 7.673)"/>
      <circle id="타원_142" data-name="타원 142" class="cls-5" cx="13.058" cy="13.058" r="13.058" transform="translate(12.115 7.135)"/>
      <circle id="타원_143" data-name="타원 143" class="cls-5" cx="12.115" cy="12.115" r="12.115" transform="translate(13.058 8.077)"/>
      <text id="_" data-name="$" class="cls-13" transform="translate(20.178 23.677)"><tspan x="0" y="0">$</tspan></text>
      <rect id="사각형_495" data-name="사각형 495" class="cls-4" width="30.154" height="2.019" transform="translate(5.25 37.961)"/>
      <rect id="사각형_496" data-name="사각형 496" class="cls-4" width="41.192" height="2.019" transform="translate(5.25 41.461)"/>
      <rect id="사각형_497" data-name="사각형 497" class="cls-4" width="35.404" height="2.019" transform="translate(5.25 45.096)"/>
      <rect id="사각형_498" data-name="사각형 498" class="cls-4" width="41.192" height="2.019" transform="translate(5.25 48.596)"/>
      <rect id="사각형_499" data-name="사각형 499" class="cls-4" width="41.192" height="2.019" transform="translate(5.25 52.096)"/>
      <rect id="사각형_500" data-name="사각형 500" class="cls-4" width="23.558" height="2.019" transform="translate(5.25 55.73)"/>
    </g>
    <g id="그룹_1369" data-name="그룹 1369" transform="translate(-10576.111 -2178.723)">
      <g id="그룹_1340" data-name="그룹 1340" transform="translate(10725.567 6168.1)">
        <path id="패스_5110" data-name="패스 5110" class="cls-14" d="M105.49,74.881l.261,4.075L99.9,80.784l1.149-6.008a10.4,10.4,0,0,1,4.441-.157" transform="translate(-85.22 -35.542)"/>
        <path id="패스_5111" data-name="패스 5111" class="cls-15" d="M82.772,83.2s.94,12.068,12.068,10.658l-5.694,8.725s-14.053-.627-12.173-17.554Z" transform="translate(-62.241 -39.734)"/>
        <path id="패스_5112" data-name="패스 5112" class="cls-3" d="M96.69,93.231a21.165,21.165,0,0,1-.522-8.2l5.851-1.828a15.879,15.879,0,0,0,2.037,6.217,3.1,3.1,0,0,0-3.709,1.829s-1.1,1.776-2.351,1.881Z" transform="translate(-81.487 -39.734)"/>
        <path id="패스_5113" data-name="패스 5113" class="cls-4" d="M12.112,22s8.986.731,10.866,31.868c0,0,0,4.023,3.6,3.709A2.213,2.213,0,0,1,28.83,59.51c.313,2.4-2.612,2.717-4.336,2.612a13.244,13.244,0,0,1-1.515-.209c-5.433-1.463-5.277-7.262-5.851-11.755-.731-5.433-.731-10.814-2.821-15.882C13,31.195,10.65,29.053,8.455,26.493Z" transform="translate(39.451 -10.507)"/>
        <path id="패스_5114" data-name="패스 5114" class="cls-15" d="M26.549,35.159c4.963-6.217,8.359-10.4,15.307-15.412.261-.157,7.732-5.538,7.941-5.277A15.2,15.2,0,0,1,47.812.261c7.575,3.6,8.62,10.031,8.62,10.031l1.829.157c5.538.731,6.269.47,6.269.47A18.357,18.357,0,0,1,73.776,0c5.538,10.292-3.448,17.5-3.448,17.5,6.739,3.4,7.784,32.077,7.784,32.129l1.411,35.682.418,6.739s2.664,21.42-25.651,18.546a12.865,12.865,0,0,1-5.068-1.985,16.237,16.237,0,0,1-7.575-9.09,23.812,23.812,0,0,1-.731-4.7,27.5,27.5,0,0,1,0-5.485c.052-.261.47-2.926.627-3.239L45.2,65.878c.993-4.911,1.933-9.769,2.926-14.68.836-3.344.679-3.4.836-3.5-4.232,1.672-9.508,1.776-14,1.463a9.32,9.32,0,0,1-6.217-3.135c-1.254-1.254-3.239-3.814-3.5-5.642a6.505,6.505,0,0,1,1.306-5.224" transform="translate(-20.436 0)"/>
        <path id="패스_5115" data-name="패스 5115" class="cls-3" d="M78.933,4.3s-1.306,6.321,1.776,10.031S82.9,7.591,78.933,4.3" transform="translate(-50.931 -2.054)"/>
        <path id="패스_5116" data-name="패스 5116" class="cls-3" d="M41.137,4.8s1.985,6.53-2.246,11.546C35.181,20.734,36.383,8.77,41.137,4.8" transform="translate(11.942 -2.292)"/>
        <path id="패스_5117" data-name="패스 5117" class="cls-16" d="M103.3,59.4h0c-.052.1-.1.1-.1.1l.1-.1" transform="translate(-84.497 -28.368)"/>
        <path id="패스_5118" data-name="패스 5118" class="cls-4" d="M59.489,33.459a1.1,1.1,0,0,1-.993-1.149l.052-.627V31.63c.313-2.4,1.2-3.918,4.336-3.657l3.082.261a1.074,1.074,0,0,1-.157,2.142l-3.082-.261c-1.463-.1-1.776,0-2.037,1.776l-.052.575a1.1,1.1,0,0,1-1.149.993" transform="translate(-24.8 -13.345)"/>
        <path id="패스_5119" data-name="패스 5119" class="cls-4" d="M56.089,29.4a1.1,1.1,0,0,1-.993-1.149l.052-.575v-.052a5.791,5.791,0,0,1,6.374-5.329l5.642.418a1.074,1.074,0,0,1-.157,2.142l-5.59-.47c-2.926-.157-3.866,1.776-4.127,3.448l-.052.575a1.059,1.059,0,0,1-1.149.993" transform="translate(-24.221 -10.642)"/>
        <path id="패스_5120" data-name="패스 5120" class="cls-4" d="M52.289,25.4a1.1,1.1,0,0,1-.993-1.149v-.313a7.832,7.832,0,0,1,8.411-7.157l8.359.679A1.074,1.074,0,0,1,67.91,19.6l-8.359-.679a5.626,5.626,0,0,0-6.06,5.172v.313a1.145,1.145,0,0,1-1.2.993" transform="translate(-23.138 -8.004)"/>
        <path id="패스_5121" data-name="패스 5121" class="cls-3" d="M82.2,53.278a.626.626,0,0,0,.209-.209c.836-.731,3.866-3.135,3.4-5.8,0,0,3.239-.313,8.254-3.97,0,0-4.7,3.6-3.135,6.321,0,.052-3.552,0-8.725,3.657" transform="translate(-64.281 -20.679)"/>
        <path id="패스_5122" data-name="패스 5122" class="cls-14" d="M4.44,77.159,3.5,81.182,8.985,83.9l-.157-6.112a9.507,9.507,0,0,0-4.388-.836" transform="translate(61.908 -36.724)"/>
        <path id="패스_5123" data-name="패스 5123" class="cls-15" d="M17.135,85S14.262,96.755,3.5,93.516l4.179,9.56s13.949,1.672,14.889-15.307Z" transform="translate(48.325 -40.594)"/>
        <path id="패스_5124" data-name="패스 5124" class="cls-3" d="M10.135,95.762a20.273,20.273,0,0,0,1.828-7.993L6.53,85A15.759,15.759,0,0,1,3.5,90.8a3.122,3.122,0,0,1,3.4,2.455s.836,1.933,2.037,2.246Z" transform="translate(58.93 -40.594)"/>
        <path id="패스_5125" data-name="패스 5125" class="cls-3" d="M34.138,109.589h0a.382.382,0,0,1-.313-.366,1.15,1.15,0,0,0-.052-.418.33.33,0,0,1,.627-.209,1.926,1.926,0,0,1,.052.784c0,.1-.157.209-.313.209" transform="translate(20.612 -51.756)"/>
        <path id="패스_5126" data-name="패스 5126" class="cls-3" d="M39.938,94.941h0a.4.4,0,0,1-.313-.418,1.15,1.15,0,0,0-.052-.418A.33.33,0,0,1,40.2,93.9a1.992,1.992,0,0,1,.052.784c0,.209-.157.261-.313.261" transform="translate(11.782 -44.736)"/>
        <path id="패스_5127" data-name="패스 5127" class="cls-3" d="M33.338,95.541h0a.4.4,0,0,1-.313-.418,1.15,1.15,0,0,0-.052-.418A.33.33,0,0,1,33.6,94.5a1.925,1.925,0,0,1,.052.784.293.293,0,0,1-.313.261" transform="translate(21.83 -45.023)"/>
        <path id="패스_5128" data-name="패스 5128" class="cls-3" d="M41.038,88.741h0a.4.4,0,0,1-.313-.418,1.15,1.15,0,0,0-.052-.418A.33.33,0,1,1,41.3,87.7a1.925,1.925,0,0,1,.052.784.293.293,0,0,1-.313.261" transform="translate(10.108 -41.775)"/>
        <path id="패스_5129" data-name="패스 5129" class="cls-3" d="M34.338,81.541h0a.4.4,0,0,1-.313-.418,1.15,1.15,0,0,0-.052-.418A.33.33,0,0,1,34.6,80.5a1.925,1.925,0,0,1,.052.784.293.293,0,0,1-.313.261" transform="translate(20.308 -38.337)"/>
        <path id="패스_5130" data-name="패스 5130" class="cls-3" d="M36.338,91.489h0a.382.382,0,0,1-.313-.366,1.151,1.151,0,0,0-.052-.418A.33.33,0,1,1,36.6,90.5a1.925,1.925,0,0,1,.052.784.257.257,0,0,1-.313.209" transform="translate(17.263 -43.112)"/>
        <path id="패스_5131" data-name="패스 5131" class="cls-3" d="M37.038,76.537h0a.4.4,0,0,1-.313-.418,1.15,1.15,0,0,0-.052-.418.355.355,0,0,1,.209-.418.312.312,0,0,1,.418.209,1.992,1.992,0,0,1,.052.784.331.331,0,0,1-.313.261" transform="translate(16.197 -35.944)"/>
        <path id="패스_5132" data-name="패스 5132" class="cls-3" d="M39.238,82.241h0a.4.4,0,0,1-.313-.418,1.15,1.15,0,0,0-.052-.418A.33.33,0,0,1,39.5,81.2a1.925,1.925,0,0,1,.052.784c0,.209-.1.313-.313.261" transform="translate(12.848 -38.671)"/>
        <path id="패스_5133" data-name="패스 5133" class="cls-3" d="M36.438,85.841h0a.4.4,0,0,1-.313-.418,1.15,1.15,0,0,0-.052-.418A.33.33,0,0,1,36.7,84.8a1.925,1.925,0,0,1,.052.784c0,.157-.1.261-.313.261" transform="translate(17.111 -40.39)"/>
        <path id="패스_5134" data-name="패스 5134" class="cls-3" d="M35.438,100.041h0a.4.4,0,0,1-.313-.418,1.15,1.15,0,0,0-.052-.418A.33.33,0,0,1,35.7,99a1.925,1.925,0,0,1,.052.784.262.262,0,0,1-.313.261" transform="translate(18.633 -47.172)"/>
        <path id="패스_5135" data-name="패스 5135" class="cls-3" d="M37.738,106.041h0a.4.4,0,0,1-.313-.418,1.15,1.15,0,0,0-.052-.418A.33.33,0,0,1,38,105a1.926,1.926,0,0,1,.052.784.293.293,0,0,1-.313.261" transform="translate(15.132 -50.037)"/>
        <path id="패스_5136" data-name="패스 5136" class="cls-3" d="M33.338,104.341h0a.4.4,0,0,1-.313-.418,1.15,1.15,0,0,0-.052-.418.33.33,0,1,1,.627-.209,1.925,1.925,0,0,1,.052.784.293.293,0,0,1-.313.261" transform="translate(21.83 -49.225)"/>
        <path id="패스_5137" data-name="패스 5137" class="cls-3" d="M40.643,101.441h0a.4.4,0,0,1-.313-.418,1.15,1.15,0,0,0-.052-.418.312.312,0,0,1,.209-.418.355.355,0,0,1,.418.209,1.925,1.925,0,0,1,.052.784.293.293,0,0,1-.313.261" transform="translate(10.711 -47.84)"/>
        <path id="패스_5138" data-name="패스 5138" class="cls-3" d="M76.844,151.1a.347.347,0,0,1-.261-.209c-.052-.1-.209-.261-.261-.366a.341.341,0,0,1,.366-.575,1.332,1.332,0,0,1,.47.627A.329.329,0,0,1,77,151c-.052.1-.1.1-.157.1" transform="translate(-44.244 -71.586)"/>
        <path id="패스_5139" data-name="패스 5139" class="cls-3" d="M82.1,150.5a.347.347,0,0,1-.261-.209,2.211,2.211,0,0,0-.261-.366.341.341,0,1,1,.366-.575,1.332,1.332,0,0,1,.47.627.289.289,0,0,1-.157.418c-.052.052-.1.1-.157.1" transform="translate(-52.27 -71.3)"/>
        <path id="패스_5140" data-name="패스 5140" class="cls-3" d="M81.744,139a.347.347,0,0,1-.261-.209,2.211,2.211,0,0,0-.261-.366.341.341,0,1,1,.366-.575,1.332,1.332,0,0,1,.47.627.329.329,0,0,1-.157.418c-.052.1-.1.1-.157.1" transform="translate(-51.704 -65.808)"/>
        <path id="패스_5141" data-name="패스 5141" class="cls-3" d="M77.621,145.231a.347.347,0,0,1-.261-.209,1.587,1.587,0,0,0-.261-.366.4.4,0,0,1-.1-.47.331.331,0,0,1,.47-.052,1.333,1.333,0,0,1,.47.627.329.329,0,0,1-.157.418.192.192,0,0,1-.157.052" transform="translate(-45.439 -68.799)"/>
        <path id="패스_5142" data-name="패스 5142" class="cls-3" d="M81.61,144.3a.347.347,0,0,1-.261-.209,1.587,1.587,0,0,0-.261-.366.331.331,0,0,1-.052-.47.34.34,0,0,1,.47-.1,1.332,1.332,0,0,1,.47.627.329.329,0,0,1-.157.418c-.1.1-.157.1-.209.1" transform="translate(-51.57 -68.339)"/>
        <path id="패스_5143" data-name="패스 5143" class="cls-3" d="M76.844,140.6a.347.347,0,0,1-.261-.209c-.052-.1-.209-.261-.261-.366a.341.341,0,0,1,.366-.575,1.972,1.972,0,0,1,.522.627.329.329,0,0,1-.157.418.209.209,0,0,1-.209.1" transform="translate(-44.297 -66.572)"/>
        <path id="패스_5144" data-name="패스 5144" class="cls-3" d="M73.144,149.531a.267.267,0,0,1-.261-.209,2.212,2.212,0,0,0-.261-.366.34.34,0,0,1-.1-.47.331.331,0,0,1,.47-.052,1.332,1.332,0,0,1,.47.627.329.329,0,0,1-.157.418.192.192,0,0,1-.157.052" transform="translate(-38.611 -70.853)"/>
        <path id="패스_5145" data-name="패스 5145" class="cls-15" d="M15.1,196.663l16.979,11.076,2.612-3.448L22.884,188.2Z" transform="translate(30.142 -89.879)"/>
        <path id="패스_5146" data-name="패스 5146" class="cls-3" d="M19.393,207.6a3.066,3.066,0,0,1-2.664,3.344s-2.246.313-1.463,2.246L21.117,217l2.612-3.448Z" transform="translate(41.104 -99.144)"/>
        <path id="패스_5147" data-name="패스 5147" class="cls-14" d="M2.612,219l7.889,1.776-6.53,6.635L0,222.448Z" transform="translate(62.221 -104.588)"/>
        <path id="패스_5148" data-name="패스 5148" class="cls-15" d="M104.654,189.81,84.8,193.937l-1.2-4.127,16.874-10.71Z" transform="translate(-75.607 -85.533)"/>
        <path id="패스_5149" data-name="패스 5149" class="cls-3" d="M113.84,192a3.059,3.059,0,0,0,1.254,4.075s1.985,1.149.522,2.612l-6.844,1.411-1.2-4.127Z" transform="translate(-99.63 -91.694)"/>
        <path id="패스_5150" data-name="패스 5150" class="cls-14" d="M129.593,198.5l-7.993-1.2,3.709,8.516,5.485-3.187Z" transform="translate(-121.6 -94.225)"/>
        <path id="패스_5151" data-name="패스 5151" class="cls-4" d="M114.622,77.9l.261-.157a.755.755,0,0,0,.366-.522.9.9,0,0,0-.1-.627l-.052-.052a.89.89,0,0,0-1.149-.261l-.052.052-.261.157a.413.413,0,0,1-.47-.679l.261-.157h0l.1-.052a1.712,1.712,0,0,1,2.246.522c0,.052.052.052.052.1a1.719,1.719,0,0,1-.575,2.246l-.261.157a.463.463,0,0,1-.575-.1.763.763,0,0,1,.209-.627" transform="translate(-102.345 -36.005)"/>
        <path id="패스_5152" data-name="패스 5152" class="cls-4" d="M122.8,71.5l.157-.261a.9.9,0,0,0,.1-.627.883.883,0,0,0-.366-.522l-.052-.052a.9.9,0,0,0-1.149.261l-.052.052-.157.261a.421.421,0,1,1-.731-.418l.157-.261h0l.052-.1a1.725,1.725,0,0,1,2.246-.522c.052,0,.052.052.1.052a1.737,1.737,0,0,1,.47,2.3l-.157.261a.42.42,0,0,1-.575.157.546.546,0,0,1-.052-.575" transform="translate(-114.078 -32.997)"/>
        <path id="패스_5153" data-name="패스 5153" class="cls-14" d="M94.13,41.885l.157-.313a1.044,1.044,0,0,0,.1-.679.958.958,0,0,0-.366-.522l-.052-.052a.868.868,0,0,0-1.2.313l-.052.052h0L92.563,41a.457.457,0,0,1-.784-.47l.157-.261c0-.052.052-.052.052-.1a1.817,1.817,0,0,1,2.4-.575c.052,0,.052.052.1.052a2.052,2.052,0,0,1,.784,1.1,1.681,1.681,0,0,1-.209,1.306l-.157.261a.437.437,0,0,1-.627.157c-.209-.052-.261-.313-.157-.575" transform="translate(-70.516 -18.793)"/>
        <path id="패스_5154" data-name="패스 5154" class="cls-14" d="M74.818,51.468l.209-.313a1.344,1.344,0,0,0,.052-.784,1.04,1.04,0,0,0-.418-.627l-.052-.052A1.06,1.06,0,0,0,73.251,50l-.052.052-.157.313a.5.5,0,1,1-.888-.47l.209-.313c0-.052.052-.052.052-.1a1.987,1.987,0,0,1,2.664-.627c.052,0,.052.052.1.052a1.967,1.967,0,0,1,.836,1.2,2.077,2.077,0,0,1-.209,1.463l-.157.313a.514.514,0,0,1-.679.209.437.437,0,0,1-.157-.627" transform="translate(-41.017 -23.204)"/>
      </g>
      <g id="그룹_1341" data-name="그룹 1341" transform="translate(10717 6182.874)">
        <path id="패스_5155" data-name="패스 5155" class="cls-17" d="M12.3,5.573a7.156,7.156,0,0,0-1.56-4.551,2.531,2.531,0,0,0-4.551.91c-.065.2-.52,2.081-.585,2.081-1.365-.065-2.926-.325-4.226.325-2.6,1.365-.91,4.031.585,5.332a7.452,7.452,0,0,0,6.567,1.951c2.731-.65,3.836-3.511,3.771-6.047" transform="translate(-0.02 0.055)"/>
        <path id="패스_5156" data-name="패스 5156" class="cls-3" d="M3.33,9.915A.715.715,0,1,1,2.615,9.2a.722.722,0,0,1,.715.715" transform="translate(-0.678 -3.183)"/>
      </g>
      <g id="그룹_1356" data-name="그룹 1356" transform="translate(10740.406 6218.751)">
        <rect id="사각형_501" data-name="사각형 501" class="cls-3" width="32.315" height="18.791" transform="translate(0.65 18.141)"/>
        <path id="패스_5193" data-name="패스 5193" class="cls-12" d="M32.965,46.991H.65a.614.614,0,0,1-.65-.65V27.55a.614.614,0,0,1,.65-.65H32.965a.614.614,0,0,1,.65.65V46.341A.652.652,0,0,1,32.965,46.991ZM1.3,45.691H32.315V28.2H1.3Z" transform="translate(0 -9.41)"/>
        <rect id="사각형_502" data-name="사각형 502" class="cls-18" width="9.558" height="11.964" transform="translate(2.926 21.196)"/>
        <path id="패스_5194" data-name="패스 5194" class="cls-12" d="M26.342,26.372a.614.614,0,0,1-.65-.65V21.5a1.5,1.5,0,1,0-2.991,0v4.291a.65.65,0,0,1-1.3,0V21.5a2.8,2.8,0,1,1,5.592,0v4.291A.6.6,0,0,1,26.342,26.372Z" transform="translate(-7.486 -6.541)"/>
        <path id="패스_5195" data-name="패스 5195" class="cls-19" d="M20,6.092V.7a.2.2,0,1,1,.39,0v5.4a1.43,1.43,0,0,0,2.861,0V4.726a1.821,1.821,0,1,1,3.641,0v8.648a1.817,1.817,0,0,1-1.821,1.821,1.751,1.751,0,0,1-1.56-.91c-.065-.065,0-.2.065-.26s.2,0,.26.065a1.394,1.394,0,0,0,1.235.715,1.443,1.443,0,0,0,1.43-1.43V4.726a1.43,1.43,0,1,0-2.861,0v1.3a1.817,1.817,0,0,1-1.821,1.821A1.725,1.725,0,0,1,20,6.092Z" transform="translate(-6.996 -0.175)"/>
        <path id="패스_5196" data-name="패스 5196" class="cls-3" d="M24.8,15.345a2.108,2.108,0,0,1-1.886-1.105.825.825,0,0,1-.065-.39.649.649,0,0,1,.26-.325.539.539,0,0,1,.715.2,1.208,1.208,0,0,0,.975.585A1.139,1.139,0,0,0,25.9,13.2V4.551a1.105,1.105,0,1,0-2.211,0v1.3a2.146,2.146,0,0,1-4.291,0V.52A.559.559,0,0,1,19.92,0a.513.513,0,0,1,.52.52v5.4a1.105,1.105,0,1,0,2.211,0V4.551A2.165,2.165,0,0,1,24.8,2.406a2.209,2.209,0,0,1,2.146,2.146V13.2A2.165,2.165,0,0,1,24.8,15.345Z" transform="translate(-6.786)"/>
        <g id="그룹_1354" data-name="그룹 1354" class="cls-20" transform="translate(21.717 25.553)">
          <path id="패스_5197" data-name="패스 5197" class="cls-12" d="M45.1,45.217c0,.065-.65.13-.65.2s.65.2.65.26-.65.065-.65.13.65.26.585.325c0,.065-.65,0-.65.13,0,.065.585.325.585.39s-.65,0-.715.065c0,.065.585.325.52.39,0,.065-.65-.065-.715,0,0,.065.52.39.52.455s-.65-.13-.715-.065.52.455.455.52-.65-.2-.65-.13c-.065.065.455.455.455.52-.065.065-.65-.26-.65-.2-.065.065.455.52.39.585s-.585-.325-.65-.26.39.52.325.585-.585-.325-.65-.26.325.585.26.65-.52-.39-.585-.325.325.585.26.65-.52-.455-.585-.39.26.65.2.65c-.065.065-.455-.455-.52-.455-.065.065.2.65.13.65-.065.065-.455-.52-.52-.455s.13.65.065.715c-.065,0-.39-.52-.455-.52s.065.65,0,.715c-.065,0-.325-.585-.39-.585s0,.65-.065.715c-.065,0-.26-.585-.39-.585-.065,0,0,.65-.13.65-.065,0-.26-.65-.325-.585-.065,0-.065.65-.13.65s-.2-.65-.26-.65-.13.65-.2.65-.13-.65-.2-.65-.2.65-.26.65-.065-.65-.13-.65-.26.65-.325.585c-.065,0,0-.65-.13-.65-.065,0-.325.585-.39.585s0-.65-.065-.715c-.065,0-.325.585-.39.52-.065,0,.065-.65,0-.715-.065,0-.39.52-.455.52s.13-.65.065-.715-.455.52-.52.455.2-.65.13-.65c-.065-.065-.455.455-.52.455-.065-.065.26-.65.2-.65-.065-.065-.52.455-.585.39s.325-.585.26-.65-.52.39-.585.325.325-.585.26-.65-.585.325-.65.26.39-.52.325-.585-.585.325-.65.26.455-.52.39-.585-.65.26-.65.2c-.065-.065.455-.455.455-.52-.065-.065-.65.2-.65.13-.065-.065.52-.455.455-.52s-.65.13-.715.065c0-.065.52-.39.52-.455s-.65.065-.715,0c0-.065.585-.325.52-.39,0-.065-.65,0-.715-.065,0-.065.585-.26.585-.39,0-.065-.65,0-.65-.13,0-.065.65-.26.585-.325,0-.065-.65-.065-.65-.13s.65-.2.65-.26-.65-.13-.65-.2.65-.13.65-.2-.65-.2-.65-.26.65-.065.65-.13-.65-.26-.585-.325c0-.065.65,0,.65-.13,0-.065-.585-.325-.585-.39s.65,0,.715-.065c0-.065-.585-.325-.52-.39,0-.065.65.065.715,0,0-.065-.52-.39-.52-.455s.65.13.715.065-.52-.455-.455-.52.65.2.65.13c.065-.065-.455-.455-.455-.52.065-.065.65.26.65.2.065-.065-.455-.52-.39-.585s.585.325.65.26-.39-.52-.325-.585.585.325.65.26-.325-.585-.26-.65.52.39.585.325-.325-.585-.26-.65.52.455.585.39-.26-.65-.2-.65c.065-.065.455.455.52.455.065-.065-.2-.65-.13-.65.065-.065.455.52.52.455s-.13-.65-.065-.715c.065,0,.39.52.455.52s-.065-.65,0-.715c.065,0,.325.585.39.52.065,0,0-.65.065-.715.065,0,.26.585.39.585.065,0,0-.65.13-.65.065,0,.26.65.325.585.065,0,.065-.65.13-.65s.2.65.26.65.13-.65.2-.65.13.65.2.65.2-.65.26-.65.065.65.13.65.26-.65.325-.585c.065,0,0,.65.13.65.065,0,.325-.585.39-.585s0,.65.065.715c.065,0,.325-.585.39-.52.065,0-.065.65,0,.715.065,0,.39-.52.455-.52s-.13.65-.065.715.455-.52.52-.455-.2.65-.13.65c.065.065.455-.455.52-.455.065.065-.26.65-.2.65.065.065.52-.455.585-.39s-.325.585-.26.65.52-.39.585-.325-.325.585-.26.65.585-.325.65-.26-.39.52-.325.585.585-.325.65-.26-.455.52-.39.585.65-.26.65-.2c.065.065-.455.455-.455.52.065.065.65-.2.65-.13.065.065-.52.455-.455.52s.65-.13.715-.065c0,.065-.52.39-.52.455s.65-.065.715,0c0,.065-.585.325-.52.39,0,.065.65,0,.715.065,0,.065-.585.26-.585.39,0,.065.65,0,.65.13,0,.065-.65.26-.585.325,0,.065.65.065.65.13s-.65.2-.65.26S45.1,45.087,45.1,45.217Z" transform="translate(-33.4 -39.3)"/>
        </g>
        <circle id="타원_144" data-name="타원 144" class="cls-21" cx="3.381" cy="3.381" r="3.381" transform="translate(24.317 28.089)"/>
        <rect id="사각형_503" data-name="사각형 503" class="cls-19" width="15.085" height="1.235" transform="translate(13.979 21.522)"/>
        <rect id="사각형_504" data-name="사각형 504" class="cls-19" width="12.224" height="1.235" transform="translate(13.979 24.252)"/>
        <rect id="사각형_505" data-name="사각형 505" class="cls-19" width="15.02" height="1.235" transform="translate(13.979 29.779)"/>
        <rect id="사각형_506" data-name="사각형 506" class="cls-19" width="7.672" height="1.235" transform="translate(13.979 27.048)"/>
        <g id="그룹_1355" data-name="그룹 1355" transform="translate(3.652 23.667)">
          <path id="패스_5198" data-name="패스 5198" class="cls-22" d="M16.055,42.665a1.189,1.189,0,0,1-1.04-.455h0a1.48,1.48,0,0,1-.26-1.04v-.52a.825.825,0,0,0-.065-.39c-.065-.26-.13-.455-.2-.65-.065-.13-.2-.325-.26-.455-.065-.065-.13-.2-.26-.26l-.065-.065a.379.379,0,0,1,.39-.65c.065.065.13.065.13.13.13.13.26.2.325.325l.39.585a3.219,3.219,0,0,1,.26.845c0,.2.065.325.065.52v.585a2.46,2.46,0,0,0,.065.52h0a.8.8,0,0,0,.585.2.359.359,0,1,1,.065.715C16.185,42.665,16.12,42.665,16.055,42.665Zm-1.04-.455Z" transform="translate(-8.459 -37.009)"/>
          <path id="패스_5199" data-name="패스 5199" class="cls-23" d="M11.978,40.561a2.3,2.3,0,0,1-1.04,1.3,7.767,7.767,0,0,1-1.691.715,8.185,8.185,0,0,1-1.756.26,3.311,3.311,0,0,1-1.365-.39,1.311,1.311,0,0,1-.455-.585c-.13-.26,0-.455.13-.65a11.823,11.823,0,0,1,2.276-2.471l.39-.325a1.88,1.88,0,0,1-.39-1.756c.845.455.975.975.975.975l1.5-.065a2.11,2.11,0,0,1,.78-1.17c.715,1.3-.065,1.951-.065,1.951a2.195,2.195,0,0,1,.715,2.211" transform="translate(-5.617 -36.4)"/>
          <path id="패스_5200" data-name="패스 5200" class="cls-3" d="M9.691,37.1a1.442,1.442,0,0,0,.325,1.17.2.2,0,0,0,.13.065c.2,0,0-.91-.455-1.235" transform="translate(-7.036 -36.645)"/>
          <path id="패스_5201" data-name="패스 5201" class="cls-3" d="M14.254,36.9c-.455.455-.585,1.5-.325,1.5.065,0,.13-.065.2-.13a1.45,1.45,0,0,0,.13-1.365" transform="translate(-8.478 -36.575)"/>
          <path id="패스_5202" data-name="패스 5202" class="cls-24" d="M7.9,43Z" transform="translate(-6.416 -38.709)"/>
          <path id="패스_5203" data-name="패스 5203" class="cls-22" d="M6.26,44.3h0a.064.064,0,0,1,.065-.065H6.39c.065,0,.065.065.065.13h0v.065a.065.065,0,1,0,.13,0V44.36h0a.338.338,0,0,0-.13-.26h-.13c-.065,0-.065.065-.065.13V44.3h0" transform="translate(-5.816 -39.093)"/>
          <path id="패스_5204" data-name="패스 5204" class="cls-22" d="M7.465,44.63h0a.064.064,0,0,1,.065-.065H7.6c.065,0,.065.065.065.13h0v.13h.065V44.76h0c.065-.13,0-.2-.065-.26H7.53c-.065,0-.065.065-.13.13h0v.13c0-.065,0-.065.065-.13" transform="translate(-6.241 -39.233)"/>
          <path id="패스_5205" data-name="패스 5205" class="cls-3" d="M9.765,40.8a2.255,2.255,0,0,1-.975.585c.065.325-.26.65-.39.78h0a1.75,1.75,0,0,1,1.04-.52c-.26-.325.325-.845.325-.845" transform="translate(-6.591 -37.939)"/>
          <path id="패스_5206" data-name="패스 5206" class="cls-22" d="M11.23,40.08a.14.14,0,0,1-.13-.13v-.065h0a.516.516,0,0,1,.585-.585h.455a.13.13,0,0,1,0,.26h-.455c-.2,0-.26,0-.26.26v.065q-.1.2-.2.2" transform="translate(-7.535 -37.414)"/>
          <path id="패스_5207" data-name="패스 5207" class="cls-22" d="M10.53,39.74a.14.14,0,0,1-.13-.13v-.065h0c.065-.52.325-.845.845-.845h.845a.13.13,0,1,1,0,.26h-.78a.508.508,0,0,0-.52.52v.065c-.065.13-.13.2-.26.2" transform="translate(-7.29 -37.205)"/>
          <path id="패스_5208" data-name="패스 5208" class="cls-22" d="M9.93,39.3a.14.14,0,0,1-.13-.13v-.065A1.1,1.1,0,0,1,10.905,38h1.235a.13.13,0,0,1,0,.26H10.905a.861.861,0,0,0-.845.845v.065a.14.14,0,0,1-.13.13" transform="translate(-7.08 -36.96)"/>
          <path id="패스_5209" data-name="패스 5209" class="cls-25" d="M8.965,40.9h0c0-.065,0-.065.065-.13H9.1c.065,0,.13.065.065.13h0v.065a.065.065,0,0,0,.13,0V40.9h0a.172.172,0,0,0-.2-.2h0c-.065,0-.13,0-.13.065-.065.065-.065.065-.065.13v.065c0-.065,0,0,.065-.065h0" transform="translate(-6.765 -37.904)"/>
          <path id="패스_5210" data-name="패스 5210" class="cls-25" d="M10.874,41.86h0c0-.065,0-.065.065-.13H11a.14.14,0,0,1,.13.13h0v.065a.065.065,0,1,0,.13,0V41.86h0c0-.13-.065-.2-.2-.26h0c-.065,0-.13,0-.13.065-.065.065-.065.065-.065.13v.065c-.065,0-.065.065,0,0h0" transform="translate(-7.439 -38.219)"/>
        </g>
      </g>
    </g>
  </g>
</svg>
