<svg xmlns="http://www.w3.org/2000/svg" xmlns:xlink="http://www.w3.org/1999/xlink" viewBox="0 0 279.56 425.624">
  <defs>
    <style>
      .cls-1 {
        fill: #ebebeb;
      }

      .cls-2 {
        clip-path: url(#clip-path);
      }

      .cls-3 {
        fill: #d9d9d9;
        stroke: #d9d9d9;
        stroke-width: 3px;
      }

      .cls-13, .cls-3, .cls-30 {
        stroke-linecap: round;
        stroke-linejoin: round;
      }

      .cls-4 {
        fill: url(#linear-gradient);
      }

      .cls-5 {
        fill: url(#linear-gradient-2);
      }

      .cls-6 {
        fill: url(#linear-gradient-3);
      }

      .cls-7 {
        fill: url(#linear-gradient-4);
      }

      .cls-8 {
        fill: url(#linear-gradient-5);
      }

      .cls-26, .cls-9 {
        fill: #fff;
      }

      .cls-10 {
        fill: url(#linear-gradient-6);
      }

      .cls-11 {
        fill: url(#linear-gradient-7);
      }

      .cls-12 {
        fill: url(#linear-gradient-8);
      }

      .cls-13, .cls-27 {
        fill: #595757;
      }

      .cls-13 {
        stroke: #595757;
        stroke-miterlimit: 10;
        stroke-width: 1.7px;
      }

      .cls-14 {
        fill: #e4e4e4;
      }

      .cls-15, .cls-16 {
        fill: #333;
      }

      .cls-15 {
        font-size: 8px;
        font-family: NanumSquareRoundB, NanumSquareRound;
      }

      .cls-15, .cls-16, .cls-29 {
        letter-spacing: -0.018em;
      }

      .cls-16 {
        font-size: 11px;
      }

      .cls-16, .cls-29 {
        font-family: NanumSquareRoundEB, NanumSquareRound;
      }

      .cls-17 {
        opacity: 0.4;
        fill: url(#linear-gradient-9);
      }

      .cls-18 {
        fill: #77e1d0;
      }

      .cls-19 {
        fill: #8ff2df;
      }

      .cls-20 {
        fill: #aef4e7;
      }

      .cls-21 {
        fill: #fffcf8;
      }

      .cls-22 {
        fill: none;
        stroke: #48b7ae;
      }

      .cls-23 {
        fill: #323030;
        opacity: 0.3;
      }

      .cls-24 {
        fill: url(#linear-gradient-10);
      }

      .cls-25 {
        fill: url(#linear-gradient-11);
      }

      .cls-26 {
        stroke: #e9e9e9;
      }

      .cls-28 {
        fill: #6ecbb8;
      }

      .cls-29, .cls-30 {
        fill: #606060;
      }

      .cls-29 {
        font-size: 9px;
      }

      .cls-30 {
        stroke: #606060;
      }

      .cls-31 {
        filter: url(#합치기_2);
      }
    </style>
    <clipPath id="clip-path">
      <rect id="사각형_854" data-name="사각형 854" class="cls-1" width="279.56" height="425.624" transform="translate(0 0)"/>
    </clipPath>
    <linearGradient id="linear-gradient" x1="-0.01" y1="0.5" x2="0.955" y2="0.5" gradientUnits="objectBoundingBox">
      <stop offset="0" stop-color="#fff" stop-opacity="0.502"/>
      <stop offset="0.102" stop-color="#fff"/>
      <stop offset="0.492" stop-color="#fff"/>
      <stop offset="0.977" stop-color="#fff"/>
      <stop offset="1" stop-color="#fff" stop-opacity="0.502"/>
    </linearGradient>
    <linearGradient id="linear-gradient-2" y1="0.5" x2="0.994" y2="0.52" gradientUnits="objectBoundingBox">
      <stop offset="0" stop-color="#fff" stop-opacity="0.4"/>
      <stop offset="0.146" stop-color="#fff"/>
      <stop offset="0.495" stop-color="#fff"/>
      <stop offset="0.875" stop-color="#fff"/>
      <stop offset="1" stop-color="#fff" stop-opacity="0.4"/>
    </linearGradient>
    <linearGradient id="linear-gradient-3" x1="0.065" y1="0.5" x2="0.235" y2="0.5" gradientUnits="objectBoundingBox">
      <stop offset="0" stop-color="#fff" stop-opacity="0.502"/>
      <stop offset="1" stop-color="#fff"/>
    </linearGradient>
    <linearGradient id="linear-gradient-4" x1="0.05" y1="0.418" x2="0.963" y2="0.506" gradientUnits="objectBoundingBox">
      <stop offset="0" stop-color="#fff"/>
      <stop offset="0.899" stop-color="#fff"/>
      <stop offset="1" stop-color="#fff" stop-opacity="0.502"/>
    </linearGradient>
    <linearGradient id="linear-gradient-5" x1="1.026" y1="0.5" x2="0.026" y2="0.5" gradientUnits="objectBoundingBox">
      <stop offset="0" stop-color="#fff" stop-opacity="0.502"/>
      <stop offset="0.108" stop-color="#fff"/>
      <stop offset="0.465" stop-color="#fff"/>
      <stop offset="1" stop-color="#fff"/>
    </linearGradient>
    <linearGradient id="linear-gradient-6" x1="0.074" y1="0.424" x2="0.592" y2="0.433" xlink:href="#linear-gradient-3"/>
    <linearGradient id="linear-gradient-7" x1="0.039" y1="0.5" x2="0.152" y2="0.5" xlink:href="#linear-gradient-3"/>
    <linearGradient id="linear-gradient-8" x1="0.854" y1="0.5" x2="0.5" y2="0.5" xlink:href="#linear-gradient-3"/>
    <linearGradient id="linear-gradient-9" x1="-0.287" y1="0.682" x2="0.418" y2="0.219" gradientUnits="objectBoundingBox">
      <stop offset="0" stop-color="#323030"/>
      <stop offset="1" stop-color="#767474" stop-opacity="0"/>
    </linearGradient>
    <linearGradient id="linear-gradient-10" x1="0.21" y1="0.785" x2="0.806" y2="0.677" xlink:href="#linear-gradient-3"/>
    <linearGradient id="linear-gradient-11" x1="0.064" y1="0.449" x2="0.211" y2="0.537" gradientUnits="objectBoundingBox">
      <stop offset="0" stop-color="#fff" stop-opacity="0.122"/>
      <stop offset="1" stop-color="#fff"/>
    </linearGradient>
    <filter id="합치기_2" x="143.238" y="171.542" width="67.435" height="84.481" filterUnits="userSpaceOnUse">
      <feOffset dy="4" input="SourceAlpha"/>
      <feGaussianBlur stdDeviation="2.5" result="blur"/>
      <feFlood flood-opacity="0.161"/>
      <feComposite operator="in" in2="blur"/>
      <feComposite in="SourceGraphic"/>
    </filter>
  </defs>
  <g id="마스크_그룹_7" data-name="마스크 그룹 7" class="cls-2">
    <g id="그룹_1593" data-name="그룹 1593" transform="translate(-19.311 -15.512)">
      <path id="패스_5402" data-name="패스 5402" class="cls-3" d="M8481,1597l53.565,22.362-27.21,93.9-30-13.814Z" transform="translate(-8464.415 -1412.597)"/>
      <rect id="사각형_788" data-name="사각형 788" class="cls-4" width="454.287" height="24.686" rx="12.343" transform="translate(177.859) rotate(90)"/>
      <rect id="사각형_789" data-name="사각형 789" class="cls-5" width="315.893" height="24.686" rx="12.343" transform="translate(3.008 84.447) rotate(7)"/>
      <rect id="사각형_790" data-name="사각형 790" class="cls-6" width="209.561" height="16.928" rx="8.464" transform="translate(91.821 7.474) rotate(90)"/>
      <rect id="사각형_791" data-name="사각형 791" class="cls-7" width="257.662" height="16.928" rx="8.464" transform="matrix(-0.276, 0.961, -0.961, -0.276, 93.222, 204.841)"/>
      <rect id="사각형_792" data-name="사각형 792" class="cls-8" width="199.255" height="8.464" rx="4.232" transform="translate(74.717 208.395)"/>
      <rect id="사각형_793" data-name="사각형 793" class="cls-9" width="102.014" height="8.464" rx="4.232" transform="translate(64.394 271.169)"/>
      <rect id="사각형_794" data-name="사각형 794" class="cls-10" width="39.696" height="8.464" rx="4.232" transform="matrix(0.914, 0.407, -0.407, 0.914, 17.061, 295.022)"/>
      <rect id="사각형_795" data-name="사각형 795" class="cls-9" width="76.175" height="8.464" rx="4.232" transform="translate(44.388 333.943)"/>
      <rect id="사각형_796" data-name="사각형 796" class="cls-11" width="174.489" height="8.464" transform="translate(115.449 446.892) rotate(-90)"/>
      <rect id="사각형_797" data-name="사각형 797" class="cls-9" width="80.054" height="8.464" rx="4.232" transform="translate(166.057 360.745)"/>
      <rect id="사각형_799" data-name="사각형 799" class="cls-9" width="41.967" height="3.174" rx="1.587" transform="translate(221.955 212.803) rotate(90)"/>
      <rect id="사각형_800" data-name="사각형 800" class="cls-9" width="35.235" height="8.111" rx="4.056" transform="translate(254.045 178.947) rotate(90)"/>
      <rect id="사각형_801" data-name="사각형 801" class="cls-12" width="86.013" height="10.933" rx="5.466" transform="translate(245.934 361.047) rotate(90)"/>
      <rect id="사각형_802" data-name="사각형 802" class="cls-9" width="9.522" height="35.479" rx="4.761" transform="translate(259.323 339.643) rotate(43)"/>
      <g id="그룹_1494" data-name="그룹 1494" transform="translate(188.978 175.462)">
        <path id="패스_5406" data-name="패스 5406" class="cls-13" d="M5.712,2.856c0,1.552-2.856,5.961-2.856,5.961S0,4.47,0,2.856A2.81,2.81,0,0,1,2.856,0,2.848,2.848,0,0,1,5.712,2.856Z" transform="translate(0 0)"/>
        <ellipse id="타원_175" data-name="타원 175" class="cls-14" cx="1.304" cy="1.304" rx="1.304" ry="1.304" transform="translate(1.552 1.552)"/>
      </g>
      <g id="그룹_1495" data-name="그룹 1495" transform="translate(125.597 187.127)">
        <path id="패스_5407" data-name="패스 5407" class="cls-13" d="M5.712,2.856c0,1.552-2.856,5.961-2.856,5.961S0,4.47,0,2.856A2.81,2.81,0,0,1,2.856,0,2.848,2.848,0,0,1,5.712,2.856Z" transform="translate(0 0)"/>
        <ellipse id="타원_176" data-name="타원 176" class="cls-14" cx="1.304" cy="1.304" rx="1.304" ry="1.304" transform="translate(1.552 1.552)"/>
      </g>
      <g id="그룹_1496" data-name="그룹 1496" transform="translate(192.879 319.144)">
        <path id="패스_5408" data-name="패스 5408" class="cls-13" d="M5.712,2.856c0,1.552-2.856,5.961-2.856,5.961S0,4.47,0,2.856A2.81,2.81,0,0,1,2.856,0,2.848,2.848,0,0,1,5.712,2.856Z" transform="translate(0 0)"/>
        <ellipse id="타원_177" data-name="타원 177" class="cls-14" cx="1.304" cy="1.304" rx="1.304" ry="1.304" transform="translate(1.552 1.552)"/>
      </g>
      <g id="그룹_1497" data-name="그룹 1497" transform="translate(129.497 246.134)">
        <path id="패스_5409" data-name="패스 5409" class="cls-13" d="M5.712,2.856c0,1.552-2.856,5.961-2.856,5.961S0,4.47,0,2.856A2.81,2.81,0,0,1,2.856,0,2.848,2.848,0,0,1,5.712,2.856Z" transform="translate(0 0)"/>
        <ellipse id="타원_178" data-name="타원 178" class="cls-14" cx="1.304" cy="1.304" rx="1.304" ry="1.304" transform="translate(1.552 1.552)"/>
      </g>
      <g id="그룹_1498" data-name="그룹 1498" transform="translate(44.664 221.599)">
        <path id="패스_5410" data-name="패스 5410" class="cls-13" d="M5.712,2.856c0,1.552-2.856,5.961-2.856,5.961S0,4.47,0,2.856A2.81,2.81,0,0,1,2.856,0,2.848,2.848,0,0,1,5.712,2.856Z" transform="translate(0 0)"/>
        <ellipse id="타원_179" data-name="타원 179" class="cls-14" cx="1.304" cy="1.304" rx="1.304" ry="1.304" transform="translate(1.552 1.552)"/>
      </g>
      <g id="그룹_1500" data-name="그룹 1500" transform="translate(44.664 136.428)">
        <path id="패스_5412" data-name="패스 5412" class="cls-13" d="M6.512,3.656c0,1.552-2.856,5.961-2.856,5.961S.8,5.27.8,3.656A2.81,2.81,0,0,1,3.656.8,2.848,2.848,0,0,1,6.512,3.656Z" transform="translate(-0.8 -0.8)"/>
        <ellipse id="타원_181" data-name="타원 181" class="cls-14" cx="1.304" cy="1.304" rx="1.304" ry="1.304" transform="translate(1.552 1.552)"/>
      </g>
      <g id="그룹_1541" data-name="그룹 1541" transform="translate(122.672 149.105)">
        <path id="패스_5412-2" data-name="패스 5412" class="cls-13" d="M6.512,3.656c0,1.552-2.856,5.961-2.856,5.961S.8,5.27.8,3.656A2.81,2.81,0,0,1,3.656.8,2.848,2.848,0,0,1,6.512,3.656Z" transform="translate(-0.8 -0.8)"/>
        <ellipse id="타원_181-2" data-name="타원 181" class="cls-14" cx="1.304" cy="1.304" rx="1.304" ry="1.304" transform="translate(1.552 1.552)"/>
      </g>
      <g id="그룹_1501" data-name="그룹 1501" transform="translate(140.224 357.447)">
        <path id="패스_5413" data-name="패스 5413" class="cls-13" d="M5.712,2.856c0,1.552-2.856,5.961-2.856,5.961S0,4.47,0,2.856A2.81,2.81,0,0,1,2.856,0,2.848,2.848,0,0,1,5.712,2.856Z" transform="translate(0 0)"/>
        <ellipse id="타원_182" data-name="타원 182" class="cls-14" cx="1.304" cy="1.304" rx="1.304" ry="1.304" transform="translate(1.552 1.552)"/>
      </g>
      <g id="그룹_1502" data-name="그룹 1502" transform="translate(262.111 97.027)">
        <path id="패스_5414" data-name="패스 5414" class="cls-13" d="M5.712,2.856c0,1.552-2.856,5.961-2.856,5.961S0,4.47,0,2.856A2.81,2.81,0,0,1,2.856,0,2.848,2.848,0,0,1,5.712,2.856Z" transform="translate(0 0)"/>
        <ellipse id="타원_183" data-name="타원 183" class="cls-14" cx="1.304" cy="1.304" rx="1.304" ry="1.304" transform="translate(1.552 1.552)"/>
      </g>
      <text id="제주상록회관" class="cls-15" transform="translate(189.501 170.598)"><tspan x="-21.48" y="0">제주상록회관</tspan></text>
      <text id="KAL_사거리" data-name="KAL 사거리" class="cls-16" transform="matrix(0.993, 0.122, -0.122, 0.993, 167.526, 120.823)"><tspan x="-26.323" y="0">KAL 사거리</tspan></text>
      <text id="신한은행" class="cls-15" transform="translate(126.921 180.313)"><tspan x="-14.344" y="0">신한은행</tspan></text>
      <text id="제주은행" class="cls-15" transform="translate(194.203 312.33)"><tspan x="-14.344" y="0">제주은행</tspan></text>
      <text id="명륜아파트" class="cls-15" transform="translate(130.921 239.319)"><tspan x="-17.912" y="0">명륜아파트</tspan></text>
      <text id="삼성초등학교" class="cls-15" transform="translate(45.187 214.785)"><tspan x="-21.48" y="0">삼성초등학교</tspan></text>
      <text id="KT제주지사" class="cls-15" transform="translate(45.137 130.02)"><tspan x="-19.148" y="0">KT제주지사</tspan></text>
      <text id="교보생명_제주_FP지원단" data-name="교보생명
제주 FP지원단" class="cls-15" transform="translate(123.269 135.871)"><tspan x="-14.344" y="0">교보생명</tspan><tspan x="-23.5" y="9">제주 FP지원단</tspan></text>
      <text id="경희한의원" class="cls-15" transform="translate(141.647 349.657)"><tspan x="-17.912" y="0">경희한의원</tspan></text>
      <text id="파라다이스" class="cls-15" transform="translate(263.534 91.187)"><tspan x="-17.912" y="0">파라다이스</tspan></text>
      <g id="그룹_1534" data-name="그룹 1534" transform="translate(182.208 263.872)">
        <g id="그룹_1533" data-name="그룹 1533" transform="translate(0 0)">
          <path id="패스_5416" data-name="패스 5416" class="cls-17" d="M93.2,67.468l8.6-5.572a15.8,15.8,0,0,0-8.534-5.4Z" transform="translate(-66.75 -36.575)"/>
          <g id="그룹_1532" data-name="그룹 1532" transform="translate(0)">
            <path id="패스_5417" data-name="패스 5417" class="cls-18" d="M33.611,28.846v21.16L18.2,41.259V19.5Z" transform="translate(-18.2 -12.623)"/>
            <path id="패스_5418" data-name="패스 5418" class="cls-19" d="M61.8,32.73v21.16l11.356-6.63V25.5Z" transform="translate(-46.424 -16.507)"/>
            <path id="패스_5419" data-name="패스 5419" class="cls-20" d="M18.2,7.977l15.376,9.346,11.356-7.23L30.861,1.7Z" transform="translate(-18.2 -1.1)"/>
            <g id="그룹_1504" data-name="그룹 1504" transform="translate(18.162 15.94)">
              <path id="패스_5420" data-name="패스 5420" class="cls-21" d="M70.758,47.422l-1.058.846.035-2.433,1.023-.635Z" transform="translate(-69.7 -45.2)"/>
              <path id="패스_5421" data-name="패스 5421" class="cls-22" d="M69.8,48.351l1.023-.67V45.6" transform="translate(-69.765 -45.459)"/>
            </g>
            <g id="그룹_1505" data-name="그룹 1505" transform="translate(12.167 16.258)">
              <path id="패스_5422" data-name="패스 5422" class="cls-21" d="M52.7,48.322l1.093.811L53.758,46.7l-1.023-.6Z" transform="translate(-52.7 -46.1)"/>
              <path id="패스_5423" data-name="패스 5423" class="cls-22" d="M53.823,49.251l-1.023-.67V46.5" transform="translate(-52.765 -46.359)"/>
            </g>
            <g id="그룹_1506" data-name="그룹 1506" transform="translate(8.817 14.424)">
              <path id="패스_5424" data-name="패스 5424" class="cls-21" d="M43.2,43.122l1.093.846-.035-2.433L43.235,40.9Z" transform="translate(-43.2 -40.9)"/>
              <path id="패스_5425" data-name="패스 5425" class="cls-22" d="M44.323,44.051l-1.023-.67V41.3" transform="translate(-43.265 -41.159)"/>
            </g>
            <g id="그룹_1507" data-name="그룹 1507" transform="translate(5.466 12.59)">
              <path id="패스_5426" data-name="패스 5426" class="cls-21" d="M33.7,37.922l1.093.846-.035-2.433L33.735,35.7Z" transform="translate(-33.7 -35.7)"/>
              <path id="패스_5427" data-name="패스 5427" class="cls-22" d="M34.823,38.851l-1.023-.67V36.1" transform="translate(-33.765 -35.959)"/>
            </g>
            <g id="그룹_1508" data-name="그룹 1508" transform="translate(3.668 16.857)">
              <path id="패스_5428" data-name="패스 5428" class="cls-21" d="M28.6,49.175l.635.494V48.188L28.6,47.8Z" transform="translate(-28.6 -47.8)"/>
              <path id="패스_5429" data-name="패스 5429" class="cls-22" d="M29.235,49.758,28.6,49.37V48.1" transform="translate(-28.6 -47.994)"/>
            </g>
            <g id="그룹_1509" data-name="그룹 1509" transform="translate(7.089 18.409)">
              <path id="패스_5430" data-name="패스 5430" class="cls-21" d="M38.3,53.54l.635.494V52.588L38.3,52.2Z" transform="translate(-38.3 -52.2)"/>
              <path id="패스_5431" data-name="패스 5431" class="cls-22" d="M38.935,54.093,38.3,53.67V52.4" transform="translate(-38.3 -52.329)"/>
            </g>
            <g id="그룹_1510" data-name="그룹 1510" transform="translate(10.474 19.925)">
              <path id="패스_5432" data-name="패스 5432" class="cls-21" d="M47.9,57.84l.67.529-.035-1.481L47.9,56.5Z" transform="translate(-47.9 -56.5)"/>
              <path id="패스_5433" data-name="패스 5433" class="cls-22" d="M48.535,58.393l-.6-.423L47.9,56.7" transform="translate(-47.9 -56.629)"/>
            </g>
            <g id="그룹_1511" data-name="그룹 1511" transform="translate(12.308 25.11)">
              <path id="패스_5434" data-name="패스 5434" class="cls-21" d="M53.1,72.54l.635.494V71.588L53.1,71.2Z" transform="translate(-53.1 -71.2)"/>
              <path id="패스_5435" data-name="패스 5435" class="cls-22" d="M53.735,73.093,53.1,72.67V71.4" transform="translate(-53.1 -71.329)"/>
            </g>
            <g id="그룹_1512" data-name="그룹 1512" transform="translate(8.852 23.523)">
              <path id="패스_5436" data-name="패스 5436" class="cls-21" d="M43.3,68.04l.635.494V67.088L43.3,66.7Z" transform="translate(-43.3 -66.7)"/>
              <path id="패스_5437" data-name="패스 5437" class="cls-22" d="M43.935,68.593,43.3,68.17V66.9" transform="translate(-43.3 -66.829)"/>
            </g>
            <g id="그룹_1513" data-name="그룹 1513" transform="translate(5.36 21.936)">
              <path id="패스_5438" data-name="패스 5438" class="cls-21" d="M33.4,63.54l.67.494-.035-1.446L33.4,62.2Z" transform="translate(-33.4 -62.2)"/>
              <path id="패스_5439" data-name="패스 5439" class="cls-22" d="M34.035,64.093l-.6-.423L33.4,62.4" transform="translate(-33.4 -62.329)"/>
            </g>
            <g id="그룹_1514" data-name="그룹 1514" transform="translate(1.904 20.349)">
              <path id="패스_5440" data-name="패스 5440" class="cls-21" d="M23.6,59.04l.635.494V58.088L23.6,57.7Z" transform="translate(-23.6 -57.7)"/>
              <path id="패스_5441" data-name="패스 5441" class="cls-22" d="M24.235,59.593,23.6,59.17V57.9" transform="translate(-23.6 -57.829)"/>
            </g>
            <g id="그룹_1515" data-name="그룹 1515" transform="translate(2.116 10.791)">
              <path id="패스_5442" data-name="패스 5442" class="cls-21" d="M24.2,32.822l1.093.811L25.258,31.2l-1.023-.6Z" transform="translate(-24.2 -30.6)"/>
              <path id="패스_5443" data-name="패스 5443" class="cls-22" d="M25.323,33.751l-1.023-.67V31" transform="translate(-24.265 -30.859)"/>
            </g>
            <g id="그룹_1516" data-name="그룹 1516" transform="translate(20.807 14.565)">
              <path id="패스_5444" data-name="패스 5444" class="cls-21" d="M78.258,43.522l-1.058.846.035-2.433,1.023-.635Z" transform="translate(-77.2 -41.3)"/>
              <path id="패스_5445" data-name="패스 5445" class="cls-22" d="M77.3,44.451l1.023-.67V41.7" transform="translate(-77.265 -41.559)"/>
            </g>
            <g id="그룹_1517" data-name="그룹 1517" transform="translate(23.452 13.19)">
              <path id="패스_5446" data-name="패스 5446" class="cls-21" d="M85.758,39.622l-1.058.846.035-2.433,1.023-.635Z" transform="translate(-84.7 -37.4)"/>
              <path id="패스_5447" data-name="패스 5447" class="cls-22" d="M84.8,40.551l1.023-.67V37.8" transform="translate(-84.765 -37.659)"/>
            </g>
            <g id="그룹_1518" data-name="그룹 1518" transform="translate(18.162 20.419)">
              <path id="패스_5448" data-name="패스 5448" class="cls-21" d="M70.758,60.122l-1.058.846.035-2.433,1.023-.635Z" transform="translate(-69.7 -57.9)"/>
              <path id="패스_5449" data-name="패스 5449" class="cls-22" d="M69.8,61.051l1.023-.67V58.3" transform="translate(-69.765 -58.159)"/>
            </g>
            <g id="그룹_1519" data-name="그룹 1519" transform="translate(20.807 19.044)">
              <path id="패스_5450" data-name="패스 5450" class="cls-21" d="M78.258,56.222l-1.058.846.035-2.433L78.258,54Z" transform="translate(-77.2 -54)"/>
              <path id="패스_5451" data-name="패스 5451" class="cls-22" d="M77.3,57.151l1.023-.67V54.4" transform="translate(-77.265 -54.259)"/>
            </g>
            <g id="그룹_1520" data-name="그룹 1520" transform="translate(23.452 17.668)">
              <path id="패스_5452" data-name="패스 5452" class="cls-21" d="M85.758,52.322l-1.058.846.035-2.433,1.023-.635Z" transform="translate(-84.7 -50.1)"/>
              <path id="패스_5453" data-name="패스 5453" class="cls-22" d="M84.8,53.251l1.023-.67V50.5" transform="translate(-84.765 -50.359)"/>
            </g>
            <g id="그룹_1521" data-name="그룹 1521" transform="translate(18.162 24.898)">
              <path id="패스_5454" data-name="패스 5454" class="cls-21" d="M70.758,72.822l-1.058.846.035-2.433,1.023-.635Z" transform="translate(-69.7 -70.6)"/>
              <path id="패스_5455" data-name="패스 5455" class="cls-22" d="M69.8,73.751l1.023-.67V71" transform="translate(-69.765 -70.859)"/>
            </g>
            <g id="그룹_1522" data-name="그룹 1522" transform="translate(20.807 23.523)">
              <path id="패스_5456" data-name="패스 5456" class="cls-21" d="M78.258,68.922l-1.058.846.035-2.433,1.023-.635Z" transform="translate(-77.2 -66.7)"/>
              <path id="패스_5457" data-name="패스 5457" class="cls-22" d="M77.3,69.851l1.023-.67V67.1" transform="translate(-77.265 -66.959)"/>
            </g>
            <g id="그룹_1523" data-name="그룹 1523" transform="translate(23.452 22.147)">
              <path id="패스_5458" data-name="패스 5458" class="cls-21" d="M85.758,65.022l-1.058.846.035-2.433,1.023-.635Z" transform="translate(-84.7 -62.8)"/>
              <path id="패스_5459" data-name="패스 5459" class="cls-22" d="M84.8,65.951l1.023-.67V63.2" transform="translate(-84.765 -63.059)"/>
            </g>
            <g id="그룹_1524" data-name="그룹 1524" transform="translate(22.041 28.248)">
              <path id="패스_5460" data-name="패스 5460" class="cls-21" d="M82.569,83.979,80.7,85.425l.035-4.232L82.569,80.1Z" transform="translate(-80.7 -80.1)"/>
              <path id="패스_5461" data-name="패스 5461" class="cls-22" d="M80.9,85.6l1.763-1.164L82.7,80.8" transform="translate(-80.829 -80.553)"/>
            </g>
            <g id="그룹_1525" data-name="그룹 1525" transform="translate(20.067 29.483)">
              <path id="패스_5462" data-name="패스 5462" class="cls-21" d="M76.969,87.479,75.1,88.925l.035-4.232L76.969,83.6Z" transform="translate(-75.1 -83.6)"/>
              <path id="패스_5463" data-name="패스 5463" class="cls-22" d="M75.3,89.1l1.763-1.164L77.1,84.3" transform="translate(-75.229 -84.053)"/>
            </g>
            <g id="그룹_1526" data-name="그룹 1526" transform="translate(8.922 28.848)">
              <path id="패스_5464" data-name="패스 5464" class="cls-21" d="M43.5,86.49l1.834,1.34L45.3,82.893,43.5,81.8Z" transform="translate(-43.5 -81.8)"/>
              <path id="패스_5465" data-name="패스 5465" class="cls-22" d="M45.263,88,43.5,86.944V82.5" transform="translate(-43.5 -82.253)"/>
            </g>
            <g id="그룹_1527" data-name="그룹 1527" transform="translate(10.897 30.082)">
              <path id="패스_5466" data-name="패스 5466" class="cls-21" d="M49.1,89.885l1.869,1.446L50.9,86.393,49.1,85.3Z" transform="translate(-49.1 -85.3)"/>
              <path id="패스_5467" data-name="패스 5467" class="cls-22" d="M50.9,91.5l-1.8-1.164V86" transform="translate(-49.1 -85.753)"/>
            </g>
            <g id="그룹_1528" data-name="그룹 1528" transform="translate(2.081 24.969)">
              <path id="패스_5468" data-name="패스 5468" class="cls-21" d="M24.1,75.49l1.869,1.34-.035-4.937L24.1,70.8Z" transform="translate(-24.1 -70.8)"/>
              <path id="패스_5469" data-name="패스 5469" class="cls-22" d="M25.9,77l-1.763-1.058L24.1,71.5" transform="translate(-24.1 -71.253)"/>
            </g>
            <g id="그룹_1529" data-name="그룹 1529" transform="translate(4.056 26.203)">
              <path id="패스_5470" data-name="패스 5470" class="cls-21" d="M29.7,78.885l1.869,1.446-.035-4.937-1.8-1.093Z" transform="translate(-29.7 -74.3)"/>
              <path id="패스_5471" data-name="패스 5471" class="cls-22" d="M31.563,80.5,29.8,79.338V75" transform="translate(-29.765 -74.753)"/>
            </g>
            <g id="그룹_1531" data-name="그룹 1531" transform="translate(6.172)">
              <path id="패스_5472" data-name="패스 5472" class="cls-23" d="M39.6,9.761l4.9-2.716L42,5.6,37.7,7.716Z" transform="translate(-36.995 -3.625)"/>
              <g id="그룹_1530" data-name="그룹 1530">
                <path id="패스_5473" data-name="패스 5473" class="cls-18" d="M38.31,4.587v3.6L35.7,6.7V3Z" transform="translate(-35.7 -1.942)"/>
                <path id="패스_5474" data-name="패스 5474" class="cls-19" d="M43.1,5.234v3.6L45,7.7V4Z" transform="translate(-40.49 -2.589)"/>
                <path id="패스_5475" data-name="패스 5475" class="cls-20" d="M35.7,1.058l2.61,1.587,1.9-1.234L37.851,0Z" transform="translate(-35.7)"/>
              </g>
            </g>
          </g>
        </g>
      </g>
      <rect id="사각형_804" data-name="사각형 804" class="cls-24" width="18.678" height="8.464" rx="4.232" transform="matrix(0.914, 0.407, -0.407, 0.914, 18.036, 350.514)"/>
      <rect id="사각형_813" data-name="사각형 813" class="cls-9" width="78.797" height="8.464" rx="4.232" transform="translate(241.716 267.302) rotate(-66)"/>
      <rect id="사각형_814" data-name="사각형 814" class="cls-9" width="75.655" height="8.464" rx="4.232" transform="translate(240.205 337.586) rotate(-88)"/>
      <rect id="사각형_815" data-name="사각형 815" class="cls-25" width="73.141" height="8.464" rx="4.232" transform="matrix(-0.819, -0.574, 0.574, -0.819, 299.726, 377.167)"/>
      <g id="그룹_1535" data-name="그룹 1535" transform="translate(261.136 170.152)">
        <path id="패스_5476" data-name="패스 5476" class="cls-13" d="M5.712,2.856c0,1.552-2.856,5.961-2.856,5.961S0,4.47,0,2.856A2.81,2.81,0,0,1,2.856,0,2.848,2.848,0,0,1,5.712,2.856Z" transform="translate(0 0)"/>
        <ellipse id="타원_185" data-name="타원 185" class="cls-14" cx="1.304" cy="1.304" rx="1.304" ry="1.304" transform="translate(1.552 1.552)"/>
      </g>
      <text id="하니크라운호텔" class="cls-15" transform="translate(261.758 165.287)"><tspan x="-25.048" y="0">하니크라운호텔</tspan></text>
      <g id="그룹_1538" data-name="그룹 1538" transform="translate(170.55 191.054)">
        <g class="cls-31" transform="matrix(1, 0, 0, 1, -151.24, -175.54)">
          <path id="합치기_2-2" data-name="합치기 2" class="cls-26" d="M0,26.646H.017Q0,26.176,0,25.7a25.7,25.7,0,0,1,51.4,0q0,.474-.017.944H51.4C49.99,51.406,25.7,68.384,25.7,68.384,0,52.726,0,26.646,0,26.646Z" transform="translate(151.24 175.54)"/>
        </g>
      </g>
      <g id="그룹_1540" data-name="그룹 1540" transform="translate(182.909 201.433) rotate(-1)">
        <g id="그룹_1539" data-name="그룹 1539" transform="translate(0 10.599)">
          <path id="패스_5480" data-name="패스 5480" class="cls-27" d="M10.681,0a.577.577,0,0,0-.574.574v4.4H8.222c0-.109.027-.246.027-.355V.574A.574.574,0,1,0,7.1.574V4.589A4.5,4.5,0,0,1,2.377,9.014H.574a.574.574,0,0,0,0,1.147h1.8A5.884,5.884,0,0,0,7.1,7.976v3.333a.574.574,0,1,0,1.147,0V6.092h1.885v5.217a.574.574,0,1,0,1.147,0V.574A.583.583,0,0,0,10.681,0Z" transform="translate(14.45 15.68)"/>
          <path id="패스_5481" data-name="패스 5481" class="cls-27" d="M0,7.157a.577.577,0,0,0,.574.574.577.577,0,0,0,.574-.574V5.627A3.839,3.839,0,0,0,5.163,1.694V.574a.574.574,0,1,0-1.147,0V1.584c0,1.83-1.147,2.9-3.141,2.9h-.3A.577.577,0,0,0,0,5.054v2.1Z" transform="translate(14.396 16.199)"/>
          <path id="패스_5482" data-name="패스 5482" class="cls-27" d="M.574,1.147H2.6A.577.577,0,0,0,3.169.574.577.577,0,0,0,2.6,0H.574A.577.577,0,0,0,0,.574.56.56,0,0,0,.574,1.147Z" transform="translate(14.396 16.199)"/>
          <path id="패스_5483" data-name="패스 5483" class="cls-27" d="M0,.576V7.186a.577.577,0,0,0,.574.574.577.577,0,0,0,.574-.574V.576A.577.577,0,0,0,.574,0,.545.545,0,0,0,0,.576Z" transform="translate(0.683 16.197)"/>
          <path id="패스_5484" data-name="패스 5484" class="cls-27" d="M11.5,4.972H10.326V.574a.574.574,0,1,0-1.147,0v3.66c0,2.841-2.213,4.808-5.381,4.808H.574a.574.574,0,0,0,0,1.147h3.2A6.6,6.6,0,0,0,9.151,7.758v3.551a.574.574,0,1,0,1.147,0V6.092h1.175a.577.577,0,0,0,.574-.574A.516.516,0,0,0,11.5,4.972Z" transform="translate(0.683 15.68)"/>
          <path id="패스_5485" data-name="패스 5485" class="cls-27" d="M9.807,7.4v4.289a.574.574,0,1,0,1.147,0V.574a.574.574,0,1,0-1.147,0V3.36A6.371,6.371,0,0,1,3.442,9.725H.574A.577.577,0,0,0,0,10.3a.6.6,0,0,0,.574.6H3.442A7.46,7.46,0,0,0,9.807,7.4Z" transform="translate(0 0.355)"/>
          <path id="패스_5486" data-name="패스 5486" class="cls-27" d="M.576,2.6H6.394a.574.574,0,0,0,0-1.147H4.263V.574a.574.574,0,1,0-1.147,0V1.42H.576A.577.577,0,0,0,0,1.994.567.567,0,0,0,.576,2.6Z" transform="translate(0.381 0)"/>
          <path id="패스_5487" data-name="패스 5487" class="cls-27" d="M2.759,1.175h.656a1.33,1.33,0,0,1,.328.027A.572.572,0,0,0,4.425.738.572.572,0,0,0,3.961.055,4.106,4.106,0,0,0,3.415,0H2.759a2.759,2.759,0,0,0,0,5.518h.656A2.751,2.751,0,0,0,6.173,2.759a3.078,3.078,0,0,0-.137-.874A.618.618,0,0,0,5.3,1.5a.618.618,0,0,0-.382.738,1.6,1.6,0,0,1-1.5,2.1H2.759a1.584,1.584,0,0,1,0-3.169Z" transform="translate(0.792 3.36)"/>
          <path id="패스_5488" data-name="패스 5488" class="cls-27" d="M0,2.54a2.49,2.49,0,0,0,2.486,2.54H6.747a2.536,2.536,0,0,0,2.54-2.54A2.428,2.428,0,0,0,9.1,1.557a1.912,1.912,0,0,0-.246-.464A.607.607,0,0,0,8.031.929a.607.607,0,0,0-.164.819A1.108,1.108,0,0,1,8,1.994a1.184,1.184,0,0,1,.109.519A1.4,1.4,0,0,1,6.72,3.906H2.486A1.332,1.332,0,0,1,1.175,2.513,1.308,1.308,0,0,1,2.486,1.147H6.611A.577.577,0,0,0,7.184.574.577.577,0,0,0,6.611,0H2.486A2.49,2.49,0,0,0,0,2.54Z" transform="translate(15.598 7.703)"/>
          <path id="패스_5489" data-name="패스 5489" class="cls-27" d="M2.24,2.7H1.147V.574A.577.577,0,0,0,.574,0,.577.577,0,0,0,0,.574V6.2a.577.577,0,0,0,.574.574A.577.577,0,0,0,1.147,6.2V3.879H2.24a.577.577,0,0,0,.574-.574A.552.552,0,0,0,2.24,2.7Z" transform="translate(23.765 0.246)"/>
          <path id="패스_5490" data-name="패스 5490" class="cls-27" d="M0,3.442a.577.577,0,0,0,.574.574.577.577,0,0,0,.574-.574V1.147H4.1A.577.577,0,0,0,4.671.574.577.577,0,0,0,4.1,0H.492A.585.585,0,0,0,.027.574h0V3.442Z" transform="translate(14.341 0.546)"/>
          <path id="패스_5491" data-name="패스 5491" class="cls-27" d="M.553,5.818H2.711A4.034,4.034,0,0,0,6.754,1.776V.574a.574.574,0,1,0-1.147,0v1.2A2.868,2.868,0,0,1,2.739,4.644H.581a.577.577,0,0,0-.574.574A.531.531,0,0,0,.553,5.818Z" transform="translate(14.389 0.71)"/>
        </g>
        <path id="패스_5492" data-name="패스 5492" class="cls-28" d="M4.1,8.195a.519.519,0,0,1-.519-.519V7.1a3.5,3.5,0,0,1,3.5-3.5h3.5a.519.519,0,0,1,.519.519.537.537,0,0,1-.519.519h-3.5A2.466,2.466,0,0,0,4.616,7.1v.546A.525.525,0,0,1,4.1,8.195Zm-1.776,0a.548.548,0,0,1-.546-.546V7.075a5.3,5.3,0,0,1,5.3-5.3h4.644a.519.519,0,0,1,.519.519.537.537,0,0,1-.519.519H7.075A4.238,4.238,0,0,0,2.841,7.048v.6A.543.543,0,0,1,2.322,8.195Zm-1.8,0A.519.519,0,0,1,0,7.676V7.1A7.082,7.082,0,0,1,7.075,0h5.9a.519.519,0,0,1,0,1.038h-5.9a6.027,6.027,0,0,0-6.01,6.01v.6A.548.548,0,0,1,.519,8.195Z" transform="translate(6.692 0)"/>
      </g>
      <text id="남_문_사_거_리" data-name="남
문
사
거
리" class="cls-29" transform="translate(165.172 37.013)"><tspan x="-4.095" y="0">남</tspan><tspan x="-4.095" y="10">문</tspan><tspan x="-4.095" y="20">사</tspan><tspan x="-4.095" y="30">거</tspan><tspan x="-4.095" y="40">리</tspan></text>
      <text id="제_주_시_청" data-name="제
주
시
청" class="cls-29" transform="translate(165.172 392.899)"><tspan x="-4.095" y="0">제</tspan><tspan x="-4.095" y="10">주</tspan><tspan x="-4.095" y="20">시</tspan><tspan x="-4.095" y="30">청</tspan></text>
      <text id="전농로" class="cls-29" transform="translate(46.283 105.561) rotate(6)"><tspan x="-12.123" y="0">전농로</tspan></text>
      <text id="신산공원" class="cls-29" transform="translate(267.555 132.809) rotate(7)"><tspan x="-16.137" y="0">신산공원</tspan></text>
      <path id="패스_5680" data-name="패스 5680" class="cls-30" d="M2.948,0,1.474,1.794,0,0Z" transform="translate(166.62 25.965) rotate(180)"/>
      <path id="패스_5683" data-name="패스 5683" class="cls-30" d="M2.948,0,1.474,1.794,0,0Z" transform="translate(163.672 429.762)"/>
      <path id="패스_5684" data-name="패스 5684" class="cls-30" d="M2.948,0,1.474,1.794,0,0Z" transform="matrix(-0.105, 0.995, -0.995, -0.105, 30.189, 99.457)"/>
      <path id="패스_5685" data-name="패스 5685" class="cls-30" d="M2.948,0,1.474,1.794,0,0Z" transform="matrix(0.105, -0.995, 0.995, 0.105, 288.393, 133.69)"/>
    </g>
  </g>
</svg>
