<?xml version="1.0" encoding="utf-8"?>
<!-- Generator: Adobe Illustrator 24.0.2, SVG Export Plug-In . SVG Version: 6.00 Build 0)  -->
<svg version="1.1" id="레이어_1" xmlns="http://www.w3.org/2000/svg" xmlns:xlink="http://www.w3.org/1999/xlink" x="0px"
	 y="0px" viewBox="0 0 198 230" style="enable-background:new 0 0 198 230;" xml:space="preserve">
<style type="text/css">
	.st0{fill:#96A177;}
	.st1{fill:#436C5C;}
	.st2{fill:#43B0A5;}
	.st3{fill:#C5E4F2;}
	.st4{fill:#2B5855;}
	.st5{fill:#E3F1F8;}
	.st6{fill:#FFFFFF;}
	.st7{fill:#5D8E79;}
	.st8{fill:#C73924;}
	.st9{fill:#F6DB48;}
	.st10{fill:#D0462B;}
</style>
<path class="st0" d="M55.8,137.3c0,0-9.1,2.3-3.6,13C52.1,150.3,61.1,148,55.8,137.3"/>
<path class="st1" d="M79.9,186.8c1.1-0.3,2-1.3,2.1-2.5c0-0.9-0.1-21.1-22.7-38.2c-1.1-0.9-2.8-0.7-3.7,0.5
	c-0.9,1.1-0.7,2.8,0.5,3.7c20.4,15.4,20.6,33.2,20.6,34c0,1.5,1.2,2.6,2.6,2.7C79.5,186.9,79.7,186.9,79.9,186.8"/>
<path class="st2" d="M160.2,177.1c-0.1-2.3-1.2-4.3-2.9-5.7l-0.1-0.1h-0.1c-1.3-1-2.9-1.6-4.5-1.7h-2.4c-0.7,0-1.3,0.6-1.3,1.3
	c0,0.5,0.3,0.9,0.6,1.1l0,0c-0.7,0-1.3,0.6-1.3,1.3c0,0.6,0.4,1.1,0.9,1.3c-0.6,0.2-1,0.7-0.9,1.4c0.1,0.7,0.6,1.3,1.4,1.3l0,0
	l1.6-0.1c0.1,0,0.3,0,0.5,0c0.7,0,0.9,0.1,0.9,0.1c0.2,0.2,0.2,1.1,0.2,1.5v0.2c0,0.3,0,0.7,0,1.1s0,0.7,0,0.9c0,0.5,0,1.1,0,1.6
	v0.4c0,0.5,0,1,0,1.5v0.3c0,0.1,0,0.3,0,0.5c0,0.7,0.6,1.3,1.3,1.3c0.2,0,0.3-0.1,0.5-0.1c0,0,0.1-0.1,0.2-0.1s0.3,0,0.3,0.4
	c0,0.9,0.9,1.7,1.9,1.2l0,0h0.1c0.2,0,0.3,0.1,0.4,0.4c0,0.7,0.6,1.3,1.3,1.3c0.7,0,1.3-0.6,1.3-1.3V177V177.1z"/>
<path class="st2" d="M159.1,133.3c-0.5-2.2-2.5-3.7-4.7-3.3h-0.3c-0.4,0-0.5-0.9-0.5-0.9V129c-3.9-27.6-12.2-29-13.9-29h-1.2
	l-4.7,6.7l1.4,1.3c0.4,0.4,0.9,0.8,1.3,1.2c1.7,1.5,3.1,2.9,3.9,4.6c1.5,2.9,2.1,6.2,2.7,9.6c0.2,1.2,0.4,2.3,0.7,3.5
	c0.1,0.5,0.2,1,0.3,1.5c0.7,3.6,1.7,9,7.4,10.1c0.5,0.1,0.9,0.1,1.5,0.1h0.3c1.3,0,3.7-0.3,5-2C159.1,135.7,159.4,134.5,159.1,133.3
	"/>
<path class="st3" d="M115.2,166c-0.1,3.1,0.4,6.3,1.3,9.3c0.6,1.9,1.3,3.9,2.3,5.6c0.5,0.9,1.1,1.8,1.7,2.7c0.3,0.5,1.9,1.7,1.9,2.1
	l1.6,14.8h5.9l2.1-13l5.5-0.2l2.2,14.4h5.5l3.1-16.6c0,0,5.8-7.3,3.9-19.7l-5.2-32.4c0,0-1.7-22.5-7.2-24.7c0,0,6.9-7,0.5-15.1
	c0,0-7,1.9-7.6,8.4c0,0-0.5,0.3-5.1,0.1H126c0,0-2.7-7.5-9.2-8.4c0,0-2.7,8.5,3.1,13c-0.2-0.2-6,4-6.2,4.2c-5.3,4.5-8.9,7-12.5,12.4
	c-0.8,1.2-2.1,6.2-1.7,8c0.3,1.5,1.9,3,2.9,3.9c1.5,1.3,5.3,2.5,7.2,2.4c3.7-0.1,9.1,0.2,12.4-1.4c-0.1,0.1,0,0.1-0.5,2.9
	c-1.9,7.8-3.9,15.6-5.8,23.3C115.4,163.4,115.2,164.7,115.2,166"/>
<polygon class="st4" points="137.7,207.7 146.1,207.7 145.2,202 139.6,201.8 "/>
<path class="st4" d="M124,200.6l-2.3,6.8c0,0,6.8,0,9-0.2l-0.8-6.6"/>
<path class="st5" d="M113.6,120.9c-0.1,0.1-0.1,0.1-0.1,0.1S113.6,121,113.6,120.9L113.6,120.9z"/>
<path class="st2" d="M132.8,108.5h-2c-3.8,0-4.5,2.3-4.6,4.5v0.7c0,0.9,0.8,1.7,1.7,1.7c0.9,0,1.7-0.8,1.7-1.7v-0.5
	c0.1-1.3,0.1-1.3,1.1-1.3h2c0.9,0,1.7-0.8,1.7-1.7C134.5,109.3,133.7,108.5,132.8,108.5"/>
<path class="st2" d="M134.9,103.6H128c-3.7,0.1-6.2,2.5-6.4,6.2v0.7c0,0.9,0.8,1.7,1.7,1.7c0.9,0,1.7-0.8,1.7-1.7V110
	c0.1-2,1.1-3,3.1-3.1h6.8c0.9,0,1.7-0.8,1.7-1.7C136.6,104.4,135.8,103.6,134.9,103.6"/>
<path class="st2" d="M136.9,98.8h-11.6c-4.6,0-8.2,3.7-8.2,8.2v0.3c0,0.9,0.8,1.7,1.7,1.7c0.9,0,1.7-0.8,1.7-1.7V107
	c0-2.7,2.2-4.9,4.9-4.9H137c0.9,0,1.7-0.8,1.7-1.7C138.6,99.6,137.9,98.8,136.9,98.8"/>
<path class="st6" d="M110.3,127.2c0,0,2.8-4.1,3.3-5c0,0,1.4-0.9,5.5-3.1c0,0-1.6,3.7-2.5,5.8C116.5,124.9,114.6,125.6,110.3,127.2"
	/>
<path class="st4" d="M105.5,143.9l2.9,2.1l-2.9,6.2l-3.5-4.1c0,0,1.9-3.5,3.3-4.3"/>
<path class="st3" d="M108.5,146c0,0,8.8,6.1,14-2.3l2.8,8.8c0,0-8.6,9.7-19.7-0.3L108.5,146z"/>
<path class="st6" d="M113.8,148.1c-0.1-0.1-0.2-0.1-0.4-0.1c-2.9-0.5-5-2-5-2l-2.9,6.2c0.6,0.7,3.9,3.3,5.8,3.7l1.6,0.5L113.8,148.1
	z"/>
<path class="st6" d="M130.9,194.4l-1.5,0.1l0,0c-0.1,0-0.3,0-0.4,0h-0.2l-5.3,0.1l-0.1-0.1l0.7,6.1h5.9l0.9-5.2l0,0V194.4z"/>
<polygon class="st6" points="146.7,193.5 138.5,194.1 139.6,201.9 145.2,202 "/>
<polygon class="st4" points="138.4,164.5 144.6,166 143.5,171.2 138.3,171 "/>
<path class="st6" d="M138.5,156.8l-0.1,7.8l6,1.5l1.5-7C145.6,158.6,138.5,156.8,138.5,156.8"/>
<path class="st0" d="M115.8,147.2c0,0,1.1-10.1-12-8.4C103.8,138.7,102.9,148.8,115.8,147.2"/>
<path class="st7" d="M108.3,139.3c0,0-8.2-5.8-13,6.3C95.2,145.6,103.5,151.2,108.3,139.3"/>
<path class="st8" d="M99.4,131.5c-0.5,0.5-0.7,0.9-1.3,1.3c-4.7,3.5,0.4,9.5,4.1,10.8c1.5,0.5,2.7,0.2,4.2-0.1
	c1.5-0.3,3.4,0.3,4.8-0.4c2.3-1.2,3.1-4.8,3-7c-0.1-2.8-2.1-4-4.4-4.8c-1.1-0.4-2.2-0.6-3.3-1.1c-1.7-0.8-2.9-1.6-4.7-0.6
	C100.9,130.1,100.2,130.8,99.4,131.5"/>
<path class="st9" d="M107.9,135.9c-0.1,1.5-1.3,2.6-2.8,2.5s-2.6-1.3-2.5-2.8c0.1-1.5,1.3-2.6,2.8-2.5
	C106.9,133.3,108,134.5,107.9,135.9"/>
<path class="st1" d="M96.7,207.7c-0.6-0.1-1.1-0.4-1.5-0.9c-21.2-22.6-20-29.5-22.3-49.4c-2.5-21.6,0.7-36.4,0.8-37
	c0.3-1.4,1.7-2.3,3.1-2c1.4,0.3,2.3,1.7,2,3.1c-0.1,0.6-9.2,57.3,20.4,81c1.1,0.9,0.8,3.7-0.3,4.7C98.2,207.7,97.4,207.9,96.7,207.7
	"/>
<path class="st7" d="M54.2,153.7c0,0,0.4-13.3-16.5-9.9C37.7,143.8,37.5,157,54.2,153.7"/>
<path class="st7" d="M90,108.6c0,0,10.8-2.1,5-15.1C95,93.5,84.3,95.7,90,108.6"/>
<path class="st0" d="M75,140.4c0,0-0.1-14.2,17.8-10.2C92.8,130.2,92.7,144.3,75,140.4"/>
<path class="st0" d="M71.2,193.3c0,0,5.8-8-5.9-13C65.3,180.4,59.6,188.4,71.2,193.3"/>
<path class="st0" d="M66.9,114.1c0,0-1-13.8-18.1-8.5C48.8,105.6,50,119.3,66.9,114.1"/>
<path class="st7" d="M76.8,205.6c0,0,5.8-8-5.9-12.9C70.8,192.6,65.1,200.7,76.8,205.6"/>
<path class="st7" d="M71.5,137c0,0,0.7-11.8-14.4-9.2C57.2,127.8,56.6,139.5,71.5,137"/>
<path class="st0" d="M81.3,167.2c0,0-6.8-13.9-22.3-1.1C59.1,166.1,66.1,179.8,81.3,167.2"/>
<path class="st10" d="M69.2,154.7c-0.2,1.2-0.1,1.9-0.5,3c-2.8,9.5,10.2,12.5,16.4,10.6c2.5-0.7,3.8-2.5,5.5-4.4
	c1.7-1.9,4.9-3.1,6-5.4c1.9-3.9-0.5-9.6-2.9-12.5c-3-3.6-6.8-3.3-10.8-2.1c-1.9,0.6-3.7,1.4-5.5,1.8c-3,0.6-5.6,0.7-7,4
	C69.8,151.4,69.6,153.1,69.2,154.7"/>
<path class="st9" d="M88.3,156.7c0.1,2.5-1.9,4.5-4.3,4.6c-2.5,0.1-4.5-1.9-4.6-4.3s1.9-4.5,4.3-4.6
	C86.2,152.2,88.3,154.2,88.3,156.7"/>
<path class="st10" d="M53.8,156.6c-0.7-0.3-1-0.5-1.6-0.7c-5.5-1.5-3.1-8.7-0.3-11.2c1.1-1,2.3-1.1,3.8-1.4c1.4-0.3,3-1.5,4.5-1.3
	c2.5,0.3,4.5,3.1,5.3,5.2c0.9,2.5-0.4,4.3-2.2,5.9c-0.8,0.7-1.8,1.3-2.5,2.2c-1.2,1.3-2,2.5-4.1,2.3
	C55.7,157.3,54.8,156.9,53.8,156.6"/>
<path class="st9" d="M58.6,146.7c-1.2-0.8-2.8-0.5-3.5,0.7c-0.8,1.2-0.5,2.8,0.7,3.5c1.2,0.8,2.8,0.5,3.5-0.7
	C60.1,149,59.8,147.4,58.6,146.7"/>
<path class="st10" d="M67.8,183.9c-1,2.8-2,6,0,8.6c2.5,3.1,7.8,5.6,11.7,3.9c2.3-1.1,4.8-2.8,5.8-5.1c0.9-1.8,0.9-3.9,0.5-5.8
	c-0.5-2.1-1.3-4.8-3.5-5.6c-1.4-0.5-2.9-0.2-4.3,0c-1,0.1-1.9-0.3-2.7-0.5c-1.5-0.3-3.2-0.5-4.6,0.2c-1.7,0.9-2.3,2.6-2.9,4.3V183.9
	z"/>
<path class="st9" d="M81.4,186.8c-0.3,2.1-2.1,3.5-4.2,3.3c-2.1-0.3-3.5-2.1-3.3-4.2c0.3-2.1,2.1-3.5,4.2-3.3S81.7,184.7,81.4,186.8
	"/>
<path class="st10" d="M66.7,123.6c-1.8,1.9-3.7,4.2-2.9,7c0.9,3.5,4.5,7.4,8.2,7.2c2.2-0.1,4.9-0.7,6.6-2.1c1.3-1.2,2.1-2.9,2.4-4.6
	c0.3-1.8,0.6-4.4-0.9-5.8c-0.9-0.9-2.3-1.2-3.6-1.5c-0.9-0.2-1.4-0.9-2.1-1.4c-1.1-0.8-2.5-1.5-3.8-1.5c-1.7,0.1-2.9,1.3-3.9,2.5
	L66.7,123.6z"/>
<path class="st9" d="M76.8,130.8c-0.9,1.6-3,2.1-4.6,1.2c-1.6-0.9-2.1-3-1.2-4.6c0.9-1.6,3-2.1,4.6-1.2
	C77.2,127.2,77.7,129.2,76.8,130.8"/>
<path class="st7" d="M97.2,172.7c0,0-4.7-14.6-21.7-4.5C75.5,168.2,80.3,182.7,97.2,172.7"/>
<path class="st4" d="M118,114.6c0,1.1-0.9,2.1-2.1,2.1c-1.1,0-2.1-0.9-2.1-2.1s0.9-2.1,2.1-2.1C117,112.5,118,113.5,118,114.6"/>
<path class="st4" d="M127.9,121.3c0,1.1-0.9,2.1-2.1,2.1c-1.1,0-2.1-0.9-2.1-2.1c0-1.1,0.9-2.1,2.1-2.1
	C127,119.3,127.9,120.2,127.9,121.3"/>
</svg>
