<?xml version="1.0" encoding="utf-8"?>
<!-- Generator: Adobe Illustrator 24.0.2, SVG Export Plug-In . SVG Version: 6.00 Build 0)  -->
<svg version="1.1" id="레이어_1" xmlns="http://www.w3.org/2000/svg" xmlns:xlink="http://www.w3.org/1999/xlink" x="0px"
	 y="0px" viewBox="0 0 198 230" style="enable-background:new 0 0 198 230;" xml:space="preserve">
<style type="text/css">
	.st0{fill:none;}
	.st1{fill:#64B8A4;}
	.st2{fill:#F4CC45;}
	.st3{fill:#F8F3D1;}
	.st4{fill:#96D2D2;}
	.st5{fill:#DAAD78;}
	.st6{fill:#F5CD5E;}
	.st7{fill:#727171;}
	.st8{fill:#EEE5B4;}
	.st9{fill:#71BEB6;}
	.st10{fill:#FFFFFF;}
	.st11{fill:#F1C344;}
</style>
<g id="그룹_670" transform="translate(0 -410)">
	<rect id="사각형_268" x="-0.4" y="458" class="st0" width="198" height="173.3"/>
	<g id="그룹_590" transform="translate(21 458.445)">
		<g id="그룹_550" transform="translate(52.927 4.227)">
			<g id="그룹_519">
				<g id="그룹_516" transform="translate(26.36 13.456)">
					<path id="패스_2735" class="st1" d="M70.4,87.2c0,13-10.5,23.5-23.5,23.5s-23.5-10.5-23.5-23.5s10.5-23.5,23.5-23.5l0,0
						C59.8,63.7,70.4,74.2,70.4,87.2L70.4,87.2z"/>
				</g>
				<g id="그룹_517" transform="translate(15.112)">
					<path id="패스_2736" class="st1" d="M61.7,81c0,11.3-9.2,20.5-20.5,20.5S20.7,92.3,20.7,81s9.2-20.5,20.5-20.5
						S61.7,69.7,61.7,81z"/>
				</g>
				<g id="그룹_518" transform="translate(0 12.421)">
					<path id="패스_2737" class="st1" d="M64.1,87c0,13-10.5,23.5-23.5,23.5S17.1,100,17.1,87s10.5-23.5,23.5-23.5l0,0
						C53.6,63.5,64.1,74,64.1,87C64.1,86.9,64.1,86.9,64.1,87z"/>
				</g>
			</g>
			<g id="그룹_525" transform="translate(11.524 35.049)">
				<g id="그룹_520" transform="translate(1.242 1.731)">
					<path id="패스_2738" class="st2" d="M26.4,73c-0.1,0.3-0.3,0.6-0.5,0.9s-0.4,0.5-0.6,0.7c-0.3,0.2-0.6,0.3-0.9,0.3
						c-0.3,0.1-0.6,0.2-0.9,0.3c-0.3,0-0.6,0-0.9-0.2c-0.3-0.1-0.6-0.2-0.9-0.4c-0.3-0.2-0.6-0.3-0.8-0.5c-0.2-0.3-0.3-0.6-0.4-0.9
						c-0.1-0.3-0.3-0.6-0.3-0.9c0-0.3,0.1-0.6,0.2-0.9c0.1-0.3,0.2-0.6,0.4-0.9c0.2-0.3,0.4-0.5,0.7-0.7c0.3-0.2,0.6-0.3,0.9-0.4
						c0.6-0.2,1.3-0.1,1.9,0.2c0.3,0.1,0.6,0.2,0.9,0.3c0.2,0.2,0.5,0.4,0.7,0.7c0.2,0.3,0.3,0.5,0.4,0.9c0.1,0.3,0.2,0.6,0.3,0.9
						C26.4,72.6,26.4,72.8,26.4,73z"/>
				</g>
				<g id="그룹_521" transform="translate(1.418 1.631)">
					<path id="패스_2739" class="st2" d="M26.2,73.1c-0.1,0.3-0.3,0.6-0.5,0.9s-0.4,0.6-0.6,0.8c-0.3,0.2-0.6,0.3-0.9,0.3
						c-0.6,0.2-1.3,0.2-1.9,0c-0.3-0.1-0.6-0.2-0.9-0.3c-0.3-0.2-0.5-0.4-0.7-0.7c-0.2-0.2-0.4-0.5-0.5-0.8c0-0.3,0-0.6,0-0.9
						s0-0.6,0.1-0.9c0-0.3,0.1-0.6,0.3-0.9c0.2-0.3,0.4-0.5,0.7-0.7c0.3-0.2,0.6-0.3,0.9-0.3c0.3-0.1,0.6-0.2,0.9-0.2s0.6,0,0.9,0
						c0.3,0.1,0.6,0.2,0.9,0.4c0.3,0.2,0.5,0.4,0.7,0.6c0.2,0.3,0.3,0.5,0.4,0.9c0.1,0.3,0.2,0.6,0.2,0.9
						C26.3,72.4,26.3,72.8,26.2,73.1z"/>
				</g>
				<g id="그룹_522" transform="translate(2.508 0.995)">
					<path id="패스_2740" class="st2" d="M22.8,70.6c-0.2,0.6-0.8,1-1.4,0.9c-0.3-0.1-0.6-0.3-0.8-0.6c-0.2-0.3-0.2-0.6-0.1-0.9
						c0.1-0.3,0.3-0.6,0.6-0.7c0.3-0.2,0.6-0.2,0.9-0.1c0.3,0.1,0.6,0.2,0.8,0.5C22.9,70,22.9,70.3,22.8,70.6z"/>
				</g>
				<g id="그룹_523" transform="translate(2.553 3.387)">
					<path id="패스_2741" class="st3" d="M21.9,72C21.8,72,21.8,72,21.9,72l-0.1-0.3l0.1-0.1c0-0.1,0.1-0.1,0.2-0.1
						s0.1,0.1,0.1,0.2S22.1,71.9,21.9,72z"/>
					<path id="패스_2742" class="st3" d="M23.3,72.6C23.2,72.6,23.2,72.6,23.3,72.6c-0.2-0.2-0.1-0.3,0-0.3l0.1-0.1
						c0-0.1,0.1-0.1,0.2-0.1s0.1,0.1,0.1,0.2C23.5,72.5,23.4,72.6,23.3,72.6z"/>
					<path id="패스_2743" class="st3" d="M24.3,70.8C24.2,70.8,24.2,70.8,24.3,70.8c-0.1-0.2-0.1-0.3,0-0.3l0.1-0.1
						c0-0.1,0.1-0.1,0.2-0.1s0.1,0.1,0.1,0.2C24.6,70.7,24.4,70.8,24.3,70.8z"/>
					<path id="패스_2744" class="st3" d="M24,70.1C23.9,70.1,23.9,70.1,24,70.1c-0.1-0.2-0.1-0.3,0-0.3l0.1-0.1
						c0-0.1,0.1-0.1,0.2-0.1s0.1,0.1,0.1,0.2C24.2,69.9,24.1,70,24,70.1C24.1,70,24.1,70.1,24,70.1z"/>
					<path id="패스_2745" class="st3" d="M23,71.8C22.9,71.8,22.9,71.8,23,71.8c-0.1-0.1-0.1-0.2-0.1-0.3l0.1-0.1
						c0-0.1,0.1-0.1,0.2-0.1s0.1,0.1,0.1,0.2C23.3,71.6,23.2,71.7,23,71.8z"/>
					<path id="패스_2746" class="st3" d="M23.3,70.9C23.2,70.9,23.2,70.9,23.3,70.9c-0.1-0.2-0.1-0.3,0-0.3l0.1-0.1
						c0-0.1,0.1-0.1,0.2-0.1s0.1,0.1,0.1,0.2C23.5,70.8,23.4,70.9,23.3,70.9z"/>
					<path id="패스_2747" class="st3" d="M24,71.8C23.9,71.8,23.9,71.8,24,71.8c-0.1-0.1-0.1-0.2-0.1-0.3l0.1-0.1
						c0-0.1,0.1-0.1,0.2-0.1s0.1,0.1,0.1,0.2C24.3,71.6,24.1,71.7,24,71.8z"/>
					<path id="패스_2748" class="st3" d="M22.4,72.8C22.3,72.8,22.3,72.8,22.4,72.8c-0.1-0.2-0.1-0.3,0-0.3l0.1-0.1
						c0-0.1,0.1-0.1,0.2-0.1s0.1,0.1,0.1,0.2C22.6,72.7,22.5,72.7,22.4,72.8z"/>
					<path id="패스_2749" class="st3" d="M20.6,72.5C20.5,72.5,20.5,72.5,20.6,72.5l-0.1-0.3l0.1-0.1c0-0.1,0.1-0.1,0.2-0.1
						s0.1,0.1,0.1,0.2C20.9,72.3,20.7,72.4,20.6,72.5z"/>
					<path id="패스_2750" class="st3" d="M21.4,72.8C21.3,72.8,21.3,72.8,21.4,72.8l-0.1-0.3l0.1-0.1c0-0.1,0.1-0.1,0.2-0.1
						s0.1,0.1,0.1,0.2C21.6,72.6,21.5,72.8,21.4,72.8z"/>
				</g>
				<g id="그룹_524">
					<path id="패스_2751" class="st4" d="M24.4,70.5c0,0.1-0.2,0.2-0.3,0.2c-0.2,0-0.3-0.1-0.3-0.2c0-0.1,0.1-0.2,0.3-0.3
						C24.1,70.3,24.4,70.4,24.4,70.5z"/>
					<path id="패스_2752" class="st4" d="M23.7,70c0,0-2-1.6-3.8,1.4C19.9,71.4,23.9,71.7,23.7,70z"/>
					<path id="패스_2753" class="st4" d="M23.9,70c0,0-0.8-2-3.2-0.7C20.6,69.3,23.3,71.2,23.9,70z"/>
					<path id="패스_2754" class="st4" d="M24,70.5C23.9,70.5,23.9,70.4,24,70.5c0-0.1-0.1-0.2-0.2-0.3s-0.2-0.2-0.3-0.3l-0.1-0.1
						l-0.1-0.1v-0.1c0-0.1,0-0.1,0.1-0.1h0.2l0.1,0.1l0.1,0.1c0.1,0.2,0.2,0.3,0.3,0.4c0.1,0.1,0.1,0.2,0.1,0.3L24,70.5L24,70.5z"/>
				</g>
			</g>
			<g id="그룹_531" transform="translate(41.927 23.456)">
				<g id="그룹_526" transform="translate(0.067 1.562)">
					<path id="패스_2755" class="st2" d="M27.2,70.3c0.1,0.3,0.2,0.6,0.3,0.9c0.2,0.3,0.4,0.5,0.7,0.7c0.3,0.2,0.6,0.3,0.9,0.3
						c0.3,0.1,0.6,0.2,0.9,0.2s0.6,0,0.9,0c0.3-0.1,0.6-0.2,0.9-0.3c0.2-0.2,0.4-0.5,0.6-0.8c0.2-0.2,0.4-0.5,0.5-0.8
						c0.1-0.3,0.1-0.6,0.1-0.9s0-0.6-0.1-0.9s-0.3-0.5-0.5-0.8c-0.2-0.2-0.4-0.5-0.7-0.7c-0.2-0.2-0.5-0.3-0.8-0.4s-0.6-0.2-0.9-0.3
						c-0.3,0-0.6,0-0.9,0c-0.3,0.1-0.7,0.2-0.9,0.4c-0.3,0.2-0.3,0.6-0.5,0.9s-0.5,0.4-0.6,0.8c0,0.3,0,0.6,0,0.9
						C27.1,69.8,27.2,70.1,27.2,70.3z"/>
				</g>
				<g id="그룹_527" transform="translate(0 1.493)">
					<path id="패스_2756" class="st2" d="M27.1,70.4c0.1,0.3,0.3,0.5,0.6,0.8c0.2,0.3,0.4,0.5,0.6,0.8c0.3,0.2,0.6,0.3,0.9,0.3
						c0.3,0.1,0.6,0.2,0.9,0.2s0.6,0,0.9,0c0.9-0.4,1.6-1.1,1.9-2c0.1-0.3,0.2-0.6,0.3-0.9c0-0.3,0-0.6,0-0.9
						c-0.1-0.3-0.3-0.6-0.5-0.9c-0.2-0.3-0.4-0.5-0.6-0.8c-0.3-0.2-0.6-0.3-0.9-0.3c-0.3-0.1-0.6-0.1-0.9-0.1s-0.6,0-0.9,0
						c-0.3,0.1-0.5,0.3-0.9,0.5c-0.6,0.3-1,0.8-1.2,1.5c-0.1,0.3-0.1,0.6-0.1,0.9C27.1,69.7,27.1,70.1,27.1,70.4z"/>
				</g>
				<g id="그룹_528" transform="translate(1.846 0.788)">
					<path id="패스_2757" class="st2" d="M27.6,68c0.1,0.3,0.3,0.6,0.6,0.7c0.3,0.2,0.6,0.2,0.9,0.1s0.6-0.3,0.8-0.6
						c0.2-0.3,0.2-0.6,0.1-0.9s-0.3-0.6-0.6-0.8c-0.3-0.2-0.6-0.2-0.9-0.1s-0.6,0.3-0.8,0.6C27.5,67.3,27.5,67.6,27.6,68z"/>
				</g>
				<g id="그룹_529" transform="translate(0.374 3.318)">
					<path id="패스_2758" class="st3" d="M29.9,69.2C30,69.2,30,69.2,29.9,69.2c0.1-0.2,0.1-0.3,0-0.3l-0.1-0.1
						c0-0.1-0.1-0.1-0.2-0.1s-0.1,0.1-0.1,0.2C29.7,69,29.7,69.2,29.9,69.2z"/>
					<path id="패스_2759" class="st3" d="M28.5,69.9C28.6,69.9,28.6,69.9,28.5,69.9c0.1-0.2,0.1-0.3,0-0.3l-0.1-0.1
						c0-0.1-0.1-0.1-0.2-0.1s-0.1,0.1-0.1,0.2C28.3,69.7,28.5,69.8,28.5,69.9z"/>
					<path id="패스_2760" class="st3" d="M27.5,68.1C27.6,68.1,27.6,68.1,27.5,68.1c0.1-0.2,0.1-0.3,0-0.3l-0.1-0.1
						c0-0.1-0.1-0.1-0.2-0.1s-0.1,0.1-0.1,0.2C27.3,67.9,27.3,68.1,27.5,68.1z"/>
					<path id="패스_2761" class="st3" d="M27.9,67.3L27.9,67.3c0.1-0.2,0.1-0.3,0-0.3h-0.1c0-0.1-0.1-0.1-0.2-0.1
						s-0.1,0.1-0.1,0.2C27.6,67.2,27.7,67.2,27.9,67.3z"/>
					<path id="패스_2762" class="st3" d="M28.8,69C28.9,69,28.9,69,28.8,69c0.1-0.1,0.1-0.2,0.1-0.3l-0.1-0.1
						c0-0.1-0.1-0.1-0.2-0.1s-0.1,0.1-0.1,0.2C28.5,68.9,28.6,69,28.8,69L28.8,69z"/>
					<path id="패스_2763" class="st3" d="M28.5,68.2C28.6,68.2,28.6,68.2,28.5,68.2c0.1-0.2,0.1-0.3,0-0.3l-0.1-0.1
						c0-0.1-0.1-0.1-0.2-0.1s-0.1,0.1-0.1,0.2C28.3,68,28.4,68.1,28.5,68.2z"/>
					<path id="패스_2764" class="st3" d="M27.9,69.1L27.9,69.1C28,69,28,68.9,28,68.8l-0.1-0.1c0-0.1-0.1-0.1-0.2-0.1
						s-0.1,0.1-0.1,0.2C27.6,68.9,27.7,69,27.9,69.1z"/>
					<path id="패스_2765" class="st3" d="M29.5,70.1C29.6,70.1,29.6,70.1,29.5,70.1c0.1-0.2,0.1-0.3,0-0.3l-0.1-0.1
						c0-0.1-0.1-0.1-0.2-0.1s-0.1,0.1-0.1,0.2C29.2,70,29.4,70.1,29.5,70.1z"/>
					<path id="패스_2766" class="st3" d="M31.3,69.7C31.4,69.7,31.4,69.7,31.3,69.7l0.1-0.3l-0.1-0.1c0-0.1-0.1-0.1-0.2-0.1
						S31,69.4,31,69.4C31,69.5,31.1,69.6,31.3,69.7z"/>
					<path id="패스_2767" class="st3" d="M30.5,70.1C30.6,70.1,30.6,70.1,30.5,70.1c0.1-0.1,0.1-0.2,0.1-0.3l-0.1-0.1
						c0-0.1-0.1-0.1-0.2-0.1s-0.1,0.1-0.1,0.2C30.2,69.9,30.3,70,30.5,70.1z"/>
				</g>
				<g id="그룹_530" transform="translate(2.651)">
					<path id="패스_2768" class="st4" d="M27.7,67.7c0,0.1,0.2,0.2,0.3,0.2s0.3-0.1,0.3-0.2s-0.1-0.2-0.3-0.3
						C28,67.5,27.7,67.6,27.7,67.7z"/>
					<path id="패스_2769" class="st4" d="M28.4,67.3c0,0,2-1.5,3.8,1.4C32.2,68.6,28.3,68.8,28.4,67.3z"/>
					<path id="패스_2770" class="st4" d="M28.2,67.2c0,0,0.8-2,3.2-0.7C31.5,66.5,28.8,68.3,28.2,67.2z"/>
					<path id="패스_2771" class="st4" d="M28.1,67.7L28.1,67.7c0-0.1,0.1-0.2,0.2-0.3s0.2-0.2,0.3-0.3l0.1-0.1l0.1-0.1v-0.1
						c0,0,0-0.1-0.1-0.1l0,0h-0.2l-0.1,0.1L28.3,67c-0.1,0.2-0.2,0.3-0.3,0.4c0,0.1,0,0.1,0,0.3C28.1,67.6,28.1,67.7,28.1,67.7z"/>
				</g>
			</g>
			<g id="그룹_537" transform="translate(30.846 6.688)">
				<g id="그룹_532" transform="translate(1.556 1.575)">
					<path id="패스_2772" class="st2" d="M30.7,66.3c-0.1,0.3-0.2,0.6-0.4,0.9c-0.2,0.3-0.4,0.5-0.6,0.7c-0.3,0.2-0.5,0.4-0.9,0.5
						c-0.3,0.1-0.6,0.1-0.9,0.1s-0.6,0-0.9-0.1s-0.6-0.2-0.9-0.3c-0.2-0.2-0.4-0.5-0.6-0.8c-0.2-0.2-0.4-0.5-0.5-0.8
						c-0.1-0.3-0.1-0.6-0.1-0.9s0-0.6,0-0.9c0.1-0.3,0.3-0.6,0.5-0.9c0.5-0.4,1-0.8,1.6-1c0.3-0.1,0.6-0.2,0.9-0.3
						c0.3,0,0.7-0.1,0.9,0.1c0.3,0.1,0.6,0.2,0.9,0.4c0.2,0.2,0.5,0.4,0.7,0.7s0.5,0.5,0.6,0.8c0,0.3,0,0.6,0,0.9
						C30.7,65.7,30.8,66.1,30.7,66.3z"/>
				</g>
				<g id="그룹_533" transform="translate(1.242 1.524)">
					<path id="패스_2773" class="st2" d="M31,66.5c-0.1,0.3-0.2,0.7-0.4,0.9c-0.2,0.3-0.4,0.5-0.7,0.7c-0.3,0.2-0.6,0.3-0.9,0.3
						c-0.3,0.1-0.6,0.2-0.9,0.3c-0.3,0-0.6-0.1-0.9-0.2c-0.3-0.1-0.6-0.3-0.9-0.5c-0.3-0.2-0.6-0.4-0.8-0.6
						c-0.2-0.3-0.3-0.6-0.3-0.9c-0.1-0.3-0.3-0.6-0.3-0.9c0-0.3,0.1-0.6,0.3-0.9c0.1-0.3,0.2-0.6,0.4-0.9c0.2-0.3,0.4-0.5,0.7-0.7
						c0.3-0.2,0.6-0.3,0.9-0.4c0.6-0.3,1.3-0.3,1.9,0c0.3,0,0.6,0.1,0.9,0.3s0.6,0.4,0.8,0.6c0.2,0.3,0.3,0.6,0.4,0.9
						s0.1,0.6,0.1,0.9C31,65.8,31.1,66.1,31,66.5z"/>
				</g>
				<g id="그룹_534" transform="translate(2.457 0.788)">
					<path id="패스_2774" class="st2" d="M27.5,64c-0.1,0.3-0.3,0.6-0.6,0.7c-0.7,0.3-1.4,0-1.7-0.7c-0.1-0.2-0.1-0.5-0.1-0.8
						c0.1-0.3,0.3-0.6,0.6-0.8c0.3-0.2,0.6-0.2,0.9-0.1c0.3,0.1,0.6,0.3,0.7,0.6C27.5,63.2,27.6,63.6,27.5,64z"/>
				</g>
				<g id="그룹_535" transform="translate(2.553 3.318)">
					<path id="패스_2775" class="st3" d="M26.5,65.3C26.4,65.3,26.4,65.3,26.5,65.3L26.4,65l0.1-0.1c0-0.1,0.1-0.1,0.2-0.1
						s0.1,0.1,0.1,0.2C26.8,65.1,26.7,65.2,26.5,65.3C26.6,65.2,26.6,65.3,26.5,65.3z"/>
					<path id="패스_2776" class="st3" d="M27.9,65.9C27.8,65.9,27.8,65.9,27.9,65.9c-0.1-0.2-0.1-0.3,0-0.3l0.1-0.1
						c0-0.1,0.1-0.1,0.2-0.1s0.1,0.1,0.1,0.2C28.1,65.7,28,65.8,27.9,65.9z"/>
					<path id="패스_2777" class="st3" d="M28.9,64.1C28.8,64.1,28.8,64.1,28.9,64.1c-0.1-0.2-0.1-0.3,0-0.3l0.1-0.1
						c0-0.1,0.1-0.1,0.2-0.1s0.1,0.1,0.1,0.2C29.2,64,29.1,64.1,28.9,64.1z"/>
					<path id="패스_2778" class="st3" d="M28.6,63.3L28.6,63.3c-0.1-0.2-0.1-0.3,0-0.3l0.1-0.1c0-0.1,0.1-0.1,0.2-0.1
						S29,63,29,63.1C28.9,63.1,28.7,63.2,28.6,63.3z"/>
					<path id="패스_2779" class="st3" d="M27.7,65.1C27.6,65.1,27.6,65.1,27.7,65.1l-0.1-0.3l0.1-0.1c0-0.1,0.1-0.1,0.2-0.1
						s0.1,0.1,0.1,0.2L27.7,65.1z"/>
					<path id="패스_2780" class="st3" d="M28,64.2C27.9,64.2,27.9,64.2,28,64.2c-0.1-0.2-0.1-0.3,0-0.3l0.1-0.1
						c0-0.1,0.1-0.1,0.2-0.1s0.1,0.1,0.1,0.2C28.2,64,28.1,64.1,28,64.2z"/>
					<path id="패스_2781" class="st3" d="M28.6,65.1L28.6,65.1c-0.1-0.1-0.1-0.2-0.1-0.3l0.1-0.1c0-0.1,0.1-0.1,0.2-0.1
						s0.1,0.1,0.1,0.2L28.6,65.1z"/>
					<path id="패스_2782" class="st3" d="M26.9,66.1L26.9,66.1c-0.1-0.2-0.1-0.3,0-0.3l0.1-0.1c0-0.1,0.1-0.1,0.2-0.1
						s0.1,0.1,0.1,0.2C27.2,66,27.1,66.1,26.9,66.1z"/>
					<path id="패스_2783" class="st3" d="M25.1,65.7L25.1,65.7L25,65.4l0.1-0.1c0-0.1,0.1-0.1,0.2-0.1s0.1,0.1,0.1,0.2
						C25.4,65.5,25.3,65.6,25.1,65.7z"/>
					<path id="패스_2784" class="st3" d="M26,66.1C25.9,66.1,25.9,66.1,26,66.1l-0.1-0.3l0.1-0.1c0-0.1,0.1-0.1,0.2-0.1
						s0.1,0.1,0.1,0.2C26.3,65.9,26.2,66.1,26,66.1z"/>
				</g>
				<g id="그룹_536">
					<path id="패스_2785" class="st4" d="M29,63.7c0,0.1-0.2,0.2-0.3,0.2c-0.2,0-0.3-0.1-0.3-0.2c0-0.1,0.1-0.2,0.3-0.3
						C28.7,63.5,29,63.6,29,63.7z"/>
					<path id="패스_2786" class="st4" d="M28.3,63.3c0,0-2-1.6-3.8,1.4C24.5,64.7,28.5,64.8,28.3,63.3z"/>
					<path id="패스_2787" class="st4" d="M28.5,63.2c0,0-0.8-2-3.2-0.7C25.3,62.5,28,64.3,28.5,63.2z"/>
					<path id="패스_2788" class="st4" d="M28.6,63.7L28.6,63.7c0-0.1-0.1-0.2-0.2-0.3s-0.2-0.2-0.3-0.3l-0.1,0c0,0-0.1,0-0.1-0.1
						l0,0v-0.1c0,0,0-0.1,0.1-0.1l0,0h0.2l0.1,0.1c0,0,0,0.1,0.1,0.1l0,0c0.1,0.2,0.2,0.3,0.3,0.4c0.1,0.1,0.1,0.2,0.1,0.3H28.6z"/>
				</g>
			</g>
			<g id="그룹_543" transform="translate(13.428 16.556)">
				<g id="그룹_538" transform="translate(0.029 1.593)">
					<path id="패스_2789" class="st2" d="M20.4,68.7c0.1,0.3,0.2,0.6,0.4,0.9c0.2,0.2,0.4,0.5,0.7,0.7c0.3,0.2,0.5,0.4,0.9,0.5
						c0.6,0.3,1.3,0.3,1.9,0c0.3-0.1,0.6-0.2,0.9-0.4c0.3-0.2,0.5-0.4,0.7-0.6c0.2-0.3,0.3-0.6,0.4-0.9c0.1-0.3,0.3-0.6,0.3-0.9
						c0-0.3-0.1-0.6-0.2-0.9c-0.1-0.3-0.2-0.6-0.4-0.9c-0.2-0.2-0.4-0.5-0.6-0.7c-0.3-0.2-0.5-0.3-0.9-0.4c-0.3-0.1-0.6-0.2-0.9-0.2
						s-0.7,0-1,0.1s-0.6,0.3-0.9,0.5c-0.2,0.2-0.5,0.4-0.7,0.7c-0.2,0.2-0.4,0.5-0.5,0.8c-0.1,0.3-0.2,0.6-0.2,0.9
						C20.3,68.1,20.3,68.4,20.4,68.7z"/>
				</g>
				<g id="그룹_539" transform="translate(0 1.562)">
					<path id="패스_2790" class="st2" d="M20.4,68.7c0.2,0.6,0.6,1.2,1,1.6c0.3,0.2,0.6,0.3,0.9,0.3c0.3,0.1,0.6,0.3,0.9,0.3
						s0.6-0.1,0.9-0.3c0.3,0,0.6-0.1,0.9-0.3c0.3-0.2,0.3-0.5,0.6-0.8c0.2-0.3,0.3-0.5,0.4-0.9c0.1-0.3,0.2-0.6,0.3-0.9
						c0-0.3-0.1-0.6-0.2-0.9c-0.1-0.3-0.2-0.6-0.4-0.9c-0.2-0.2-0.4-0.5-0.7-0.7c-0.2-0.2-0.5-0.4-0.8-0.5s-0.6-0.1-0.9-0.1
						s-0.6,0-0.9,0c-0.3,0.1-0.5,0.4-0.8,0.6c-0.3,0.1-0.6,0.3-0.9,0.5c-0.2,0.3-0.3,0.6-0.3,0.9c-0.1,0.3-0.2,0.6-0.3,0.9
						C20.3,68.1,20.3,68.4,20.4,68.7z"/>
				</g>
				<g id="그룹_540" transform="translate(1.865 0.857)">
					<path id="패스_2791" class="st2" d="M20.8,66.2c0.1,0.3,0.3,0.6,0.6,0.8c0.3,0.2,0.6,0.2,0.9,0.1c0.3-0.1,0.6-0.3,0.7-0.6
						c0.2-0.3,0.2-0.6,0.1-0.9c-0.1-0.3-0.2-0.6-0.5-0.8c-0.6-0.3-1.3-0.1-1.6,0.5l0,0C20.8,65.6,20.7,65.9,20.8,66.2z"/>
				</g>
				<g id="그룹_541" transform="translate(0.374 3.318)">
					<path id="패스_2792" class="st3" d="M23.2,67.5C23.3,67.5,23.3,67.5,23.2,67.5c0.1-0.2,0.1-0.3,0-0.3l-0.1-0.1
						c0-0.1-0.1-0.1-0.2-0.1s-0.1,0.1-0.1,0.2C23,67.4,23.1,67.5,23.2,67.5z"/>
					<path id="패스_2793" class="st3" d="M21.9,68.2L21.9,68.2c0.1-0.2,0.1-0.3,0-0.3l-0.1-0.1c0-0.1-0.1-0.1-0.2-0.1
						s-0.1,0.1-0.1,0.2C21.6,68.1,21.7,68.2,21.9,68.2z"/>
					<path id="패스_2794" class="st3" d="M20.7,66.4C20.8,66.4,20.8,66.4,20.7,66.4c0.1-0.2,0.1-0.3,0-0.3L20.6,66
						c0-0.1-0.1-0.1-0.2-0.1s-0.1,0.1-0.1,0.2C20.6,66.3,20.7,66.4,20.7,66.4z"/>
					<path id="패스_2795" class="st3" d="M21.1,65.7C21.2,65.7,21.2,65.7,21.1,65.7c0.1-0.2,0.1-0.3,0-0.3L21,65.3
						c0-0.1-0.1-0.1-0.2-0.1s-0.1,0.1-0.1,0.2C20.8,65.5,21,65.6,21.1,65.7z"/>
					<path id="패스_2796" class="st3" d="M22,67.4C22.1,67.4,22.1,67.4,22,67.4l0.1-0.3L22,67c0-0.1-0.1-0.1-0.2-0.1
						s-0.1,0.1-0.1,0.2C21.8,67.2,21.9,67.3,22,67.4z"/>
					<path id="패스_2797" class="st3" d="M21.8,66.5C21.9,66.5,21.9,66.5,21.8,66.5c0.1-0.2,0.1-0.3,0-0.3l-0.1-0.1
						c0-0.1-0.1-0.1-0.2-0.1c0,0,0,0.1,0,0.2C21.5,66.3,21.7,66.4,21.8,66.5z"/>
					<path id="패스_2798" class="st3" d="M21.1,67.5C21.2,67.5,21.2,67.5,21.1,67.5c0.1-0.1,0.1-0.2,0.1-0.3l-0.1-0.1
						c0-0.1-0.1-0.1-0.2-0.1s-0.1,0.1-0.1,0.2L21.1,67.5z"/>
					<path id="패스_2799" class="st3" d="M22.8,68.5C22.9,68.5,22.9,68.5,22.8,68.5c0.1-0.2,0.1-0.3,0-0.3l-0.1-0.1
						c0-0.1-0.1-0.1-0.2-0.1s-0.1,0.1-0.1,0.2C22.6,68.3,22.7,68.4,22.8,68.5C22.7,68.4,22.7,68.5,22.8,68.5z"/>
					<path id="패스_2800" class="st3" d="M24.6,68.1C24.7,68.1,24.7,68.1,24.6,68.1c0.1-0.2,0.1-0.3,0-0.3l-0.1-0.1
						c0-0.1-0.1-0.1-0.2-0.1s-0.1,0.1-0.1,0.2C24.3,67.9,24.5,68,24.6,68.1z"/>
					<path id="패스_2801" class="st3" d="M23.7,68.5C23.8,68.5,23.8,68.5,23.7,68.5c0.1-0.1,0.1-0.2,0.1-0.3l-0.1-0.1
						c0-0.1-0.1-0.1-0.2-0.1s-0.1,0.1-0.1,0.2C23.4,68.3,23.6,68.4,23.7,68.5z"/>
				</g>
				<g id="그룹_542" transform="translate(2.72)">
					<path id="패스_2802" class="st4" d="M21,66.1c0,0.1,0.2,0.2,0.3,0.2c0.2,0,0.3-0.1,0.3-0.2c0-0.1-0.1-0.2-0.3-0.3
						C21.2,65.8,21,66,21,66.1z"/>
					<path id="패스_2803" class="st4" d="M21.6,65.7c0,0,2-1.6,3.8,1.4C25.4,66.9,21.5,67.2,21.6,65.7z"/>
					<path id="패스_2804" class="st4" d="M21.4,65.6c0,0,0.8-2,3.2-0.7C24.6,64.9,22,66.7,21.4,65.6z"/>
					<path id="패스_2805" class="st4" d="M21.4,66.1L21.4,66.1c0-0.1,0.1-0.2,0.2-0.3s0.2-0.2,0.3-0.3l0.1-0.1c0,0,0.1,0,0.1-0.1
						l0,0v-0.1c0,0,0-0.1-0.1-0.1l0,0h-0.2l-0.1,0.1c0,0,0,0.1-0.1,0.1l0,0c-0.1,0.2-0.2,0.3-0.3,0.4c-0.1,0.1-0.1,0.2-0.1,0.3
						C21.3,66,21.3,66.1,21.4,66.1z"/>
				</g>
			</g>
			<g id="그룹_549" transform="translate(49.063 35.325)">
				<g id="그룹_544" transform="translate(1.311 1.524)">
					<path id="패스_2806" class="st2" d="M35.3,73.3c-0.1,0.3-0.2,0.6-0.4,0.9c-0.2,0.3-0.4,0.5-0.7,0.7C34,75,33.6,75,33.3,75.2
						c-0.3,0.1-0.6,0.2-0.9,0.3c-0.3,0-0.6-0.1-0.9-0.2s-0.6-0.2-0.9-0.4c-0.3-0.2-0.7-0.3-0.9-0.5c-0.1-0.3-0.2-0.6-0.3-0.9
						c-0.1-0.3-0.3-0.6-0.3-0.9s0-0.7,0.1-1c0.1-0.3,0.4-0.5,0.6-0.8c0.2-0.2,0.4-0.5,0.7-0.7c0.3-0.2,0.5-0.3,0.9-0.4
						c0.6-0.3,1.3-0.3,1.9,0c0.3,0.1,0.6,0.2,0.9,0.3c0.3,0.2,0.6,0.4,0.8,0.6c0.2,0.3,0.3,0.6,0.3,0.9c0.1,0.3,0.2,0.6,0.3,0.9
						C35.3,72.6,35.4,72.9,35.3,73.3z"/>
				</g>
				<g id="그룹_545" transform="translate(1.349 1.524)">
					<path id="패스_2807" class="st2" d="M35.2,73.3c-0.1,0.3-0.3,0.6-0.5,0.9c-0.2,0.2-0.4,0.5-0.7,0.7c-0.3,0.2-0.6,0.3-0.9,0.4
						c-0.3,0.1-0.6,0.3-0.9,0.3c-0.3,0-0.6-0.1-0.9-0.2c-0.3-0.1-0.6-0.3-0.9-0.5c-0.3-0.2-0.5-0.4-0.7-0.7
						c-0.2-0.3-0.5-0.5-0.6-0.8c0-0.3,0-0.6,0-0.9c0-0.3,0-0.6,0.1-0.9c0.1-0.3,0.2-0.6,0.3-0.9c0.2-0.3,0.4-0.5,0.7-0.7
						c0.3-0.2,0.6-0.3,0.9-0.3c0.3-0.1,0.6-0.3,0.9-0.3s0.6,0,0.9,0.1c0.3,0.1,0.7,0.2,0.9,0.4c0.3,0.2,0.5,0.4,0.7,0.7
						c0.2,0.3,0.3,0.6,0.4,0.9c0,0.3,0,0.6,0,0.9C35.2,72.6,35.3,72.9,35.2,73.3z"/>
				</g>
				<g id="그룹_546" transform="translate(2.439 0.875)">
					<path id="패스_2808" class="st2" d="M31.8,70.7c-0.1,0.3-0.3,0.6-0.6,0.7c-0.3,0.2-0.6,0.2-0.9,0.1c-0.3-0.1-0.6-0.2-0.8-0.5
						c-0.2-0.3-0.2-0.6-0.1-0.9c0.1-0.3,0.3-0.6,0.6-0.7c0.3-0.2,0.6-0.2,0.9-0.2c0.3,0.1,0.6,0.3,0.7,0.6
						C31.9,70,31.9,70.4,31.8,70.7z"/>
				</g>
				<g id="그룹_547" transform="translate(2.523 3.318)">
					<path id="패스_2809" class="st3" d="M30.9,72C30.8,72,30.8,72,30.9,72l-0.1-0.3l0.1-0.1c0-0.1,0.1-0.1,0.2-0.1
						s0.1,0.1,0.1,0.2C31.1,71.9,31.1,72,30.9,72L30.9,72z"/>
					<path id="패스_2810" class="st3" d="M32.2,72.7L32.2,72.7c-0.1-0.2-0.1-0.3,0-0.3l0.1-0.1c0-0.1,0.1-0.1,0.2-0.1
						s0.1,0.1,0.1,0.2C32.5,72.5,32.4,72.6,32.2,72.7z"/>
					<path id="패스_2811" class="st3" d="M33.3,70.9C33.2,70.9,33.2,70.9,33.3,70.9c-0.1-0.2-0.1-0.3,0-0.3l0.1-0.1
						c0-0.1,0.1-0.1,0.2-0.1c0.1,0,0.1,0.1,0.1,0.2C33.5,70.8,33.4,70.9,33.3,70.9z"/>
					<path id="패스_2812" class="st3" d="M32.9,70.1C32.8,70.1,32.8,70.1,32.9,70.1c-0.1-0.2-0.1-0.3,0-0.3l0.1-0.1
						c0-0.1,0.1-0.1,0.2-0.1s0.1,0.1,0.1,0.2C33.2,70,33.1,70.1,32.9,70.1z"/>
					<path id="패스_2813" class="st3" d="M32,71.9C31.9,71.9,31.9,71.9,32,71.9c-0.1-0.1-0.1-0.2-0.1-0.3l0.1-0.1
						c0-0.1,0.1-0.1,0.2-0.1s0.1,0.1,0.1,0.2C32.3,71.7,32.2,71.8,32,71.9C32.1,71.8,32.1,71.9,32,71.9z"/>
					<path id="패스_2814" class="st3" d="M32.2,71L32.2,71c-0.1-0.2-0.1-0.3,0-0.3l0.1-0.1c0-0.1,0.1-0.1,0.2-0.1s0.1,0.1,0.1,0.2
						C32.5,70.8,32.4,70.9,32.2,71z"/>
					<path id="패스_2815" class="st3" d="M32.9,71.9C32.8,71.9,32.8,71.9,32.9,71.9c-0.1-0.1-0.1-0.2-0.1-0.3l0.1-0.1
						c0-0.1,0.1-0.1,0.2-0.1s0.1,0.1,0.1,0.2C33.2,71.7,33.1,71.8,32.9,71.9z"/>
					<path id="패스_2816" class="st3" d="M31.3,72.9C31.2,72.9,31.2,72.9,31.3,72.9c-0.1-0.2-0.1-0.3,0-0.3l0.1-0.1
						c0-0.1,0.1-0.1,0.2-0.1s0.1,0.1,0.1,0.2C31.5,72.8,31.4,72.9,31.3,72.9z"/>
					<path id="패스_2817" class="st3" d="M29.5,72.5C29.4,72.5,29.4,72.5,29.5,72.5c-0.1-0.1-0.1-0.2-0.1-0.3l0.1-0.1
						c0-0.1,0.1-0.1,0.2-0.1s0.1,0.1,0.1,0.2C29.8,72.3,29.7,72.4,29.5,72.5z"/>
					<path id="패스_2818" class="st3" d="M30.4,72.9C30.3,72.9,30.3,72.9,30.4,72.9c-0.1-0.1-0.1-0.2-0.1-0.3l0.1-0.1
						c0-0.1,0.1-0.1,0.2-0.1s0.1,0.1,0.1,0.2C30.6,72.8,30.4,72.9,30.4,72.9z"/>
				</g>
				<g id="그룹_548">
					<path id="패스_2819" class="st4" d="M33.3,70.5c0,0.1-0.2,0.2-0.3,0.2s-0.3-0.1-0.3-0.2c0-0.1,0.1-0.2,0.3-0.3
						C33.1,70.3,33.3,70.5,33.3,70.5z"/>
					<path id="패스_2820" class="st4" d="M32.6,70.1c0,0-2-1.6-3.8,1.4C28.8,71.5,32.8,71.6,32.6,70.1z"/>
					<path id="패스_2821" class="st4" d="M32.8,70c0,0-0.8-2-3.2-0.7C29.6,69.3,32.2,71.1,32.8,70z"/>
					<path id="패스_2822" class="st4" d="M32.9,70.5C32.9,70.5,32.8,70.5,32.9,70.5c0-0.1-0.1-0.2-0.2-0.3
						c-0.1-0.1-0.2-0.2-0.3-0.3l-0.1-0.1l-0.1-0.1v-0.1c0,0,0-0.1,0.1-0.1l0,0h0.2l0.1,0.1l0.1,0.1c0.1,0.2,0.2,0.3,0.3,0.4
						s0.1,0.2,0.1,0.3C33,70.5,33,70.5,32.9,70.5z"/>
				</g>
			</g>
			<path id="패스_2823" class="st5" d="M55.4,101.8"/>
			<path id="패스_2824" class="st6" d="M72.9,114.9c-0.1-0.8-0.7-1.4-0.9-2c-0.7-1.8-2.2-0.2-3.3,0.4c-2.8,1.5-5.6,4.3-8.4,5.8
				c0.3-0.1-0.2-3.1-0.2-3.4c0-1.4-0.2-2.8-0.6-4.1c-0.3-1-0.8-2.1-1.1-3.2c-0.4-1.1-0.8-2.2-1.2-3.3c-0.1-0.3-0.6-1.3-0.5-1.5
				c2.2-5.1,4.4-10.3,6.7-15.5c0.5-1.1,1.2-2.1,1.7-3.3c0.6-1.6,0.3-2.4-1.5-2.6c-1.5-0.3-3.1,3.5-3.7,4.5c0-0.1-4.4-3.1-4.7-3.4
				c-0.9-0.6-1.6-1.2-2.5-1.9c-1-0.8-1.2-0.9-2,0c-0.9,0.9,0.3,1.6,1.1,2.3c0.9,0.9,1.8,1.7,2.6,2.5c1.2,1.1,2.4,2.3,3.6,3.4
				L51.5,100c-2.1-1.1-4.2-2.2-6.3-3.3c-1.4-0.8-2.7-1.6-4.1-2.4c-0.8-0.4-1-0.9-1.8-0.4c-0.9,0.5-1.8,2-0.9,2.9
				c1.5,1.3,3.1,2.4,4.8,3.4c1.8,1.3,3.6,2.6,5.3,3.9c0.3,0.3,0.9,0.5,1,0.9c0.2,0.2,0.3,0.4,0.3,0.7c2,3.7,2,12.1,1.7,16.4
				l-0.6,22.4c-0.1,0.4-0.3,0.7-0.6,1c-0.6,0.6-1.3,1.1-2,1.5c-0.3,0.1-0.5,0.3-0.8,0.4c-0.3,0.2-0.5,0.6,0,0.8c0.2,0,0.5,0,0.7,0
				l5.2-0.5c0.1,0,0.3,0.4,0.3,0.5l1.3,2c0.3,0.6,0.9,1.7,1.8,1.6c0.3,0,0.4-0.3,0.6-0.5c1-1.3,1.8-2.8,2.5-4.3c0,0,0.4,0.1,0.5,0.1
				c0.9,0.2,1.6,0.4,2.5,0.7c1,0.4,2,0.7,3,0.9c0.3,0.1,0.9,0.2,1-0.1c0.2-0.3-0.4-0.7-0.7-0.8c-0.3-0.2-0.6-0.4-0.9-0.5
				c-0.6-0.3-1.2-0.7-1.7-1.1c-0.5-0.3-0.9-0.7-1.4-1.1c-0.2-0.7-0.3-1.4-0.2-2.1c0-4-0.2-8-0.3-12c0-1.8-0.1-3.6-0.1-5.4
				c0-0.2,1.2-0.9,1.3-1c1.9-1.6,3.6-3.3,5.3-5c0.8-0.7,1.6-1.4,2.5-2C71.4,116.8,73.1,116.2,72.9,114.9z"/>
		</g>
		<path id="패스_2825" class="st7" d="M47.5,77.8c0,0,1.6-17.8,14-18.2c0,0,9.3-1.7,14,18.5L47.5,77.8z"/>
		<path id="패스_2826" class="st7" d="M46.9,86.5h29.4c0.7,6,1.5,12,2.1,17.9c1.1,10.5,2.2,21,3.8,31.4c0.7,4.7,3.3,11.6,0.5,16
			c-2.3,3.6-6.7,3.7-10.6,3.7c-5.4,0-10.8-0.2-16.1,0c-3.8,0.1-8.5,0.6-11.5-2.6c-2.7-2.9-2.5-7.2-2.2-10.8
			c0.3-3.8,0.6-7.7,0.9-11.5c0.5-6.1,1-12.2,1.5-18.4c0.4-5.6,0.9-11.2,1.4-16.7c0.3-2.8,0.4-5.6,0.7-8.4v-0.2"/>
		<path id="패스_2827" class="st7" d="M78.4,83.6c0,0.8-0.6,1.4-1.4,1.5l0,0H46.7c-0.8,0-1.4-0.6-1.4-1.4l0,0V81
			c0-0.8,0.6-1.4,1.4-1.5l0,0H77c0.8,0,1.4,0.6,1.5,1.4l0,0L78.4,83.6z"/>
		<path id="패스_2828" class="st8" d="M57,92.8c0,1.3-0.7,2.2-1.5,2.2c-0.9,0-1.5-1-1.5-2.2c0-1.3,0.7-2.2,1.5-2.2
			C56.3,90.6,57,91.6,57,92.8z"/>
		<path id="패스_2829" class="st8" d="M68,93.3c0,1.3-0.7,2.2-1.5,2.2c-0.9,0-1.5-1-1.5-2.2s0.7-2.2,1.5-2.2
			C67.3,91,68,92,68,93.3z"/>
		<path id="패스_2830" class="st7" d="M39.5,133.5c-0.2,2.1,1.4,3.9,3.4,4.1l1,0.1c2,0.2,3.9-2.9,4.1-5l2-21.9
			c0.2-2.1-1.4-3.9-3.4-4.1h-1.1c-2.1-0.2-3.9,1.4-4.1,3.4L39.5,133.5z"/>
		<path id="패스_2831" class="st8" d="M57.3,103.2c-0.4-0.3-0.7-0.6-0.9-0.9c-0.4-0.5-0.3-1.3,0.2-1.7c0.5-0.4,1.2-0.3,1.7,0.2
			c0.6,0.8,1.4,1.3,2.4,1.5c0.9,0,1.7-0.3,2.4-0.9c0.5-0.5,1.2-0.5,1.7,0s0.5,1.2,0,1.7l0,0c-1.1,1-2.6,1.6-4.2,1.6
			C59.4,104.5,58.2,104,57.3,103.2z"/>
		<path id="패스_2832" class="st7" d="M85.4,137.1c0.3,1.9-1,5.5-2.9,5.7l-2.7,0.8c-1.9,0.3-1.5-2.1-1.7-4.1l-4-28.3
			c-0.3-1.9,1-3.6,2.9-3.8h0.1l0.9-0.1c1.9-0.3,3.6,1,3.8,2.9v0.1L85.4,137.1z"/>
		<path id="패스_2833" class="st7" d="M81.3,102.8c0.1,1.2-0.7,2.3-2,2.5l-0.6,0.1c-1.2,0.1-2.3-0.7-2.5-2l-1.4-13.1
			c-0.1-1.2,0.7-2.3,2-2.5l0.6-0.1c1.2-0.1,2.3,0.7,2.5,2L81.3,102.8z"/>
		<path id="패스_2834" class="st7" d="M42.1,102.9c-0.1,1.2,0.8,2.3,2,2.5l0.6,0.1c1.2,0.1,2.3-0.8,2.5-2l1.1-13.2
			c0.1-1.2-0.8-2.3-2-2.5l-0.6-0.1c-1.2-0.1-2.3,0.8-2.5,2L42.1,102.9z"/>
		<g id="그룹_552" transform="translate(37.65 4.416)">
			<path id="패스_2835" class="st8" d="M16.9,61.9c-0.1,0-0.2,0-0.3-0.1c-0.2-0.2-0.2-0.4-0.1-0.6c0.1-0.1,0.1-0.3,0.2-0.3
				c0.1-0.2,0.3-0.4,0.5-0.3c0.2,0.1,0.4,0.3,0.3,0.5c0,0.3-0.1,0.5-0.3,0.7C17.2,61.8,17.1,61.9,16.9,61.9z"/>
			<path id="패스_2836" class="st8" d="M19.7,61.9c-0.1,0-0.2,0-0.3-0.1c-0.2-0.1-0.2-0.4-0.1-0.6l0,0c0.1-0.1,0.1-0.2,0.1-0.3
				c0.1-0.2,0.3-0.4,0.5-0.3c0.2,0.1,0.4,0.3,0.3,0.5c0,0.3-0.1,0.5-0.3,0.7C19.9,61.9,19.8,61.9,19.7,61.9z"/>
			<path id="패스_2837" class="st8" d="M16.4,66.3c-0.1,0-0.2,0-0.3-0.1c-0.2-0.2-0.2-0.4-0.1-0.6c0.1-0.1,0.1-0.3,0.2-0.3
				c0.1-0.2,0.3-0.4,0.5-0.3c0.2,0.1,0.4,0.3,0.3,0.5c0,0.3-0.1,0.6-0.3,0.8C16.7,66.3,16.4,66.3,16.4,66.3z"/>
			<path id="패스_2838" class="st8" d="M15.4,64.2c-0.1,0-0.2,0-0.3-0.1c-0.2-0.1-0.2-0.4-0.1-0.6l0,0c0.1-0.1,0.1-0.3,0.2-0.3
				c0-0.2,0.3-0.4,0.5-0.4s0.4,0.3,0.4,0.5l0,0c0,0.3-0.1,0.5-0.3,0.7C15.7,64.1,15.5,64.2,15.4,64.2z"/>
			<path id="패스_2839" class="st8" d="M18.1,64.2c-0.1,0-0.2,0-0.3-0.1c-0.2-0.1-0.2-0.4-0.1-0.6l0,0c0.1-0.1,0.1-0.3,0.2-0.3
				c0-0.2,0.3-0.4,0.5-0.4s0.4,0.3,0.4,0.5l0,0c0,0.3-0.1,0.5-0.3,0.7C18.3,64.1,18.2,64.2,18.1,64.2z"/>
			<g id="그룹_551" transform="translate(13.525 45.217)">
				<path id="패스_2840" class="st8" d="M18.8,79.2c-0.1,0-0.2,0-0.3-0.1c-0.2-0.1-0.3-0.4-0.1-0.6c0,0,0,0,0-0.1
					c0.1-0.1,0.1-0.2,0.2-0.3c0-0.2,0.2-0.4,0.4-0.4h0.1c0.3,0,0.4,0.3,0.4,0.5c0,0.3-0.1,0.6-0.3,0.9C19,79.2,19,79.2,18.8,79.2z"
					/>
				<path id="패스_2841" class="st8" d="M17.3,76c-0.1,0-0.2,0-0.3-0.1c-0.2-0.1-0.3-0.4-0.1-0.6c0,0,0,0,0-0.1
					c0.1-0.1,0.1-0.2,0.2-0.3c0-0.3,0.3-0.4,0.5-0.4c0.3,0,0.4,0.3,0.4,0.6c0,0.3-0.1,0.6-0.3,0.9C17.5,75.9,17.3,76,17.3,76z"/>
				<path id="패스_2842" class="st8" d="M22.9,72.8c-0.1,0-0.2,0-0.3-0.1c-0.2-0.1-0.3-0.4-0.1-0.6c0,0,0,0,0-0.1
					c0.1-0.1,0.1-0.2,0.2-0.3c0-0.3,0.3-0.4,0.6-0.4c0.3,0,0.4,0.3,0.4,0.6c0,0.3-0.1,0.6-0.3,0.9C23.2,72.8,23,72.9,22.9,72.8z"/>
				<path id="패스_2843" class="st8" d="M20.9,75.9c-0.1,0-0.2,0-0.3-0.1c-0.2-0.1-0.3-0.4-0.1-0.6c0,0,0,0,0-0.1
					c0.1-0.1,0.1-0.2,0.2-0.3c0-0.3,0.3-0.4,0.6-0.4c0.3,0,0.4,0.3,0.4,0.6c0,0.3-0.2,0.6-0.3,0.9C21.2,75.9,21.1,75.9,20.9,75.9z"
					/>
				<path id="패스_2844" class="st8" d="M19.7,72.8c-0.1,0-0.2,0-0.3-0.1c-0.2-0.1-0.3-0.4-0.1-0.6c0,0,0,0,0-0.1
					c0.1-0.1,0.1-0.2,0.2-0.3c0-0.3,0.3-0.4,0.6-0.4c0.3,0,0.4,0.3,0.4,0.6c0,0.3-0.1,0.6-0.3,0.9C20,72.8,19.9,72.8,19.7,72.8z"/>
				<path id="패스_2845" class="st8" d="M24.6,75.7c-0.1,0-0.2,0-0.3-0.1C24,75.5,24,75.2,24.1,75c0,0,0,0,0-0.1
					c0.1-0.1,0.1-0.2,0.2-0.3c0-0.3,0.3-0.4,0.6-0.4c0.3,0,0.4,0.3,0.4,0.6c0,0.3-0.1,0.6-0.3,0.9C24.9,75.7,24.7,75.8,24.6,75.7z"
					/>
				<path id="패스_2846" class="st8" d="M22.6,78.6c-0.1,0-0.2,0-0.3-0.1c-0.2-0.2-0.2-0.5-0.1-0.7c0.1-0.1,0.1-0.2,0.2-0.3
					c0-0.2,0.2-0.4,0.4-0.4h0.1c0.3,0,0.4,0.3,0.4,0.5c0,0.3-0.1,0.6-0.3,0.9C23,78.5,22.8,78.6,22.6,78.6z"/>
			</g>
			<path id="패스_2847" class="st8" d="M17.8,138.6c-0.1,0-0.2,0-0.3-0.1c-0.2-0.1-0.3-0.4-0.1-0.6c0,0,0,0,0-0.1
				c0.1-0.1,0.1-0.2,0.2-0.3c0-0.3,0.3-0.5,0.5-0.4c0.3,0,0.5,0.3,0.4,0.5l0,0c0,0.3-0.1,0.6-0.3,0.9
				C18,138.5,17.9,138.5,17.8,138.6z"/>
			<path id="패스_2848" class="st8" d="M14,138.4c-0.1,0-0.2,0-0.3-0.1c-0.2-0.1-0.3-0.4-0.1-0.6c0,0,0,0,0-0.1
				c0.1-0.1,0.1-0.2,0.2-0.3c0-0.3,0.3-0.4,0.6-0.4s0.4,0.3,0.4,0.6c0,0.3-0.1,0.6-0.3,0.9C14.3,138.3,14.2,138.3,14,138.4z"/>
			<path id="패스_2849" class="st8" d="M21.2,138.8c-0.1,0-0.2,0-0.3-0.1c-0.2-0.1-0.3-0.4-0.1-0.6c0,0,0,0,0-0.1
				c0.1-0.1,0.1-0.2,0.2-0.3c0-0.2,0.2-0.4,0.4-0.4h0.1c0.3,0,0.4,0.3,0.4,0.5c0,0.3-0.1,0.6-0.3,0.9
				C21.6,138.7,21.4,138.8,21.2,138.8z"/>
		</g>
		<g id="그룹_562" transform="translate(31.743 42.457)">
			<g id="그룹_553" transform="translate(0 0.069)">
				<path id="패스_2850" class="st8" d="M12.6,95.3c-0.3,0-0.5-0.2-0.5-0.5s0.2-0.5,0.5-0.5l0,0h3.1c0.9-0.2,1.6-0.8,2-1.6
					c0.8-1.4,1.1-3.1,0.6-4.7c-0.2-0.4-0.4-0.7-0.7-1c-0.9-0.9-2.1-1.4-3.4-1.4c-0.3,0-0.5-0.1-0.8-0.1c-0.3-0.1-0.4-0.3-0.4-0.6
					c0.5-6.7,1.2-14.8,1.2-14.8c0-0.3,0.3-0.5,0.6-0.5s0.5,0.3,0.5,0.6c0,0.1-0.9,11.8-1.1,14.3c0.1,0,0.2,0,0.3,0.1
					c1.6,0,3,0.7,4.1,1.8c0.3,0.4,0.6,0.8,0.8,1.3c0.6,1.9,0.4,3.9-0.6,5.6c-0.5,1.1-1.6,2-2.8,2.1L12.6,95.3z"/>
			</g>
			<g id="그룹_554" transform="translate(3.174 14.56)">
				<line id="선_19" class="st0" x1="13.4" y1="73.7" x2="15.5" y2="73.8"/>
				<path id="패스_2851" class="st8" d="M15.5,74.3L15.5,74.3l-2.1-0.2c-0.3,0-0.5-0.3-0.5-0.6c0-0.3,0.3-0.5,0.6-0.5l2.1,0.2
					c0.3,0,0.5,0.3,0.5,0.6C16,74.1,15.8,74.3,15.5,74.3z"/>
			</g>
			<g id="그룹_555" transform="translate(3.036 16.354)">
				<line id="선_20" class="st0" x1="13.3" y1="74.1" x2="15.5" y2="74.2"/>
				<path id="패스_2852" class="st8" d="M15.5,74.7L15.5,74.7l-2.1-0.1c-0.3,0-0.5-0.3-0.5-0.6c0-0.3,0.3-0.5,0.6-0.5l2.1,0.1
					c0.3,0,0.5,0.3,0.5,0.6C16,74.5,15.8,74.7,15.5,74.7z"/>
			</g>
			<g id="그룹_556" transform="translate(2.553 18.148)">
				<line id="선_21" class="st0" x1="13.3" y1="74.5" x2="15.4" y2="74.6"/>
				<path id="패스_2853" class="st8" d="M15.4,75.2L15.4,75.2L13.2,75c-0.3,0-0.5-0.3-0.5-0.6c0-0.3,0.3-0.5,0.6-0.5l2.2,0.2
					c0.3,0,0.5,0.3,0.5,0.6C15.9,75,15.7,75.2,15.4,75.2z"/>
			</g>
			<g id="그룹_557" transform="translate(23.978 15.594)">
				<path id="패스_2854" class="st8" d="M25.1,84.5h-3.8c-1.1-0.2-2.1-0.9-2.6-2c-1-1.8-1.1-3.8-0.5-5.7c0.8-1.5,2.1-2.6,3.8-3
					c0.1,0,2.3-0.8,2.7-0.4c0.2,0.1,0.3,0.2,0.3,0.4c0,0.3-0.2,0.6-0.5,0.6h-0.1c-0.7,0.1-1.4,0.3-2,0.5c-1.3,0.3-2.5,1.2-3.1,2.4
					c-0.5,1.6-0.3,3.3,0.4,4.7c0.3,0.7,1,1.3,1.8,1.5h3.7c0.3,0,0.5,0.2,0.5,0.5S25.4,84.5,25.1,84.5L25.1,84.5z"/>
			</g>
			<g id="그룹_558" transform="translate(24.152 18.493)">
				<line id="선_22" class="st0" x1="21.1" y1="74.6" x2="18.3" y2="74.8"/>
				<path id="패스_2855" class="st8" d="M18.3,75.4c-0.3,0-0.5-0.2-0.5-0.5l0,0c0-0.3,0.2-0.6,0.5-0.6L21,74
					c0.3,0,0.6,0.2,0.6,0.5c0,0.3-0.2,0.5-0.5,0.6L18.3,75.4L18.3,75.4z"/>
			</g>
			<g id="그룹_559" transform="translate(24.152 20.357)">
				<line id="선_23" class="st0" x1="21.2" y1="74.9" x2="18.3" y2="75.1"/>
				<path id="패스_2856" class="st8" d="M18.3,75.7c-0.3,0-0.5-0.2-0.5-0.5c0-0.3,0.2-0.5,0.5-0.6l2.7-0.2c0.3,0,0.6,0.2,0.6,0.5
					c0,0.3-0.2,0.6-0.5,0.6L18.3,75.7L18.3,75.7z"/>
			</g>
			<g id="그룹_560" transform="translate(24.98 22.082)">
				<line id="선_24" class="st0" x1="20.8" y1="75.4" x2="18.5" y2="75.5"/>
				<path id="패스_2857" class="st8" d="M18.5,76c-0.3,0-0.5-0.2-0.5-0.5c0-0.3,0.2-0.5,0.5-0.6l2.3-0.1c0.3,0,0.6,0.2,0.6,0.5
					c0,0.3-0.2,0.5-0.5,0.6L18.5,76z"/>
			</g>
			<g id="그룹_561" transform="translate(27.05)">
				<line id="선_25" class="st0" x1="21.2" y1="89.3" x2="19" y2="70.2"/>
				<path id="패스_2858" class="st8" d="M21.2,89.9c-0.3,0-0.5-0.2-0.5-0.5l0,0l-2.1-19.2c0-0.3,0.2-0.6,0.4-0.6
					c0.3,0,0.6,0.2,0.6,0.5l2.1,19.2C21.8,89.6,21.5,89.8,21.2,89.9z"/>
			</g>
		</g>
		<g id="그룹_569" transform="translate(0 22.572)">
			<g id="그룹_563" transform="translate(0 3.517)">
				<path id="패스_2859" class="st9" d="M48.3,129.6c-0.1,0-0.2,0-0.3-0.1c-30.4-18-36.4-59.2-36.5-59.6c0-0.3,0.1-0.4,0.3-0.4
					s0.4,0.1,0.4,0.3c0.1,0.4,6,41.2,36.1,59.1c0.2,0.1,0.2,0.3,0.2,0.5C48.5,129.5,48.4,129.6,48.3,129.6z"/>
				<path id="패스_2860" class="st9" d="M39,122.4c0,0-3.2-4.2-7.5,1.2C31.4,123.6,34.7,127.7,39,122.4"/>
				<path id="패스_2861" class="st9" d="M14.4,80.7c0,0-0.5-5.3-7-3.1C7.4,77.6,7.9,82.9,14.4,80.7"/>
				<path id="패스_2862" class="st9" d="M36.1,119.6c0,0-3.4-2.8,1.1-6.3C37.2,113.3,40.5,116.1,36.1,119.6"/>
				<path id="패스_2863" class="st9" d="M13.2,75.4c0,0-0.6-4.4,5.1-3.9C18.3,71.4,18.9,75.9,13.2,75.4"/>
				<path id="패스_2864" class="st9" d="M35.3,91.9c0,0,1.5-4.2-4.2-4.9C31.1,87,29.7,91.2,35.3,91.9"/>
				<path id="패스_2865" class="st9" d="M33,101.2c0,0,1.5-4.2-4.2-4.9C28.7,96.3,27.3,100.5,33,101.2"/>
				<path id="패스_2866" class="st9" d="M36.9,105.8c0,0,1.5-4.2-4.2-4.9C32.7,100.9,31.2,105.1,36.9,105.8"/>
				<path id="패스_2867" class="st9" d="M22.8,101.8c0,0-2.3-3.8,3.2-5.6C26,96.2,28.3,100.1,22.8,101.8"/>
				<path id="패스_2868" class="st9" d="M12.3,69.9c0,0-0.4-6-7.8-3.7C4.6,66.2,5.1,72.1,12.3,69.9"/>
				<path id="패스_2869" class="st9" d="M27.7,109.7c0,0-1.4-5.8-8.3-2.4C19.3,107.4,20.8,113.1,27.7,109.7"/>
				<path id="패스_2870" class="st9" d="M17.9,91.4c0,0-1.6-6.7-9.7-2.6C8.1,88.8,9.8,95.5,17.9,91.4"/>
				<path id="패스_2871" class="st9" d="M31.5,115.1L31.5,115.1c-0.2,0-0.4-0.1-0.4-0.3c0-0.2-1.6-14.1,5.6-25.9
					c0.1-0.2,0.3-0.3,0.5-0.2c0.2,0.1,0.3,0.3,0.2,0.5l0,0c-7,11.6-5.5,25.3-5.5,25.5C32,114.8,31.8,115,31.5,115.1z"/>
				<path id="패스_2872" class="st9" d="M44.7,86.2c0,0-4.5-3.9-8.1,2.9C36.5,89.1,41.1,93,44.7,86.2"/>
			</g>
			<g id="그룹_564" transform="translate(7.41 15.761)">
				<path id="패스_2873" class="st10" d="M6.4,75.1c0,0.5,0,0.9,0,1.4c-0.7,4.5,5.4,5.1,8.1,3.8c1-0.5,1.8-1.3,2.3-2.3
					c0.7-0.9,2-1.7,2.4-2.8c0.6-1.9-0.9-4.4-2-5.6c-1.5-1.5-3.3-1.1-5-0.3c-0.8,0.4-1.6,0.8-2.4,1.1c-1.4,0.4-2.5,0.7-3,2.2
					C6.5,73.4,6.4,74.3,6.4,75.1z"/>
				<path id="패스_2874" class="st10" d="M14.6,73.9c0.2,1.2-0.7,2.4-1.9,2.6s-2.4-0.7-2.6-1.9c-0.2-1.2,0.7-2.4,1.9-2.6
					C13.2,71.9,14.4,72.7,14.6,73.9z"/>
				<path id="패스_2875" class="st11" d="M14.5,73.7c0.2,1.1-0.5,2.2-1.7,2.4c-1.1,0.2-2.2-0.5-2.4-1.7c0,0,0,0,0-0.1
					c-0.1-1.1,0.6-2.2,1.7-2.4C13.2,71.8,14.3,72.6,14.5,73.7L14.5,73.7z"/>
			</g>
			<g id="그룹_566" transform="translate(20.814 26.222)">
				<path id="패스_2876" class="st10" d="M9.5,74.8c-0.1,1.4-0.1,2.8,1.1,3.7c1.5,1,4.1,1.5,5.6,0.2c0.9-0.7,1.6-1.8,1.9-2.9
					c0.1-0.9-0.1-1.8-0.5-2.6c-0.4-1-1.2-1.7-2.2-2c-0.7,0-1.3,0.2-1.9,0.5c-0.4,0.1-0.9,0.1-1.3,0.1c-0.7,0-1.4,0.2-2,0.7
					C9.7,73.1,9.4,73.9,9.5,74.8L9.5,74.8z"/>
				<g id="그룹_565" transform="translate(2.075 1.441)">
					<path id="패스_2877" class="st10" d="M13.7,73c0.2,1-0.5,2-1.5,2.1c-1,0.2-2-0.5-2.1-1.5c-0.2-1,0.5-2,1.5-2.1
						C12.6,71.3,13.5,72,13.7,73z"/>
					<path id="패스_2878" class="st11" d="M13.7,72.9c0.2,0.9-0.4,1.8-1.4,2c-0.9,0.2-1.8-0.4-2-1.4c-0.2-0.9,0.4-1.8,1.4-2l0,0
						C12.6,71.4,13.5,72,13.7,72.9L13.7,72.9z"/>
				</g>
			</g>
			<g id="그룹_568" transform="translate(1.63)">
				<path id="패스_2879" class="st10" d="M5,68.6c-0.1,1.4-0.1,2.8,1.1,3.7c1.5,1,4.1,1.5,5.6,0.2c0.9-0.7,1.6-1.8,1.9-2.9
					c0.1-0.9-0.1-1.8-0.5-2.6c-0.4-1-1.2-1.7-2.2-2c-0.7,0-1.3,0.2-1.9,0.5c-0.4,0.1-0.9,0.1-1.3,0.1c-0.7,0-1.4,0.2-2,0.7
					C5.2,66.9,4.9,67.7,5,68.6L5,68.6z"/>
				<g id="그룹_567" transform="translate(2.144 1.453)">
					<path id="패스_2880" class="st10" d="M9.1,66.9c0.1,1-0.5,2-1.5,2.1c-1,0.2-2-0.5-2.1-1.5c-0.2-1,0.5-2,1.5-2.1
						C8,65.2,8.9,65.8,9.1,66.9C9.1,66.8,9.1,66.8,9.1,66.9z"/>
					<path id="패스_2881" class="st11" d="M9.1,66.7c0.1,0.9-0.5,1.8-1.4,2c-0.9,0.1-1.8-0.5-2-1.5c-0.1-0.9,0.5-1.8,1.4-2
						C8,65.1,8.9,65.8,9.1,66.7z"/>
				</g>
			</g>
		</g>
		<path id="패스_2882" class="st8" d="M61.9,94.3c-0.1-0.1-0.1-0.2-0.2-0.3c-0.9-0.7-1.5,0.9-1.7,1.5c-0.4,0.7-2.2,2.2-1.4,3.1
			c0.9,0.7,2,1,3.1,0.8c2-0.3,1.2-2,0.8-3.2C62.4,95.5,62.2,94.9,61.9,94.3z"/>
		<path id="패스_2883" class="st8" d="M51.9,148.9c-0.1,0-0.2,0-0.3-0.1c-0.2-0.2-0.2-0.5-0.1-0.7c0.1-0.1,0.1-0.2,0.2-0.3
			c0-0.3,0.3-0.5,0.5-0.4c0.2,0.1,0.5,0.3,0.4,0.5l0,0c0,0.3-0.1,0.6-0.3,0.8C52.2,148.8,52.1,148.9,51.9,148.9z"/>
		<path id="패스_2884" class="st8" d="M49.6,145.5c-0.1,0-0.2,0-0.3-0.1c-0.2-0.2-0.2-0.5-0.1-0.7c0.1-0.1,0.1-0.2,0.2-0.3
			c0-0.3,0.3-0.5,0.5-0.4c0.3,0,0.5,0.3,0.4,0.5l0,0c0,0.3-0.1,0.6-0.3,0.8C50,145.4,49.8,145.5,49.6,145.5z"/>
		<path id="패스_2885" class="st8" d="M53.4,145.9c-0.1,0-0.2,0-0.3-0.1c-0.2-0.2-0.2-0.5-0.1-0.7c0.1-0.1,0.1-0.2,0.2-0.3
			c0-0.3,0.3-0.5,0.5-0.4c0.3,0,0.5,0.3,0.4,0.5l0,0c0,0.3-0.1,0.6-0.3,0.8C53.7,145.7,53.6,145.8,53.4,145.9z"/>
		<path id="패스_2886" class="st8" d="M57.1,146c-0.1,0-0.2,0-0.3-0.1c-0.2-0.1-0.2-0.4-0.1-0.6l0,0c0.1-0.1,0.1-0.2,0.2-0.3
			c0-0.3,0.3-0.5,0.5-0.4c0.3,0,0.5,0.3,0.4,0.5l0,0c0,0.3-0.1,0.6-0.3,0.8C57.4,145.9,57.2,145.9,57.1,146z"/>
		<path id="패스_2887" class="st8" d="M60.6,146c-0.1,0-0.2,0-0.3-0.1c-0.2-0.1-0.2-0.4-0.1-0.6l0,0c0.1-0.1,0.1-0.2,0.2-0.3
			c0-0.3,0.3-0.5,0.5-0.4c0.3,0,0.5,0.3,0.4,0.5l0,0c0,0.3-0.1,0.6-0.3,0.8C60.9,145.9,60.7,145.9,60.6,146z"/>
		<path id="패스_2888" class="st8" d="M55.4,148.7c-0.1,0-0.2,0-0.3-0.1c-0.2-0.2-0.2-0.5-0.1-0.7c0.1-0.1,0.1-0.2,0.2-0.3
			c0-0.3,0.3-0.5,0.5-0.4c0.3,0,0.5,0.3,0.4,0.5l0,0c0,0.3-0.1,0.6-0.3,0.8C55.7,148.7,55.5,148.7,55.4,148.7z"/>
		<path id="패스_2889" class="st8" d="M58.7,148.7c-0.1,0-0.2,0-0.3-0.1c-0.2-0.2-0.2-0.5-0.1-0.7c0.1-0.1,0.1-0.2,0.2-0.3
			c0-0.3,0.3-0.5,0.5-0.4c0.3,0,0.5,0.3,0.4,0.5l0,0c0,0.3-0.1,0.6-0.3,0.8C59,148.7,58.9,148.7,58.7,148.7z"/>
	</g>
	<rect id="사각형_265" x="-0.4" y="458" class="st0" width="198" height="173.3"/>
</g>
</svg>
