<?xml version="1.0" encoding="utf-8"?>
<!-- Generator: Adobe Illustrator 24.0.2, SVG Export Plug-In . SVG Version: 6.00 Build 0)  -->
<svg version="1.1" id="레이어_1" xmlns="http://www.w3.org/2000/svg" xmlns:xlink="http://www.w3.org/1999/xlink" x="0px"
	 y="0px" viewBox="0 0 198 230" style="enable-background:new 0 0 198 230;" xml:space="preserve">
<style type="text/css">
	.st0{fill:#74C6BE;}
	.st1{fill:#EA5541;}
	.st2{fill:#FFFFFF;}
	.st3{fill:#FDD35C;}
	.st4{fill:#BCE2E3;}
	.st5{fill:#E0F1F2;}
	.st6{fill:#727171;}
</style>
<path class="st0" d="M129.3,142.6c0.1,0,0.1,0,0.2,0c27.9-10.2,39.1-43.3,39.2-43.6c0.1-0.2,0-0.4-0.2-0.4c-0.2-0.1-0.4,0-0.4,0.2
	c-0.1,0.3-11.2,33.1-38.8,43.2c-0.2,0.1-0.3,0.3-0.2,0.4C129.2,142.5,129.2,142.5,129.3,142.6"/>
<path class="st0" d="M138.2,138.1c0,0,3.3-2.9,6,2.1C144.2,140.2,140.8,143.1,138.2,138.1"/>
<path class="st0" d="M164.8,107.4c0,0,1.2-4.3,6.2-1.5C171,106,169.8,110.2,164.8,107.4"/>
<path class="st0" d="M141,136.2c0,0,3.3-1.8,0.1-5.4C141,130.8,137.8,132.6,141,136.2"/>
<path class="st0" d="M166.5,103.2c0,0,1.2-3.5-3.6-4C162.9,99.2,161.8,102.7,166.5,103.2"/>
<path class="st0" d="M145.8,113.4c0,0-0.6-3.7,4.2-3.4C150,110.1,150.6,113.7,145.8,113.4"/>
<path class="st0" d="M146.3,121.4c0,0-0.6-3.7,4.2-3.4C150.5,118.1,151.1,121.7,146.3,121.4"/>
<path class="st0" d="M142.4,124.6c0,0-0.6-3.7,4.2-3.4C146.6,121.3,147.1,125,142.4,124.6"/>
<path class="st0" d="M154.6,123.5c0,0,2.5-2.8-1.8-5.1C152.8,118.4,150.4,121.2,154.6,123.5"/>
<path class="st0" d="M168.1,98.9c0,0,1.2-4.9,7-1.9C175.1,97,173.8,101.8,168.1,98.9"/>
<path class="st0" d="M149.4,129.3c0,0,2-4.6,7.2-0.7C156.6,128.7,154.5,133.2,149.4,129.3"/>
<path class="st0" d="M160.3,115.8c0,0,2.4-5.3,8.4-0.7C168.7,115,166.2,120.3,160.3,115.8"/>
<path class="st0" d="M145.3,133.1L145.3,133.1c0.2,0.1,0.4,0,0.4-0.2c0-0.1,3.4-11.4-0.6-22.2c-0.1-0.2-0.3-0.3-0.4-0.2
	c-0.2,0.1-0.3,0.3-0.2,0.4c4,10.6,0.6,21.6,0.6,21.7C145.1,132.9,145.2,133.1,145.3,133.1"/>
<path class="st0" d="M139,107.3c0,0,4.3-2.6,6.3,3.6C145.2,110.9,140.9,113.4,139,107.3"/>
<path class="st1" d="M164.2,113c-0.1,0.5-0.2,0.7-0.2,1.2c-0.1,3.8-5.2,3.4-7.3,1.9c-0.8-0.6-1.1-1.4-1.5-2.3
	c-0.4-0.9-1.4-1.7-1.6-2.7c-0.2-1.6,1.3-3.5,2.6-4.2c1.5-1,2.9-0.4,4.2,0.5c0.6,0.4,1.2,0.9,1.8,1.3c1,0.6,2,0.9,2.1,2.3
	C164.4,111.6,164.3,112.3,164.2,113"/>
<path class="st2" d="M157.7,110.8c-0.4,1,0.2,2.1,1.2,2.4c1,0.3,2.1-0.2,2.4-1.2c0.3-1-0.2-2.1-1.2-2.4
	C159.1,109.2,158,109.8,157.7,110.8"/>
<path class="st3" d="M157.8,110.6c-0.3,0.9,0.1,1.9,1.1,2.2c0.9,0.3,1.9-0.2,2.2-1c0.3-0.9-0.2-1.9-1-2.2
	C159.1,109.3,158.1,109.7,157.8,110.6"/>
<path class="st1" d="M149.1,118.8c-0.1,1.1-0.3,2.4-1.5,2.9c-1.4,0.6-3.6,0.6-4.6-0.7c-0.6-0.7-1.1-1.8-1.1-2.7c0-0.8,0.3-1.5,0.8-2
	c0.5-0.6,1.3-1.4,2.1-1.3c0.6,0.1,1,0.4,1.5,0.7c0.3,0.2,0.7,0.2,1,0.3c0.5,0.1,1.2,0.4,1.5,0.8
	C149.3,117.4,149.2,118.1,149.1,118.8L149.1,118.8z"/>
<path class="st2" d="M143.9,117.6c-0.3,0.8,0.1,1.7,0.9,2c0.8,0.3,1.7-0.1,2-1c0.3-0.8-0.1-1.7-0.9-2
	C145.1,116.4,144.2,116.8,143.9,117.6"/>
<path class="st3" d="M144,117.5c-0.3,0.7,0.1,1.6,0.9,1.8c0.7,0.3,1.5-0.1,1.8-0.9c0.3-0.7-0.1-1.5-0.9-1.8
	C145.1,116.4,144.3,116.8,144,117.5"/>
<path class="st1" d="M173.6,95.7c-0.1,1.1-0.3,2.4-1.5,2.9c-1.4,0.6-3.6,0.6-4.6-0.7c-0.6-0.7-1.1-1.8-1.1-2.7c0-0.7,0.3-1.4,0.8-2
	c0.5-0.6,1.2-1.4,2.1-1.3c0.6,0.1,1,0.4,1.5,0.7c0.3,0.2,0.7,0.2,1,0.3c0.6,0.1,1.2,0.4,1.5,0.8C173.7,94.2,173.7,94.9,173.6,95.7
	L173.6,95.7z"/>
<path class="st2" d="M168.4,94.5c-0.3,0.8,0.1,1.7,1,2c0.8,0.3,1.7-0.1,2-1c0.3-0.8-0.1-1.7-1-2C169.6,93.2,168.7,93.7,168.4,94.5"
	/>
<path class="st3" d="M168.5,94.4c-0.3,0.7,0.1,1.5,0.9,1.8c0.7,0.3,1.6-0.1,1.8-0.9c0.3-0.7-0.1-1.6-0.9-1.8
	C169.6,93.3,168.8,93.6,168.5,94.4"/>
<path class="st0" d="M43.3,172.9L43.3,172.9c0.4,0.3,1,0.2,1.3-0.3c0.1-0.1,0.2-0.3,0.3-0.4l0.2-0.3c0.3-0.4,0.6-0.8,0.8-1.2
	c0.4-0.5,0.7-1.1,1.1-1.6c0.2-0.3,0.3-0.5,0.5-0.8c0.2-0.3,0.4-0.6,0.6-0.9l0.1-0.2c0.4-0.5,0.8-1.2,1.3-1.3
	c0.4-0.1,1.1,0.5,1.5,0.7l1.2,1c0.4,0.3,1,0.2,1.3-0.2c0.3-0.4,0.2-1-0.2-1.3l-1.2-1c-0.6-0.4-1.7-1.2-2.8-1.1
	c-1.3,0.2-2,1.3-2.6,2.1l-0.1,0.2c-0.2,0.3-0.4,0.7-0.6,1c-0.2,0.3-0.3,0.5-0.5,0.7c-0.4,0.5-0.7,1.1-1.1,1.6
	c-0.3,0.4-0.6,0.8-0.8,1.2l-0.2,0.3c-0.1,0.1-0.2,0.3-0.3,0.4C42.8,172,42.9,172.6,43.3,172.9"/>
<path class="st0" d="M40.5,172.8c0.4,0.3,1,0.2,1.3-0.2l5.2-7.6c0.3-0.4,0.6-0.7,0.9-0.9c1-0.7,2.5-0.7,3.6,0l2.2,1.5
	c0.4,0.3,1,0.2,1.3-0.2c0.3-0.4,0.2-1-0.2-1.3l-2.2-1.5c-1.7-1.2-4.1-1.2-5.7,0c-0.5,0.3-0.9,0.8-1.4,1.4l-5.2,7.6
	C40,171.9,40.1,172.5,40.5,172.8"/>
<path class="st0" d="M37.6,172.8c0.4,0.3,1,0.2,1.3-0.3l6.3-9.3c1.8-2.3,4.8-2.8,7.4-1.4l1.8,1.3c0.4,0.3,1,0.2,1.3-0.2
	c0.3-0.4,0.2-1-0.2-1.3l-1.9-1.3l-0.1,0c-3.4-1.9-7.5-1.1-9.8,1.9l0,0l-6.3,9.3C37.1,171.9,37.2,172.5,37.6,172.8"/>
<path class="st0" d="M98.3,113.2c0,0-7.8,0.6-9.4,27.6c0,0,0,3.5-3.1,3.2c-1-0.1-1.8,0.8-1.9,1.7c-0.3,2.1,2.3,2.3,3.7,2.3
	c0.4,0,0.9-0.1,1.3-0.2c4.7-1.2,4.6-6.3,5.1-10.2c0.6-4.7,0.6-9.4,2.4-13.7c1.1-2.7,3.1-4.5,5.1-6.7L98.3,113.2z"/>
<path class="st4" d="M59.8,185.7c0,0,11.2,2.9,14,12.7l3.5-1.3c0,0,0.7-10-11.2-17.3C66.1,179.9,60.3,179.9,59.8,185.7"/>
<path class="st4" d="M120.3,175.4c0,0,11.5,7.4-4.8,18.7l-3.1-1.7c0,0,9-7.5,3.7-12.7L120.3,175.4z"/>
<path class="st4" d="M48.9,169.9c0.9-3.4,3.2-6.2,6.2-7.9c5.8-3.4,10.5-3.3,17.1-3.8c7.7-0.6,12.3-0.3,16.7-2.7
	c2.7-1.4,4-6.2,4.1-9.4c0,0,0.9-24.9,6.7-27.8c0,0-7.8-6.3-3-15.1c0,0,5.8,2.5,8,9.4c0,0,0.6,0.2,5.4-0.4l1.6-0.1
	c0,0,0.9-5.5,7.4-8.7c0,0,2.7,5.9-1.7,12.3c0.2-0.2,6.6,4.4,6.8,4.6c6,4.3,8.9,7.9,13.2,13.3c1,1.2,1.4,2.5,1.1,4.4
	c-0.2,1.6-2,3.8-3,4.9c-1.5,1.5-3.2,2.5-5.4,2.7c-3.9,0.3-8.4,0.2-12.1-1.3c0.2,0.1,0,0.1,0.7,3c0.8,4.2,1.7,8.5,2.5,12.7
	c1.9,9.8,0.8,19.3-9,24.2c-3.4,1.7-7.4,2.9-11.1,3.6c-11.7,2-17.9,3-29.8,2.3c-3.4-0.2-6.7-0.7-10-1.7C53,186,46.4,179,48.9,169.9"
	/>
<path class="st4" d="M109.5,185.5c0,0,12.5-0.6,18.6,8.8l3.2-2.5c0,0-2.5-10.6-17-14.3C114.3,177.4,108.2,179.3,109.5,185.5"/>
<path class="st4" d="M52.7,183.5c0,0,10.4,8.2,3.1,11.6l-3.4,1.3l2.3,2.5c0,0,14.6-0.7,9.4-12.7L52.7,183.5z"/>
<path class="st2" d="M71.2,193.3L71.2,193.3c1.1,1.5,2,3.2,2.6,5.2l3.5-1.3c0,0,0.1-2.2-0.9-5.4c0,0-1.3-0.6-2.4,0.7
	c0,0-0.7,1.1-1.9,0.7c0,0-0.5-0.2-0.7,0L71.2,193.3z"/>
<path class="st2" d="M118.7,105.2c0,0,1.1,5.5-1.5,8.7C114.4,117.1,115.2,108,118.7,105.2"/>
<path class="st2" d="M97,105.4c0,0-1.7,5.7,1.9,10C102.1,119.2,101.1,108.8,97,105.4"/>
<path class="st5" d="M126.6,130L126.6,130c0.1,0.1,0.1,0.1,0.1,0.1C126.7,130.2,126.6,130.1,126.6,130"/>
<path class="st0" d="M136.9,137.2l0-0.2c0-0.2-0.1-0.3-0.3-0.4c-0.1-0.1-0.3-0.2-0.5-0.1l0,0c-0.4,0.1-0.6,0.4-0.6,0.8l0,0l0,0.2
	c0,0.2-0.1,0.4-0.3,0.4c-0.2,0-0.4-0.1-0.4-0.3l0-0.3l0-0.1c-0.1-0.7,0.4-1.4,1.1-1.5l0.1,0c0.4,0,0.7,0.1,1,0.3
	c0.3,0.2,0.5,0.5,0.5,0.9l0,0.2c0,0.2-0.1,0.4-0.3,0.4C137.1,137.6,136.9,137.4,136.9,137.2"/>
<path class="st0" d="M133.2,138.8l-0.2-0.2c-0.1-0.1-0.3-0.2-0.4-0.3c-0.2,0-0.3,0-0.5,0.1l0,0c-0.3,0.2-0.4,0.6-0.2,0.9l0,0
	l0.1,0.2c0.1,0.2,0.1,0.4-0.1,0.5c-0.1,0.1-0.4,0.1-0.5-0.1l-0.2-0.2l0-0.1c-0.4-0.6-0.3-1.4,0.3-1.9l0.1-0.1c0.3-0.2,0.7-0.3,1-0.2
	c0.3,0.1,0.6,0.2,0.9,0.5l0.2,0.2c0.1,0.2,0.1,0.4-0.1,0.5C133.6,139,133.3,139,133.2,138.8"/>
<path class="st0" d="M112.9,120.6c0.5,0,0.9-0.5,0.9-1l0-0.5l0-0.1c-0.3-2.1-1-3.4-3.7-3.2l-2.7,0.2c-0.5,0-0.9,0.5-0.8,1
	c0,0.5,0.5,0.9,1,0.9l2.7-0.2c1.3-0.1,1.5,0,1.7,1.6l0,0.5C111.9,120.3,112.4,120.6,112.9,120.6"/>
<path class="st0" d="M115.3,119.5c0.5,0,0.9-0.5,0.9-1l0-0.5l0-0.1c-0.4-3-2.5-4.7-5.5-4.6l-4.9,0.4c-0.5,0-0.9,0.5-0.8,1
	c0,0.5,0.5,0.9,1,0.9l4.8-0.4c2.5-0.1,3.3,1.5,3.5,3l0,0.5C114.3,119.1,114.8,119.5,115.3,119.5"/>
<path class="st0" d="M117.6,118.3c0.5,0,0.9-0.5,0.8-1l0-0.3c-0.3-3.7-3.5-6.5-7.2-6.2l-7.2,0.6c-0.5,0-0.9,0.5-0.8,1
	c0,0.5,0.5,0.9,1,0.8l7.2-0.6c2.7-0.2,5,1.8,5.3,4.5l0,0.3C116.7,117.9,117.1,118.3,117.6,118.3"/>
<path class="st2" d="M127.4,131.4c0,0-0.1-0.1-0.2-0.2c-0.7-0.6-3.3-2.7-2.9-5c0,0-2.8-0.3-7.1-3.4c0,0,4.1,3.1,2.7,5.5
	C119.8,128.3,122.9,128.2,127.4,131.4"/>
<path class="st2" d="M95.5,153.2L95.5,153.2c0.2,0,0.3-0.2,0.3-0.3c0-0.1,0-0.3,0-0.4c0.1-0.2,0-0.3-0.2-0.4c-0.1,0-0.3,0-0.4,0.2
	c-0.1,0.2-0.1,0.5,0,0.7C95.3,153.1,95.4,153.2,95.5,153.2"/>
<path class="st2" d="M98.1,146.6L98.1,146.6c0.2,0,0.3-0.2,0.3-0.3c0-0.1,0-0.3,0-0.4c0.1-0.1,0-0.3-0.2-0.4c-0.2-0.1-0.3,0-0.4,0.2
	c-0.1,0.2-0.1,0.5,0,0.7C97.9,146.6,98,146.6,98.1,146.6"/>
<path class="st2" d="M95.2,146.9L95.2,146.9c0.2,0,0.3-0.2,0.3-0.3c0-0.1,0-0.3,0-0.4c0.1-0.1,0-0.3-0.2-0.4c-0.1-0.1-0.3,0-0.4,0.2
	c-0.1,0.2-0.1,0.5-0.1,0.7C94.9,146.8,95,146.9,95.2,146.9"/>
<path class="st2" d="M98.6,143.8L98.6,143.8c0.2,0,0.3-0.2,0.3-0.3c0-0.1,0-0.3,0-0.4c0.1-0.1,0-0.3-0.2-0.4c-0.1-0.1-0.3,0-0.4,0.2
	c-0.1,0.2-0.1,0.5-0.1,0.7C98.4,143.7,98.5,143.8,98.6,143.8"/>
<path class="st2" d="M95.6,140.6L95.6,140.6c0.2,0,0.3-0.2,0.3-0.3c0-0.1,0-0.3,0-0.4c0.1-0.1,0-0.3-0.2-0.4c-0.2-0.1-0.3,0-0.4,0.2
	c-0.1,0.2-0.1,0.5,0,0.7C95.4,140.5,95.5,140.6,95.6,140.6"/>
<path class="st2" d="M96.5,145.1L96.5,145.1c0.2,0,0.3-0.2,0.3-0.3c0-0.1,0-0.3,0-0.4c0-0.1,0-0.3-0.2-0.4c-0.1-0.1-0.3,0-0.4,0.2
	c-0.1,0.2-0.1,0.5,0,0.7C96.2,145,96.4,145.1,96.5,145.1"/>
<path class="st2" d="M96.8,138.3L96.8,138.3c0.2,0,0.3-0.2,0.3-0.3c0-0.1,0-0.3,0-0.4c0.1-0.1,0-0.3-0.2-0.4c-0.1-0.1-0.3,0-0.4,0.2
	c-0.1,0.2-0.1,0.5,0,0.7C96.6,138.2,96.7,138.3,96.8,138.3"/>
<path class="st2" d="M97.8,140.9L97.8,140.9c0.2,0,0.3-0.2,0.3-0.3c0-0.1,0-0.3,0-0.4c0-0.1,0-0.3-0.2-0.4c-0.2-0.1-0.3,0-0.4,0.2
	c-0.1,0.2-0.1,0.5-0.1,0.7C97.5,140.8,97.7,140.9,97.8,140.9"/>
<path class="st2" d="M96.5,142.5L96.5,142.5c0.2,0,0.3-0.2,0.3-0.3c0-0.1,0-0.3,0-0.4c0.1-0.1,0-0.3-0.2-0.4c-0.1,0-0.3,0-0.4,0.2
	c-0.1,0.2-0.1,0.5,0,0.7C96.3,142.4,96.4,142.5,96.5,142.5"/>
<path class="st2" d="M96.1,148.9L96.1,148.9c0.2,0,0.3-0.2,0.3-0.3c0-0.1,0-0.3,0-0.4c0-0.1,0-0.3-0.2-0.4c-0.2-0.1-0.3,0-0.4,0.2
	c-0.1,0.2-0.1,0.5,0,0.7C95.8,148.9,96,149,96.1,148.9"/>
<path class="st2" d="M97.1,151.6L97.1,151.6c0.2,0,0.3-0.2,0.3-0.3c0-0.1,0-0.3,0-0.4c0.1-0.2,0-0.3-0.2-0.4c-0.2-0.1-0.3,0-0.4,0.2
	c-0.1,0.2-0.1,0.5,0,0.7C96.9,151.6,97,151.7,97.1,151.6"/>
<path class="st2" d="M95.2,150.9L95.2,150.9c0.2,0,0.3-0.2,0.3-0.3c0-0.1,0-0.3,0-0.4c0-0.2,0-0.3-0.2-0.4c-0.1,0-0.3,0-0.4,0.2
	c-0.1,0.2-0.1,0.5,0,0.7C94.9,150.8,95,150.9,95.2,150.9"/>
<path class="st2" d="M98.4,149.6L98.4,149.6c0.2,0,0.3-0.2,0.3-0.3c0-0.1,0-0.3,0-0.4c0.1-0.1,0-0.3-0.2-0.4c-0.1-0.1-0.3,0-0.4,0.2
	c-0.1,0.2-0.1,0.5-0.1,0.7C98.2,149.5,98.3,149.6,98.4,149.6"/>
<path class="st2" d="M54.6,170.5c0.1,0,0.2-0.1,0.2-0.2c0-0.1,0.2-0.2,0.2-0.3c0.1-0.1,0.2-0.3,0.1-0.4c-0.1-0.1-0.3-0.2-0.4-0.1
	c-0.2,0.1-0.3,0.4-0.4,0.5c-0.1,0.1,0,0.3,0.1,0.4L54.6,170.5z"/>
<path class="st2" d="M57,170.2c0.1,0,0.2-0.1,0.2-0.2c0-0.1,0.2-0.3,0.2-0.3c0.1-0.1,0.2-0.3,0.1-0.4c-0.1-0.1-0.3-0.2-0.4-0.1
	c-0.2,0.1-0.3,0.4-0.4,0.5c-0.1,0.1,0,0.3,0.1,0.4L57,170.2z"/>
<path class="st2" d="M56.8,165c0.1,0,0.2-0.1,0.2-0.2c0-0.1,0.2-0.2,0.2-0.3c0.1-0.1,0.2-0.3,0.1-0.4c-0.1-0.1-0.3-0.2-0.4-0.1
	c-0.2,0.1-0.4,0.4-0.4,0.5c-0.1,0.1,0,0.3,0.1,0.4L56.8,165z"/>
<path class="st2" d="M55,167.8c0.1,0,0.2-0.1,0.2-0.2c0-0.1,0.2-0.2,0.2-0.3c0.1-0.1,0.2-0.3,0.1-0.4c-0.1-0.1-0.3-0.2-0.4-0.1
	c-0.2,0.1-0.4,0.4-0.4,0.5c-0.1,0.1,0,0.3,0.1,0.4L55,167.8z"/>
<path class="st2" d="M56.8,167.4c0.1,0,0.2-0.1,0.2-0.2c0-0.1,0.1-0.2,0.2-0.3c0.1-0.1,0.2-0.3,0.1-0.4c-0.1-0.1-0.3-0.2-0.4-0.1
	c-0.2,0.1-0.4,0.4-0.4,0.5c-0.1,0.1,0,0.3,0.2,0.4L56.8,167.4z"/>
<path class="st2" d="M54.6,165.8c0.1,0,0.2-0.1,0.2-0.2c0-0.1,0.2-0.2,0.2-0.3c0.1-0.1,0.2-0.3,0.1-0.4c-0.1-0.1-0.3-0.2-0.4-0.1
	c-0.2,0.1-0.3,0.4-0.4,0.5c-0.1,0.1,0,0.3,0.1,0.4L54.6,165.8z"/>
<path class="st2" d="M52.9,169.8c0.1,0,0.2-0.1,0.2-0.2c0-0.1,0.2-0.2,0.2-0.3c0.1-0.1,0.2-0.3,0.1-0.4c-0.1-0.1-0.3-0.2-0.4-0.1
	c-0.2,0.1-0.4,0.4-0.4,0.5c-0.1,0.1,0,0.3,0.1,0.4L52.9,169.8z"/>
<path class="st2" d="M114.7,171.9c0.1,0,0.2-0.1,0.2-0.2c0-0.1,0.2-0.2,0.2-0.3c0.1-0.1,0.2-0.3,0.1-0.4c-0.1-0.1-0.3-0.2-0.4-0.1
	c-0.2,0.1-0.4,0.4-0.4,0.5c-0.1,0.1,0,0.3,0.1,0.4L114.7,171.9z"/>
<path class="st2" d="M117.1,171.7c0.1,0,0.2-0.1,0.2-0.2c0.1-0.1,0.2-0.3,0.2-0.3c0.1-0.1,0.2-0.3,0.1-0.4c-0.1-0.1-0.3-0.2-0.4-0.1
	c-0.2,0.1-0.3,0.4-0.4,0.5c-0.1,0.1,0,0.3,0.1,0.4L117.1,171.7z"/>
<path class="st2" d="M116.9,166.5c0.1,0,0.2-0.1,0.2-0.2c0-0.1,0.2-0.2,0.2-0.3c0.1-0.1,0.2-0.3,0.1-0.4c-0.1-0.1-0.3-0.2-0.4-0.1
	c-0.2,0.1-0.4,0.4-0.4,0.5c-0.1,0.1,0,0.3,0.1,0.4L116.9,166.5z"/>
<path class="st2" d="M115,169.3c0.1,0,0.2-0.1,0.2-0.2c0-0.1,0.2-0.2,0.2-0.3c0.1-0.1,0.2-0.3,0.1-0.4c-0.1-0.1-0.3-0.2-0.4-0.1
	c-0.2,0.1-0.4,0.4-0.4,0.5c-0.1,0.1,0,0.3,0.1,0.4L115,169.3z"/>
<path class="st2" d="M116.9,168.9c0.1,0,0.2-0.1,0.2-0.2c0-0.1,0.2-0.2,0.2-0.3c0.1-0.1,0.2-0.3,0.1-0.4c-0.1-0.1-0.3-0.2-0.4-0.1
	c-0.2,0.1-0.3,0.4-0.4,0.5c-0.1,0.1,0,0.3,0.1,0.4L116.9,168.9z"/>
<path class="st2" d="M114.7,167.2c0.1,0,0.2-0.1,0.2-0.2c0-0.1,0.2-0.2,0.2-0.3c0.1-0.1,0.2-0.3,0.1-0.4c-0.1-0.1-0.3-0.2-0.4-0.1
	c-0.2,0.1-0.4,0.4-0.4,0.5c-0.1,0.1,0,0.3,0.1,0.4L114.7,167.2z"/>
<path class="st2" d="M113,171.2c0.1,0,0.2-0.1,0.2-0.2c0.1-0.1,0.2-0.3,0.2-0.3c0.1-0.1,0.2-0.3,0.1-0.4c-0.1-0.1-0.3-0.2-0.4-0.1
	c-0.2,0.1-0.3,0.4-0.4,0.5c-0.1,0.1,0,0.3,0.1,0.4L113,171.2z"/>
<path class="st2" d="M90.8,184.6l0.2,0c0.1,0,0.2-0.2,0.2-0.4c0-0.1-0.2-0.2-0.3-0.2c-0.1,0-0.3,0-0.4,0c-0.2,0-0.3,0-0.4,0.2
	c0,0.1,0,0.3,0.2,0.3C90.4,184.6,90.6,184.7,90.8,184.6"/>
<path class="st2" d="M94.1,183.8l0.2,0c0.1,0,0.2-0.2,0.2-0.3c0-0.2-0.2-0.2-0.3-0.2c-0.1,0-0.3,0-0.4,0c-0.2,0-0.3,0-0.3,0.2
	c0,0.2,0,0.3,0.2,0.3C93.7,183.8,93.9,183.8,94.1,183.8"/>
<path class="st2" d="M83.5,185.1l0.2,0c0.1,0,0.2-0.2,0.2-0.3c0-0.2-0.2-0.2-0.4-0.2c-0.1,0-0.3,0-0.4,0c-0.2,0-0.3,0-0.4,0.2
	c0,0.2,0,0.3,0.2,0.4C83.1,185.1,83.3,185.1,83.5,185.1"/>
<path class="st2" d="M80.7,184.7l0.2,0c0.1,0,0.2-0.2,0.2-0.3c0-0.2-0.2-0.2-0.3-0.2c-0.1,0-0.3,0-0.4,0c-0.2,0-0.3,0-0.4,0.2
	c0,0.2,0,0.3,0.2,0.4C80.3,184.7,80.5,184.7,80.7,184.7"/>
<path class="st2" d="M79.4,186.6l0.2,0c0.2,0,0.2-0.2,0.2-0.3c0-0.2-0.2-0.2-0.3-0.2c-0.1,0-0.3,0-0.4,0c-0.1,0-0.3,0-0.4,0.2
	c0,0.1,0,0.3,0.2,0.4C79,186.6,79.2,186.6,79.4,186.6"/>
<path class="st2" d="M82,186.8l0.2,0c0.2,0,0.2-0.2,0.2-0.3c0-0.2-0.2-0.2-0.3-0.2c-0.1,0-0.3,0-0.4,0c-0.2,0-0.3,0-0.3,0.2
	c0,0.1,0,0.3,0.2,0.3C81.6,186.8,81.8,186.8,82,186.8"/>
<path class="st2" d="M84.2,183.4l0.2,0c0.2,0,0.2-0.2,0.2-0.3c0-0.2-0.2-0.2-0.4-0.2c-0.1,0-0.3,0-0.4,0c-0.2,0-0.3,0-0.4,0.2
	c0,0.2,0,0.3,0.2,0.3C83.8,183.4,84,183.4,84.2,183.4"/>
<path class="st2" d="M85.9,187l0.2,0c0.2,0,0.2-0.2,0.2-0.3c0-0.2-0.2-0.2-0.3-0.2c-0.1,0-0.3,0-0.4,0c-0.2,0-0.3,0-0.4,0.2
	c0,0.2,0.1,0.3,0.2,0.4C85.5,187,85.7,187,85.9,187"/>
<path class="st2" d="M88.5,185.8l0.2,0c0.2,0,0.2-0.2,0.2-0.3c0-0.1-0.2-0.2-0.4-0.2c-0.1,0-0.3,0-0.4,0c-0.2,0-0.3,0-0.4,0.2
	c0,0.2,0,0.3,0.2,0.4C88.2,185.8,88.4,185.8,88.5,185.8"/>
<path class="st2" d="M91.5,182.5l0.2,0c0.1,0,0.2-0.2,0.2-0.3c0-0.2-0.2-0.2-0.3-0.2c-0.1,0-0.3,0-0.4,0c-0.1,0-0.3,0-0.4,0.2
	c0,0.1,0,0.3,0.2,0.4C91.1,182.5,91.3,182.5,91.5,182.5"/>
<path class="st2" d="M86.4,184.6l0.2,0c0.2,0,0.2-0.2,0.2-0.3c0-0.2-0.2-0.2-0.3-0.2c-0.1,0-0.3,0-0.4,0c-0.1,0-0.3,0-0.3,0.2
	c0,0.2,0,0.3,0.2,0.4C86,184.6,86.2,184.6,86.4,184.6"/>
<path class="st2" d="M122.5,188.9c2.1,1.4,3.9,3,5.5,5.2l3.4-2.3c0,0-0.9-3.7-4.5-7.4c0,0-2.7-0.7-2.8,2.2c0,0,0.3,1.3-0.6,1.6
	c0,0-0.7-0.1-0.9,0.6L122.5,188.9z"/>
<path class="st2" d="M115.8,188.7c-1.5,2.1-3.3,3.6-3.3,3.6l3.1,1.7c1.8-1.3,3.3-2.5,4.5-3.6c0,0-2.3,0.7-3-0.6
	C116.4,188.5,115.8,188.7,115.8,188.7"/>
<path class="st2" d="M57.5,193.8c-0.4,0.5-1,0.9-1.8,1.3l-3.4,1.3l2.3,2.5c0,0,3-0.1,5.8-1.4c0,0,0.3-1.5-1.9-1.9c0,0-1.2,0-1.1-1.1
	L57.5,193.8z"/>
<polygon class="st0" points="80.3,202.5 73.8,203.1 73.7,198.2 77.3,197.1 "/>
<polygon class="st0" points="136.1,196.5 129.5,199.1 127.9,194.1 131.3,191.8 "/>
<polygon class="st0" points="52.4,196.4 54.7,198.9 50.5,201.1 47.9,197.4 "/>
<polygon class="st0" points="115.6,194.1 113.2,191.6 109.6,193.5 112.8,196.6 "/>
<path class="st6" d="M122.3,122.4c0.1,0.7,0.6,1.2,1.3,1.1c0.7-0.1,1.2-0.6,1.1-1.3c-0.1-0.7-0.6-1.2-1.3-1.1
	C122.7,121.2,122.2,121.7,122.3,122.4"/>
<path class="st6" d="M113.5,127.9c0.1,0.7,0.7,1.3,1.4,1.2c0.7-0.1,1.3-0.7,1.2-1.4c-0.1-0.7-0.7-1.3-1.4-1.2
	C113.9,126.5,113.4,127.2,113.5,127.9"/>
</svg>
