<svg xmlns="http://www.w3.org/2000/svg" viewBox="0 0 160 140">
  <defs>
    <style>
      .cls-1 {
        fill: none;
      }

      .cls-2 {
        fill: #727171;
      }

      .cls-3 {
        fill: #bce2e3;
      }

      .cls-4 {
        fill: #fff;
      }

      .cls-5 {
        fill: #f2e9b6;
      }

      .cls-6 {
        fill: #74c6be;
      }

      .cls-7 {
        fill: #e0f1f2;
      }

      .cls-8 {
        fill: #fdd35c;
      }

      .cls-9 {
        fill: #ea5541;
      }

      .cls-10 {
        fill: #fff4cd;
      }
    </style>
  </defs>
  <g id="그룹_673" data-name="그룹 673" transform="translate(-160 -572)">
    <rect id="사각형_269" data-name="사각형 269" class="cls-1" width="160" height="140" transform="translate(160 572)"/>
    <g id="그룹_594" data-name="그룹 594" transform="translate(199.004 594.977)">
      <path id="패스_2161" data-name="패스 2161" class="cls-2" d="M111.2,94.8l-2.2-2.76,3.513-3.136,2.07,4.517a7.284,7.284,0,0,1-3.325,1.506" transform="translate(-40.626 -33.134)"/>
      <path id="패스_2162" data-name="패스 2162" class="cls-2" d="M124.186,91.185l-2.886-2.07,2.509-4.015,3.2,3.826a7.938,7.938,0,0,1-2.76,2.384" transform="translate(-45.211 -31.717)"/>
      <path id="패스_2163" data-name="패스 2163" class="cls-3" d="M99.665,86.556S93.706,77.649,85.3,81.6l.815-8.092s11.6-3.136,17.439,10.162Z" transform="translate(-31.793 -27.277)"/>
      <path id="패스_2164" data-name="패스 2164" class="cls-4" d="M105.4,80.1a18.5,18.5,0,0,1,4.391,5.52l-3.513,3.136a15.474,15.474,0,0,0-4.579-3.638s2.384-.376,1.945-2.509c0,0,0-1.568.878-2.07Z" transform="translate(-37.906 -29.854)"/>
      <path id="패스_2165" data-name="패스 2165" class="cls-2" d="M110.263,89.766c2.886,5.708,1.694,11.668.251,17.439a162.319,162.319,0,0,0-3.638,19.7c-.063.627-.188,1.192-.251,1.819l-3.2-.69A15.245,15.245,0,0,0,99.85,116.3c-2.948,1.255-6.712,11.166-6.712,11.166l-3.638-.314c.627-4.454,4.266-10.037,3.387-16.874a34.211,34.211,0,0,1,.5-10.413,18.169,18.169,0,0,1,.753-3.576c.376-1.38,3.45-7.59,5.332-7.59,1.819,0,10.35.627,10.35.627a6.868,6.868,0,0,1,.627.69" transform="translate(-33.359 -33.059)"/>
      <path id="패스_2166" data-name="패스 2166" class="cls-2" d="M96.05,87.863a5.8,5.8,0,0,0-.314-.627c-1.066-1.694-4.642-2.572-6.4-3.074a18.208,18.208,0,0,0-6.649-.188L82.5,85.793c.251,0,.5.063.753.063.753.125,1.506.314,2.258.5,1,.314,1.882.941,2.823,1.317,3.952,1.568,4.015,6.085,5.834,6.21,1.38.188,2.509-4.328,1.882-6.022" transform="translate(-30.75 -31.218)"/>
      <path id="패스_2167" data-name="패스 2167" class="cls-5" d="M79.429,85.584a1.8,1.8,0,0,0-1.192.439,2.313,2.313,0,0,0-.627,1c0,.063-.063.063-.063.125-.188.314-.376-.063-.439-.251a.693.693,0,0,1,0-.5c0-.063.125-.439.188-.439,0,0-.5.125-.941,1.192,0,.063-.063.251-.125.251-.314,0-.251-.878-.188-1.066,0-.063.188-.565.251-.565a1.361,1.361,0,0,0-.941.5c-.063.063-.188.188-.314.125-.188-.125.063-.627.125-.753a2.532,2.532,0,0,1,.815-.815l-.125-.063a.93.93,0,0,0-.439-.063,1.012,1.012,0,0,0-.565.188c-.125.063-.439.376-.565.188s.251-.565.376-.69a2.006,2.006,0,0,1,1.192-.314c-.063,0-.125-.125-.188-.125-.125-.063-.314-.188-.439-.251-.188-.063-.439-.063-.565-.188-.251-.188.376-.314.5-.314h.5a16.194,16.194,0,0,1,1.819.188c.376.063.69.125,1.066.188h.063l.941.125c0,.125.251,1.882-.125,1.882" transform="translate(-27.678 -31.009)"/>
      <path id="패스_2168" data-name="패스 2168" class="cls-6" d="M49.626,15.2s-6.838.878-7.026,24.778c0,0,.188,3.074-2.572,2.948A1.649,1.649,0,0,0,38.4,44.495c-.125,1.819,2.133,1.945,3.387,1.819a7.292,7.292,0,0,0,1.129-.251c4.077-1.317,3.764-5.771,4.015-9.221.314-4.14.125-8.28,1.568-12.232.878-2.384,2.572-4.14,4.2-6.147Z" transform="translate(-14.31 -5.665)"/>
      <path id="패스_2169" data-name="패스 2169" class="cls-3" d="M90.027,25.782c-4.015-4.579-6.775-7.59-12.295-11.166-.188-.125-6.085-3.952-6.21-3.7A11.673,11.673,0,0,0,72.4,0c-5.646,3.074-6.147,7.967-6.147,7.967l-1.38.188c-4.2.753-4.767.565-4.767.565A14.258,14.258,0,0,0,52.578.753C48.751,8.782,55.9,13.989,55.9,13.989c-5.018,2.823-4.7,24.778-4.7,24.841l.314,27.287-.063,5.144S50.257,87.7,71.71,84.371a9.425,9.425,0,0,0,3.764-1.756,12.506,12.506,0,0,0,5.457-7.277,17.465,17.465,0,0,0,.376-3.638,18.932,18.932,0,0,0-.251-4.2c-.063-.188-.5-2.2-.627-2.446L76.854,49.744l-2.823-11.1c-.753-2.509-.627-2.572-.753-2.635,3.325,1.129,7.277,1,10.727.565a7.307,7.307,0,0,0,4.642-2.635c.878-1,2.321-3.011,2.446-4.454a4.266,4.266,0,0,0-1.066-3.7" transform="translate(-19.082)"/>
      <path id="패스_2170" data-name="패스 2170" class="cls-4" d="M82.951,2.5s1.255,4.767-1,7.716c-2.2,2.948-1.882-5.081,1-7.716" transform="translate(-30.008 -0.932)"/>
      <path id="패스_2171" data-name="패스 2171" class="cls-4" d="M53.768,4.3s-1.255,5.081,2.2,8.719c3.011,3.2,1.631-5.9-2.2-8.719" transform="translate(-19.958 -1.603)"/>
      <path id="패스_2172" data-name="패스 2172" class="cls-7" d="M97.4,36.9h0l.063.063L97.4,36.9" transform="translate(-36.303 -13.753)"/>
      <path id="패스_2173" data-name="패스 2173" class="cls-6" d="M73.929,22.146a.807.807,0,0,0,.69-.941l-.063-.439V20.7c-.314-1.819-1.066-2.948-3.45-2.635l-2.321.314a.825.825,0,0,0,.251,1.631l2.321-.314c1.129-.125,1.38-.063,1.631,1.317l.063.439a.749.749,0,0,0,.878.69" transform="translate(-25.378 -6.715)"/>
      <path id="패스_2174" data-name="패스 2174" class="cls-6" d="M75.1,19.653a.807.807,0,0,0,.69-.941l-.063-.439V18.21a4.464,4.464,0,0,0-5.081-3.826l-4.266.565a.841.841,0,0,0-.69.941.807.807,0,0,0,.941.69l4.266-.565a2.759,2.759,0,0,1,3.262,2.446l.063.439a.787.787,0,0,0,.878.753" transform="translate(-24.483 -5.35)"/>
      <path id="패스_2175" data-name="패스 2175" class="cls-6" d="M76.143,17.1a.841.841,0,0,0,.69-.941v-.251a5.969,5.969,0,0,0-6.649-5.144l-6.4.815a.807.807,0,0,0-.69.941.841.841,0,0,0,.941.69l6.4-.815a4.312,4.312,0,0,1,4.83,3.7v.251a.787.787,0,0,0,.878.753" transform="translate(-23.514 -3.994)"/>
      <path id="패스_2176" data-name="패스 2176" class="cls-4" d="M92.972,34.551a.776.776,0,0,0-.188-.125c-.69-.5-3.074-2.258-2.823-4.328,0,0-2.509-.125-6.461-2.7,0,0,3.7,2.572,2.635,4.7,0,0,2.7-.188,6.838,2.446" transform="translate(-31.122 -10.212)"/>
      <path id="패스_2177" data-name="패스 2177" class="cls-3" d="M37.374,81.065s3.576-7.088,10.539.125l.69-8.218s-6.649-6.963-14.3,3.7Z" transform="translate(-12.785 -26.365)"/>
      <path id="패스_2178" data-name="패스 2178" class="cls-4" d="M55.086,71.131h0c.188-.063.251-.188.188-.314V70.5c.063-.125-.063-.251-.188-.314s-.251.063-.314.188a1.063,1.063,0,0,0,0,.627c.125.063.188.125.314.125" transform="translate(-20.398 -26.154)"/>
      <path id="패스_2179" data-name="패스 2179" class="cls-4" d="M58.286,61.731h0c.188-.063.251-.188.188-.314V61.1c.063-.125-.063-.251-.188-.314s-.251.063-.314.188a1.063,1.063,0,0,0,0,.627.479.479,0,0,0,.314.125" transform="translate(-21.59 -22.651)"/>
      <path id="패스_2180" data-name="패스 2180" class="cls-4" d="M54.186,62.331h0c.188-.063.251-.188.188-.314V61.7c.063-.125-.063-.251-.188-.314s-.251.063-.314.188a1.063,1.063,0,0,0,0,.627.479.479,0,0,0,.314.125" transform="translate(-20.062 -22.874)"/>
      <path id="패스_2181" data-name="패스 2181" class="cls-4" d="M58.786,57.731h0c.188-.063.251-.188.188-.314V57.1c.063-.125-.063-.251-.188-.314s-.251.063-.314.188a1.063,1.063,0,0,0,0,.627c.125.063.188.125.314.125" transform="translate(-21.777 -21.16)"/>
      <path id="패스_2182" data-name="패스 2182" class="cls-4" d="M54.386,53.331h0c.188-.063.251-.188.188-.314V52.7c.063-.125-.063-.251-.188-.314s-.251.063-.314.188a1.063,1.063,0,0,0,0,.627.479.479,0,0,0,.314.125" transform="translate(-20.137 -19.52)"/>
      <path id="패스_2183" data-name="패스 2183" class="cls-4" d="M55.886,59.631h0c.188-.063.251-.188.188-.314V59c.063-.125-.063-.251-.188-.314s-.251.063-.314.188a1.069,1.069,0,0,0,0,.627c.125.063.188.125.314.125" transform="translate(-20.696 -21.868)"/>
      <path id="패스_2184" data-name="패스 2184" class="cls-4" d="M55.886,50.031h0c.188-.063.251-.188.188-.314V49.4c.063-.125-.063-.251-.188-.314s-.251.063-.314.188a1.063,1.063,0,0,0,0,.627.479.479,0,0,0,.314.125" transform="translate(-20.696 -18.29)"/>
      <path id="패스_2185" data-name="패스 2185" class="cls-4" d="M57.486,53.631h0c.188-.063.251-.188.188-.314V53c.063-.125-.063-.251-.188-.314s-.251.063-.314.188a1.064,1.064,0,0,0,0,.627c.063.063.188.188.314.125" transform="translate(-21.292 -19.632)"/>
      <path id="패스_2186" data-name="패스 2186" class="cls-4" d="M55.786,56.031h0c.188-.063.251-.188.188-.314V55.4c.063-.125-.063-.251-.188-.314s-.251.063-.314.188a1.063,1.063,0,0,0,0,.627.479.479,0,0,0,.314.125" transform="translate(-20.659 -20.526)"/>
      <path id="패스_2187" data-name="패스 2187" class="cls-4" d="M55.586,65.131h0c.188-.063.251-.188.188-.314V64.5c.063-.125-.063-.251-.188-.314s-.251.063-.314.188a1.063,1.063,0,0,0,0,.627c.125.063.188.125.314.125" transform="translate(-20.584 -23.918)"/>
      <path id="패스_2188" data-name="패스 2188" class="cls-4" d="M57.286,68.831h0c.188-.063.251-.188.188-.314V68.2c.063-.125-.063-.251-.188-.314s-.251.063-.314.188a1.069,1.069,0,0,0,0,.627.479.479,0,0,0,.314.125" transform="translate(-21.218 -25.297)"/>
      <path id="패스_2189" data-name="패스 2189" class="cls-4" d="M54.386,67.831h0c.188-.063.251-.188.188-.314V67.2c.063-.125-.063-.251-.188-.314s-.251.063-.314.188a.439.439,0,0,0,.314.753" transform="translate(-20.137 -24.924)"/>
      <path id="패스_2190" data-name="패스 2190" class="cls-4" d="M58.986,65.831h0c.188-.063.251-.188.188-.314V65.2c.063-.125,0-.251-.188-.314-.125-.063-.251.063-.314.188a1.063,1.063,0,0,0,0,.627.479.479,0,0,0,.314.125" transform="translate(-21.851 -24.179)"/>
      <path id="패스_2191" data-name="패스 2191" class="cls-4" d="M83.4,96.154a.2.2,0,0,0,.188-.188c.063-.063.125-.251.188-.251.125-.063.125-.251.063-.376s-.251-.125-.376-.063a1.51,1.51,0,0,0-.376.5.229.229,0,0,0,.125.314.486.486,0,0,0,.188.063" transform="translate(-30.959 -35.494)"/>
      <path id="패스_2192" data-name="패스 2192" class="cls-4" d="M86.8,95.554a.2.2,0,0,0,.188-.188c.063-.125.125-.251.188-.251.125-.063.125-.251.063-.376s-.251-.125-.376-.063a1.51,1.51,0,0,0-.376.5.229.229,0,0,0,.125.314c.125.063.125.063.188.063" transform="translate(-32.226 -35.271)"/>
      <path id="패스_2193" data-name="패스 2193" class="cls-4" d="M86.1,88.354a.2.2,0,0,0,.188-.188c.063-.063.125-.251.188-.251.125-.063.125-.251.063-.376s-.251-.125-.376-.063a1.51,1.51,0,0,0-.376.5.229.229,0,0,0,.125.314.485.485,0,0,0,.188.063" transform="translate(-31.965 -32.587)"/>
      <path id="패스_2194" data-name="패스 2194" class="cls-4" d="M83.7,92.354a.2.2,0,0,0,.188-.188c.063-.063.125-.251.188-.251.125-.063.125-.251.063-.376s-.251-.125-.376-.063a1.51,1.51,0,0,0-.376.5.229.229,0,0,0,.125.314.485.485,0,0,0,.188.063" transform="translate(-31.07 -34.078)"/>
      <path id="패스_2195" data-name="패스 2195" class="cls-4" d="M86.3,91.654a.2.2,0,0,0,.188-.188c0-.063.125-.251.188-.251.125-.063.125-.251.063-.376s-.251-.125-.376-.063a1.51,1.51,0,0,0-.376.5.229.229,0,0,0,.125.314c.125.063.188.125.188.063" transform="translate(-32.039 -33.817)"/>
      <path id="패스_2196" data-name="패스 2196" class="cls-4" d="M83.1,89.554a.2.2,0,0,0,.188-.188c.063-.125.125-.251.188-.251.125-.063.125-.251.063-.376s-.251-.125-.376-.063a1.51,1.51,0,0,0-.376.5.229.229,0,0,0,.125.314.486.486,0,0,0,.188.063" transform="translate(-30.847 -33.035)"/>
      <path id="패스_2197" data-name="패스 2197" class="cls-4" d="M81,95.254a.2.2,0,0,0,.188-.188c.063-.063.125-.251.188-.251.125-.063.125-.251.063-.376s-.251-.125-.376-.063a1.51,1.51,0,0,0-.376.5.229.229,0,0,0,.125.314c.125.063.125.063.188.063" transform="translate(-30.064 -35.159)"/>
      <path id="패스_2198" data-name="패스 2198" class="cls-3" d="M69.519,128.243,64.5,142.859l-3.2-.815L60.8,126.8Z" transform="translate(-22.662 -47.259)"/>
      <path id="패스_2199" data-name="패스 2199" class="cls-4" d="M61.3,142.1a2.321,2.321,0,0,0,3.136.753s1.506-.878,1.945.69l-1.694,5.018-3.2-.815Z" transform="translate(-22.848 -52.961)"/>
      <path id="패스_2200" data-name="패스 2200" class="cls-2" d="M59.252,151.1,55.3,155.867l7.088.941.063-4.893Z" transform="translate(-20.612 -56.316)"/>
      <path id="패스_2201" data-name="패스 2201" class="cls-3" d="M82.7,127.013l8.468,12.922,2.886-1.568L90.729,123.5Z" transform="translate(-30.824 -46.029)"/>
      <path id="패스_2202" data-name="패스 2202" class="cls-4" d="M96.179,138.4a2.3,2.3,0,0,1-2.886,1.506s-1.694-.439-1.694,1.129l2.886,4.454,2.886-1.631Z" transform="translate(-34.141 -51.582)"/>
      <path id="패스_2203" data-name="패스 2203" class="cls-2" d="M99.086,147.2l4.956,3.638-6.587,2.635-1.255-4.7Z" transform="translate(-35.856 -54.862)"/>
      <path id="패스_2204" data-name="패스 2204" class="cls-6" d="M105.326,48.463l-.188-.125a.922.922,0,0,1-.314-.376.5.5,0,0,1,.063-.5V47.4a.7.7,0,0,1,.878-.251h.063l.188.125c.125.063.376.063.439-.125.063-.125.063-.376-.125-.439l-.188-.125h0l-.063-.063a1.291,1.291,0,0,0-1.694.5l-.063.063a1.231,1.231,0,0,0-.063.941,1.349,1.349,0,0,0,.565.753l.188.125c.125.063.376.063.439-.125.063-.063,0-.251-.125-.314" transform="translate(-38.834 -17.287)"/>
      <path id="패스_2205" data-name="패스 2205" class="cls-6" d="M109.527,44.3l-.125-.188a.676.676,0,0,1-.125-.5.424.424,0,0,1,.251-.376h.063a.663.663,0,0,1,.878.125v.063l.125.188a.314.314,0,1,0,.5-.376l-.125-.188h0l-.063-.063a1.3,1.3,0,0,0-1.756-.314l-.063.063a1.394,1.394,0,0,0-.5.815,1.292,1.292,0,0,0,.188.941l.125.188a.379.379,0,0,0,.627-.376" transform="translate(-40.463 -15.824)"/>
      <path id="패스_2206" data-name="패스 2206" class="cls-2" d="M90.527,26.377l-.125-.188a.676.676,0,0,1-.125-.5,1.011,1.011,0,0,1,.251-.439h.063a.7.7,0,0,1,.941.188V25.5h0l.125.188a.488.488,0,0,0,.5.125.393.393,0,0,0,.125-.5l-.125-.188L92.1,25.06a1.459,1.459,0,0,0-1.882-.376l-.063.063a1.22,1.22,0,0,0-.565.878,1.454,1.454,0,0,0,.188,1l.125.188a.393.393,0,0,0,.5.125.64.64,0,0,0,.125-.565" transform="translate(-33.382 -9.127)"/>
      <path id="패스_2207" data-name="패스 2207" class="cls-2" d="M78.39,33.14l-.125-.251a.932.932,0,0,1-.125-.565.862.862,0,0,1,.314-.5h.063a.785.785,0,0,1,1.066.188v.063l.125.251a.366.366,0,1,0,.627-.376l-.188-.251-.063-.063a1.566,1.566,0,0,0-2.07-.376l-.063.063a1.487,1.487,0,0,0-.565.941,1.81,1.81,0,0,0,.188,1.129l.125.251a.348.348,0,0,0,.5.125.46.46,0,0,0,.188-.627" transform="translate(-28.835 -11.561)"/>
      <path id="패스_2208" data-name="패스 2208" class="cls-2" d="M31.272,61.622a1.188,1.188,0,0,1-1.129,1.255L5.177,64.256a1.188,1.188,0,0,1-1.255-1.129l-.125-2.2a1.188,1.188,0,0,1,1.129-1.255L29.955,58.3a1.188,1.188,0,0,1,1.255,1.129Z" transform="translate(-1.414 -21.726)"/>
      <path id="패스_2209" data-name="패스 2209" class="cls-2" d="M14.378,38.81a.389.389,0,0,1-.5.063.327.327,0,0,1-.063-.5.377.377,0,0,0,.063-.251.346.346,0,0,1,.69.063.937.937,0,0,1-.188.627m-1.192,1.882a.476.476,0,0,1-.251.125.23.23,0,0,1-.188-.063.327.327,0,0,1-.063-.5c.063-.063.063-.188.125-.251a.346.346,0,0,1,.69.063,1.471,1.471,0,0,1-.314.627M12.12,38.936a.476.476,0,0,1-.251.125A.377.377,0,0,1,11.618,39a.327.327,0,0,1-.063-.5.377.377,0,0,0,.063-.251.346.346,0,0,1,.69.063.7.7,0,0,1-.188.627m-.188,3.7a.476.476,0,0,1-.251.125.377.377,0,0,1-.251-.063.327.327,0,0,1-.063-.5.377.377,0,0,0,.063-.251.346.346,0,1,1,.69.063,1.485,1.485,0,0,1-.188.627m-.941-1.819a.25.25,0,0,1-.251.125.23.23,0,0,1-.188-.063.327.327,0,0,1-.063-.5.476.476,0,0,0,.125-.251.346.346,0,1,1,.69.063,2.891,2.891,0,0,1-.314.627m6.336-7.653C7.1,33.98,6.6,48.847,6.6,48.847l23.21-1c-4.893-16.5-12.483-14.679-12.483-14.679" transform="translate(-2.461 -12.339)"/>
      <path id="패스_2210" data-name="패스 2210" class="cls-2" d="M34.5,113.643l-3.136.188a2.874,2.874,0,0,1-2.258-1.505,5.691,5.691,0,0,1-.69-4.642,4.6,4.6,0,0,1,2.948-2.635,13.483,13.483,0,0,1,1.506-.439L30.3,89.179c-.063-.251.125-.439.376-.5s.439.125.5.376L33.81,104.8v.063h0a.477.477,0,0,1-.376.5h-.063a16.2,16.2,0,0,0-1.631.5,3.773,3.773,0,0,0-2.446,2.07l1.694-.251c.251-.063.439.125.5.376s-.125.439-.376.5l-2.07.314a4.141,4.141,0,0,0,.063.878l2.007-.251c.251-.063.439.125.5.376a.477.477,0,0,1-.376.5l-1.945.251a2.957,2.957,0,0,0,.376.941c.063,0,.063-.063.125-.063l1.945-.188a.444.444,0,0,1,.125.878l-1.631.188a1.724,1.724,0,0,0,1.192.627l3.074-.188a.429.429,0,0,1,.439.439.419.419,0,0,1-.439.376m-6.712-12.107a.662.662,0,0,0,.125-.314c0-.251.188-.376.439-.376s.376.188.376.439a1.142,1.142,0,0,1-.251.69.345.345,0,0,1-.314.188.377.377,0,0,1-.251-.063.364.364,0,0,1-.125-.565m-.063-4.767a.662.662,0,0,0,.125-.314c0-.251.188-.376.439-.376s.376.188.376.439a1.142,1.142,0,0,1-.251.69.345.345,0,0,1-.314.188.377.377,0,0,1-.251-.063.364.364,0,0,1-.125-.565m1.506,2.321a.662.662,0,0,0,.125-.314A.415.415,0,0,1,29.8,98.4c.251,0,.376.188.376.439a1.142,1.142,0,0,1-.251.69.345.345,0,0,1-.314.188.377.377,0,0,1-.251-.063.409.409,0,0,1-.125-.565m-2.321.753a.345.345,0,0,1-.314.188.377.377,0,0,1-.251-.063.409.409,0,0,1-.125-.565.662.662,0,0,0,.125-.314c0-.251.188-.376.439-.376s.376.188.376.439a1.142,1.142,0,0,1-.251.69M25.78,97.334a.345.345,0,0,1-.314.188.377.377,0,0,1-.251-.063.409.409,0,0,1-.125-.565.479.479,0,0,0,.125-.314c0-.251.188-.376.439-.376s.376.188.376.439a1.142,1.142,0,0,1-.251.69m-.5,5.332a.345.345,0,0,1-.314.188.377.377,0,0,1-.251-.063.409.409,0,0,1-.125-.565.662.662,0,0,0,.125-.314c0-.251.188-.376.439-.376s.376.188.376.439a1.315,1.315,0,0,1-.251.69m-1.443-2.572a.345.345,0,0,1-.314.188.377.377,0,0,1-.251-.063.409.409,0,0,1-.125-.565.662.662,0,0,0,.125-.314c0-.251.188-.376.439-.376s.376.188.376.439a1.543,1.543,0,0,1-.251.69M20.574,75.5c-.69.063-1.317-.753-1.38-1.756s.439-1.882,1.129-1.945,1.317.753,1.38,1.756c.063,1.066-.439,1.882-1.129,1.945m-1.192,6.147a5.113,5.113,0,0,1-3.387,1.506,4.547,4.547,0,0,1-2.7-.941,3.07,3.07,0,0,1-.815-.753.933.933,0,0,1,.063-1.38,1.007,1.007,0,0,1,1.443.063,3.033,3.033,0,0,0,2.07,1.066A3.157,3.157,0,0,0,18,80.334a.955.955,0,1,1,1.38,1.317m-1.129,35.568c-.063.125-.188.125-.314.188a.377.377,0,0,1-.251-.063.41.41,0,0,1-.125-.5.476.476,0,0,0,.125-.251.376.376,0,0,1,.753,0,1.841,1.841,0,0,1-.188.627m-1.443-2.133a.345.345,0,0,1-.314.188.377.377,0,0,1-.251-.063.409.409,0,0,1-.125-.565.662.662,0,0,0,.125-.314c0-.251.188-.376.439-.376s.376.188.376.439c-.063.188-.188.5-.251.69m.063,4.517c-.063.125-.188.125-.314.188a.377.377,0,0,1-.251-.063.332.332,0,0,1-.063-.5.476.476,0,0,0,.125-.251.376.376,0,0,1,.753,0,6.506,6.506,0,0,1-.251.627m-1.506-2.258c-.063.125-.188.125-.314.188a.377.377,0,0,1-.251-.063.41.41,0,0,1-.125-.5.476.476,0,0,0,.125-.251.376.376,0,1,1,.753,0,.937.937,0,0,1-.188.627m-1.255,2.384c-.063.125-.188.125-.314.188a.377.377,0,0,1-.251-.063.41.41,0,0,1-.125-.5.476.476,0,0,0,.125-.251.376.376,0,0,1,.753,0,.7.7,0,0,1-.188.627m-.878-5.207a.662.662,0,0,0,.125-.314c0-.251.188-.376.439-.376s.376.188.376.439a1.142,1.142,0,0,1-.251.69.345.345,0,0,1-.314.188.377.377,0,0,1-.251-.063.409.409,0,0,1-.125-.565M11.478,75.629c-.69.063-1.317-.753-1.38-1.756s.439-1.882,1.129-1.945,1.317.753,1.38,1.756c.063,1.066-.439,1.945-1.129,1.945m.878,41.841c-.063.125-.188.125-.314.125a.377.377,0,0,1-.251-.063.332.332,0,0,1-.063-.5.476.476,0,0,0,.125-.251.342.342,0,0,1,.439-.314.314.314,0,0,1,.314.376c-.063.188-.188.439-.251.627m-1.066,2.572a.345.345,0,0,1-.314.188.377.377,0,0,1-.251-.063.41.41,0,0,1-.125-.5.476.476,0,0,0,.125-.251.376.376,0,0,1,.753,0,1.21,1.21,0,0,1-.188.627m-1.066-4.956a.409.409,0,0,1-.125-.565.662.662,0,0,0,.125-.314.415.415,0,0,1,.439-.376c.251,0,.376.188.376.439a1.142,1.142,0,0,1-.251.69.345.345,0,0,1-.314.188c-.063.063-.188,0-.251-.063m-1.129-5.708a3.452,3.452,0,0,1-2.2,1.945l-2.635.125a.439.439,0,0,1,0-.878l2.572-.125a1.7,1.7,0,0,0,1.192-.941H6.773a.439.439,0,1,1,0-.878l1.694.063a4.7,4.7,0,0,0,.314-1H7.15a.439.439,0,0,1,0-.878H8.906a4.748,4.748,0,0,0-.063-.941H7.213a.439.439,0,1,1,0-.878H8.53a4.395,4.395,0,0,0-.5-.627,4.016,4.016,0,0,0-2.886-.941c-.251,0-.439-.063-.69-.063a.415.415,0,0,1-.376-.439c.125-5.583.314-12.232.314-12.295a.439.439,0,0,1,.878,0c0,.125-.251,9.723-.314,11.856h.251a5.1,5.1,0,0,1,3.45,1.255,3.2,3.2,0,0,1,.69,1,5.779,5.779,0,0,1-.251,4.642m.125,8.029a.345.345,0,0,1-.314.188.377.377,0,0,1-.251-.063.41.41,0,0,1-.125-.5.476.476,0,0,0,.125-.251.376.376,0,1,1,.753,0,.758.758,0,0,1-.188.627m6.022-41.652c.188-.439.627-1.756,1.38-1.255l.188.188a9.752,9.752,0,0,1,.5,1.443c.376,1,1.129,2.384-.5,2.7a3.1,3.1,0,0,1-2.572-.5c-.69-.627.69-1.945,1-2.572m22.9,33.184L34,86.983a2.831,2.831,0,0,0-2.823-2.321c-.063-.5-.188-1-.251-1.506h.125l.5-.063a1.938,1.938,0,0,0,1.568-2.133L31.363,70.235a1.938,1.938,0,0,0-2.133-1.568l-.5.063a2.717,2.717,0,0,0-.314.063c-.063-.376-.125-.815-.188-1.192L4.013,68.917v1.255c-.125,0-.251-.063-.376-.063h-.5a1.885,1.885,0,0,0-1.945,1.819L.751,82.718a1.885,1.885,0,0,0,1.819,1.945h.5a1.223,1.223,0,0,0,.5-.063v1.129A3.085,3.085,0,0,0,.626,88.74L0,108.123a3.062,3.062,0,0,0,2.823,3.2c0,1.255-.063,2.509-.063,3.7-.063,3.011-.063,6.649,2.321,8.908,2.572,2.446,6.4,1.819,9.6,1.568,4.454-.376,8.845-.5,13.3-.753,3.136-.188,6.838-.439,8.531-3.513,1.255-2.2.878-5.081.188-7.841a5.446,5.446,0,0,0,1.443-4.454" transform="translate(0 -25.195)"/>
      <path id="패스_2211" data-name="패스 2211" class="cls-8" d="M107.429,112.114c-.439.439-1.631-.5-2.007-.941a1.132,1.132,0,0,1,1.631-1.568c.376.439.815,2.07.376,2.509" transform="translate(-39.181 -40.727)"/>
      <path id="패스_2212" data-name="패스 2212" class="cls-9" d="M104.99,115.364c.063.627.125,1.255-.439,1.317a1.215,1.215,0,0,1-1.255-.941,1.087,1.087,0,0,1,.941-1.255c.565-.125.627.251.753.878" transform="translate(-38.498 -42.661)"/>
      <path id="패스_2213" data-name="패스 2213" class="cls-6" d="M103.927,107.037c.063.627.125,1.255-.439,1.317a1.11,1.11,0,0,1-1.192-1,1.087,1.087,0,0,1,.941-1.255c.5-.063.627.314.69.941" transform="translate(-38.125 -39.54)"/>
      <path id="패스_2214" data-name="패스 2214" class="cls-4" d="M104.267,105.5a2.239,2.239,0,0,0-2.07-.753A2.205,2.205,0,0,0,100.5,106a3.739,3.739,0,0,0-.376,1.819,8.346,8.346,0,0,0,2.258,4.956h0a9.014,9.014,0,0,0,4.7,2.509,1.4,1.4,0,0,0,1.255-.314c.439-.5.439-1.443.063-2.76-.376-.941-.753-1.756-1.129-2.572a27.336,27.336,0,0,0-3.011-4.14Zm-2.384,7.59h0A8.8,8.8,0,0,1,99.5,107.76a5.984,5.984,0,0,1,.439-2.07,2.828,2.828,0,0,1,2.07-1.506,2.8,2.8,0,0,1,2.509.941,21.243,21.243,0,0,1,3.011,4.266,25.613,25.613,0,0,1,1.192,2.635c.5,1.568.439,2.635-.125,3.262a2.1,2.1,0,0,1-1.756.5,9.583,9.583,0,0,1-4.956-2.7" transform="translate(-37.086 -38.82)"/>
      <path id="패스_2215" data-name="패스 2215" class="cls-4" d="M99.759,110.251h0a.3.3,0,0,1,.063-.439c.188-.063,4.015-2.258,6.147-1.756a.259.259,0,1,1-.125.5c-1.882-.439-5.708,1.694-5.771,1.694-.063.125-.188.063-.314,0" transform="translate(-37.157 -40.245)"/>
      <path id="패스_2216" data-name="패스 2216" class="cls-4" d="M100.959,113.187h0a.3.3,0,0,1,.063-.439c.188-.063,4.14-2.2,6.21-1.694a.259.259,0,0,1-.125.5c-1.882-.439-5.834,1.631-5.834,1.694a.276.276,0,0,1-.314-.063" transform="translate(-37.604 -41.362)"/>
      <path id="패스_2217" data-name="패스 2217" class="cls-4" d="M102.748,116.105l-.063-.063a.3.3,0,0,1,.125-.376c.188-.063,4.077-1.945,6.147-1.505a.259.259,0,1,1-.125.5c-1.882-.439-5.771,1.443-5.834,1.443-.063.125-.188.063-.251,0" transform="translate(-38.264 -42.524)"/>
      <path id="패스_2218" data-name="패스 2218" class="cls-4" d="M106.159,119.545h0a.3.3,0,0,1,.063-.439c.125-.063,2.886-1.568,4.956-1.066a.259.259,0,1,1-.125.5c-1.882-.439-4.579,1-4.579,1.066-.125.063-.251.063-.314-.063" transform="translate(-39.542 -43.956)"/>
      <path id="패스_2219" data-name="패스 2219" class="cls-4" d="M105.986,116.513a.219.219,0,0,1-.063-.125,19.72,19.72,0,0,0-4.579-7.967c-.125-.063-.125-.251,0-.376a.235.235,0,0,1,.376,0,20.162,20.162,0,0,1,4.7,8.155c.063.125-.063.251-.188.314-.063.125-.188.063-.251,0" transform="translate(-37.738 -40.234)"/>
      <path id="패스_2220" data-name="패스 2220" class="cls-4" d="M108.166,115.873a.23.23,0,0,1-.063-.188c0-.063-.063-4.642-5.959-10.664h0a.266.266,0,1,1,.376-.376c6.085,6.21,6.085,10.852,6.085,11.04a.27.27,0,0,1-.251.251.23.23,0,0,1-.188-.063" transform="translate(-38.036 -38.966)"/>
      <path id="패스_2221" data-name="패스 2221" class="cls-2" d="M117.607,73.351c-.878,5.52-5.708,9.284-10.664,8.406-5.018-.815-8.28-5.959-7.339-11.417s5.708-9.221,10.727-8.406c4.893.815,8.218,5.959,7.277,11.417" transform="translate(-37.064 -23.042)"/>
      <path id="패스_2222" data-name="패스 2222" class="cls-5" d="M116.955,74.152c-.753,4.517-4.7,7.59-8.845,6.9s-6.838-4.893-6.085-9.409,4.7-7.59,8.845-6.9,6.838,4.893,6.085,9.409" transform="translate(-37.98 -24.094)"/>
      <path id="패스_2223" data-name="패스 2223" class="cls-2" d="M100.6,72.32s9.033-8.155,16.686,2.823l-.063-4.83-4.14-3.513h-9.535l-2.07,3.2Z" transform="translate(-37.496 -24.897)"/>
      <path id="패스_2224" data-name="패스 2224" class="cls-3" d="M117.819,65.98a2.773,2.773,0,0,1-3.2,2.258l-6.085-1a2.769,2.769,0,1,1,.941-5.457l6.085,1a2.841,2.841,0,0,1,2.258,3.2" transform="translate(-39.597 -23.01)"/>
      <path id="패스_2225" data-name="패스 2225" class="cls-9" d="M114.982,60.571l-6.085-1a4.2,4.2,0,0,0-1.38,8.28l6.085,1a4.2,4.2,0,0,0,1.38-8.28m-.251,1.443a2.769,2.769,0,0,1-.941,5.457l-6.085-1a2.769,2.769,0,1,1,.941-5.457Z" transform="translate(-38.767 -22.18)"/>
      <path id="패스_2226" data-name="패스 2226" class="cls-2" d="M109.5,75.988c-.125.627-.5,1.066-.941,1-.376-.063-.627-.627-.565-1.192.125-.627.5-1.066.941-1s.69.565.565,1.192" transform="translate(-40.248 -27.875)"/>
      <path id="패스_2227" data-name="패스 2227" class="cls-2" d="M118,77.788c-.125.627-.5,1.066-.941,1-.376-.063-.627-.627-.565-1.192.125-.627.5-1.066.941-1,.439,0,.69.565.565,1.192" transform="translate(-43.416 -28.546)"/>
      <path id="패스_2228" data-name="패스 2228" class="cls-2" d="M109.023,83.926a4.4,4.4,0,0,1-.376-.565.611.611,0,0,1,.188-.815.6.6,0,0,1,.815.188,1.584,1.584,0,0,0,1.066.878,2.01,2.01,0,0,0,1.255-.251.583.583,0,1,1,.69.941,3.238,3.238,0,0,1-2.2.439,2.422,2.422,0,0,1-1.443-.815" transform="translate(-40.461 -30.732)"/>
      <path id="패스_2229" data-name="패스 2229" class="cls-9" d="M112.909,78.36c0-.063-.063-.063-.063-.125-.376-.376-.753.314-.941.565-.251.314-1.255.878-.941,1.38a1.817,1.817,0,0,0,1.443.627c1,0,.753-.878.627-1.506a4.268,4.268,0,0,0-.125-.941" transform="translate(-41.336 -29.118)"/>
      <path id="패스_2230" data-name="패스 2230" class="cls-9" d="M126.464,75.285a.766.766,0,0,1-.565-.5,7.942,7.942,0,0,0-1.945-3.325.711.711,0,1,1,.941-1.066,9.218,9.218,0,0,1,2.384,3.952.687.687,0,0,1-.5.878.47.47,0,0,1-.314.063" transform="translate(-46.109 -26.168)"/>
      <path id="패스_2231" data-name="패스 2231" class="cls-9" d="M99.839,71.554c-.125,0-.188-.063-.314-.125a.783.783,0,0,1-.188-1,8.252,8.252,0,0,1,3.576-2.948.746.746,0,0,1,.941.439.776.776,0,0,1-.376.941,7.389,7.389,0,0,0-2.948,2.509.831.831,0,0,1-.69.188" transform="translate(-36.985 -25.135)"/>
      <path id="패스_2232" data-name="패스 2232" class="cls-5" d="M115.678,107.237a2.189,2.189,0,0,1-1.317.188,1.981,1.981,0,0,1-1.066-.69c-.063,0-.063-.063-.125-.063-.314-.188-.314.251-.314.439a1.878,1.878,0,0,0,.251.5c.063.063.314.376.439.314,0,0-.565.188-1.443-.69-.063-.063-.188-.251-.251-.188-.314.125.188.941.376,1.066a3.141,3.141,0,0,0,.5.439,1.409,1.409,0,0,1-1.129,0c-.125-.063-.251-.063-.314.063-.125.251.314.565.5.69a1.572,1.572,0,0,0,1.192.314l-.125.125a1.312,1.312,0,0,1-.376.251,2.229,2.229,0,0,1-.627.125c-.125,0-.565-.125-.565.125s.5.439.69.439a2.547,2.547,0,0,0,1.317-.314c-.063,0-.063.188-.125.188a1.907,1.907,0,0,1-.314.439c-.125.125-.376.251-.439.439-.125.314.5.063.627,0s.314-.188.439-.251a14.591,14.591,0,0,0,1.631-1.066,10.724,10.724,0,0,0,.878-.69l.063-.063.815-.565c-.188.063-.815-1.694-1.192-1.568" transform="translate(-41.47 -39.74)"/>
      <path id="패스_2233" data-name="패스 2233" class="cls-2" d="M121.2,91.4s8.594,6.4-2.007,11.793L118,101.688s5.583-3.889.878-7.277c0,0,.753-3.011,2.321-3.011" transform="translate(-43.981 -34.065)"/>
      <path id="패스_2234" data-name="패스 2234" class="cls-10" d="M111.789,151.5a2.342,2.342,0,0,0,1.694,2.635,4.934,4.934,0,0,0,1.443-1.945Z" transform="translate(-41.659 -56.465)"/>
      <path id="패스_2235" data-name="패스 2235" class="cls-10" d="M89.5,150a2.613,2.613,0,0,0,2.321,2.7,5.359,5.359,0,0,0,1.38-2.384Z" transform="translate(-33.358 -55.906)"/>
      <path id="패스_2236" data-name="패스 2236" class="cls-6" d="M111.487,151.5s-2.446,2.635,3.2,7.778l5.144-.815-5.144-6.273c-.063,0-1.819,2.76-3.2-.69" transform="translate(-41.357 -56.465)"/>
      <path id="패스_2237" data-name="패스 2237" class="cls-6" d="M85.7,150l-6.4,5.332,4.893,1.129s4.893-2.258,5.144-6.085c0-.063-4.015,2.572-3.638-.376" transform="translate(-29.557 -55.906)"/>
    </g>
  </g>
</svg>
