<?xml version="1.0" encoding="utf-8"?>
<!-- Generator: Adobe Illustrator 28.2.0, SVG Export Plug-In . SVG Version: 6.00 Build 0)  -->
<svg version="1.1" id="레이어_1" xmlns="http://www.w3.org/2000/svg" xmlns:xlink="http://www.w3.org/1999/xlink" x="0px"
	 y="0px" viewBox="0 0 129 150" style="enable-background:new 0 0 129 150;" xml:space="preserve">
<style type="text/css">
	.st0{fill:#FFFFFF;stroke:#000000;stroke-width:0.25;stroke-linecap:round;stroke-linejoin:round;stroke-miterlimit:10;}
	.st1{fill:#FFFFFF;}
	.st2{fill:none;stroke:#000000;stroke-width:0.2584;}
	.st3{fill:#727171;}
	.st4{fill:#BCE2E3;}
	.st5{fill:#74C6BE;}
	.st6{fill:#E0F1F2;}
	.st7{fill:#E4665C;}
	.st8{fill:#949394;}
	.st9{fill:#7A7A7A;}
	.st10{fill:#6BC2B1;}
	.st11{fill:#E65553;}
	.st12{fill:#AEAEAE;}
	.st13{fill:none;stroke:#000000;stroke-width:0.1127;}
	.st14{fill:none;stroke:#000000;stroke-width:0.3185;}
	.st15{fill:#00ADE6;}
	.st16{fill:none;stroke:#FFFFFF;stroke-width:0.1062;stroke-miterlimit:10;}
</style>
<g>
	<g>
		<path class="st0" d="M21.2,92.5"/>
		<path class="st0" d="M21.2,92.5"/>
		<path class="st0" d="M21.2,94.5"/>
		<path class="st0" d="M21.2,94.5"/>
		<g>
			<path class="st0" d="M34.3,107.1h-0.5l-2.1-8c-0.3-1-1.2-1.8-2.2-1.8H12.9c-1,0-1.9,0.8-2.2,1.8l-2.1,8H8.2c-1,0-1.8,0.8-1.8,1.8
				v6c0,1,0.8,1.8,1.8,1.8h26.1c1,0,1.8-0.8,1.8-1.8v-6C36,107.9,35.2,107.1,34.3,107.1z"/>
			<g>
				<path class="st1" d="M12.6,111.9c0,0.9-0.7,1.6-1.6,1.6c-0.9,0-1.6-0.7-1.6-1.6c0-0.9,0.7-1.6,1.6-1.6
					C11.9,110.3,12.6,111,12.6,111.9z"/>
				<path class="st1" d="M33.1,111.9c0,0.9-0.7,1.6-1.6,1.6c-0.9,0-1.6-0.7-1.6-1.6c0-0.9,0.7-1.6,1.6-1.6
					C32.4,110.3,33.1,111,33.1,111.9z"/>
			</g>
			<polygon class="st0" points="28.2,101.1 14.3,101.1 12.8,107.2 29.7,107.2 			"/>
			<g>
				<path class="st0" d="M12.7,116.7v3.2c0,1-0.8,1.8-1.8,1.8l0,0c-1,0-1.8-0.8-1.8-1.8v-3.2"/>
				<path class="st0" d="M33.4,116.7v3.2c0,1-0.8,1.8-1.8,1.8l0,0c-1,0-1.8-0.8-1.8-1.8v-3.2"/>
			</g>
		</g>
	</g>
	<g>
		<g>
			<g>
				<g>
					<g>
						<path class="st2" d="M53.3,62.8l2.9,1.4l-0.9,4.7l-3.7-3c0,0,0.5-2.1,1.6-3.1L53.3,62.8z"/>
						<path class="st2" d="M56.2,64.2c0,0,8.6,3.9,11.8-4.3l3.9,7.2c0,0-5.7,9.4-16.6,1.8L56.2,64.2z"/>
						<path class="st2" d="M61.1,71.6c-1.7-0.4-3.7-1.2-5.8-2.7l0.9-4.7c0,0,2.3,1.1,5,0.9c0,0-1.5,1.6-0.1,3.3c0,0,0.8,1.4,0.4,2.3
							L61.1,71.6z"/>
					</g>
					<path class="st2" d="M88.6,31.5c0,0,7,1.2,6.3,25.6c0,0-0.3,3.1,2.5,3.1c0.9,0,1.6,0.8,1.6,1.7c0.1,1.9-2.2,1.9-3.5,1.7
						c-0.4-0.1-0.8-0.1-1.2-0.3c-4.1-1.5-3.6-6-3.8-9.6c-0.2-4.3,0.2-8.5-1.1-12.6c-0.8-2.5-2.5-4.3-4-6.5L88.6,31.5z"/>
					<path class="st2" d="M51.5,46.8c4.3-4.5,7.2-7.5,13-11c0.2-0.1,6.4-3.8,6.5-3.6C67.7,26.1,70.5,21,70.5,21c5.6,3.3,6,8.4,6,8.4
						l1.4,0.2c4.3,0.9,4.9,0.8,4.9,0.8c2.6-6.1,8-7.9,8-7.9C94.4,31,86.9,36,86.9,36c5,3.1,3.9,25.6,3.9,25.6l-1.4,27.9l-0.1,5.3
						c0,0,0.6,16.9-21.3,12.7c-1.4-0.3-2.7-1.1-3.8-1.9c-2.6-1.9-4.7-4.5-5.3-7.6c-0.2-1.2-0.3-2.5-0.2-3.7c0.1-1.4,0-2.9,0.4-4.3
						c0.1-0.2,0.6-2.2,0.7-2.5L64,71.9c1.1-3.7,2.2-7.5,3.3-11.2c0.9-2.6,0.7-2.6,0.9-2.7c-3.4,1-7.5,0.7-11,0.2
						c-1.9-0.3-3.4-1.4-4.6-2.9c-0.9-1.1-2.3-3.2-2.4-4.6C50.1,48.9,50.6,47.8,51.5,46.8"/>
					<path class="st2" d="M70.8,22.6c0,0-1.5,4.9,0.7,8C73.7,33.7,73.7,25.5,70.8,22.6"/>
					<path class="st2" d="M90.4,24.5c0,0,1.1,5.2-2.6,8.8C84.6,36.5,86.4,27.3,90.4,24.5"/>
					<path class="st2" d="M61.7,44.4L61.7,44.4C61.6,44.5,61.6,44.5,61.7,44.4C61.6,44.5,61.7,44.5,61.7,44.4"/>
					<path class="st2" d="M74.8,37c-0.5-0.1-0.8-0.5-0.7-1l0.1-0.5l0,0c0.4-1.8,1.2-3,3.6-2.6l2.4,0.4c0.5,0.1,0.8,0.5,0.7,1
						c-0.1,0.5-0.5,0.8-1,0.7l-2.4-0.4c-1.1-0.2-1.4-0.1-1.7,1.3l-0.1,0.4C75.7,36.8,75.3,37.1,74.8,37"/>
					<path class="st2" d="M72.7,35.8c-0.5-0.1-0.8-0.5-0.7-1l0.1-0.5l0-0.1c0.6-2.7,2.6-4.1,5.3-3.7l4.4,0.7c0.5,0.1,0.8,0.5,0.7,1
						c-0.1,0.5-0.5,0.8-1,0.7l-4.3-0.7c-2.3-0.3-3.1,1.1-3.4,2.4l-0.1,0.4C73.6,35.5,73.2,35.8,72.7,35.8"/>
					<path class="st2" d="M70.7,34.5c-0.5-0.1-0.8-0.5-0.7-1l0-0.2c0.6-3.3,3.7-5.6,7-5l6.5,1.1c0.5,0.1,0.8,0.5,0.7,1
						c-0.1,0.5-0.5,0.8-1,0.7l-6.5-1.1c-2.4-0.4-4.7,1.2-5.1,3.6l0,0.2C71.6,34.3,71.2,34.6,70.7,34.5"/>
					<path class="st2" d="M60.9,45.6c0,0,0.1,0,0.2-0.1c0.7-0.5,3.2-2.2,3-4.3c0,0,2.5,0,6.7-2.5c0,0-3.9,2.5-2.9,4.7
						C68,43.4,65.2,43.1,60.9,45.6"/>
					<path class="st2" d="M98.2,55l-1,3.1l4.1,2.5l0.3-4.8c0,0-1.9-1.1-3.4-1L98.2,55z"/>
					<path class="st2" d="M97.2,58.1c0,0-3.1,9-11.2,5.7l2.6,7.7c0,0,10.8,2.3,12.7-10.9L97.2,58.1z"/>
					<path class="st2" d="M99.2,66.7c0.9-1.5,1.6-3.5,2-6.1l-4.1-2.5c0,0-0.8,2.4-2.8,4.3c0,0,2.2,0,2.5,2.1c0,0,0.5,1.5,1.4,1.9
						L99.2,66.7z"/>
					<path class="st2" d="M87.9,67.8L87.9,67.8c-0.2,0-0.2-0.2-0.2-0.3c0-0.1,0-0.3,0-0.3c0-0.1,0-0.3,0.2-0.3c0.1,0,0.3,0,0.3,0.2
						c0,0.2,0.1,0.4,0,0.6C88.1,67.7,88,67.8,87.9,67.8"/>
					<path class="st2" d="M86.1,61.7L86.1,61.7c-0.2-0.1-0.2-0.2-0.2-0.3c0-0.1,0-0.3,0-0.3c0-0.1,0-0.3,0.2-0.3
						c0.1,0,0.3,0,0.3,0.2c0,0.2,0.1,0.4,0,0.6C86.3,61.6,86.2,61.7,86.1,61.7"/>
					<path class="st2" d="M88.7,62.1L88.7,62.1c-0.2,0-0.2-0.2-0.2-0.3c0-0.1,0-0.3,0-0.3c0-0.1,0.1-0.3,0.2-0.3
						c0.1,0,0.3,0,0.3,0.2c0,0.2,0.1,0.4,0,0.6C89,62.1,88.8,62.2,88.7,62.1"/>
					<path class="st2" d="M85.8,59.1L85.8,59.1c-0.2-0.1-0.2-0.2-0.2-0.3c0-0.1,0-0.3,0-0.3c0-0.1,0-0.3,0.2-0.3
						c0.1,0,0.3,0,0.3,0.2c0,0.2,0.1,0.4,0,0.6C86.1,59,86,59.1,85.8,59.1"/>
					<path class="st2" d="M88.8,56.4L88.8,56.4c-0.2,0-0.2-0.2-0.2-0.3c0-0.1,0-0.2,0-0.3c0-0.1,0-0.3,0.2-0.3
						c0.1,0,0.3,0.1,0.3,0.2c0,0.2,0,0.4,0,0.6C89.1,56.3,88.9,56.4,88.8,56.4"/>
					<path class="st2" d="M87.7,60.4L87.7,60.4c-0.2,0-0.2-0.2-0.2-0.3c0-0.1,0-0.3,0-0.3c0-0.1,0.1-0.3,0.2-0.3
						c0.1,0,0.3,0.1,0.3,0.2c0,0.2,0,0.4,0,0.6C87.9,60.3,87.8,60.4,87.7,60.4"/>
					<path class="st2" d="M87.9,54.2L87.9,54.2c-0.2-0.1-0.2-0.2-0.2-0.3c0-0.1,0-0.2,0-0.3c0-0.1,0-0.3,0.2-0.3
						c0.1,0,0.3,0,0.3,0.2c0,0.2,0.1,0.4,0,0.6C88.1,54.2,88,54.3,87.9,54.2"/>
					<path class="st2" d="M86.8,56.5L86.8,56.5c-0.2-0.1-0.2-0.2-0.2-0.3c0-0.1,0-0.2,0-0.3c0-0.1,0-0.3,0.2-0.3
						c0.1,0,0.3,0,0.3,0.2c0,0.2,0.1,0.4,0,0.6C87.1,56.5,86.9,56.5,86.8,56.5"/>
					<path class="st2" d="M87.8,58.1L87.8,58.1c-0.2-0.1-0.2-0.2-0.2-0.3c0-0.1,0-0.2,0-0.3c0-0.1,0-0.3,0.2-0.3
						c0.1,0,0.3,0,0.3,0.2c0,0.2,0.1,0.4,0,0.6C88.1,58,88,58.1,87.8,58.1"/>
					<path class="st2" d="M87.7,63.9L87.7,63.9c-0.2,0-0.2-0.2-0.2-0.3c0-0.1,0-0.3,0-0.3c0-0.1,0-0.3,0.2-0.3c0.1,0,0.3,0,0.3,0.2
						c0,0.2,0,0.4,0,0.6C88,63.8,87.8,63.9,87.7,63.9"/>
					<path class="st2" d="M86.6,66.3L86.6,66.3c-0.2-0.1-0.2-0.2-0.2-0.3c0-0.1,0-0.2,0-0.3c0-0.1,0-0.3,0.2-0.3
						c0.1,0,0.3,0,0.3,0.2c0,0.2,0,0.4,0,0.6C86.8,66.2,86.7,66.3,86.6,66.3"/>
					<path class="st2" d="M88.4,65.7L88.4,65.7c-0.2-0.1-0.2-0.2-0.2-0.3c0-0.1,0-0.2,0-0.3c0-0.1,0.1-0.3,0.2-0.3
						c0.1,0,0.3,0,0.3,0.2c0,0.2,0,0.4,0,0.6C88.7,65.7,88.5,65.7,88.4,65.7"/>
					<path class="st2" d="M85.6,64.3L85.6,64.3c-0.2-0.1-0.2-0.2-0.2-0.3c0-0.1,0-0.3,0-0.3c0-0.1,0-0.3,0.2-0.3
						c0.1,0,0.3,0,0.3,0.2c0,0.2,0.1,0.4,0,0.6C85.8,64.2,85.7,64.3,85.6,64.3"/>
					<path class="st2" d="M69.1,83.2c-0.1,0-0.2-0.1-0.2-0.2c0-0.1-0.1-0.2-0.2-0.3c-0.1-0.1-0.1-0.3,0-0.4c0.1-0.1,0.3-0.1,0.4,0
						c0.2,0.1,0.3,0.4,0.3,0.5c0,0.1,0,0.3-0.2,0.3C69.2,83.2,69.2,83.2,69.1,83.2"/>
					<path class="st2" d="M67,82.7c-0.1,0-0.2-0.1-0.2-0.2c0-0.1-0.1-0.2-0.2-0.3c-0.1-0.1-0.1-0.3,0-0.4c0.1-0.1,0.3-0.1,0.4,0
						c0.2,0.1,0.3,0.4,0.3,0.5c0,0.1,0,0.3-0.2,0.3C67.1,82.7,67,82.7,67,82.7"/>
					<path class="st2" d="M67.6,78.1c-0.1,0-0.2-0.1-0.2-0.2c0-0.1-0.1-0.2-0.2-0.3c-0.1-0.1-0.1-0.3,0-0.4c0.1-0.1,0.2-0.1,0.4,0
						c0.2,0.1,0.3,0.4,0.3,0.5c0,0.1,0,0.3-0.2,0.3C67.7,78.1,67.6,78.1,67.6,78.1"/>
					<path class="st2" d="M69,80.8c-0.1,0-0.2-0.1-0.2-0.2c0-0.1-0.1-0.2-0.2-0.3c-0.1-0.1-0.1-0.3,0-0.4c0.1-0.1,0.3-0.1,0.4,0
						c0.2,0.1,0.3,0.4,0.3,0.5c0,0.1,0,0.3-0.2,0.3C69.1,80.8,69.1,80.8,69,80.8"/>
					<path class="st2" d="M67.4,80.3c-0.1,0-0.2-0.1-0.2-0.2c0-0.1-0.1-0.2-0.2-0.3c-0.1-0.1-0.1-0.3,0-0.4c0.1-0.1,0.3-0.1,0.4,0
						c0.2,0.1,0.3,0.4,0.3,0.5c0,0.1,0,0.3-0.2,0.3C67.4,80.3,67.4,80.3,67.4,80.3"/>
					<path class="st2" d="M69.5,78.9c-0.1,0-0.2-0.1-0.2-0.2c0-0.1-0.1-0.2-0.2-0.3c-0.1-0.1-0.1-0.3,0-0.4c0.1-0.1,0.3-0.1,0.4,0
						c0.2,0.1,0.3,0.4,0.3,0.5c0,0.1,0,0.3-0.2,0.3C69.6,78.9,69.5,78.9,69.5,78.9"/>
					<path class="st2" d="M70.7,82.7c-0.1,0-0.2-0.1-0.2-0.2c0-0.1-0.1-0.2-0.2-0.3c-0.1-0.1-0.1-0.3,0-0.4c0.1-0.1,0.3-0.1,0.4,0
						c0.2,0.1,0.3,0.4,0.3,0.5c0,0.1,0,0.3-0.2,0.3C70.8,82.7,70.8,82.7,70.7,82.7"/>
					<polygon class="st2" points="77.1,105.3 89.6,115.1 91.9,112.6 83.8,99.3 					"/>
					<path class="st2" d="M88.9,107.7c0,0,0,2.3-2.3,2.4c0,0-1.8,0.1-1.3,1.6l4.3,3.4l2.3-2.5L88.9,107.7z"/>
					<polygon class="st2" points="91.9,112.6 97.9,114.6 92.3,119.3 89.6,115.1 					"/>
					<polygon class="st2" points="64.7,102.3 48.9,104.1 48.2,100.8 62.1,93.6 					"/>
					<path class="st2" d="M53.4,98.2c0,0-1.2,2,0.7,3.3c0,0,1.5,1,0.2,2.1l-5.4,0.6l-0.6-3.3L53.4,98.2z"/>
					<polygon class="st2" points="48.2,100.8 42.1,99.3 44.4,106.2 48.9,104.1 					"/>
					<path class="st2" d="M55.9,52.5l0.2-0.1c0.2-0.1,0.3-0.2,0.3-0.4c0.1-0.2,0-0.3,0-0.5l0,0c-0.2-0.3-0.5-0.4-0.9-0.3l0,0
						l-0.2,0.1c-0.2,0.1-0.4,0-0.4-0.1c-0.1-0.2,0-0.4,0.1-0.4l0.2-0.1l0,0l0.1,0c0.6-0.3,1.4,0,1.7,0.6c0,0,0,0,0,0.1
						c0.1,0.3,0.2,0.7,0,1c-0.1,0.3-0.3,0.6-0.6,0.7L56.2,53c-0.2,0.1-0.4,0-0.4-0.1C55.7,52.7,55.7,52.5,55.9,52.5"/>
					<path class="st2" d="M53.3,49.6l0.1-0.2c0.1-0.1,0.1-0.3,0.1-0.5c0-0.2-0.1-0.3-0.2-0.4l0,0c-0.3-0.2-0.7-0.2-0.9,0.1l0,0
						l-0.1,0.2c-0.1,0.1-0.3,0.2-0.5,0.1c-0.1-0.1-0.2-0.3-0.1-0.5l0.1-0.2l0,0l0-0.1c0.4-0.5,1.2-0.6,1.8-0.2c0,0,0,0,0.1,0
						c0.3,0.2,0.4,0.5,0.5,0.9c0,0.3,0,0.7-0.2,0.9L53.9,50c-0.1,0.1-0.3,0.2-0.5,0.1C53.3,49.9,53.2,49.7,53.3,49.6"/>
					<path class="st2" d="M66,38.6l0.2-0.2c0.1-0.2,0.1-0.3,0.1-0.5c0-0.2-0.1-0.3-0.3-0.5l0,0c-0.3-0.2-0.7-0.1-1,0.1l0,0l0,0
						l-0.1,0.2c-0.1,0.2-0.3,0.2-0.5,0.1c-0.2-0.1-0.2-0.3-0.1-0.5l0.1-0.2c0,0,0,0,0.1-0.1c0.5-0.6,1.3-0.7,1.9-0.3
						c0,0,0,0,0.1,0.1c0.3,0.2,0.5,0.6,0.5,0.9c0.1,0.3,0,0.7-0.2,1L66.6,39c-0.1,0.2-0.3,0.2-0.5,0.1C65.9,39,65.9,38.7,66,38.6"/>
					<path class="st2" d="M73.6,43.3l0.2-0.2c0.1-0.2,0.2-0.4,0.1-0.6c0-0.2-0.1-0.4-0.3-0.5l0,0c-0.3-0.2-0.8-0.2-1.1,0.2l0,0
						l-0.2,0.2c-0.1,0.2-0.4,0.2-0.5,0.1c-0.2-0.1-0.2-0.4-0.1-0.5l0.2-0.2c0,0,0-0.1,0.1-0.1c0.5-0.6,1.4-0.8,2.1-0.3
						c0,0,0.1,0,0.1,0.1c0.3,0.3,0.5,0.6,0.6,1c0.1,0.4,0,0.8-0.3,1.1l-0.2,0.2c-0.1,0.2-0.4,0.2-0.5,0.1
						C73.5,43.7,73.5,43.5,73.6,43.3"/>
				</g>
				<g>
					<g>
						<path class="st3" d="M53.3,62.8l2.9,1.4l-0.9,4.7l-3.7-3c0,0,0.5-2.1,1.6-3.1L53.3,62.8z"/>
						<path class="st4" d="M56.2,64.2c0,0,8.6,3.9,11.8-4.3l3.9,7.2c0,0-5.7,9.4-16.6,1.8L56.2,64.2z"/>
						<path class="st1" d="M61.1,71.6c-1.7-0.4-3.7-1.2-5.8-2.7l0.9-4.7c0,0,2.3,1.1,5,0.9c0,0-1.5,1.6-0.1,3.3c0,0,0.8,1.4,0.4,2.3
							L61.1,71.6z"/>
					</g>
					<path class="st5" d="M88.6,31.5c0,0,7,1.2,6.3,25.6c0,0-0.3,3.1,2.5,3.1c0.9,0,1.6,0.8,1.6,1.7c0.1,1.9-2.2,1.9-3.5,1.7
						c-0.4-0.1-0.8-0.1-1.2-0.3c-4.1-1.5-3.6-6-3.8-9.6c-0.2-4.3,0.2-8.5-1.1-12.6c-0.8-2.5-2.5-4.3-4-6.5L88.6,31.5z"/>
					<path class="st4" d="M51.5,46.8c4.3-4.5,7.2-7.5,13-11c0.2-0.1,6.4-3.8,6.5-3.6C67.7,26.1,70.5,21,70.5,21c5.6,3.3,6,8.4,6,8.4
						l1.4,0.2c4.3,0.9,4.9,0.8,4.9,0.8c2.6-6.1,8-7.9,8-7.9C94.4,31,86.9,36,86.9,36c5,3.1,3.9,25.6,3.9,25.6l-1.4,27.9l-0.1,5.3
						c0,0,0.6,16.9-21.3,12.7c-1.4-0.3-2.7-1.1-3.8-1.9c-2.6-1.9-4.7-4.5-5.3-7.6c-0.2-1.2-0.3-2.5-0.2-3.7c0.1-1.4,0-2.9,0.4-4.3
						c0.1-0.2,0.6-2.2,0.7-2.5L64,71.9c1.1-3.7,2.2-7.5,3.3-11.2c0.9-2.6,0.7-2.6,0.9-2.7c-3.4,1-7.5,0.7-11,0.2
						c-1.9-0.3-3.4-1.4-4.6-2.9c-0.9-1.1-2.3-3.2-2.4-4.6C50.1,48.9,50.6,47.8,51.5,46.8"/>
					<path class="st1" d="M70.8,22.6c0,0-1.5,4.9,0.7,8C73.7,33.7,73.7,25.5,70.8,22.6"/>
					<path class="st1" d="M90.4,24.5c0,0,1.1,5.2-2.6,8.8C84.6,36.5,86.4,27.3,90.4,24.5"/>
					<path class="st6" d="M61.7,44.4L61.7,44.4C61.6,44.5,61.6,44.5,61.7,44.4C61.6,44.5,61.7,44.5,61.7,44.4"/>
					<path class="st5" d="M74.8,37c-0.5-0.1-0.8-0.5-0.7-1l0.1-0.5l0,0c0.4-1.8,1.2-3,3.6-2.6l2.4,0.4c0.5,0.1,0.8,0.5,0.7,1
						c-0.1,0.5-0.5,0.8-1,0.7l-2.4-0.4c-1.1-0.2-1.4-0.1-1.7,1.3l-0.1,0.4C75.7,36.8,75.3,37.1,74.8,37"/>
					<path class="st5" d="M72.7,35.8c-0.5-0.1-0.8-0.5-0.7-1l0.1-0.5l0-0.1c0.6-2.7,2.6-4.1,5.3-3.7l4.4,0.7c0.5,0.1,0.8,0.5,0.7,1
						c-0.1,0.5-0.5,0.8-1,0.7l-4.3-0.7c-2.3-0.3-3.1,1.1-3.4,2.4l-0.1,0.4C73.6,35.5,73.2,35.8,72.7,35.8"/>
					<path class="st5" d="M70.7,34.5c-0.5-0.1-0.8-0.5-0.7-1l0-0.2c0.6-3.3,3.7-5.6,7-5l6.5,1.1c0.5,0.1,0.8,0.5,0.7,1
						c-0.1,0.5-0.5,0.8-1,0.7l-6.5-1.1c-2.4-0.4-4.7,1.2-5.1,3.6l0,0.2C71.6,34.3,71.2,34.6,70.7,34.5"/>
					<path class="st1" d="M60.9,45.6c0,0,0.1,0,0.2-0.1c0.7-0.5,3.2-2.2,3-4.3c0,0,2.5,0,6.7-2.5c0,0-3.9,2.5-2.9,4.7
						C68,43.4,65.2,43.1,60.9,45.6"/>
					<path class="st3" d="M98.2,55l-1,3.1l4.1,2.5l0.3-4.8c0,0-1.9-1.1-3.4-1L98.2,55z"/>
					<path class="st4" d="M97.2,58.1c0,0-3.1,9-11.2,5.7l2.6,7.7c0,0,10.8,2.3,12.7-10.9L97.2,58.1z"/>
					<path class="st1" d="M99.2,66.7c0.9-1.5,1.6-3.5,2-6.1l-4.1-2.5c0,0-0.8,2.4-2.8,4.3c0,0,2.2,0,2.5,2.1c0,0,0.5,1.5,1.4,1.9
						L99.2,66.7z"/>
					<path class="st1" d="M87.9,67.8L87.9,67.8c-0.2,0-0.2-0.2-0.2-0.3c0-0.1,0-0.3,0-0.3c0-0.1,0-0.3,0.2-0.3c0.1,0,0.3,0,0.3,0.2
						c0,0.2,0.1,0.4,0,0.6C88.1,67.7,88,67.8,87.9,67.8"/>
					<path class="st1" d="M86.1,61.7L86.1,61.7c-0.2-0.1-0.2-0.2-0.2-0.3c0-0.1,0-0.3,0-0.3c0-0.1,0-0.3,0.2-0.3
						c0.1,0,0.3,0,0.3,0.2c0,0.2,0.1,0.4,0,0.6C86.3,61.6,86.2,61.7,86.1,61.7"/>
					<path class="st1" d="M88.7,62.1L88.7,62.1c-0.2,0-0.2-0.2-0.2-0.3c0-0.1,0-0.3,0-0.3c0-0.1,0.1-0.3,0.2-0.3
						c0.1,0,0.3,0,0.3,0.2c0,0.2,0.1,0.4,0,0.6C89,62.1,88.8,62.2,88.7,62.1"/>
					<path class="st1" d="M85.8,59.1L85.8,59.1c-0.2-0.1-0.2-0.2-0.2-0.3c0-0.1,0-0.3,0-0.3c0-0.1,0-0.3,0.2-0.3
						c0.1,0,0.3,0,0.3,0.2c0,0.2,0.1,0.4,0,0.6C86.1,59,86,59.1,85.8,59.1"/>
					<path class="st1" d="M88.8,56.4L88.8,56.4c-0.2,0-0.2-0.2-0.2-0.3c0-0.1,0-0.2,0-0.3c0-0.1,0-0.3,0.2-0.3
						c0.1,0,0.3,0.1,0.3,0.2c0,0.2,0,0.4,0,0.6C89.1,56.3,88.9,56.4,88.8,56.4"/>
					<path class="st1" d="M87.7,60.4L87.7,60.4c-0.2,0-0.2-0.2-0.2-0.3c0-0.1,0-0.3,0-0.3c0-0.1,0.1-0.3,0.2-0.3
						c0.1,0,0.3,0.1,0.3,0.2c0,0.2,0,0.4,0,0.6C87.9,60.3,87.8,60.4,87.7,60.4"/>
					<path class="st1" d="M87.9,54.2L87.9,54.2c-0.2-0.1-0.2-0.2-0.2-0.3c0-0.1,0-0.2,0-0.3c0-0.1,0-0.3,0.2-0.3
						c0.1,0,0.3,0,0.3,0.2c0,0.2,0.1,0.4,0,0.6C88.1,54.2,88,54.3,87.9,54.2"/>
					<path class="st1" d="M86.8,56.5L86.8,56.5c-0.2-0.1-0.2-0.2-0.2-0.3c0-0.1,0-0.2,0-0.3c0-0.1,0-0.3,0.2-0.3
						c0.1,0,0.3,0,0.3,0.2c0,0.2,0.1,0.4,0,0.6C87.1,56.5,86.9,56.5,86.8,56.5"/>
					<path class="st1" d="M87.8,58.1L87.8,58.1c-0.2-0.1-0.2-0.2-0.2-0.3c0-0.1,0-0.2,0-0.3c0-0.1,0-0.3,0.2-0.3
						c0.1,0,0.3,0,0.3,0.2c0,0.2,0.1,0.4,0,0.6C88.1,58,88,58.1,87.8,58.1"/>
					<path class="st1" d="M87.7,63.9L87.7,63.9c-0.2,0-0.2-0.2-0.2-0.3c0-0.1,0-0.3,0-0.3c0-0.1,0-0.3,0.2-0.3c0.1,0,0.3,0,0.3,0.2
						c0,0.2,0,0.4,0,0.6C88,63.8,87.8,63.9,87.7,63.9"/>
					<path class="st1" d="M86.6,66.3L86.6,66.3c-0.2-0.1-0.2-0.2-0.2-0.3c0-0.1,0-0.2,0-0.3c0-0.1,0-0.3,0.2-0.3
						c0.1,0,0.3,0,0.3,0.2c0,0.2,0,0.4,0,0.6C86.8,66.2,86.7,66.3,86.6,66.3"/>
					<path class="st1" d="M88.4,65.7L88.4,65.7c-0.2-0.1-0.2-0.2-0.2-0.3c0-0.1,0-0.2,0-0.3c0-0.1,0.1-0.3,0.2-0.3
						c0.1,0,0.3,0,0.3,0.2c0,0.2,0,0.4,0,0.6C88.7,65.7,88.5,65.7,88.4,65.7"/>
					<path class="st1" d="M85.6,64.3L85.6,64.3c-0.2-0.1-0.2-0.2-0.2-0.3c0-0.1,0-0.3,0-0.3c0-0.1,0-0.3,0.2-0.3
						c0.1,0,0.3,0,0.3,0.2c0,0.2,0.1,0.4,0,0.6C85.8,64.2,85.7,64.3,85.6,64.3"/>
					<path class="st1" d="M69.1,83.2c-0.1,0-0.2-0.1-0.2-0.2c0-0.1-0.1-0.2-0.2-0.3c-0.1-0.1-0.1-0.3,0-0.4c0.1-0.1,0.3-0.1,0.4,0
						c0.2,0.1,0.3,0.4,0.3,0.5c0,0.1,0,0.3-0.2,0.3C69.2,83.2,69.2,83.2,69.1,83.2"/>
					<path class="st1" d="M67,82.7c-0.1,0-0.2-0.1-0.2-0.2c0-0.1-0.1-0.2-0.2-0.3c-0.1-0.1-0.1-0.3,0-0.4c0.1-0.1,0.3-0.1,0.4,0
						c0.2,0.1,0.3,0.4,0.3,0.5c0,0.1,0,0.3-0.2,0.3C67.1,82.7,67,82.7,67,82.7"/>
					<path class="st1" d="M67.6,78.1c-0.1,0-0.2-0.1-0.2-0.2c0-0.1-0.1-0.2-0.2-0.3c-0.1-0.1-0.1-0.3,0-0.4c0.1-0.1,0.2-0.1,0.4,0
						c0.2,0.1,0.3,0.4,0.3,0.5c0,0.1,0,0.3-0.2,0.3C67.7,78.1,67.6,78.1,67.6,78.1"/>
					<path class="st1" d="M69,80.8c-0.1,0-0.2-0.1-0.2-0.2c0-0.1-0.1-0.2-0.2-0.3c-0.1-0.1-0.1-0.3,0-0.4c0.1-0.1,0.3-0.1,0.4,0
						c0.2,0.1,0.3,0.4,0.3,0.5c0,0.1,0,0.3-0.2,0.3C69.1,80.8,69.1,80.8,69,80.8"/>
					<path class="st1" d="M67.4,80.3c-0.1,0-0.2-0.1-0.2-0.2c0-0.1-0.1-0.2-0.2-0.3c-0.1-0.1-0.1-0.3,0-0.4c0.1-0.1,0.3-0.1,0.4,0
						c0.2,0.1,0.3,0.4,0.3,0.5c0,0.1,0,0.3-0.2,0.3C67.4,80.3,67.4,80.3,67.4,80.3"/>
					<path class="st1" d="M69.5,78.9c-0.1,0-0.2-0.1-0.2-0.2c0-0.1-0.1-0.2-0.2-0.3c-0.1-0.1-0.1-0.3,0-0.4c0.1-0.1,0.3-0.1,0.4,0
						c0.2,0.1,0.3,0.4,0.3,0.5c0,0.1,0,0.3-0.2,0.3C69.6,78.9,69.5,78.9,69.5,78.9"/>
					<path class="st1" d="M70.7,82.7c-0.1,0-0.2-0.1-0.2-0.2c0-0.1-0.1-0.2-0.2-0.3c-0.1-0.1-0.1-0.3,0-0.4c0.1-0.1,0.3-0.1,0.4,0
						c0.2,0.1,0.3,0.4,0.3,0.5c0,0.1,0,0.3-0.2,0.3C70.8,82.7,70.8,82.7,70.7,82.7"/>
					<polygon class="st4" points="77.1,105.3 89.6,115.1 91.9,112.6 83.8,99.3 					"/>
					<path class="st1" d="M88.9,107.7c0,0,0,2.3-2.3,2.4c0,0-1.8,0.1-1.3,1.6l4.3,3.4l2.3-2.5L88.9,107.7z"/>
					<polygon class="st3" points="91.9,112.6 97.9,114.6 92.3,119.3 89.6,115.1 					"/>
					<polygon class="st4" points="64.7,102.3 48.9,104.1 48.2,100.8 62.1,93.6 					"/>
					<path class="st1" d="M53.4,98.2c0,0-1.2,2,0.7,3.3c0,0,1.5,1,0.2,2.1l-5.4,0.6l-0.6-3.3L53.4,98.2z"/>
					<polygon class="st3" points="48.2,100.8 42.1,99.3 44.4,106.2 48.9,104.1 					"/>
					<path class="st5" d="M55.9,52.5l0.2-0.1c0.2-0.1,0.3-0.2,0.3-0.4c0.1-0.2,0-0.3,0-0.5l0,0c-0.2-0.3-0.5-0.4-0.9-0.3l0,0
						l-0.2,0.1c-0.2,0.1-0.4,0-0.4-0.1c-0.1-0.2,0-0.4,0.1-0.4l0.2-0.1l0,0l0.1,0c0.6-0.3,1.4,0,1.7,0.6c0,0,0,0,0,0.1
						c0.1,0.3,0.2,0.7,0,1c-0.1,0.3-0.3,0.6-0.6,0.7L56.2,53c-0.2,0.1-0.4,0-0.4-0.1C55.7,52.7,55.7,52.5,55.9,52.5"/>
					<path class="st5" d="M53.3,49.6l0.1-0.2c0.1-0.1,0.1-0.3,0.1-0.5c0-0.2-0.1-0.3-0.2-0.4l0,0c-0.3-0.2-0.7-0.2-0.9,0.1l0,0
						l-0.1,0.2c-0.1,0.1-0.3,0.2-0.5,0.1c-0.1-0.1-0.2-0.3-0.1-0.5l0.1-0.2l0,0l0-0.1c0.4-0.5,1.2-0.6,1.8-0.2c0,0,0,0,0.1,0
						c0.3,0.2,0.4,0.5,0.5,0.9c0,0.3,0,0.7-0.2,0.9L53.9,50c-0.1,0.1-0.3,0.2-0.5,0.1C53.3,49.9,53.2,49.7,53.3,49.6"/>
					<path class="st3" d="M66,38.6l0.2-0.2c0.1-0.2,0.1-0.3,0.1-0.5c0-0.2-0.1-0.3-0.3-0.5l0,0c-0.3-0.2-0.7-0.1-1,0.1l0,0l0,0
						l-0.1,0.2c-0.1,0.2-0.3,0.2-0.5,0.1c-0.2-0.1-0.2-0.3-0.1-0.5l0.1-0.2c0,0,0,0,0.1-0.1c0.5-0.6,1.3-0.7,1.9-0.3
						c0,0,0,0,0.1,0.1c0.3,0.2,0.5,0.6,0.5,0.9c0.1,0.3,0,0.7-0.2,1L66.6,39c-0.1,0.2-0.3,0.2-0.5,0.1C65.9,39,65.9,38.7,66,38.6"/>
					<path class="st3" d="M73.6,43.3l0.2-0.2c0.1-0.2,0.2-0.4,0.1-0.6c0-0.2-0.1-0.4-0.3-0.5l0,0c-0.3-0.2-0.8-0.2-1.1,0.2l0,0
						l-0.2,0.2c-0.1,0.2-0.4,0.2-0.5,0.1c-0.2-0.1-0.2-0.4-0.1-0.5l0.2-0.2c0,0,0-0.1,0.1-0.1c0.5-0.6,1.4-0.8,2.1-0.3
						c0,0,0.1,0,0.1,0.1c0.3,0.3,0.5,0.6,0.6,1c0.1,0.4,0,0.8-0.3,1.1l-0.2,0.2c-0.1,0.2-0.4,0.2-0.5,0.1
						C73.5,43.7,73.5,43.5,73.6,43.3"/>
				</g>
			</g>
			<g>
				<g>
					<path class="st7" d="M101.2,57.9c2.7-2,4.9-5,7.2-7.6c1.3-1.4,2.9-3.1,3.7-5c0.2-0.5,0.6-2.3-0.1-2.7c-0.6-0.4-1.8,0.5-2.3,1
						c-2.1,1.9-3.6,4.6-5.6,6.7c-1.3,1.5-2.7,3-4.2,4.3L101.2,57.9z"/>
					<g>
						<path d="M101.3,57.9c2.2-1.7,4-3.9,5.8-6c1.7-2,3.9-3.9,5-6.4c0.4-0.8,0.9-3.5-0.8-3c-0.8,0.2-1.4,0.9-2,1.4
							c-1.1,1-1.9,2.2-2.8,3.4c-2,2.6-4.2,5.2-6.7,7.3c0,0,0,0,0,0c0.4,1.1,0.9,2.2,1.3,3.3C101.1,57.9,101.3,57.9,101.3,57.9
							c-0.2-0.6-0.4-1.1-0.6-1.7c-0.1-0.4-0.3-0.7-0.4-1.1c-0.1-0.4-0.3-0.4,0-0.7c0.5-0.5,1.1-1,1.6-1.5c0.6-0.6,1.1-1.2,1.7-1.8
							c1-1.1,2-2.3,2.9-3.5c0.9-1.2,1.8-2.4,2.9-3.5c0.7-0.7,2.9-2.6,3-0.6c0.2,2.7-2.3,5-4,6.9c-2.4,2.6-4.4,5.4-7.2,7.6
							C101,57.9,101.2,57.9,101.3,57.9z"/>
					</g>
				</g>
				<g>
					<path class="st8" d="M106.2,53.1c-0.4,1.8,2.3,2.1,1.7,0.6c1.3,2.3,5.5,0.3,4.6-0.6c1,0.6,2.3-1.2,1.6-2c1.1,1,4.5-1.5,3.5-3.1
						c2-0.2,4-1.5,2.4-3.5c1.3-0.6,3.5-3.1,2.3-4.6c0.4-0.5,1.1-1.3,1.2-2c0.2-1-0.8-1.1-0.8-1.8c-0.1-1,1.8-3.5-0.3-4
						c-0.1,0-0.1,0,0,0.1c1.6-2.6-2-2.8-3.3-1.4c-0.6-0.7-3.6-1.9-3.2,0c-0.6-1.7-1.9,0.3-1.9,1.3c-1.7-1.1-3.1,0.2-3.3,1.9
						c-1.8-0.7-3,1.3-2.6,2.9c-1.3,0.1-2.2,1.3-1.8,2.5c-1.6-0.1-1.7,0.7-1.9,1.8c-0.1,0.6,0.3,0.4-0.1,1c-0.3,0.4-1.1,0.5-1.3,0.9
						c-0.6,0.9,0.1,1.6-0.3,2.4c-0.3,0.6-1,0.1-1.1,1c-0.1,0.5,0.5,1.1,0.7,1.4c-1.1,0.3-0.3,2.1,0.6,2.2c-0.7,0.8,0.5,1.9,1.4,1.8
						c-0.3-0.1-0.3,0-0.5-0.1c0.2,1.3,1.2,2,2.4,1.9"/>
					<g>
						<path d="M106.1,53.1c-0.1,0.8,0.8,2.1,1.7,1.5c0.2-0.1,0.5-0.7,0.2-0.6c0,0,0.7,0.6,0.9,0.7c0.3,0.1,0.6,0.2,0.9,0.2
							c0.9,0.1,2.5-0.2,2.9-1.1c0-0.1,0.1-0.4,0.1-0.4c0.2-0.2-0.5,0.2,0.2,0c0.5-0.1,0.8-0.2,1.2-0.7c0.1-0.2,0.5-1.7,0.1-1.4
							c0,0,0.5,0.1,0.5,0.1c0.3,0,0.6-0.1,0.8-0.1c1.2-0.4,2.3-1.4,2.4-2.7c0-0.5-0.1-0.4,0.3-0.6c0.4-0.2,0.8-0.2,1.2-0.4
							c0.6-0.3,1.2-0.8,1.2-1.6c0-0.5-0.3-0.7-0.4-1.1c-0.1-0.5,0.4-0.6,0.7-0.9c0.7-0.6,1.3-1.3,1.6-2.2c0.2-0.5,0.1-0.8,0-1.3
							c-0.1-0.7,0.1-0.7,0.5-1.3c0.3-0.4,0.6-0.9,0.5-1.4c-0.1-0.4-0.3-0.6-0.6-0.9c-0.9-1.4,1.7-3.8-0.6-4.6c0,0-0.1,0-0.1,0
							c0,0,0,0,0,0c0,0,0,0,0,0.1c0,0,0.1,0,0.1,0c0,0,0.1,0,0.2,0c0.8-1.4,0.1-2.4-1.5-2.3c-0.7,0.1-1.1,0.4-1.7,0.6
							c-0.4,0.1-0.4,0-0.7-0.2c-0.3-0.2-0.7-0.4-1.1-0.5c-0.4-0.1-1-0.3-1.4,0c-0.2,0.1-0.2,0.2-0.3,0.4c-0.2,0.4,0.3,0.1-0.2-0.2
							c-0.3-0.2-0.7,0-0.9,0.3c-0.2,0.2-0.4,0.5-0.5,0.8c0,0.1-0.2,0.6-0.2,0.7c-0.1,0.1-0.6-0.2-0.7-0.2c-0.6-0.1-1.2,0.1-1.7,0.5
							c-0.3,0.2-0.5,0.6-0.6,0.9c-0.1,0.2-0.1,0.6-0.3,0.8c-0.2,0.1-0.2,0-0.4,0c-0.7,0.1-1.2,0.2-1.7,0.8c-0.3,0.4-0.5,0.8-0.5,1.3
							c-0.1,0.5,0.1,0.9-0.3,1.2c-0.8,0.5-1.3,0.7-1.5,1.7c-0.1,0.5,0,0.5-0.5,0.7c-0.2,0.1-0.5,0.1-0.7,0.3c-0.7,0.5-0.4,1.3-0.6,2
							c-0.3,1.1-1.8,1.1-1.8,2.5c0,0.4,0.2,0.8,0.1,1.1c-0.1,0.4-0.5,0.4-0.8,0.6c-0.2,0.2-0.4,0.2-0.5,0.6c0,0.6,0.6,0.9,0.6,1.4
							c0,0.1-0.3,0.3-0.4,0.5c-0.1,0.4,0.1,0.8,0.3,1.1c0.3,0.4,0.6,0.5,0.6,1c0.1,0.9,0.6,1.5,1.6,1.5c0,0,0.2-0.1,0.1-0.1
							c-0.2-0.1-0.3-0.1-0.6-0.1c0,0-0.1,0-0.1,0.1c0.3,1.3,1.2,2,2.5,2c0.1,0,0.2-0.1,0.1-0.1c-1.2,0-1.7-0.5-2.3-1.5
							c-0.1-0.1-0.1-0.2-0.1-0.4c-0.2-0.1-0.3-0.2-0.5-0.4c-0.5-0.4-0.8-0.8-0.4-1.4c0,0,0,0,0,0c-0.7-0.2-1.7-1.7-0.6-2.1
							c0,0,0.1,0,0.1-0.1c-0.2-0.2-0.5-0.5-0.6-0.8c-0.2-0.3-0.2-0.5,0.1-0.7c0-0.3,0.2-0.5,0.4-0.5c0.1-0.1,0.2-0.1,0.2-0.1
							c0.6-0.8-0.2-1.8,0.4-2.5c0.4-0.5,1.4-0.6,1.6-1.4c0-0.2-0.1-0.6-0.1-0.9c0.1-0.9,0.4-1.5,1.7-1.5c0,0,0.1,0,0.1-0.1
							c-0.3-1.2,0.4-2.3,1.7-2.5c0,0,0.1,0,0.1-0.1c-0.3-1.4,0.5-3.5,2.4-2.9c0,0,0.2,0,0.2-0.1c0.3-1.6,1.5-2.8,3.1-1.9
							c0,0,0.2,0,0.2-0.1c0.1-0.8,1.1-2.7,1.7-1.2c0,0.1,0.2,0,0.2-0.1c-0.2-1.7,2.4-0.5,3,0.1c0,0,0.1,0,0.2,0
							c0.7-0.7,3-1.5,3.5-0.1c0.1,0.2,0,0.5,0,0.7c-0.1,0.2-0.1,0.5-0.1,0.8c0.2,0.1,0.4,0.2,0.5,0.4c0.3,0.5,0.2,1.1,0.1,1.6
							c-0.2,0.7-0.8,1.6-0.4,2.4c0.3,0.5,0.7,0.6,0.7,1.4c-0.1,0.8-0.7,1.4-1.2,2c0,0,0,0,0,0c1.1,1.6-0.9,3.8-2.3,4.5
							c0,0,0,0,0,0.1c1.5,1.9-0.4,3.1-2.3,3.4c0,0-0.1,0-0.1,0.1c0.8,1.5-1.9,4-3.3,3c0,0-0.2,0-0.2,0.1c0.5,0.8-0.3,2.5-1.4,2
							c0,0-0.2,0-0.2,0.1c0.6,0.8-1.1,1.4-1.6,1.5c-1.1,0.2-2.2,0-2.8-0.9c0,0-0.2,0-0.2,0.1c0.2,0.8-0.6,1-1.1,0.6
							c-0.4-0.3-0.5-0.8-0.4-1.2C106.3,53,106.1,53.1,106.1,53.1L106.1,53.1z"/>
					</g>
				</g>
				<path class="st9" d="M117.2,34.5c-0.6,0.2-2.3,1-1.3,1.8c0.5,0.4-0.1,0.6-0.4,0.6c-1.2-0.1-0.8,1.4-0.5,1.9
					c0.1,0.1,0.1,0.3,0,0.4c-0.1,0.1-2,1.3-1.5,1.6c0.2,0.1,0.8,0.5,0.5,0.8c-0.1,0.1-2,1.5-1.2,1.7c0.4,0.1,1,0.3,1.1,0.7
					c0.1,0.2,0.2,0.4,0.3,0.5c0.7,0.9-1.2,0.5-1.6,0.1c-0.4-0.4-0.5-0.5-0.6-1.1c0.4,0.2,0.7,0.5,1.1,0.7c-0.9-0.2-1.9-0.5-2.4-1.4
					c-0.6-1.1,1.1-1.7,1.6-2.2c0.2,0.3,0.3,0.5,0.5,0.8c-1.8-1-1.3-1.9,0.2-2.9c0,0-0.2-1.7-0.1-1.9c0.2-0.8,1.3-0.8,1.9-0.7
					c-0.1,0.2-0.3,0.4-0.4,0.6c-1.5-1.2,0.1-2.5,1.4-2.9C116.2,33.3,118,34.2,117.2,34.5L117.2,34.5z"/>
				<path class="st9" d="M112.9,49.4c-0.7,1.4-4.1,0.4-3.8-1.2c0.1-0.4,1.9,0.2,1.9,0.6c0.2,2.5-4.3,2.3-4.4,0.1
					c0.6,0.3,1.2,0.5,1.9,0.8c-0.5,0.4-1.4,0-1.9-0.3c-0.5-0.3-0.5-0.8-0.3-1.3c0.1-0.4,2,0.2,1.9,0.7c0,0.2-0.1,0.8-0.1,0.7
					c-0.5-0.2-1-0.3-1.5-0.5c0,0,0.1-0.1,0.1-0.1c0.4-0.3,1.8,0.3,1.9,0.8c0,0.8,0.4,0-0.7,0.1c0.2,0,0.4-0.2,0.6-0.3
					c0.4-0.2,0.6-0.7,0.6-1.2c0.6,0.2,1.3,0.4,1.9,0.6c0,0.1-0.1,0.3,0,0.4c0.2,0.3,0,0.3-0.6-0.1c0.3,0,0.4-0.2,0.6-0.4
					C111.2,48.3,113.1,49.1,112.9,49.4L112.9,49.4z"/>
				<path class="st9" d="M109.2,42.7c-0.5,0.2-0.6,0.7-0.3,1.1c0.2,0.3,0.2,0.7-0.3,0.8c-0.2,0-0.3,0.1-0.3,0.3
					c-0.1,0.4,0.4,0.3-0.2,0.2c0.4,0.1,1,0.4,1,0.8c0,0.5-0.6,0.5-0.9,0.4c-0.9-0.2-1.6-0.7-1.8-1.6c-0.2-0.8,0.5-1.4,1.2-1.5
					c-0.1,0.3-0.2,0.5-0.3,0.8c-0.8-1.2-0.5-2.3,0.9-2.7C108.9,41.2,110.4,42.4,109.2,42.7L109.2,42.7z"/>
				<path class="st9" d="M120.8,38.5c0.8,1.4-1.2,2.2-2.3,2c0.3-0.3,0.5-0.6,0.8-0.9c0.6,0.9,0.4,2.2,0,3.1c-0.6,1.2-2,1.1-2.9,0.2
					c-0.9-1,0.7-1.4,1.4-0.7c0.3,0.3,0.1,0.3-0.6,0c0.1,0,0.1-0.1,0.1-0.2c0.1-0.2,0.2-0.5,0.3-0.7c0.1-0.3,0.2-1,0-1.3
					c-0.4-0.6,0.2-1.1,0.8-0.9c0.3,0.1,0.6-0.2,0.5-0.5c-0.2-0.4,0.3-0.7,0.7-0.7C120.1,37.8,120.6,38.1,120.8,38.5L120.8,38.5z"/>
			</g>
			<g>
				<g>
					
						<rect x="22.8" y="49.8" transform="matrix(0.399 -0.9169 0.9169 0.399 -31.3265 53.8733)" class="st10" width="5.2" height="2"/>
				</g>
				<g>
					<g>
						<g>
							<g>
								<path class="st1" d="M34.9,41.3c5.5,3.1,7.5,10,4.5,15.5c-3.1,5.5-10,7.5-15.5,4.5c-5.5-3.1-7.5-10-4.5-15.5
									C22.4,40.2,29.4,38.2,34.9,41.3z"/>
							</g>
							<g>
								<path class="st11" d="M33.2,44.4c3.8,2.1,5.2,6.9,3.1,10.8c-2.1,3.8-6.9,5.2-10.8,3.1c-3.8-2.1-5.2-6.9-3.1-10.8
									C24.5,43.6,29.4,42.3,33.2,44.4z"/>
							</g>
							<g>
								<path class="st11" d="M41.9,61.3l2.6-4.6c0.1-0.2,0.1-0.4,0.1-0.5c0-0.3-0.2-0.5-0.5-0.7l-13-7.1c-1-0.6-2.2-0.6-3.2-0.1
									c-0.7,0.3-1.2,0.8-1.6,1.5l0,0c-0.6,1-0.6,2.2-0.1,3.2c0.3,0.6,0.8,1.2,1.5,1.6l13,7.1c0.2,0.1,0.5,0.1,0.7,0.1
									C41.6,61.6,41.8,61.5,41.9,61.3z"/>
							</g>
						</g>
						<g>
							<g>
								<polygon class="st12" points="45.4,63.2 48,58.6 51.1,60.3 48.5,64.9 								"/>
							</g>
							<g>
								<polygon class="st12" points="41.9,61.3 44.5,56.7 48,58.6 45.4,63.2 								"/>
							</g>
							<g>
								<path class="st12" d="M48.5,64.9l2.6-4.6l1.9,1c0.5,0.3,0.8,0.7,1.1,1.1c0.4,0.8,0.4,1.7,0,2.5c-0.4,0.7-1,1.1-1.7,1.3
									c-0.6,0.2-1.3,0.1-1.9-0.2L48.5,64.9z"/>
							</g>
						</g>
					</g>
					<g>
						<g>
							<g>
								<path class="st13" d="M34.9,41.3c5.5,3.1,7.5,10,4.5,15.5c-3.1,5.5-10,7.5-15.5,4.5c-5.5-3.1-7.5-10-4.5-15.5
									C22.4,40.2,29.4,38.2,34.9,41.3z"/>
							</g>
							<g>
								<path class="st13" d="M33.2,44.4c3.8,2.1,5.2,6.9,3.1,10.8c-2.1,3.8-6.9,5.2-10.8,3.1c-3.8-2.1-5.2-6.9-3.1-10.8
									C24.5,43.6,29.4,42.3,33.2,44.4z"/>
							</g>
							<g>
								<path class="st13" d="M41.9,61.3l2.6-4.6c0.1-0.2,0.1-0.4,0.1-0.5c0-0.3-0.2-0.5-0.5-0.7l-13-7.1c-1-0.6-2.2-0.6-3.2-0.1
									c-0.7,0.3-1.2,0.8-1.6,1.5l0,0c-0.6,1-0.6,2.2-0.1,3.2c0.3,0.6,0.8,1.2,1.5,1.6l13,7.1c0.2,0.1,0.5,0.1,0.7,0.1
									C41.6,61.6,41.8,61.5,41.9,61.3z"/>
							</g>
						</g>
						<g>
							<g>
								<polygon class="st13" points="45.4,63.2 48,58.6 51.1,60.3 48.5,64.9 								"/>
							</g>
							<g>
								<polygon class="st13" points="41.9,61.3 44.5,56.7 48,58.6 45.4,63.2 								"/>
							</g>
							<g>
								<path class="st13" d="M48.5,64.9l2.6-4.6l1.9,1c0.5,0.3,0.8,0.7,1.1,1.1c0.4,0.8,0.4,1.7,0,2.5c-0.4,0.7-1,1.1-1.7,1.3
									c-0.6,0.2-1.3,0.1-1.9-0.2L48.5,64.9z"/>
							</g>
						</g>
					</g>
				</g>
				<g>
					<path class="st10" d="M31,82.4C30.9,82.4,30.9,82.4,31,82.4c-1.8-0.4-3.5,0.3-4.5,1.7c-1.4,2-0.9,4.7,1,6.1
						c0.7,0.5,1.6,0.8,2.5,0.8c0.1,0,0.2-0.1,0.2-0.2c0-0.1-0.1-0.2-0.2-0.2c-0.8,0-1.6-0.3-2.3-0.7c-1.8-1.3-2.2-3.7-0.9-5.5
						c0.9-1.3,2.5-1.9,4.1-1.6c0.1,0,0.2,0,0.3-0.2C31.1,82.6,31,82.5,31,82.4z"/>
					<path class="st10" d="M38.9,91.1c0,0-0.1,0-0.1,0c-0.1,0-0.2,0.1-0.2,0.2c0.1,0.8-0.1,1.5-0.6,2.2c-1,1.4-3,1.8-4.4,0.8
						c-0.3-0.2-0.6-0.5-0.8-0.8c-0.1-0.1-0.2-0.1-0.3-0.1c-0.1,0.1-0.1,0.2-0.1,0.3c0.2,0.3,0.5,0.6,0.9,0.9c1.6,1.1,3.9,0.8,5-0.9
						c0.5-0.7,0.7-1.6,0.6-2.5C39,91.2,39,91.1,38.9,91.1z"/>
					<path class="st10" d="M35.7,80.5c-1.6-0.8-3.5-0.3-4.6,1.1c-0.5,0.7-0.7,1.4-0.7,2.2c0,0.1,0.1,0.2,0.2,0.2
						c0.1,0,0.2-0.1,0.2-0.2c0-0.7,0.2-1.4,0.6-1.9c1-1.4,3-1.8,4.4-0.8c0.7,0.5,1.2,1.2,1.3,1.9c0,0.1,0.1,0.2,0.2,0.2
						c0.1,0,0.2-0.1,0.2-0.2c-0.2-0.9-0.7-1.6-1.5-2.2C36,80.7,35.9,80.6,35.7,80.5z"/>
					<path class="st10" d="M29,90.6C29,90.6,28.9,90.6,29,90.6c-0.2,0-0.3,0-0.3,0.1c-0.4,1.2,0.1,2.5,1.2,3.2
						c1,0.7,2.2,0.8,3.2,0.2c0.1-0.1,0.1-0.2,0.1-0.3c-0.1-0.1-0.2-0.1-0.3-0.1c-0.8,0.5-1.9,0.4-2.7-0.2c-0.9-0.7-1.3-1.7-1-2.8
						C29.1,90.7,29.1,90.6,29,90.6z"/>
					<path class="st10" d="M32.1,88c-0.1,0-0.2,0-0.3,0.1c-0.5,0.8-0.5,1.8,0.1,2.5c0.5,0.7,1.4,1,2.2,0.8c0.1,0,0.2-0.1,0.2-0.3
						c0-0.1-0.1-0.2-0.3-0.2c-0.7,0.2-1.4-0.1-1.8-0.6c-0.5-0.6-0.5-1.4-0.1-2C32.3,88.2,32.3,88,32.1,88C32.1,88,32.1,88,32.1,88z"
						/>
					<path class="st10" d="M34.5,84c-0.4-0.2-0.9-0.3-1.3-0.1c-0.7,0.2-1.2,0.7-1.3,1.4c0,0.1,0.1,0.2,0.2,0.2
						c0.1,0,0.2-0.1,0.2-0.2c0.1-0.5,0.5-0.9,1-1.1c0.6-0.2,1.2,0,1.5,0.5c0.1,0.1,0.2,0.1,0.3,0c0.1-0.1,0.1-0.2,0-0.3
						C34.9,84.3,34.7,84.1,34.5,84z"/>
					<g>
						<path class="st10" d="M44.3,90.8C44.3,90.8,44.3,90.8,44.3,90.8c-0.7-0.2-1.4-0.2-2.2,0.1c-1.1,0.4-1.9,1.1-2.1,2
							c0,0.1,0,0.2,0.2,0.3c0.1,0,0.2,0,0.3-0.2c0.2-0.7,0.9-1.4,1.8-1.7c0.7-0.2,1.3-0.2,1.9-0.1c0.1,0,0.2,0,0.3-0.1
							C44.4,91,44.4,90.9,44.3,90.8z"/>
						<path class="st10" d="M43.2,81.7c-0.1,0-0.1,0-0.2,0c-0.5,0.3-1.1,0.5-1.8,0.4c-1-0.1-1.9-0.5-2.2-1.1
							c-0.1-0.1-0.2-0.1-0.3-0.1c-0.1,0.1-0.1,0.2-0.1,0.3c0.4,0.8,1.4,1.3,2.6,1.3c0.8,0,1.5-0.1,2.1-0.5
							C43.3,82,43.3,81.9,43.2,81.7C43.3,81.7,43.2,81.7,43.2,81.7z"/>
					</g>
					<g>
						<path class="st10" d="M45.1,87.4C45.1,87.4,45.1,87.4,45.1,87.4c-0.4-0.1-0.8-0.1-1.2,0c-0.6,0.2-1,0.6-1.2,1
							c0,0.1,0,0.2,0.1,0.3c0.1,0,0.2,0,0.3-0.1c0.1-0.3,0.4-0.6,0.9-0.7c0.3-0.1,0.6-0.1,0.9,0c0.1,0,0.2,0,0.3-0.1
							C45.3,87.5,45.2,87.4,45.1,87.4z"/>
						<path class="st10" d="M44.8,85.1c-0.1,0-0.1,0-0.2,0c-0.2,0.1-0.6,0.2-0.9,0.2c-0.5,0-0.9-0.3-1-0.6c-0.1-0.1-0.2-0.1-0.3-0.1
							c-0.1,0.1-0.1,0.2-0.1,0.3c0.2,0.4,0.7,0.7,1.4,0.8c0.4,0,0.8,0,1.1-0.2C44.9,85.4,45,85.3,44.8,85.1
							C44.9,85.1,44.9,85.1,44.8,85.1z"/>
					</g>
					<path class="st10" d="M39.5,83.4c-1.2-0.6-2.6-0.6-3.8-0.1c-0.1,0-0.2,0.2-0.1,0.3c0,0.1,0.2,0.2,0.3,0.1
						c1.3-0.6,2.8-0.4,3.9,0.4c1.8,1.3,2.2,3.7,0.9,5.5c-0.6,0.8-1.5,1.4-2.5,1.6c-0.1,0-0.2,0.1-0.2,0.2c0,0.1,0.1,0.2,0.2,0.2
						c1.1-0.2,2.1-0.8,2.8-1.8c1.4-2,0.9-4.7-1-6.1C39.9,83.6,39.7,83.4,39.5,83.4z"/>
				</g>
			</g>
		</g>
		<g>
			<path class="st14" d="M91.3,97.4l-0.2-28.2c0,0,0.5-3.7-0.2-8.8l-20,9.6l-4.5-9c-0.2,0-1.5,3.2-2.5,5.3l-9.6,23.8
				c7.9,3.3,20.5,7.3,35.3,7.2L91.3,97.4z"/>
			<path class="st15" d="M91.3,97.4l-0.2-28.2c0,0,0.5-3.7-0.2-8.8l-20,9.6l-4.5-9c-0.2,0-1.5,3.2-2.5,5.3l-9.6,23.8
				c7.9,3.3,20.5,7.3,35.3,7.2L91.3,97.4z"/>
		</g>
		<path class="st10" d="M79.6,86.9c0,0.1,0,0.1-0.1,0.1h-0.7"/>
		<line class="st10" x1="78.8" y1="86.5" x2="79.8" y2="86.5"/>
		<line class="st10" x1="78.8" y1="86.1" x2="80" y2="86.1"/>
		<line class="st16" x1="71.6" y1="70.1" x2="67.1" y2="91.4"/>
		<g>
			<path class="st1" d="M85,79.4c0.2,0,0.4-0.1,0.5-0.4c0.3-2.2-1.3-4.2-3.5-4.5c-0.2,0-0.4,0.1-0.4,0.3c0,0.2,0.1,0.4,0.3,0.5
				c1.8,0.2,3,1.8,2.8,3.6C84.6,79.2,84.8,79.4,85,79.4"/>
			<path class="st1" d="M83.6,79.7c0.2,0,0.4-0.1,0.5-0.4l0.1-0.4c0.2-1.5-0.9-2.8-2.3-3l-2.7-0.3c-0.2,0-0.4,0.1-0.5,0.4
				c0,0.2,0.1,0.4,0.4,0.5l2.7,0.3c1,0.1,1.8,1.1,1.6,2.1l-0.1,0.4C83.2,79.5,83.4,79.7,83.6,79.7"/>
			<path class="st1" d="M85,79.9c0.2,0,0.4-0.1,0.5-0.3l0.1-0.4c0.3-2.2-1.3-4.2-3.5-4.5l-3.5-0.4c-0.2,0-0.4,0.1-0.5,0.4
				c0,0.2,0.1,0.4,0.4,0.5l3.5,0.4c1.8,0.2,3,1.8,2.8,3.6l-0.1,0.4C84.6,79.6,84.7,79.8,85,79.9"/>
			<path class="st1" d="M86.3,80c0.2,0,0.4-0.1,0.5-0.4l0.1-0.4c0.4-3-1.7-5.7-4.7-6l-4.5-0.6c-0.2,0-0.4,0.1-0.5,0.4
				c0,0.2,0.1,0.4,0.4,0.5L82,74c2.5,0.3,4.3,2.6,4,5.1L86,79.6C85.9,79.8,86.1,80,86.3,80"/>
		</g>
		<g>
			<polygon class="st14" points="92.7,62.4 75.8,69.5 73.1,69.2 91.3,58.6 			"/>
			<polygon class="st15" points="92.7,62.4 75.8,69.5 73.1,69.2 91.3,58.6 			"/>
		</g>
		<g>
			<polyline class="st14" points="70.6,69.5 69.3,69.8 64.7,61.2 67,59.9 71,68.9 			"/>
			<polyline class="st15" points="70.6,69.5 69.3,69.8 64.7,61.2 67,59.9 71,68.9 			"/>
		</g>
	</g>
</g>
</svg>
