<?xml version="1.0" encoding="utf-8"?>
<!-- Generator: Adobe Illustrator 24.0.2, SVG Export Plug-In . SVG Version: 6.00 Build 0)  -->
<svg version="1.1" id="레이어_1" xmlns="http://www.w3.org/2000/svg" xmlns:xlink="http://www.w3.org/1999/xlink" x="0px"
	 y="0px" viewBox="0 0 1200 522" style="enable-background:new 0 0 1200 522;" xml:space="preserve">
<style type="text/css">
	.st0{fill:#74C6BE;}
	.st1{fill:#F2E9B6;}
	.st2{fill:#727171;}
	.st3{fill:#FFFFFF;}
	.st4{fill:#BCE2E3;}
	.st5{fill:#F5ECD3;}
	.st6{fill:#FDD35C;}
	.st7{fill:#FBF6D2;}
	.st8{fill:#4D4D4D;}
	.st9{fill:#64C0AB;}
	.st10{fill:#EA5541;}
</style>
<g id="그룹_673" transform="translate(-100.233 -651)">
	<path id="패스_2891" class="st0" d="M633.6,975.7c-16.9,0.1-31.6,0.4-46.4,0.6c-160.3,3.1-431.2,8.9-467.1,17.3
		c-35.9,8.4,70.2,32.1,217.9,34.3c906.6,1.3,681.1,13.5,778.1,0c7-1,157.5-3.2,149.5-34.3c-14.9-4.3-69.8-1-189-7.4
		C971.1,980.4,796.1,974.3,633.6,975.7z"/>
	<path id="패스_2890" class="st1" d="M631.1,977.6c-16.9,0.1-31.7,0.2-46.5,0.3c-160.7,1.6-416.6,7.3-452.5,11.8
		c-35.9,4.4,54.7,14.2,202.7,15.3c908.8,0.7,682.7,7.1,780,0c7-0.5,148,1,139.9-15.3c-14.9-2.3-60.1-3.2-179.6-6.6
		C969.4,980.1,793.9,976.9,631.1,977.6z"/>
	<g id="그룹_584" transform="translate(585.156 914.461)">
		<g id="그룹_581" transform="translate(0.043 0.012)">
			<path id="패스_3003" class="st2" d="M132.8,65c0.1-0.7-0.2-1.4-0.6-1.9c-1.3-1.7-3.2-2.2-5.1-3.2c-3.1-1.7-3.5-1.6-6.9-2.8
				c-1.3-0.5-2.6-0.9-3.8-1.4c-3.1-1.4-5.8-3.4-8-6c-2.7-3.3-7.9-5.8-11.3-8.5c-1.7-1.4-3.5-2.5-5.4-3.4c-1.8-0.7-1.3-1-3-1.8
				c-1.5-0.7-2.1-1.7-3.5-2.5c-7-3.7-15.2-2.7-21.6,1.5c-2.9,1.9-5.3,4.4-7.8,6.9c-2.6,2.6-6.4,6.2-9.1,8.8c-2.7,2.5-6.7,4-10,5.6
				c-3.9,1.8-7.9,3.8-11,6.6c-0.9,0.8-3.4,2.3-2.6,3.7c1.4,2.3,7.7,2,9.9,2.2c12.5,1,25.3,1.5,37.9,1.5c11.4,0,22.8,0,34.2-0.8
				c4.9-0.3,9.9-0.5,14.8-1C121.7,68.3,132.1,68.1,132.8,65z"/>
			<path id="패스_3004" class="st0" d="M55.1,42.6c-0.1,0.2,5.3,2.1,8.7-2.6c0,0,0.6-2.4,2.9,1c0,0,1.4,2.3,4.8,0.1
				c0,0,1.3-2.6,4.1-0.5c0,0,4.2,3.4,5.7-1.4c0,0,1.2-2.4,6,1.9c0,0,2.6,3,4.3-1c0,0,0.4-2.1,5.4,1c-2.2-2.1-4.7-3.8-7.4-5.2
				c-0.8-0.4-2.1-1.1-2.9-1.5c-1.2-0.8-2.3-1.7-3.5-2.5c-1.2-0.6-2.5-1.1-3.8-1.3c-3-0.8-6.1-0.8-9.1,0.1c-2,0.7-2.5,1.8-4.4,2.8
				c-1.5,0.8-2.8,1.4-4.3,2.4c-1.7,1.1-2.8,2.5-4.2,3.9C56.7,40.7,55.9,41.6,55.1,42.6z"/>
		</g>
		<g id="그룹_582" transform="translate(41.237 28.764)">
			<path id="패스_3005" class="st3" d="M11.4,22.3c-0.9,1.6-3.4,2.4-5.3,1.3c-2.7-1.5-1.4-4.7-0.1-5.7C8.8,15.5,13,19.4,11.4,22.3
				"/>
			<path id="패스_3006" class="st3" d="M17.1,22.3c-0.9,1.6-3.4,2.4-5.3,1.3c-2.7-1.5-1.4-4.7-0.1-5.7
				C14.5,15.5,18.7,19.4,17.1,22.3"/>
			<path id="패스_3007" class="st3" d="M23,22.3c-0.9,1.6-3.4,2.4-5.3,1.3c-2.7-1.5-1.4-4.7-0.1-5.7C20.4,15.5,24.6,19.4,23,22.3"
				/>
		</g>
		<g id="그룹_583" transform="translate(113.775 24.884)">
			<path id="패스_3008" class="st3" d="M-21,24c-0.9,1.6-3.4,2.4-5.3,1.3c-2.7-1.5-1.3-4.7-0.1-5.7C-23.6,17.3-19.4,21.1-21,24"/>
			<path id="패스_3009" class="st3" d="M-14.9,24c-0.9,1.6-3.4,2.4-5.3,1.3c-2.7-1.5-1.3-4.7-0.1-5.7
				C-17.5,17.3-13.3,21.1-14.9,24"/>
			<path id="패스_3010" class="st3" d="M-8.8,24c-0.9,1.6-3.4,2.4-5.3,1.3c-2.7-1.5-1.4-4.7-0.1-5.7C-11.4,17.3-7.2,21.1-8.8,24"
				/>
			<path id="패스_3011" class="st3" d="M-2.3,24c-0.9,1.6-3.4,2.4-5.3,1.3c-2.7-1.5-1.4-4.7-0.1-5.7C-4.9,17.3-0.7,21.1-2.3,24"/>
		</g>
	</g>
	<g id="그룹_461" transform="translate(1025.931 825)">
		<g id="그룹_459">
			<path id="패스_2427" class="st4" d="M37.9,31.3c-1.7,3-6.5,4.6-10.2,2.6c-5.2-2.8-2.6-9-0.3-10.9
				C32.8,18.3,40.9,25.7,37.9,31.3"/>
			<path id="패스_2428" class="st4" d="M49.7,31.3c-1.7,3-6.5,4.6-10.2,2.6c-5.2-2.8-2.6-9-0.3-10.9
				C44.6,18.3,52.7,25.7,49.7,31.3"/>
			<path id="패스_2429" class="st4" d="M61.5,31.3c-1.7,3-6.5,4.6-10.2,2.6c-5.2-2.8-2.6-9-0.3-10.9
				C56.4,18.3,64.5,25.7,61.5,31.3"/>
		</g>
		<g id="그룹_460">
			<path id="패스_2439" class="st4" d="M77.4,15c-1.7,3-6.5,4.6-10.2,2.5c-5.2-2.8-2.6-9-0.3-10.9C72.4,2.1,80.5,9.4,77.4,15"/>
			<path id="패스_2440" class="st4" d="M89.2,15c-1.7,3-6.5,4.6-10.2,2.5c-5.2-2.8-2.6-9-0.3-10.9C84.2,2.1,92.3,9.4,89.2,15"/>
		</g>
	</g>
	<g id="그룹_488" transform="translate(434.807 825)">
		<g id="그룹_486">
			<path id="패스_2636" class="st4" d="M31.5,0.5c0.2,0,0.3,0,0.5-0.1c3-1.5,5.1-4.4,5.7-7.7c0.5-3.5-0.7-7-3.2-9.4
				c-2.1-2.2-4.9-3.4-7.9-3.4l0,0C23.8-20,21-18.9,19-16.9c-1.9,1.8-3,4.3-2.9,6.9s1.2,5,3.1,6.8c3.1,2.7,7.7,2.5,10.6-0.4
				c1.2-1.2,1.9-2.7,2-4.4s-0.6-3.3-1.8-4.5c-1.1-1.1-2.6-1.7-4.1-1.6c-1.4,0-2.7,0.6-3.6,1.7c-0.7,1-1,2.3-0.7,3.5
				c0.3,1.1,1,2.1,2.1,2.5c0.6,0.2,1.1-0.1,1.4-0.6c0.2-0.6-0.1-1.1-0.6-1.4C24-8.6,23.7-9,23.6-9.5c-0.2-0.5-0.1-1.2,0.3-1.6
				c0.6-0.6,1.3-0.9,2.1-1c1,0,1.9,0.3,2.6,1c0.8,0.8,1.2,1.8,1.2,2.9s-0.5,2.2-1.4,3c-2,2.1-5.4,2.2-7.7,0.3
				c-1.5-1.3-2.4-3.3-2.4-5.3c-0.1-2,0.7-3.9,2.1-5.3c1.6-1.7,3.8-2.6,6.1-2.6l0,0c2.4,0,4.7,1,6.4,2.8c2.1,2,3,4.8,2.6,7.6
				c-0.4,2.6-2.1,4.9-4.5,6.1c-0.5,0.3-0.7,0.9-0.5,1.4C30.7,0.2,31.1,0.5,31.5,0.5z"/>
		</g>
		<g id="그룹_487">
			<path id="패스_2637" class="st4" d="M4.5,17.7c0.2,0,0.3,0,0.5-0.1c3-1.5,5.1-4.4,5.7-7.7c0.5-3.5-0.7-7-3.2-9.4
				c-2-2.2-4.9-3.4-7.9-3.4l0,0c-2.8,0-5.5,1.2-7.6,3.2c-1.8,1.8-2.8,4.3-2.7,6.9s1.2,5,3.1,6.8c3.1,2.7,7.7,2.5,10.6-0.4
				c1.2-1.2,1.9-2.7,2-4.4S4.4,5.9,3.2,4.7C2.2,3.6,0.7,3-0.9,3.1c-1.4,0-2.7,0.6-3.6,1.7c-0.7,1-1,2.3-0.7,3.5
				c0.3,1.1,1,2.1,2.1,2.5c0.6,0.2,1.2,0,1.4-0.6s0-1.2-0.6-1.4C-2.7,8.6-3,8.1-3.2,7.7c-0.2-0.5-0.1-1.2,0.3-1.6
				c0.6-0.6,1.3-0.9,2.1-1c1,0,1.9,0.3,2.6,1C2.6,6.8,3.1,7.9,3,9c0,1.1-0.5,2.2-1.4,3c-2.1,2.1-5.5,2.3-7.7,0.3
				C-7.6,10.9-8.5,9-8.5,7s0.7-4,2.1-5.3C-4.8,0-2.6-0.9-0.3-0.9l0,0c2.4,0,4.7,1,6.4,2.8c2.1,2,3,4.8,2.6,7.6
				c-0.4,2.6-2.1,4.9-4.5,6.1c-0.5,0.3-0.7,0.9-0.5,1.4C3.7,17.4,4.1,17.7,4.5,17.7L4.5,17.7z"/>
		</g>
	</g>
	<g id="그룹_571" transform="translate(960.01 940.017)">
		<path id="패스_2892" class="st4" d="M27.9,31.2c-1.1,2.3-2.6,4.4-4.4,6.2c-1.2,1.1-3.5,2.2-3.3,4.1c0.4,4.1,9.7,3.3,12.3,3.3
			c4.9,0,9.8,0,14.7,0.1c5,0,11.3,1.6,15.8-0.8c4.7-2.5-1.8-6.9-2.8-9.8c-2.2-6.6-7.4-15.4-15.8-15.8c-5.2-0.2-9.6,0.8-12.6,5.2
			C30.3,26.1,29,28.6,27.9,31.2z"/>
		<path id="패스_2893" class="st0" d="M58.9,26.9c-1.1,3.1-2.8,5.9-5.1,8.3c-1.6,1.5-10.1,6.2-5.4,8.7c3.3,1.7,8.3,1.4,11.9,1.5
			c1.5,0.1,3,0,4.5,0c11.2,0,22.3,0.1,33.5,0c5.1-0.1,18-0.7,8.1-8.5c-5.8-4.5-3.4-13.6-6.9-19.4C95.6,11,88.3,8,80.9,8.3
			C68.3,8.8,63.1,15.6,58.9,26.9z"/>
	</g>
	<g id="그룹_574" transform="translate(369.002 912.476)">
		<path id="패스_2894" class="st3" d="M13.9,31.8c-0.8-0.4-1.7,0-2,0.8c-0.4,0.8,0,1.7,0.8,2c0.8,0.4,1.7,0,2-0.8
			S14.6,32.1,13.9,31.8z"/>
		<path id="패스_2895" class="st5" d="M19.8,39.4c-3-3.9-4.2-4.3-4.4-4.1s-0.2,1.5,2.8,5.4c1.4,1.8,3.2,3.9,4.6,5.5l1.1-0.9
			C22.6,43.3,21.2,41.3,19.8,39.4z"/>
		<path id="패스_2896" class="st5" d="M13,36.3c-0.7,0-1.8,10.8-2.3,21.8h4.4C14.7,47.2,13.7,36.3,13,36.3z"/>
		<path id="패스_2897" class="st5" d="M10.5,65.1h4.9c-0.1-1.8-0.1-3.6-0.2-5.4h-4.6C10.6,61.5,10.5,63.4,10.5,65.1z"/>
		<path id="패스_2898" class="st5" d="M15.9,24.1c-1.9,4.5-1.8,5.7-1.4,5.9c0.4,0.2,1.3-0.5,3.3-5.1c0.9-2.1,1.8-4.6,2.6-6.7
			l-1.3-0.5C18,19.6,16.8,22,15.9,24.1z"/>
		<path id="패스_2899" class="st5" d="M4.4,35.8c4.9-0.9,5.7-1.8,5.7-2.2c-0.1-0.4-1.2-0.8-6,0.1c-2.2,0.4-4.9,1.1-7,1.7l0.3,1.4
			C-0.5,36.6,2.2,36.2,4.4,35.8z"/>
		<g id="그룹_573" transform="translate(-0.002 -0.003)">
			<g id="그룹_572">
				<path id="패스_2900" class="st6" d="M19.1,73.8v-2.1c0-2-1.6-3.6-3.5-3.6l0,0h-5.2c-2,0-3.6,1.6-3.6,3.5l0,0v2L19.1,73.8
					L19.1,73.8z"/>
				<path id="패스_2901" class="st6" d="M26.1,49.3c0.2-0.1-0.8-1.9-2.2-4.1l-1.1,0.9C24.5,48.1,26,49.5,26.1,49.3z"/>
				<path id="패스_2902" class="st6" d="M10.4,69.9h5c0-1.5,0-3.1-0.1-4.7h-4.9C10.4,66.8,10.4,68.4,10.4,69.9z"/>
				<path id="패스_2903" class="st6" d="M10.7,58.1c0,0.5-0.1,1.1-0.1,1.6h4.6c0-0.5-0.1-1.1-0.1-1.6H10.7z"/>
				<path id="패스_2904" class="st6" d="M21.6,13.7c-0.2-0.1-1.2,1.6-2.5,3.9l1.3,0.5C21.2,15.7,21.8,13.7,21.6,13.7z"/>
				<path id="패스_2905" class="st6" d="M-7.3,37c0.1,0.2,2,0.1,4.6-0.2L-3,35.4C-5.5,36.1-7.4,36.8-7.3,37z"/>
			</g>
			<path id="패스_2906" class="st6" d="M13.5,32.5c-0.4-0.2-0.9,0-1.1,0.4c-0.2,0.4,0,0.9,0.4,1.1c0.4,0.2,0.9,0,1.1-0.4
				C14.1,33.1,13.9,32.7,13.5,32.5L13.5,32.5z"/>
		</g>
	</g>
	<g id="그룹_577" transform="translate(328.009 961.727)">
		<g id="그룹_575" transform="translate(-0.009 -0.039)">
			<path id="패스_2907" class="st2" d="M19.5,14.8h-0.2c-0.7,0.1-1.4,0-2.1,0.1C15.8,15,14.7,16,13.7,17c-0.6,0.6-0.9,1.5-0.9,2.4
				c0,1-0.2,2.1-0.7,3c-0.2,0.7-0.2,1.4-0.1,2.1c0.1,0.4,0.3,0.7,0.6,1c0.7,1.1,1.8,1.8,3.1,1.9c1.1,0.1,2.3,0.1,3.4-0.1
				c0,0,10.4,0.2,8.4-8.5c-0.1-0.6-1.2-1.1-1.7-1.6c-1-1.3-2.5-2.1-4.2-2.1C20.7,15,20.1,14.8,19.5,14.8z"/>
			<path id="패스_2908" class="st2" d="M7.2,12.5c1,1.4,2.6-0.1,4.4-1c1.6-0.8,3.3-3.2,2-4.4c-0.4-0.4-2.1-0.3-3-0.2
				C9.4,7,8.9,6.8,8.2,7.2C7.4,7.8,6.7,8.5,6.3,9.4c-0.4,0.5-0.5,1.1-0.4,1.7C6,11.8,6.8,12,7.2,12.5z"/>
			<path id="패스_2909" class="st2" d="M35.4,15.9c1.2,1.6,3.1-0.1,5.2-1.2c1.9-0.9,1.5-3-0.1-4.4c-1-1.2-2.7-1.4-4.1-0.7
				c-1.6,1.2-2.5,3.1-2.5,5.1C34.1,15.1,35.2,15.6,35.4,15.9z"/>
			<path id="패스_2910" class="st2" d="M10.6,16.3c-1.4-0.7-4.8-2.2-5.7-1.8c-1.2,0.5-2.3,1-3.4,1.7c-0.9,0.6-0.6,2.6-1.2,3.3
				c-0.6,0.7-0.2,2.9,0.4,3.9c0.9,1.3,4.6,1.7,5.6,1.4c2.3-0.8,4.6-3.6,5.4-6.2C12,17.5,11.5,16.8,10.6,16.3z"/>
			<path id="패스_2911" class="st2" d="M35.9,24.4c0.4-1.3,1.6-3.3,1.2-4.1c-0.6-0.9-1.2-1.7-2-2.4c-0.6-0.6-2.2,0-2.9-0.4
				s-2.9-0.7-3.5,0c-0.9,1,0.6,3.1,1.1,3.9c1.1,1.7,2.3,4.1,4.6,4.3C35.1,25.7,35.8,25.2,35.9,24.4z"/>
			<path id="패스_2912" class="st2" d="M23.7,6.1c-1.2-0.3-2.8-1.2-3.5-0.7c-0.8,0.6-3.9,1.2-4.6,1.9c-0.4,0.4-0.2,1.1-0.2,1.6
				c-0.1,0.6-0.1,1.2,0,1.7c0.2,0.6,0.5,1,1,1.4c1,0.9,1.7,1.5,3.2,1.4c1,0,2-0.2,2.9-0.7c1.7-1.1,2.4-2.9,2.6-5.1
				C25.1,6.8,24.5,6.3,23.7,6.1z"/>
			<path id="패스_2913" class="st2" d="M45.3,15.9c-1.4-0.1-3.5-0.5-4.1,0.1c-0.7,0.7-2.4,1.5-3,2.4c-0.4,0.7,0.4,2.1,0.2,2.9
				s0.9,2.5,1.7,3c1.2,0.7,4.1-0.6,4.8-1.2c1.6-1.5,2.3-3.7,2-5.9C46.8,16.3,46.1,16,45.3,15.9z"/>
			<path id="패스_2914" class="st2" d="M32.5,14c0,0,0.6,2-1.7,1.7c-0.9-0.1-1.8-0.1-2.6,0.1c-0.7,0.3-1.5,0.2-2.2-0.1
				c-1-0.5-1.6-1.4-1.6-2.5c-0.1-1.1,0.6-1.8,1.4-2.4c0.3-0.3,0.5-0.6,0.6-0.9c0.4-0.8,1.4-2.2,2.4-2.2c0.7-0.1,1.2,0.6,1.6,1.2
				c0.7,0.8,1.7,1.4,2,2.6C32.5,12.3,32.2,13.3,32.5,14z"/>
			<path id="패스_2915" class="st2" d="M27.8,7.1c0.2-0.2,0.5-0.2,0.7-0.6c0.2-0.2,0.2-0.6,0.1-0.9c-0.2-0.3-0.5-0.5-0.8-0.6
				c-0.4-0.1-0.8-0.2-1.2,0c-0.3,0-1.1,0-1.2,0.3C25,5.8,25.7,7,25.9,7.2c0.3,0.2,0.6,0.3,0.9,0.2c0.3,0.1,0.6,0,0.9-0.2
				C27.8,7.2,27.8,7.2,27.8,7.1z"/>
			<path id="패스_2916" class="st2" d="M10.7,12.9c-0.2,0.3-0.4,0.6-0.4,1s0.2,0.8,0.6,0.9c0.5,0.1,1.5,1.1,2.1,1.1
				c0.6-0.1,1.2-0.3,1.7-0.6c0.5-0.6,0.8-1.3,1-2c0.1-0.7-1.9-1.5-2.3-1.5c-0.5,0-1,0.1-1.5,0.3s-0.8,0.2-1,0.7
				C10.8,12.8,10.8,12.8,10.7,12.9z"/>
			<path id="패스_2917" class="st2" d="M31.7,6.5c-0.2,0.2-0.6,0.4-0.7,0.8c-0.2,0.4,0,0.8,0.4,1l0,0c0.5,0.2,1.2,1.5,1.7,1.6
				c0.6,0.1,1.2,0,1.8-0.2C35.5,9.2,36,8.6,36.3,8c0.2-0.7-1.5-1.9-1.9-2.1c-0.5-0.1-1-0.1-1.6-0.1c-0.5,0.1-0.8,0.1-1.1,0.4
				C31.8,6.4,31.7,6.4,31.7,6.5z"/>
		</g>
		<g id="그룹_576" transform="translate(1.542 0.502)">
			<path id="패스_2918" class="st7" d="M17.5,11.3c-0.1,0-0.1,0-0.2-0.1s-0.1-0.3-0.1-0.4c0-0.1,0.1-0.1,0.1-0.2
				c0-0.2,0.2-0.2,0.3-0.2c0.2,0,0.2,0.2,0.2,0.3C17.8,10.9,17.7,11,17.5,11.3C17.7,11.3,17.6,11.3,17.5,11.3z"/>
			<path id="패스_2919" class="st7" d="M16,9.2c-0.1,0-0.1,0-0.2-0.1c-0.1-0.1-0.1-0.3-0.1-0.4c0.1,0,0.1-0.1,0.1-0.2
				c0-0.2,0.2-0.2,0.3-0.2c0.2,0,0.2,0.2,0.2,0.3c0,0.2-0.1,0.3-0.2,0.5C16.2,9.1,16.1,9.2,16,9.2z"/>
			<path id="패스_2920" class="st7" d="M19.8,7.5c-0.1,0-0.1,0-0.2-0.1S19.5,7.1,19.5,7c0.1,0,0.1-0.1,0.1-0.2
				c0-0.2,0.2-0.2,0.3-0.2c0.2,0,0.2,0.2,0.2,0.3C20.1,7.1,20,7.2,19.8,7.5C20,7.4,19.9,7.5,19.8,7.5z"/>
			<path id="패스_2921" class="st7" d="M25.8,6.3c-0.1,0-0.1,0-0.1-0.1c-0.1-0.1-0.1-0.2-0.1-0.4c0.1-0.1,0.1-0.2,0.1-0.2
				c0-0.1,0.1-0.2,0.2-0.2s0.2,0.1,0.2,0.2c0,0.2-0.1,0.3-0.2,0.5C26,6.3,25.9,6.3,25.8,6.3z"/>
			<path id="패스_2922" class="st7" d="M24.8,5.7c-0.1,0-0.1,0-0.1-0.1c-0.1-0.1-0.1-0.2-0.1-0.4C24.7,5.1,24.7,5,24.7,5
				c0-0.1,0.1-0.2,0.2-0.2s0.2,0.1,0.2,0.2c0,0.2-0.1,0.3-0.2,0.5C25,5.6,24.9,5.7,24.8,5.7z"/>
			<path id="패스_2923" class="st7" d="M18.5,9.4c-0.1,0-0.1,0-0.2-0.1S18.2,9,18.2,8.9c0-0.1,0.1-0.1,0.1-0.2
				c0-0.2,0.2-0.2,0.3-0.2c0.2,0,0.2,0.2,0.2,0.3C18.8,9,18.7,9.1,18.5,9.4C18.7,9.4,18.5,9.4,18.5,9.4z"/>
			<path id="패스_2924" class="st7" d="M17.6,7.4c-0.1,0-0.1,0-0.2-0.1S17.3,7,17.3,6.9s0.1-0.1,0.1-0.2c0-0.2,0.2-0.2,0.3-0.2
				c0.2,0,0.2,0.2,0.2,0.3C17.9,7,17.8,7.1,17.6,7.4C17.8,7.4,17.7,7.4,17.6,7.4z"/>
			<path id="패스_2925" class="st7" d="M7.4,11.2c-0.1,0-0.1,0-0.2-0.1s-0.1-0.3-0.1-0.4c0-0.1,0.1-0.1,0.1-0.2
				c0-0.2,0.2-0.3,0.3-0.2c0.2,0,0.3,0.2,0.2,0.3c0,0.2-0.1,0.3-0.2,0.5C7.6,11.2,7.5,11.2,7.4,11.2z"/>
			<path id="패스_2926" class="st7" d="M6.2,9.6C6.1,9.6,6,9.5,6,9.5C5.9,9.4,5.9,9.2,5.9,9.1C6,9,6,8.9,6,8.9
				c0-0.2,0.2-0.2,0.3-0.2c0.2,0,0.2,0.2,0.2,0.3c0,0.2-0.1,0.3-0.2,0.5C6.4,9.5,6.3,9.6,6.2,9.6z"/>
			<path id="패스_2927" class="st7" d="M8.2,8.3c-0.1,0-0.1,0-0.2-0.1C7.9,8.1,7.9,8,8,7.8c0-0.1,0.1-0.1,0.1-0.2
				c0-0.2,0.2-0.2,0.3-0.2c0.2,0,0.2,0.2,0.2,0.3c0,0.2-0.1,0.3-0.2,0.5C8.4,8.2,8.4,8.3,8.2,8.3z"/>
			<path id="패스_2928" class="st7" d="M10.9,8.6c-0.1,0-0.1,0-0.2-0.1c-0.1-0.1-0.1-0.3-0.1-0.4c0-0.1,0.1-0.1,0.1-0.2
				c0-0.2,0.2-0.2,0.3-0.2c0.2,0,0.2,0.2,0.2,0.3c0,0.2-0.1,0.3-0.2,0.5C11,8.6,10.9,8.6,10.9,8.6z"/>
			<path id="패스_2929" class="st7" d="M9.2,9.9c-0.1,0-0.2,0-0.2,0C8.9,9.7,8.9,9.6,8.9,9.4C9,9.4,9,9.3,9,9.2C9,9.1,9.2,9,9.3,9
				c0.2,0,0.2,0.2,0.2,0.3c0,0.2-0.1,0.3-0.2,0.5C9.3,9.9,9.2,9.9,9.2,9.9z"/>
			<path id="패스_2930" class="st7" d="M21.8,20.6c-0.1,0-0.1,0-0.2-0.1s-0.1-0.3-0.1-0.4c0,0,0.1-0.1,0.1-0.2
				c0-0.2,0.2-0.2,0.3-0.2c0.2,0,0.2,0.2,0.2,0.3c0,0.2-0.1,0.3-0.2,0.5C22,20.5,21.9,20.6,21.8,20.6z"/>
			<path id="패스_2931" class="st7" d="M12.7,23.5c-0.1,0-0.1,0-0.2-0.1c-0.1-0.1-0.1-0.3-0.1-0.4c0,0,0.1-0.1,0.1-0.2
				c0-0.2,0.2-0.2,0.3-0.2c0.2,0,0.2,0.2,0.2,0.3c0,0.2-0.1,0.3-0.2,0.5C12.9,23.4,12.8,23.5,12.7,23.5z"/>
			<path id="패스_2932" class="st7" d="M23.8,22.1c-0.1,0-0.1,0-0.2-0.1s-0.1-0.3-0.1-0.4c0,0,0.1-0.1,0.1-0.2
				c0-0.2,0.2-0.2,0.3-0.2c0.2,0,0.2,0.2,0.2,0.3c0,0.2-0.1,0.3-0.2,0.5C23.9,22.1,23.8,22.1,23.8,22.1z"/>
			<path id="패스_2933" class="st7" d="M19.7,21.3c-0.1,0-0.1,0-0.2-0.1s-0.1-0.3-0.1-0.4s0.1-0.1,0.1-0.2c0-0.2,0.2-0.2,0.3-0.2
				c0.2,0,0.2,0.2,0.2,0.3c0,0.2-0.1,0.3-0.2,0.5C19.9,21.3,19.8,21.3,19.7,21.3z"/>
			<path id="패스_2934" class="st7" d="M14.6,22.6c-0.1,0-0.1,0-0.2-0.1c-0.1-0.1-0.1-0.3-0.1-0.4s0.1-0.1,0.1-0.2
				c0-0.2,0.2-0.2,0.3-0.2c0.2,0,0.2,0.2,0.2,0.3c0,0.2-0.1,0.3-0.2,0.5C14.7,22.6,14.7,22.6,14.6,22.6z"/>
			<path id="패스_2935" class="st7" d="M19.1,24.4c-0.1,0-0.1,0-0.2-0.1s-0.1-0.3-0.1-0.4c0,0,0.1-0.1,0.1-0.2
				c0-0.2,0.2-0.2,0.3-0.2c0.2,0,0.2,0.2,0.2,0.3c0,0.2-0.1,0.3-0.2,0.5C19.3,24.4,19.2,24.4,19.1,24.4z"/>
			<path id="패스_2936" class="st7" d="M18.5,16.6c-0.1,0-0.1,0-0.2-0.1s-0.1-0.3-0.1-0.4c0,0,0.1-0.1,0.1-0.2
				c0-0.2,0.2-0.2,0.3-0.2c0.2,0,0.2,0.2,0.2,0.3c0,0.2-0.1,0.3-0.2,0.5C18.7,16.5,18.6,16.6,18.5,16.6z"/>
			<path id="패스_2937" class="st7" d="M14.7,24.9c-0.1,0-0.1,0-0.2-0.1c-0.1-0.1-0.1-0.3-0.1-0.4c0,0,0.1-0.1,0.1-0.2
				c0-0.2,0.2-0.2,0.3-0.2c0.2,0,0.2,0.2,0.2,0.3c0,0.2-0.1,0.3-0.2,0.5C14.9,24.9,14.7,24.9,14.7,24.9z"/>
			<path id="패스_2938" class="st7" d="M13.9,18.2c-0.1,0-0.1,0-0.2-0.1c-0.1-0.1-0.1-0.3-0.1-0.4c0,0,0.1-0.1,0.1-0.2
				c0-0.2,0.2-0.2,0.3-0.2c0.2,0,0.2,0.2,0.2,0.3c0,0.2-0.1,0.3-0.2,0.5C14.1,18.2,14,18.2,13.9,18.2z"/>
			<path id="패스_2939" class="st7" d="M21.9,23.6c-0.1,0-0.1,0-0.2-0.1s-0.1-0.3-0.1-0.4c0,0,0.1-0.1,0.1-0.2
				c0-0.2,0.2-0.2,0.3-0.2c0.2,0,0.2,0.2,0.2,0.3c0,0.2-0.1,0.3-0.2,0.5C22.1,23.6,22,23.6,21.9,23.6z"/>
			<path id="패스_2940" class="st7" d="M20.8,9.4c-0.1,0-0.1,0-0.2-0.1S20.5,9,20.5,8.9c0-0.1,0.1-0.1,0.1-0.2
				c0-0.2,0.2-0.2,0.3-0.2c0.2,0,0.2,0.2,0.2,0.3C21.1,9,21,9.1,20.8,9.4C21,9.4,20.9,9.4,20.8,9.4z"/>
			<path id="패스_2941" class="st7" d="M21.9,7.7c-0.1,0-0.1,0-0.2-0.1s-0.1-0.3-0.1-0.4c0,0,0.1-0.1,0.1-0.2
				c0-0.2,0.2-0.3,0.3-0.2c0.2,0,0.2,0.2,0.2,0.3C22.2,7.3,22.1,7.4,21.9,7.7C22.1,7.6,22,7.7,21.9,7.7z"/>
			<path id="패스_2942" class="st7" d="M19.8,11.2c-0.1,0-0.1,0-0.2-0.1s-0.1-0.3-0.1-0.4c0,0,0.1-0.1,0.1-0.2
				c0-0.2,0.2-0.3,0.3-0.2c0.2,0,0.2,0.2,0.2,0.3C20.1,10.8,20,10.9,19.8,11.2C20,11.2,19.8,11.2,19.8,11.2z"/>
			<path id="패스_2943" class="st7" d="M25.6,14.2c-0.1,0-0.1,0-0.1-0.1c-0.1-0.1-0.1-0.2-0.1-0.4c0,0,0.1-0.1,0.1-0.2
				c0-0.1,0.1-0.2,0.2-0.2s0.2,0.1,0.2,0.2c0,0.2-0.1,0.3-0.2,0.4C25.8,14.1,25.7,14.2,25.6,14.2z"/>
			<path id="패스_2944" class="st7" d="M24.4,12.5c-0.1,0-0.1,0-0.1-0.1c-0.1-0.1-0.1-0.2-0.1-0.4c0-0.1,0.1-0.1,0.1-0.2
				c0-0.2,0.2-0.3,0.3-0.2c0.1,0,0.2,0.2,0.2,0.3c0,0.2-0.1,0.3-0.2,0.4C24.5,12.5,24.5,12.5,24.4,12.5z"/>
			<path id="패스_2945" class="st7" d="M27.2,9.4c-0.1,0-0.1,0-0.2-0.1s-0.1-0.2-0.1-0.4C27,8.9,27,8.8,27,8.7
				c0-0.2,0.2-0.3,0.3-0.2c0.1,0,0.2,0.2,0.2,0.3c0,0.2-0.1,0.3-0.2,0.4C27.3,9.3,27.3,9.4,27.2,9.4z"/>
			<path id="패스_2946" class="st7" d="M27,12.7c-0.1,0-0.1,0-0.2-0.1s-0.1-0.2-0.1-0.4c0-0.1,0.1-0.1,0.1-0.2
				c0-0.2,0.1-0.3,0.3-0.3c0.2,0,0.3,0.1,0.3,0.3l0,0c0,0.2-0.1,0.3-0.2,0.4C27.1,12.6,27.1,12.7,27,12.7z"/>
			<path id="패스_2947" class="st7" d="M28,10.9c-0.1,0-0.1,0-0.2-0.1s-0.1-0.2-0.1-0.4c0-0.1,0.1-0.1,0.1-0.2
				c0-0.2,0.2-0.3,0.3-0.2c0.1,0,0.2,0.2,0.2,0.3c0,0.2-0.1,0.3-0.2,0.4C28.1,10.8,28.1,10.9,28,10.9z"/>
			<path id="패스_2948" class="st7" d="M29.2,12.2c-0.1,0-0.1,0-0.1-0.1C29,12,29,11.9,29,11.7c0,0,0.1-0.1,0.1-0.2
				c0-0.2,0.2-0.3,0.3-0.2c0.1,0,0.2,0.2,0.2,0.3c0,0.2-0.1,0.3-0.2,0.4C29.4,12.2,29.3,12.2,29.2,12.2z"/>
			<path id="패스_2949" class="st7" d="M28.4,14.3c-0.1,0-0.1,0-0.2-0.1s-0.1-0.2-0.1-0.4c0-0.1,0.1-0.1,0.1-0.2
				c0-0.2,0.2-0.3,0.3-0.2c0.1,0,0.2,0.2,0.2,0.3c0,0.2-0.1,0.3-0.2,0.4C28.6,14.2,28.5,14.3,28.4,14.3z"/>
			<path id="패스_2950" class="st7" d="M25.9,11.2c-0.1,0-0.1,0-0.2-0.1s-0.1-0.2-0.1-0.4c0-0.1,0.1-0.1,0.1-0.2
				c0-0.2,0.2-0.3,0.3-0.2c0.1,0,0.2,0.2,0.2,0.3c0,0.2-0.1,0.3-0.2,0.4C26,11.1,26,11.2,25.9,11.2z"/>
			<path id="패스_2951" class="st7" d="M32.5,6.7c-0.1,0-0.1,0-0.2-0.1c-0.1-0.1-0.1-0.2-0.1-0.4c0-0.1,0.1-0.1,0.1-0.2
				c0-0.2,0.2-0.3,0.3-0.2c0.1,0,0.2,0.2,0.2,0.3c0,0.2-0.1,0.3-0.2,0.4C32.6,6.7,32.6,6.7,32.5,6.7z"/>
			<path id="패스_2952" class="st7" d="M31.7,8.4c-0.1,0-0.1,0-0.1-0.1c-0.1-0.1-0.1-0.2-0.1-0.3l0,0c0-0.1,0.1-0.1,0.1-0.2
				s0.1-0.2,0.2-0.2h0.1c0.2,0,0.3,0.2,0.2,0.3c0,0.2-0.1,0.3-0.2,0.4L31.7,8.4z"/>
			<path id="패스_2953" class="st7" d="M30.9,7.1c-0.1,0-0.1,0-0.2-0.1s-0.1-0.2-0.1-0.4c0-0.1,0.1-0.1,0.1-0.2
				c0-0.2,0.2-0.3,0.3-0.2c0.1,0,0.2,0.2,0.2,0.3c0,0.2-0.1,0.3-0.2,0.4C31.1,7.1,31,7.1,30.9,7.1z"/>
			<path id="패스_2954" class="st7" d="M33.3,8.1c-0.1,0-0.1,0-0.1-0.1c-0.1-0.1-0.1-0.2-0.1-0.4c0-0.1,0.1-0.1,0.1-0.2
				c0-0.2,0.2-0.3,0.3-0.2c0.1,0,0.2,0.2,0.2,0.3c0,0.2-0.1,0.3-0.2,0.4C33.4,8.1,33.4,8.1,33.3,8.1z"/>
			<path id="패스_2955" class="st7" d="M11.5,12.6c-0.1,0-0.1,0-0.2-0.1c-0.1-0.1-0.1-0.2-0.1-0.4c0,0,0.1-0.1,0.1-0.2
				c0-0.2,0.2-0.3,0.3-0.2c0.1,0,0.2,0.2,0.2,0.3c0,0.2-0.1,0.3-0.2,0.4C11.6,12.5,11.5,12.6,11.5,12.6z"/>
			<path id="패스_2956" class="st7" d="M10.6,13.9c-0.1,0-0.1,0-0.1-0.1c-0.1-0.1-0.1-0.2-0.1-0.4c0-0.1,0.1-0.1,0.1-0.2
				c0-0.1,0.2-0.2,0.3-0.2s0.2,0.2,0.2,0.3c0,0.2-0.1,0.3-0.2,0.4C10.7,13.9,10.6,13.9,10.6,13.9z"/>
			<path id="패스_2957" class="st7" d="M12.2,13.9c-0.1,0-0.1,0-0.1-0.1C12,13.7,12,13.6,12,13.4c0,0,0.1-0.1,0.1-0.2
				c0-0.2,0.1-0.3,0.3-0.3s0.3,0.1,0.3,0.3l0,0c0,0.2-0.1,0.3-0.2,0.4C12.3,13.9,12.2,13.9,12.2,13.9z"/>
			<path id="패스_2958" class="st7" d="M22.4,18.2c-0.1,0-0.1,0-0.2-0.1s-0.1-0.3-0.1-0.4c0,0,0.1-0.1,0.1-0.2
				c0-0.2,0.2-0.2,0.3-0.2c0.2,0,0.2,0.2,0.2,0.3c0,0.2-0.1,0.3-0.2,0.5C22.6,18.2,22.5,18.2,22.4,18.2z"/>
			<path id="패스_2959" class="st7" d="M17.7,19.2c-0.1,0-0.1,0-0.2-0.1s-0.1-0.3-0.1-0.4c0,0,0.1-0.1,0.1-0.2
				c0-0.2,0.2-0.2,0.3-0.2c0.2,0,0.2,0.2,0.2,0.3c0,0.2-0.1,0.3-0.2,0.5C17.8,19.2,17.8,19.2,17.7,19.2z"/>
			<path id="패스_2960" class="st7" d="M35.2,14.5c-0.1,0-0.1,0-0.2-0.1c-0.1-0.1-0.1-0.3-0.1-0.4c0-0.1,0.1-0.1,0.1-0.2
				c0-0.2,0.2-0.3,0.3-0.2c0.2,0,0.2,0.2,0.2,0.3C35.5,14.1,35.4,14.2,35.2,14.5C35.4,14.5,35.3,14.5,35.2,14.5z"/>
			<path id="패스_2961" class="st7" d="M28,18.5c-0.1,0-0.1,0-0.2-0.1s-0.1-0.3-0.1-0.4s0.1-0.1,0.1-0.2c0-0.2,0.2-0.3,0.3-0.2
				c0.2,0,0.3,0.2,0.2,0.3c0,0.2-0.1,0.3-0.2,0.5C28.2,18.5,28.1,18.5,28,18.5z"/>
			<path id="패스_2962" class="st7" d="M34.2,12.7c-0.1,0-0.1,0-0.2-0.1c-0.1-0.1-0.1-0.3-0.1-0.4c0-0.1,0.1-0.1,0.1-0.2
				c0-0.2,0.2-0.2,0.3-0.2c0.2,0,0.2,0.2,0.2,0.3C34.5,12.3,34.4,12.4,34.2,12.7C34.4,12.6,34.4,12.7,34.2,12.7z"/>
			<path id="패스_2963" class="st7" d="M37.6,10.8c-0.1,0-0.1,0-0.2-0.1c-0.1-0.1-0.1-0.3-0.1-0.4c0-0.1,0.1-0.1,0.1-0.2
				c0-0.2,0.2-0.2,0.3-0.2c0.2,0,0.2,0.2,0.2,0.3C37.9,10.4,37.8,10.5,37.6,10.8C37.8,10.8,37.7,10.8,37.6,10.8z"/>
			<path id="패스_2964" class="st7" d="M36.5,12.6c-0.1,0-0.1,0-0.2-0.1c-0.1-0.1-0.1-0.3-0.1-0.4c0-0.1,0.1-0.1,0.1-0.2
				c0-0.2,0.2-0.2,0.3-0.2c0.2,0,0.2,0.2,0.2,0.3C36.8,12.2,36.7,12.3,36.5,12.6C36.6,12.6,36.6,12.6,36.5,12.6z"/>
			<path id="패스_2965" class="st7" d="M35.7,10.8c-0.1,0-0.1,0-0.2-0.1c-0.1-0.1-0.1-0.3-0.1-0.4c0-0.1,0.1-0.1,0.1-0.2
				c0-0.2,0.2-0.2,0.3-0.2c0.2,0,0.2,0.2,0.2,0.3C36,10.4,35.9,10.5,35.7,10.8C35.9,10.7,35.9,10.8,35.7,10.8z"/>
			<path id="패스_2966" class="st7" d="M38.6,12.5c-0.1,0-0.1,0-0.2-0.1c-0.1-0.1-0.1-0.3-0.1-0.4c0-0.1,0.1-0.1,0.1-0.2
				c0-0.2,0.2-0.2,0.3-0.2c0.2,0,0.2,0.2,0.2,0.3C38.9,12.1,38.8,12.2,38.6,12.5C38.8,12.5,38.7,12.5,38.6,12.5z"/>
			<path id="패스_2967" class="st7" d="M37.5,14.2c-0.1,0-0.1,0-0.2-0.1c-0.1-0.1-0.1-0.3-0.1-0.4c0,0,0.1-0.1,0.1-0.2
				c0-0.2,0.2-0.3,0.3-0.2c0.2,0,0.2,0.2,0.2,0.3C37.8,13.8,37.7,13.9,37.5,14.2C37.7,14.2,37.6,14.2,37.5,14.2z"/>
			<path id="패스_2968" class="st7" d="M6,19.1c-0.1,0-0.1,0-0.2-0.1s-0.1-0.3-0.1-0.4s0.1-0.1,0.1-0.2c0-0.2,0.2-0.2,0.3-0.2
				c0.2,0,0.2,0.2,0.2,0.3c0,0.2-0.1,0.3-0.2,0.5C6.2,19,6.1,19.1,6,19.1z"/>
			<path id="패스_2969" class="st7" d="M1.2,17.5c-0.1,0-0.1,0-0.2-0.1S0.9,17.1,0.9,17C1,16.9,1,16.9,1,16.8
				c0-0.2,0.2-0.2,0.3-0.2c0.2,0,0.2,0.2,0.2,0.3c0,0.2-0.1,0.3-0.2,0.5C1.4,17.4,1.3,17.5,1.2,17.5z"/>
			<path id="패스_2970" class="st7" d="M8.4,19.3c-0.1,0-0.1,0-0.2-0.1c-0.1-0.1-0.1-0.3-0.1-0.4c0,0,0.1-0.1,0.1-0.2
				c0-0.2,0.2-0.2,0.3-0.2c0.2,0,0.2,0.2,0.2,0.3c0,0.2-0.1,0.3-0.2,0.5C8.6,19.2,8.5,19.3,8.4,19.3z"/>
			<path id="패스_2971" class="st7" d="M4.6,22.6c-0.1,0-0.1,0-0.2-0.1s-0.1-0.3-0.1-0.4s0.1-0.1,0.1-0.2c0-0.2,0.2-0.2,0.3-0.2
				C4.9,21.7,5,21.8,5,22s-0.1,0.3-0.2,0.5C4.8,22.6,4.7,22.6,4.6,22.6z"/>
			<path id="패스_2972" class="st7" d="M3.9,20.6c-0.1,0-0.1,0-0.2-0.1c-0.1-0.1-0.1-0.3-0.1-0.4s0.1-0.1,0.1-0.2
				c0-0.2,0.2-0.2,0.3-0.2c0.2,0,0.2,0.2,0.2,0.3c0,0.2-0.1,0.3-0.2,0.5C4.1,20.5,4.1,20.6,3.9,20.6z"/>
			<path id="패스_2973" class="st7" d="M1.1,23C1,23,1,23,0.9,22.9c-0.1-0.1-0.1-0.3-0.1-0.4c0.1-0.1,0.1-0.2,0.1-0.2
				C1,22.1,1.2,22,1.3,22c0.2,0,0.2,0.2,0.2,0.3c0,0.2-0.1,0.3-0.2,0.5C1.3,22.9,1.2,22.9,1.1,23z"/>
			<path id="패스_2974" class="st7" d="M7.6,17.3c-0.1,0-0.1,0-0.2-0.1s-0.1-0.3-0.1-0.4c0,0,0.1-0.1,0.1-0.2
				c0-0.2,0.2-0.2,0.3-0.2c0.2,0,0.2,0.2,0.2,0.3c0,0.2-0.1,0.3-0.2,0.5C7.7,17.2,7.6,17.3,7.6,17.3z"/>
			<path id="패스_2975" class="st7" d="M2.9,16.6c-0.1,0-0.1,0-0.2-0.1c-0.1-0.1-0.1-0.3-0.1-0.4s0.1-0.1,0.1-0.2
				c0-0.2,0.2-0.2,0.3-0.2c0.2,0,0.2,0.2,0.2,0.3c0,0.2-0.1,0.3-0.2,0.5C3.1,16.5,3,16.6,2.9,16.6z"/>
			<path id="패스_2976" class="st7" d="M2.4,19.1c-0.1,0-0.1,0-0.2-0.1c-0.1-0.1-0.1-0.3-0.1-0.4s0.1-0.1,0.1-0.2
				c0-0.2,0.2-0.2,0.3-0.2c0.2,0,0.2,0.2,0.2,0.3c0,0.2-0.1,0.3-0.2,0.5C2.6,19,2.5,19.1,2.4,19.1z"/>
			<path id="패스_2977" class="st7" d="M0,20.4c-0.1,0-0.1,0-0.2-0.1s-0.1-0.2-0.1-0.4c0.1-0.1,0.1-0.2,0.1-0.2
				c0-0.2,0.2-0.2,0.3-0.2c0.2,0,0.2,0.2,0.2,0.3c0,0.2-0.1,0.3-0.2,0.5C0.2,20.4,0.1,20.4,0,20.4z"/>
			<path id="패스_2978" class="st7" d="M41.9,17.8c-0.1,0-0.1,0-0.2-0.1c-0.1-0.1-0.1-0.3-0.1-0.4c0,0,0.1-0.1,0.1-0.2
				c0-0.2,0.2-0.2,0.3-0.2c0.2,0,0.2,0.2,0.2,0.3c0,0.2-0.1,0.3-0.2,0.5C42,17.7,42,17.8,41.9,17.8z"/>
			<path id="패스_2979" class="st7" d="M43.8,19.3c-0.1,0-0.1,0-0.2-0.1c-0.1-0.1-0.1-0.3-0.1-0.4c0,0,0.1-0.1,0.1-0.2
				c0-0.2,0.2-0.3,0.3-0.2c0.2,0,0.2,0.2,0.2,0.3c0,0.2-0.1,0.3-0.2,0.5C44,19.2,43.9,19.3,43.8,19.3z"/>
			<path id="패스_2980" class="st7" d="M38.8,18.5c-0.1,0-0.1,0-0.2-0.1c-0.1-0.1-0.1-0.3-0.1-0.4c0,0,0.1-0.1,0.1-0.2
				c0-0.2,0.2-0.2,0.3-0.2c0.2,0,0.2,0.2,0.2,0.3c0,0.2-0.1,0.3-0.2,0.5C38.9,18.5,38.9,18.5,38.8,18.5z"/>
			<path id="패스_2981" class="st7" d="M39.2,22.2c-0.1,0-0.1,0-0.2-0.1c-0.1-0.1-0.1-0.3-0.1-0.4c0,0,0.1-0.1,0.1-0.2
				c0-0.2,0.2-0.2,0.3-0.2c0.2,0,0.2,0.2,0.2,0.3c0,0.2-0.1,0.3-0.2,0.5C39.4,22.2,39.2,22.2,39.2,22.2z"/>
			<path id="패스_2982" class="st7" d="M40.3,20.6c-0.1,0-0.1,0-0.2-0.1C40,20.4,40,20.2,40,20.1c0,0,0.1-0.1,0.1-0.2
				c0-0.2,0.2-0.2,0.3-0.2c0.2,0,0.2,0.2,0.2,0.3c0,0.2-0.1,0.3-0.2,0.5C40.5,20.5,40.4,20.6,40.3,20.6z"/>
			<path id="패스_2983" class="st7" d="M42.2,21.4c-0.1,0-0.1,0-0.2-0.1c-0.1-0.1-0.1-0.3-0.1-0.4c0,0,0.1-0.1,0.1-0.2
				c0-0.2,0.2-0.2,0.3-0.2c0.2,0,0.2,0.2,0.2,0.3c0,0.2-0.1,0.3-0.2,0.5C42.4,21.3,42.4,21.4,42.2,21.4z"/>
			<path id="패스_2984" class="st7" d="M33.1,20.3c-0.1,0-0.1,0-0.2-0.1c-0.1-0.1-0.1-0.3-0.1-0.4c0,0,0.1-0.1,0.1-0.2
				c0-0.2,0.2-0.2,0.3-0.2c0.2,0,0.2,0.2,0.2,0.3c0,0.2-0.1,0.3-0.2,0.5C33.3,20.3,33.3,20.3,33.1,20.3z"/>
			<path id="패스_2985" class="st7" d="M32,22.1c-0.1,0-0.1,0-0.2-0.1s-0.1-0.3-0.1-0.4c0.1-0.1,0.1-0.2,0.1-0.2
				c0-0.2,0.2-0.2,0.3-0.2c0.2,0,0.2,0.2,0.2,0.3c0,0.2-0.1,0.3-0.2,0.5C32.1,22.1,32.1,22.1,32,22.1z"/>
			<path id="패스_2986" class="st7" d="M32.6,23.8c-0.1,0-0.1,0-0.2-0.1c-0.1-0.1-0.1-0.3-0.1-0.4s0.1-0.1,0.1-0.2
				c0-0.2,0.2-0.2,0.3-0.2c0.2,0,0.2,0.2,0.2,0.3c0,0.2-0.1,0.3-0.2,0.5C32.7,23.8,32.6,23.8,32.6,23.8z"/>
			<path id="패스_2987" class="st7" d="M29.8,21.7c-0.1,0-0.1,0-0.2-0.1s-0.1-0.3-0.1-0.4c0,0,0.1-0.1,0.1-0.2
				c0-0.2,0.2-0.2,0.3-0.2c0.2,0,0.2,0.2,0.2,0.3c0,0.2-0.1,0.3-0.2,0.5C30,21.7,29.9,21.7,29.8,21.7z"/>
			<path id="패스_2988" class="st7" d="M30.8,19.3c-0.1,0-0.1,0-0.2-0.1s-0.1-0.3-0.1-0.4c0.1-0.1,0.1-0.2,0.1-0.2
				c0-0.2,0.2-0.2,0.3-0.2c0.2,0,0.2,0.2,0.2,0.3c0,0.2-0.1,0.3-0.2,0.5C30.9,19.3,30.9,19.3,30.8,19.3z"/>
			<path id="패스_2989" class="st7" d="M34.1,22c-0.1,0-0.1,0-0.2-0.1c-0.1-0.1-0.1-0.3-0.1-0.4s0.1-0.1,0.1-0.2
				c0-0.2,0.2-0.2,0.3-0.2c0.2,0,0.2,0.2,0.2,0.3c0,0.2-0.1,0.3-0.2,0.5C34.3,22,34.2,22,34.1,22z"/>
		</g>
	</g>
	<g id="그룹_579" transform="translate(1230.022 959.968)">
		
			<rect id="사각형_223" x="-3.5" y="15.3" transform="matrix(0.2817 -0.9595 0.9595 0.2817 -6.0724 23.8703)" class="st8" width="32.9" height="1.3"/>
		<path id="패스_2990" class="st6" d="M6.7,13c-0.3,1-2,1.4-3.8,0.8C1,13.3-0.2,12.1,0,11.1c0.3-1,2-1.4,3.8-0.8
			C5.7,10.8,7,12,6.7,13z"/>
		<path id="패스_2991" class="st0" d="M13.3,15c-0.3,1-2,1.4-3.8,0.8C7.6,15.3,6.4,14,6.7,13s2-1.4,3.8-0.8
			C12.3,12.7,13.6,14,13.3,15z"/>
		<path id="패스_2992" class="st6" d="M19.9,16.9c-0.3,1-2,1.4-3.8,0.8C14.3,17.2,13,16,13.3,15s2-1.4,3.8-0.8
			C19,14.7,20.2,15.9,19.9,16.9z"/>
		<path id="패스_2993" class="st0" d="M26.6,18.9c-0.3,1-2,1.4-3.8,0.8c-1.8-0.5-3.1-1.8-2.8-2.8s2-1.4,3.8-0.8
			C25.6,16.6,26.8,17.9,26.6,18.9z"/>
		<g id="그룹_578">
			<path id="패스_2994" class="st6" d="M0,11.1L13.3,15l3.9-13.3C9.9-0.5,2.2,3.7,0,11.1C0,11,0,11.1,0,11.1z"/>
			<path id="패스_2995" class="st0" d="M17.2,1.7L13.3,15l13.3,3.9C28.8,11.6,24.6,3.9,17.2,1.7L17.2,1.7z"/>
		</g>
		<path id="패스_2996" class="st0" d="M6.7,13c0,0,2.5-9.3,10.5-11.3L13.3,15L6.7,13z"/>
		<path id="패스_2997" class="st6" d="M19.9,16.9c0,0,2.9-9.2-2.7-15.2L13.3,15L19.9,16.9z"/>
	</g>
	<g id="그룹_580" transform="translate(918 962.062)">
		<path id="패스_2998" class="st9" d="M32.2,28.4c0,0,0.8-12.5-15.2-9.8C17,18.6,16.4,31,32.2,28.4"/>
		<path id="패스_2999" class="st9" d="M21,16.5c0,0-14-8.9-21,11.3C0,27.8,14,36.5,21,16.5"/>
		<path id="패스_3000" class="st10" d="M5.8,4.2C5.2,5,4.5,5.7,3.8,6.4c-7.5,6.1,1.4,15.7,7.5,17.6c2.4,0.8,4.4,0.1,6.9-0.5
			c2.4-0.6,5.7,0.2,7.8-1.1c3.6-2.1,4.8-8.1,4.5-11.7c-0.4-4.6-3.7-6.4-7.6-7.6c-1.8-0.4-3.6-0.9-5.4-1.6C14.7,0.3,12.6-1,9.6,0.9
			C8.2,1.9,6.9,3,5.8,4.2z"/>
		<path id="패스_3001" class="st3" d="M20.4,11.4c0,2.7-2.1,4.8-4.8,4.8s-4.8-2.1-4.8-4.8s2.1-4.8,4.8-4.8
			C18.2,6.6,20.4,8.7,20.4,11.4L20.4,11.4z"/>
		<path id="패스_3002" class="st6" d="M20.3,11c0,2.4-2,4.4-4.4,4.4s-4.4-2-4.4-4.4s2-4.4,4.4-4.4l0,0C18.3,6.6,20.3,8.6,20.3,11z
			"/>
	</g>
	<g id="그룹_587" transform="translate(728 743.851)">
		<path id="패스_3012" class="st6" d="M77.8,34.6c0,1.7-1.4,3-3,3l0,0h-8.3c-1.7,0-3-1.4-3-3l0,0l0,0c0-1.7,1.4-3,3-3l0,0h8.3
			C76.4,31.6,77.8,32.9,77.8,34.6L77.8,34.6L77.8,34.6z"/>
		<path id="패스_3013" class="st6" d="M77.8,56.1c0,1.7-1.4,3-3,3l0,0h-8.3c-1.7,0-3-1.4-3-3l0,0l0,0c0-1.7,1.4-3,3-3l0,0h8.3
			C76.4,53,77.7,54.4,77.8,56.1L77.8,56.1z"/>
		<path id="패스_3014" class="st0" d="M50.6,47l12.6,16.5c0.9,1.2,2.4,1.9,3.9,1.9c0.8,0,1.5,0.1,2.9,0.1c0.9,0.1,1.8-0.1,2.6-0.5
			c0.5-0.5,0.8-1.1,0.8-1.8c0.1-0.4,0.1-0.8,0.1-1.2V34.1c0-2.1,0.1-4.3,0-6.5c0-0.5-0.1-0.9-0.5-1.3c-0.5-0.5-1.2-0.7-1.9-0.7h-4.9
			c-1,0.1-1.8,0.7-2.4,1.5l-9.4,11L50.6,47z"/>
		<g id="그룹_585" transform="translate(2.709 -0.034)">
			<path id="패스_3015" class="st3" d="M104.9,20.6c-0.8-2.2-2.1-2.1-3.9-2.1c-1.2,0-2.3,0.2-3.4,0.7c-1.3,0.6-1.9,2-2.5,3.1l0,0
				C95,22.4,95,22.5,95,22.6h10.3C105.2,21.9,105.1,21.3,104.9,20.6z"/>
			<path id="패스_3016" class="st0" d="M76.4,37.4H28c-1.7,0.9-3.3,2-4.8,3.2c0.2,0.1,0.4,0.1,0.6,0.1h52.6c0.9,0,1.7-0.7,1.7-1.7
				C78.1,38.2,77.4,37.4,76.4,37.4L76.4,37.4L76.4,37.4z"/>
			<path id="패스_3017" class="st0" d="M93.6,25.2c-0.4,0.8-0.8,1.7-1.2,2.5h12.3l0.3-2.5H93.6z"/>
			<path id="패스_3018" class="st6" d="M104.9,25.3l0.3-2.4v-0.1H94.9c-0.5,0.8-0.9,1.7-1.3,2.5H104.9z"/>
		</g>
		<path id="패스_3019" class="st3" d="M41.5,39c0,0.3-0.3,0.6-0.6,0.6l0,0H30.3c-0.3,0-0.6-0.3-0.6-0.6l0,0l0,0
			c0-0.3,0.3-0.6,0.6-0.6l0,0H41C41.3,38.4,41.5,38.7,41.5,39L41.5,39z"/>
		<path id="패스_3020" class="st3" d="M46.4,39c0,0.3-0.3,0.6-0.6,0.6l0,0H44c-0.3,0-0.6-0.3-0.6-0.6l0,0l0,0
			c0-0.3,0.3-0.6,0.6-0.6l0,0h1.9C46.2,38.4,46.4,38.7,46.4,39L46.4,39z"/>
		<path id="패스_3021" class="st3" d="M50.6,39c0,0.3-0.3,0.6-0.6,0.6l0,0h-1.2c-0.3,0-0.6-0.3-0.6-0.6l0,0l0,0
			c0-0.3,0.3-0.6,0.6-0.6l0,0H50C50.3,38.4,50.6,38.7,50.6,39L50.6,39z"/>
		<path id="패스_3022" class="st3" d="M54,39c0,0.3-0.3,0.6-0.6,0.6l0,0h-0.6c-0.3,0-0.6-0.3-0.6-0.6l0,0l0,0
			c0-0.3,0.3-0.6,0.6-0.6l0,0h0.6C53.7,38.4,54,38.7,54,39L54,39z"/>
		<path id="패스_3023" class="st3" d="M56.7,39c0,0.3-0.3,0.6-0.6,0.6l0,0H56c-0.3,0-0.6-0.3-0.6-0.6l0,0l0,0
			c0-0.3,0.3-0.6,0.6-0.6l0,0h0.1C56.4,38.4,56.7,38.7,56.7,39L56.7,39z"/>
		<path id="패스_3024" class="st3" d="M59.3,39c0,0.3-0.3,0.6-0.6,0.6l0,0h-0.1c-0.3,0-0.6-0.3-0.6-0.6l0,0l0,0
			c0-0.3,0.3-0.6,0.6-0.6l0,0h0.1C59,38.4,59.3,38.7,59.3,39L59.3,39z"/>
		<path id="패스_3025" class="st3" d="M61.8,39c0,0.3-0.3,0.6-0.6,0.6l0,0h-0.1c-0.3,0-0.6-0.3-0.6-0.6l0,0l0,0
			c0-0.3,0.3-0.6,0.6-0.6l0,0h0.1C61.5,38.4,61.8,38.7,61.8,39z"/>
		<path id="패스_3026" class="st3" d="M64.4,39c0,0.3-0.3,0.6-0.6,0.6l0,0h-0.1c-0.3,0-0.6-0.3-0.6-0.6l0,0l0,0
			c0-0.3,0.3-0.6,0.6-0.6l0,0h0.1C64.1,38.4,64.4,38.7,64.4,39z"/>
		<path id="패스_3027" class="st3" d="M66.9,39c0,0.3-0.3,0.6-0.6,0.6l0,0h-0.1c-0.3,0-0.6-0.3-0.6-0.6l0,0l0,0
			c0-0.3,0.3-0.6,0.6-0.6l0,0h0.1C66.6,38.4,66.9,38.7,66.9,39z"/>
		<path id="패스_3028" class="st3" d="M69.5,39c0,0.3-0.3,0.6-0.6,0.6l0,0h-0.1c-0.3,0-0.6-0.3-0.6-0.6l0,0l0,0
			c0-0.3,0.3-0.6,0.6-0.6l0,0h0.1C69.2,38.4,69.5,38.7,69.5,39z"/>
		<path id="패스_3029" class="st3" d="M72,39c0,0.3-0.3,0.6-0.6,0.6l0,0h-0.1c-0.3,0-0.6-0.3-0.6-0.6l0,0l0,0
			c0-0.3,0.3-0.6,0.6-0.6l0,0h0.1C71.7,38.4,72,38.7,72,39z"/>
		<path id="패스_3030" class="st3" d="M74.6,39c0,0.3-0.3,0.6-0.6,0.6l0,0h-0.1c-0.3,0-0.6-0.3-0.6-0.6l0,0l0,0
			c0-0.3,0.3-0.6,0.6-0.6l0,0H74C74.3,38.4,74.6,38.7,74.6,39z"/>
		<path id="패스_3031" class="st3" d="M77.1,39c0,0.3-0.3,0.6-0.6,0.6l0,0h-0.1c-0.3,0-0.6-0.3-0.6-0.6l0,0l0,0
			c0-0.3,0.3-0.6,0.6-0.6l0,0h0.1C76.8,38.4,77.1,38.7,77.1,39z"/>
		<g id="그룹_586" transform="translate(0 9.277)">
			<path id="패스_3032" class="st3" d="M104.4,34.6l-0.1,0.8l3-17H95c-0.4,0.8-0.8,1.5-1.2,2.3c-1.3,2.7-3.8,4.6-6.8,5.2
				C86.9,26,86.7,26,86.4,26H38.5c-0.9,0-1.9,0.1-2.8,0.2c-1.7,0.4-3.4,1.1-4.9,1.9h48.4c0.9,0,1.7,0.8,1.7,1.7s-0.8,1.7-1.7,1.7
				H26.5c-0.2,0-0.4-0.1-0.6-0.1c-0.3,0.2-0.5,0.5-0.8,0.6c-1.2,0.8-1.9,2.2-1.9,3.6h80.9C104.2,35.5,104.4,34.7,104.4,34.6z"/>
			<path id="패스_3033" class="st6" d="M27.8,40.3H95c2.8,0,8.6-2,9.1-4.7H23.2v0.1C23.2,38.2,25.3,40.3,27.8,40.3L27.8,40.3z"/>
		</g>
		<path id="패스_3034" class="st0" d="M103.7,30.8h3.2c1.4,0.2,2.5,1.4,2.4,2.9v2.5c0,0.7-0.5,1.3-1.2,1.4c-0.4,0.1-0.8,0-1.2-0.1
			c-0.5-0.2-1-0.5-1.5-0.6c-1.3-0.6-2.5-1.1-3.8-1.7c-1-0.5-2.4-0.8-3-1.8c-0.1-0.3-0.2-0.5-0.3-0.8c-0.1-0.5,0.1-1.1,0.6-1.4
			c0.5-0.2,1-0.3,1.5-0.3L103.7,30.8L103.7,30.8z"/>
	</g>
	<g id="그룹_588" transform="translate(634.931 802)">
		<path id="패스_2439-2" class="st4" d="M40.1,31.4c-1.7,3-6.5,4.6-10.2,2.5c-5.2-2.8-2.6-9-0.3-10.9
			C35.1,18.5,43.2,25.8,40.1,31.4"/>
		<path id="패스_2440-2" class="st4" d="M51.9,31.4c-1.7,3-6.5,4.6-10.2,2.5c-5.2-2.8-2.6-9-0.3-10.9C46.9,18.5,55,25.8,51.9,31.4
			"/>
	</g>
</g>
</svg>
