<?xml version="1.0" encoding="utf-8"?>
<!-- Generator: Adobe Illustrator 24.0.2, SVG Export Plug-In . SVG Version: 6.00 Build 0)  -->
<svg version="1.1" id="레이어_1" xmlns="http://www.w3.org/2000/svg" xmlns:xlink="http://www.w3.org/1999/xlink" x="0px"
	 y="0px" viewBox="0 0 198 230" style="enable-background:new 0 0 198 230;" xml:space="preserve">
<style type="text/css">
	.st0{fill:none;}
	.st1{fill:#71BEB6;}
	.st2{fill:#B9DEDF;}
	.st3{fill:#727171;}
	.st4{fill:#FFFFFF;}
	.st5{fill:#90A9A6;}
	.st6{fill:#E3F1F8;}
	.st7{fill:#F6D28B;}
</style>
<g id="그룹_671" transform="translate(-160 -410)">
	<rect id="사각형_267" x="159.8" y="454" class="st0" width="197.9" height="173.2"/>
	<rect id="사각형_266" x="159.8" y="454" class="st0" width="197.9" height="173.2"/>
	<g id="그룹_591" transform="translate(209 433.977)">
		<path id="패스_1987" class="st1" d="M58.6,60.8c0,0,7.7,0,11.4,26.4c0,0,0.3,3.4,3.3,2.9c1-0.1,1.9,0.6,2,1.5
			c0.4,2-2,2.5-3.5,2.5c-0.4,0-0.9,0-1.3-0.1c-4.7-0.9-5-5.8-5.8-9.6c-1-4.6-1.4-9.2-3.5-13.3c-1.3-2.5-3.5-4.2-5.5-6.2L58.6,60.8z"
			/>
		<path id="패스_1988" class="st1" d="M80.5,137.8L80.5,137.8c-0.5-0.3-1.1-0.2-1.4,0.3l0,0c-0.1,0.1-0.2,0.3-0.3,0.4l-0.2,0.3
			c-0.3,0.5-0.6,0.9-0.9,1.3c-0.4,0.6-0.8,1.2-1.1,1.8c-0.2,0.3-0.4,0.6-0.5,0.9c-0.2,0.4-0.4,0.7-0.6,1l-0.1,0.2
			c-0.4,0.6-0.9,1.3-1.4,1.4c-0.6-0.1-1.1-0.3-1.6-0.7l-1.3-1c-0.4-0.3-1.1-0.2-1.4,0.2c-0.3,0.4-0.2,1,0.2,1.3l1.4,1
			c1.3,1.4,3.4,1.5,4.8,0.2c0.4-0.4,0.8-0.9,0.9-1.4l0.1-0.2c0.2-0.3,0.5-0.7,0.7-1.1c0.2-0.3,0.3-0.5,0.5-0.8
			c0.4-0.6,0.8-1.2,1.1-1.7c0.3-0.5,0.6-0.9,0.9-1.4l0.2-0.3l0.3-0.5C81,138.6,80.9,138.1,80.5,137.8"/>
		<path id="패스_1989" class="st1" d="M83.5,137.7c-0.5-0.3-1.1-0.2-1.4,0.3l0,0l-5.2,8.2c-0.2,0.4-0.5,0.7-0.9,1
			c-1.1,0.8-2.6,0.8-3.8,0.1l-2.4-1.5c-0.5-0.3-1.1-0.2-1.4,0.3s-0.2,1.1,0.3,1.4l2.4,1.5c1.9,1.2,4.3,1.1,6.1-0.2
			c0.6-0.4,1-0.9,1.4-1.5l5.2-8.2C84.1,138.7,83.9,138,83.5,137.7"/>
		<path id="패스_1990" class="st1" d="M86.5,137.7c-0.5-0.3-1.1-0.2-1.4,0.3l0,0l-6.4,10c-1.8,2.5-5.1,3.2-7.8,1.7l-2-1.3
			c-0.5-0.3-1.1-0.2-1.4,0.3s-0.2,1.1,0.3,1.4l0,0l2,1.3l0.1,0.1c3.5,2,8,1,10.4-2.3l0.1-0.1l6.4-10C87.1,138.6,87,138,86.5,137.7"
			/>
		<path id="패스_1991" class="st2" d="M34.9,132c-0.4,8.1,2.6,16,8.1,21.8l1.8,15.6h3.6l2.3-14.5l6.2-0.2l3.5,16.1h3.3l2.2-18.6
			c0,0,7.1-2.7,4.9-16.6l-4.4-41.7c0,0-3-25.7-9.3-28.3c0,0,7.6-7.2,1.8-16c-3.8,2.3-6.5,6.1-7.6,10.4c0,0-0.6,0.3-5.6,0.1h-1.6
			c-1.4-4-4.5-7.1-8.4-8.4c-1.2,4.4-0.2,9.1,2.8,12.6c-0.2-0.2-6.6,5.2-6.8,5.3c-5.9,5-8.6,9-12.7,14.9c-1,1.3-1.3,3.1-0.8,4.7
			c0.4,1.6,2.3,3.8,3.6,4.8c1.6,1.5,3.6,2.3,5.8,2.3c4.1-0.1,8.8-0.5,12.5-2.3c-0.2,0.1,0,0.2-0.5,3.2L34.9,132z"/>
		<path id="패스_1992" class="st3" d="M25.1,100.7l1.6,2.9l-3.6,3.4l-1.3-4.8c0.9-0.8,2-1.4,3.2-1.7L25.1,100.7z"/>
		<path id="패스_1993" class="st3" d="M57.2,175.9h7.4l-0.8-5.7l-3.6-0.2L57.2,175.9z"/>
		<path id="패스_1994" class="st3" d="M44.9,169.5l-2.6,4.6c0,0,4.7,0,7.1-0.3l-0.9-4.4L44.9,169.5L44.9,169.5z"/>
		<path id="패스_1995" class="st4" d="M49.4,163.6l-1,5.8v0.1l0,0L49.4,163.6L49.4,163.6"/>
		<path id="패스_1996" class="st4" d="M47.6,162.5L47.6,162.5c-0.3,0-0.5,0.1-0.7,0.2l-0.5,0.3c-0.2,0.1-0.3,0.2-0.5,0.3
			c-0.1,0-0.3,0.1-0.5,0.1c-0.3,0-0.6-0.1-0.9-0.3c-0.2-0.1-0.3-0.2-0.4-0.3c-0.1,0-0.1-0.1-0.2-0.2l0.8,6.8h3.6l1-5.8
			c0-0.1-0.1-0.2-0.1-0.2c-0.1-0.1-0.1-0.1-0.1-0.2c-0.1-0.1-0.2-0.2-0.3-0.3c-0.3-0.2-0.6-0.4-1-0.4
			C47.8,162.6,47.7,162.5,47.6,162.5"/>
		<path id="패스_1997" class="st5" d="M44.9,169.5"/>
		<path id="패스_1998" class="st4" d="M58.8,163.4l1.4,6.7l0,0L58.8,163.4L58.8,163.4"/>
		<path id="패스_1999" class="st4" d="M64.3,162.5c-0.3,0-0.5,0.4-0.5,0.4c-0.3,0.6-0.6,0.8-0.8,0.8s-0.5-0.1-0.6-0.3
			c-0.1-0.3-0.4-0.6-0.8-0.6c-0.4,0.1-0.8,0.3-1,0.6s-0.5,0.5-0.9,0.5c-0.3,0-0.6-0.2-0.9-0.4l1.4,6.6l0,0l2.2,0.1l1.3,0.1l0.9-7.3
			C64.6,162.6,64.4,162.5,64.3,162.5"/>
		<path id="패스_2000" class="st5" d="M60.2,170L60.2,170l2.2,0.1L60.2,170z"/>
		<path id="패스_2001" class="st4" d="M36.4,53.5c0,0-0.7,5.8,2.3,8.9c0.2,0.3,0.6,0.6,1,0.6C41.3,63.1,39.7,55.8,36.4,53.5"/>
		<path id="패스_2002" class="st4" d="M58.9,52c-3.4,3.3-4.1,11.5-2.4,11.5c0.3,0,0.7-0.3,1.2-1C61.2,57.7,58.9,52,58.9,52"/>
		<path id="패스_2003" class="st6" d="M30.2,80l-0.1,0.1C30.1,80.1,30.2,80.1,30.2,80z"/>
		<path id="패스_2004" class="st1" d="M20.1,88.3l0.1-0.3c0-0.2,0.1-0.4,0.3-0.5c0.1-0.1,0.3-0.2,0.5-0.2l0,0
			c0.4,0,0.7,0.4,0.7,0.8v0.1l-0.1,0.3c0,0.2,0.1,0.4,0.3,0.4c0.2,0,0.4-0.1,0.4-0.3l0.1-0.3l0,0v-0.1c0.1-0.8-0.5-1.4-1.3-1.5l0,0
			H21c-0.4,0-0.7,0.1-1,0.4c-0.3,0.2-0.4,0.6-0.5,0.9l-0.1,0.3c0,0.2,0.1,0.4,0.3,0.4C19.9,88.7,20.1,88.5,20.1,88.3"/>
		<path id="패스_2005" class="st1" d="M24.1,89.7l0.2-0.2c0.1-0.1,0.2-0.3,0.4-0.3c0.2-0.1,0.4,0,0.5,0.1h0.1
			c0.3,0.2,0.4,0.6,0.3,1v0.1l-0.2,0.2c-0.1,0.2-0.1,0.4,0,0.5s0.4,0.1,0.5,0c0,0,0-0.1,0.1-0.1l0.2-0.2l0,0l0.1-0.1
			c0.4-0.7,0.1-1.5-0.5-1.9l-0.1-0.1c-0.3-0.2-0.7-0.2-1.1-0.1s-0.7,0.3-0.9,0.6l-0.2,0.2c-0.1,0.2-0.1,0.4,0.1,0.5
			C23.7,89.9,23.9,89.9,24.1,89.7"/>
		<path id="패스_2006" class="st4" d="M37.6,132.4L37.6,132.4c-0.2,0-0.3,0.2-0.3,0.4c0,0.1,0,0.2,0.1,0.4l0.2,0.3
			c0.1,0.1,0.2,0.1,0.3,0.1s0.1,0,0.2-0.1c0.1-0.1,0.2-0.2,0.1-0.4l0,0l0,0c0-0.1-0.1-0.1-0.1-0.2c0-0.1-0.1-0.1-0.1-0.2
			C37.9,132.6,37.8,132.4,37.6,132.4C37.7,132.4,37.6,132.4,37.6,132.4"/>
		<path id="패스_2007" class="st4" d="M37.2,129L37.2,129c-0.2,0-0.3,0.2-0.3,0.4c0,0.1,0,0.2,0.1,0.4l0.2,0.3
			c0.1,0.1,0.2,0.1,0.3,0.1s0.1,0,0.2-0.1c0.1-0.1,0.2-0.2,0.1-0.4l0,0c-0.1-0.1-0.1-0.1-0.1-0.2c0-0.1-0.1-0.1-0.1-0.2
			C37.5,129.1,37.4,129,37.2,129L37.2,129"/>
		<path id="패스_2008" class="st4" d="M40.1,139.7L40.1,139.7c-0.2,0-0.3,0.2-0.3,0.4c0,0.1,0,0.2,0.1,0.4c0,0.1,0.1,0.2,0.2,0.3
			c0.1,0.1,0.2,0.1,0.3,0.1s0.1,0,0.2-0.1c0.1-0.1,0.2-0.2,0.1-0.4l0,0c0-0.1-0.1-0.1-0.1-0.2c0-0.1-0.1-0.1-0.1-0.2
			C40.4,139.8,40.3,139.7,40.1,139.7"/>
		<path id="패스_2009" class="st4" d="M41.6,142.3L41.6,142.3c-0.2,0-0.3,0.2-0.3,0.4c0,0.1,0,0.2,0.1,0.4l0.2,0.3
			c0.1,0.1,0.2,0.1,0.3,0.1s0.1,0,0.2-0.1c0.1-0.1,0.2-0.2,0.1-0.4l0,0c-0.1-0.1-0.1-0.1-0.1-0.2c0-0.1-0.1-0.1-0.1-0.2
			C41.8,142.4,41.7,142.3,41.6,142.3"/>
		<path id="패스_2010" class="st4" d="M40.2,144.2L40.2,144.2c-0.2,0-0.3,0.2-0.3,0.4c0,0.1,0,0.2,0.1,0.4l0.2,0.3
			c0.1,0.1,0.2,0.1,0.3,0.1s0.1,0,0.2-0.1c0.1-0.1,0.2-0.2,0.1-0.4l0,0c0-0.1-0.1-0.1-0.1-0.2c0-0.1-0.1-0.1-0.1-0.2
			C40.5,144.4,40.4,144.2,40.2,144.2L40.2,144.2"/>
		<path id="패스_2011" class="st4" d="M39,141.8L39,141.8c-0.2,0-0.3,0.2-0.3,0.4c0,0.1,0,0.2,0.1,0.4l0.2,0.3
			c0.1,0.1,0.2,0.1,0.3,0.1s0.1,0,0.2-0.1c0.1-0.1,0.2-0.2,0.1-0.4l0,0c0-0.1-0.1-0.1-0.1-0.2c0-0.1-0.1-0.1-0.1-0.2
			C39.3,141.9,39.2,141.8,39,141.8L39,141.8"/>
		<path id="패스_2012" class="st4" d="M41.5,138.3L41.5,138.3c-0.2,0-0.3,0.2-0.3,0.4c0,0.1,0,0.2,0.1,0.4l0.2,0.3
			c0.1,0.1,0.2,0.1,0.3,0.1s0.1,0,0.2-0.1c0.1-0.1,0.2-0.2,0.1-0.4l0,0c0-0.1-0.1-0.1-0.1-0.2c0-0.1-0.1-0.1-0.1-0.2
			C41.7,138.4,41.6,138.3,41.5,138.3"/>
		<path id="패스_2013" class="st4" d="M37.3,138.1L37.3,138.1c-0.2,0-0.3,0.2-0.3,0.4c0,0.1,0,0.2,0.1,0.4l0.2,0.3
			c0.1,0.1,0.2,0.1,0.3,0.1s0.1,0,0.2-0.1c0.1-0.1,0.2-0.2,0.1-0.4l0,0c0-0.1-0.1-0.1-0.1-0.2c0-0.1-0.1-0.1-0.1-0.2
			C37.6,138.2,37.5,138.1,37.3,138.1"/>
		<path id="패스_2014" class="st4" d="M37.4,135.1L37.4,135.1c-0.2,0-0.3,0.2-0.3,0.4c0,0.1,0,0.2,0.1,0.4l0.2,0.3
			c0.1,0.1,0.2,0.1,0.3,0.1s0.1,0,0.2-0.1c0.1-0.1,0.2-0.2,0.1-0.4l0,0c0-0.1-0.1-0.1-0.1-0.2c0-0.1-0.1-0.1-0.1-0.2
			C37.7,135.2,37.6,135.1,37.4,135.1"/>
		<path id="패스_2015" class="st4" d="M39.4,130.9L39.4,130.9c-0.2,0-0.3,0.2-0.3,0.4c0,0.1,0,0.2,0.1,0.4l0.2,0.3
			c0.1,0.1,0.2,0.1,0.3,0.1s0.1,0,0.2-0.1c0.1-0.1,0.2-0.2,0.1-0.4l0,0c0-0.1-0.1-0.1-0.1-0.2c0-0.1-0.1-0.1-0.1-0.2
			C39.7,131,39.6,130.9,39.4,130.9"/>
		<path id="패스_2016" class="st4" d="M39.4,136.7L39.4,136.7c-0.2,0-0.3,0.2-0.3,0.4c0,0.1,0,0.2,0.1,0.4l0.2,0.3
			c0.1,0.1,0.2,0.1,0.3,0.1s0.1,0,0.2-0.1c0.1-0.1,0.2-0.2,0.1-0.4l0,0c0-0.1-0.1-0.1-0.1-0.2c0-0.1-0.1-0.1-0.1-0.2
			C39.7,136.8,39.6,136.7,39.4,136.7"/>
		<path id="패스_2017" class="st4" d="M62.8,149.2c-0.1,0-0.3,0.1-0.3,0.3c0,0.1,0,0.1-0.1,0.2c-0.1,0.1-0.1,0.2-0.1,0.2
			c-0.1,0.1-0.1,0.3,0.1,0.4c0.1,0.1,0.1,0.1,0.2,0.1s0.2-0.1,0.3-0.1l0.2-0.3c0.1-0.1,0.1-0.2,0.1-0.4
			C63.1,149.4,62.9,149.2,62.8,149.2L62.8,149.2L62.8,149.2"/>
		<path id="패스_2018" class="st4" d="M61.8,146.8c-0.1,0-0.3,0.1-0.3,0.3c0,0.1-0.1,0.1-0.1,0.2c-0.1,0.1-0.1,0.2-0.1,0.2
			c-0.1,0.1-0.1,0.3,0.1,0.4c0.1,0.1,0.1,0.1,0.2,0.1s0.2-0.1,0.3-0.1l0.2-0.3c0.1-0.1,0.1-0.2,0.1-0.4
			C62.1,147,62,146.9,61.8,146.8L61.8,146.8"/>
		<path id="패스_2019" class="st4" d="M66.7,144.5c-0.1,0-0.3,0.1-0.3,0.3c0,0.1-0.1,0.1-0.1,0.2c-0.1,0.1-0.1,0.2-0.1,0.2
			c-0.1,0.1-0.1,0.3,0,0.4l0,0c0.1,0.1,0.1,0.1,0.2,0.1s0.2-0.1,0.3-0.1l0.2-0.3c0.1-0.1,0.1-0.2,0.1-0.4
			C67,144.6,66.9,144.5,66.7,144.5L66.7,144.5"/>
		<path id="패스_2020" class="st4" d="M65,147.5c-0.1,0-0.3,0.1-0.3,0.3c0,0.1-0.1,0.1-0.1,0.2c-0.1,0.1-0.1,0.2-0.1,0.2
			c-0.1,0.1-0.1,0.3,0,0.4l0,0c0.1,0.1,0.1,0.1,0.2,0.1s0.2-0.1,0.3-0.1l0.2-0.3c0.1-0.1,0.1-0.2,0.1-0.4
			C65.3,147.7,65.2,147.6,65,147.5L65,147.5"/>
		<path id="패스_2021" class="st4" d="M64.5,145.7c-0.1,0-0.3,0.1-0.3,0.3c0,0.1-0.1,0.1-0.1,0.2c-0.1,0.1-0.1,0.2-0.1,0.2
			c-0.1,0.1-0.1,0.3,0,0.4l0,0c0.1,0.1,0.1,0.1,0.2,0.1s0.2-0.1,0.3-0.1l0.2-0.3c0.1-0.1,0.1-0.2,0.1-0.4
			C64.8,145.8,64.7,145.7,64.5,145.7C64.5,145.6,64.5,145.6,64.5,145.7L64.5,145.7"/>
		<path id="패스_2022" class="st4" d="M67.1,146.8c-0.1,0-0.3,0.1-0.3,0.3c0,0.1-0.1,0.1-0.1,0.2c-0.1,0.1-0.1,0.2-0.1,0.2
			c-0.1,0.1-0.1,0.3,0.1,0.4c0.1,0.1,0.1,0.1,0.2,0.1s0.2-0.1,0.3-0.1l0,0l0.2-0.3c0.1-0.1,0.1-0.2,0.1-0.4
			C67.4,147,67.3,146.9,67.1,146.8L67.1,146.8"/>
		<path id="패스_2023" class="st4" d="M64.2,150.4c-0.1,0-0.3,0.1-0.3,0.3c0,0.1-0.1,0.1-0.1,0.2c-0.1,0.1-0.1,0.2-0.1,0.2
			c-0.1,0.1-0.1,0.3,0,0.4l0,0c0.1,0.1,0.1,0.1,0.2,0.1c0.1,0,0.2-0.1,0.3-0.1l0.2-0.3c0.1-0.1,0.1-0.2,0.1-0.4
			C64.6,150.5,64.4,150.4,64.2,150.4L64.2,150.4"/>
		<path id="패스_2024" class="st4" d="M64.3,100.4C64.2,100.4,64.2,100.4,64.3,100.4c-0.2,0.2-0.3,0.4-0.3,0.5
			c0.1,0.1,0.1,0.3,0.1,0.4v0.1c0,0.2,0.1,0.3,0.3,0.4h0.1c0.1,0,0.3-0.1,0.3-0.3v-0.1c0-0.2,0-0.4-0.1-0.6
			C64.5,100.4,64.4,100.4,64.3,100.4"/>
		<path id="패스_2025" class="st4" d="M61.1,93.8C61,93.8,61,93.8,61.1,93.8c-0.2,0.2-0.3,0.4-0.3,0.5c0.1,0.1,0.1,0.3,0.1,0.4
			v0.1c0,0.2,0.1,0.3,0.3,0.4h0.1c0.1,0,0.3-0.1,0.3-0.3v-0.2c0-0.2,0-0.4-0.1-0.6C61.3,93.8,61.2,93.8,61.1,93.8"/>
		<path id="패스_2026" class="st4" d="M64.2,93.8L64.2,93.8c-0.2,0.1-0.3,0.3-0.3,0.4c0.1,0.1,0.1,0.3,0.1,0.4v0.1
			c0,0.2,0.1,0.3,0.3,0.4h0.1c0.1,0,0.3-0.1,0.3-0.3v-0.1c0-0.2,0-0.4-0.1-0.6C64.4,93.9,64.3,93.8,64.2,93.8"/>
		<path id="패스_2027" class="st4" d="M60.3,90.9C60.2,90.9,60.2,90.9,60.3,90.9c-0.2,0.2-0.3,0.4-0.3,0.5s0.1,0.1,0.1,0.2v0.3
			c0,0.2,0.1,0.3,0.3,0.4h0.1c0.1,0,0.3-0.1,0.3-0.3v-0.2c0-0.1,0-0.2-0.1-0.3c0-0.1,0-0.2-0.1-0.3C60.5,90.9,60.4,90.9,60.3,90.9"
			/>
		<path id="패스_2028" class="st4" d="M63.2,87.3L63.2,87.3c-0.2,0.1-0.3,0.3-0.3,0.4c0.1,0,0.1,0.2,0.1,0.3v0.1
			c0,0.2,0.1,0.3,0.3,0.4h0.1c0.1,0,0.3-0.1,0.3-0.3v-0.1c0-0.2,0-0.4-0.1-0.6C63.4,87.4,63.3,87.3,63.2,87.3"/>
		<path id="패스_2029" class="st4" d="M62.6,92L62.6,92c-0.2,0.1-0.3,0.3-0.3,0.4c0.1,0.1,0.1,0.3,0.1,0.4v0.1
			c0,0.2,0.1,0.3,0.3,0.4h0.1c0.1,0,0.3-0.1,0.3-0.3v-0.1c0-0.2,0-0.4-0.1-0.6C62.9,92,62.8,92,62.6,92"/>
		<path id="패스_2030" class="st4" d="M61.7,85C61.6,85,61.6,85,61.7,85c-0.2,0.2-0.3,0.4-0.3,0.5c0.1,0.1,0.1,0.3,0.1,0.4V86
			c0,0.2,0.1,0.3,0.3,0.4h0.1c0.1,0,0.3-0.1,0.3-0.3V86c0-0.2,0-0.4-0.1-0.6C62,85.1,61.8,85,61.7,85"/>
		<path id="패스_2031" class="st4" d="M60.9,87.8C60.8,87.8,60.8,87.8,60.9,87.8c-0.2,0.2-0.3,0.4-0.3,0.5
			c0.1,0.1,0.1,0.3,0.1,0.4v0.1c0,0.2,0.1,0.3,0.3,0.4l0,0c0.1,0,0.3-0.1,0.3-0.3v-0.2c0-0.2,0-0.4-0.1-0.6
			C61.2,87.9,61.1,87.8,60.9,87.8"/>
		<path id="패스_2032" class="st4" d="M62.4,89.4C62.3,89.4,62.3,89.4,62.4,89.4c-0.2,0.2-0.3,0.4-0.3,0.5s0.1,0.1,0.1,0.2v0.3
			c0,0.2,0.1,0.3,0.3,0.4h0.1c0.1,0,0.3-0.1,0.3-0.3v-0.1c0-0.1,0-0.2-0.1-0.3c0-0.1,0-0.2-0.1-0.3C62.6,89.4,62.5,89.4,62.4,89.4"
			/>
		<path id="패스_2033" class="st4" d="M63.4,96L63.4,96c-0.2,0.1-0.3,0.3-0.3,0.4c0.1,0.1,0.1,0.3,0.1,0.4v0.1
			c0,0.2,0.1,0.3,0.3,0.4h0.1c0.1,0,0.3-0.1,0.3-0.3v-0.1c0-0.2,0-0.4-0.1-0.6C63.6,96.1,63.5,96,63.4,96"/>
		<path id="패스_2034" class="st4" d="M62.5,98.9L62.5,98.9c-0.2,0.1-0.3,0.3-0.3,0.4c0.1,0.1,0.1,0.3,0.1,0.4v0.1
			c0,0.2,0.1,0.3,0.3,0.4h0.1c0.1,0,0.3-0.1,0.3-0.3v-0.1c0-0.2,0-0.4-0.1-0.6C62.8,99,62.7,98.9,62.5,98.9"/>
		<path id="패스_2035" class="st4" d="M64.5,97.9C64.4,97.9,64.4,97.9,64.5,97.9c-0.2,0.2-0.3,0.4-0.3,0.5l0,0
			c0.1,0.1,0.1,0.3,0.1,0.4v0.1c0,0.2,0.1,0.3,0.3,0.4h0.1c0.1,0,0.3-0.1,0.3-0.3v-0.2c0-0.2,0-0.4-0.1-0.6
			C64.7,97.9,64.6,97.9,64.5,97.9"/>
		<path id="패스_2036" class="st4" d="M61,96.8C60.9,96.8,60.9,96.8,61,96.8c-0.2,0.2-0.3,0.4-0.3,0.5c0.1,0,0.1,0.2,0.1,0.3v0.1
			c0,0.2,0.1,0.3,0.3,0.4h0.1c0.1,0,0.3-0.1,0.3-0.3v-0.2c0-0.2,0-0.4-0.1-0.6C61.2,96.9,61.1,96.8,61,96.8"/>
		<path id="패스_2037" class="st2" d="M26.7,103.6c0,0,4.9,8.4,12.6,3.5l-1.1,8.4c0,0-10.4,4.5-15.1-8.4L26.7,103.6z"/>
		<path id="패스_2038" class="st4" d="M26.7,103.6"/>
		<path id="패스_2039" class="st4" d="M26.7,103.6L26.7,103.6 M26.7,103.6L26.7,103.6L26.7,103.6 M26.7,103.6
			c1,1.5,2.2,2.8,3.7,3.8l0,0C28.9,106.4,27.7,105.1,26.7,103.6 M23.1,107c0.7,2.1,1.8,4.1,3.3,5.8l0,0
			C24.9,111.1,23.8,109.1,23.1,107"/>
		<path id="패스_2040" class="st4" d="M26.7,103.6L26.7,103.6l-3.6,3.4c0.7,2.1,1.8,4.1,3.3,5.8l0.9-0.5c0.9-0.5,1.1-2.2,1.1-2.2
			c-0.1-1.3,0.8-2.4,2.1-2.6C28.9,106.4,27.7,105.1,26.7,103.6z"/>
		<path id="패스_2041" class="st3" d="M33.8,103.5l1.6,2.9l-3.6,3.4l-1.3-4.8c0.9-0.8,2-1.4,3.2-1.7L33.8,103.5z"/>
		<path id="패스_2042" class="st2" d="M35.4,106.4c0,0,4.9,8.4,12.6,3.5l-1.1,8.4c0,0-10.4,4.5-15.1-8.4L35.4,106.4z"/>
		<path id="패스_2043" class="st4" d="M35.5,106.4L35.5,106.4 M35.5,106.4L35.5,106.4z M35.5,106.4c0.4,0.7,0.8,1.3,1.4,1.8
			C36.3,107.7,35.8,107.1,35.5,106.4"/>
		<path id="패스_2044" class="st6" d="M36.8,108.3L36.8,108.3c0.4,0.4,0.9,0.9,1.4,1.3C37.7,109.2,37.2,108.7,36.8,108.3
			 M38.2,109.5L38.2,109.5 M38.2,109.5L38.2,109.5 M38.2,109.6L38.2,109.6 M31.8,109.8c0.7,2.1,1.8,4.1,3.3,5.8l0,0
			C33.7,113.9,32.6,112,31.8,109.8"/>
		<path id="패스_2045" class="st4" d="M35.4,106.4L35.4,106.4l-3.6,3.4c0.7,2.1,1.8,4.1,3.3,5.8l0.9-0.5c0.9-0.5,1.1-2.2,1.1-2.2
			c-0.1-1.3,0.8-2.4,2.1-2.6c-0.3-0.2-0.6-0.4-0.9-0.7l0,0c-0.5-0.4-0.9-0.8-1.4-1.3C36.3,107.8,35.8,107.1,35.4,106.4L35.4,106.4z"
			/>
		<path id="패스_2046" class="st4" d="M39.5,71.7c-4.3,3.7-7.1,4.2-7.1,4.2c0.6,2.3-1.9,4.7-2.6,5.4l-0.2,0.2
			c4.4-3.7,7.6-3.9,7.6-3.9C35.5,75.3,39.5,71.7,39.5,71.7"/>
		<path id="패스_2047" class="st3" d="M34.4,72.7c0,0.6-0.6,1.2-1.2,1.1c-0.6,0-1.1-0.5-1.1-1.1s0.5-1.2,1.2-1.2
			C33.8,71.5,34.4,72,34.4,72.7C34.4,72.6,34.4,72.7,34.4,72.7"/>
		<path id="패스_2048" class="st3" d="M43.2,77.1c0,0.7-0.6,1.3-1.3,1.3s-1.3-0.6-1.3-1.3c0-0.7,0.6-1.3,1.3-1.3
			C42.6,75.8,43.2,76.4,43.2,77.1"/>
		<path id="패스_2049" class="st3" d="M33.7,70.4c-0.1,0.2-0.1,0.4-0.2,0.7c0,0.3,0.1,0.6,0.3,0.8c0.2,0.3,0.6,0.6,1,0.8
			c0.2,0.1,0.4,0,0.5-0.2c0.1-0.2,0-0.4-0.2-0.5c-0.3-0.1-0.5-0.3-0.7-0.5c-0.1-0.1-0.1-0.3-0.2-0.5c0-0.1,0-0.2,0.1-0.3v-0.1l0,0
			l-0.2-0.1l0.2,0.1l0,0l-0.2-0.1l0.2,0.1c0.1-0.2,0-0.4-0.2-0.5C34,70.2,33.8,70.3,33.7,70.4"/>
		<path id="패스_2050" class="st3" d="M42.9,75.1l0.2,0.1L42.9,75.1L42.9,75.1l0.2,0.1L42.9,75.1L42.9,75.1l-0.2,0.2
			c-0.1,0.1-0.3,0.2-0.5,0.2c-0.3,0-0.6-0.1-0.8-0.3c-0.2-0.1-0.4,0-0.5,0.1c-0.1,0.2-0.1,0.4,0.1,0.5c0.4,0.3,0.8,0.4,1.2,0.4
			c0.3,0,0.7-0.1,1-0.3c0.1-0.1,0.2-0.2,0.3-0.4c0.1-0.2,0.1-0.4-0.1-0.5C43.2,74.9,43,74.9,42.9,75.1"/>
		<path id="패스_2051" class="st1" d="M14.6,84.8c-0.2,0.2-0.3,0.4-0.5,0.7c-0.3,0.5-0.4,1.1-0.5,1.7c0,0.5,0.1,1,0.4,1.5
			c0.1,0.2,0.4,0.3,0.6,0.2c0.2-0.1,0.3-0.4,0.2-0.6l0,0c-0.2-0.3-0.3-0.7-0.3-1c0-0.4,0.1-0.9,0.4-1.2c0.1-0.1,0.2-0.3,0.3-0.4
			s0.1-0.1,0.1-0.1l0,0l-0.1-0.1l0.1,0.1l0,0l-0.1-0.1l0.1,0.1c0.2-0.2,0.2-0.4,0-0.6C15,84.6,14.8,84.6,14.6,84.8L14.6,84.8"/>
		<path id="패스_2052" class="st1" d="M12.9,83.6c-0.3,0.3-0.5,0.7-0.7,1c-0.5,0.8-0.7,1.7-0.7,2.6c0,0.8,0.2,1.6,0.6,2.3
			c0.1,0.2,0.4,0.3,0.6,0.2c0.2-0.1,0.3-0.4,0.2-0.6c-0.3-0.6-0.5-1.2-0.5-1.8c0-0.8,0.2-1.5,0.6-2.1c0.2-0.3,0.3-0.5,0.4-0.7
			c0.1-0.1,0.2-0.1,0.2-0.2l0.1-0.1l0,0l-0.1-0.1l0.1,0.1l0,0l-0.1-0.1l0.1,0.1c0.2-0.2,0.2-0.4,0-0.6C13.3,83.4,13,83.4,12.9,83.6"
			/>
		<path id="패스_2053" class="st7" d="M21,62c0,0-0.5,5.8-4.3,5.9c0,0,3-0.2,4.3,4.7c0,0,0.7-4.3,4-4.7C25,67.9,20.2,67.8,21,62"
			/>
		<path id="패스_2054" class="st1" d="M43.8,68.5c-0.5,0-1-0.4-1-1v-0.6c0.1-2.1,0.8-3.6,3.6-3.6h2.8c0.5,0,1,0.4,1,1
			c0,0.5-0.4,1-1,1h-2.8c-1.3,0-1.6,0.2-1.7,1.7v0.5C44.8,68.1,44.4,68.5,43.8,68.5"/>
		<path id="패스_2055" class="st1" d="M41.2,67.5c-0.5,0-1-0.4-1-1V66c0-2.8,2.2-5.2,5.1-5.2c0.1,0,0.1,0,0.2,0h5.1
			c0.5,0,1,0.4,1,1s-0.4,1-1,1h-5c-1.8-0.1-3.3,1.3-3.4,3.1c0,0.1,0,0.2,0,0.3v0.5C42.2,67.1,41.8,67.5,41.2,67.5"/>
		<path id="패스_2056" class="st1" d="M38.7,66.5c-0.5,0-1-0.4-1-1v-0.3c0-3.8,3.1-7,7-7h7.5c0.5,0,1,0.4,1,1c0,0.5-0.4,0.9-0.9,1
			c0,0,0,0-0.1,0h-7.5c-2.8,0-5.1,2.3-5.1,5.1v0.3C39.7,66.1,39.2,66.5,38.7,66.5L38.7,66.5"/>
	</g>
</g>
</svg>
