<?xml version="1.0" encoding="utf-8"?>
<!-- Generator: Adobe Illustrator 28.2.0, SVG Export Plug-In . SVG Version: 6.00 Build 0)  -->
<svg version="1.1" id="레이어_1" xmlns="http://www.w3.org/2000/svg" xmlns:xlink="http://www.w3.org/1999/xlink" x="0px"
	 y="0px" viewBox="0 0 129 150" style="enable-background:new 0 0 129 150;" xml:space="preserve">
<style type="text/css">
	.st0{clip-path:url(#SVGID_00000183962946460422052450000011778279650930254775_);}
	.st1{clip-path:url(#SVGID_00000155861267091815961840000000791346082855966635_);fill:#DCD9DC;}
	.st2{clip-path:url(#SVGID_00000027573858109318312930000002601284364250313370_);}
	.st3{clip-path:url(#SVGID_00000014602023829201073610000010379369537926513075_);fill:#DCD9DC;}
	.st4{clip-path:url(#SVGID_00000139285931891004914070000006369940125359015344_);fill:#2B1B34;}
	.st5{fill:#143559;}
	.st6{clip-path:url(#SVGID_00000157296922554399164480000011400486842443306894_);fill:#2B1B34;}
	.st7{clip-path:url(#SVGID_00000157296922554399164480000011400486842443306894_);fill:#154D77;}
	.st8{clip-path:url(#SVGID_00000157296922554399164480000011400486842443306894_);fill:#BAD7E0;}
	.st9{clip-path:url(#SVGID_00000157296922554399164480000011400486842443306894_);fill:#E4F4FD;}
	.st10{clip-path:url(#SVGID_00000157296922554399164480000011400486842443306894_);fill:#E97158;}
	.st11{clip-path:url(#SVGID_00000157296922554399164480000011400486842443306894_);fill:#143559;}
	.st12{fill:#2B1B34;}
	.st13{fill:#E4F4FD;}
	.st14{fill:#E2F0F7;}
	.st15{fill:#6BC2B1;}
	.st16{fill:#FFFFFF;}
	.st17{fill:#BAE1E1;}
	.st18{fill:none;}
	.st19{fill:#707171;}
	.st20{clip-path:url(#SVGID_00000129169650158421027710000015028145840221956284_);fill:#707171;}
	.st21{clip-path:url(#SVGID_00000129169650158421027710000015028145840221956284_);fill:#FFFFFF;}
	.st22{fill:#8DA6A4;}
	.st23{clip-path:url(#SVGID_00000065767258680697219830000014736509746052163479_);fill:#FFFFFF;}
	.st24{clip-path:url(#SVGID_00000103971434917532829780000017040776300840951185_);fill:#FFFFFF;}
	.st25{clip-path:url(#SVGID_00000103971434917532829780000017040776300840951185_);fill:#6BC2B1;}
	.st26{clip-path:url(#SVGID_00000103971434917532829780000017040776300840951185_);fill:#E2F0F7;}
	.st27{clip-path:url(#SVGID_00000103971434917532829780000017040776300840951185_);fill:#707171;}
	.st28{clip-path:url(#SVGID_00000103971434917532829780000017040776300840951185_);fill:#2B1B34;}
	.st29{clip-path:url(#SVGID_00000103971434917532829780000017040776300840951185_);fill:#143559;}
	.st30{clip-path:url(#SVGID_00000103971434917532829780000017040776300840951185_);fill:#154D77;}
	.st31{clip-path:url(#SVGID_00000103971434917532829780000017040776300840951185_);fill:#9ABBE2;}
	.st32{clip-path:url(#SVGID_00000103971434917532829780000017040776300840951185_);fill:#BAE1E1;}
	.st33{clip-path:url(#SVGID_00000103971434917532829780000017040776300840951185_);fill:#DD5441;}
	.st34{clip-path:url(#SVGID_00000103971434917532829780000017040776300840951185_);fill:#C73F33;}
	.st35{clip-path:url(#SVGID_00000103971434917532829780000017040776300840951185_);fill:#43494F;}
	.st36{clip-path:url(#SVGID_00000103971434917532829780000017040776300840951185_);fill:#474647;}
	.st37{fill:none;stroke:#707171;stroke-width:0.1279;stroke-miterlimit:10;}
	.st38{clip-path:url(#SVGID_00000074426254168228481850000005471541647684192189_);fill:#707171;}
	.st39{clip-path:url(#SVGID_00000074426254168228481850000005471541647684192189_);fill:#BAE1E1;}
	.st40{clip-path:url(#SVGID_00000074426254168228481850000005471541647684192189_);fill:#FFFFFF;}
	.st41{clip-path:url(#SVGID_00000074426254168228481850000005471541647684192189_);}
</style>
<g>
	<g>
		<defs>
			<rect id="SVGID_1_" x="23.8" y="104.3" width="35.5" height="11.8"/>
		</defs>
		<clipPath id="SVGID_00000018212970799255557550000003131055517277898423_">
			<use xlink:href="#SVGID_1_"  style="overflow:visible;"/>
		</clipPath>
		<g style="clip-path:url(#SVGID_00000018212970799255557550000003131055517277898423_);">
			<g>
				<defs>
					<rect id="SVGID_00000034804188415247904080000012104107548363539595_" x="12.7" y="92.1" width="57.6" height="25.7"/>
				</defs>
				<clipPath id="SVGID_00000022522613799267607020000011360995493745947325_">
					<use xlink:href="#SVGID_00000034804188415247904080000012104107548363539595_"  style="overflow:visible;"/>
				</clipPath>
				<path style="clip-path:url(#SVGID_00000022522613799267607020000011360995493745947325_);fill:#DCD9DC;" d="M59.2,110.2
					c0,3.3-7.9,5.9-17.7,5.9s-17.7-2.6-17.7-5.9c0-3.3,7.9-5.9,17.7-5.9S59.2,106.9,59.2,110.2"/>
			</g>
		</g>
	</g>
	<g>
		<defs>
			<rect id="SVGID_00000176754649187214946900000006739304516455400358_" x="63.7" y="117.3" width="38.3" height="8"/>
		</defs>
		<clipPath id="SVGID_00000000205917875499419090000004710684374459242881_">
			<use xlink:href="#SVGID_00000176754649187214946900000006739304516455400358_"  style="overflow:visible;"/>
		</clipPath>
		<g style="clip-path:url(#SVGID_00000000205917875499419090000004710684374459242881_);">
			<g>
				<defs>
					<rect id="SVGID_00000023983948134279604410000008662341494129162657_" x="52.8" y="108.8" width="60" height="17.9"/>
				</defs>
				<clipPath id="SVGID_00000101074429072575504370000009333204625785502853_">
					<use xlink:href="#SVGID_00000023983948134279604410000008662341494129162657_"  style="overflow:visible;"/>
				</clipPath>
				<path style="clip-path:url(#SVGID_00000101074429072575504370000009333204625785502853_);fill:#DCD9DC;" d="M102,121.4
					c0,2.3-8.6,4.1-19.1,4.1c-10.6,0-19.1-1.8-19.1-4.1c0-2.3,8.6-4.1,19.1-4.1C93.4,117.3,102,119.1,102,121.4"/>
			</g>
		</g>
	</g>
	<g>
		<defs>
			<rect id="SVGID_00000070108183437617449190000000549499680027722915_" x="20.6" y="24.8" width="87.7" height="100.5"/>
		</defs>
		<clipPath id="SVGID_00000043433099333548131290000014835864347584791172_">
			<use xlink:href="#SVGID_00000070108183437617449190000000549499680027722915_"  style="overflow:visible;"/>
		</clipPath>
		<path style="clip-path:url(#SVGID_00000043433099333548131290000014835864347584791172_);fill:#2B1B34;" d="M38.8,64.1H44
			c1.2,0,2.3-1,2.3-2.3v0h-9.7C36.6,63.1,37.6,64.1,38.8,64.1"/>
		<path style="clip-path:url(#SVGID_00000043433099333548131290000014835864347584791172_);fill:#2B1B34;" d="M24.2,60l4.4-0.3
			l-0.5-7.3l-4.4,0.3c-1.1,0.1-2,1.1-1.9,2.2l0.2,3.3C22.1,59.2,23,60.1,24.2,60"/>
	</g>
	<polygon class="st5" points="41,45.8 41.5,47.5 41.8,47.4 41.3,45.8 	"/>
	<polygon class="st5" points="36.6,46.2 37.2,47.8 37.4,47.7 36.9,46.1 	"/>
	<g>
		<defs>
			<rect id="SVGID_00000127043048728325719450000001624354506248606654_" x="20.6" y="24.8" width="87.7" height="100.5"/>
		</defs>
		<clipPath id="SVGID_00000079459304902508368400000002406325535671119261_">
			<use xlink:href="#SVGID_00000127043048728325719450000001624354506248606654_"  style="overflow:visible;"/>
		</clipPath>
		<path style="clip-path:url(#SVGID_00000079459304902508368400000002406325535671119261_);fill:#2B1B34;" d="M35.4,46.5l6.5-0.5
			c0.3,0,0.6-0.3,0.6-0.6l-0.3-4.1c0-0.3-0.3-0.6-0.6-0.6L35,41.2c-0.3,0-0.6,0.3-0.6,0.6l0.3,4.1C34.8,46.2,35.1,46.5,35.4,46.5"/>
		<path style="clip-path:url(#SVGID_00000079459304902508368400000002406325535671119261_);fill:#154D77;" d="M29.5,63.2l18.8-1.3
			l-1-14.5l-19.1,1.4c-0.9,0.1-1.6,0.9-1.5,1.8l0.8,10.8C27.4,62.5,28.4,63.3,29.5,63.2"/>
		<path style="clip-path:url(#SVGID_00000079459304902508368400000002406325535671119261_);fill:#2B1B34;" d="M47.5,61.9l7.6-0.6
			c0.3,0,0.6-0.3,0.6-0.7l-0.9-13.2c0-0.4-0.3-0.6-0.7-0.6l-7.6,0.6c-0.3,0-0.6,0.3-0.6,0.7l0.9,13.2C46.8,61.7,47.1,62,47.5,61.9"
			/>
		<path style="clip-path:url(#SVGID_00000079459304902508368400000002406325535671119261_);fill:#BAD7E0;" d="M47.6,57.1l6.6-0.5
			c0.2,0,0.3-0.2,0.3-0.3L54,48.1c0-0.2-0.2-0.3-0.3-0.3L47,48.3c-0.2,0-0.3,0.2-0.3,0.3l0.5,8.1C47.3,56.9,47.4,57.1,47.6,57.1"/>
		<path style="clip-path:url(#SVGID_00000079459304902508368400000002406325535671119261_);fill:#E4F4FD;" d="M54,57.9
			c0,0.2,0.2,0.3,0.3,0.3c0.2,0,0.3-0.2,0.3-0.3c0-0.2-0.2-0.3-0.3-0.3C54.1,57.5,54,57.7,54,57.9"/>
		<path style="clip-path:url(#SVGID_00000079459304902508368400000002406325535671119261_);fill:#E4F4FD;" d="M52.8,58
			c0,0.2,0.2,0.3,0.3,0.3c0.2,0,0.3-0.2,0.3-0.3c0-0.2-0.2-0.3-0.3-0.3C52.9,57.6,52.8,57.8,52.8,58"/>
		<path style="clip-path:url(#SVGID_00000079459304902508368400000002406325535671119261_);fill:#E97158;" d="M47.9,58.3
			c0,0.2,0.2,0.3,0.3,0.3c0.2,0,0.3-0.2,0.3-0.3c0-0.2-0.2-0.3-0.3-0.3C48,58,47.9,58.1,47.9,58.3"/>
		<path style="clip-path:url(#SVGID_00000079459304902508368400000002406325535671119261_);fill:#143559;" d="M36.2,46.4l6.5-0.5
			c0.3,0,0.6-0.3,0.6-0.6L43,41.2c0-0.3-0.3-0.6-0.6-0.6l-6.5,0.5c-0.3,0-0.6,0.3-0.6,0.6l0.3,4.1C35.6,46.2,35.9,46.4,36.2,46.4"/>
		<path style="clip-path:url(#SVGID_00000079459304902508368400000002406325535671119261_);fill:#BAD7E0;" d="M36.4,45.8l6.1-0.4
			c0.1,0,0.2-0.1,0.2-0.2l-0.3-3.6c0-0.1-0.1-0.2-0.2-0.2l-6.1,0.4c-0.1,0-0.2,0.1-0.2,0.2l0.3,3.6C36.2,45.7,36.3,45.8,36.4,45.8"
			/>
		<path style="clip-path:url(#SVGID_00000079459304902508368400000002406325535671119261_);fill:#2B1B34;" d="M36.6,47.4l5.3-0.4
			c0.4,0,0.8,0.3,0.8,0.7l-6.9,0.5C35.8,47.8,36.1,47.4,36.6,47.4"/>
		<path style="clip-path:url(#SVGID_00000079459304902508368400000002406325535671119261_);fill:#154D77;" d="M22,62.6l1.7-0.1
			c0.3,0,0.6-0.3,0.5-0.6l-0.8-11.1c0-0.3-0.3-0.6-0.6-0.5l-1.7,0.1c-0.3,0-0.6,0.3-0.5,0.6l0.8,11.1C21.4,62.4,21.7,62.6,22,62.6"
			/>
		<path style="clip-path:url(#SVGID_00000079459304902508368400000002406325535671119261_);fill:#2B1B34;" d="M34.1,61.8l11.6-0.8
			c0.2,0,0.4-0.2,0.4-0.4l-0.2-2.9c0-0.2-0.2-0.4-0.4-0.4l-11.6,0.8c-0.2,0-0.4,0.2-0.4,0.4l0.2,2.9C33.7,61.6,33.9,61.8,34.1,61.8"
			/>
		<path style="clip-path:url(#SVGID_00000079459304902508368400000002406325535671119261_);fill:#2B1B34;" d="M40,56.7l5.2-0.4
			c0.1,0,0.2-0.1,0.2-0.2c0-0.1-0.1-0.2-0.2-0.2L40,56.2c-0.1,0-0.2,0.1-0.2,0.2C39.8,56.6,39.9,56.7,40,56.7"/>
		<path style="clip-path:url(#SVGID_00000079459304902508368400000002406325535671119261_);fill:#2B1B34;" d="M40,55.8l5.2-0.4
			c0.1,0,0.2-0.1,0.2-0.2c0-0.1-0.1-0.2-0.2-0.2l-5.2,0.4c-0.1,0-0.2,0.1-0.2,0.2C39.7,55.7,39.8,55.8,40,55.8"/>
		<path style="clip-path:url(#SVGID_00000079459304902508368400000002406325535671119261_);fill:#2B1B34;" d="M39.9,54.8l5.2-0.4
			c0.1,0,0.2-0.1,0.2-0.2c0-0.1-0.1-0.2-0.2-0.2l-5.2,0.4c-0.1,0-0.2,0.1-0.2,0.2C39.7,54.8,39.8,54.8,39.9,54.8"/>
		<path style="clip-path:url(#SVGID_00000079459304902508368400000002406325535671119261_);fill:#2B1B34;" d="M39.8,53.9l5.2-0.4
			c0.1,0,0.2-0.1,0.2-0.2c0-0.1-0.1-0.2-0.2-0.2l-5.2,0.4c-0.1,0-0.2,0.1-0.2,0.2C39.6,53.8,39.7,53.9,39.8,53.9"/>
		<path style="clip-path:url(#SVGID_00000079459304902508368400000002406325535671119261_);fill:#E4F4FD;" d="M44.6,58.5
			c0,0.2,0.2,0.3,0.3,0.3c0.2,0,0.3-0.2,0.3-0.3c0-0.2-0.2-0.3-0.3-0.3C44.7,58.2,44.6,58.4,44.6,58.5"/>
		<path style="clip-path:url(#SVGID_00000079459304902508368400000002406325535671119261_);fill:#E4F4FD;" d="M42.9,58.7
			c0,0.2,0.2,0.3,0.3,0.3c0.2,0,0.3-0.2,0.3-0.3c0-0.2-0.2-0.3-0.3-0.3C43.1,58.3,42.9,58.5,42.9,58.7"/>
		<path style="clip-path:url(#SVGID_00000079459304902508368400000002406325535671119261_);fill:#E4F4FD;" d="M41.3,58.8
			c0,0.2,0.2,0.3,0.3,0.3c0.2,0,0.3-0.2,0.3-0.3c0-0.2-0.2-0.3-0.3-0.3C41.4,58.4,41.3,58.6,41.3,58.8"/>
		<path style="clip-path:url(#SVGID_00000079459304902508368400000002406325535671119261_);fill:#E4F4FD;" d="M39.7,58.9
			c0,0.2,0.2,0.3,0.3,0.3c0.2,0,0.3-0.2,0.3-0.3c0-0.2-0.2-0.3-0.3-0.3C39.8,58.6,39.7,58.7,39.7,58.9"/>
		<path style="clip-path:url(#SVGID_00000079459304902508368400000002406325535671119261_);fill:#E97158;" d="M35.1,59.2
			c0,0.2,0.2,0.3,0.3,0.3c0.2,0,0.3-0.2,0.3-0.3c0-0.2-0.2-0.3-0.3-0.3C35.2,58.9,35.1,59,35.1,59.2"/>
	</g>
	<polygon class="st12" points="26,111.4 25.1,111.3 37.4,62.8 38.4,62.9 	"/>
	<polygon class="st12" points="57.2,111.4 58.2,111.3 45.8,62.8 44.9,62.9 	"/>
	<rect x="40.9" y="62.7" class="st12" width="1" height="44"/>
	<polygon class="st13" points="49.9,56.9 48,57 49.6,48.1 51.5,48 	"/>
	<polygon class="st13" points="51.7,56.8 50.8,56.8 52.4,47.9 53.3,47.9 	"/>
	<polygon class="st13" points="38,45.6 37,45.7 37.8,41.6 38.8,41.6 	"/>
	<polygon class="st13" points="40.2,41.5 39.4,45.5 40,45.5 40.8,41.4 40.8,41.4 	"/>
	<path class="st14" d="M64.9,48C64.9,48.1,64.8,48.1,64.9,48C64.8,48.1,64.8,48.1,64.9,48L64.9,48z"/>
	<path class="st15" d="M103.4,92.3L103.4,92.3c-0.4-0.2-0.8-0.1-1,0.2c-0.1,0.1-0.1,0.2-0.2,0.3l-0.1,0.2c-0.2,0.3-0.4,0.7-0.7,1
		c-0.3,0.4-0.6,0.9-0.9,1.4c-0.1,0.2-0.3,0.4-0.4,0.7c-0.1,0.3-0.3,0.5-0.4,0.8L99.5,97c-0.3,0.5-0.7,1-1,1.1
		c-0.3,0.1-0.9-0.3-1.2-0.5l-1-0.7c-0.3-0.2-0.8-0.2-1,0.2c-0.2,0.3-0.2,0.8,0.2,1.1l1,0.8c0.5,0.3,1.4,1,2.3,0.8
		c1-0.2,1.6-1.1,2-1.8l0.1-0.1c0.2-0.3,0.3-0.5,0.5-0.8c0.1-0.2,0.2-0.4,0.4-0.6c0.3-0.4,0.6-0.9,0.9-1.3c0.2-0.3,0.4-0.7,0.7-1
		l0.1-0.2c0.1-0.1,0.1-0.2,0.2-0.3C103.8,93,103.7,92.5,103.4,92.3"/>
	<path class="st15" d="M105.7,92.3c-0.3-0.2-0.8-0.1-1,0.2l-4,6.3c-0.2,0.3-0.5,0.6-0.7,0.8c-0.8,0.6-2.1,0.6-2.9,0.1l-1.8-1.2
		c-0.3-0.2-0.8-0.1-1,0.2c-0.2,0.3-0.1,0.8,0.2,1l1.8,1.2c1.4,0.9,3.3,0.9,4.6-0.1c0.4-0.3,0.7-0.7,1.1-1.2l4-6.3
		C106.1,92.9,106,92.5,105.7,92.3"/>
	<path class="st15" d="M108,92.2c-0.4-0.2-0.8-0.1-1,0.2l-4.9,7.7c-1.4,1.9-3.9,2.4-6,1.3l-1.5-1c-0.4-0.2-0.8-0.1-1,0.2
		c-0.2,0.4-0.1,0.8,0.2,1l1.6,1l0,0c2.8,1.5,6.1,0.8,7.9-1.7l0,0l4.9-7.7C108.5,92.9,108.4,92.5,108,92.2"/>
	<path class="st5" d="M76.8,37.5c0-3.1-1.9-5.6-4.2-5.7v0H70v0c-2.3,0.2-4.1,2.7-4.1,5.7c0,3,1.8,5.5,4.1,5.7v0h0.3l0,0c0,0,0,0,0,0
		h2l0,0l0,0h0.2v0C74.9,43,76.8,40.5,76.8,37.5"/>
	<path class="st16" d="M89,51.8C89,51.8,89,51.8,89,51.8c-0.2,0.1-0.3,0.2-0.2,0.3c0,0,0.1,0.2,0.1,0.3l0,0c0,0.1,0.1,0.2,0.2,0.3
		c0,0,0,0,0,0c0.1,0,0.2-0.1,0.2-0.2c0,0,0-0.1,0-0.1c0-0.2,0-0.3-0.1-0.4C89.2,51.9,89.1,51.8,89,51.8"/>
	<path class="st17" d="M96,90.7l-3.3-32c0,0-2.3-19.7-7.1-21.7c0,0,5.8-5.5,1.4-12.3c0,0-4.4,2.4-5.8,8c0,0-0.5,0.2-4.3,0h-0.1
		c-0.5,3.2-2.7,5.6-5.3,5.6c-0.9,0-1.7-0.3-2.4-0.7c-1.4,1.1-2.9,2.4-2.9,2.4c-4.5,3.8-6.6,6.9-9.7,11.4c-0.7,1-1,2.1-0.6,3.6
		c0.3,1.2,1.8,2.9,2.7,3.7c1.3,1.1,2.7,1.8,4.4,1.8c3.1,0,6.7-0.4,9.6-1.8c-0.1,0.1,0,0.1-0.4,2.5l-3.7,26.5c0,0-0.9,9.5,6.2,16.7
		l1.4,12h2.8l1.8-11.1l4.7-0.1l2.6,12.3h2.5l1.7-14.2C92.3,103.4,97.7,101.3,96,90.7"/>
	<path class="st15" d="M86.6,33.3c0,0,5.9,0,8.7,20.2c0,0,0.2,2.6,2.5,2.2c0.8-0.1,1.4,0.5,1.6,1.2c0.3,1.5-1.6,1.9-2.7,1.9
		c-0.3,0-0.7,0-1-0.1c-3.6-0.7-3.8-4.5-4.4-7.4c-0.7-3.5-1-7-2.7-10.2c-1-2-2.6-3.2-4.2-4.8L86.6,33.3z"/>
	<rect x="20.6" y="24.8" class="st18" width="87.7" height="100.5"/>
	<polygon class="st19" points="85.5,121.5 91.2,121.5 90.6,117.1 87.9,117 	"/>
	<g>
		<defs>
			<rect id="SVGID_00000104674120012106918070000002063749747093913988_" x="20.6" y="24.8" width="87.7" height="100.5"/>
		</defs>
		<clipPath id="SVGID_00000103233413730343992480000008301435979063581847_">
			<use xlink:href="#SVGID_00000104674120012106918070000002063749747093913988_"  style="overflow:visible;"/>
		</clipPath>
		<path style="clip-path:url(#SVGID_00000103233413730343992480000008301435979063581847_);fill:#707171;" d="M76.1,116.6l-2,3.6
			c0,0,3.6,0,5.4-0.2l-0.7-3.4H76.1z"/>
		<path style="clip-path:url(#SVGID_00000103233413730343992480000008301435979063581847_);fill:#FFFFFF;" d="M79.6,112.1l-0.7,4.5
			l0,0h0L79.6,112.1C79.6,112.1,79.6,112.1,79.6,112.1"/>
		<path style="clip-path:url(#SVGID_00000103233413730343992480000008301435979063581847_);fill:#FFFFFF;" d="M78.2,111.3
			c0,0-0.1,0-0.1,0c-0.1,0-0.3,0-0.4,0.1c-0.1,0.1-0.2,0.2-0.3,0.2c-0.1,0.1-0.3,0.2-0.4,0.2c-0.1,0-0.2,0-0.3,0
			c-0.2,0-0.5-0.1-0.7-0.2c-0.1-0.1-0.2-0.1-0.3-0.2c0,0-0.1-0.1-0.1-0.1l0.6,5.2h2.8l0.7-4.5c0,0-0.1-0.1-0.1-0.1
			c0,0-0.1-0.1-0.1-0.1c-0.1-0.1-0.1-0.1-0.2-0.2c-0.2-0.2-0.5-0.3-0.8-0.3C78.4,111.3,78.3,111.3,78.2,111.3"/>
	</g>
	<polygon class="st22" points="76.1,116.6 76.1,116.6 78.9,116.6 78.9,116.6 	"/>
	<g>
		<defs>
			<rect id="SVGID_00000005984062539692570110000009950107733856277134_" x="20.6" y="24.8" width="87.7" height="100.5"/>
		</defs>
		<clipPath id="SVGID_00000128446789992258699410000002785411332130974091_">
			<use xlink:href="#SVGID_00000005984062539692570110000009950107733856277134_"  style="overflow:visible;"/>
		</clipPath>
		<path style="clip-path:url(#SVGID_00000128446789992258699410000002785411332130974091_);fill:#FFFFFF;" d="M86.8,111.9l1.1,5.1
			l0,0l0,0L86.8,111.9C86.8,111.9,86.8,111.9,86.8,111.9"/>
		<path style="clip-path:url(#SVGID_00000128446789992258699410000002785411332130974091_);fill:#FFFFFF;" d="M91,111.3
			c-0.2,0-0.3,0.3-0.3,0.3c-0.2,0.5-0.4,0.6-0.6,0.6c-0.3,0-0.5-0.2-0.5-0.2c-0.2-0.4-0.4-0.5-0.6-0.5c-0.4,0-0.8,0.5-0.8,0.5
			c-0.2,0.3-0.5,0.4-0.7,0.4c-0.3,0-0.6-0.2-0.7-0.3l1.1,5l0,0l1.7,0.1l1,0l0.7-5.6C91.2,111.3,91.1,111.3,91,111.3"/>
	</g>
	<polygon class="st22" points="87.9,117 87.9,117 89.5,117.1 87.9,117 	"/>
	<g>
		<defs>
			<rect id="SVGID_00000142866282531933057070000012292726226463190161_" x="20.6" y="24.8" width="87.7" height="100.5"/>
		</defs>
		<clipPath id="SVGID_00000007422838152614334500000011702946671475716252_">
			<use xlink:href="#SVGID_00000142866282531933057070000012292726226463190161_"  style="overflow:visible;"/>
		</clipPath>
		<path style="clip-path:url(#SVGID_00000007422838152614334500000011702946671475716252_);fill:#FFFFFF;" d="M86.9,26.5
			c-2.6,2.5-3.1,8.8-1.8,8.8c0.2,0,0.5-0.2,0.9-0.7C88.6,30.9,86.9,26.5,86.9,26.5"/>
		<path style="clip-path:url(#SVGID_00000007422838152614334500000011702946671475716252_);fill:#6BC2B1;" d="M57.1,54.4l0-0.2
			c0-0.1,0.1-0.3,0.2-0.4c0.1-0.1,0.2-0.1,0.4-0.1l0,0c0.3,0,0.5,0.3,0.5,0.6l0,0l0,0.2c0,0.1,0.1,0.3,0.2,0.3
			c0.1,0,0.3-0.1,0.3-0.2l0-0.2v0c0,0,0,0,0-0.1c0-0.6-0.4-1.1-1-1.1c0,0,0,0-0.1,0c-0.3,0-0.6,0.1-0.8,0.3
			c-0.2,0.2-0.3,0.4-0.4,0.7l0,0.2c0,0.1,0.1,0.3,0.2,0.3C57,54.7,57.1,54.6,57.1,54.4"/>
		<path style="clip-path:url(#SVGID_00000007422838152614334500000011702946671475716252_);fill:#6BC2B1;" d="M60.2,55.4l0.1-0.2
			c0.1-0.1,0.2-0.2,0.3-0.2c0.1,0,0.3,0,0.4,0l0,0c0.3,0.2,0.3,0.5,0.2,0.7l0,0L61.1,56c-0.1,0.1,0,0.3,0.1,0.4
			c0.1,0.1,0.3,0,0.4-0.1l0.1-0.2v0l0-0.1c0.3-0.5,0.1-1.1-0.4-1.5l-0.1,0c-0.3-0.1-0.5-0.2-0.8-0.1c-0.3,0.1-0.5,0.2-0.7,0.5
			l-0.1,0.2c-0.1,0.1,0,0.3,0.1,0.4C59.9,55.6,60.1,55.6,60.2,55.4"/>
		<path style="clip-path:url(#SVGID_00000007422838152614334500000011702946671475716252_);fill:#FFFFFF;" d="M70.6,88.2
			C70.6,88.2,70.6,88.2,70.6,88.2c-0.2,0-0.2,0.1-0.2,0.3c0,0.1,0,0.2,0.1,0.3c0,0.1,0.1,0.2,0.1,0.2c0,0.1,0.1,0.1,0.2,0.1
			c0,0,0.1,0,0.1-0.1c0.1-0.1,0.1-0.2,0-0.3c0,0-0.1-0.1-0.1-0.1c0-0.1,0-0.1,0-0.1C70.8,88.3,70.7,88.2,70.6,88.2"/>
		<path style="clip-path:url(#SVGID_00000007422838152614334500000011702946671475716252_);fill:#FFFFFF;" d="M70.2,85.5
			C70.2,85.5,70.2,85.5,70.2,85.5c-0.2,0-0.2,0.1-0.2,0.3c0,0.1,0,0.2,0.1,0.3c0,0.1,0.1,0.2,0.1,0.2c0,0.1,0.1,0.1,0.2,0.1
			c0,0,0.1,0,0.1,0c0.1-0.1,0.1-0.2,0-0.3c0,0-0.1-0.1-0.1-0.1c0-0.1,0-0.1,0-0.1C70.5,85.6,70.4,85.5,70.2,85.5"/>
		<path style="clip-path:url(#SVGID_00000007422838152614334500000011702946671475716252_);fill:#FFFFFF;" d="M72.4,93.8
			C72.4,93.8,72.4,93.8,72.4,93.8c-0.2,0-0.2,0.1-0.2,0.3c0,0.1,0,0.2,0.1,0.3c0,0.1,0.1,0.2,0.1,0.2c0,0.1,0.1,0.1,0.2,0.1
			c0,0,0.1,0,0.1-0.1c0.1-0.1,0.1-0.2,0-0.3c0,0-0.1-0.1-0.1-0.1c0-0.1,0-0.1,0-0.1C72.7,93.8,72.6,93.8,72.4,93.8"/>
		<path style="clip-path:url(#SVGID_00000007422838152614334500000011702946671475716252_);fill:#FFFFFF;" d="M73.6,95.8
			C73.6,95.8,73.5,95.8,73.6,95.8c-0.2,0-0.2,0.1-0.2,0.3c0,0.1,0,0.2,0.1,0.3c0,0.1,0.1,0.2,0.1,0.2c0,0.1,0.1,0.1,0.2,0.1
			c0,0,0.1,0,0.1,0c0.1-0.1,0.1-0.2,0-0.3c0,0-0.1-0.1-0.1-0.1c0-0.1,0-0.1,0-0.1C73.8,95.8,73.7,95.8,73.6,95.8"/>
		<path style="clip-path:url(#SVGID_00000007422838152614334500000011702946671475716252_);fill:#FFFFFF;" d="M72.5,97.2
			C72.5,97.2,72.5,97.2,72.5,97.2c-0.2,0-0.2,0.1-0.2,0.3c0,0.1,0,0.2,0.1,0.3c0,0.1,0.1,0.2,0.1,0.2c0,0.1,0.1,0.1,0.2,0.1
			c0,0,0.1,0,0.1,0c0.1-0.1,0.1-0.2,0-0.3c0,0-0.1-0.1-0.1-0.1c0-0.1,0-0.1,0-0.1C72.7,97.3,72.6,97.2,72.5,97.2"/>
		<path style="clip-path:url(#SVGID_00000007422838152614334500000011702946671475716252_);fill:#FFFFFF;" d="M71.6,95.4
			C71.6,95.4,71.6,95.4,71.6,95.4c-0.2,0-0.2,0.1-0.2,0.3c0,0.1,0,0.2,0.1,0.3c0,0.1,0.1,0.2,0.1,0.2c0,0.1,0.1,0.1,0.2,0.1
			c0,0,0.1,0,0.1-0.1c0.1-0.1,0.1-0.2,0-0.3c0,0-0.1-0.1-0.1-0.1c0-0.1,0-0.1,0-0.1C71.9,95.5,71.8,95.4,71.6,95.4"/>
		<path style="clip-path:url(#SVGID_00000007422838152614334500000011702946671475716252_);fill:#FFFFFF;" d="M73.5,92.7
			C73.5,92.7,73.5,92.7,73.5,92.7c-0.2,0-0.2,0.1-0.2,0.3c0,0.1,0,0.2,0.1,0.3c0,0.1,0.1,0.2,0.1,0.2c0,0.1,0.1,0.1,0.2,0.1
			c0,0,0.1,0,0.1,0c0.1-0.1,0.1-0.2,0-0.3c0,0-0.1-0.1-0.1-0.1c0-0.1,0-0.1,0-0.1C73.7,92.8,73.6,92.7,73.5,92.7"/>
		<path style="clip-path:url(#SVGID_00000007422838152614334500000011702946671475716252_);fill:#FFFFFF;" d="M70.3,92.5
			C70.3,92.5,70.3,92.5,70.3,92.5c-0.2,0-0.2,0.1-0.2,0.3c0,0.1,0,0.2,0.1,0.3c0,0.1,0.1,0.2,0.1,0.2c0,0.1,0.1,0.1,0.2,0.1
			c0,0,0.1,0,0.1,0c0.1-0.1,0.1-0.2,0-0.3c0,0-0.1-0.1-0.1-0.1c0-0.1,0-0.1,0-0.1C70.5,92.6,70.4,92.5,70.3,92.5"/>
		<path style="clip-path:url(#SVGID_00000007422838152614334500000011702946671475716252_);fill:#FFFFFF;" d="M70.4,90.2
			C70.4,90.2,70.4,90.2,70.4,90.2c-0.2,0-0.2,0.1-0.2,0.3c0,0.1,0,0.2,0.1,0.3c0,0.1,0.1,0.2,0.1,0.2c0,0.1,0.1,0.1,0.2,0.1
			c0,0,0.1,0,0.1,0c0.1-0.1,0.1-0.2,0-0.3c0,0-0.1-0.1-0.1-0.1c0-0.1,0-0.1,0-0.1C70.6,90.3,70.5,90.2,70.4,90.2"/>
		<path style="clip-path:url(#SVGID_00000007422838152614334500000011702946671475716252_);fill:#FFFFFF;" d="M71.9,87
			C71.9,87,71.9,87,71.9,87c-0.2,0-0.2,0.1-0.2,0.3c0,0.1,0,0.2,0.1,0.3c0,0.1,0.1,0.2,0.1,0.2c0,0.1,0.1,0.1,0.2,0.1
			c0,0,0.1,0,0.1,0c0.1-0.1,0.1-0.2,0-0.3c0,0-0.1-0.1-0.1-0.1c0-0.1,0-0.1,0-0.1C72.1,87.1,72,87,71.9,87"/>
		<path style="clip-path:url(#SVGID_00000007422838152614334500000011702946671475716252_);fill:#FFFFFF;" d="M71.9,91.5
			C71.9,91.5,71.9,91.5,71.9,91.5c-0.2,0-0.2,0.1-0.2,0.3c0,0.1,0,0.2,0.1,0.3c0,0.1,0.1,0.2,0.1,0.2c0,0.1,0.1,0.1,0.2,0.1
			c0,0,0.1,0,0.1,0c0.1-0.1,0.1-0.2,0-0.3c0,0-0.1-0.1-0.1-0.1c0-0.1,0-0.1,0-0.1C72.1,91.6,72,91.5,71.9,91.5"/>
		<path style="clip-path:url(#SVGID_00000007422838152614334500000011702946671475716252_);fill:#FFFFFF;" d="M89.8,101
			c-0.1,0-0.2,0.1-0.2,0.2c0,0,0,0.1,0,0.1c0,0.1-0.1,0.1-0.1,0.1c-0.1,0.1-0.1,0.2,0,0.3c0,0,0.1,0,0.1,0c0.1,0,0.1,0,0.2-0.1
			c0.1-0.1,0.1-0.1,0.1-0.2c0-0.1,0.1-0.2,0.1-0.3C90.1,101.2,90,101.1,89.8,101L89.8,101z"/>
		<path style="clip-path:url(#SVGID_00000007422838152614334500000011702946671475716252_);fill:#FFFFFF;" d="M89.1,99.2
			c-0.1,0-0.2,0.1-0.2,0.2c0,0,0,0.1,0,0.1c0,0.1-0.1,0.1-0.1,0.1c-0.1,0.1-0.1,0.2,0,0.3c0,0,0.1,0,0.1,0c0.1,0,0.1,0,0.2-0.1
			c0-0.1,0.1-0.1,0.1-0.2c0-0.1,0.1-0.2,0.1-0.3C89.4,99.4,89.3,99.3,89.1,99.2C89.1,99.2,89.1,99.2,89.1,99.2"/>
		<path style="clip-path:url(#SVGID_00000007422838152614334500000011702946671475716252_);fill:#FFFFFF;" d="M92.8,97.4
			c-0.1,0-0.2,0.1-0.2,0.2c0,0,0,0.1,0,0.1c0,0.1-0.1,0.1-0.1,0.1c-0.1,0.1-0.1,0.2,0,0.3c0,0,0.1,0,0.1,0c0.1,0,0.1,0,0.2-0.1
			c0.1-0.1,0.1-0.1,0.1-0.2c0-0.1,0.1-0.2,0.1-0.3C93.1,97.6,93,97.5,92.8,97.4C92.9,97.4,92.8,97.4,92.8,97.4"/>
		<path style="clip-path:url(#SVGID_00000007422838152614334500000011702946671475716252_);fill:#FFFFFF;" d="M91.6,99.8
			c-0.1,0-0.2,0.1-0.2,0.2c0,0,0,0.1,0,0.1c0,0.1-0.1,0.1-0.1,0.1c-0.1,0.1-0.1,0.2,0,0.3c0,0,0.1,0,0.1,0c0.1,0,0.1,0,0.2-0.1
			c0.1-0.1,0.1-0.1,0.1-0.2c0-0.1,0.1-0.2,0.1-0.3C91.8,99.9,91.7,99.8,91.6,99.8C91.6,99.8,91.6,99.8,91.6,99.8"/>
		<path style="clip-path:url(#SVGID_00000007422838152614334500000011702946671475716252_);fill:#FFFFFF;" d="M91.1,98.3
			c-0.1,0-0.2,0.1-0.2,0.2c0,0,0,0.1,0,0.1c0,0.1-0.1,0.1-0.1,0.1c-0.1,0.1-0.1,0.2,0,0.3c0,0,0.1,0,0.1,0c0.1,0,0.1,0,0.2-0.1
			c0.1-0.1,0.1-0.1,0.1-0.2c0-0.1,0.1-0.2,0.1-0.3C91.4,98.5,91.3,98.3,91.1,98.3C91.2,98.3,91.1,98.3,91.1,98.3"/>
		<path style="clip-path:url(#SVGID_00000007422838152614334500000011702946671475716252_);fill:#FFFFFF;" d="M93.1,99.2
			c-0.1,0-0.2,0.1-0.2,0.2c0,0,0,0.1,0,0.1c0,0.1-0.1,0.1-0.1,0.1c-0.1,0.1-0.1,0.2,0,0.3c0,0,0.1,0,0.1,0c0.1,0,0.1,0,0.2-0.1
			c0.1-0.1,0.1-0.1,0.1-0.2c0-0.1,0.1-0.2,0.1-0.3C93.4,99.4,93.3,99.3,93.1,99.2C93.2,99.2,93.1,99.2,93.1,99.2"/>
		<path style="clip-path:url(#SVGID_00000007422838152614334500000011702946671475716252_);fill:#FFFFFF;" d="M91,102
			c-0.1,0-0.2,0.1-0.2,0.2c0,0,0,0.1,0,0.1c0,0.1-0.1,0.1-0.1,0.1c-0.1,0.1-0.1,0.2,0,0.3c0,0,0.1,0,0.1,0c0.1,0,0.1,0,0.2-0.1
			c0.1-0.1,0.1-0.1,0.1-0.2c0-0.1,0.1-0.2,0.1-0.3C91.2,102.1,91.1,102,91,102C91,102,91,102,91,102"/>
		<path style="clip-path:url(#SVGID_00000007422838152614334500000011702946671475716252_);fill:#FFFFFF;" d="M91,63.6
			C91,63.6,90.9,63.6,91,63.6c-0.2,0.1-0.3,0.2-0.2,0.3c0,0,0.1,0.2,0.1,0.3l0,0c0,0.1,0.1,0.2,0.2,0.3c0,0,0,0,0,0
			c0.1,0,0.2-0.1,0.2-0.2c0,0,0-0.1,0-0.1c0-0.2,0-0.3-0.1-0.4C91.2,63.7,91.1,63.6,91,63.6"/>
		<path style="clip-path:url(#SVGID_00000007422838152614334500000011702946671475716252_);fill:#FFFFFF;" d="M88.5,58.6
			C88.5,58.6,88.5,58.6,88.5,58.6c-0.2,0.1-0.3,0.2-0.2,0.3c0,0,0.1,0.2,0,0.3l0,0c0,0.1,0.1,0.2,0.2,0.3c0,0,0,0,0,0
			c0.1,0,0.2-0.1,0.2-0.2c0,0,0-0.1,0-0.1c0-0.2,0-0.3-0.1-0.4C88.7,58.6,88.6,58.6,88.5,58.6"/>
		<path style="clip-path:url(#SVGID_00000007422838152614334500000011702946671475716252_);fill:#FFFFFF;" d="M90.9,58.6
			C90.9,58.6,90.8,58.6,90.9,58.6c-0.2,0.1-0.3,0.2-0.2,0.3c0,0,0.1,0.2,0,0.3l0,0c0,0.1,0.1,0.2,0.2,0.3c0,0,0,0,0,0
			c0.1,0,0.2-0.1,0.2-0.2c0,0,0-0.1,0-0.1c0-0.2,0-0.3-0.1-0.4C91.1,58.6,91,58.6,90.9,58.6"/>
		<path style="clip-path:url(#SVGID_00000007422838152614334500000011702946671475716252_);fill:#FFFFFF;" d="M87.9,56.3
			C87.9,56.3,87.9,56.3,87.9,56.3c-0.2,0.1-0.3,0.2-0.2,0.3c0,0,0,0.1,0,0.1c0,0,0,0.1,0,0.1l0,0c0,0.1,0.1,0.2,0.2,0.3c0,0,0,0,0,0
			c0.1,0,0.2-0.1,0.2-0.2c0,0,0-0.1,0-0.1c0-0.1,0-0.2,0-0.2c0-0.1,0-0.1-0.1-0.2C88.1,56.4,88,56.3,87.9,56.3"/>
		<path style="clip-path:url(#SVGID_00000007422838152614334500000011702946671475716252_);fill:#FFFFFF;" d="M90.1,53.6
			C90.1,53.6,90.1,53.6,90.1,53.6c-0.2,0.1-0.3,0.2-0.2,0.3c0,0,0.1,0.2,0.1,0.3l0,0c0,0.1,0.1,0.2,0.2,0.3c0,0,0,0,0,0
			c0.1,0,0.2-0.1,0.2-0.2c0,0,0-0.1,0-0.1c0-0.2,0-0.3-0.1-0.4C90.3,53.6,90.2,53.6,90.1,53.6"/>
		<path style="clip-path:url(#SVGID_00000007422838152614334500000011702946671475716252_);fill:#FFFFFF;" d="M89.7,57.2
			C89.7,57.2,89.7,57.2,89.7,57.2c-0.2,0.1-0.3,0.2-0.2,0.3c0,0,0.1,0.2,0.1,0.3l0,0c0,0.1,0.1,0.2,0.2,0.3c0,0,0,0,0,0
			c0.1,0,0.2-0.1,0.2-0.2c0,0,0-0.1,0-0.1c0-0.2,0-0.3-0.1-0.4C89.9,57.2,89.8,57.2,89.7,57.2"/>
		<path style="clip-path:url(#SVGID_00000007422838152614334500000011702946671475716252_);fill:#FFFFFF;" d="M88.4,54
			C88.4,54,88.4,54,88.4,54c-0.2,0.1-0.3,0.2-0.2,0.3c0,0,0.1,0.2,0.1,0.3l0,0c0,0.1,0.1,0.2,0.2,0.3c0,0,0,0,0,0
			c0.1,0,0.2-0.1,0.2-0.2c0,0,0-0.1,0-0.1c0-0.2,0-0.3-0.1-0.4C88.6,54,88.5,54,88.4,54"/>
		<path style="clip-path:url(#SVGID_00000007422838152614334500000011702946671475716252_);fill:#FFFFFF;" d="M89.5,55.2
			C89.5,55.2,89.5,55.2,89.5,55.2c-0.2,0.1-0.3,0.2-0.2,0.3c0,0,0,0.1,0,0.1c0,0,0,0.1,0,0.1l0,0c0,0.1,0.1,0.2,0.2,0.3c0,0,0,0,0,0
			c0.1,0,0.2-0.1,0.2-0.2c0,0,0-0.1,0-0.1c0-0.1,0-0.2,0-0.2c0-0.1,0-0.1-0.1-0.2C89.7,55.2,89.6,55.2,89.5,55.2"/>
		<path style="clip-path:url(#SVGID_00000007422838152614334500000011702946671475716252_);fill:#FFFFFF;" d="M90.3,60.3
			C90.3,60.3,90.2,60.3,90.3,60.3c-0.2,0.1-0.3,0.2-0.2,0.3c0,0,0.1,0.2,0.1,0.3l0,0c0,0.1,0.1,0.2,0.2,0.3c0,0,0,0,0,0
			c0.1,0,0.2-0.1,0.2-0.2c0,0,0-0.1,0-0.1c0-0.2,0-0.3-0.1-0.4C90.5,60.3,90.4,60.3,90.3,60.3"/>
		<path style="clip-path:url(#SVGID_00000007422838152614334500000011702946671475716252_);fill:#FFFFFF;" d="M89.6,62.5
			C89.6,62.5,89.6,62.5,89.6,62.5c-0.2,0.1-0.3,0.2-0.2,0.3c0,0,0.1,0.2,0.1,0.3l0,0c0,0.1,0.1,0.2,0.2,0.3c0,0,0,0,0,0
			c0.1,0,0.2-0.1,0.2-0.2c0,0,0-0.1,0-0.1c0-0.2,0-0.3-0.1-0.4C89.8,62.5,89.7,62.5,89.6,62.5"/>
		<path style="clip-path:url(#SVGID_00000007422838152614334500000011702946671475716252_);fill:#FFFFFF;" d="M91.2,61.7
			C91.1,61.7,91.1,61.7,91.2,61.7c-0.2,0.1-0.3,0.2-0.2,0.3c0,0,0.1,0.2,0.1,0.3l0,0c0,0.1,0.1,0.2,0.2,0.3c0,0,0,0,0,0
			c0.1,0,0.2-0.1,0.2-0.2c0,0,0-0.1,0-0.1c0-0.2,0-0.3-0.1-0.4C91.3,61.8,91.2,61.7,91.2,61.7"/>
		<path style="clip-path:url(#SVGID_00000007422838152614334500000011702946671475716252_);fill:#FFFFFF;" d="M88.5,60.9
			C88.4,60.9,88.4,60.9,88.5,60.9c-0.2,0.1-0.3,0.2-0.2,0.3c0,0,0.1,0.2,0.1,0.3l0,0c0,0.1,0.1,0.2,0.2,0.3c0,0,0,0,0,0
			c0.1,0,0.2-0.1,0.2-0.2c0,0,0-0.1,0-0.1c0-0.2,0-0.3-0.1-0.4C88.6,60.9,88.6,60.9,88.5,60.9"/>
		<path style="clip-path:url(#SVGID_00000007422838152614334500000011702946671475716252_);fill:#E2F0F7;" d="M66.1,70.9
			c0.7,2,1.6,3.4,2.5,4.4h0C67.7,74.3,66.8,72.8,66.1,70.9 M71,70.7C71,70.7,71,70.7,71,70.7C71,70.7,71,70.7,71,70.7 M71,70.7
			C71,70.7,71,70.7,71,70.7C71,70.7,71,70.7,71,70.7 M71,70.7C71,70.7,71,70.7,71,70.7C71,70.7,71,70.7,71,70.7 M69.9,69.7
			L69.9,69.7c0.3,0.3,0.6,0.7,1,1C70.6,70.3,70.2,70,69.9,69.7"/>
		<path style="clip-path:url(#SVGID_00000007422838152614334500000011702946671475716252_);fill:#FFFFFF;" d="M72,41.7
			c-3.3,2.8-5.5,3.2-5.5,3.2c0.5,1.8-1.5,3.6-2,4.2c-0.1,0.1-0.1,0.1-0.1,0.1c3.4-2.8,5.8-3,5.8-3C68.9,44.4,72,41.7,72,41.7"/>
		<path style="clip-path:url(#SVGID_00000007422838152614334500000011702946671475716252_);fill:#707171;" d="M68.1,42.4
			c0,0.5-0.4,0.9-0.9,0.9c-0.5,0-0.9-0.4-0.9-0.9c0-0.5,0.4-0.9,0.9-0.9C67.7,41.5,68.1,41.9,68.1,42.4"/>
		<path style="clip-path:url(#SVGID_00000007422838152614334500000011702946671475716252_);fill:#707171;" d="M74.8,45.8
			c0,0.5-0.4,1-1,1c-0.5,0-1-0.4-1-1c0-0.6,0.4-1,1-1C74.4,44.8,74.8,45.2,74.8,45.8"/>
		<path style="clip-path:url(#SVGID_00000007422838152614334500000011702946671475716252_);fill:#707171;" d="M67.6,40.7
			c0,0-0.1,0.2-0.1,0.5c0,0.2,0,0.4,0.2,0.6c0.1,0.2,0.4,0.4,0.7,0.6c0.1,0.1,0.3,0,0.3-0.1c0.1-0.1,0-0.3-0.1-0.3
			c-0.3-0.1-0.4-0.3-0.5-0.4C68,41.4,68,41.3,68,41.2c0-0.1,0-0.2,0-0.2c0,0,0,0,0-0.1l0,0h0l-0.1-0.1l0.1,0.1l0,0l-0.1-0.1l0.1,0.1
			c0.1-0.1,0-0.3-0.1-0.3C67.8,40.5,67.6,40.5,67.6,40.7"/>
		<path style="clip-path:url(#SVGID_00000007422838152614334500000011702946671475716252_);fill:#707171;" d="M74.6,44.3l0.1,0.1
			L74.6,44.3L74.6,44.3l0.1,0.1L74.6,44.3L74.6,44.3c0,0-0.1,0.1-0.2,0.2c-0.1,0.1-0.2,0.1-0.4,0.1c-0.2,0-0.4-0.1-0.6-0.2
			c-0.1-0.1-0.3-0.1-0.3,0.1c-0.1,0.1,0,0.3,0.1,0.4c0.3,0.2,0.6,0.3,0.9,0.3c0.3,0,0.6-0.1,0.7-0.3c0.2-0.1,0.2-0.2,0.2-0.3
			c0.1-0.1,0-0.3-0.1-0.3C74.8,44.1,74.7,44.1,74.6,44.3"/>
		<path style="clip-path:url(#SVGID_00000007422838152614334500000011702946671475716252_);fill:#2B1B34;" d="M86.2,37.5
			c-0.7,0-1.2-0.5-1.2-1.2c0-3.7-3.1-6.7-6.8-6.7c-3.8,0-6.8,3-6.8,6.7c0,0.7-0.6,1.2-1.2,1.2c-0.7,0-1.2-0.5-1.2-1.2
			c0-5,4.2-9.1,9.3-9.1s9.3,4.1,9.3,9.1C87.4,37,86.9,37.5,86.2,37.5"/>
		<path style="clip-path:url(#SVGID_00000007422838152614334500000011702946671475716252_);fill:#143559;" d="M90.3,37.5
			c0,3.2-2,5.7-4.4,5.7c-2.4,0-4.4-2.6-4.4-5.7c0-3.2,2-5.7,4.4-5.7C88.3,31.7,90.3,34.3,90.3,37.5"/>
		<path style="clip-path:url(#SVGID_00000007422838152614334500000011702946671475716252_);fill:#154D77;" d="M92.3,37.5
			c0-3.1-1.9-5.6-4.2-5.7v0h-2.6v0c-2.3,0.2-4.1,2.7-4.1,5.7c0,3,1.8,5.5,4.1,5.7v0h0.3h0h0h2h0h0h0.2v0
			C90.4,43,92.3,40.5,92.3,37.5"/>
		<path style="clip-path:url(#SVGID_00000007422838152614334500000011702946671475716252_);fill:#9ABBE2;" d="M91,37.4
			c0,2.1-1.3,3.8-2.9,3.8c-1.6,0-2.9-1.7-2.9-3.8c0-2.1,1.3-3.8,2.9-3.8C89.7,33.6,91,35.3,91,37.4"/>
		<path style="clip-path:url(#SVGID_00000007422838152614334500000011702946671475716252_);fill:#154D77;" d="M91,37.3
			c0,1.8-1.1,3.3-2.6,3.3c-1.4,0-2.6-1.5-2.6-3.3c0-1.8,1.1-3.3,2.6-3.3C89.8,34,91,35.5,91,37.3"/>
		<path style="clip-path:url(#SVGID_00000007422838152614334500000011702946671475716252_);fill:#BAE1E1;" d="M76.8,32.8h-1.2
			c0,0-1.1-4.4-6.5-6.4c0,0-0.1,3.7,2.1,9.7c0-0.1-1.1,0.7-2.2,1.6c0.7,0.5,1.5,0.7,2.4,0.7C74.1,38.4,76.2,36,76.8,32.8"/>
		<path style="clip-path:url(#SVGID_00000007422838152614334500000011702946671475716252_);fill:#6BC2B1;" d="M75.3,39.2
			c-0.4,0-0.7-0.3-0.7-0.7v-0.4l0,0c0.1-1.6,0.6-2.7,2.8-2.7h2.1c0.4,0,0.7,0.3,0.7,0.7c0,0.4-0.3,0.7-0.7,0.7h-2.1
			c-1,0-1.2,0.1-1.3,1.3v0.4C76.1,38.9,75.7,39.2,75.3,39.2"/>
		<path style="clip-path:url(#SVGID_00000007422838152614334500000011702946671475716252_);fill:#6BC2B1;" d="M73.3,38.5
			c-0.4,0-0.7-0.3-0.7-0.7v-0.4l0-0.1c0.2-2.4,1.7-3.9,4.1-4h3.9c0.4,0,0.7,0.3,0.7,0.7c0,0.4-0.3,0.7-0.7,0.7h-3.9
			c-2,0.1-2.5,1.4-2.6,2.6v0.4C74.1,38.1,73.7,38.5,73.3,38.5"/>
		<path style="clip-path:url(#SVGID_00000007422838152614334500000011702946671475716252_);fill:#6BC2B1;" d="M71.4,37.6
			c-0.4,0-0.7-0.3-0.7-0.7v-0.2c0-3,2.4-5.4,5.4-5.4h5.8c0.4,0,0.7,0.3,0.7,0.7c0,0.4-0.3,0.7-0.7,0.7H76c-2.1,0-3.9,1.7-3.9,3.9
			v0.2C72.1,37.3,71.8,37.6,71.4,37.6"/>
		<path style="clip-path:url(#SVGID_00000007422838152614334500000011702946671475716252_);fill:#DD5441;" d="M58.6,72.8
			c0.2,0.7,0.8,1.1,1.5,0.9c0.7-0.2,1.1-0.9,0.9-1.5l-2.2-8.2c-0.2-0.7-0.9-1.1-1.5-0.9c-0.7,0.2-1,0.9-0.9,1.5L58.6,72.8z"/>
		<path style="clip-path:url(#SVGID_00000007422838152614334500000011702946671475716252_);fill:#DD5441;" d="M46.9,67.5
			c0.1,0.5,0.7,0.8,1.2,0.7l4-1.1c0.5-0.1,0.8-0.7,0.7-1.2l-0.1-0.5c-0.1-0.5-0.6-0.8-1.2-0.7l-4,1.1C47,66,46.7,66.5,46.8,67
			L46.9,67.5z"/>
		<path style="clip-path:url(#SVGID_00000007422838152614334500000011702946671475716252_);fill:#C73F33;" d="M58.7,60.6
			c0.5-0.1,1,0.2,1.1,0.6l1.3,4.8c0.1,0.5-0.2,1-0.6,1.1c0,0,0,0,0,0h0c-1.4,0.4-2.8,0.8-4,1.3l-1.9-7C55.8,61.3,57.2,61,58.7,60.6"
			/>
		<path style="clip-path:url(#SVGID_00000007422838152614334500000011702946671475716252_);fill:#DD5441;" d="M49.2,66.6l-1.7-4.7
			c0,0,3,0.2,7-0.4l1.9,7c-3.8,1.5-6.3,3.1-6.3,3.1L49.2,66.6z"/>
		<path style="clip-path:url(#SVGID_00000007422838152614334500000011702946671475716252_);fill:#C73F33;" d="M49.1,72.3
			c0.1,0.5,0.6,0.8,1.1,0.6c0.5-0.1,0.8-0.6,0.6-1.1L48,61.3c-0.1-0.5-0.6-0.8-1.1-0.6c-0.5,0.1-0.8,0.6-0.6,1.1L49.1,72.3z"/>
		<path style="clip-path:url(#SVGID_00000007422838152614334500000011702946671475716252_);fill:#43494F;" d="M53.7,67.4
			c0.1,0.4,0.5,0.6,0.9,0.5c0.4-0.1,0.6-0.5,0.5-0.9c-0.1-0.4-0.5-0.6-0.9-0.5C53.8,66.7,53.6,67.1,53.7,67.4"/>
		<path style="clip-path:url(#SVGID_00000007422838152614334500000011702946671475716252_);fill:#43494F;" d="M51.5,68
			c0.1,0.4,0.5,0.6,0.9,0.5c0.4-0.1,0.6-0.5,0.5-0.9c-0.1-0.4-0.5-0.6-0.9-0.5C51.6,67.2,51.4,67.6,51.5,68"/>
		<path style="clip-path:url(#SVGID_00000007422838152614334500000011702946671475716252_);fill:#2B1B34;" d="M80.5,55.8
			c-0.2,0-0.4-0.1-0.4-0.3c-0.1-0.2,0.1-0.5,0.3-0.6c7.2-2,7.3-12.1,7.3-12.2c0-0.3,0.2-0.5,0.5-0.5h0c0.3,0,0.5,0.2,0.5,0.5
			c0,0.1,0,10.9-7.9,13.1C80.5,55.8,80.5,55.8,80.5,55.8"/>
		<path style="clip-path:url(#SVGID_00000007422838152614334500000011702946671475716252_);fill:#43494F;" d="M81.4,55
			c0.1,0.5-0.2,0.9-0.6,1l-1.6,0.4c-0.5,0.1-0.9-0.2-1-0.6c-0.1-0.5,0.2-0.9,0.6-1l1.6-0.4C80.9,54.3,81.3,54.6,81.4,55"/>
		<path style="clip-path:url(#SVGID_00000007422838152614334500000011702946671475716252_);fill:#707171;" d="M59.8,67.1l2.1,1.4
			L60.7,72l-2.6-2.8C58.2,69.3,58.8,67.7,59.8,67.1L59.8,67.1z"/>
		<path style="clip-path:url(#SVGID_00000007422838152614334500000011702946671475716252_);fill:#BAE1E1;" d="M62,68.5
			c0,0,6.4,4,9.7-2.1l2.3,6.1c0,0-5.5,6.8-13.2-0.3L62,68.5z"/>
		<path style="clip-path:url(#SVGID_00000007422838152614334500000011702946671475716252_);fill:#FFFFFF;" d="M60.7,72
			c1.5,1.4,3,2.3,4.3,2.7C63.7,74.3,62.3,73.4,60.7,72 M62,68.5c0,0,1.8,1.1,3.9,1.2C63.7,69.5,62,68.5,62,68.5"/>
		<path style="clip-path:url(#SVGID_00000007422838152614334500000011702946671475716252_);fill:#FFFFFF;" d="M62,68.5L62,68.5
			L60.7,72c1.5,1.4,3,2.3,4.3,2.7l0.4-0.7c0.4-0.7-0.1-1.9-0.1-1.9c-0.9-1.5,0.4-2.5,0.4-2.5C63.7,69.5,62,68.5,62,68.5L62,68.5z"/>
		<path style="clip-path:url(#SVGID_00000007422838152614334500000011702946671475716252_);fill:#474647;" d="M96.5,94.2l-3.3-31.4
			c0,0-0.2-4.2-1.5-9.7l-14.3,15L71.7,63c-0.1,0.1,0,0.1-0.4,2.6l-3.9,28.3C74.1,95.8,84.7,97.5,96.5,94.2"/>
	</g>
	<line class="st37" x1="77.4" y1="68.9" x2="77.4" y2="94.7"/>
	<g>
		<defs>
			<rect id="SVGID_00000050635405603070884850000000586442743621372075_" x="20.6" y="24.8" width="87.7" height="100.5"/>
		</defs>
		<clipPath id="SVGID_00000103963602042435689140000000486278079430297482_">
			<use xlink:href="#SVGID_00000050635405603070884850000000586442743621372075_"  style="overflow:visible;"/>
		</clipPath>
		<path style="clip-path:url(#SVGID_00000103963602042435689140000000486278079430297482_);fill:#707171;" d="M74.2,66.6l1.3,2.2
			l-2.8,2.6l-1-3.7c0,0,1.3-1.1,2.5-1.3L74.2,66.6z"/>
		<path style="clip-path:url(#SVGID_00000103963602042435689140000000486278079430297482_);fill:#BAE1E1;" d="M90.1,69.8
			c-1.5-1.5-5,1.7-5,1.7c-5.8,3.8-9.6-2.7-9.6-2.7l-2.8,2.6c3.5,9.9,11.5,6.5,11.5,6.5l0,0c2.1-0.8,3.5-2.1,5-3.6
			C91.1,72.4,91.5,71.2,90.1,69.8"/>
		<path style="clip-path:url(#SVGID_00000103963602042435689140000000486278079430297482_);fill:#FFFFFF;" d="M75.5,68.8L75.5,68.8
			l-2.8,2.6c0.7,1.9,1.6,3.4,2.5,4.4l0.7-0.4c0.7-0.4,0.8-1.7,0.8-1.7c-0.1-1.7,1.6-2,1.6-2c-0.2-0.2-0.5-0.3-0.7-0.5h0c0,0,0,0,0,0
			c0,0,0,0,0,0c0,0,0,0,0,0c0,0,0,0,0,0h0c-0.4-0.3-0.8-0.7-1-1C75.8,69.5,75.5,68.9,75.5,68.8L75.5,68.8z"/>
		<g style="clip-path:url(#SVGID_00000103963602042435689140000000486278079430297482_);">
			<path class="st15" d="M88.7,91.7c-0.1,0-0.2-0.1-0.2-0.2c0-1.3,1-2.3,2.3-2.3c0.1,0,0.2,0.1,0.2,0.2c0,0.1-0.1,0.2-0.2,0.2
				c-1,0-1.8,0.8-1.8,1.8C88.9,91.6,88.8,91.7,88.7,91.7"/>
			<path class="st15" d="M89.4,91.9c-0.1,0-0.2-0.1-0.2-0.2v-0.3c0-0.8,0.7-1.5,1.5-1.5h1.5c0.1,0,0.2,0.1,0.2,0.2
				c0,0.1-0.1,0.2-0.2,0.2h-1.5c-0.6,0-1.1,0.5-1.1,1.1v0.3C89.7,91.8,89.6,91.9,89.4,91.9"/>
			<path class="st15" d="M88.7,91.9c-0.1,0-0.2-0.1-0.2-0.2v-0.3c0-1.3,1-2.3,2.3-2.3h2c0.1,0,0.2,0.1,0.2,0.2
				c0,0.1-0.1,0.2-0.2,0.2h-2c-1,0-1.8,0.8-1.8,1.8v0.3C88.9,91.8,88.8,91.9,88.7,91.9"/>
			<path class="st15" d="M87.9,91.9c-0.1,0-0.2-0.1-0.2-0.2v-0.3c0-1.7,1.4-3.1,3.1-3.1h2.6c0.1,0,0.2,0.1,0.2,0.2
				c0,0.1-0.1,0.2-0.2,0.2h-2.6c-1.4,0-2.6,1.2-2.6,2.6v0.3C88.1,91.8,88,91.9,87.9,91.9"/>
		</g>
	</g>
	<rect x="20.6" y="24.8" class="st18" width="87.7" height="100.5"/>
</g>
</svg>
