<?xml version="1.0" encoding="utf-8"?>
<!-- Generator: Adobe Illustrator 24.0.2, SVG Export Plug-In . SVG Version: 6.00 Build 0)  -->
<svg version="1.1" id="레이어_1" xmlns="http://www.w3.org/2000/svg" xmlns:xlink="http://www.w3.org/1999/xlink" x="0px"
	 y="0px" viewBox="0 0 198 230" style="enable-background:new 0 0 198 230;" xml:space="preserve">
<style type="text/css">
	.st0{fill:none;}
	.st1{fill:#71BEB6;}
	.st2{fill:#64B8A4;}
	.st3{fill:#B9DEDF;}
	.st4{fill:#727171;}
	.st5{fill:#FFFFFF;}
	.st6{fill:#DEEFEF;}
	.st7{fill:#E6E6E5;}
	.st8{fill:#666564;}
	.st9{fill:#7D7D7D;}
	.st10{fill:#DFC59E;}
	.st11{fill:#5EB09D;}
	.st12{fill:#B5B5B6;}
	.st13{fill:#DD5541;}
	.st14{fill:#8A8A8A;}
	.st15{fill:#EDEDEC;}
	.st16{fill:#08678E;}
	.st17{fill:#7F1B1E;}
	.st18{fill:#922228;}
	.st19{fill:#CEA286;}
	.st20{fill:#F0C1D6;}
	.st21{fill:#F5CD5E;}
</style>
<g id="그룹_672" transform="translate(0 -572)">
	<rect id="사각형_270" x="0.1" y="621.4" class="st0" width="197.9" height="173.2"/>
	<g id="그룹_669" transform="translate(-7.796)">
		<g id="그룹_592" transform="translate(62.268 594.977)">
			<path id="패스_2057" class="st1" d="M60.3,66.5c0,0,7.8,0,11.6,26.8c0,0,0.3,3.5,3.3,2.9c1-0.1,1.9,0.6,2.1,1.5
				c0.4,2-2.1,2.5-3.5,2.6c-0.4,0-0.9,0-1.3-0.1c-4.8-0.9-5.1-5.9-5.9-9.8c-1-4.6-1.4-9.3-3.5-13.5c-1.3-2.6-3.5-4.3-5.6-6.3
				L60.3,66.5z"/>
			<path id="패스_2058" class="st2" d="M74.2,164.9L74.2,164.9c-0.5,0-0.9-0.4-0.9-0.9v-6.3c0-0.6,0-1.5-0.3-1.8s-1.2-0.2-1.6-0.2
				l-1.5,0.1c-0.5,0.1-0.9-0.3-1-0.8s0.3-0.9,0.8-1c0,0,0,0,0.1,0l1.5-0.1c1-0.1,2,0.1,2.9,0.7c0.8,0.8,1.1,2,1,3.1v6.3
				C75.1,164.5,74.8,164.9,74.2,164.9C74.3,164.9,74.2,164.9,74.2,164.9"/>
			<path id="패스_2059" class="st2" d="M76.6,166.4c-0.5,0-0.9-0.4-0.9-0.9v-9c0-0.4-0.1-0.8-0.2-1.2c-0.5-1.2-1.7-1.9-3-1.9h-2.6
				c-0.5,0-0.9-0.4-0.9-0.9s0.4-0.8,0.9-0.9h2.7c2,0,3.9,1.2,4.6,3.1c0.2,0.6,0.3,1.2,0.3,1.9v9C77.5,166,77.1,166.4,76.6,166.4"/>
			<path id="패스_2060" class="st2" d="M79,167.9c-0.5,0-0.9-0.4-0.9-0.9v-10.9c-0.2-2.8-2.4-5.1-5.3-5.2h-2.1
				c-0.5,0-0.9-0.4-0.9-0.9s0.4-0.8,0.9-0.9H73c3.7,0.2,6.7,3.2,6.9,6.9v11.1C79.9,167.6,79.5,167.9,79,167.9"/>
			<path id="패스_2061" class="st3" d="M36.5,137.9c-0.4,8.2,2.6,16.1,8.2,22l1.8,15.8h3.7l2.4-14.7l6.2-0.2l3.5,16.3h3.3
				l2.3-18.7c0,0,7.1-2.8,4.9-16.8l-4.4-42.1c0,0-3-26-9.3-28.6c0,0,7.6-7.2,1.9-16.1c-3.9,2.3-6.6,6.1-7.6,10.5
				c0,0-0.6,0.3-5.7,0.1H46c0,0-1.4-5.7-8.5-8.4c-1.2,4.5-0.2,9.2,2.8,12.7c-0.2-0.2-6.6,5.2-6.8,5.3c-6,5-8.8,9-12.8,15
				c-1,1.4-1.3,3.1-0.8,4.8c0.3,1.7,2.4,3.8,3.6,4.8c1.6,1.5,3.7,2.4,5.9,2.4c4.2-0.1,8.9-0.5,12.6-2.4c-0.1,0.1,0,0.1-0.5,3.3
				L36.5,137.9z"/>
			<path id="패스_2062" class="st4" d="M58.9,182.1h7.5l-0.8-5.7l-3.6-0.1L58.9,182.1z"/>
			<path id="패스_2063" class="st4" d="M46.5,175.7l-2.6,4.7c0,0,4.7,0,7.1-0.3l-0.9-4.4"/>
			<path id="패스_2064" class="st5" d="M45.8,168.8c0,0.1,0.1,0.1,0.1,0.1c0.1,0.1,0.3,0.2,0.4,0.3c0.4,0.3,0.9,0.4,1.4,0.2
				c0.2-0.1,0.4-0.2,0.6-0.3c0.1-0.1,0.3-0.2,0.5-0.3s0.4-0.1,0.6-0.1h0.5c0.4,0,0.8,0.1,1,0.4c0.1,0.1,0.2,0.1,0.3,0.3
				c0.1,0.1,0.1,0.1,0.1,0.2c0,0,0.1,0.1,0.1,0.2l-1,5.9h-3.7L45.8,168.8z"/>
			<path id="패스_2065" class="st5" d="M60.6,169.5c0.4,0.5,1.1,0.6,1.6,0.2c0.1-0.1,0.2-0.2,0.3-0.3c0,0,1-1.4,1.9,0
				c0,0,0.8,1,1.5-0.5c0,0,0.5-0.8,0.8-0.1l-0.9,7.5l-3.5-0.1L60.6,169.5z"/>
			<path id="패스_2066" class="st5" d="M38,58.6c0,0-0.8,5.8,2.4,9C43.4,70.7,41.8,61.3,38,58.6"/>
			<path id="패스_2067" class="st5" d="M60.8,57c0,0,2.3,5.8-1.2,10.6C56.5,71.9,56.7,61,60.8,57"/>
			<path id="패스_2068" class="st6" d="M31.8,85.4l-0.1,0.1C31.6,85.5,31.7,85.5,31.8,85.4z"/>
			<path id="패스_2069" class="st1" d="M21.5,93.8v-0.3c0-0.2,0.1-0.4,0.3-0.5c0.1-0.1,0.3-0.2,0.5-0.2h0.1c0.4,0,0.6,0.3,0.6,0.7
				v0.1v0.3c0,0.2,0.1,0.4,0.3,0.4c0.2,0,0.4-0.1,0.4-0.3v-0.3l0,0v-0.1c0-0.8-0.5-1.4-1.3-1.5h-0.1c-0.4,0-0.7,0.1-1,0.3
				c-0.3,0.2-0.5,0.6-0.5,1v0.3c0,0.2,0.1,0.4,0.3,0.4C21.4,94.1,21.5,94,21.5,93.8"/>
			<path id="패스_2070" class="st4" d="M35.1,76.9v0.3c0,0.2-0.1,0.4-0.3,0.5c-0.1,0.1-0.3,0.2-0.5,0.2h-0.1
				c-0.4,0-0.6-0.3-0.6-0.7v-0.1V77l0,0v-0.3c0-0.2-0.1-0.4-0.3-0.4s-0.4,0.1-0.4,0.3V77c0,0.8,0.6,1.4,1.3,1.5h0.1
				c0.4,0,0.7-0.1,1-0.3c0.3-0.2,0.5-0.6,0.5-1V77c0-0.2-0.1-0.4-0.3-0.4C35.2,76.6,35.1,76.7,35.1,76.9"/>
			<path id="패스_2071" class="st4" d="M44.4,81.8V82c0,0.2-0.1,0.4-0.3,0.5c-0.1,0.1-0.3,0.2-0.5,0.2h-0.1
				c-0.4,0-0.7-0.4-0.7-0.8v-0.3c0-0.2-0.1-0.4-0.3-0.4s-0.4,0.1-0.4,0.3l0,0v0.3c0,0.8,0.6,1.4,1.3,1.5h0.1c0.4,0,0.7-0.1,1-0.3
				c0.3-0.2,0.5-0.6,0.5-1v-0.3c0-0.2-0.1-0.4-0.3-0.4C44.5,81.4,44.4,81.5,44.4,81.8"/>
			<path id="패스_2072" class="st1" d="M25.5,95.2l0.1-0.2c0.1-0.2,0.2-0.3,0.4-0.3c0.2,0,0.4,0,0.6,0.1h0.1
				c0.3,0.2,0.4,0.6,0.3,1v0.1l-0.1,0.2c-0.1,0.1-0.1,0.4,0.1,0.5c0.1,0.1,0.3,0.1,0.4,0c0,0,0-0.1,0.1-0.1l0.1-0.2l0,0
				c0,0,0-0.1,0.1-0.1l0,0c0.4-0.7,0.1-1.5-0.5-1.9c0,0-0.1,0-0.1-0.1c-0.3-0.2-0.7-0.2-1-0.1c-0.4,0.1-0.7,0.3-0.8,0.6l-0.1,0.2
				c-0.1,0.1-0.1,0.4,0.1,0.5C25.2,95.4,25.4,95.3,25.5,95.2"/>
			<path id="패스_2073" class="st1" d="M45.3,74.3c-0.5,0-1-0.4-1-0.9l0,0v-0.6c0.1-2.1,0.8-3.6,3.7-3.6h2.8c0.5,0,1,0.4,1,0.9
				s-0.4,1-0.9,1c0,0,0,0-0.1,0H48c-1.3,0-1.6,0.1-1.7,1.8v0.6C46.3,74,45.9,74.3,45.3,74.3"/>
			<path id="패스_2074" class="st1" d="M42.7,73.3c-0.5,0-1-0.4-1-0.9l0,0v-0.6c0-2.9,2.3-5.2,5.1-5.3c0.1,0,0.2,0,0.3,0h5.1
				c0.5,0,1,0.5,0.9,1c0,0.5-0.4,0.9-0.9,0.9h-5.1c-1.8-0.1-3.4,1.3-3.5,3.1c0,0.1,0,0.2,0,0.4v0.5C43.7,72.9,43.3,73.3,42.7,73.3
				L42.7,73.3"/>
			<path id="패스_2075" class="st1" d="M40.2,72.3c-0.5,0-1-0.4-1-0.9l0,0V71c0-3.9,3.2-7,7.1-7.1h7.6c0.5,0,1,0.4,1,0.9
				s-0.4,1-0.9,1c0,0,0,0-0.1,0h-7.6c-2.8,0-5.1,2.3-5.1,5.1l0,0v0.3C41.1,71.8,40.7,72.3,40.2,72.3L40.2,72.3"/>
			<path id="패스_2076" class="st5" d="M39.5,139.4c-0.1,0-0.2-0.1-0.2-0.1c-0.2-0.2-0.3-0.4-0.3-0.7c0-0.1,0.1-0.3,0.3-0.3
				s0.3,0.1,0.3,0.3c0,0.1,0.1,0.2,0.1,0.3C39.8,139,39.8,139.2,39.5,139.4C39.6,139.4,39.5,139.4,39.5,139.4"/>
			<path id="패스_2077" class="st5" d="M39,135.9c-0.1,0-0.2-0.1-0.2-0.1c-0.2-0.2-0.3-0.4-0.3-0.7c0-0.1,0.1-0.3,0.3-0.3
				c0.1,0,0.3,0.1,0.3,0.3c0,0.1,0.1,0.2,0.1,0.3C39.3,135.5,39.3,135.7,39,135.9C39.2,135.9,39.1,135.9,39,135.9"/>
			<path id="패스_2078" class="st5" d="M42,146.8c-0.1,0-0.2-0.1-0.2-0.1c-0.2-0.2-0.3-0.4-0.3-0.6c0-0.1,0.1-0.3,0.3-0.3
				c0.1,0,0.3,0.1,0.3,0.3c0,0.1,0.1,0.3,0.1,0.3C42.3,146.5,42.3,146.7,42,146.8C42.1,146.7,42,146.8,42,146.8"/>
			<path id="패스_2079" class="st5" d="M43.4,149.4c-0.1,0-0.1-0.1-0.2-0.1c-0.2-0.2-0.3-0.4-0.3-0.7c0-0.1,0.1-0.3,0.3-0.3
				c0.1,0,0.3,0.1,0.3,0.3c0,0.1,0.1,0.2,0.1,0.3c0.1,0.1,0.1,0.3-0.1,0.4C43.5,149.3,43.5,149.4,43.4,149.4"/>
			<path id="패스_2080" class="st5" d="M42,151.3c-0.1,0-0.2-0.1-0.2-0.1c-0.2-0.2-0.3-0.4-0.3-0.7c0-0.1,0.1-0.3,0.3-0.3
				c0.1,0,0.3,0.1,0.3,0.3c0,0.1,0.1,0.2,0.1,0.3c0.1,0.1,0.1,0.3-0.1,0.4C42.2,151.3,42.1,151.3,42,151.3"/>
			<path id="패스_2081" class="st5" d="M40.8,148.8c-0.1,0-0.2-0.1-0.2-0.1c-0.2-0.2-0.3-0.4-0.3-0.7c0-0.1,0.1-0.3,0.3-0.3
				s0.3,0.1,0.3,0.3c0,0.1,0.1,0.2,0.1,0.3c0.1,0.1,0.1,0.3-0.1,0.4C41,148.8,40.9,148.8,40.8,148.8"/>
			<path id="패스_2082" class="st5" d="M43.3,145.4c-0.1,0-0.2-0.1-0.2-0.1c-0.2-0.2-0.3-0.4-0.3-0.7c0-0.1,0.1-0.3,0.3-0.3
				c0.1,0,0.3,0.1,0.3,0.3c0,0.1,0.1,0.2,0.1,0.3C43.6,145,43.6,145.2,43.3,145.4C43.4,145.4,43.3,145.4,43.3,145.4"/>
			<path id="패스_2083" class="st5" d="M39.1,145.1c-0.1,0-0.2-0.1-0.2-0.1c-0.2-0.2-0.3-0.4-0.3-0.7c0-0.2,0.1-0.3,0.3-0.3
				c0.1,0,0.3,0.1,0.3,0.2c0,0.1,0.1,0.2,0.1,0.3c0.1,0.1,0.1,0.3-0.1,0.4C39.2,145.1,39.2,145.1,39.1,145.1"/>
			<path id="패스_2084" class="st5" d="M39.3,142.1c-0.1,0-0.2-0.1-0.2-0.1c-0.2-0.2-0.3-0.4-0.3-0.7c0-0.1,0.1-0.3,0.3-0.3
				s0.3,0.1,0.3,0.3c0,0.1,0.1,0.2,0.1,0.3C39.6,141.7,39.6,141.9,39.3,142.1C39.4,142.1,39.3,142.1,39.3,142.1"/>
			<path id="패스_2085" class="st5" d="M41.3,137.9c-0.1,0-0.2-0.1-0.2-0.1c-0.2-0.2-0.3-0.4-0.3-0.7c0-0.1,0.1-0.3,0.3-0.3
				s0.3,0.1,0.3,0.3c0,0.1,0.1,0.2,0.1,0.3c0.1,0.1,0.1,0.3,0,0.4C41.5,137.8,41.5,137.8,41.3,137.9
				C41.4,137.8,41.3,137.9,41.3,137.9"/>
			<path id="패스_2086" class="st5" d="M41.3,143.7c-0.1,0-0.2-0.1-0.2-0.1c-0.2-0.2-0.3-0.4-0.3-0.7c0-0.1,0.1-0.3,0.3-0.3
				s0.3,0.1,0.3,0.3c0,0.1,0.1,0.2,0.1,0.3C41.6,143.3,41.6,143.5,41.3,143.7C41.4,143.7,41.3,143.7,41.3,143.7"/>
			<path id="패스_2087" class="st5" d="M64.4,156.3c-0.1,0-0.2,0-0.2-0.1c-0.1-0.1-0.1-0.3-0.1-0.4c0.1-0.1,0.1-0.2,0.1-0.3
				c0-0.2,0.1-0.3,0.3-0.3c0.2,0,0.3,0.1,0.3,0.3c0,0,0,0,0,0.1c0,0.3-0.1,0.5-0.3,0.7C64.6,156.3,64.5,156.3,64.4,156.3"/>
			<path id="패스_2088" class="st5" d="M63.5,154c-0.1,0-0.2,0-0.2-0.1c-0.1-0.1-0.1-0.3-0.1-0.4c0.1-0.1,0.1-0.2,0.1-0.3
				c0-0.2,0.2-0.3,0.4-0.2c0.1,0,0.2,0.2,0.2,0.3c0,0.3-0.1,0.5-0.3,0.7C63.6,153.9,63.6,154,63.5,154"/>
			<path id="패스_2089" class="st5" d="M68.3,151.6c-0.1,0-0.2,0-0.2-0.1c-0.1-0.1-0.1-0.3-0.1-0.4c0.1-0.1,0.1-0.2,0.1-0.3
				c0-0.2,0.2-0.3,0.4-0.2c0.1,0,0.2,0.2,0.2,0.3C68.7,151.2,68.6,151.4,68.3,151.6C68.5,151.6,68.4,151.6,68.3,151.6"/>
			<path id="패스_2090" class="st5" d="M66.7,154.7c-0.1,0-0.2,0-0.2-0.1c-0.1-0.1-0.1-0.3-0.1-0.4c0.1-0.1,0.1-0.2,0.1-0.3
				c0-0.2,0.2-0.3,0.3-0.3c0.1,0,0.3,0.2,0.3,0.3c0,0.2-0.1,0.4-0.3,0.6C66.9,154.7,66.7,154.7,66.7,154.7"/>
			<path id="패스_2091" class="st5" d="M66.1,152.8c-0.1,0-0.2,0-0.2-0.1c-0.1-0.1-0.1-0.3-0.1-0.4c0.1-0.1,0.1-0.2,0.1-0.3
				c0-0.2,0.2-0.3,0.4-0.2c0.1,0,0.2,0.2,0.2,0.3C66.5,152.4,66.4,152.6,66.1,152.8C66.3,152.8,66.2,152.8,66.1,152.8"/>
			<path id="패스_2092" class="st5" d="M68.7,154c-0.1,0-0.2,0-0.2-0.1c-0.1-0.1-0.1-0.3-0.1-0.4c0.1-0.1,0.1-0.2,0.1-0.3
				c0-0.2,0.2-0.3,0.4-0.2c0.1,0,0.2,0.2,0.2,0.3C69.1,153.5,69,153.7,68.7,154C69,153.9,68.9,154,68.7,154"/>
			<path id="패스_2093" class="st5" d="M65.9,157.6c-0.1,0-0.2,0-0.2-0.1c-0.1-0.1-0.1-0.3-0.1-0.4c0.1-0.1,0.1-0.2,0.1-0.3
				c0-0.2,0.2-0.3,0.4-0.2c0.1,0,0.2,0.2,0.2,0.3C66.3,157.2,66.2,157.4,65.9,157.6C66,157.5,66,157.6,65.9,157.6"/>
			<path id="패스_2094" class="st5" d="M66.3,107.1L66.3,107.1c-0.2,0-0.3-0.2-0.3-0.3c0-0.1,0-0.3-0.1-0.4
				c-0.1-0.2,0-0.3,0.1-0.4c0.2-0.1,0.3,0,0.4,0.1c0.1,0.2,0.1,0.5,0.1,0.7C66.5,107,66.4,107.1,66.3,107.1"/>
			<path id="패스_2095" class="st5" d="M63,100.4L63,100.4c-0.2,0-0.3-0.2-0.3-0.3c0-0.1,0-0.3-0.1-0.3c-0.1-0.2,0-0.3,0.1-0.4
				s0.3,0,0.4,0.1c0.1,0.2,0.1,0.5,0.1,0.7C63.3,100.3,63.2,100.4,63,100.4"/>
			<path id="패스_2096" class="st5" d="M66.1,100.4L66.1,100.4c-0.2,0-0.3-0.2-0.3-0.3c0-0.1,0-0.3-0.1-0.4
				c-0.1-0.2,0-0.3,0.1-0.4c0.2-0.1,0.3,0,0.4,0.1c0.1,0.2,0.1,0.5,0.1,0.7C66.4,100.3,66.3,100.4,66.1,100.4"/>
			<path id="패스_2097" class="st5" d="M62.2,97.5L62.2,97.5c-0.2,0-0.3-0.2-0.3-0.3c0-0.1,0-0.3-0.1-0.4c-0.1-0.2,0-0.3,0.1-0.4
				c0.2-0.1,0.3,0,0.4,0.1c0.1,0.2,0.1,0.5,0.1,0.7C62.5,97.4,62.4,97.5,62.2,97.5"/>
			<path id="패스_2098" class="st5" d="M65.1,93.9L65.1,93.9c-0.2,0-0.3-0.2-0.3-0.3c0-0.1,0-0.3-0.1-0.4c-0.1-0.2,0-0.3,0.1-0.4
				c0.2-0.1,0.3,0,0.4,0.1c0.1,0.2,0.1,0.5,0.1,0.7C65.4,93.7,65.3,93.9,65.1,93.9"/>
			<path id="패스_2099" class="st5" d="M64.5,98.6L64.5,98.6c-0.2,0-0.3-0.1-0.3-0.3c0-0.1,0-0.3-0.1-0.4c-0.1-0.2,0-0.3,0.1-0.4
				c0.2-0.1,0.3,0,0.4,0.1c0.1,0.2,0.1,0.5,0.1,0.7C64.8,98.5,64.7,98.6,64.5,98.6"/>
			<path id="패스_2100" class="st5" d="M63.6,91.6L63.6,91.6c-0.2,0-0.3-0.2-0.3-0.3c0-0.1,0-0.3-0.1-0.3c-0.1-0.2,0-0.3,0.1-0.4
				s0.3,0,0.4,0.1c0.1,0.2,0.1,0.5,0.1,0.7C63.9,91.5,63.8,91.6,63.6,91.6"/>
			<path id="패스_2101" class="st5" d="M62.9,94.4L62.9,94.4c-0.2,0-0.3-0.2-0.3-0.3c0-0.1,0-0.3-0.1-0.4c-0.1-0.2,0-0.3,0.1-0.4
				c0.2-0.1,0.3,0,0.4,0.1c0.1,0.2,0.1,0.5,0.1,0.7C63.1,94.3,63,94.4,62.9,94.4"/>
			<path id="패스_2102" class="st5" d="M64.3,95.9L64.3,95.9c-0.2,0-0.3-0.1-0.3-0.3c0-0.1,0-0.3-0.1-0.4c-0.1-0.2,0-0.3,0.1-0.4
				c0.2-0.1,0.3,0,0.4,0.1c0.1,0.2,0.1,0.5,0.1,0.7C64.6,95.9,64.5,95.9,64.3,95.9"/>
			<path id="패스_2103" class="st5" d="M65.3,102.7L65.3,102.7c-0.2,0-0.3-0.2-0.3-0.3c0-0.1,0-0.3-0.1-0.4
				c-0.1-0.2,0-0.3,0.1-0.4c0.2-0.1,0.3,0,0.4,0.1c0.1,0.2,0.1,0.5,0.1,0.7C65.6,102.5,65.4,102.7,65.3,102.7"/>
			<path id="패스_2104" class="st5" d="M64.5,105.6L64.5,105.6c-0.2,0-0.3-0.2-0.3-0.3c0-0.1,0-0.3-0.1-0.4
				c-0.1-0.2,0-0.3,0.1-0.4c0.2-0.1,0.3,0,0.4,0.1c0.1,0.2,0.1,0.5,0.1,0.7C64.7,105.5,64.6,105.6,64.5,105.6"/>
			<path id="패스_2105" class="st5" d="M66.5,104.6L66.5,104.6c-0.2,0-0.3-0.2-0.3-0.3c0-0.1,0-0.3-0.1-0.4
				c-0.1-0.2,0-0.3,0.1-0.4c0.2-0.1,0.3,0,0.4,0.1c0.1,0.2,0.1,0.5,0.1,0.7C66.7,104.5,66.6,104.6,66.5,104.6"/>
			<path id="패스_2106" class="st5" d="M62.9,103.5L62.9,103.5c-0.2,0-0.3-0.2-0.3-0.3c0-0.1,0-0.3-0.1-0.4
				c-0.1-0.2,0-0.3,0.1-0.4c0.2-0.1,0.3,0,0.4,0.1c0.1,0.2,0.1,0.5,0.1,0.7C63.2,103.4,63.1,103.5,62.9,103.5"/>
			<path id="패스_2107" class="st3" d="M28.9,115.8c0,0,8.1,5.7,12.9-2.1l2.6,8.1c0,0-7.7,8.5-17.4-1.4L28.9,115.8z"/>
			<path id="패스_2108" class="st5" d="M32.4,124.4c-2.1-0.9-3.9-2.3-5.5-3.9l1.9-4.6c1.5,1,3.2,1.6,5,1.9
				c-1.1,0.7-1.4,2.2-0.8,3.3c0.3,0.8,0.3,1.7-0.1,2.5L32.4,124.4z"/>
			<path id="패스_2109" class="st5" d="M31.1,86.9l0.2-0.2c0.7-0.8,3.3-3.1,2.6-5.5c0,0,2.9-0.5,7.2-4.2c0,0-4,3.6-2.4,6
				C35.9,83.5,33.3,84.9,31.1,86.9"/>
			<path id="패스_2110" class="st2" d="M25.5,115.4c-0.1,0-0.3-0.1-0.3-0.3c-0.1-0.5-0.2-1-0.3-1.5c-1.2-3-3.7-5.2-6.7-6.2
				c-0.1-0.1-0.2-0.2-0.2-0.4c0-0.1,0.2-0.2,0.3-0.2c5.2,1.9,6.7,5.5,7.1,6.5c0.2,0.5,0.3,1.1,0.3,1.6c0.1,0.1,0,0.3-0.1,0.3
				C25.6,115.4,25.6,115.4,25.5,115.4L25.5,115.4z"/>
			<path id="패스_2111" class="st2" d="M24.7,112.7c5.4-8,3.5-6.8,3.5-6.8c-2.3,1.8-3.3,5.2-3.6,6.6L24.7,112.7z"/>
			<path id="패스_2112" class="st7" d="M57,111.9c0,0,3.8-7.8,12.5-1.4l-0.1-1.8c0,0-9.3-7.1-14.5,2.9L57,111.9z"/>
			<path id="패스_2113" class="st7" d="M40.6,108.1c0.3,1.4,0.7,2.8,1.2,4.1l-2.4,0.2L39,110L40.6,108.1z"/>
			<path id="패스_2114" class="st7" d="M69.6,136.1l2.4-1.3l0.4,2.1l-2.6,1.2L69.6,136.1z"/>
			<path id="패스_2115" class="st8" d="M39.4,111.7c-1.4,4.6-2.5,9.3-3.3,14c-1.2,6.7-1.3,13.5-0.5,20.2c0.3,2.2,0.7,4.5,1.2,6.6
				c0.3,1,0.6,2.1,1,3.1c0.2,0.6,0.6,2.8,1.1,3c0,0,11.1,11.6,34.7-0.1l-4-22.5c0,0-10.5-2.1-12.4-24.6c-4.7,0.1-9,0-13.7,0.1
				C42.1,111.7,40.7,111.7,39.4,111.7"/>
			<path id="패스_2116" class="st4" d="M42,123.2c2.1,0.4,4.3,0.5,6.5,0.5l0.5,7.4l-6.9-1.7L42,123.2z"/>
			<path id="패스_2117" class="st9" d="M42.2,130.7c2.1,1.3,4.6,1.8,7,1.4l-0.1-1.9c0,0-2.4-4.2-7-4.4L42.2,130.7z"/>
			<path id="패스_2118" class="st10" d="M41.1,113.2c0,0.3-0.2,0.6-0.6,0.6c-0.3,0-0.6-0.2-0.6-0.6c0-0.3,0.2-0.5,0.5-0.6h0.1
				C40.9,112.6,41.1,112.9,41.1,113.2L41.1,113.2"/>
			<path id="패스_2119" class="st10" d="M72.2,157.8c0,0.3-0.2,0.6-0.6,0.6c-0.3,0-0.6-0.2-0.6-0.6c0-0.3,0.2-0.6,0.6-0.6l0,0
				C71.9,157.4,72.2,157.6,72.2,157.8"/>
			<path id="패스_2120" class="st10" d="M52,161.9c0,0.3-0.2,0.6-0.6,0.6c-0.3,0-0.6-0.2-0.6-0.6c0-0.3,0.2-0.6,0.6-0.6l0,0
				C51.8,161.4,52,161.6,52,161.9"/>
			<path id="패스_2121" class="st10" d="M47,161c0,0.3-0.2,0.6-0.6,0.6c-0.3,0-0.6-0.2-0.6-0.6c0-0.3,0.2-0.6,0.6-0.6l0,0
				C46.8,160.4,47,160.7,47,161"/>
			<path id="패스_2122" class="st10" d="M55.9,113c0,0.3-0.2,0.6-0.6,0.6c-0.3,0-0.6-0.2-0.6-0.6c0-0.3,0.2-0.6,0.6-0.6l0,0
				C55.7,112.5,55.9,112.7,55.9,113L55.9,113"/>
			<path id="패스_2123" class="st10" d="M58.8,109.8L58.8,109.8c-0.2,0-0.3,0-0.4,0s-0.2,0-0.3-0.1l-0.8-0.6
				c-0.3,0-0.3-0.1-0.3-0.3c0-0.1,0-0.2,0.1-0.3c0.1-0.1,0.2-0.1,0.3-0.1s0.2,0,0.3,0.1l0.8,0.6c0.1,0.1,0.1,0.2,0.1,0.3
				c0,0.1,0,0.2-0.1,0.3L58.8,109.8L58.8,109.8c0.2,0,0.2-0.2,0.2-0.3c0-0.2-0.1-0.4-0.3-0.6l-0.8-0.6c-0.1-0.1-0.3-0.1-0.4-0.1
				c-0.2,0-0.4,0.1-0.6,0.3l0,0c-0.1,0.1-0.1,0.3-0.1,0.4c0,0.2,0.1,0.4,0.3,0.6l0.8,0.6c0.1,0.1,0.3,0.1,0.4,0.1
				C58.5,110.2,58.7,110.1,58.8,109.8L58.8,109.8z"/>
			<path id="패스_2124" class="st10" d="M41.1,109.3L41.1,109.3l-0.1,0.2c0,0.2-0.1,0.4-0.3,0.4l-1,0.4h-0.1
				c-0.2,0-0.4-0.1-0.4-0.3v-0.1c0-0.2,0.1-0.4,0.3-0.4l0,0l1-0.4h0.1C40.8,109.1,41,109.2,41.1,109.3L41.1,109.3L41.1,109.3
				c0-0.4-0.3-0.5-0.6-0.5c-0.1,0-0.2,0-0.3,0.1l-1,0.4l0,0c-0.3,0.1-0.4,0.4-0.4,0.7c0,0.1,0,0.2,0.1,0.3c0.1,0.3,0.4,0.4,0.7,0.4
				c0.1,0,0.2,0,0.3-0.1l1-0.4c0.3-0.1,0.4-0.4,0.4-0.7C41.3,109.4,41.3,109.3,41.1,109.3L41.1,109.3z"/>
			
				<rect id="사각형_202" x="55" y="114" transform="matrix(0.9918 -0.1278 0.1278 0.9918 -14.2866 8.1539)" class="st11" width="2.8" height="2.8"/>
			<path id="패스_2125" class="st5" d="M57.1,115.2l-0.6,0.1c-0.3,0-0.5,0.3-0.5,0.6c0,0,0,0,0,0.1v0c0,0,0,0.1,0.1,0.1
				c0,0,0.1,0,0.1-0.1l0,0c-0.1-0.2,0.1-0.4,0.3-0.5l0.6-0.1c0,0,0.1,0,0.1-0.1l0,0C57.2,115.2,57.2,115.2,57.1,115.2"/>
			<path id="패스_2126" class="st5" d="M57.3,114.8l-0.8,0.2c-0.5,0.1-0.8,0.5-0.8,1v0.1c0,0,0,0.1,0.1,0.1c0,0,0.1,0,0.1-0.1l0,0
				V116c-0.1-0.4,0.2-0.7,0.6-0.8l0.8-0.1c0,0,0.1,0,0.1-0.1l0,0C57.3,114.8,57.3,114.8,57.3,114.8"/>
			<path id="패스_2127" class="st5" d="M57.4,114.5l-1,0.1c-0.6,0.1-1.1,0.6-1,1.2c0,0,0,0,0,0.1v0.1c0,0,0,0.1,0.1,0.1
				c0,0,0.1,0,0.1-0.1l0,0c-0.1-0.5,0.3-1.1,0.8-1.2l1-0.1C57.4,114.6,57.5,114.6,57.4,114.5C57.5,114.6,57.5,114.6,57.4,114.5
				C57.5,114.6,57.5,114.5,57.4,114.5"/>
			<path id="패스_2128" class="st12" d="M53.5,119.3l-9.7-3.9l0.1,0.8l10.1,4.4L53.5,119.3z"/>
			<path id="패스_2129" class="st5" d="M53.7,121.4l-6.9-8.5l-0.8-0.3l5.7,8.6L53.7,121.4z"/>
			<path id="패스_2130" class="st12" d="M51.1,118.9c-0.1,0.2-0.3,0.3-0.5,0.2c-0.2-0.1-0.3-0.3-0.2-0.5s0.3-0.3,0.5-0.2
				C51.1,118.5,51.1,118.7,51.1,118.9"/>
			<path id="패스_2131" class="st13" d="M56.2,116.3c-1.2-0.5-2.6,0.1-3.1,1.4s0.1,2.6,1.4,3.1c1.2,0.5,2.6-0.1,3.1-1.4
				C58,118.2,57.4,116.8,56.2,116.3 M54.8,119.8c-0.7-0.3-1.1-1.1-0.8-1.9c0.3-0.7,1.1-1.1,1.9-0.8c0.7,0.3,1.1,1.1,0.8,1.9
				C56.4,119.7,55.6,120.1,54.8,119.8"/>
			<path id="패스_2132" class="st13" d="M52.7,120.7c-1.2-0.5-2.6,0.1-3.1,1.4c-0.5,1.2,0.1,2.6,1.4,3.1c1.2,0.5,2.6-0.1,3.1-1.4
				C54.5,122.5,53.9,121.2,52.7,120.7 M51.2,124.3c-0.8-0.3-1.1-1.2-0.8-1.9c0.3-0.8,1.2-1.1,1.9-0.8c0.8,0.3,1.1,1.2,0.8,1.9l0,0
				C52.9,124.3,52,124.6,51.2,124.3"/>
			<path id="패스_2133" class="st13" d="M52.1,118.7l-0.2,1l2.6,1.1l-0.8-1.6L52.1,118.7z"/>
			<path id="패스_2134" class="st13" d="M51.8,119.1l-1,0.6l0.6,1.2l2.4,0.6L51.8,119.1z"/>
			<path id="패스_2135" class="st3" d="M64.9,127.3c0,0,9.9,2.6,10.4-5c0,0,1.4-4.6-6.4-9.7c0,0,2.7,7.8-4.3,7.8
				C64.6,120.5,60.8,121.4,64.9,127.3"/>
			<path id="패스_2136" class="st5" d="M64.9,127.3c-2.2-0.4-4.3-1.2-6.2-2.5l0.7-4.9c1.7,0.6,3.5,0.8,5.3,0.6
				c-0.9,1-0.8,2.5,0.1,3.4c0,0,0.9,1.5,0.6,2.4L64.9,127.3z"/>
			<path id="패스_2137" class="st14" d="M56.2,118.6l3.1,1.2l-0.7,4.9l-4-3c0.2-1.2,0.7-2.3,1.5-3.3"/>
			
				<rect id="사각형_203" x="47.2" y="135.7" transform="matrix(0.4072 -0.9133 0.9133 0.4072 -93.3068 128.6108)" class="st15" width="10.4" height="1"/>
			<path id="패스_2138" class="st16" d="M53.8,134.3l-1-0.4l1.2-2.6l1,0.4L53.8,134.3z"/>
			
				<rect id="사각형_204" x="52.9" y="133.7" transform="matrix(0.4063 -0.9137 0.9137 0.4063 -90.004 129.1515)" class="st16" width="2.9" height="0.3"/>
			
				<rect id="사각형_205" x="54.4" y="132.5" transform="matrix(0.4088 -0.9126 0.9126 0.4088 -88.7043 128.283)" class="st16" width="0.6" height="0.3"/>
			
				<rect id="사각형_206" x="46.8" y="137.2" transform="matrix(0.1484 -0.9889 0.9889 0.1484 -93.1905 167.2572)" class="st17" width="7.5" height="1"/>
			<path id="패스_2139" class="st18" d="M51.6,134.1l-1-0.1l0.6-2.5l0.5,0.1L51.6,134.1L51.6,134.1z"/>
			
				<rect id="사각형_207" x="44.9" y="133.7" transform="matrix(0.9052 -0.425 0.425 0.9052 -54.3026 33.2881)" class="st15" width="5.1" height="9.3"/>
			<path id="패스_2140" class="st19" d="M44,135.1c0,0.1,0,0.1-0.1,0.1s-0.1,0-0.1-0.1l-0.3-0.6c0-0.1,0-0.1,0.1-0.1
				s0.1,0,0.1,0.1L44,135.1z"/>
			<path id="패스_2141" class="st19" d="M44.7,134.7C44.7,134.8,44.7,134.8,44.7,134.7c-0.2,0.1-0.2,0.1-0.2,0l-0.3-0.6
				c0-0.1,0-0.1,0.1-0.1s0.1,0,0.1,0.1L44.7,134.7z"/>
			<path id="패스_2142" class="st19" d="M45.4,134.4c0,0.1,0,0.1-0.1,0.1s-0.1,0-0.1-0.1l-0.3-0.6c0-0.1,0-0.1,0.1-0.1
				s0.1,0,0.1,0.1L45.4,134.4z"/>
			<path id="패스_2143" class="st19" d="M46.1,134.2C46.1,134.3,46.1,134.3,46.1,134.2c-0.2,0.1-0.2,0.1-0.2,0l-0.3-0.6
				c0-0.1,0-0.1,0.1-0.1s0.1,0,0.1,0.1L46.1,134.2z"/>
			<path id="패스_2144" class="st19" d="M46.8,133.8C46.8,133.9,46.8,133.9,46.8,133.8c-0.2,0.1-0.2,0.1-0.2,0l-0.3-0.6
				c0-0.1,0-0.1,0.1-0.1s0.1,0,0.1,0.1L46.8,133.8z"/>
			<path id="패스_2145" class="st19" d="M47.5,133.5C47.5,133.6,47.5,133.6,47.5,133.5c-0.2,0.1-0.2,0.1-0.2,0l-0.3-0.6
				c0-0.1,0-0.1,0.1-0.1s0.1,0,0.1,0.1L47.5,133.5z"/>
			<path id="패스_2146" class="st9" d="M38.7,135c0.1,0,0.2,0,0.3,0.1c4.7,1.2,9.5,1.7,14.3,1.5l0.2,11.1
				C53.4,147.7,39,147,38.7,135"/>
			<path id="패스_2147" class="st2" d="M25.5,116.4c-0.1,0.1-0.2,0.1-0.3,0.1c-0.3-0.2-0.6-0.4-1-0.5c-2.2-0.7-4.6-0.4-6.6,0.8
				c-0.1,0.1-0.2,0-0.3-0.1c-0.1-0.1,0-0.2,0.1-0.3c2.1-1.3,4.6-1.7,7-0.9c0.4,0.2,0.7,0.3,1,0.6C25.6,116.2,25.6,116.3,25.5,116.4z
				"/>
			<path id="패스_2148" class="st20" d="M18.8,119.1c-0.1-0.5-0.3-1-0.6-1.5c0.4,0.4,0.8,0.7,1.3,0.9c0.9,0.2,1.8-0.4,1.9-1.3
				c0-0.1,0-0.1,0-0.2c0.1-0.9-0.6-1.7-1.6-1.8c-0.1,0-0.1,0-0.2,0c-0.5,0.1-1,0.3-1.5,0.6c0.4-0.4,0.7-0.8,0.8-1.3
				c0.2-0.9-0.4-1.8-1.3-1.9c-0.1,0-0.1,0-0.2,0c-0.9-0.1-1.7,0.6-1.8,1.6c0,0.1,0,0.1,0,0.2c0.1,0.5,0.3,1,0.6,1.5
				c-0.4-0.4-0.8-0.7-1.3-0.8c-0.9-0.2-1.8,0.4-1.9,1.3c0,0.1,0,0.1,0,0.2c-0.1,0.9,0.6,1.7,1.6,1.8c0.1,0,0.1,0,0.2,0
				c0.5-0.1,1-0.3,1.5-0.6c-0.3,0.2-0.6,0.7-0.8,1.2c-0.2,0.9,0.4,1.8,1.3,1.9c0.1,0,0.1,0,0.2,0c0.9,0.1,1.7-0.7,1.8-1.6
				C18.8,119.3,18.8,119.2,18.8,119.1"/>
			<path id="패스_2149" class="st5" d="M17.2,116.6L17.2,116.6c-0.1,0-0.1-0.1-0.1-0.1l-0.1-0.1l-0.1-0.1c0-0.1,0-0.1,0.1-0.1l0,0
				l0.1,0.1l0.1,0.1C17.2,116.4,17.2,116.5,17.2,116.6"/>
			<path id="패스_2150" class="st5" d="M17.6,117L17.6,117c0.1,0,0.1,0.1,0.1,0.1c0.1,0,0.1,0.1,0.1,0.1l0.1,0.1
				c0,0,0,0.1-0.1,0.1l0,0h-0.1l-0.1-0.1l-0.1-0.1C17.6,117.1,17.6,117.1,17.6,117"/>
			<path id="패스_2151" class="st5" d="M17.6,116.6L17.6,116.6c0-0.1,0.1-0.1,0.1-0.1c0-0.1,0.1-0.1,0.1-0.1l0.1-0.1
				c0.1,0,0.1,0,0.1,0.1v0.1l-0.1,0.1C17.7,116.5,17.7,116.6,17.6,116.6"/>
			<path id="패스_2152" class="st5" d="M17.2,116.9L17.2,116.9l-0.1,0.1c0,0.1-0.1,0.1-0.1,0.1v0.2c-0.1,0-0.1,0-0.1-0.1v-0.1
				L17,117v0C17.1,117,17.1,116.9,17.2,116.9"/>
			<path id="패스_2153" class="st21" d="M16.7,110.8c0.5-0.6,0.8-1.2,1-1.9c-0.1,0.7,0,1.5,0.3,2.1c0.6,1.1,1.9,1.4,3,0.9
				c0.1,0,0.2-0.1,0.3-0.2c1-0.7,1.2-2.1,0.5-3.2c0-0.1-0.1-0.1-0.1-0.2c-0.6-0.5-1.2-0.8-1.9-1c0.7,0.1,1.5,0,2.1-0.3
				c1.1-0.6,1.4-2,0.8-3.1s-2-1.4-3.1-0.8c-0.1,0.1-0.3,0.2-0.4,0.3c-0.5,0.6-0.8,1.2-1,1.9c0.1-0.7,0-1.4-0.3-2.1
				c-0.6-1.1-1.9-1.4-3-0.9c-0.1,0-0.2,0.1-0.3,0.2c-1,0.7-1.2,2.1-0.5,3.2c0,0.1,0.1,0.1,0.1,0.2c0.6,0.5,1.2,0.8,1.9,1
				c-0.7-0.1-1.5,0-2.1,0.3c-1.1,0.6-1.4,1.9-0.9,3c0,0.1,0.1,0.2,0.2,0.3c0.8,1,2.2,1.2,3.2,0.4C16.6,110.9,16.7,110.9,16.7,110.8"
				/>
			<path id="패스_2154" class="st5" d="M18.1,106.8L18.1,106.8v-0.4c0-0.1,0-0.1,0.1-0.1c0.1-0.1,0.1-0.1,0.1,0v0.1
				c0,0.1,0,0.1-0.1,0.1C18.1,106.7,18.1,106.7,18.1,106.8"/>
			<path id="패스_2155" class="st5" d="M17.9,107.6L17.9,107.6v0.3c0,0.1,0,0.1-0.1,0.1h-0.1v-0.2
				C17.9,107.7,17.9,107.6,17.9,107.6"/>
			<path id="패스_2156" class="st5" d="M18.4,107.2h0.3c0.1,0,0.1,0,0.1,0.1s0.1,0.1,0,0.1h-0.1c0,0-0.1,0-0.1-0.1l0,0
				C18.6,107.3,18.5,107.3,18.4,107.2"/>
			<path id="패스_2157" class="st5" d="M17.7,107.1L17.7,107.1c-0.1,0-0.1,0-0.1,0.1h-0.2c-0.1,0-0.1,0-0.1-0.1
				c-0.1-0.1,0-0.1,0-0.1h0.2c0,0,0.1,0,0.1,0.1l0,0C17.5,107.1,17.6,107.1,17.7,107.1"/>
			<path id="패스_2158" class="st2" d="M23.3,115.3c-1.3,2.6-0.6,2.2-0.6,2.2C23.3,117,23.6,116.2,23.3,115.3L23.3,115.3z"/>
			<path id="패스_2159" class="st2" d="M22.4,115.4c-1.6-2.5-1.6-1.7-1.6-1.7c0.2,0.8,0.7,1.4,1.5,1.7H22.4z"/>
			<path id="패스_2160" class="st14" d="M26.1,113.9l2.7,1.9l-1.9,4.6l-3.2-3.8c0.5-1.1,1.3-2.1,2.2-2.9"/>
		</g>
		<g id="그룹_593" transform="translate(58.796 673.775)">
			<path id="패스_2238" class="st1" d="M33.5,101.9L33.5,101.9C33.4,101.9,33.4,101.8,33.5,101.9c1.5-6.2,1.5-12.6-0.1-18.7
				c0,0,0-0.1,0.1-0.1c0,0,0.1,0,0.1,0.1C35.2,89.3,35.2,95.8,33.5,101.9C33.6,101.9,33.6,101.9,33.5,101.9"/>
			<path id="패스_2239" class="st1" d="M34.2,86.2L34.2,86.2c-0.1-0.1-0.1-0.1,0-0.2l2.2-1.4h0.1v0.1L34.2,86.2L34.2,86.2"/>
			<path id="패스_2240" class="st1" d="M33.6,83.2L33.6,83.2L32,82.1c0,0-0.1-0.1,0-0.1c0,0,0.1-0.1,0.1,0l1.5,1l2.2-1.4h0.1v0.1
				L33.6,83.2L33.6,83.2"/>
			<path id="패스_2241" class="st1" d="M34.5,88.4L34.5,88.4l-1.8-1.1c-0.1,0-0.1-0.1-0.1-0.1l0,0h0.1L34.5,88.4
				C34.6,88.3,34.6,88.3,34.5,88.4C34.6,88.4,34.6,88.4,34.5,88.4"/>
			<path id="패스_2242" class="st1" d="M34.7,94.8L34.7,94.8c-0.1-0.1-0.1-0.1,0-0.2l2.1-1.3h0.1v0.1L34.7,94.8L34.7,94.8
				L34.7,94.8"/>
			<path id="패스_2243" class="st1" d="M34.7,92.8L34.7,92.8L33,91.7c0,0,0-0.1,0-0.2h0.1l1.6,1.1L34.7,92.8
				C34.8,92.8,34.8,92.8,34.7,92.8"/>
			<path id="패스_2244" class="st1" d="M33.6,83.2C33.5,83.2,33.5,83.2,33.6,83.2l-0.4-3.1c0,0,0-0.1,0.1-0.1c0,0,0.1,0,0.1,0.1
				l0.4,3C33.7,83.2,33.7,83.2,33.6,83.2L33.6,83.2L33.6,83.2"/>
			<path id="패스_2245" class="st1" d="M34,85.1L34,85.1l-1.8-0.4c0,0-0.1,0-0.1-0.1c0,0,0-0.1,0.1-0.1l1.8,0.4
				C34,84.9,34.1,84.9,34,85.1C34.1,85.1,34,85.1,34,85.1"/>
			<path id="패스_2246" class="st1" d="M34.5,88.3L34.5,88.3C34.4,88.3,34.4,88.2,34.5,88.3l0.6-1.3l0.1-0.1l0.1,0.1l0,0
				L34.5,88.3C34.6,88.3,34.6,88.3,34.5,88.3"/>
			<path id="패스_2247" class="st1" d="M34.2,98.5c5.7-1.7,4.3-1.9,4.3-1.9c-1.6,0.2-3.1,0.8-4.3,1.7V98.5z"/>
			<path id="패스_2248" class="st1" d="M34.7,90.6C38,89,37.2,89,37.2,89C36.2,89.3,35.4,89.8,34.7,90.6L34.7,90.6z"/>
			<path id="패스_2249" class="st1" d="M34.5,96.5c-3.6-2.8-2.6-2.6-2.6-2.6C33,94.5,33.9,95.3,34.5,96.5L34.5,96.5z"/>
			<path id="패스_2250" class="st1" d="M33.9,100.1c-3.4-4.4-3.1-3.1-3.1-3.1c0.6,1.4,1.7,2.6,3.1,3.4V100.1z"/>
			<path id="패스_2251" class="st21" d="M33,80.6c0.1-0.2,0.2-0.3,0.2-0.5c0,0.2,0,0.4,0.2,0.6c0.2,0.3,0.5,0.3,0.8,0.2
				c0,0,0.1,0,0.1-0.1c0.2-0.2,0.3-0.6,0-0.8l0,0c-0.2-0.1-0.3-0.2-0.5-0.2c0.2,0,0.4,0,0.6-0.2c0.3-0.2,0.3-0.5,0.2-0.8
				c0,0,0-0.1-0.1-0.1c-0.2-0.2-0.6-0.3-0.8,0l0,0c-0.1,0.2-0.2,0.3-0.2,0.5c0-0.2,0-0.4-0.2-0.6c-0.2-0.3-0.6-0.3-0.9-0.1
				c-0.2,0.2-0.3,0.6,0,0.8l0,0c0.2,0.1,0.3,0.2,0.5,0.2c-0.2,0-0.4,0-0.6,0.2c-0.3,0.2-0.3,0.5-0.2,0.8c0,0,0,0.1,0.1,0.1
				C32.3,80.9,32.7,80.9,33,80.6C33,80.7,33,80.7,33,80.6"/>
			<path id="패스_2252" class="st5" d="M33.2,79.5L33.2,79.5L33.2,79.5L33.2,79.5L33.2,79.5C33.3,79.5,33.3,79.5,33.2,79.5"/>
			<path id="패스_2253" class="st5" d="M33.2,79.8L33.2,79.8L33.2,79.8L33.2,79.8L33.2,79.8L33.2,79.8L33.2,79.8L33.2,79.8
				L33.2,79.8"/>
			<path id="패스_2254" class="st5" d="M33.3,79.6L33.3,79.6L33.3,79.6L33.3,79.6C33.4,79.7,33.3,79.6,33.3,79.6"/>
			<path id="패스_2255" class="st5" d="M33.1,79.6L33.1,79.6L33.1,79.6L33.1,79.6L33.1,79.6L33.1,79.6"/>
			<path id="패스_2256" class="st21" d="M33.6,84.4c0.1-0.1,0.1-0.2,0.1-0.4c0,0.1,0,0.2,0.1,0.4c0.1,0.2,0.4,0.2,0.6,0.1
				c0.2-0.1,0.2-0.4,0.1-0.6l0,0c-0.1-0.1-0.2-0.1-0.4-0.1c0.1,0,0.2,0,0.4-0.1s0.2-0.4,0.1-0.6c-0.1-0.2-0.4-0.2-0.6-0.1l0,0
				c-0.1,0.1-0.1,0.2-0.1,0.4c0-0.1,0-0.2-0.1-0.4c-0.1-0.2-0.4-0.2-0.6-0.1C33,83,33,83.3,33.1,83.5l0,0c0.1,0.1,0.2,0.1,0.4,0.1
				c-0.1,0-0.2,0-0.4,0.1s-0.2,0.4-0.1,0.6C33.1,84.6,33.3,84.6,33.6,84.4C33.5,84.4,33.6,84.4,33.6,84.4"/>
			<path id="패스_2257" class="st5" d="M33.7,83.7L33.7,83.7L33.7,83.7L33.7,83.7C33.7,83.6,33.7,83.6,33.7,83.7"/>
			<path id="패스_2258" class="st5" d="M33.7,83.8L33.7,83.8L33.7,83.8L33.7,83.8C33.7,83.8,33.7,83.8,33.7,83.8"/>
			<path id="패스_2259" class="st5" d="M33.8,83.7L33.8,83.7L33.8,83.7L33.8,83.7C33.8,83.7,33.8,83.7,33.8,83.7"/>
			<path id="패스_2260" class="st5" d="M33.7,83.7L33.7,83.7L33.7,83.7L33.7,83.7C33.6,83.7,33.6,83.7,33.7,83.7"/>
			<path id="패스_2261" class="st21" d="M36.8,85.3c-0.1-0.1-0.1-0.3-0.2-0.4c0.1,0.1,0.3,0.2,0.4,0.2c0.3,0,0.5-0.1,0.5-0.4v-0.1
				c0-0.3-0.2-0.5-0.5-0.5h-0.1c-0.1,0.1-0.3,0.1-0.4,0.2c0.1-0.1,0.2-0.3,0.2-0.4c0-0.3-0.1-0.5-0.4-0.5h-0.1
				c-0.3,0-0.5,0.2-0.5,0.5V84c0.1,0.1,0.1,0.3,0.2,0.4c-0.1-0.1-0.3-0.2-0.4-0.2c-0.3,0-0.5,0.1-0.5,0.4v0.1c0,0.3,0.3,0.5,0.6,0.5
				l0,0c0.2,0,0.3-0.1,0.4-0.2c-0.1,0.1-0.2,0.3-0.2,0.4c0,0.3,0.1,0.5,0.4,0.5h0.1C36.6,85.8,36.8,85.6,36.8,85.3L36.8,85.3"/>
			<path id="패스_2262" class="st5" d="M36.1,84.5L36.1,84.5L36.1,84.5L36.1,84.5L36.1,84.5C36.1,84.5,36.1,84.5,36.1,84.5"/>
			<path id="패스_2263" class="st5" d="M36.3,84.6L36.3,84.6C36.3,84.6,36.3,84.7,36.3,84.6L36.3,84.6L36.3,84.6
				C36.3,84.7,36.3,84.7,36.3,84.6"/>
			<path id="패스_2264" class="st5" d="M36.3,84.5L36.3,84.5C36.3,84.5,36.3,84.4,36.3,84.5L36.3,84.5L36.3,84.5L36.3,84.5
				L36.3,84.5"/>
			<path id="패스_2265" class="st5" d="M36.2,84.7L36.2,84.7C36.1,84.7,36.1,84.7,36.2,84.7H36l0,0l0,0
				C36.1,84.7,36.1,84.7,36.2,84.7"/>
			<path id="패스_2266" class="st21" d="M33.2,87.5c-0.1-0.1-0.2-0.2-0.3-0.3c0.1,0,0.2,0.1,0.4,0.1c0.2-0.1,0.4-0.3,0.3-0.5
				c-0.1-0.2-0.3-0.3-0.5-0.3l0,0c-0.1,0.1-0.2,0.2-0.3,0.3c0-0.1,0.1-0.2,0.1-0.4c-0.1-0.2-0.3-0.4-0.5-0.3s-0.3,0.3-0.3,0.5l0,0
				c0.1,0.1,0.2,0.2,0.3,0.3c-0.1,0-0.2-0.1-0.4-0.1c-0.2,0.1-0.4,0.3-0.3,0.5s0.3,0.3,0.5,0.3l0,0c0.1-0.1,0.2-0.2,0.3-0.3
				c0,0.1-0.1,0.2-0.1,0.4c0,0.2,0.2,0.4,0.5,0.3C33.1,88,33.3,87.8,33.2,87.5L33.2,87.5"/>
			<path id="패스_2267" class="st5" d="M32.6,87L32.6,87L32.6,87L32.6,87C32.5,87,32.5,87,32.6,87C32.5,87,32.5,87,32.6,87"/>
			<path id="패스_2268" class="st5" d="M32.7,87.1L32.7,87.1C32.7,87.1,32.7,87.1,32.7,87.1L32.7,87.1"/>
			<path id="패스_2269" class="st5" d="M32.7,87L32.7,87L32.7,87L32.7,87C32.7,86.9,32.7,86.9,32.7,87L32.7,87"/>
			<path id="패스_2270" class="st5" d="M32.6,87.1L32.6,87.1L32.6,87.1L32.6,87.1C32.5,87.1,32.5,87.1,32.6,87.1L32.6,87.1"/>
			<path id="패스_2271" class="st21" d="M33.2,91.8c-0.1-0.1-0.1-0.3-0.2-0.4c0.1,0.1,0.3,0.1,0.4,0.2c0.2,0,0.4-0.2,0.4-0.4
				c0,0,0,0,0-0.1c0-0.3-0.3-0.4-0.5-0.4l0,0c-0.1,0.1-0.3,0.1-0.4,0.2c0.1-0.1,0.1-0.3,0.2-0.4c0-0.2-0.2-0.4-0.4-0.4
				c0,0,0,0-0.1,0c-0.3,0-0.4,0.3-0.4,0.5l0,0c0.1,0.1,0.1,0.3,0.2,0.4c-0.1-0.1-0.3-0.1-0.4-0.2c-0.2,0-0.4,0.2-0.4,0.4
				c0,0,0,0,0,0.1c0,0.3,0.3,0.4,0.5,0.4l0,0c0.1-0.1,0.3-0.1,0.4-0.2c-0.1,0.1-0.1,0.3-0.2,0.4c0,0.2,0.2,0.4,0.4,0.4
				c0,0,0,0,0.1,0C33,92.3,33.2,92,33.2,91.8L33.2,91.8"/>
			<path id="패스_2272" class="st5" d="M32.6,91.2L32.6,91.2C32.6,91.2,32.6,91.1,32.6,91.2C32.6,91.2,32.6,91.1,32.6,91.2
				L32.5,91l0,0C32.6,91.1,32.6,91.1,32.6,91.2"/>
			<path id="패스_2273" class="st5" d="M32.7,91.2L32.7,91.2C32.8,91.2,32.8,91.3,32.7,91.2L32.7,91.2L32.7,91.2
				C32.8,91.3,32.7,91.3,32.7,91.2"/>
			<path id="패스_2274" class="st5" d="M32.7,91.1L32.7,91.1L32.7,91.1L32.7,91.1C32.7,91.1,32.7,91.1,32.7,91.1"/>
			<path id="패스_2275" class="st5" d="M32.6,91.2L32.6,91.2C32.6,91.3,32.6,91.3,32.6,91.2L32.6,91.2L32.6,91.2L32.6,91.2
				C32.6,91.3,32.6,91.3,32.6,91.2"/>
			<path id="패스_2276" class="st21" d="M37.3,93.8c0-0.1-0.1-0.3-0.2-0.4c0.1,0.1,0.2,0.2,0.3,0.2c0.2,0,0.4-0.1,0.5-0.4l0,0
				c0-0.2-0.2-0.4-0.4-0.4c-0.1,0-0.3,0.1-0.4,0.2c0.1-0.1,0.2-0.2,0.2-0.3c0-0.2-0.1-0.4-0.4-0.5l0,0c-0.2,0-0.4,0.2-0.4,0.4l0,0
				c0,0.1,0.1,0.3,0.2,0.4c-0.1-0.1-0.2-0.2-0.3-0.2c-0.2,0-0.4,0.1-0.5,0.4l0,0c0,0.2,0.2,0.4,0.4,0.4c0.1,0,0.3-0.1,0.4-0.2
				c-0.1,0.1-0.2,0.2-0.2,0.3c0,0.2,0.1,0.4,0.4,0.5l0,0C37.1,94.2,37.3,94.1,37.3,93.8C37.3,93.9,37.3,93.9,37.3,93.8"/>
			<path id="패스_2277" class="st5" d="M36.9,93.2L36.9,93.2L36.9,93.2L36.9,93.2L36.9,93.2L36.9,93.2"/>
			<path id="패스_2278" class="st5" d="M37,93.3L37,93.3L37,93.3L37,93.3L37,93.3C37,93.4,37,93.3,37,93.3"/>
			<path id="패스_2279" class="st5" d="M37,93.2L37,93.2L37,93.2L37,93.2L37,93.2"/>
			<path id="패스_2280" class="st5" d="M36.9,93.3L36.9,93.3L36.9,93.3L36.9,93.3C36.8,93.3,36.8,93.3,36.9,93.3"/>
			<path id="패스_2281" class="st21" d="M35.7,82.4c0.1-0.1,0.2-0.3,0.2-0.4c0,0.2,0,0.3,0,0.5c0.1,0.3,0.5,0.4,0.7,0.2l0,0
				c0.2-0.2,0.3-0.5,0.1-0.7l0,0c-0.1-0.1-0.3-0.2-0.4-0.2c0.2,0,0.3,0,0.5,0c0.3-0.1,0.4-0.5,0.2-0.7l0,0c-0.2-0.2-0.5-0.3-0.7-0.1
				l0,0c-0.1,0.1-0.2,0.3-0.2,0.4c0-0.2,0-0.3,0-0.5c-0.1-0.3-0.5-0.4-0.7-0.2l0,0c-0.2,0.2-0.3,0.5-0.1,0.7l0,0
				c0.1,0.1,0.3,0.2,0.4,0.2c-0.2,0-0.3,0-0.5,0c-0.3,0.1-0.4,0.5-0.2,0.7l0,0c0.1,0.2,0.4,0.3,0.6,0.2
				C35.7,82.4,35.7,82.4,35.7,82.4"/>
			<path id="패스_2282" class="st5" d="M36.1,81.5L36.1,81.5L36.1,81.5L36.1,81.5L36.1,81.5L36.1,81.5L36.1,81.5L36.1,81.5"/>
			<path id="패스_2283" class="st5" d="M36.1,81.7L36.1,81.7L36.1,81.7L36.1,81.7L36.1,81.7L36.1,81.7L36.1,81.7
				C36,81.7,36,81.7,36.1,81.7L36.1,81.7"/>
			<path id="패스_2284" class="st5" d="M36.1,81.6L36.1,81.6L36.1,81.6L36.1,81.6C36.2,81.6,36.2,81.6,36.1,81.6
				C36.2,81.6,36.2,81.6,36.1,81.6"/>
			<path id="패스_2285" class="st5" d="M36,81.5L36,81.5L36,81.5L36,81.5C35.9,81.5,35.9,81.5,36,81.5"/>
			<path id="패스_2286" class="st21" d="M31.3,82.8c0.1,0,0.2-0.2,0.3-0.4c0,0.2-0.1,0.3-0.1,0.5c0.1,0.3,0.3,0.4,0.6,0.4h0.1
				c0.3-0.1,0.4-0.4,0.3-0.6v-0.1c0-0.1-0.2-0.2-0.4-0.3c0.2,0,0.3,0.1,0.5,0.1c0.3-0.1,0.4-0.3,0.4-0.6v-0.1
				c-0.1-0.3-0.4-0.4-0.6-0.3h-0.1c-0.1,0-0.2,0.2-0.3,0.4c0-0.2,0.1-0.3,0.1-0.5c-0.1-0.3-0.3-0.4-0.6-0.4h-0.1
				c-0.3,0.1-0.4,0.4-0.3,0.6v0.1c0,0.1,0.2,0.2,0.4,0.3c-0.2,0-0.3-0.1-0.5-0.1c-0.3,0.1-0.4,0.4-0.4,0.6c0.1,0.3,0.4,0.4,0.6,0.4
				C31.3,82.8,31.3,82.8,31.3,82.8"/>
			<path id="패스_2287" class="st5" d="M31.9,82L31.9,82L31.9,82C31.9,81.9,31.9,81.9,31.9,82L31.9,82L31.9,82L31.9,82L31.9,82
				L31.9,82C32,82,31.9,82,31.9,82"/>
			<path id="패스_2288" class="st5" d="M31.8,82.1L31.8,82.1L31.8,82.1C31.8,82.2,31.8,82.2,31.8,82.1L31.8,82.1L31.8,82.1
				L31.8,82.1L31.8,82.1L31.8,82.1C31.8,82.2,31.8,82.2,31.8,82.1"/>
			<path id="패스_2289" class="st5" d="M31.9,82.1L31.9,82.1c0.1,0,0.1,0,0.1,0l0,0l0,0H31.9C32,82.1,31.9,82.1,31.9,82.1"/>
			<path id="패스_2290" class="st5" d="M31.8,82L31.8,82c-0.1,0-0.1,0-0.1,0l0,0l0,0H31.8C31.7,82,31.8,82,31.8,82"/>
			<path id="패스_2291" class="st21" d="M31.7,85.3c0.1-0.1,0.1-0.2,0.1-0.4c0,0.1,0,0.2,0.1,0.4c0.1,0.2,0.4,0.2,0.6,0.1
				c0.2-0.1,0.2-0.4,0.1-0.6l0,0c-0.1-0.1-0.2-0.1-0.4-0.1c0.1,0,0.2,0,0.4-0.1s0.2-0.4,0.1-0.6c-0.1-0.2-0.4-0.2-0.6-0.1l0,0
				C32,84,32,84.1,32,84.3c0-0.1,0-0.2-0.1-0.4c-0.1-0.2-0.4-0.2-0.6-0.1s-0.2,0.4-0.1,0.6l0,0c0.1,0.1,0.2,0.1,0.4,0.1
				c-0.1,0-0.2,0-0.4,0.1C31,84.7,31,85,31.1,85.2l0,0C31.3,85.5,31.5,85.5,31.7,85.3C31.7,85.4,31.7,85.4,31.7,85.3"/>
			<path id="패스_2292" class="st5" d="M31.9,84.6L31.9,84.6L31.9,84.6L31.9,84.6C31.9,84.6,31.9,84.6,31.9,84.6"/>
			<path id="패스_2293" class="st5" d="M31.9,84.7L31.9,84.7L31.9,84.7L31.9,84.7C31.8,84.8,31.9,84.8,31.9,84.7"/>
			<path id="패스_2294" class="st5" d="M31.9,84.7H32l0,0l0,0C31.9,84.7,31.9,84.7,31.9,84.7"/>
			<path id="패스_2295" class="st5" d="M31.8,84.7h-0.1l0,0l0,0H31.8"/>
			<path id="패스_2296" class="st21" d="M34.8,87.6c0.1-0.1,0.3-0.1,0.4-0.2c-0.1,0.1-0.1,0.3-0.2,0.4c0,0.2,0.2,0.4,0.4,0.4
				c0,0,0,0,0.1,0c0.2,0,0.4-0.2,0.4-0.4v-0.1c-0.1-0.1-0.1-0.3-0.2-0.4c0.1,0.1,0.3,0.1,0.4,0.2c0.2,0,0.4-0.2,0.4-0.4
				c0,0,0,0,0-0.1c0-0.2-0.2-0.4-0.4-0.4H36c-0.1,0.1-0.3,0.1-0.4,0.2c0.1-0.1,0.1-0.3,0.2-0.4c0-0.2-0.2-0.4-0.4-0.4c0,0,0,0-0.1,0
				c-0.2,0-0.4,0.2-0.4,0.4v0.1c0.1,0.1,0.1,0.3,0.2,0.4c-0.1-0.1-0.3-0.1-0.4-0.2c-0.2,0-0.4,0.2-0.4,0.4c0,0,0,0,0,0.1
				C34.3,87.5,34.5,87.6,34.8,87.6C34.7,87.6,34.8,87.6,34.8,87.6"/>
			<path id="패스_2297" class="st5" d="M35.4,87L35.4,87L35.4,87L35.4,87L35.4,87L35.4,87L35.4,87"/>
			<path id="패스_2298" class="st5" d="M35.3,87.1L35.3,87.1C35.3,87.2,35.3,87.2,35.3,87.1L35.3,87.1L35.3,87.1"/>
			<path id="패스_2299" class="st5" d="M35.4,87.1L35.4,87.1C35.5,87.1,35.5,87.2,35.4,87.1L35.4,87.1L35.4,87.1L35.4,87.1"/>
			<path id="패스_2300" class="st5" d="M35.3,87L35.3,87L35.3,87L35.3,87L35.3,87L35.3,87"/>
			<path id="패스_2301" class="st1" d="M23.9,97L23.9,97c-0.1,0-0.1-0.1-0.1-0.1c1.6-6.1,1.6-12.5,0-18.6c0,0,0-0.1,0.1-0.1
				c0,0,0.1,0,0.1,0.1c1.6,6.1,1.6,12.6,0,18.7H23.9"/>
			<path id="패스_2302" class="st1" d="M24.6,81.3C24.5,81.3,24.5,81.3,24.6,81.3c-0.1-0.1-0.1-0.1,0-0.2l2.2-1.4h0.1v0.1
				L24.6,81.3L24.6,81.3"/>
			<path id="패스_2303" class="st1" d="M23.9,78.4L23.9,78.4l-1.6-1.1v-0.1h0.1l1.5,1l2.2-1.4h0.1v0.1L23.9,78.4
				C24,78.4,24,78.4,23.9,78.4"/>
			<path id="패스_2304" class="st1" d="M24.9,83.5L24.9,83.5L23,82.4c0,0-0.1-0.1,0-0.1h0.1L24.9,83.5
				C24.9,83.4,25,83.5,24.9,83.5L24.9,83.5"/>
			<path id="패스_2305" class="st1" d="M25,89.9L25,89.9c-0.1-0.1-0.1-0.1,0-0.2l2.1-1.3h0.1v0.1L25,89.9L25,89.9"/>
			<path id="패스_2306" class="st1" d="M25.1,87.9L25.1,87.9l-1.7-1.1c0,0-0.1-0.1,0-0.1c0,0,0.1-0.1,0.1,0L25.1,87.9
				C25.2,87.7,25.2,87.8,25.1,87.9C25.2,87.9,25.1,87.9,25.1,87.9L25.1,87.9"/>
			<path id="패스_2307" class="st1" d="M23.9,78.4C23.9,78.4,23.8,78.3,23.9,78.4l-0.4-3.1c0,0,0-0.1,0.1-0.1c0,0,0.1,0,0.1,0.1
				l0.4,3C24,78.3,24,78.3,23.9,78.4L23.9,78.4"/>
			<path id="패스_2308" class="st1" d="M24.3,80.3L24.3,80.3l-1.8-0.4c0,0-0.1,0-0.1-0.1c0,0,0-0.1,0.1-0.1l1.8,0.4
				c0,0,0.1,0,0.1,0.1S24.4,80.3,24.3,80.3"/>
			<path id="패스_2309" class="st1" d="M24.9,83.5L24.9,83.5c-0.1,0-0.1-0.1-0.1-0.1l0.7-1.2l0.1-0.1l0.1,0.1l0,0L24.9,83.5
				L24.9,83.5"/>
			<path id="패스_2310" class="st1" d="M24.6,93.7c5.7-1.7,4.3-1.9,4.3-1.9c-1.6,0.2-3.1,0.8-4.3,1.7L24.6,93.7z"/>
			<path id="패스_2311" class="st1" d="M25.1,85.8c3.3-1.6,2.4-1.6,2.4-1.6C26.6,84.4,25.7,85,25.1,85.8L25.1,85.8z"/>
			<path id="패스_2312" class="st1" d="M24.8,91.6c-3.6-2.8-2.6-2.6-2.6-2.6C23.3,89.6,24.2,90.4,24.8,91.6L24.8,91.6z"/>
			<path id="패스_2313" class="st1" d="M24.2,95.2c-3.4-4.4-3.1-3.1-3.1-3.1c0.6,1.4,1.7,2.6,3.1,3.4V95.2z"/>
			<path id="패스_2314" class="st21" d="M23.4,75.8c0.1-0.2,0.2-0.3,0.2-0.5c0,0.2,0,0.4,0.2,0.6c0.2,0.3,0.5,0.3,0.8,0.2
				c0,0,0.1,0,0.1-0.1c0.2-0.2,0.3-0.6,0-0.8l0,0c-0.2-0.1-0.3-0.2-0.5-0.2c0.2,0,0.4,0,0.6-0.2c0.3-0.2,0.3-0.5,0.2-0.8
				c0,0,0-0.1-0.1-0.1c-0.2-0.2-0.6-0.3-0.8,0l0,0c-0.1,0.2-0.2,0.3-0.2,0.5c0-0.2,0-0.4-0.2-0.6c-0.2-0.3-0.5-0.3-0.8-0.2
				c0,0-0.1,0-0.1,0.1c-0.2,0.2-0.3,0.6,0,0.8l0,0c0.2,0.1,0.3,0.2,0.5,0.2c-0.2,0-0.4,0.1-0.6,0.2c-0.3,0.2-0.3,0.5-0.2,0.8
				c0,0,0,0.1,0.1,0.1C22.7,76,23.1,76.1,23.4,75.8C23.3,75.8,23.3,75.8,23.4,75.8"/>
			<path id="패스_2315" class="st5" d="M23.6,74.7L23.6,74.7L23.6,74.7L23.6,74.7L23.6,74.7C23.6,74.6,23.6,74.6,23.6,74.7"/>
			<path id="패스_2316" class="st5" d="M23.6,74.9L23.6,74.9L23.6,74.9L23.6,74.9L23.6,74.9L23.6,74.9L23.6,74.9L23.6,74.9"/>
			<path id="패스_2317" class="st5" d="M23.7,74.8h0.1l0,0H23.7L23.7,74.8"/>
			<path id="패스_2318" class="st5" d="M23.5,74.8h-0.1l0,0H23.5C23.4,74.8,23.4,74.8,23.5,74.8"/>
			<path id="패스_2319" class="st21" d="M23.9,79.5c0.1-0.1,0.1-0.2,0.1-0.4c0,0.1,0,0.2,0.1,0.4c0.1,0.2,0.4,0.2,0.6,0.1
				c0.2-0.1,0.2-0.4,0.1-0.6l0,0c-0.1-0.1-0.2-0.1-0.4-0.1c0.1,0,0.2,0,0.4-0.1c0.2-0.1,0.2-0.4,0.1-0.6s-0.4-0.2-0.6-0.1l0,0
				c-0.1,0.1-0.1,0.2-0.1,0.4c0-0.1,0-0.2-0.1-0.4c-0.1-0.2-0.4-0.2-0.6-0.1s-0.2,0.4-0.1,0.6l0,0c0.1,0.1,0.2,0.1,0.4,0.1
				c-0.1,0-0.2,0-0.4,0.1c-0.2,0.1-0.2,0.4-0.1,0.6C23.4,79.7,23.7,79.7,23.9,79.5L23.9,79.5"/>
			<path id="패스_2320" class="st5" d="M24.1,78.8L24.1,78.8L24.1,78.8L24.1,78.8L24.1,78.8"/>
			<path id="패스_2321" class="st5" d="M24.1,78.9L24.1,78.9L24.1,78.9L24.1,78.9C24,79,24,78.9,24.1,78.9"/>
			<path id="패스_2322" class="st5" d="M24.1,78.8h0.1l0,0l0,0C24.2,78.9,24.2,78.8,24.1,78.8"/>
			<path id="패스_2323" class="st5" d="M24,78.8h-0.1l0,0l0,0H24"/>
			<path id="패스_2324" class="st21" d="M27.1,80.4c0-0.2-0.1-0.3-0.2-0.4c0.1,0.1,0.3,0.2,0.4,0.2c0.3,0,0.5-0.1,0.5-0.4v-0.1
				c0-0.3-0.2-0.5-0.5-0.5h-0.1c-0.1,0.1-0.3,0.1-0.4,0.2c0.1-0.1,0.2-0.3,0.2-0.4c0-0.3-0.1-0.5-0.4-0.5h-0.1
				c-0.3,0-0.5,0.2-0.5,0.5v0.1c0,0.1,0.2,0.3,0.2,0.4c-0.1-0.1-0.3-0.2-0.4-0.2c-0.3,0-0.5,0.1-0.5,0.4v0.1c0,0.3,0.3,0.5,0.6,0.5
				l0,0c0.2,0,0.3-0.1,0.4-0.2c-0.1,0.1-0.2,0.3-0.2,0.4c0,0.3,0.1,0.5,0.4,0.5h0.1C26.9,81,27.1,80.7,27.1,80.4L27.1,80.4"/>
			<path id="패스_2325" class="st5" d="M26.5,79.7L26.5,79.7C26.5,79.6,26.4,79.6,26.5,79.7l-0.1-0.1l0,0
				C26.4,79.6,26.5,79.6,26.5,79.7"/>
			<path id="패스_2326" class="st5" d="M26.6,79.8L26.6,79.8C26.6,79.8,26.7,79.8,26.6,79.8l0.1,0.1l0,0
				C26.6,79.9,26.6,79.8,26.6,79.8"/>
			<path id="패스_2327" class="st5" d="M26.6,79.6L26.6,79.6L26.6,79.6l0.1-0.1l0,0l0,0C26.7,79.6,26.6,79.6,26.6,79.6"/>
			<path id="패스_2328" class="st5" d="M26.5,79.8L26.5,79.8L26.5,79.8l-0.1,0.1l0,0l0,0C26.4,79.8,26.4,79.8,26.5,79.8"/>
			<path id="패스_2329" class="st21" d="M23.5,82.6c-0.1-0.1-0.2-0.2-0.3-0.3c0.1,0,0.2,0.1,0.4,0.1c0.2-0.1,0.4-0.3,0.3-0.5
				c-0.1-0.2-0.3-0.3-0.5-0.3l0,0c-0.1,0.1-0.2,0.2-0.3,0.3c0-0.1,0.1-0.2,0.1-0.4c-0.1-0.2-0.3-0.4-0.5-0.3s-0.3,0.3-0.3,0.5l0,0
				c0.1,0.1,0.2,0.2,0.3,0.3c-0.1,0-0.2-0.1-0.4-0.1c-0.2,0.1-0.4,0.3-0.3,0.5c0.1,0.2,0.3,0.3,0.5,0.3l0,0c0.1-0.1,0.2-0.2,0.3-0.3
				c0,0.1-0.1,0.2-0.1,0.4c0,0.2,0.2,0.4,0.5,0.3C23.4,83.1,23.6,82.9,23.5,82.6C23.5,82.7,23.5,82.7,23.5,82.6"/>
			<path id="패스_2330" class="st5" d="M22.9,82.1h-0.1l0,0l0,0C22.9,82.1,22.9,82.1,22.9,82.1L22.9,82.1"/>
			<path id="패스_2331" class="st5" d="M23,82.2L23,82.2C23.1,82.3,23.1,82.3,23,82.2L23,82.2"/>
			<path id="패스_2332" class="st5" d="M23,82.1L23,82.1L23,82.1L23,82.1L23,82.1L23,82.1"/>
			<path id="패스_2333" class="st5" d="M22.9,82.3L22.9,82.3L22.9,82.3L22.9,82.3L22.9,82.3L22.9,82.3"/>
			<path id="패스_2334" class="st21" d="M23.5,86.9c-0.1-0.1-0.1-0.3-0.2-0.4c0.1,0.1,0.3,0.1,0.4,0.2c0.2,0,0.4-0.2,0.4-0.4
				c0,0,0,0,0-0.1c0-0.3-0.3-0.4-0.5-0.4l0,0c-0.1,0-0.3,0.1-0.4,0.2c0.1-0.1,0.1-0.3,0.2-0.4c0-0.2-0.2-0.4-0.4-0.4c0,0,0,0-0.1,0
				c-0.3,0-0.4,0.3-0.4,0.5l0,0c0.1,0.1,0.1,0.3,0.2,0.4c-0.1-0.1-0.3-0.1-0.4-0.2c-0.2,0-0.4,0.2-0.4,0.4c0,0,0,0,0,0.1
				c0,0.3,0.3,0.4,0.5,0.4l0,0c0.1-0.1,0.3-0.1,0.4-0.2c-0.1,0.1-0.1,0.3-0.2,0.4c0,0.2,0.2,0.4,0.4,0.4c0,0,0,0,0.1,0
				C23.4,87.4,23.6,87.2,23.5,86.9"/>
			<path id="패스_2335" class="st5" d="M23,86.3L23,86.3C22.9,86.3,22.9,86.2,23,86.3L23,86.3L23,86.3
				C22.9,86.2,22.9,86.3,23,86.3"/>
			<path id="패스_2336" class="st5" d="M23.1,86.4L23.1,86.4L23.1,86.4L23.1,86.4L23.1,86.4L23.1,86.4"/>
			<path id="패스_2337" class="st5" d="M23,86.3L23,86.3C23.1,86.3,23.1,86.2,23,86.3C23,86.2,23.1,86.2,23,86.3L23,86.3
				C23.1,86.3,23.1,86.3,23,86.3"/>
			<path id="패스_2338" class="st5" d="M23,86.4L23,86.4C23,86.4,22.9,86.4,23,86.4l-0.1,0.1l0,0l0,0C22.9,86.4,22.9,86.4,23,86.4
				"/>
			<path id="패스_2339" class="st21" d="M27.6,89c0-0.1-0.1-0.3-0.2-0.4c0.1,0.1,0.2,0.2,0.3,0.2c0.2,0,0.4-0.1,0.5-0.4
				c0-0.2-0.2-0.4-0.4-0.4c-0.1,0-0.3,0.1-0.4,0.2c0.1-0.1,0.2-0.2,0.2-0.3c0-0.2-0.1-0.4-0.4-0.5l0,0c-0.2,0-0.4,0.2-0.4,0.4l0,0
				c0,0.1,0.1,0.3,0.2,0.4c0-0.1-0.2-0.2-0.3-0.2c-0.2,0-0.4,0.1-0.5,0.4l0,0c0,0.2,0.2,0.4,0.4,0.4c0.1,0,0.3-0.1,0.4-0.2
				c-0.1,0.1-0.2,0.2-0.2,0.3c0,0.2,0.1,0.4,0.4,0.5l0,0c0.2,0,0.4-0.1,0.4-0.3C27.6,89.1,27.6,89,27.6,89"/>
			<path id="패스_2340" class="st5" d="M27.2,88.4L27.2,88.4L27.2,88.4L27.2,88.4L27.2,88.4C27.2,88.3,27.2,88.3,27.2,88.4"/>
			<path id="패스_2341" class="st5" d="M27.3,88.5L27.3,88.5L27.3,88.5L27.3,88.5L27.3,88.5L27.3,88.5"/>
			<path id="패스_2342" class="st5" d="M27.3,88.4L27.3,88.4L27.3,88.4L27.3,88.4L27.3,88.4"/>
			<path id="패스_2343" class="st5" d="M27.2,88.4L27.2,88.4L27.2,88.4L27.2,88.4C27.2,88.5,27.2,88.5,27.2,88.4"/>
			<path id="패스_2344" class="st21" d="M26.1,77.5c0.1-0.1,0.2-0.3,0.2-0.4c0,0.2,0,0.3,0,0.5c0.1,0.3,0.5,0.4,0.7,0.2l0,0
				c0.2-0.2,0.3-0.5,0.1-0.7l0,0c-0.1-0.1-0.3-0.2-0.4-0.2c0.2,0,0.3,0,0.5,0c0.3-0.1,0.4-0.5,0.2-0.7l0,0c-0.2-0.2-0.5-0.3-0.7-0.1
				l0,0c-0.1,0.1-0.2,0.3-0.2,0.4c0-0.2,0-0.3,0-0.5c-0.1-0.3-0.5-0.4-0.7-0.2l0,0c-0.2,0.2-0.3,0.5-0.1,0.7l0,0
				c0.1,0.1,0.3,0.2,0.4,0.2c-0.2,0-0.3,0-0.5,0c-0.3,0.1-0.4,0.5-0.2,0.7l0,0C25.5,77.6,25.8,77.7,26.1,77.5L26.1,77.5"/>
			<path id="패스_2345" class="st5" d="M26.4,76.6L26.4,76.6L26.4,76.6L26.4,76.6L26.4,76.6L26.4,76.6L26.4,76.6
				C26.5,76.6,26.4,76.6,26.4,76.6L26.4,76.6"/>
			<path id="패스_2346" class="st5" d="M26.4,76.8L26.4,76.8L26.4,76.8L26.4,76.8L26.4,76.8L26.4,76.8L26.4,76.8L26.4,76.8
				L26.4,76.8"/>
			<path id="패스_2347" class="st5" d="M26.5,76.7h0.1l0,0H26.5L26.5,76.7"/>
			<path id="패스_2348" class="st5" d="M26.3,76.7h-0.1l0,0H26.3L26.3,76.7"/>
			<path id="패스_2349" class="st21" d="M21.7,77.9c0.1,0,0.2-0.2,0.3-0.4c0,0.2-0.1,0.3-0.1,0.5c0.1,0.3,0.3,0.4,0.6,0.4h0.1
				c0.3-0.1,0.4-0.4,0.3-0.6v-0.1c0-0.1-0.2-0.2-0.4-0.3c0.2,0,0.3,0.1,0.5,0.1c0.3-0.1,0.4-0.3,0.4-0.6v-0.1
				c-0.1-0.3-0.4-0.4-0.6-0.3h-0.1c-0.1,0-0.2,0.2-0.3,0.4c0-0.2,0.1-0.3,0.1-0.5c-0.1-0.3-0.3-0.4-0.6-0.4h-0.1
				c-0.3,0.1-0.4,0.4-0.3,0.6v0.1c0,0.1,0.2,0.2,0.4,0.3c-0.2,0-0.3-0.1-0.5-0.1C21.1,77,21,77.2,21,77.5v0.1
				C21.1,77.9,21.4,78,21.7,77.9L21.7,77.9"/>
			<path id="패스_2350" class="st5" d="M22.2,77.1L22.2,77.1L22.2,77.1C22.2,77,22.2,77,22.2,77.1L22.2,77.1L22.2,77.1L22.2,77.1
				L22.2,77.1C22.3,77.1,22.2,77.1,22.2,77.1"/>
			<path id="패스_2351" class="st5" d="M22.2,77.3L22.2,77.3L22.2,77.3C22.2,77.4,22.2,77.4,22.2,77.3L22.2,77.3L22.2,77.3
				L22.2,77.3L22.2,77.3C22.1,77.3,22.1,77.3,22.2,77.3"/>
			<path id="패스_2352" class="st5" d="M22.3,77.2L22.3,77.2c0.1,0,0.1,0,0.1,0l0,0H22.3C22.3,77.3,22.3,77.3,22.3,77.2"/>
			<path id="패스_2353" class="st5" d="M22.1,77.2L22.1,77.2c-0.1,0-0.1,0-0.1,0l0,0H22.1C22.1,77.1,22.1,77.1,22.1,77.2"/>
			<path id="패스_2354" class="st21" d="M22.1,80.5c0.1-0.1,0.1-0.2,0.1-0.4c0,0.1,0,0.2,0.1,0.4c0.1,0.2,0.4,0.2,0.6,0.1
				c0.2-0.1,0.2-0.4,0.1-0.6l0,0c-0.1-0.1-0.2-0.1-0.4-0.1c0.1,0,0.2,0,0.4-0.1c0.2-0.1,0.2-0.4,0.1-0.6s-0.4-0.2-0.6-0.1l0,0
				c-0.1,0.1-0.1,0.2-0.1,0.4c0-0.1,0-0.2-0.1-0.4c-0.1-0.2-0.4-0.2-0.6-0.1s-0.2,0.4-0.1,0.6l0,0c0.1,0.1,0.2,0.1,0.4,0.1
				c-0.1,0-0.2,0-0.4,0.1c-0.2,0.1-0.2,0.4-0.1,0.6l0,0C21.6,80.7,21.9,80.7,22.1,80.5C22,80.5,22.1,80.5,22.1,80.5"/>
			<path id="패스_2355" class="st5" d="M22.2,79.7L22.2,79.7L22.2,79.7L22.2,79.7C22.2,79.7,22.2,79.7,22.2,79.7"/>
			<path id="패스_2356" class="st5" d="M22.2,79.9L22.2,79.9L22.2,79.9L22.2,79.9L22.2,79.9"/>
			<path id="패스_2357" class="st5" d="M22.3,79.8h0.1l0,0l0,0H22.3"/>
			<path id="패스_2358" class="st5" d="M22.1,79.8H22l0,0l0,0C22.1,79.8,22.1,79.8,22.1,79.8"/>
			<path id="패스_2359" class="st21" d="M25.1,82.7c0.1-0.1,0.3-0.1,0.4-0.2c-0.1,0.1-0.1,0.3-0.2,0.4c0,0.2,0.2,0.4,0.4,0.4
				c0,0,0,0,0.1,0c0.2,0,0.4-0.2,0.4-0.4v-0.1c-0.1-0.1-0.1-0.3-0.2-0.4c0.1,0.1,0.3,0.1,0.4,0.2c0.2,0,0.4-0.2,0.4-0.4
				c0,0,0,0,0-0.1c0-0.2-0.2-0.4-0.4-0.4h-0.1c-0.1,0.1-0.3,0.1-0.4,0.2c0.1-0.1,0.1-0.3,0.2-0.4c0-0.2-0.2-0.4-0.4-0.4
				c0,0,0,0-0.1,0c-0.2,0-0.4,0.2-0.4,0.4v0.1c0.1,0.1,0.1,0.3,0.2,0.4c-0.1-0.1-0.3-0.1-0.4-0.2c-0.2,0-0.4,0.2-0.4,0.4
				c0,0,0,0,0,0.1C24.6,82.6,24.9,82.8,25.1,82.7"/>
			<path id="패스_2360" class="st5" d="M25.7,82.2L25.7,82.2C25.7,82.1,25.8,82.1,25.7,82.2L25.7,82.2L25.7,82.2L25.7,82.2
				C25.8,82.1,25.8,82.1,25.7,82.2"/>
			<path id="패스_2361" class="st5" d="M25.6,82.3L25.6,82.3L25.6,82.3L25.6,82.3L25.6,82.3"/>
			<path id="패스_2362" class="st5" d="M25.8,82.3L25.8,82.3L25.8,82.3l0.1,0.1l0,0C25.8,82.3,25.8,82.3,25.8,82.3"/>
			<path id="패스_2363" class="st5" d="M25.6,82.2L25.6,82.2L25.6,82.2L25.6,82.2L25.6,82.2L25.6,82.2"/>
			<path id="패스_2364" class="st1" d="M15.1,101.6L15.1,101.6c-0.1,0-0.1-0.1-0.1-0.1c1.6-6.1,1.6-12.5,0-18.6c0,0,0-0.1,0.1-0.1
				c0,0,0.1,0,0.1,0.1c1.6,6.1,1.6,12.6,0,18.7C15.2,101.6,15.1,101.6,15.1,101.6"/>
			<path id="패스_2365" class="st1" d="M15.8,85.9L15.8,85.9c-0.1-0.1-0.1-0.1,0-0.2l2.2-1.4h0.1v0.1L15.8,85.9L15.8,85.9"/>
			<path id="패스_2366" class="st1" d="M15.2,82.9L15.2,82.9l-1.6-1.1c0,0-0.1-0.1,0-0.1c0,0,0.1-0.1,0.1,0l1.5,1l2.2-1.4h0.1v0.1
				L15.2,82.9L15.2,82.9"/>
			<path id="패스_2367" class="st1" d="M16.1,88.1L16.1,88.1L14.2,87c0,0-0.1-0.1,0-0.1c0,0,0.1-0.1,0.1,0l0,0L16.1,88.1
				C16.2,88,16.2,88,16.1,88.1C16.2,88.1,16.1,88.1,16.1,88.1"/>
			<path id="패스_2368" class="st1" d="M16.3,94.5C16.2,94.5,16.2,94.5,16.3,94.5c-0.1-0.1-0.1-0.1,0-0.2l2.1-1.3h0.1v0.1
				L16.3,94.5L16.3,94.5"/>
			<path id="패스_2369" class="st1" d="M16.3,92.4L16.3,92.4l-1.7-1.1c0,0-0.1-0.1,0-0.1c0,0,0.1-0.1,0.1,0L16.3,92.4
				C16.4,92.3,16.4,92.4,16.3,92.4C16.4,92.4,16.4,92.4,16.3,92.4"/>
			<path id="패스_2370" class="st1" d="M15.2,82.9C15.1,82.9,15.1,82.9,15.2,82.9l-0.4-3.1c0,0,0-0.1,0.1-0.1c0,0,0.1,0,0.1,0.1
				l0.4,3C15.3,82.9,15.2,82.9,15.2,82.9L15.2,82.9"/>
			<path id="패스_2371" class="st1" d="M15.6,84.9L15.6,84.9l-1.8-0.4c0,0-0.1,0-0.1-0.1c0,0,0-0.1,0.1-0.1l1.8,0.4
				C15.6,84.7,15.7,84.7,15.6,84.9C15.7,84.8,15.6,84.9,15.6,84.9"/>
			<path id="패스_2372" class="st1" d="M16.1,88.1L16.1,88.1C16,88,16,88,16,87.9l0.7-1.2l0.1-0.1l0.1,0.1l0,0L16.1,88.1
				C16.2,88,16.1,88.1,16.1,88.1"/>
			<path id="패스_2373" class="st1" d="M15.8,98.3c5.7-1.7,4.3-1.9,4.3-1.9c-1.6,0.2-3.1,0.8-4.3,1.7V98.3z"/>
			<path id="패스_2374" class="st1" d="M16.3,90.3c3.3-1.6,2.4-1.6,2.4-1.6C17.8,89,16.9,89.5,16.3,90.3L16.3,90.3z"/>
			<path id="패스_2375" class="st1" d="M16.1,96.2c-3.6-2.8-2.6-2.6-2.6-2.6C14.6,94.2,15.5,95,16.1,96.2L16.1,96.2z"/>
			<path id="패스_2376" class="st1" d="M15.5,99.8c-3.5-4.4-3.1-3.1-3.1-3.1c0.6,1.4,1.7,2.6,3.1,3.4V99.8z"/>
			<path id="패스_2377" class="st21" d="M14.6,80.4c0.1-0.2,0.2-0.3,0.2-0.5c0,0.2,0,0.4,0.2,0.6c0.2,0.3,0.5,0.3,0.8,0.2
				c0,0,0.1,0,0.1-0.1c0.2-0.2,0.3-0.6,0-0.8l0,0c-0.2-0.1-0.3-0.2-0.5-0.2c0.2,0,0.4,0,0.6-0.2c0.3-0.2,0.3-0.5,0.2-0.8
				c0,0,0-0.1-0.1-0.1c-0.2-0.2-0.6-0.3-0.8,0l0,0c-0.1,0.2-0.2,0.3-0.2,0.5c0-0.2,0-0.4-0.2-0.6c-0.2-0.3-0.5-0.3-0.8-0.2
				c0,0-0.1,0-0.1,0.1c-0.2,0.2-0.3,0.6,0,0.8l0,0c0.2,0.1,0.3,0.2,0.5,0.2c-0.2,0-0.4,0-0.6,0.2c-0.3,0.2-0.3,0.5-0.2,0.8
				c0,0,0,0.1,0.1,0.1C13.9,80.6,14.3,80.6,14.6,80.4C14.5,80.4,14.6,80.4,14.6,80.4"/>
			<path id="패스_2378" class="st5" d="M14.8,79.2L14.8,79.2L14.8,79.2L14.8,79.2L14.8,79.2L14.8,79.2L14.8,79.2L14.8,79.2"/>
			<path id="패스_2379" class="st5" d="M14.8,79.4L14.8,79.4L14.8,79.4L14.8,79.4L14.8,79.4L14.8,79.4L14.8,79.4
				C14.8,79.5,14.8,79.5,14.8,79.4"/>
			<path id="패스_2380" class="st5" d="M14.9,79.3H15l0,0H14.9C14.9,79.4,14.9,79.4,14.9,79.3"/>
			<path id="패스_2381" class="st5" d="M14.7,79.3h-0.1l0,0H14.7C14.6,79.3,14.7,79.3,14.7,79.3"/>
			<path id="패스_2382" class="st21" d="M15.1,84.1c0.1-0.1,0.1-0.2,0.1-0.4c0,0.1,0,0.2,0.1,0.4s0.4,0.2,0.6,0.1s0.2-0.4,0.1-0.6
				l0,0c-0.1-0.1-0.2-0.1-0.4-0.1c0.1,0,0.2,0,0.4-0.1c0.2-0.1,0.2-0.3,0.1-0.5c0,0,0-0.1-0.1-0.1c-0.1-0.2-0.4-0.2-0.6,0l0,0
				c-0.1,0.1-0.1,0.2-0.1,0.4c0-0.1,0-0.2-0.1-0.4c-0.1-0.2-0.4-0.2-0.6-0.1c-0.2,0.1-0.2,0.4-0.1,0.6l0,0c0.1,0.1,0.2,0.1,0.4,0.1
				c-0.1,0-0.2,0-0.4,0.1s-0.2,0.4-0.1,0.6C14.7,84.3,14.9,84.3,15.1,84.1L15.1,84.1"/>
			<path id="패스_2383" class="st5" d="M15.3,83.3L15.3,83.3L15.3,83.3L15.3,83.3L15.3,83.3"/>
			<path id="패스_2384" class="st5" d="M15.3,83.5L15.3,83.5L15.3,83.5L15.3,83.5C15.3,83.5,15.3,83.5,15.3,83.5"/>
			<path id="패스_2385" class="st5" d="M15.4,83.4h0.1l0,0l0,0H15.4"/>
			<path id="패스_2386" class="st5" d="M15.2,83.4h-0.1l0,0l0,0C15.1,83.4,15.2,83.4,15.2,83.4"/>
			<path id="패스_2387" class="st21" d="M18.3,84.9c0-0.1-0.2-0.3-0.2-0.4c0.1,0.1,0.3,0.2,0.4,0.2c0.3,0,0.5-0.1,0.5-0.4v-0.1
				c0-0.3-0.2-0.5-0.5-0.5h-0.1c-0.1,0-0.3,0.2-0.4,0.2c0.1-0.1,0.2-0.3,0.2-0.4c0-0.3-0.1-0.5-0.4-0.5h-0.1c-0.3,0-0.5,0.2-0.5,0.5
				v0.1c0,0.1,0.2,0.3,0.2,0.4c-0.1-0.1-0.3-0.2-0.4-0.2c-0.3,0-0.5,0.1-0.5,0.4v0.1c0,0.3,0.3,0.5,0.6,0.5l0,0
				c0.1,0,0.3-0.2,0.4-0.2c-0.1,0.1-0.2,0.3-0.2,0.4c0,0.3,0.1,0.5,0.4,0.5h0.1C18.1,85.5,18.3,85.2,18.3,84.9L18.3,84.9"/>
			<path id="패스_2388" class="st5" d="M17.7,84.2L17.7,84.2C17.7,84.2,17.6,84.2,17.7,84.2l-0.1-0.1l0,0
				C17.7,84.1,17.7,84.2,17.7,84.2"/>
			<path id="패스_2389" class="st5" d="M17.8,84.3L17.8,84.3C17.8,84.4,17.9,84.4,17.8,84.3l0.1,0.1l0,0
				C17.9,84.4,17.8,84.4,17.8,84.3"/>
			<path id="패스_2390" class="st5" d="M17.8,84.2L17.8,84.2C17.8,84.2,17.9,84.2,17.8,84.2l0.1-0.1l0,0l0,0
				C17.9,84.2,17.9,84.2,17.8,84.2"/>
			<path id="패스_2391" class="st5" d="M17.7,84.3L17.7,84.3C17.7,84.4,17.7,84.4,17.7,84.3l-0.1,0.1l0,0l0,0L17.7,84.3"/>
			<path id="패스_2392" class="st21" d="M14.7,87.2c-0.1-0.1-0.2-0.2-0.3-0.3c0.1,0,0.2,0.1,0.4,0.1c0.2-0.1,0.4-0.3,0.3-0.5
				c-0.1-0.2-0.3-0.3-0.5-0.3l0,0c-0.1,0.1-0.2,0.2-0.3,0.3c0-0.1,0.1-0.2,0.1-0.4c-0.1-0.2-0.3-0.4-0.5-0.3s-0.3,0.3-0.3,0.5l0,0
				c0.1,0.1,0.2,0.2,0.3,0.3c-0.1,0-0.2-0.1-0.4-0.1c-0.2,0.1-0.4,0.3-0.3,0.5c0.1,0.2,0.3,0.3,0.5,0.3l0,0c0.1-0.1,0.2-0.2,0.3-0.3
				c0,0.1-0.1,0.2-0.1,0.4c0.1,0.2,0.3,0.4,0.5,0.3C14.7,87.7,14.8,87.4,14.7,87.2L14.7,87.2"/>
			<path id="패스_2393" class="st5" d="M14.1,86.7L14.1,86.7L14.1,86.7L14.1,86.7"/>
			<path id="패스_2394" class="st5" d="M14.2,86.8h0.1C14.3,86.8,14.3,86.8,14.2,86.8L14.2,86.8"/>
			<path id="패스_2395" class="st5" d="M14.2,86.7L14.2,86.7L14.2,86.7L14.2,86.7C14.2,86.6,14.3,86.7,14.2,86.7L14.2,86.7
				L14.2,86.7"/>
			<path id="패스_2396" class="st5" d="M14.2,86.8L14.2,86.8L14.2,86.8L14.2,86.8C14.1,86.9,14.1,86.8,14.2,86.8L14.2,86.8"/>
			<path id="패스_2397" class="st21" d="M14.7,91.5c-0.1-0.1-0.1-0.3-0.2-0.4c0.1,0.1,0.3,0.1,0.4,0.2c0.3,0,0.5-0.2,0.5-0.5l0,0
				c0-0.3-0.3-0.4-0.5-0.4l0,0c-0.1,0.1-0.3,0.1-0.4,0.2c0.1-0.1,0.1-0.3,0.2-0.4c0-0.2-0.2-0.4-0.4-0.4c0,0,0,0-0.1,0
				c-0.3,0-0.4,0.3-0.4,0.5l0,0c0.1,0.1,0.1,0.3,0.2,0.4c-0.1-0.1-0.3-0.1-0.4-0.2c-0.2,0-0.4,0.2-0.4,0.4c0,0,0,0,0,0.1
				c0,0.3,0.3,0.4,0.5,0.4l0,0c0.1-0.1,0.2-0.1,0.3-0.2c-0.1,0.1-0.1,0.3-0.2,0.4c0,0.2,0.2,0.4,0.4,0.4c0,0,0,0,0.1,0
				C14.5,92,14.7,91.8,14.7,91.5C14.7,91.6,14.7,91.5,14.7,91.5"/>
			<path id="패스_2398" class="st5" d="M14.2,90.8L14.2,90.8C14.1,90.8,14.1,90.8,14.2,90.8L14.2,90.8L14.2,90.8L14.2,90.8"/>
			<path id="패스_2399" class="st5" d="M14.3,90.9L14.3,90.9C14.3,91,14.3,91,14.3,90.9C14.3,90.9,14.3,91,14.3,90.9L14.3,90.9
				L14.3,90.9C14.3,91,14.3,91,14.3,90.9"/>
			<path id="패스_2400" class="st5" d="M14.3,90.8L14.3,90.8L14.3,90.8L14.3,90.8L14.3,90.8"/>
			<path id="패스_2401" class="st5" d="M14.2,91L14.2,91L14.2,91L14.2,91L14.2,91L14.2,91L14.2,91"/>
			<path id="패스_2402" class="st21" d="M18.9,93.6c0-0.1-0.1-0.3-0.2-0.4c0.1,0.1,0.2,0.2,0.3,0.2c0.2,0,0.4-0.1,0.5-0.4l0,0
				c0-0.2-0.2-0.4-0.4-0.4c-0.1,0-0.3,0.1-0.4,0.2c0.1-0.1,0.2-0.2,0.2-0.3c0-0.2-0.1-0.4-0.3-0.5l0,0c-0.2,0-0.4,0.2-0.4,0.4l0,0
				c0,0.1,0.1,0.3,0.2,0.4c-0.1-0.1-0.2-0.2-0.3-0.2c-0.2,0-0.4,0.1-0.5,0.4l0,0c0,0.2,0.2,0.4,0.4,0.4c0.1,0,0.3-0.1,0.4-0.2
				c-0.1,0.1-0.2,0.2-0.2,0.3c-0.1,0.2,0,0.4,0.2,0.5h0.1C18.6,94,18.8,93.8,18.9,93.6L18.9,93.6"/>
			<path id="패스_2403" class="st5" d="M18.5,92.9L18.5,92.9L18.5,92.9L18.5,92.9L18.5,92.9C18.4,92.9,18.4,92.9,18.5,92.9"/>
			<path id="패스_2404" class="st5" d="M18.5,93L18.5,93L18.5,93L18.5,93L18.5,93L18.5,93"/>
			<path id="패스_2405" class="st5" d="M18.5,92.9L18.5,92.9L18.5,92.9L18.5,92.9C18.6,92.9,18.6,92.9,18.5,92.9"/>
			<path id="패스_2406" class="st5" d="M18.4,93L18.4,93L18.4,93L18.4,93L18.4,93"/>
			<path id="패스_2407" class="st21" d="M17.3,82.1c0.1-0.1,0.2-0.3,0.2-0.4c0,0.2,0,0.3,0,0.5c0.1,0.3,0.5,0.4,0.7,0.2l0,0
				c0.2-0.2,0.3-0.5,0.1-0.7l0,0c-0.1-0.1-0.3-0.2-0.4-0.2c0.2,0,0.3,0,0.5,0c0.3-0.1,0.4-0.5,0.2-0.7l0,0c-0.2-0.2-0.5-0.3-0.7-0.1
				l0,0c-0.1,0.1-0.2,0.3-0.2,0.4c0-0.2,0-0.3,0-0.5c-0.1-0.3-0.5-0.4-0.7-0.2l0,0c-0.2,0.2-0.3,0.5-0.1,0.7l0,0
				c0.1,0.1,0.3,0.2,0.4,0.2c-0.2,0-0.3,0-0.5,0c-0.3,0.1-0.4,0.5-0.2,0.7l0,0C16.7,82.2,17.1,82.3,17.3,82.1L17.3,82.1"/>
			<path id="패스_2408" class="st5" d="M17.7,81.2L17.7,81.2L17.7,81.2L17.7,81.2L17.7,81.2L17.7,81.2L17.7,81.2
				C17.7,81.1,17.7,81.1,17.7,81.2"/>
			<path id="패스_2409" class="st5" d="M17.6,81.3L17.6,81.3L17.6,81.3L17.6,81.3L17.6,81.3L17.6,81.3L17.6,81.3
				C17.6,81.4,17.6,81.4,17.6,81.3"/>
			<path id="패스_2410" class="st5" d="M17.7,81.3h0.1l0,0H17.7C17.8,81.3,17.7,81.3,17.7,81.3L17.7,81.3"/>
			<path id="패스_2411" class="st5" d="M17.5,81.2h-0.1l0,0H17.5L17.5,81.2"/>
			<path id="패스_2412" class="st21" d="M12.9,82.5c0.1,0,0.2-0.2,0.3-0.4c0,0.2-0.1,0.3-0.1,0.5c0.1,0.3,0.3,0.4,0.6,0.4h0.1
				c0.3-0.1,0.4-0.4,0.3-0.6v-0.1c0-0.1-0.2-0.2-0.4-0.3c0.2,0,0.3,0.1,0.5,0.1c0.3-0.1,0.4-0.3,0.4-0.6v-0.1
				c-0.1-0.3-0.4-0.4-0.6-0.3h-0.1c-0.1,0-0.2,0.2-0.3,0.4c0-0.2,0.1-0.3,0.1-0.5c-0.1-0.3-0.3-0.4-0.6-0.4H13
				c-0.3,0.1-0.4,0.4-0.3,0.6v0.1c0,0.1,0.2,0.2,0.4,0.3c-0.1-0.1-0.3-0.1-0.5-0.1c-0.3,0.1-0.4,0.3-0.4,0.6v0.1
				C12.3,82.5,12.6,82.6,12.9,82.5"/>
			<path id="패스_2413" class="st5" d="M13.4,81.7L13.4,81.7L13.4,81.7C13.4,81.6,13.4,81.6,13.4,81.7L13.4,81.7L13.4,81.7
				L13.4,81.7L13.4,81.7C13.5,81.7,13.5,81.7,13.4,81.7"/>
			<path id="패스_2414" class="st5" d="M13.4,81.9L13.4,81.9L13.4,81.9L13.4,81.9L13.4,81.9L13.4,81.9L13.4,81.9L13.4,81.9"/>
			<path id="패스_2415" class="st5" d="M13.5,81.8L13.5,81.8c0.1,0,0.1,0,0.1,0l0,0H13.5L13.5,81.8"/>
			<path id="패스_2416" class="st5" d="M13.3,81.7L13.3,81.7c-0.1,0-0.1,0-0.1,0l0,0H13.3L13.3,81.7"/>
			<path id="패스_2417" class="st21" d="M13.3,85.1c0.1-0.1,0.1-0.2,0.1-0.4c0,0.1,0,0.2,0.1,0.4c0.1,0.2,0.4,0.2,0.6,0.1
				s0.2-0.4,0.1-0.6l0,0c-0.1-0.1-0.2-0.1-0.4-0.1c0.1,0,0.2,0,0.4-0.1s0.2-0.4,0.1-0.6c-0.1-0.2-0.4-0.2-0.6,0l0,0
				c-0.1,0.1-0.1,0.2-0.1,0.4c0-0.1,0-0.2-0.1-0.4c-0.1-0.2-0.4-0.2-0.6-0.1c-0.2,0.1-0.2,0.4-0.1,0.6l0,0c0.1,0.1,0.2,0.1,0.4,0.1
				c-0.1,0-0.2,0-0.4,0.1s-0.2,0.4-0.1,0.6l0,0C12.8,85.2,13.1,85.2,13.3,85.1C13.2,85.1,13.3,85.1,13.3,85.1"/>
			<path id="패스_2418" class="st5" d="M13.4,84.3L13.4,84.3L13.4,84.3L13.4,84.3L13.4,84.3C13.5,84.2,13.5,84.3,13.4,84.3"/>
			<path id="패스_2419" class="st5" d="M13.4,84.4L13.4,84.4L13.4,84.4L13.4,84.4C13.4,84.5,13.4,84.5,13.4,84.4"/>
			<path id="패스_2420" class="st5" d="M13.5,84.4h0.1l0,0l0,0C13.5,84.4,13.5,84.4,13.5,84.4"/>
			<path id="패스_2421" class="st5" d="M13.4,84.4h-0.1l0,0l0,0C13.3,84.3,13.3,84.3,13.4,84.4"/>
			<path id="패스_2422" class="st21" d="M16.4,87.3c0.1-0.1,0.3-0.1,0.4-0.2c-0.1,0.1-0.1,0.3-0.2,0.4c0,0.3,0.2,0.4,0.5,0.4l0,0
				c0.2,0,0.4-0.2,0.4-0.4v-0.1c-0.1-0.1-0.1-0.3-0.2-0.4c0.1,0.1,0.3,0.1,0.4,0.2c0.2,0,0.4-0.2,0.4-0.4c0,0,0,0,0-0.1
				c0-0.2-0.2-0.4-0.4-0.4h-0.1c-0.1,0.1-0.3,0.1-0.4,0.2c0.1-0.1,0.1-0.3,0.2-0.4c0-0.2-0.2-0.4-0.4-0.4c0,0,0,0-0.1,0
				c-0.2,0-0.4,0.2-0.4,0.4v0.1c0.1,0.1,0.1,0.3,0.2,0.4c-0.1-0.1-0.3-0.1-0.4-0.2c-0.2,0-0.4,0.2-0.4,0.4c0,0,0,0,0,0.1
				C15.9,87.2,16.1,87.3,16.4,87.3L16.4,87.3"/>
			<path id="패스_2423" class="st5" d="M17,86.7L17,86.7L17,86.7L17,86.7L17,86.7L17,86.7L17,86.7"/>
			<path id="패스_2424" class="st5" d="M16.9,86.8L16.9,86.8C16.9,86.9,16.8,86.9,16.9,86.8L16.9,86.8
				C16.9,86.9,16.9,86.9,16.9,86.8"/>
			<path id="패스_2425" class="st5" d="M17,86.8L17,86.8C17,86.8,17,86.9,17,86.8l0.1,0.1l0,0C17,86.9,17,86.9,17,86.8"/>
			<path id="패스_2426" class="st5" d="M16.9,86.7L16.9,86.7C16.8,86.7,16.8,86.7,16.9,86.7L16.9,86.7L16.9,86.7L16.9,86.7"/>
		</g>
	</g>
</g>
</svg>
