<?xml version="1.0" encoding="utf-8"?>
<!-- Generator: Adobe Illustrator 24.0.2, SVG Export Plug-In . SVG Version: 6.00 Build 0)  -->
<svg version="1.1" id="레이어_1" xmlns="http://www.w3.org/2000/svg" xmlns:xlink="http://www.w3.org/1999/xlink" x="0px"
	 y="0px" viewBox="0 0 198 230" style="enable-background:new 0 0 198 230;" xml:space="preserve">
<style type="text/css">
	.st0{fill:none;}
	.st1{fill:#727171;}
	.st2{fill:#B9DEDF;}
	.st3{fill:#FFFFFF;}
	.st4{fill:#EEE5B4;}
	.st5{fill:#71BEB6;}
	.st6{fill:#DEEFEF;}
	.st7{fill:#F5CD5E;}
	.st8{fill:#DD5541;}
	.st9{fill:#FCF1CB;}
</style>
<g id="그룹_673" transform="translate(-160 -572)">
	<rect id="사각형_269" x="161.4" y="617.4" class="st0" width="194.7" height="170.4"/>
	<g id="그룹_594" transform="translate(199.004 594.977)">
		<path id="패스_2161" class="st1" d="M95.8,125.4l-2.7-3.4l4.3-3.8l2.5,5.5c-1.2,0.9-2.6,1.6-4,1.8"/>
		<path id="패스_2162" class="st1" d="M106,122.8l-3.5-2.5l3.1-4.9l3.9,4.7c-0.9,1.2-2,2.2-3.4,2.9"/>
		<path id="패스_2163" class="st2" d="M92.5,122.5c0,0-7.3-10.8-17.5-6l1-9.8c0,0,14.1-3.8,21.2,12.4L92.5,122.5z"/>
		<path id="패스_2164" class="st3" d="M92,111.5c2.2,1.9,4,4.2,5.3,6.7L93,122c-1.6-1.8-3.5-3.3-5.6-4.4c0,0,2.9-0.5,2.4-3.1
			c0,0,0-1.9,1.1-2.5L92,111.5z"/>
		<path id="패스_2165" class="st1" d="M103.5,119.4c3.5,6.9,2.1,14.2,0.3,21.2c-2,7.9-3.4,15.9-4.4,24c-0.1,0.8-0.2,1.5-0.3,2.2
			l-3.9-0.8c0.6-5.2-1-10.3-4.4-14.3c-3.6,1.5-8.2,13.6-8.2,13.6l-4.4-0.4c0.8-5.4,5.2-12.2,4.1-20.5c-0.4-4.2-0.2-8.5,0.6-12.7
			c0.2-1.5,0.5-2.9,0.9-4.4c0.5-1.7,4.2-9.2,6.5-9.2c2.2,0,12.6,0.8,12.6,0.8c0.3,0.3,0.5,0.5,0.8,0.8"/>
		<path id="패스_2166" class="st1" d="M89.4,119.3c-0.1-0.3-0.2-0.5-0.4-0.8c-1.3-2.1-5.6-3.1-7.8-3.7c-2.7-0.6-5.4-0.7-8.1-0.2
			l-0.2,2.2c0.3,0,0.6,0.1,0.9,0.1c0.9,0.2,1.8,0.4,2.7,0.6c1.2,0.4,2.3,1.1,3.4,1.6c4.8,1.9,4.9,7.4,7.1,7.6
			C88.8,126.9,90.1,121.4,89.4,119.3"/>
		<path id="패스_2167" class="st4" d="M72.9,116.8c-0.5,0-1,0.2-1.5,0.5c-0.4,0.3-0.6,0.8-0.8,1.2c0,0.1-0.1,0.1-0.1,0.2
			c-0.2,0.4-0.5-0.1-0.5-0.3c0-0.2,0-0.4,0-0.6c0-0.1,0.2-0.5,0.2-0.5s-0.6,0.2-1.1,1.5c0,0.1-0.1,0.3-0.2,0.3
			c-0.4,0-0.3-1.1-0.2-1.3c0-0.1,0.2-0.7,0.3-0.7c-0.4,0-0.9,0.3-1.1,0.6c-0.1,0.1-0.2,0.2-0.4,0.2c-0.2-0.2,0.1-0.8,0.2-0.9
			c0.2-0.4,0.6-0.7,1-1l-0.2-0.1c-0.2-0.1-0.4-0.1-0.5-0.1c-0.2,0-0.5,0.1-0.7,0.2s-0.5,0.5-0.7,0.2c-0.2-0.2,0.3-0.7,0.5-0.8
			c0.4-0.3,0.9-0.4,1.5-0.4c-0.1,0-0.2-0.2-0.2-0.2c-0.2-0.1-0.4-0.2-0.5-0.3c-0.2-0.1-0.5-0.1-0.7-0.2c-0.3-0.2,0.5-0.4,0.6-0.4
			h0.6c0.7,0,1.5,0.1,2.2,0.2c0.5,0.1,0.8,0.2,1.3,0.2H72l1.1,0.2C73,114.7,73.3,116.8,72.9,116.8"/>
		<path id="패스_2168" class="st5" d="M52.9,62c0,0-8.3,1.1-8.6,30.2c0,0,0.2,3.7-3.1,3.6c-1.1,0-1.9,0.8-2,1.9
			c-0.2,2.2,2.6,2.4,4.1,2.2c0.5-0.1,0.9-0.2,1.4-0.3c5-1.6,4.6-7,4.9-11.2c0.4-5,0.2-10.1,1.9-14.9c1.1-2.9,3.1-5,5.1-7.5L52.9,62z
			"/>
		<path id="패스_2169" class="st2" d="M96.2,81.8c-4.9-5.6-8.2-9.2-15-13.6c-0.2-0.2-7.4-4.8-7.6-4.5c2.5-4,2.9-9,1.1-13.3
			c-6.9,3.7-7.5,9.7-7.5,9.7l-1.7,0.2c-5.1,0.9-5.8,0.7-5.8,0.7c-1.6-4.3-4.9-7.8-9.2-9.7c-4.7,9.8,4,16.1,4,16.1
			C48.6,70.8,49,97.6,49,97.6l0.4,33.2l-0.1,6.3c0,0-1.5,20,24.7,16c1.7-0.4,3.2-1.1,4.6-2.1c3.2-2,5.6-5.2,6.6-8.9
			c0.3-1.5,0.5-2.9,0.5-4.4c0.1-1.7,0-3.4-0.3-5.1c-0.1-0.2-0.6-2.7-0.8-3L80.2,111l-3.4-13.5c-0.9-3.1-0.8-3.1-0.9-3.2
			c4,1.4,8.9,1.2,13.1,0.7c2.2-0.3,4.2-1.5,5.6-3.2c1.1-1.2,2.8-3.7,3-5.4C97.8,84.6,97.4,83,96.2,81.8"/>
		<path id="패스_2170" class="st3" d="M74.3,52.3c0,0,1.5,5.8-1.2,9.4C70.4,65.3,70.8,55.5,74.3,52.3"/>
		<path id="패스_2171" class="st3" d="M51,53.7c0,0-1.5,6.2,2.7,10.6C57.4,68.2,55.7,57.1,51,53.7"/>
		<path id="패스_2172" class="st6" d="M84.2,78.6L84.2,78.6L84.2,78.6L84.2,78.6"/>
		<path id="패스_2173" class="st5" d="M69,69.2c0.5-0.1,0.9-0.6,0.8-1.1l0,0l-0.1-0.5v-0.1c-0.4-2.2-1.3-3.6-4.2-3.2l-2.8,0.4
			c-0.5,0.1-0.9,0.6-0.8,1.1c0.1,0.5,0.6,0.9,1.1,0.8l0,0l2.8-0.4c1.4-0.2,1.7-0.1,2,1.6l0.1,0.5C67.9,68.8,68.4,69.2,69,69.2
			C68.9,69.2,68.9,69.2,69,69.2"/>
		<path id="패스_2174" class="st5" d="M71.5,67.8c0.5-0.1,0.9-0.6,0.8-1.1l0,0l-0.1-0.5V66c-0.4-3-3.1-5.1-6.1-4.7H66L60.8,62
			c-0.5,0.1-0.9,0.6-0.8,1.1c0.1,0.5,0.6,0.9,1.1,0.8l0,0l5.2-0.7c1.8-0.3,3.6,0.8,3.9,2.7c0,0.1,0,0.2,0,0.3l0.1,0.5
			C70.4,67.4,70.9,67.8,71.5,67.8C71.4,67.8,71.5,67.8,71.5,67.8"/>
		<path id="패스_2175" class="st5" d="M73.9,66.3c0.5-0.1,0.9-0.6,0.8-1.1v-0.3c-0.5-4-4.1-6.7-8.1-6.3l-7.8,1
			c-0.5,0.1-0.9,0.6-0.8,1.1l0,0c0.1,0.5,0.6,0.9,1.1,0.8l7.8-1c2.9-0.4,5.5,1.6,5.9,4.5v0.3C72.9,65.9,73.3,66.4,73.9,66.3
			L73.9,66.3"/>
		<path id="패스_2176" class="st3" d="M85.2,80c-0.1-0.1-0.1-0.1-0.2-0.2c-0.8-0.6-3.7-2.7-3.4-5.3c0,0-3.1-0.2-7.9-3.3
			c0,0,4.5,3.1,3.2,5.7C76.8,77,80.1,76.8,85.2,80"/>
		<path id="패스_2177" class="st2" d="M39.8,116.9c0,0,4.4-8.6,12.8,0.2l0.8-10c0,0-8.1-8.5-17.4,4.5L39.8,116.9z"/>
		<path id="패스_2178" class="st3" d="M52.1,105.1L52.1,105.1c0.2-0.1,0.3-0.2,0.2-0.4v-0.4c0.1-0.2-0.1-0.3-0.2-0.4
			c-0.2-0.1-0.3,0.1-0.4,0.2c-0.1,0.2-0.1,0.5,0,0.8C51.9,105,52,105.1,52.1,105.1"/>
		<path id="패스_2179" class="st3" d="M54.6,97.9L54.6,97.9c0.2-0.1,0.3-0.2,0.2-0.4v-0.4c0.1-0.2-0.1-0.3-0.2-0.4
			c-0.2-0.1-0.3,0.1-0.4,0.2c-0.1,0.2-0.1,0.5,0,0.8C54.3,97.9,54.4,97.9,54.6,97.9"/>
		<path id="패스_2180" class="st3" d="M51.4,98.4L51.4,98.4c0.2-0.1,0.3-0.2,0.2-0.4v-0.4c0.1-0.2-0.1-0.3-0.2-0.4
			c-0.2-0.1-0.3,0.1-0.4,0.2c0,0.3,0,0.6,0,0.8C51.1,98.3,51.3,98.4,51.4,98.4"/>
		<path id="패스_2181" class="st3" d="M54.9,94.9L54.9,94.9c0.2-0.1,0.3-0.2,0.2-0.4v-0.4c0.1-0.2-0.1-0.3-0.2-0.4
			c-0.2-0.1-0.3,0.1-0.4,0.2c-0.1,0.2-0.1,0.5,0,0.8C54.7,94.8,54.8,94.9,54.9,94.9"/>
		<path id="패스_2182" class="st3" d="M51.6,91.5L51.6,91.5c0.2-0.1,0.3-0.2,0.2-0.4v-0.4c0.1-0.2-0.1-0.3-0.2-0.4
			c-0.2-0.1-0.3,0.1-0.4,0.2c-0.1,0.2-0.1,0.5,0,0.8C51.3,91.5,51.4,91.5,51.6,91.5"/>
		<path id="패스_2183" class="st3" d="M52.7,96.3L52.7,96.3c0.2-0.1,0.3-0.2,0.2-0.4v-0.4c0.1-0.2-0.1-0.3-0.2-0.4
			c-0.2-0.1-0.3,0.1-0.4,0.2c-0.1,0.2-0.1,0.5,0,0.8C52.5,96.3,52.6,96.3,52.7,96.3"/>
		<path id="패스_2184" class="st3" d="M52.7,89L52.7,89c0.2-0.1,0.3-0.2,0.2-0.4v-0.4c0.1-0.2-0.1-0.3-0.2-0.4
			c-0.2-0.1-0.3,0.1-0.4,0.2c-0.1,0.2-0.1,0.5,0,0.8C52.4,88.9,52.6,89,52.7,89"/>
		<path id="패스_2185" class="st3" d="M53.9,91.8L53.9,91.8c0.2-0.1,0.3-0.2,0.2-0.4V91c0.1-0.2-0.1-0.3-0.2-0.4
			c-0.2-0.1-0.3,0.1-0.4,0.2c-0.1,0.2-0.1,0.5,0,0.8C53.6,91.7,53.8,91.8,53.9,91.8"/>
		<path id="패스_2186" class="st3" d="M52.6,93.6L52.6,93.6c0.2-0.1,0.3-0.2,0.2-0.4v-0.4c0.1-0.2-0.1-0.3-0.2-0.4
			s-0.3,0.1-0.4,0.2c-0.1,0.2-0.1,0.5,0,0.8C52.4,93.5,52.5,93.6,52.6,93.6"/>
		<path id="패스_2187" class="st3" d="M52.5,100.5L52.5,100.5c0.2-0.1,0.3-0.2,0.2-0.4v-0.4c0.1-0.2-0.1-0.3-0.2-0.4
			s-0.3,0.1-0.4,0.2c-0.1,0.2-0.1,0.5,0,0.8C52.3,100.5,52.3,100.5,52.5,100.5"/>
		<path id="패스_2188" class="st3" d="M53.8,103.4L53.8,103.4c0.2-0.1,0.3-0.2,0.2-0.4v-0.4c0.1-0.2-0.1-0.3-0.2-0.4
			c-0.2-0.1-0.3,0.1-0.4,0.2c-0.1,0.2-0.1,0.5,0,0.8C53.5,103.3,53.6,103.4,53.8,103.4"/>
		<path id="패스_2189" class="st3" d="M51.6,102.6L51.6,102.6c0.2-0.1,0.3-0.2,0.2-0.4v-0.4c0.1-0.2-0.1-0.3-0.2-0.4
			c-0.2-0.1-0.3,0.1-0.4,0.2c-0.2,0.2-0.2,0.5,0,0.8C51.3,102.5,51.4,102.6,51.6,102.6"/>
		<path id="패스_2190" class="st3" d="M55.1,101.1L55.1,101.1c0.2-0.1,0.3-0.2,0.2-0.4v-0.4c0.1-0.2,0-0.3-0.2-0.4
			s-0.3,0.1-0.4,0.2c-0.1,0.2-0.1,0.5,0,0.8C54.8,101,54.9,101.1,55.1,101.1"/>
		<path id="패스_2191" class="st3" d="M73.7,124.2c0.1,0,0.2-0.1,0.2-0.2c0.1-0.1,0.2-0.3,0.2-0.3c0.2-0.1,0.2-0.3,0.1-0.5
			s-0.3-0.2-0.5-0.1c-0.2,0.2-0.3,0.4-0.5,0.6c-0.1,0.1,0,0.3,0.1,0.4l0,0C73.6,124.2,73.6,124.2,73.7,124.2"/>
		<path id="패스_2192" class="st3" d="M76.3,123.7c0.1,0,0.2-0.1,0.2-0.2c0.1-0.2,0.2-0.3,0.2-0.3c0.2-0.1,0.2-0.3,0.1-0.5
			s-0.3-0.2-0.5-0.1c-0.2,0.2-0.3,0.4-0.5,0.6c-0.1,0.1,0,0.3,0.1,0.4l0,0C76.2,123.7,76.2,123.7,76.3,123.7"/>
		<path id="패스_2193" class="st3" d="M75.8,118.2c0.1,0,0.2-0.1,0.2-0.2c0.1-0.1,0.2-0.3,0.2-0.3c0.2-0.1,0.2-0.3,0.1-0.5
			s-0.3-0.2-0.5-0.1c-0.2,0.2-0.3,0.4-0.5,0.6c-0.1,0.1,0,0.3,0.1,0.4l0,0C75.6,118.2,75.7,118.2,75.8,118.2"/>
		<path id="패스_2194" class="st3" d="M73.9,121.3c0.1,0,0.2-0.1,0.2-0.2c0.1-0.1,0.2-0.3,0.2-0.3c0.2-0.1,0.2-0.3,0.1-0.5
			s-0.3-0.2-0.5-0.1c-0.2,0.2-0.3,0.4-0.5,0.6c-0.1,0.1,0,0.3,0.1,0.4l0,0C73.8,121.3,73.9,121.3,73.9,121.3"/>
		<path id="패스_2195" class="st3" d="M75.9,120.8c0.1,0,0.2-0.1,0.2-0.2s0.2-0.3,0.2-0.3c0.2-0.1,0.2-0.3,0.1-0.5
			s-0.3-0.2-0.5-0.1c-0.2,0.2-0.3,0.4-0.5,0.6c-0.1,0.1,0,0.3,0.1,0.4l0,0C75.9,120.8,75.9,120.8,75.9,120.8"/>
		<path id="패스_2196" class="st3" d="M73.5,119.2c0.1,0,0.2-0.1,0.2-0.2c0.1-0.2,0.2-0.3,0.2-0.3c0.2-0.1,0.2-0.3,0.1-0.5
			s-0.3-0.2-0.5-0.1c-0.2,0.2-0.3,0.4-0.5,0.6c-0.1,0.1,0,0.3,0.1,0.4l0,0C73.3,119.1,73.4,119.2,73.5,119.2"/>
		<path id="패스_2197" class="st3" d="M71.9,123.5c0.1,0,0.2-0.1,0.2-0.2c0.1-0.1,0.2-0.3,0.2-0.3c0.2-0.1,0.2-0.3,0.1-0.5
			s-0.3-0.2-0.5-0.1c-0.2,0.2-0.3,0.4-0.5,0.6c-0.1,0.1,0,0.3,0.1,0.4l0,0C71.8,123.5,71.8,123.5,71.9,123.5"/>
		<path id="패스_2198" class="st2" d="M66.9,148.9l-6.1,17.8l-3.9-1l-0.6-18.6L66.9,148.9z"/>
		<path id="패스_2199" class="st3" d="M56.7,158.9c0.8,1.3,2.5,1.7,3.8,0.9c0,0,1.8-1.1,2.4,0.8l-2.1,6.1l-3.9-1L56.7,158.9z"/>
		<path id="패스_2200" class="st1" d="M56.9,165.7l-4.8,5.8l8.6,1.1l0.1-6L56.9,165.7z"/>
		<path id="패스_2201" class="st2" d="M73,148.9l10.3,15.7l3.5-1.9l-4-18.1L73,148.9z"/>
		<path id="패스_2202" class="st3" d="M85.4,156c-0.5,1.5-2,2.3-3.5,1.8l0,0c0,0-2.1-0.5-2.1,1.4l3.5,5.4l3.5-2L85.4,156z"/>
		<path id="패스_2203" class="st1" d="M86.8,162.8l6,4.4l-8,3.2l-1.5-5.7L86.8,162.8z"/>
		<path id="패스_2204" class="st5" d="M90.8,88.3l-0.2-0.2c-0.2-0.1-0.3-0.3-0.4-0.5s-0.1-0.4,0.1-0.6v0c0.2-0.4,0.7-0.5,1.1-0.3
			h0.1l0.2,0.2c0.2,0.1,0.5,0.1,0.5-0.2c0.1-0.2,0.1-0.5-0.2-0.5L91.8,86l0,0h-0.1c-0.7-0.4-1.6-0.1-2.1,0.6l-0.1,0.1
			c-0.2,0.4-0.2,0.8-0.1,1.1c0.1,0.4,0.4,0.7,0.7,0.9l0.2,0.2c0.2,0.1,0.5,0.1,0.5-0.2C91,88.6,91,88.4,90.8,88.3"/>
		<path id="패스_2205" class="st5" d="M93.9,85l-0.2-0.2c-0.1-0.2-0.2-0.4-0.2-0.6s0.1-0.4,0.3-0.5H94c0.3-0.2,0.8-0.2,1.1,0.2V84
			l0.2,0.2c0.1,0.2,0.3,0.2,0.5,0.1s0.2-0.3,0.1-0.5c0,0,0,0,0-0.1l-0.2-0.2l0,0l-0.1-0.1c-0.5-0.7-1.4-0.8-2.1-0.4l-0.1,0.1
			c-0.3,0.2-0.5,0.6-0.6,1s0,0.8,0.2,1.1l0.2,0.2c0.2,0.2,0.5,0.2,0.7,0C93.9,85.4,94,85.2,93.9,85"/>
		<path id="패스_2206" class="st1" d="M79.4,71.4l-0.2-0.2C79.1,71,79,70.8,79,70.6c0.1-0.2,0.2-0.4,0.3-0.5h0.1
			c0.4-0.2,0.9-0.1,1.1,0.2v0.1l0,0l0.2,0.2c0.2,0.2,0.4,0.2,0.6,0.2c0.2-0.1,0.3-0.4,0.2-0.6L81.3,70l-0.1-0.1
			c-0.5-0.7-1.5-0.9-2.3-0.5H79c-0.4,0.2-0.6,0.6-0.7,1.1c-0.1,0.4,0,0.9,0.2,1.2l0.2,0.2c0.1,0.2,0.4,0.3,0.6,0.2
			C79.4,71.9,79.5,71.6,79.4,71.4"/>
		<path id="패스_2207" class="st1" d="M70.2,76.6L70,76.3c-0.1-0.2-0.2-0.4-0.2-0.7c0.1-0.2,0.2-0.5,0.4-0.6h0.1
			c0.4-0.3,1-0.2,1.3,0.2v0.1l0.2,0.3c0.1,0.2,0.4,0.3,0.6,0.2s0.3-0.4,0.2-0.6l0,0l-0.2-0.3l-0.1-0.1c-0.6-0.8-1.7-1-2.5-0.5
			l-0.1,0.1c-0.4,0.3-0.6,0.7-0.7,1.1c-0.1,0.5,0,1,0.2,1.4l0.2,0.3c0.1,0.2,0.4,0.3,0.6,0.2l0,0C70.2,77.3,70.3,76.9,70.2,76.6
			L70.2,76.6"/>
		<path id="패스_2208" class="st1" d="M46.2,98.9c0,0.8-0.6,1.5-1.4,1.5l0,0l-30.4,1.7c-0.8,0-1.5-0.6-1.5-1.4l0,0L12.7,98
			c0-0.8,0.6-1.5,1.4-1.5l0,0l30.5-1.7c0.8,0,1.5,0.6,1.5,1.4l0,0L46.2,98.9z"/>
		<path id="패스_2209" class="st1" d="M24.4,82.6c-0.2,0.2-0.4,0.2-0.6,0.1s-0.2-0.4-0.1-0.5c0,0,0,0,0-0.1
			c0.1-0.1,0.1-0.2,0.1-0.3c0-0.2,0.2-0.4,0.5-0.4c0.2,0,0.4,0.2,0.4,0.5C24.6,82.1,24.6,82.4,24.4,82.6 M22.9,84.9
			c0,0.1-0.1,0.1-0.3,0.1c-0.1,0-0.2,0-0.2-0.1c-0.2-0.1-0.2-0.4-0.1-0.5c0,0,0,0,0-0.1c0.1-0.1,0.1-0.2,0.2-0.3
			c0-0.2,0.2-0.4,0.5-0.4c0.2,0,0.4,0.2,0.4,0.5C23.3,84.4,23.1,84.7,22.9,84.9 M21.6,82.7c-0.1,0.1-0.2,0.1-0.3,0.2
			c-0.1,0-0.2,0-0.3-0.1c-0.2-0.1-0.2-0.4-0.1-0.5c0,0,0,0,0-0.1C21,82.1,21,82,21,81.9c0-0.2,0.2-0.4,0.5-0.4
			c0.2,0,0.4,0.2,0.4,0.5C21.9,82.3,21.8,82.6,21.6,82.7 M21.4,87.3c-0.1,0.1-0.2,0.1-0.3,0.2c-0.1,0-0.2,0-0.3-0.1
			c-0.2-0.1-0.2-0.4-0.1-0.5c0,0,0,0,0-0.1c0.1-0.1,0.1-0.2,0.1-0.3c0-0.2,0.2-0.4,0.5-0.4c0.2,0,0.4,0.2,0.4,0.5l0,0
			C21.6,86.8,21.6,87,21.4,87.3 M20.3,85c-0.1,0.1-0.2,0.2-0.3,0.2c-0.1,0-0.2,0-0.2-0.1c-0.2-0.1-0.2-0.4-0.1-0.5c0,0,0,0,0-0.1
			c0.1-0.1,0.1-0.2,0.2-0.3c0-0.2,0.2-0.4,0.5-0.4s0.4,0.2,0.4,0.5C20.6,84.6,20.4,84.8,20.3,85 M28,75.7
			c-12.4,1-13.1,19.1-13.1,19.1l28.2-1.2C37.2,73.5,28,75.7,28,75.7"/>
		<path id="패스_2210" class="st1" d="M51.9,158l-3.8,0.2c-1.2-0.1-2.2-0.8-2.7-1.8c-1.1-1.7-1.4-3.7-0.8-5.6
			c0.7-1.6,2-2.7,3.6-3.2c0.6-0.2,1.2-0.4,1.8-0.5l-3.1-18.8c-0.1-0.3,0.2-0.5,0.5-0.6s0.5,0.2,0.6,0.5l3.2,19.2v0.1l0,0
			c0,0.3-0.2,0.5-0.5,0.6h-0.1c-0.7,0.2-1.3,0.4-2,0.6c-1.3,0.4-2.4,1.3-3,2.5l2.1-0.3c0.3-0.1,0.5,0.2,0.6,0.5s-0.2,0.5-0.5,0.6
			l-2.5,0.4c0,0.4,0,0.7,0.1,1.1l2.4-0.3c0.3-0.1,0.5,0.2,0.6,0.5c0,0.3-0.2,0.5-0.5,0.6l-2.4,0.3c0.1,0.4,0.2,0.8,0.5,1.1
			c0.1,0,0.1-0.1,0.2-0.1l2.4-0.2c0.3,0,0.6,0.2,0.6,0.5s-0.2,0.5-0.4,0.6l-2,0.2c0.4,0.4,0.9,0.7,1.5,0.8l3.7-0.2
			c0.3,0,0.5,0.2,0.5,0.5l0,0C52.4,157.8,52.1,158,51.9,158 M43.7,143.3c0.1-0.1,0.1-0.2,0.2-0.4c0-0.3,0.2-0.5,0.5-0.5
			s0.5,0.2,0.5,0.5s-0.1,0.6-0.3,0.8c-0.1,0.1-0.2,0.2-0.4,0.2c-0.1,0-0.2,0-0.3-0.1C43.6,143.9,43.5,143.6,43.7,143.3L43.7,143.3
			 M43.6,137.5c0.1-0.1,0.1-0.2,0.2-0.4c0-0.3,0.2-0.5,0.5-0.5s0.5,0.2,0.5,0.5s-0.1,0.6-0.3,0.8c-0.1,0.1-0.2,0.2-0.4,0.2
			c-0.1,0-0.2,0-0.3-0.1C43.6,138.1,43.5,137.8,43.6,137.5L43.6,137.5 M45.5,140.3c0.1-0.1,0.1-0.2,0.2-0.4c0-0.3,0.3-0.5,0.5-0.4
			c0.3,0,0.5,0.2,0.5,0.5s-0.1,0.6-0.3,0.8c-0.1,0.1-0.2,0.2-0.4,0.2c-0.1,0-0.2,0-0.3-0.1C45.4,140.8,45.3,140.5,45.5,140.3
			L45.5,140.3 M42.6,141.2c-0.1,0.1-0.2,0.2-0.4,0.2c-0.1,0-0.2,0-0.3-0.1c-0.2-0.1-0.3-0.5-0.2-0.7l0,0c0.1-0.1,0.1-0.2,0.2-0.4
			c0-0.3,0.2-0.5,0.5-0.5s0.5,0.2,0.5,0.5C42.9,140.7,42.8,141,42.6,141.2 M41.3,138.2c-0.1,0.1-0.2,0.2-0.4,0.2
			c-0.1,0-0.2,0-0.3-0.1c-0.2-0.1-0.3-0.5-0.2-0.7l0,0c0.1-0.1,0.1-0.2,0.2-0.4c0-0.3,0.2-0.5,0.5-0.5s0.5,0.2,0.5,0.5
			C41.6,137.6,41.5,137.9,41.3,138.2 M40.7,144.7c-0.1,0.1-0.2,0.2-0.4,0.2c-0.1,0-0.2,0-0.3-0.1c-0.2-0.1-0.3-0.5-0.2-0.7l0,0
			c0.1-0.1,0.1-0.2,0.2-0.4c0-0.3,0.2-0.5,0.5-0.5s0.5,0.2,0.5,0.5C40.9,144.1,40.8,144.4,40.7,144.7 M38.9,141.5
			c-0.1,0.1-0.2,0.2-0.4,0.2c-0.1,0-0.2,0-0.3-0.1c-0.2-0.1-0.3-0.5-0.2-0.7l0,0c0.1-0.1,0.1-0.2,0.2-0.4c0-0.3,0.2-0.5,0.5-0.5
			s0.5,0.2,0.5,0.5C39.2,141,39.1,141.3,38.9,141.5 M34.9,111.6c-0.8,0.1-1.6-0.9-1.7-2.1s0.5-2.3,1.4-2.4c0.8-0.1,1.6,0.9,1.7,2.1
			C36.4,110.5,35.8,111.5,34.9,111.6 M33.5,119.1c-1.1,1.1-2.6,1.8-4.1,1.8c-1.2,0-2.3-0.4-3.3-1.1c-0.4-0.2-0.7-0.6-1-0.9
			c-0.4-0.4-0.4-1.2,0-1.6l0.1-0.1c0.5-0.5,1.3-0.4,1.7,0.1l0,0c0.6,0.8,1.5,1.2,2.5,1.3c0.9-0.1,1.7-0.4,2.4-1.1
			c0.4-0.5,1.2-0.5,1.6-0.1C33.9,117.8,34,118.5,33.5,119.1C33.5,119,33.5,119.1,33.5,119.1 M32.1,162.4c-0.1,0.2-0.2,0.2-0.4,0.2
			c-0.1,0-0.2,0-0.3-0.1c-0.2-0.1-0.3-0.4-0.2-0.6c0.1-0.1,0.1-0.2,0.2-0.3c0-0.3,0.2-0.5,0.5-0.5c0.3,0,0.5,0.2,0.5,0.5
			C32.3,161.9,32.2,162.1,32.1,162.4 M30.3,159.8c-0.1,0.1-0.2,0.2-0.4,0.2c-0.1,0-0.2,0-0.3-0.1c-0.2-0.1-0.3-0.5-0.2-0.7l0,0
			c0.1-0.1,0.1-0.2,0.2-0.4c0-0.3,0.2-0.5,0.5-0.5s0.5,0.2,0.5,0.5C30.6,159.2,30.4,159.5,30.3,159.8 M30.4,165.3
			c-0.1,0.2-0.2,0.2-0.4,0.2c-0.1,0-0.2,0-0.3-0.1c-0.2-0.1-0.2-0.4-0.1-0.6l0,0c0.1-0.1,0.1-0.2,0.2-0.3c0-0.3,0.2-0.5,0.5-0.5
			s0.5,0.2,0.5,0.5C30.6,164.8,30.5,165,30.4,165.3 M28.6,162.5c-0.1,0.2-0.2,0.2-0.4,0.2c-0.1,0-0.2,0-0.3-0.1
			c-0.2-0.1-0.3-0.4-0.2-0.6c0.1-0.1,0.1-0.2,0.2-0.3c0-0.3,0.2-0.5,0.5-0.5s0.5,0.2,0.5,0.5C28.8,162,28.8,162.3,28.6,162.5
			 M27.1,165.4c-0.1,0.2-0.2,0.2-0.4,0.2c-0.1,0-0.2,0-0.3-0.1c-0.2-0.1-0.3-0.4-0.2-0.6c0.1-0.1,0.1-0.2,0.2-0.3
			c0-0.3,0.2-0.5,0.5-0.5s0.5,0.2,0.5,0.5C27.3,164.9,27.3,165.2,27.1,165.4 M26,159.1c0.1-0.1,0.1-0.2,0.2-0.4
			c0-0.3,0.2-0.5,0.5-0.5s0.5,0.2,0.5,0.5s-0.1,0.6-0.3,0.8c-0.1,0.1-0.2,0.2-0.4,0.2c-0.1,0-0.2,0-0.3-0.1
			C25.9,159.6,25.8,159.3,26,159.1L26,159.1 M23.9,111.8c-0.8,0.1-1.6-0.9-1.7-2.1s0.5-2.3,1.4-2.4c0.8-0.1,1.6,0.9,1.7,2.1
			C25.3,110.7,24.7,111.8,23.9,111.8 M24.9,162.7c-0.1,0.2-0.2,0.2-0.4,0.2c-0.1,0-0.2,0-0.3-0.1c-0.2-0.1-0.2-0.4-0.1-0.6l0,0
			c0.1-0.1,0.1-0.2,0.2-0.3c0-0.2,0.2-0.4,0.4-0.4h0.1c0.2,0,0.4,0.2,0.4,0.4v0.1C25.2,162.1,25,162.4,24.9,162.7 M23.6,165.8
			c-0.1,0.1-0.2,0.2-0.4,0.2c-0.1,0-0.2,0-0.3-0.1c-0.2-0.1-0.3-0.4-0.2-0.6c0.1-0.1,0.1-0.2,0.2-0.3c0-0.3,0.2-0.5,0.5-0.5
			s0.5,0.2,0.5,0.5C23.9,165.3,23.8,165.6,23.6,165.8 M22.3,159.8c-0.2-0.1-0.3-0.5-0.2-0.7l0,0c0.1-0.1,0.1-0.2,0.2-0.4
			c0-0.3,0.3-0.5,0.5-0.5c0.3,0,0.5,0.2,0.5,0.5s-0.1,0.6-0.3,0.8c-0.1,0.1-0.2,0.2-0.4,0.2C22.6,159.9,22.4,159.9,22.3,159.8
			 M21,152.8c-0.5,1.1-1.5,2-2.7,2.4l-3.2,0.2c-0.3,0-0.5-0.2-0.5-0.5s0.2-0.5,0.5-0.5l3.1-0.2c0.6-0.1,1.2-0.6,1.5-1.1h-1.5
			c-0.3,0-0.5-0.2-0.5-0.5s0.2-0.5,0.5-0.5l0,0l2.1,0.1c0.2-0.4,0.3-0.8,0.4-1.2h-2c-0.3,0-0.5-0.2-0.5-0.5s0.2-0.5,0.5-0.5h2.1
			c0-0.4,0-0.8-0.1-1.1h-2c-0.3,0-0.5-0.2-0.5-0.5s0.2-0.5,0.5-0.5l0,0h1.6c-0.2-0.3-0.4-0.5-0.6-0.8c-1-0.8-2.2-1.2-3.5-1.1
			c-0.3,0-0.5-0.1-0.8-0.1s-0.5-0.3-0.5-0.5c0.2-6.8,0.4-14.9,0.4-15c0-0.3,0.2-0.5,0.5-0.5s0.5,0.2,0.5,0.5l0,0
			c0,0.2-0.3,11.8-0.4,14.4h0.3c1.5,0,3,0.5,4.2,1.5c0.4,0.3,0.6,0.8,0.8,1.2C22,149,21.9,151.1,21,152.8 M21.1,162.6
			c-0.1,0.1-0.2,0.2-0.4,0.2c-0.1,0-0.2,0-0.3-0.1c-0.2-0.1-0.3-0.4-0.2-0.6c0.1-0.1,0.1-0.2,0.2-0.3c0-0.3,0.2-0.5,0.5-0.5
			s0.5,0.2,0.5,0.5C21.4,162.1,21.3,162.4,21.1,162.6 M28.4,111.9c0.2-0.5,0.8-2.1,1.7-1.5l0.2,0.2c0.2,0.6,0.5,1.2,0.6,1.8
			c0.5,1.2,1.4,2.9-0.6,3.3c-1.1,0.3-2.2,0-3.1-0.6C26.4,114.3,28.1,112.7,28.4,111.9 M56.3,152.3l-5-26.7c-0.3-1.7-1.8-2.8-3.4-2.8
			c-0.1-0.6-0.2-1.2-0.3-1.8h0.2l0.6-0.1c1.2-0.2,2.1-1.4,1.9-2.6l-2.1-13.1c-0.2-1.2-1.4-2.1-2.6-1.9l-0.6,0.1
			c-0.1,0-0.3,0-0.4,0.1c-0.1-0.5-0.2-1-0.2-1.5l-29.5,1.6v1.5c-0.2,0-0.3-0.1-0.5-0.1h-0.6c-1.3,0-2.3,0.9-2.4,2.2l-0.5,13.1
			c0,1.3,0.9,2.3,2.2,2.4h0.6c0.2,0,0.4,0,0.6-0.1v1.4c-2,0.1-3.5,1.7-3.6,3.7l-0.8,23.6c-0.1,2,1.4,3.7,3.4,3.9
			c0,1.5-0.1,3.1-0.1,4.5c-0.1,3.7-0.1,8.1,2.8,10.8c3.1,3,7.8,2.2,11.7,1.9c5.4-0.5,10.8-0.6,16.2-0.9c3.8-0.2,8.3-0.5,10.4-4.3
			c1.5-2.7,1.1-6.2,0.2-9.5C55.9,156.3,56.6,154.3,56.3,152.3"/>
		<path id="패스_2211" class="st7" d="M92.9,137.3c-0.5,0.5-2-0.6-2.4-1.1c-0.5-0.6-0.5-1.4,0.1-1.9c0.5-0.5,1.4-0.5,1.9,0
			C92.9,134.7,93.5,136.7,92.9,137.3"/>
		<path id="패스_2212" class="st8" d="M90.8,138.9c0.1,0.8,0.2,1.5-0.5,1.6c-0.7,0-1.4-0.4-1.5-1.1s0.4-1.4,1.1-1.5c0,0,0,0,0.1,0
			C90.6,137.6,90.7,138.1,90.8,138.9"/>
		<path id="패스_2213" class="st5" d="M90,132.5c0.1,0.8,0.2,1.5-0.5,1.6c-0.7,0.1-1.4-0.5-1.5-1.2s0.4-1.4,1.1-1.5c0,0,0,0,0.1,0
			C89.7,131.3,89.9,131.8,90,132.5"/>
		<path id="패스_2214" class="st3" d="M91.7,131.5c-0.6-0.7-1.6-1.1-2.5-0.9c-0.9,0.1-1.7,0.7-2.1,1.5c-0.3,0.7-0.5,1.4-0.5,2.2
			c0.2,2.3,1.2,4.4,2.7,6l0,0c1.6,1.6,3.5,2.6,5.7,3.1c0.5,0.1,1.1,0,1.5-0.4c0.5-0.6,0.5-1.8,0.1-3.4c-0.5-1.1-0.9-2.1-1.4-3.1
			C94.2,134.8,93,133.1,91.7,131.5L91.7,131.5z M88.7,140.8L88.7,140.8c-1.7-1.8-2.7-4.1-2.9-6.5c0-0.9,0.2-1.7,0.5-2.5
			c0.5-1,1.4-1.7,2.5-1.8c1.1-0.2,2.3,0.3,3.1,1.1c1.4,1.6,2.7,3.3,3.7,5.2c0.5,1,1,2.1,1.5,3.2c0.6,1.9,0.5,3.2-0.2,4
			c-0.6,0.5-1.4,0.7-2.1,0.6C92.5,143.6,90.4,142.4,88.7,140.8"/>
		<path id="패스_2215" class="st3" d="M86.1,135.6L86.1,135.6c-0.1-0.2-0.1-0.4,0-0.5l0,0c0.2-0.1,4.9-2.7,7.5-2.1
			c0.2,0,0.3,0.2,0.3,0.4s-0.2,0.3-0.4,0.3c0,0,0,0-0.1,0c-2.3-0.5-6.9,2.1-7,2.1C86.4,135.7,86.2,135.7,86.1,135.6"/>
		<path id="패스_2216" class="st3" d="M87,137.8L87,137.8c-0.1-0.2-0.1-0.4,0-0.5l0,0c0.2-0.1,5-2.7,7.6-2.1
			c0.2,0.1,0.2,0.2,0.2,0.4c-0.1,0.1-0.2,0.2-0.3,0.2c-2.3-0.5-7.1,2-7.1,2.1C87.2,137.9,87.1,137.9,87,137.8"/>
		<path id="패스_2217" class="st3" d="M88.4,139.9L88.4,139.9c-0.1-0.2-0.1-0.4,0.1-0.5c0.2-0.1,5-2.4,7.5-1.8
			c0.2,0,0.3,0.2,0.3,0.4c0,0.2-0.2,0.3-0.4,0.3c0,0,0,0-0.1,0c-2.3-0.5-7,1.8-7.1,1.8C88.6,140.1,88.4,140,88.4,139.9"/>
		<path id="패스_2218" class="st3" d="M91,142.4L91,142.4c-0.1-0.2-0.1-0.4,0-0.5l0,0c0.2-0.1,3.5-1.9,6-1.3
			c0.2,0,0.3,0.2,0.3,0.4c0,0.2-0.2,0.3-0.4,0.3c0,0,0,0-0.1,0c-2.3-0.5-5.6,1.2-5.6,1.3C91.2,142.5,91,142.5,91,142.4"/>
		<path id="패스_2219" class="st3" d="M92.9,143.2c0,0-0.1-0.1-0.1-0.2c-1.1-3.6-3-6.9-5.6-9.7c-0.2-0.1-0.2-0.3,0-0.5
			c0.1-0.1,0.3-0.2,0.4-0.1c0,0,0,0,0.1,0.1c2.7,2.8,4.6,6.2,5.7,9.9c0.1,0.2-0.1,0.3-0.2,0.4C93.2,143.4,93,143.3,92.9,143.2"/>
		<path id="패스_2220" class="st3" d="M95.2,144c-0.1-0.1-0.1-0.1-0.1-0.2c0-0.1-0.1-5.6-7.3-13l0,0c-0.1-0.1-0.1-0.3,0-0.5
			c0.1-0.1,0.3-0.1,0.5,0l0,0c7.4,7.6,7.4,13.2,7.4,13.4s-0.1,0.3-0.3,0.3C95.4,144.1,95.3,144,95.2,144"/>
		<path id="패스_2221" class="st1" d="M107.9,111.6c-1.1,6.7-6.9,11.3-13,10.2c-6.1-1-10.1-7.3-8.9-13.9s6.9-11.2,13.1-10.2
			C105,98.7,109.1,105,107.9,111.6"/>
		<path id="패스_2222" class="st4" d="M106,111.3c-0.9,5.5-5.7,9.2-10.8,8.4s-8.3-6-7.4-11.5s5.7-9.2,10.8-8.4
			C103.6,100.7,106.9,105.8,106,111.3"/>
		<path id="패스_2223" class="st1" d="M86.7,108.1c0,0,11-9.9,20.3,3.4l-0.1-5.9l-5-4.3H90.3l-2.5,3.9L86.7,108.1z"/>
		<path id="패스_2224" class="st2" d="M105.1,102.7c-0.3,1.8-2.1,3.1-3.9,2.7l-7.4-1.2c-1.8-0.3-3.1-2-2.8-3.9
			c0.3-1.8,2-3.1,3.9-2.8H95l7.4,1.2C104.1,99.1,105.4,100.9,105.1,102.7"/>
		<path id="패스_2225" class="st8" d="M102.6,97.1l-7.4-1.2c-2.8-0.4-5.4,1.6-5.7,4.4c-0.3,2.7,1.4,5.1,4,5.7l7.4,1.2
			c2.8,0.4,5.4-1.6,5.7-4.4C107,100.1,105.3,97.6,102.6,97.1 M102.3,98.9c1.8,0.3,3,2.1,2.7,3.9s-2,3-3.8,2.7l-7.4-1.2
			c-1.8-0.3-3.1-2-2.8-3.9c0.3-1.8,2-3.1,3.9-2.8H95L102.3,98.9z"/>
		<path id="패스_2226" class="st1" d="M94.2,108.9c-0.2,0.8-0.6,1.3-1.1,1.2c-0.5-0.1-0.8-0.8-0.7-1.5c0.2-0.8,0.6-1.3,1.1-1.2
			C94,107.6,94.3,108.2,94.2,108.9"/>
		<path id="패스_2227" class="st1" d="M100.7,110.3c-0.2,0.8-0.6,1.3-1.1,1.2c-0.5-0.1-0.8-0.8-0.7-1.5c0.2-0.8,0.6-1.3,1.1-1.2
			C100.5,108.9,100.8,109.5,100.7,110.3"/>
		<path id="패스_2228" class="st1" d="M93.3,115.1c-0.2-0.2-0.3-0.4-0.5-0.7c-0.2-0.3-0.1-0.8,0.2-1c0.3-0.2,0.8-0.1,1,0.2
			c0.2,0.5,0.7,0.9,1.3,1.1c0.5,0.1,1.1,0,1.5-0.3c0.3-0.2,0.8-0.2,1,0.2c0.2,0.3,0.2,0.8-0.2,1l0,0c-0.8,0.5-1.7,0.7-2.7,0.5
			C94.4,116,93.8,115.6,93.3,115.1"/>
		<path id="패스_2229" class="st8" d="M97,110.3c0-0.1-0.1-0.1-0.1-0.2c-0.5-0.5-0.9,0.4-1.1,0.7c-0.3,0.4-1.5,1.1-1.1,1.7
			c0.4,0.5,1.1,0.8,1.8,0.8c1.2,0,0.9-1.1,0.8-1.8C97.1,111.1,97.1,110.7,97,110.3"/>
		<path id="패스_2230" class="st8" d="M107.7,110.2c-0.3-0.1-0.6-0.3-0.7-0.6c-0.4-1.5-1.3-2.9-2.4-4c-0.4-0.3-0.4-0.9-0.1-1.2
			c0.3-0.4,0.9-0.4,1.2-0.1l0,0c1.4,1.3,2.4,3,2.9,4.8c0.1,0.4-0.1,0.9-0.5,1.1c0,0,0,0-0.1,0C108,110.2,107.8,110.2,107.7,110.2"/>
		<path id="패스_2231" class="st8" d="M86.4,106.9c-0.2,0-0.2-0.1-0.4-0.2c-0.4-0.3-0.5-0.8-0.2-1.2c1.1-1.6,2.6-2.8,4.4-3.6
			c0.5-0.2,1,0.1,1.1,0.5c0.2,0.4,0,0.9-0.5,1.1c-1.4,0.7-2.7,1.7-3.6,3.1C87,106.8,86.7,106.9,86.4,106.9"/>
		<path id="패스_2232" class="st4" d="M100.2,132.5c-0.5,0.2-1.1,0.3-1.6,0.2s-1-0.4-1.3-0.8c-0.1,0-0.1-0.1-0.2-0.1
			c-0.4-0.2-0.4,0.3-0.4,0.5c0.1,0.2,0.2,0.4,0.3,0.6c0.1,0.1,0.4,0.5,0.5,0.4c0,0-0.7,0.2-1.8-0.8c-0.1-0.1-0.2-0.3-0.3-0.2
			c-0.4,0.2,0.2,1.1,0.5,1.3c0.2,0.2,0.4,0.4,0.6,0.5c-0.4,0.2-0.9,0.2-1.4,0c-0.2-0.1-0.3-0.1-0.4,0.1c-0.2,0.3,0.4,0.7,0.6,0.8
			c0.4,0.3,0.9,0.5,1.5,0.4l-0.2,0.2c-0.1,0.1-0.3,0.2-0.5,0.3s-0.5,0.1-0.8,0.2c-0.2,0-0.7-0.2-0.7,0.2c0,0.3,0.6,0.5,0.8,0.5
			c0.6,0,1.1-0.1,1.6-0.4c-0.1,0-0.1,0.2-0.2,0.2c-0.1,0.2-0.2,0.4-0.4,0.5c-0.2,0.2-0.5,0.3-0.5,0.5c-0.2,0.4,0.6,0.1,0.8,0
			c0.2-0.1,0.4-0.2,0.5-0.3c0.7-0.4,1.4-0.8,2-1.3c0.4-0.3,0.7-0.5,1.1-0.8l0.1-0.1l1-0.7C101.4,134.5,100.7,132.4,100.2,132.5"/>
		<path id="패스_2233" class="st1" d="M103.9,120.2c0,0,10.5,7.8-2.4,14.4l-1.5-1.8c0,0,6.8-4.7,1.1-8.9
			C101,123.8,102,120.2,103.9,120.2"/>
		<path id="패스_2234" class="st9" d="M95.2,166c-0.2,1.4,0.7,2.8,2.1,3.2c0.8-0.6,1.4-1.4,1.8-2.4L95.2,166z"/>
		<path id="패스_2235" class="st9" d="M78.2,164.9c-0.1,1.7,1.2,3.1,2.8,3.3c0.8-0.8,1.4-1.8,1.7-2.9L78.2,164.9z"/>
		<path id="패스_2236" class="st5" d="M95.2,166c0,0-3,3.2,3.9,9.5l6.3-1l-6.3-7.6C99.1,166.9,96.9,170.2,95.2,166"/>
		<path id="패스_2237" class="st5" d="M78.2,164.9l-7.8,6.5l6,1.4c0,0,6-2.7,6.3-7.4C82.6,165.3,77.8,168.5,78.2,164.9"/>
	</g>
</g>
</svg>
