<?xml version="1.0" encoding="utf-8"?>
<!-- Generator: Adobe Illustrator 23.0.0, SVG Export Plug-In . SVG Version: 6.00 Build 0)  -->
<svg version="1.1" id="레이어_1" xmlns="http://www.w3.org/2000/svg" xmlns:xlink="http://www.w3.org/1999/xlink" x="0px"
	 y="0px" viewBox="0 0 182.7 157.6" style="enable-background:new 0 0 182.7 157.6;" xml:space="preserve">
<style type="text/css">
	.st0{fill:#74C6BE;}
	.st1{fill:#FDD35C;}
	.st2{fill:#FFFFFF;}
	.st3{fill:#64C0AB;}
	.st4{fill:#BCE2E3;}
	.st5{fill:#727171;}
	.st6{clip-path:url(#SVGID_2_);}
	.st7{clip-path:url(#SVGID_4_);}
	.st8{fill:none;}
	.st9{fill:#595757;}
	.st10{clip-path:url(#SVGID_6_);}
	.st11{clip-path:url(#SVGID_8_);}
	.st12{opacity:0.5;}
</style>
<g id="그룹_660" transform="translate(-0.014 0)">
	<g id="그룹_608" transform="translate(68.638 69.799)">
		<g id="그룹_597" transform="translate(0.539 6.399)">
			<g id="그룹_596" transform="translate(4.64)">
				<path id="패스_3190" class="st0" d="M5.8,81.3L5.8,81.3c-0.2-0.1-0.3-0.2-0.3-0.5c0.1-0.4,10-31.7,0.1-69.4
					c-0.1-0.2,0-0.4,0.2-0.5s0.4,0,0.5,0.2C16.1,49.2,6.1,80.6,6,81C6,81.2,5.9,81.3,5.8,81.3z"/>
				<path id="패스_3191" class="st0" d="M8.3,23c-0.1,0-0.2,0-0.2-0.1c-0.1-0.1,0-0.3,0.1-0.5l8.4-5.5c0.1-0.1,0.3,0,0.5,0.1
					s0,0.3-0.1,0.5l-8.4,5.4C8.4,23,8.4,23,8.3,23z"/>
				<path id="패스_3192" class="st0" d="M6,11.8c-0.1,0-0.1,0-0.2-0.1l-5.6-4C0,7.6-0.1,7.3,0,7.2S0.4,7,0.5,7.1L6,11l8.2-5.2
					c0.1-0.1,0.3,0,0.5,0.1s0,0.3-0.1,0.5l-8.4,5.4C6.1,11.7,6.1,11.8,6,11.8z"/>
				<path id="패스_3193" class="st0" d="M9.5,31.1H9.3l-6.8-4.2c-0.1-0.1-0.2-0.3-0.1-0.5s0.3-0.2,0.5-0.1l6.8,4.2
					c0.1,0.1,0.2,0.3,0.1,0.5C9.7,31.1,9.6,31.1,9.5,31.1z"/>
				<path id="패스_3194" class="st0" d="M10.1,54.9c-0.1,0-0.2,0-0.2-0.1c-0.1-0.1,0-0.3,0.1-0.5l7.8-4.9c0.1-0.1,0.3,0,0.5,0.1
					s0,0.3-0.1,0.5l-7.8,4.9H10.1z"/>
				<path id="패스_3195" class="st0" d="M10.3,47.3h-0.2L4,43.2c-0.1-0.1-0.2-0.3-0.1-0.5c0.1-0.1,0.3-0.2,0.5-0.1l6.1,4.1
					c0.1,0.1,0.2,0.3,0.1,0.5C10.5,47.2,10.4,47.3,10.3,47.3z"/>
				<path id="패스_3196" class="st0" d="M6,11.8c-0.2,0-0.3-0.2-0.3-0.3L4.2,0.3C4.2,0.2,4.3,0,4.5,0c0,0,0.1,0,0.1,0
					c0.2,0,0.3,0.1,0.3,0.2l1.4,11.2C6.3,11.6,6.2,11.8,6,11.8L6,11.8z"/>
				<path id="패스_3197" class="st0" d="M7.5,19L7.5,19l-6.9-1.4c-0.2,0-0.3-0.2-0.2-0.3c0-0.2,0.2-0.3,0.3-0.2l6.8,1.4
					c0.2,0,0.3,0.2,0.2,0.3C7.7,18.9,7.6,19,7.5,19z"/>
				<path id="패스_3198" class="st0" d="M9.5,30.9H9.4c-0.1-0.1-0.2-0.3-0.1-0.5l2.6-4.4c0.1-0.1,0.3-0.2,0.5-0.1s0.2,0.3,0.1,0.5
					l-2.6,4.4C9.7,30.8,9.6,30.9,9.5,30.9z"/>
			</g>
			<path id="패스_3199" class="st0" d="M12.8,68.9c21.3-6.4,16.2-7,16.2-7c-6.8-0.1-13.4,4.7-16.1,6.5L12.8,68.9z"/>
			<path id="패스_3200" class="st0" d="M14.9,39.4c12.3-6.2,9.1-5.9,9.1-5.9c-4.1,0.7-7.7,4.2-9.1,5.6V39.4z"/>
			<path id="패스_3201" class="st0" d="M14,61.3c-13.5-10.7-9.6-9.7-9.6-9.7c4.9,1.9,8.3,7.1,9.7,9.2L14,61.3z"/>
			<path id="패스_3202" class="st0" d="M11.7,74.8C-1.1,58.6,0,63,0,63c2.7,7.1,9.3,11.2,11.7,12.5L11.7,74.8z"/>
		</g>
		<g id="그룹_598" transform="translate(5.119)">
			<path id="패스_3203" class="st1" d="M4,8.6c0.4-0.6,0.6-1.3,0.7-2c0,0.7,0.2,1.5,0.6,2.1C6,9.8,7.4,10,8.4,9.2s1.2-2.2,0.5-3.2
				C8.8,5.9,8.7,5.8,8.6,5.7C8,5.3,7.3,5.1,6.6,5c0.7,0,1.5-0.2,2.1-0.6c1-0.7,1.2-2.2,0.5-3.2C8.5,0.2,7.1,0,6.1,0.7
				C5.9,0.8,5.8,0.9,5.7,1C5.4,1.7,5.1,2.3,5,3c0-0.7-0.2-1.5-0.6-2.1c-0.7-1-2.2-1.2-3.2-0.5C0.2,1.2,0,2.6,0.7,3.6
				C0.8,3.7,0.9,3.8,1,4c0.6,0.4,1.3,0.6,2,0.7c-0.7,0-1.5,0.2-2.1,0.6c-1,0.7-1.2,2.2-0.5,3.2s2.2,1.2,3.2,0.5
				C3.7,8.8,3.8,8.7,4,8.6"/>
			<path id="패스_3204" class="st2" d="M4.7,4.4L4.7,4.4V4h0.1v0.3C4.8,4.4,4.7,4.4,4.7,4.4C4.7,4.4,4.7,4.4,4.7,4.4"/>
			<path id="패스_3205" class="st2" d="M4.7,5.2L4.7,5.2v0.5H4.5V5.4C4.7,5.4,4.7,5.4,4.7,5.2"/>
			<path id="패스_3206" class="st2" d="M5.1,4.9h0.5V5H5.2C5.2,4.9,5.2,4.9,5.1,4.9C5.1,4.9,5.1,4.9,5.1,4.9"/>
			<path id="패스_3207" class="st2" d="M4.3,4.9H3.8V4.8h0.3L4.3,4.9"/>
		</g>
		<g id="그룹_599" transform="translate(8.544 16.823)">
			<path id="패스_3208" class="st1" d="M2.6,5.7c0.3-0.4,0.4-0.9,0.5-1.4c0,0.5,0.1,1,0.3,1.4c0.4,0.7,1.3,0.8,2,0.4
				c0.1,0,0.1-0.1,0.2-0.2c0.6-0.6,0.6-1.5,0.1-2.1c0,0,0,0-0.1-0.1C5.2,3.4,4.8,3.2,4.3,3.2c0.5,0,1-0.1,1.4-0.3
				c0.7-0.4,0.8-1.3,0.4-2C6,0.8,6,0.7,5.9,0.6C5.3,0,4.4,0,3.7,0.6c0,0,0,0-0.1,0.1C3.4,1.1,3.2,1.5,3.2,2c0-0.5-0.1-1-0.3-1.4
				C2.4,0,1.5-0.2,0.9,0.2c-0.1,0-0.1,0.1-0.2,0.2C0,1,0,1.9,0.6,2.6c0,0,0,0,0.1,0.1C1.1,2.9,1.5,3.1,2,3.1c-0.5,0-1,0.1-1.4,0.3
				C0,3.9-0.2,4.8,0.2,5.4c0,0.1,0.1,0.1,0.2,0.2C0.8,6.3,1.7,6.4,2.3,6C2.4,5.9,2.5,5.8,2.6,5.7"/>
			<path id="패스_3209" class="st2" d="M3.1,3L3.1,3V2.6h0.1v0.1l0,0v0.1C3.1,2.9,3.1,2.9,3.1,3C3.1,3,3.1,3,3.1,3"/>
			<path id="패스_3210" class="st2" d="M3.1,3.4L3.1,3.4v0.3H3V3.7l0,0V3.6L3.1,3.4"/>
			<path id="패스_3211" class="st2" d="M3.3,3.2L3.3,3.2c0.1,0,0.2,0,0.2-0.1h0.1v0.1H3.3"/>
			<path id="패스_3212" class="st2" d="M2.9,3.2L2.9,3.2c-0.1,0-0.2,0-0.2,0.1H2.5V3.2h0.2C2.7,3.1,2.7,3.2,2.9,3.2"/>
		</g>
		<g id="그룹_600" transform="translate(16.053 18.507)">
			<path id="패스_3213" class="st1" d="M6.8,7.2C6.6,6.7,6.3,6.1,5.8,5.7c0.5,0.4,1,0.6,1.6,0.7c1,0.1,1.9-0.7,2-1.7
				c0-0.1,0-0.2,0-0.3c0-1-0.8-1.8-1.8-1.8c-0.1,0-0.3,0-0.4,0C6.7,2.9,6.1,3.2,5.7,3.6c0.4-0.5,0.6-1,0.7-1.6c0.1-1-0.7-1.9-1.7-2
				C4.6,0,4.5,0,4.4,0c-1,0-1.8,0.8-1.8,1.8c0,0.1,0,0.3,0,0.4c0.2,0.6,0.5,1.1,0.9,1.5C3.2,3.4,2.6,3.1,2,3C1,3,0.1,3.7,0,4.7
				C0,4.8,0,4.9,0,5c0,1,0.8,1.8,1.8,1.8c0.1,0,0.3,0,0.4,0c0.6-0.2,1.1-0.5,1.5-0.9C3.4,6.3,3.1,6.9,3,7.5c-0.1,1,0.7,1.9,1.7,2
				c0.1,0,0.2,0,0.3,0c1.1-0.1,1.8-1,1.8-2C6.8,7.3,6.8,7.3,6.8,7.2"/>
			<path id="패스_3214" class="st2" d="M4.6,4.6H4.4c-0.1,0-0.1,0-0.1-0.1c0,0,0,0,0,0L4.2,4.3c0-0.1,0-0.1,0.1-0.1c0,0,0,0,0,0
				h0.1v0.1C4.6,4.3,4.6,4.4,4.6,4.6"/>
			<path id="패스_3215" class="st2" d="M5,4.9h0.1c0.1,0,0.1,0,0.1,0.1c0,0,0,0,0,0l0.1,0.1c0,0.1,0,0.1-0.1,0.1c0,0,0,0,0,0H5.1
				V5.1C5.1,5,5,5,5,4.9"/>
			<path id="패스_3216" class="st2" d="M5,4.4L5,4.4V4.3c0-0.1,0-0.1,0.1-0.1c0,0,0,0,0,0l0.1-0.1c0.1,0,0.1,0,0.1,0.1
				c0,0,0,0,0,0v0.1H5.3C5.1,4.4,5.1,4.4,5,4.4"/>
			<path id="패스_3217" class="st2" d="M4.6,4.9L4.6,4.9V5c0,0.1,0,0.1-0.1,0.1c0,0,0,0,0,0L4.3,5.3c-0.1,0-0.1,0-0.1-0.1
				c0,0,0,0,0,0V5h0.1C4.4,5,4.6,5,4.6,4.9"/>
		</g>
		<g id="그룹_601" transform="translate(3.77 28.826)">
			<path id="패스_3218" class="st1" d="M5.8,5.2c-0.2-0.5-0.6-0.8-1-1c0.4,0.2,0.9,0.3,1.4,0.2c0.8-0.1,1.3-0.9,1.2-1.7
				c0,0,0-0.1,0-0.1c-0.3-0.8-1.1-1.3-2-1c0,0-0.1,0-0.1,0.1c-0.5,0.2-0.8,0.6-1,1c0.2-0.4,0.3-0.9,0.2-1.4C4.2,0.4,3.5-0.1,2.7,0
				C1.9,0.2,1.3,0.9,1.5,1.7c0,0.1,0,0.2,0.1,0.3c0.2,0.5,0.6,0.8,1,1C2.2,2.9,1.7,2.8,1.2,2.9C0.4,3-0.1,3.8,0,4.6
				c0.1,0.8,0.9,1.3,1.7,1.2c0.1,0,0.2,0,0.3-0.1c0.5-0.2,0.8-0.6,1-1C2.9,5,2.8,5.5,2.9,6C3,6.8,3.8,7.3,4.6,7.2c0,0,0.1,0,0.1,0
				C5.5,7.1,6,6.4,5.9,5.6C5.9,5.5,5.8,5.3,5.8,5.2"/>
			<path id="패스_3219" class="st2" d="M3.6,3.4H3.3c-0.1,0-0.1,0-0.1-0.1c0,0,0,0,0,0V3.2h0.2C3.4,3.4,3.6,3.4,3.6,3.4"/>
			<path id="패스_3220" class="st2" d="M4,3.7h0.2c0.1,0,0.1,0,0.1,0.1c0,0,0,0,0,0v0.1H4.1C4,3.8,4,3.8,4,3.7"/>
			<path id="패스_3221" class="st2" d="M3.9,3.3L3.9,3.3V3.1C3.9,3,4,3,4,3c0,0,0,0,0,0h0.1v0.1l0,0C4,3.3,3.9,3.3,3.9,3.3"/>
			<path id="패스_3222" class="st2" d="M3.7,3.8L3.7,3.8V4c0,0.1,0,0.1-0.1,0.1c0,0,0,0,0,0H3.4V4l0,0V3.9
				C3.6,3.9,3.7,3.9,3.7,3.8"/>
		</g>
		<g id="그룹_603" transform="translate(19.778 51.942)">
			<path id="패스_3228" class="st1" d="M5.1,5.8C5,5.4,4.8,4.9,4.6,4.6c0.3,0.3,0.7,0.6,1.2,0.8C6.5,5.5,7.3,5,7.4,4.2
				c0-0.1,0-0.2,0-0.3c0.1-0.8-0.5-1.6-1.4-1.6c-0.1,0-0.1,0-0.2,0C5.5,2.4,5,2.6,4.7,2.9C5,2.6,5.3,2.2,5.4,1.8C5.5,1,5,0.2,4.2,0
				C4.2,0,4.1,0,4,0C3.1-0.1,2.4,0.5,2.3,1.4c0,0.1,0,0.1,0,0.2C2.4,2,2.6,2.4,2.9,2.8C2.6,2.5,2.2,2.2,1.8,2C1,1.8,0.2,2.3,0,3.1
				c0,0.1,0,0.2,0,0.3C-0.1,4.2,0.5,4.9,1.4,5c0.1,0,0.1,0,0.2,0C2,4.9,2.4,4.7,2.8,4.4C2.5,4.8,2.2,5.2,2,5.6
				C1.8,6.4,2.3,7.2,3.1,7.3c0.1,0,0.2,0,0.3,0C4.2,7.5,5,6.9,5.1,6C5.1,6,5.1,5.9,5.1,5.8"/>
			<path id="패스_3229" class="st2" d="M3.6,3.4L3.6,3.4C3.6,3.3,3.5,3.3,3.4,3.3V3.2h0.1v0.1L3.6,3.4"/>
			<path id="패스_3230" class="st2" d="M4,3.9L4,3.9C4,3.9,4.1,4,4.2,4v0.1H4.1V4C4,4,4,3.9,4,3.9C4,3.9,4,3.9,4,3.9"/>
			<path id="패스_3231" class="st2" d="M4,3.5L4,3.5C4,3.4,4.1,3.4,4.1,3.3h0.1v0.1l0,0C4.1,3.4,4,3.4,4,3.5"/>
			<path id="패스_3232" class="st2" d="M3.6,3.9L3.6,3.9C3.6,3.9,3.5,4,3.5,4.1H3.4c0,0-0.1,0,0-0.1V3.9H3.6"/>
		</g>
		<g id="그룹_604" transform="translate(15.984 7.602)">
			<path id="패스_3233" class="st1" d="M3.2,7.4C3.6,7,3.9,6.4,4,5.8c0,0.6,0,1.3,0.2,1.9C4.8,8.6,6,8.9,7,8.4c0,0,0,0,0.1,0
				C8,7.8,8.2,6.6,7.6,5.7C7.6,5.6,7.5,5.5,7.4,5.4C7,5,6.4,4.8,5.8,4.6c0.6,0,1.3,0,1.9-0.2c1-0.5,1.3-1.8,0.7-2.7c0,0,0,0,0-0.1
				C7.8,0.7,6.6,0.5,5.7,1.1C5.6,1.1,5.5,1.2,5.4,1.2C5,1.7,4.8,2.3,4.6,2.9c0-0.6,0-1.3-0.2-1.9C3.8,0,2.6-0.3,1.7,0.3
				c0,0,0,0-0.1,0C0.7,0.9,0.5,2.1,1.1,3c0.1,0.1,0.1,0.2,0.2,0.2c0.5,0.4,1,0.7,1.6,0.8C2.2,4,1.6,4.1,1,4.3C0.1,4.8-0.3,6,0.3,7
				c0,0,0,0,0,0.1C0.9,8,2.1,8.2,3,7.6C3.1,7.5,3.2,7.5,3.2,7.4"/>
			<path id="패스_3234" class="st2" d="M4.5,4L4.5,4V3.7c0-0.1,0-0.1,0.1-0.1c0,0,0,0,0,0h0.1v0.3C4.5,3.9,4.5,3.9,4.5,4"/>
			<path id="패스_3235" class="st2" d="M4.4,4.7L4.4,4.7v0.3c0,0.1,0,0.1-0.1,0.1c0,0,0,0,0,0H4.2V4.9C4.3,4.9,4.3,4.7,4.4,4.7"/>
			<path id="패스_3236" class="st2" d="M4.7,4.4h0.5v0.1H4.9C4.8,4.5,4.7,4.5,4.7,4.4C4.7,4.4,4.7,4.4,4.7,4.4"/>
			<path id="패스_3237" class="st2" d="M4,4.3H3.6V4.2h0.3L4,4.3"/>
		</g>
		<g id="그룹_605" transform="translate(0 9.095)">
			<path id="패스_3238" class="st1" d="M2.8,7.4c0.5-0.3,1-0.8,1.3-1.4C3.8,6.6,3.7,7.3,3.8,7.9C4.1,9,5.2,9.6,6.2,9.4
				c0.1,0,0.1,0,0.2-0.1C7.4,9,7.9,7.9,7.6,7c0-0.1-0.1-0.2-0.1-0.3C7.1,6.1,6.6,5.6,6,5.3c0.6,0.2,1.2,0.3,1.9,0.2
				C9,5.3,9.6,4.3,9.4,3.2c0-0.1,0-0.1-0.1-0.2C9,2,7.9,1.5,7,1.8C6.8,1.9,6.7,1.9,6.6,2c-0.5,0.3-1,0.8-1.3,1.4
				c0.2-0.6,0.3-1.2,0.2-1.9C5.3,0.4,4.3-0.2,3.2,0c-0.1,0-0.1,0-0.2,0.1C2,0.4,1.5,1.5,1.8,2.4c0,0.1,0.1,0.2,0.1,0.3
				c0.3,0.5,0.8,1,1.4,1.3C2.8,3.8,2.1,3.7,1.5,3.8C0.4,4.1-0.2,5.2,0,6.2c0,0.1,0,0.1,0.1,0.2c0.4,1,1.5,1.5,2.5,1.1
				C2.7,7.5,2.7,7.5,2.8,7.4"/>
			<path id="패스_3239" class="st2" d="M4.9,4.4L4.9,4.4V4.2c0-0.1,0-0.1,0.1-0.1c0,0,0,0,0,0h0.1v0.3C5.1,4.3,4.9,4.3,4.9,4.4
				C4.9,4.4,4.9,4.4,4.9,4.4"/>
			<path id="패스_3240" class="st2" d="M4.5,5L4.5,5v0.3c0,0.1,0,0.1-0.1,0.1c0,0,0,0,0,0H4.3V5.3l0,0V5.2C4.4,5.1,4.5,5.1,4.5,5"
				/>
			<path id="패스_3241" class="st2" d="M5,4.9h0.3c0.1,0,0.1,0,0.1,0.1c0,0,0,0,0,0v0.1H5.2C5.1,5,5,5,5,4.9"/>
			<path id="패스_3242" class="st2" d="M4.4,4.6H4.1c-0.1,0-0.1,0-0.1-0.1c0,0,0,0,0,0V4.4h0.3C4.3,4.5,4.3,4.5,4.4,4.6"/>
		</g>
		<g id="그룹_606" transform="translate(1.553 20.435)">
			<path id="패스_3243" class="st1" d="M2.6,5.7c0.3-0.4,0.4-0.9,0.5-1.4c0,0.5,0.1,1,0.3,1.4c0.4,0.7,1.3,0.8,2,0.4
				c0.1,0,0.1-0.1,0.2-0.2c0.6-0.6,0.6-1.5,0.1-2.1c0,0,0,0-0.1-0.1C5.2,3.4,4.8,3.2,4.3,3.2c0.5,0,1-0.1,1.4-0.3
				c0.7-0.4,0.8-1.3,0.4-2C6,0.8,6,0.7,5.9,0.6C5.3,0,4.4,0,3.7,0.6c0,0,0,0-0.1,0.1C3.4,1.1,3.2,1.5,3.2,2c0-0.5-0.1-1-0.3-1.4
				C2.4,0,1.5-0.2,0.9,0.2c-0.1,0-0.1,0.1-0.2,0.2C0,1,0,1.9,0.6,2.6c0,0,0,0,0.1,0.1C1.1,2.9,1.5,3.1,2,3.1c-0.5,0-1,0.1-1.4,0.3
				C0,3.9-0.2,4.8,0.2,5.4c0,0.1,0.1,0.1,0.2,0.2C1,6.3,1.9,6.3,2.6,5.7C2.6,5.7,2.6,5.7,2.6,5.7"/>
			<path id="패스_3244" class="st2" d="M3.2,2.9L3.2,2.9C3.1,2.9,3.1,2.7,3.2,2.9V2.5h0.1v0.1l0,0v0.1C3.3,2.7,3.2,2.8,3.2,2.9
				C3.2,2.9,3.2,2.9,3.2,2.9"/>
			<path id="패스_3245" class="st2" d="M3.1,3.3L3.1,3.3v0.3H3V3.6l0,0V3.4C3.1,3.4,3.1,3.4,3.1,3.3"/>
			<path id="패스_3246" class="st2" d="M3.4,3.1h0.3v0.1H3.6C3.5,3.2,3.4,3.2,3.4,3.1C3.4,3.1,3.4,3.1,3.4,3.1"/>
			<path id="패스_3247" class="st2" d="M2.9,3.1L2.9,3.1c-0.1,0-0.2,0.1-0.2,0.1H2.5V3.1H2.9"/>
		</g>
		<g id="그룹_607" transform="translate(13.72 28.64)">
			<path id="패스_3248" class="st1" d="M1.9,5.8c0.5-0.2,0.9-0.5,1.3-0.9c-0.3,0.5-0.4,1-0.5,1.5c0,0.9,0.7,1.6,1.7,1.6
				c0.1,0,0.1,0,0.2,0C5.4,8,6.1,7.2,6,6.3c0-0.1,0-0.2,0-0.2C5.8,5.6,5.4,5.1,5,4.8c0.4,0.3,0.9,0.5,1.4,0.6c0.9,0,1.6-0.7,1.6-1.7
				c0-0.1,0-0.1,0-0.2C8,2.6,7.2,2,6.3,2.1c-0.1,0-0.2,0-0.2,0C5.6,2.3,5.1,2.6,4.8,3c0.3-0.4,0.5-0.9,0.6-1.4C5.4,0.7,4.6,0,3.7,0
				C3.6,0,3.6,0,3.5,0C2.6,0.1,2,0.9,2.1,1.7c0,0.1,0,0.2,0,0.2C2.3,2.5,2.6,2.9,3,3.3C2.6,3,2.1,2.8,1.6,2.7C0.7,2.7,0,3.4,0,4.3
				c0,0.1,0,0.1,0,0.2C0.1,5.4,0.8,6,1.7,5.9C1.7,5.9,1.8,5.9,1.9,5.8"/>
			<path id="패스_3249" class="st2" d="M4.2,3.7L4.2,3.7V3.6c0-0.1,0-0.1,0.1-0.1c0,0,0,0,0,0l0.1-0.1h0.1v0.1l0,0
				C4.3,3.6,4.2,3.6,4.2,3.7"/>
			<path id="패스_3250" class="st2" d="M3.9,4.1L3.9,4.1v0.1c0,0.1,0,0.1-0.1,0.1c0,0,0,0,0,0L3.6,4.4H3.5V4.3h0.1L3.9,4.1"/>
			<path id="패스_3251" class="st2" d="M4.2,4.1h0.1c0.1,0,0.1,0,0.1,0.1c0,0,0,0,0,0c0.1,0,0.1,0,0.1,0.1c0,0,0,0,0,0v0.1H4.4
				V4.3C4.3,4.2,4.2,4.2,4.2,4.1"/>
			<path id="패스_3252" class="st2" d="M3.7,3.7H3.6C3.5,3.7,3.5,3.6,3.4,3.5V3.4h0.1v0.1C3.7,3.6,3.7,3.7,3.7,3.7"/>
		</g>
	</g>
	<g id="그룹_621" transform="translate(32.636 51.623)">
		<g id="그룹_610" transform="translate(0.539 6.283)">
			<g id="그룹_609" transform="translate(4.64)">
				<path id="패스_3253" class="st0" d="M5.8,81.4L5.8,81.4c-0.2-0.1-0.3-0.2-0.3-0.5c0.1-0.4,10-31.7,0.1-69.4
					c0-0.2,0.1-0.4,0.2-0.5c0.2,0,0.4,0.1,0.5,0.2c5.9,22.9,5.9,46.9-0.1,69.8C6.1,81.3,6,81.4,5.8,81.4C5.8,81.4,5.8,81.4,5.8,81.4
					z"/>
				<path id="패스_3254" class="st0" d="M8.3,23.1c-0.1,0-0.2,0-0.2-0.1c-0.1-0.1,0-0.3,0.1-0.5l8.4-5.5c0.1-0.1,0.3,0,0.5,0.1
					s0,0.3-0.1,0.5l-8.4,5.5H8.3z"/>
				<path id="패스_3255" class="st0" d="M6,11.9c-0.1,0-0.1,0-0.2-0.1l-5.6-4C0,7.7-0.1,7.5,0,7.3s0.3-0.2,0.5-0.1L6,11.1l8.2-5.2
					c0.1-0.1,0.3,0,0.5,0.1c0.1,0.1,0.1,0.3,0,0.4c0,0-0.1,0-0.1,0.1l-8.4,5.5L6,11.9z"/>
				<path id="패스_3256" class="st0" d="M9.5,31.2H9.3L2.5,27c-0.1-0.1-0.2-0.3-0.1-0.5s0.3-0.2,0.5-0.1l6.8,4.2
					c0.1,0.1,0.2,0.3,0.1,0.5C9.7,31.2,9.6,31.2,9.5,31.2z"/>
				<path id="패스_3257" class="st0" d="M10.2,55c-0.1,0-0.2,0-0.2-0.1c-0.1-0.1,0-0.3,0.1-0.5l7.8-4.9c0.1-0.1,0.3,0,0.5,0.1
					s0,0.3-0.1,0.5L10.4,55H10.2z"/>
				<path id="패스_3258" class="st0" d="M10.3,47.4h-0.2L4,43.3c-0.1-0.1-0.2-0.3-0.1-0.5s0.3-0.2,0.5-0.1l6.1,4.1
					c0.1,0.1,0.2,0.3,0.1,0.5C10.5,47.4,10.4,47.4,10.3,47.4z"/>
				<path id="패스_3259" class="st0" d="M6,11.9c-0.2,0-0.3-0.2-0.3-0.3L4.2,0.3C4.2,0.2,4.4,0,4.6,0c0.2,0,0.4,0.2,0.4,0.4
					l1.4,11.2C6.4,11.7,6.3,11.9,6,11.9C6.1,11.9,6,11.9,6,11.9L6,11.9z"/>
				<path id="패스_3260" class="st0" d="M7.5,19.1L7.5,19.1l-6.9-1.4c-0.2,0-0.3-0.2-0.2-0.3c0-0.2,0.2-0.3,0.3-0.2l6.8,1.4
					c0.2,0,0.3,0.2,0.2,0.3C7.9,19,7.6,19.1,7.5,19.1z"/>
				<path id="패스_3261" class="st0" d="M9.5,31.1H9.4c-0.1-0.1-0.2-0.3-0.1-0.5l2.6-4.4c0.1-0.1,0.3-0.2,0.5-0.1s0.2,0.3,0.1,0.5
					L9.8,31C9.7,31,9.6,31.1,9.5,31.1z"/>
			</g>
			<path id="패스_3262" class="st0" d="M13,69c21.3-6.4,16.2-7,16.2-7c-6.8-0.1-13.4,4.7-16.1,6.5L13,69z"/>
			<path id="패스_3263" class="st0" d="M14.9,39.5c12.4-6.2,9.1-5.9,9.1-5.9c-4.1,0.7-7.7,4.2-9.1,5.6V39.5z"/>
			<path id="패스_3264" class="st0" d="M14.1,61.5c-13.5-10.7-9.6-9.7-9.6-9.7c4.9,1.9,8.3,7.1,9.7,9.2L14.1,61.5z"/>
			<path id="패스_3265" class="st0" d="M11.7,74.9C-1.1,58.7,0,63.1,0,63.1c2.7,7.1,9.2,11.2,11.7,12.5L11.7,74.9z"/>
		</g>
		<g id="그룹_611" transform="translate(5.119)">
			<path id="패스_3266" class="st1" d="M4,8.6c0.4-0.6,0.6-1.3,0.7-2c0,0.7,0.2,1.5,0.6,2.1C6,9.8,7.4,10,8.4,9.2
				c1-0.7,1.2-2.2,0.5-3.2C8.8,5.9,8.7,5.8,8.6,5.7C8,5.3,7.3,5.1,6.6,5c0.7,0,1.5-0.2,2.1-0.6c1-0.7,1.2-2.2,0.5-3.2
				C8.5,0.2,7.1,0,6.1,0.7C5.9,0.8,5.8,0.9,5.7,1C5.4,1.7,5.1,2.3,5,3c0-0.7-0.2-1.5-0.6-2.1c-0.7-1-2.2-1.2-3.2-0.5
				C0.2,1.2,0,2.6,0.7,3.6C0.8,3.7,0.9,3.8,1,4c0.6,0.4,1.3,0.6,2,0.7c-0.7,0-1.5,0.2-2.1,0.6c-1,0.8-1.2,2.2-0.5,3.2
				c0,0,0.1,0.1,0.1,0.1c0.8,0.9,2.2,1.1,3.1,0.3C3.8,8.8,3.9,8.7,4,8.6"/>
			<path id="패스_3267" class="st2" d="M4.8,4.5L4.8,4.5V4.1h0.1v0.3C4.8,4.3,4.8,4.4,4.8,4.5"/>
			<path id="패스_3268" class="st2" d="M4.7,5.2L4.7,5.2v0.5H4.5V5.3C4.7,5.5,4.7,5.3,4.7,5.2"/>
			<path id="패스_3269" class="st2" d="M5.1,4.9h0.5V5H5.2C5.2,4.9,5.2,4.9,5.1,4.9C5.1,4.9,5.1,4.9,5.1,4.9"/>
			<path id="패스_3270" class="st2" d="M4.3,4.9H3.8V4.8h0.3L4.3,4.9"/>
		</g>
		<g id="그룹_612" transform="translate(8.544 16.94)">
			<path id="패스_3271" class="st1" d="M2.6,5.7c0.3-0.4,0.4-0.9,0.5-1.4c0,0.5,0.1,1,0.3,1.4c0.4,0.7,1.3,0.8,2,0.4
				c0.1,0,0.1-0.1,0.2-0.2c0.6-0.6,0.6-1.5,0.1-2.1c0,0,0,0-0.1-0.1C5.2,3.4,4.8,3.2,4.3,3.2c0.5,0,1-0.1,1.4-0.3
				c0.7-0.4,0.8-1.3,0.4-2c0-0.1-0.1-0.1-0.2-0.2C5.3,0,4.4,0,3.7,0.6c0,0,0,0-0.1,0.1C3.4,1.1,3.2,1.5,3.2,2c0-0.5-0.1-1-0.3-1.4
				C2.4,0,1.5-0.2,0.8,0.2c-0.1,0-0.1,0.1-0.2,0.2C0,1,0,1.9,0.6,2.6c0,0,0,0,0.1,0.1C1.1,2.9,1.5,3.1,2,3.1c-0.5,0-1,0.1-1.4,0.3
				C0,3.9-0.2,4.8,0.2,5.4c0,0.1,0.1,0.1,0.2,0.2C1,6.3,1.9,6.3,2.6,5.7C2.6,5.7,2.6,5.7,2.6,5.7"/>
			<path id="패스_3272" class="st2" d="M3.1,2.9L3.1,2.9V2.5h0.1v0.1l0,0v0.1C3.2,2.8,3.2,2.9,3.1,2.9C3.1,2.9,3.1,2.9,3.1,2.9"/>
			<path id="패스_3273" class="st2" d="M3.1,3.3L3.1,3.3v0.3H3V3.6l0,0V3.4C3.1,3.4,3.1,3.4,3.1,3.3"/>
			<path id="패스_3274" class="st2" d="M3.3,3.1L3.3,3.1c0.1,0,0.2,0,0.2-0.1h0.1v0.1H3.4C3.4,3.2,3.4,3.1,3.3,3.1"/>
			<path id="패스_3275" class="st2" d="M2.9,3.1L2.9,3.1c-0.1,0-0.2,0-0.2,0.1H2.5V3.1H2.9"/>
		</g>
		<g id="그룹_613" transform="translate(16.169 18.507)">
			<path id="패스_3276" class="st1" d="M6.8,7.2C6.6,6.7,6.3,6.1,5.8,5.7c0.5,0.4,1,0.6,1.6,0.7c1,0.1,1.9-0.7,2-1.7
				c0-0.1,0-0.2,0-0.3c0-1-0.8-1.8-1.8-1.8c-0.1,0-0.3,0-0.4,0C6.7,2.9,6.1,3.2,5.7,3.6c0.4-0.5,0.6-1,0.7-1.6c0.1-1-0.7-1.9-1.7-2
				C4.6,0,4.5,0,4.4,0c-1,0-1.8,0.8-1.8,1.8c0,0.1,0,0.3,0,0.4c0.2,0.6,0.5,1.1,0.9,1.5C3.2,3.4,2.6,3.1,2,3C1,3,0.1,3.7,0,4.7
				C0,4.8,0,4.9,0,5c0,1,0.8,1.8,1.8,1.8c0.1,0,0.3,0,0.4,0c0.6-0.2,1.1-0.5,1.5-0.9C3.4,6.3,3.1,6.9,3,7.5c-0.1,1,0.7,1.9,1.7,2
				c0.1,0,0.2,0,0.3,0c1.1-0.1,1.9-1,1.8-2.1C6.8,7.3,6.8,7.3,6.8,7.2"/>
			<path id="패스_3277" class="st2" d="M4.4,4.6H4.3c-0.1,0-0.1,0-0.1-0.1c0,0,0,0,0,0L4.1,4.3c0-0.1,0-0.1,0.1-0.1c0,0,0,0,0,0
				h0.1v0.1C4.4,4.4,4.4,4.4,4.4,4.6"/>
			<path id="패스_3278" class="st2" d="M4.9,5H5c0.1,0,0.1,0,0.1,0.1c0,0,0,0,0,0l0.1,0.1c0,0.1,0,0.1-0.1,0.1c0,0,0,0,0,0H5
				L4.9,5.3C5,5.1,5,5,4.9,5"/>
			<path id="패스_3279" class="st2" d="M4.9,4.6L4.9,4.6V4.4L5,4.3l0.1-0.1c0.1,0,0.1,0,0.1,0.1c0,0,0,0,0,0v0.1H5.1
				C5,4.4,5,4.4,4.9,4.6"/>
			<path id="패스_3280" class="st2" d="M4.6,5L4.6,5v0.1c0,0.1,0,0.1-0.1,0.1c0,0,0,0,0,0L4.3,5.4c-0.1,0-0.1,0-0.1-0.1
				c0,0,0,0,0,0V5.1h0.1C4.3,5,4.4,5,4.6,5"/>
		</g>
		<g id="그룹_614" transform="translate(3.886 28.826)">
			<path id="패스_3281" class="st1" d="M5.8,5.2c-0.2-0.5-0.6-0.8-1-1c0.4,0.2,0.9,0.3,1.4,0.2c0.8-0.1,1.3-0.9,1.2-1.7
				c0,0,0-0.1,0-0.1c-0.3-0.8-1.1-1.3-2-1c0,0-0.1,0-0.1,0.1c-0.5,0.2-0.8,0.6-1,1c0.2-0.4,0.3-0.9,0.2-1.4C4.2,0.4,3.5-0.1,2.7,0
				C1.9,0.2,1.3,0.9,1.5,1.7c0,0.1,0,0.2,0.1,0.3c0.2,0.5,0.6,0.8,1,1C2.2,2.9,1.7,2.8,1.2,2.9C0.4,3-0.1,3.8,0,4.6s0.9,1.3,1.7,1.2
				c0.1,0,0.2,0,0.3-0.1c0.5-0.2,0.8-0.6,1-1C2.9,5,2.8,5.5,2.8,6C3,6.8,3.8,7.3,4.6,7.2c0,0,0.1,0,0.1,0C5.5,7,6,6.2,5.8,5.5
				C5.8,5.4,5.8,5.3,5.8,5.2"/>
			<path id="패스_3282" class="st2" d="M3.4,3.6H3.2c-0.1,0-0.1,0-0.1-0.1c0,0,0,0,0,0V3.3h0.1C3.4,3.4,3.4,3.4,3.4,3.6"/>
			<path id="패스_3283" class="st2" d="M3.9,3.8h0.2l0.1,0.1V4H4.1L3.9,3.8"/>
			<path id="패스_3284" class="st2" d="M3.8,3.4L3.8,3.4V3.2c0-0.1,0-0.1,0.1-0.1c0,0,0,0,0,0H4v0.1l0,0L3.8,3.4"/>
			<path id="패스_3285" class="st2" d="M3.6,3.9L3.6,3.9v0.2c0,0.1,0,0.1-0.1,0.1c0,0,0,0,0,0H3.3V4.1l0,0V4
				C3.4,4,3.5,3.9,3.6,3.9"/>
		</g>
		<g id="그룹_615" transform="translate(3.596 43.683)">
			<path id="패스_3286" class="st1" d="M6.1,6.4C5.9,5.9,5.5,5.5,5.1,5.1c0.5,0.3,1,0.5,1.5,0.6c1,0,1.8-0.9,1.7-1.9
				C8.3,2.9,7.5,2.2,6.6,2.3c-0.1,0-0.1,0-0.2,0c-0.5,0.2-1,0.5-1.3,0.9c0.3-0.5,0.5-1,0.6-1.5c0-1-0.9-1.8-1.9-1.7
				C2.9,0.1,2.2,0.8,2.3,1.8c0,0.1,0,0.2,0.1,0.3C2.5,2.6,2.9,3,3.3,3.4c-0.5-0.3-1-0.5-1.5-0.6C0.8,2.8,0,3.7,0,4.7
				c0.1,0.9,0.9,1.6,1.8,1.5c0.1,0,0.1,0,0.2,0C2.5,6,2.9,5.7,3.3,5.2C3,5.7,2.8,6.2,2.7,6.8c0,1,0.9,1.8,1.9,1.7
				C5.5,8.3,6.2,7.4,6.1,6.4"/>
			<path id="패스_3287" class="st2" d="M3.8,4.1H3.7C3.7,4.1,3.6,4,3.6,4c0,0,0,0,0,0L3.5,3.8V3.7h0.1C3.8,4,3.8,4,3.8,4.1"/>
			<path id="패스_3288" class="st2" d="M4.3,4.4h0.1c0.1,0,0.1,0,0.1,0.1c0,0,0,0,0,0l0.1,0.1v0.1H4.5C4.4,4.5,4.4,4.4,4.3,4.4"/>
			<path id="패스_3289" class="st2" d="M4.3,4L4.3,4V3.8c0-0.1,0-0.1,0.1-0.1c0,0,0,0,0,0l0.1-0.1h0.1v0.1H4.5C4.4,4,4.3,4,4.3,4"
				/>
			<path id="패스_3290" class="st2" d="M4,4.4L4,4.4v0.1c0,0.1,0,0.1-0.1,0.1c0,0,0,0,0,0L3.7,4.8H3.6V4.7h0.1
				C3.8,4.5,3.8,4.4,4,4.4"/>
		</g>
		<g id="그룹_616" transform="translate(19.895 51.942)">
			<path id="패스_3291" class="st1" d="M5,5.8C4.9,5.4,4.7,4.9,4.4,4.6c0.3,0.3,0.7,0.6,1.2,0.8C6.4,5.5,7.2,5,7.3,4.2
				c0-0.1,0-0.2,0-0.3C7.4,3.1,6.8,2.4,6,2.3c-0.1,0-0.1,0-0.2,0C5.4,2.4,4.9,2.6,4.6,2.9c0.3-0.3,0.6-0.7,0.8-1.2
				C5.5,1,5,0.2,4.2,0C4.2,0,4.1,0,4,0C3.1-0.1,2.4,0.5,2.3,1.4c0,0.1,0,0.1,0,0.2C2.4,2,2.6,2.4,2.9,2.8C2.6,2.5,2.2,2.2,1.8,2
				C1,1.8,0.2,2.3,0,3.1c0,0.1,0,0.2,0,0.3C-0.1,4.2,0.5,4.9,1.4,5c0.1,0,0.1,0,0.2,0C2,4.9,2.4,4.7,2.8,4.4C2.5,4.8,2.2,5.2,2,5.6
				C1.8,6.4,2.3,7.2,3.1,7.3c0.1,0,0.2,0,0.3,0C4.2,7.5,4.9,6.9,5,6.1C5,6,5,5.9,5,5.8"/>
			<path id="패스_3292" class="st2" d="M3.5,3.5L3.5,3.5C3.4,3.4,3.4,3.4,3.3,3.4V3.3h0.1v0.1C3.5,3.4,3.5,3.4,3.5,3.5"/>
			<path id="패스_3293" class="st2" d="M3.9,3.9L3.9,3.9C3.9,3.9,4,4,4.1,4v0.1c0,0,0,0.1-0.1,0H3.9V3.9"/>
			<path id="패스_3294" class="st2" d="M3.9,3.5L3.9,3.5C3.9,3.4,4,3.4,4,3.3h0.1v0.1H4C4,3.5,4,3.5,3.9,3.5"/>
			<path id="패스_3295" class="st2" d="M3.5,3.9L3.5,3.9C3.4,4,3.4,4,3.4,4.1H3.3c0,0-0.1,0,0-0.1V3.9H3.5"/>
		</g>
		<g id="그룹_617" transform="translate(16.1 7.718)">
			<path id="패스_3296" class="st1" d="M3.2,7.4C3.6,7,3.9,6.4,4,5.8c0,0.6,0,1.3,0.2,1.9C4.8,8.6,6,8.9,7,8.4c0,0,0,0,0.1,0
				C8,7.8,8.2,6.6,7.6,5.7C7.6,5.6,7.5,5.5,7.4,5.4C7,5,6.4,4.8,5.8,4.6c0.6,0,1.3,0,1.9-0.2c1-0.5,1.3-1.8,0.7-2.7c0,0,0,0,0-0.1
				C7.8,0.7,6.6,0.5,5.7,1.1C5.6,1.1,5.5,1.2,5.4,1.2C5,1.7,4.8,2.3,4.6,2.9c0-0.6,0-1.3-0.2-1.9C3.8,0,2.6-0.3,1.7,0.3
				c0,0,0,0-0.1,0C0.7,0.9,0.5,2.1,1.1,3c0.1,0.1,0.1,0.2,0.2,0.2c0.5,0.4,1,0.7,1.6,0.8C2.2,4,1.6,4.1,1,4.3C0.1,4.8-0.3,6,0.3,7
				c0,0,0,0,0,0.1C1,8,2.2,8.2,3.2,7.4C3.2,7.5,3.2,7.4,3.2,7.4"/>
			<path id="패스_3297" class="st2" d="M4.4,3.9L4.4,3.9V3.6c0-0.1,0-0.1,0.1-0.1c0,0,0,0,0,0h0.1v0.3C4.5,3.8,4.5,3.9,4.4,3.9"/>
			<path id="패스_3298" class="st2" d="M4.3,4.6L4.3,4.6V5c0,0.1,0,0.1-0.1,0.1c0,0,0,0,0,0H4V4.7C4.1,4.7,4.2,4.7,4.3,4.6"/>
			<path id="패스_3299" class="st2" d="M4.6,4.4h0.5v0.1H4.7C4.7,4.4,4.7,4.4,4.6,4.4"/>
			<path id="패스_3300" class="st2" d="M4,4.3H3.6V4.2h0.2C3.9,4.2,3.9,4.2,4,4.3"/>
		</g>
		<g id="그룹_618" transform="translate(0 9.211)">
			<path id="패스_3301" class="st1" d="M2.8,7.4c0.5-0.3,1-0.8,1.3-1.4C3.8,6.6,3.7,7.3,3.8,7.9C4.1,9,5.2,9.6,6.2,9.4
				c0.1,0,0.1,0,0.2-0.1C7.4,9,7.9,7.9,7.6,7c0-0.1-0.1-0.2-0.1-0.3C7.1,6.1,6.6,5.6,6,5.3c0.6,0.2,1.2,0.3,1.9,0.2
				C9,5.3,9.6,4.3,9.4,3.2c0-0.1,0-0.1-0.1-0.2C9,2,7.9,1.5,7,1.8C6.8,1.9,6.7,1.9,6.6,2c-0.5,0.3-1,0.8-1.3,1.4
				c0.2-0.6,0.3-1.2,0.2-1.9C5.3,0.4,4.3-0.2,3.2,0c-0.1,0-0.1,0-0.2,0.1C2,0.4,1.5,1.5,1.8,2.4c0,0.1,0.1,0.2,0.1,0.3
				c0.3,0.5,0.8,1,1.4,1.3C2.8,3.8,2.1,3.7,1.5,3.8C0.4,4.1-0.2,5.2,0,6.2c0,0.1,0,0.1,0.1,0.2C0.5,7.4,1.7,7.9,2.8,7.4
				C2.8,7.4,2.8,7.4,2.8,7.4"/>
			<path id="패스_3302" class="st2" d="M4.9,4.4L4.9,4.4V4.2c0-0.1,0-0.1,0.1-0.1c0,0,0,0,0,0h0.1v0.1l0,0v0.1
				C5,4.3,4.9,4.3,4.9,4.4"/>
			<path id="패스_3303" class="st2" d="M4.5,5L4.5,5v0.3c0,0.1,0,0.1-0.1,0.1c0,0,0,0,0,0H4.3V5.3l0,0V5.2L4.5,5"/>
			<path id="패스_3304" class="st2" d="M5,4.8h0.3c0.1,0,0.1,0,0.1,0.1c0,0,0,0,0,0V5H5.2L5,4.8"/>
			<path id="패스_3305" class="st2" d="M4.4,4.5H4.1c-0.1,0-0.1,0-0.1-0.1c0,0,0,0,0,0V4.3h0.2L4.4,4.5"/>
		</g>
		<g id="그룹_619" transform="translate(1.67 20.435)">
			<path id="패스_3306" class="st1" d="M2.5,5.7C2.8,5.2,2.9,4.8,3,4.3c0,0.5,0.1,1,0.3,1.4c0.4,0.7,1.3,0.8,2,0.4
				c0.1,0,0.1-0.1,0.2-0.2c0.6-0.6,0.6-1.5,0.1-2.1c0,0,0,0-0.1-0.1C5.2,3.4,4.7,3.3,4.3,3.2c0.5,0,1-0.1,1.4-0.3
				c0.7-0.4,0.8-1.3,0.4-2C6,0.8,6,0.7,5.9,0.6C5.3,0,4.4,0,3.7,0.6c0,0,0,0-0.1,0.1C3.4,1.1,3.2,1.5,3.2,2c0-0.5-0.1-1-0.3-1.4
				C2.4,0,1.5-0.2,0.9,0.2c-0.1,0-0.1,0.1-0.2,0.2C0,1,0,1.9,0.6,2.6c0,0,0,0,0.1,0.1C1.1,2.9,1.5,3.1,2,3.1c-0.5,0-1,0.1-1.4,0.3
				C0,3.9-0.2,4.8,0.2,5.4c0,0.1,0.1,0.1,0.2,0.2c0.4,0.6,1.3,0.7,1.8,0.3C2.3,5.8,2.4,5.8,2.5,5.7"/>
			<path id="패스_3307" class="st2" d="M3.1,2.9L3.1,2.9C3.1,2.8,3,2.7,3,2.6V2.5h0.1v0.1l0,0V2.9"/>
			<path id="패스_3308" class="st2" d="M3.1,3.4L3.1,3.4v0.3H3V3.7l0,0V3.6C3,3.5,3,3.4,3.1,3.4C3.1,3.4,3.1,3.4,3.1,3.4"/>
			<path id="패스_3309" class="st2" d="M3.3,3.2h0.3v0.1H3.4C3.4,3.3,3.4,3.2,3.3,3.2C3.3,3.2,3.3,3.2,3.3,3.2"/>
			<path id="패스_3310" class="st2" d="M2.9,3.2L2.9,3.2c-0.1,0-0.2,0.1-0.2,0.1H2.5V3.2h0.2C2.7,3.1,2.7,3.1,2.9,3.2"/>
		</g>
	</g>
	<g id="그룹_634" transform="translate(0.014 68.633)">
		<g id="그룹_623" transform="translate(0.539 6.283)">
			<g id="그룹_622" transform="translate(4.523)">
				<path id="패스_3316" class="st0" d="M5.9,81.4L5.9,81.4c-0.2-0.1-0.4-0.2-0.4-0.5c0.1-0.4,10-31.7,0.1-69.4
					c0-0.2,0.1-0.4,0.2-0.5c0.2,0,0.4,0.1,0.5,0.2c5.9,22.9,5.9,46.9-0.1,69.8C6.1,81.3,6,81.4,5.9,81.4z"/>
				<path id="패스_3317" class="st0" d="M8.4,23.1c-0.1,0-0.2-0.1-0.2-0.1c-0.1-0.1,0-0.3,0.1-0.5l8.4-5.5c0.1-0.1,0.4,0,0.5,0.1
					s0,0.3-0.1,0.5L8.7,23C8.6,23.1,8.6,23.1,8.4,23.1z"/>
				<path id="패스_3318" class="st0" d="M6.1,11.9c-0.1,0-0.1,0-0.2-0.1l-5.7-4C0,7.7-0.1,7.5,0,7.3s0.3-0.2,0.5-0.1L6,11.1
					l8.2-5.2c0.1-0.1,0.4,0,0.5,0.1s0,0.3-0.1,0.5L6.1,11.9L6.1,11.9z"/>
				<path id="패스_3319" class="st0" d="M9.6,31.2H9.4L2.6,27c-0.1-0.1-0.2-0.3-0.1-0.5c0.1-0.2,0.4-0.2,0.6-0.1l6.8,4.2
					c0.1,0.1,0.2,0.3,0.1,0.5C9.9,31.2,9.7,31.2,9.6,31.2z"/>
				<path id="패스_3320" class="st0" d="M10.2,55c-0.1,0-0.2,0-0.2-0.1c-0.1-0.1,0-0.3,0.1-0.5l7.8-4.9c0.1-0.1,0.4,0,0.5,0.1
					s0,0.3-0.1,0.5L10.4,55H10.2z"/>
				<path id="패스_3321" class="st0" d="M10.4,47.4h-0.2l-6.1-4.1C4,43.2,3.9,43,4,42.9c0.1-0.1,0.3-0.2,0.5-0.1l6.1,4.1
					c0.1,0.1,0.2,0.3,0.1,0.5C10.7,47.4,10.5,47.4,10.4,47.4z"/>
				<path id="패스_3322" class="st0" d="M6.1,11.9c-0.2,0-0.3-0.2-0.4-0.3L4.4,0.3C4.3,0.2,4.5,0,4.6,0c0,0,0.1,0,0.1,0
					C4.9,0,5,0.1,5.1,0.3c0,0,0,0.1,0,0.1l1.4,11.2C6.4,11.7,6.3,11.9,6.1,11.9L6.1,11.9z"/>
				<path id="패스_3323" class="st0" d="M7.6,19.1L7.6,19.1l-6.9-1.4c-0.2,0-0.3-0.2-0.2-0.3c0-0.2,0.2-0.3,0.3-0.2l6.8,1.4
					c0.2,0,0.4,0.2,0.2,0.3C7.8,19,7.7,19.1,7.6,19.1z"/>
				<path id="패스_3324" class="st0" d="M9.6,31.1H9.5c-0.1-0.1-0.2-0.3-0.1-0.5l2.6-4.4c0.1-0.1,0.4-0.2,0.5-0.1s0.2,0.3,0.1,0.5
					L10,31C9.8,31,9.7,31.1,9.6,31.1z"/>
			</g>
			<path id="패스_3325" class="st0" d="M12.8,69C34.2,62.6,29,62,29,62c-6.8-0.1-13.4,4.7-16.1,6.5L12.8,69z"/>
			<path id="패스_3326" class="st0" d="M14.9,39.5c12.4-6.2,9.1-5.9,9.1-5.9c-4.1,0.7-7.7,4.2-9.1,5.6V39.5z"/>
			<path id="패스_3327" class="st0" d="M14,61.5c-13.5-10.7-9.6-9.7-9.6-9.7c4.9,1.9,8.3,7.1,9.7,9.2L14,61.5z"/>
			<path id="패스_3328" class="st0" d="M11.7,74.9C-1.1,58.7,0,63.1,0,63.1c2.7,7.1,9.2,11.2,11.7,12.5L11.7,74.9z"/>
		</g>
		<g id="그룹_624" transform="translate(5.003)">
			<path id="패스_3329" class="st1" d="M4.1,8.6c0.4-0.6,0.6-1.3,0.7-2c0,0.7,0.2,1.5,0.6,2.1c0.7,1,2.2,1.2,3.2,0.5
				c1-0.7,1.2-2.2,0.5-3.2C9,5.9,8.8,5.8,8.7,5.7C8.1,5.3,7.5,5.1,6.7,5c0.7,0,1.5-0.2,2.1-0.6c1-0.7,1.2-2.2,0.5-3.2
				C8.6,0.2,7.2,0,6.2,0.7C6,0.8,5.9,0.9,5.8,1C5.5,1.7,5.2,2.3,5.1,3c0-0.7-0.2-1.5-0.6-2.1c-0.7-1-2.2-1.2-3.2-0.5
				c-1,0.7-1.2,2.2-0.5,3.2C0.9,3.7,1,3.9,1.2,4C1.6,4.5,2.3,4.8,3,4.8C2.3,4.8,1.6,5,0.9,5.4c-1,0.8-1.2,2.2-0.5,3.2
				c0,0,0.1,0.1,0.1,0.1C1.6,9.6,3.1,9.6,4.1,8.6"/>
			<path id="패스_3330" class="st2" d="M4.8,4.5L4.8,4.5V4.1h0.1v0.3C4.9,4.3,4.9,4.4,4.8,4.5"/>
			<path id="패스_3331" class="st2" d="M4.8,5.2L4.8,5.2v0.5H4.7V5.4C4.7,5.5,4.8,5.4,4.8,5.2"/>
			<path id="패스_3332" class="st2" d="M5.2,4.9h0.1c0.1-0.1,0.1-0.1,0.2-0.1h0.1v0.1H5.4C5.4,5,5.2,4.9,5.2,4.9"/>
			<path id="패스_3333" class="st2" d="M4.4,4.9H4V4.8h0.4C4.3,4.8,4.4,4.9,4.4,4.9C4.4,4.9,4.4,4.9,4.4,4.9"/>
		</g>
		<g id="그룹_625" transform="translate(8.428 16.94)">
			<path id="패스_3334" class="st1" d="M2.6,5.7c0.3-0.4,0.4-0.9,0.5-1.4c0,0.5,0.1,1,0.4,1.4c0.4,0.7,1.3,0.8,2,0.4
				c0.1,0,0.1-0.1,0.2-0.2c0.6-0.6,0.6-1.5,0.1-2.1c0,0,0,0-0.1-0.1C5.2,3.4,4.8,3.2,4.3,3.2c0.5,0,1-0.1,1.4-0.3
				c0.7-0.4,0.8-1.3,0.4-2C6,0.8,6,0.7,5.9,0.6C5.3,0,4.4,0,3.7,0.6c0,0,0,0-0.1,0.1C3.4,1.1,3.2,1.5,3.2,2c0-0.5-0.1-1-0.4-1.4
				C2.4,0,1.5-0.2,0.9,0.2c-0.1,0-0.1,0.1-0.2,0.2C0,1,0,1.9,0.6,2.6c0,0,0,0,0.1,0.1C1.1,2.8,1.6,3,2,3.1c-0.5,0-1,0.1-1.4,0.3
				C0,3.9-0.2,4.8,0.2,5.4c0,0.1,0.1,0.1,0.2,0.2C1,6.3,1.9,6.3,2.6,5.7C2.6,5.7,2.6,5.7,2.6,5.7"/>
			<path id="패스_3335" class="st2" d="M3.2,2.9L3.2,2.9V2.5h0.1v0.1l0,0v0.1C3.2,2.7,3.2,2.7,3.2,2.9"/>
			<path id="패스_3336" class="st2" d="M3.2,3.3L3.2,3.3v0.3H3.1V3.6l0,0V3.4C3.2,3.4,3.2,3.4,3.2,3.3C3.2,3.3,3.2,3.3,3.2,3.3"/>
			<path id="패스_3337" class="st2" d="M3.4,3.1L3.4,3.1c0.1,0,0.2,0,0.2-0.1h0.1v0.1H3.6C3.6,3.2,3.6,3.1,3.4,3.1"/>
			<path id="패스_3338" class="st2" d="M3,3.1H2.6V3h0.2C2.9,3.1,2.9,3.1,3,3.1"/>
		</g>
		<g id="그룹_626" transform="translate(16.053 18.507)">
			<path id="패스_3339" class="st1" d="M6.8,7.2C6.6,6.7,6.3,6.1,5.8,5.7c0.5,0.4,1,0.6,1.6,0.7c1,0.1,1.9-0.7,2-1.7
				c0-0.1,0-0.2,0-0.3c0-1-0.8-1.8-1.8-1.8c-0.1,0-0.3,0-0.4,0C6.7,2.9,6.1,3.2,5.7,3.6c0.4-0.5,0.6-1,0.7-1.6c0.1-1-0.7-1.9-1.7-2
				C4.6,0,4.5,0,4.4,0c-1,0-1.8,0.8-1.8,1.8c0,0.1,0,0.3,0,0.4c0.2,0.6,0.5,1.1,0.9,1.5C3.2,3.4,2.6,3.1,2,3C1,3,0.1,3.7,0,4.7
				C0,4.8,0,4.9,0,5c0,1,0.8,1.8,1.8,1.8c0.1,0,0.3,0,0.4,0c0.6-0.2,1.1-0.5,1.5-0.9C3.4,6.3,3.1,6.9,3,7.5c-0.1,1,0.7,1.9,1.7,2
				c0.1,0,0.2,0,0.3,0c1,0,1.8-0.9,1.8-1.9C6.8,7.4,6.8,7.3,6.8,7.2"/>
			<path id="패스_3340" class="st2" d="M4.6,4.6H4.4c-0.1,0-0.1,0-0.1-0.1c0,0,0,0,0,0L4.2,4.3c0-0.1,0-0.1,0.1-0.1c0,0,0,0,0,0
				h0.1v0.1C4.4,4.4,4.6,4.4,4.6,4.6"/>
			<path id="패스_3341" class="st2" d="M5,5h0.1c0.1,0,0.1,0,0.1,0.1c0,0,0,0,0,0l0.1,0.1c0,0.1,0,0.1-0.1,0.1c0,0,0,0,0,0H5.1
				V5.3C5.1,5.2,5.1,5.1,5,5"/>
			<path id="패스_3342" class="st2" d="M5,4.6L5,4.6V4.4c0-0.1,0-0.1,0.1-0.1c0,0,0,0,0,0l0.1-0.1c0.1,0,0.1,0,0.1,0.1
				c0,0,0,0,0,0v0.1H5.3C5.1,4.4,5,4.4,5,4.6"/>
			<path id="패스_3343" class="st2" d="M4.6,5L4.6,5v0.1c0,0.1,0,0.1-0.1,0.1c0,0,0,0,0,0L4.3,5.4c-0.1,0-0.1,0-0.1-0.1
				c0,0,0,0,0,0V5.1h0.1C4.4,5.1,4.5,5,4.6,5"/>
		</g>
		<g id="그룹_627" transform="translate(3.77 28.826)">
			<path id="패스_3344" class="st1" d="M5.8,5.2c-0.2-0.5-0.6-0.8-1-1c0.4,0.2,0.9,0.3,1.4,0.2c0.8-0.1,1.3-0.9,1.2-1.7
				c0,0,0-0.1,0-0.1c-0.3-0.8-1.1-1.3-2-1c0,0-0.1,0-0.1,0.1c-0.5,0.2-0.8,0.6-1,1c0.2-0.4,0.3-0.9,0.2-1.4C4.2,0.4,3.5-0.1,2.7,0
				S1.3,0.9,1.5,1.7c0,0.1,0,0.2,0.1,0.3c0.2,0.5,0.6,0.8,1,1C2.2,2.9,1.7,2.8,1.2,2.9C0.4,3-0.1,3.8,0,4.6c0.1,0.8,0.9,1.3,1.7,1.2
				c0.1,0,0.2,0,0.3-0.1C2.5,5.5,3,5.2,3.2,4.7C3,5.2,2.9,5.6,3,6.1c0.1,0.8,0.9,1.3,1.7,1.2c0,0,0.1,0,0.1,0c0.8-0.2,1.3-1.1,1-1.9
				C5.8,5.3,5.8,5.3,5.8,5.2"/>
			<path id="패스_3345" class="st2" d="M3.6,3.6H3.3c-0.1,0-0.1,0-0.1-0.1c0,0,0,0,0,0V3.3h0.1C3.4,3.4,3.6,3.4,3.6,3.6"/>
			<path id="패스_3346" class="st2" d="M4,3.8h0.2l0.1,0.1V4H4.3L4,3.8"/>
			<path id="패스_3347" class="st2" d="M3.9,3.4L3.9,3.4V3.2c0-0.1,0-0.1,0.1-0.1c0,0,0,0,0,0h0.1v0.1l0,0C4,3.3,3.9,3.3,3.9,3.4"
				/>
			<path id="패스_3348" class="st2" d="M3.7,3.9L3.7,3.9v0.2c0,0.1,0,0.1-0.1,0.1c0,0,0,0,0,0H3.4V4.1l0,0V4
				C3.6,3.9,3.6,3.9,3.7,3.9"/>
		</g>
		<g id="그룹_628" transform="translate(3.363 43.683)">
			<path id="패스_3349" class="st1" d="M6.2,6.4C6,5.9,5.7,5.5,5.2,5.1c0.5,0.3,1,0.5,1.5,0.6c1,0,1.8-0.9,1.7-1.9
				C8.4,2.9,7.6,2.2,6.7,2.3c-0.1,0-0.1,0-0.2,0C6,2.5,5.6,2.8,5.2,3.3c0.3-0.5,0.5-1,0.6-1.5C5.8,0.8,5,0,4,0
				C3,0.1,2.3,0.9,2.4,1.9c0,0.1,0,0.2,0,0.2C2.6,2.6,2.9,3,3.3,3.4c-0.5-0.3-1-0.5-1.5-0.6C0.8,2.8,0,3.7,0,4.7
				c0.1,0.9,0.9,1.6,1.8,1.5c0.1,0,0.1,0,0.2,0C2.5,6,2.9,5.7,3.3,5.2C3,5.7,2.8,6.2,2.7,6.8c0,1,0.9,1.8,1.9,1.7
				C5.7,8.3,6.4,7.5,6.2,6.4"/>
			<path id="패스_3350" class="st2" d="M4.1,4H4c-0.1,0-0.1,0-0.1-0.1c0,0,0,0,0,0L3.7,3.7V3.6h0.1v0.1C4.1,3.8,4.1,4,4.1,4"/>
			<path id="패스_3351" class="st2" d="M4.5,4.4h0.1c0.1,0,0.1,0,0.1,0.1c0,0,0,0,0,0l0.1,0.1v0.1H4.8V4.7
				C4.5,4.5,4.5,4.4,4.5,4.4"/>
			<path id="패스_3352" class="st2" d="M4.5,4L4.5,4V3.8c0-0.1,0-0.1,0.1-0.1c0,0,0,0,0,0l0.1-0.1h0.1v0.1H4.8C4.7,4,4.5,4,4.5,4"
				/>
			<path id="패스_3353" class="st2" d="M4.1,4.4L4.1,4.4v0.1c0,0.1,0,0.1-0.1,0.1c0,0,0,0,0,0c-0.1,0-0.1,0-0.1,0.1c0,0,0,0,0,0
				H3.7V4.7h0.1L4.1,4.4"/>
		</g>
		<g id="그룹_629" transform="translate(19.778 51.942)">
			<path id="패스_3354" class="st1" d="M5.1,5.8C5,5.4,4.8,4.9,4.6,4.6c0.3,0.3,0.7,0.6,1.2,0.8C6.5,5.5,7.3,5,7.4,4.2
				c0-0.1,0-0.2,0-0.3c0.1-0.8-0.5-1.6-1.4-1.6c-0.1,0-0.1,0-0.2,0C5.5,2.4,5,2.6,4.7,2.9C5,2.6,5.3,2.2,5.4,1.8C5.5,1,5,0.2,4.2,0
				C4.2,0,4.1,0,4,0C3.1-0.1,2.4,0.5,2.3,1.4c0,0.1,0,0.1,0,0.2C2.4,2,2.6,2.4,2.9,2.8C2.6,2.5,2.2,2.2,1.8,2C1,1.8,0.2,2.3,0,3.1
				c0,0.1,0,0.2,0,0.3C-0.1,4.2,0.5,4.9,1.4,5c0.1,0,0.1,0,0.2,0C2,4.9,2.4,4.7,2.8,4.4C2.5,4.7,2.2,5.1,2.1,5.6
				C1.9,6.4,2.5,7.2,3.2,7.3c0.1,0,0.2,0,0.3,0C4.3,7.5,5,6.9,5.1,6.1C5.1,6,5.1,5.9,5.1,5.8"/>
			<path id="패스_3355" class="st2" d="M3.6,3.5L3.6,3.5C3.5,3.5,3.5,3.4,3.6,3.5C3.6,3.4,3.5,3.4,3.4,3.4V3.3h0.1v0.1
				C3.6,3.4,3.6,3.4,3.6,3.5C3.6,3.5,3.6,3.5,3.6,3.5"/>
			<path id="패스_3356" class="st2" d="M4,3.9L4,3.9C4,3.9,4.1,4,4.2,4v0.1c0,0,0,0.1-0.1,0H4V3.9"/>
			<path id="패스_3357" class="st2" d="M4,3.5L4,3.5C4,3.4,4.1,3.4,4.1,3.3h0.2v0.1H4.2C4.1,3.5,4.1,3.5,4,3.5"/>
			<path id="패스_3358" class="st2" d="M3.5,3.9L3.5,3.9C3.4,3.9,3.4,4,3.4,4.1H3.3c0,0-0.1,0,0-0.1V3.9H3.5"/>
		</g>
		<g id="그룹_630" transform="translate(15.984 7.718)">
			<path id="패스_3359" class="st1" d="M3.2,7.4C3.6,7,3.9,6.4,4,5.8c0,0.6,0,1.3,0.2,1.9C4.8,8.6,6,8.9,7,8.4c0,0,0,0,0.1,0
				C8,7.8,8.2,6.6,7.6,5.7C7.6,5.6,7.5,5.5,7.4,5.4C7,5,6.4,4.8,5.8,4.6c0.6,0,1.3,0,1.9-0.2c1-0.5,1.3-1.8,0.7-2.7c0,0,0,0,0-0.1
				C7.8,0.7,6.6,0.5,5.7,1.1C5.6,1.1,5.5,1.2,5.4,1.2C5,1.7,4.8,2.3,4.6,2.9c0-0.6,0-1.3-0.2-1.9C3.8,0,2.6-0.3,1.7,0.3
				c0,0,0,0-0.1,0C0.7,0.9,0.5,2.1,1.1,3c0.1,0.1,0.1,0.2,0.2,0.2c0.5,0.4,1,0.7,1.6,0.8C2.2,4,1.6,4.1,1,4.3C0.1,4.8-0.3,6,0.3,7
				c0,0,0,0,0,0.1C1,8,2.3,8.1,3.2,7.4C3.2,7.4,3.2,7.4,3.2,7.4"/>
			<path id="패스_3360" class="st2" d="M4.5,3.9L4.5,3.9V3.6c0-0.1,0-0.1,0.1-0.1c0,0,0,0,0,0h0.1v0.3C4.5,3.8,4.5,3.9,4.5,3.9"/>
			<path id="패스_3361" class="st2" d="M4.4,4.6L4.4,4.6V5c0,0.1,0,0.1-0.1,0.1c0,0,0,0,0,0H4.2V4.7C4.3,4.7,4.3,4.6,4.4,4.6"/>
			<path id="패스_3362" class="st2" d="M4.7,4.3h0.5v0.1H4.9C4.8,4.4,4.7,4.3,4.7,4.3C4.7,4.3,4.7,4.3,4.7,4.3"/>
			<path id="패스_3363" class="st2" d="M4,4.2H3.6V4h0.4C3.9,4.1,4,4.2,4,4.2C4,4.2,4,4.2,4,4.2"/>
		</g>
		<g id="그룹_631" transform="translate(0 9.211)">
			<path id="패스_3364" class="st1" d="M2.8,7.3C3.2,7.2,3.7,6.5,4.1,6C3.8,6.6,3.7,7.3,3.8,7.9C4.1,9,5.2,9.6,6.2,9.4
				c0.1,0,0.1,0,0.2-0.1C7.4,9,7.9,7.9,7.6,7c0-0.1-0.1-0.2-0.1-0.3C7.1,6.1,6.6,5.6,6,5.3c0.6,0.2,1.2,0.3,1.9,0.2
				C9,5.3,9.6,4.3,9.4,3.2c0-0.1,0-0.1-0.1-0.2C9,2,7.9,1.5,7,1.8C6.8,1.9,6.7,1.9,6.6,2c-0.5,0.3-1,0.8-1.3,1.4
				c0.2-0.6,0.3-1.2,0.2-1.9C5.3,0.4,4.3-0.2,3.2,0c-0.1,0-0.1,0-0.2,0.1C2,0.4,1.5,1.5,1.8,2.4c0,0.1,0.1,0.2,0.1,0.3
				c0.3,0.5,0.8,1,1.4,1.3C2.8,3.8,2.1,3.7,1.5,3.8C0.4,4.1-0.2,5.2,0,6.2c0,0.1,0,0.1,0.1,0.2c0.4,1,1.5,1.4,2.5,1
				C2.6,7.4,2.7,7.4,2.8,7.3"/>
			<path id="패스_3365" class="st2" d="M4.8,4.4L4.8,4.4V4.2c0-0.1,0-0.1,0.1-0.1c0,0,0,0,0,0H5v0.1l0,0v0.1
				C4.9,4.3,4.9,4.3,4.8,4.4"/>
			<path id="패스_3366" class="st2" d="M4.5,5L4.5,5v0.3c0,0.1,0,0.1-0.1,0.1c0,0,0,0,0,0H4.3V5.3l0,0V5.2L4.5,5"/>
			<path id="패스_3367" class="st2" d="M5,4.8h0.3c0.1,0,0.1,0,0.1,0.1c0,0,0,0,0,0V5H5.2C5.1,4.9,5,4.9,5,4.8"/>
			<path id="패스_3368" class="st2" d="M4.4,4.5H4.2c-0.1,0-0.1,0-0.1-0.1c0,0,0,0,0,0V4.3h0.2C4.3,4.4,4.3,4.4,4.4,4.5"/>
		</g>
		<g id="그룹_632" transform="translate(1.553 20.435)">
			<path id="패스_3369" class="st1" d="M2.6,5.7c0.3-0.4,0.4-0.9,0.5-1.4c0,0.5,0.1,1,0.3,1.4c0.4,0.7,1.3,0.8,2,0.4
				c0.1,0,0.1-0.1,0.2-0.2c0.6-0.6,0.6-1.5,0.1-2.1c0,0,0,0-0.1-0.1C5.2,3.4,4.8,3.2,4.3,3.2c0.5,0,1-0.1,1.4-0.3
				c0.7-0.4,0.8-1.3,0.4-2c0-0.1-0.1-0.1-0.2-0.2C5.3,0,4.4,0,3.7,0.6c0,0,0,0-0.1,0.1C3.4,1.1,3.2,1.5,3.2,2c0-0.5-0.1-1-0.3-1.4
				C2.4,0,1.5-0.2,0.8,0.2c-0.1,0-0.1,0.1-0.2,0.2C0,1,0,1.9,0.6,2.6c0,0,0,0,0.1,0.1C1.1,2.9,1.5,3.1,2,3.1c-0.5,0-1,0.1-1.4,0.3
				C0,3.9-0.2,4.8,0.2,5.4c0,0.1,0.1,0.1,0.2,0.2c0.5,0.6,1.4,0.7,2,0.2C2.5,5.8,2.6,5.7,2.6,5.7"/>
			<path id="패스_3370" class="st2" d="M3.1,2.9L3.1,2.9V2.5h0.1v0.1l0,0v0.1C3.2,2.8,3.2,2.9,3.1,2.9C3.1,2.9,3.1,2.9,3.1,2.9"/>
			<path id="패스_3371" class="st2" d="M3.1,3.4L3.1,3.4v0.3H3V3.7l0,0V3.6C3,3.6,3.1,3.5,3.1,3.4C3.1,3.4,3.1,3.4,3.1,3.4"/>
			<path id="패스_3372" class="st2" d="M3.4,3.2h0.3v0.1H3.6L3.4,3.2"/>
			<path id="패스_3373" class="st2" d="M2.9,3.1L2.9,3.1C2.9,3.2,2.7,3.2,2.9,3.1c-0.1,0-0.2,0-0.2,0.1H2.5V3.1H2.9"/>
		</g>
		<g id="그룹_633" transform="translate(13.603 28.524)">
			<path id="패스_3374" class="st1" d="M2,6C2.5,5.8,2.9,5.4,3.3,5C3,5.5,2.8,5.9,2.7,6.4c0,0.9,0.7,1.6,1.7,1.6
				c0.1,0,0.1,0,0.2,0C5.4,8,6.1,7.2,6,6.3c0-0.1,0-0.2,0-0.2C5.8,5.6,5.4,5.1,5,4.8c0.4,0.3,0.9,0.5,1.4,0.6c0.9,0,1.6-0.7,1.6-1.7
				c0-0.1,0-0.1,0-0.2C8,2.6,7.2,2,6.3,2.1c-0.1,0-0.2,0-0.2,0C5.6,2.3,5.1,2.6,4.8,3c0.3-0.4,0.5-0.9,0.6-1.4C5.4,0.7,4.6,0,3.7,0
				C3.6,0,3.6,0,3.5,0C2.6,0.1,2,0.9,2.1,1.7c0,0.1,0,0.2,0,0.2C2.3,2.5,2.6,2.9,3,3.3C2.6,3,2.1,2.8,1.6,2.7C0.7,2.7,0,3.4,0,4.3
				c0,0.1,0,0.1,0,0.2C0.1,5.4,0.9,6.1,1.7,6C1.8,6,1.9,6,2,6"/>
			<path id="패스_3375" class="st2" d="M4.3,3.9L4.3,3.9V3.7c0.1-0.1,0.2-0.2,0.2-0.2h0.1v0.1l0,0C4.5,3.7,4.4,3.8,4.3,3.9"/>
			<path id="패스_3376" class="st2" d="M4,4.3L4,4.3v0.1c0,0.1,0,0.1-0.1,0.1c0,0,0,0,0,0L3.7,4.7H3.6V4.6h0.1
				C3.9,4.3,3.9,4.3,4,4.3"/>
			<path id="패스_3377" class="st2" d="M4.3,4.2h0.1c0.1,0.1,0.2,0.2,0.2,0.2v0.1H4.6C4.4,4.3,4.3,4.3,4.3,4.2"/>
			<path id="패스_3378" class="st2" d="M3.9,3.9H3.7C3.7,3.8,3.6,3.7,3.5,3.6V3.5h0.1v0.1C3.9,3.7,3.9,3.9,3.9,3.9"/>
		</g>
	</g>
	<g id="그룹_635" transform="translate(154.84 14.564)">
		<path id="패스_3379" class="st0" d="M3.6,0c0,0,9.7,0,14.3,33.2c0,0,0.4,4.3,4.2,3.6c1.2-0.1,2.3,0.7,2.6,1.9
			c0.6,2.6-2.6,3.1-4.4,3.1c-0.5,0-1.1,0-1.6-0.1c-5.9-1-6.3-7.3-7.2-12.1C10.1,23.9,9.7,18.1,7,12.8C5.4,9.7,2.7,7.6,0,5L3.6,0z"/>
	</g>
	<g id="그룹_636" transform="translate(169.054 122.681)">
		<path id="패스_3380" class="st3" d="M6.6,13.6L6.6,13.6c-0.6,0-1.2-0.5-1.2-1.2V4.7c0-0.8,0-1.9-0.5-2.2C4.4,2.1,3.7,2,3,2.2
			L1.2,2.3C0.6,2.4,0,1.9,0,1.3c0-0.6,0.4-1.1,1-1.2L2.9,0c0.9,0,2.6-0.1,3.6,0.8c1.2,1,1.2,2.7,1.2,3.8v7.8
			C7.7,13.1,7.3,13.6,6.6,13.6C6.7,13.6,6.7,13.6,6.6,13.6z"/>
	</g>
	<g id="그룹_637" transform="translate(169.054 119.54)">
		<path id="패스_3381" class="st3" d="M9.4,18.6c-0.6,0-1.2-0.5-1.2-1.2V6.3c0-0.5-0.1-1-0.2-1.5C7.4,3.3,6,2.4,4.4,2.3H1.2
			C0.5,2.3,0,1.8,0,1.2S0.5,0,1.2,0h3.3c2.5,0,4.7,1.5,5.7,3.8c0.2,0.8,0.4,1.5,0.5,2.3v11.2c0.1,0.6-0.4,1.2-1,1.3
			C9.6,18.6,9.5,18.6,9.4,18.6z"/>
	</g>
	<g id="그룹_638" transform="translate(169.987 116.627)">
		<path id="패스_3382" class="st3" d="M11.5,23.4c-0.6,0-1.2-0.5-1.2-1.2V8.7c-0.2-3.5-3-6.3-6.5-6.4H1.2C0.5,2.3,0,1.8,0,1.2
			S0.5,0,1.2,0h2.9c4.6,0.3,8.3,3.9,8.6,8.5v13.7C12.7,22.9,12.2,23.4,11.5,23.4z"/>
	</g>
	<path id="패스_3383" class="st4" d="M128.9,102.9c0,0-1.4,15.5,10.1,27.3l2.2,19.5h4.5l2.9-18.2l7.7-0.2l4.3,20.2h4.2l2.8-23.2
		c0,0,8.9-3.5,6.1-20.7l-5.5-52.1c0,0-3.7-32.2-11.7-35.4c0,0,9.4-9,2.3-19.9c-4.8,2.9-8.2,7.6-9.4,13c0,0-0.8,0.4-7.1,0h-2.1
		c0,0-1.8-7.1-10.5-10.5c-1.5,5.5-0.2,11.4,3.5,15.7c-0.2-0.4-8.2,6.4-8.4,6.6c-7.3,6.3-10.8,11.2-15.8,18.6
		c-1.2,1.7-1.5,3.8-0.9,5.8c0.5,2,2.9,4.7,4.4,6.1c1.9,1.9,4.5,3,7.2,2.9c5.1,0,11-0.6,15.6-2.9c-0.2,0.1,0,0.1-0.6,4L128.9,102.9z"
		/>
	<path id="패스_3384" class="st5" d="M116,70.5l3.4,2.4l-2.3,5.7l-4-4.8c0.6-1.4,1.6-2.6,2.8-3.6"/>
	<path id="패스_3385" class="st5" d="M161.9,107.8l5.2,1.2l-0.9,4.4l-4.4-0.2L161.9,107.8z"/>
	<path id="패스_3386" class="st5" d="M156.7,157.6h9.2l-0.9-7l-4.4-0.2L156.7,157.6z"/>
	<g id="그룹_641" transform="translate(161.831 111.501)">
		<g>
			<defs>
				<path id="SVGID_1_" d="M0,1.6L0,1.6L0,1.6z"/>
			</defs>
			<clipPath id="SVGID_2_">
				<use xlink:href="#SVGID_1_"  style="overflow:visible;"/>
			</clipPath>
			<g id="그룹_640" class="st6">
				<g>
					<defs>
						<rect id="SVGID_3_" x="-0.2" y="-0.2" width="0.5" height="2.1"/>
					</defs>
					<clipPath id="SVGID_4_">
						<use xlink:href="#SVGID_3_"  style="overflow:visible;"/>
					</clipPath>
					<g id="그룹_639" transform="translate(-0.233 -0.233)" class="st7">
						<rect id="사각형_259" x="0.1" y="0" class="st8" width="0.5" height="2.1"/>
					</g>
				</g>
			</g>
		</g>
	</g>
	<g id="그룹_644" transform="translate(166.375 108.937)">
		<path id="패스_3388" class="st9" d="M0,3.7L0.8,0H0.7L0,3.7z"/>
		<g>
			<defs>
				<polygon id="SVGID_5_" points="0,3.7 0.8,0 0.7,0 				"/>
			</defs>
			<clipPath id="SVGID_6_">
				<use xlink:href="#SVGID_5_"  style="overflow:visible;"/>
			</clipPath>
			<g id="그룹_643" class="st10">
				<rect id="사각형_261" x="-0.1" y="-0.1" class="st9" width="1" height="4.2"/>
				<g>
					<defs>
						<rect id="SVGID_7_" x="-0.1" y="-0.1" width="1" height="4.2"/>
					</defs>
					<clipPath id="SVGID_8_">
						<use xlink:href="#SVGID_7_"  style="overflow:visible;"/>
					</clipPath>
					<g id="그룹_642" transform="translate(-0.117 -0.117)" class="st11">
						<rect id="사각형_262" x="0" y="0" class="st8" width="1.1" height="4.1"/>
					</g>
				</g>
			</g>
		</g>
	</g>
	<path id="패스_3390" class="st5" d="M141.3,149.7l-3.3,5.8c0,0,5.8,0,8.9-0.4l-1-5.5"/>
	<g id="그룹_648" transform="translate(161.947 99.5)">
		<g id="그룹_647">
			<path id="패스_3391" class="st2" d="M0,8.2L0.1,0c1,1.4,2.7,2,4.3,1.7c0.7-0.3,1.5-0.3,2.1,0.1L5.1,9.7L0,8.2z"/>
		</g>
	</g>
	<g id="그룹_650" transform="translate(140.393 141.211)">
		<g id="그룹_649">
			<path id="패스_3392" class="st2" d="M0,0l0.2,0.2c0.1,0.1,0.3,0.2,0.5,0.3C1.2,0.9,1.9,1,2.4,0.8l0.7-0.3
				c0.2-0.1,0.3-0.2,0.6-0.3C4,0,4.2,0,4.4,0H5c0.5,0,0.9,0.2,1.3,0.5l0.3,0.3c0,0.1,0.1,0.1,0.1,0.2l0.1,0.2L5.7,8.6H1.2L0,0"/>
		</g>
	</g>
	<g id="그룹_652" transform="translate(158.685 141.146)">
		<g id="그룹_651">
			<path id="패스_3393" class="st2" d="M0,1c0.5,0.6,1.4,0.8,2,0.3C2.1,1.2,2.2,1.1,2.3,1c0,0,1.3-1.7,2.3,0c0,0,1,1.2,1.7-0.6
				c0,0,0.6-0.9,0.9,0L6.2,9.6L1.7,9.5L0,1z"/>
		</g>
	</g>
	<path id="패스_3394" class="st2" d="M130.7,4.8c0,0-0.9,7.2,2.9,11.1C137.5,19.8,135.5,8.2,130.7,4.8z"/>
	<path id="패스_3395" class="st2" d="M158.9,2.8c0,0,2.8,7.2-1.5,13.2C153.7,21.2,153.9,7.7,158.9,2.8z"/>
	<g id="그룹_653" transform="translate(122.945 37.895)" class="st12">
		<path id="패스_3396" class="st2" d="M0.1,0.1"/>
	</g>
	<path id="패스_3397" class="st0" d="M110.4,48.4V48c0-0.2,0.1-0.5,0.3-0.6c0.2-0.1,0.4-0.2,0.6-0.2l0,0c0.5,0,0.8,0.5,0.8,0.9
		l0,0v0.3c0,0.2,0.1,0.5,0.3,0.5s0.5-0.1,0.5-0.3v-0.3l0,0v-0.1c0-0.9-0.7-1.7-1.6-1.9h-0.1c-0.5,0-0.9,0.1-1.3,0.5
		c-0.4,0.3-0.6,0.7-0.6,1.2v0.3c0,0.2,0.1,0.5,0.3,0.5C110,48.7,110.3,48.6,110.4,48.4"/>
	<path id="패스_3398" class="st5" d="M127.2,27.4v0.3c0,0.2-0.1,0.5-0.3,0.6c-0.2,0.1-0.4,0.2-0.6,0.2l0,0c-0.5,0-0.8-0.5-0.8-0.9
		l0,0v-0.4c0-0.2-0.1-0.5-0.3-0.5s-0.5,0.1-0.5,0.4v0.3l0,0v0.1c0,0.9,0.7,1.7,1.6,1.9h0.1c0.5,0,0.9-0.1,1.3-0.5
		c0.4-0.3,0.6-0.7,0.6-1.2v-0.4c0-0.2-0.1-0.5-0.3-0.5C127.5,26.9,127.2,27.1,127.2,27.4"/>
	<path id="패스_3399" class="st5" d="M138.6,33.4v0.3c0,0.2-0.1,0.5-0.4,0.6c-0.2,0.1-0.4,0.2-0.6,0.2l0,0c-0.5,0-0.8-0.5-0.8-0.9
		l0,0v-0.4c0-0.2-0.1-0.5-0.3-0.5s-0.5,0.1-0.5,0.3v0.4l0,0v0.1c0,0.9,0.7,1.7,1.6,1.9h0.1c0.5,0,0.9-0.1,1.3-0.5
		c0.4-0.3,0.6-0.7,0.6-1.2v-0.4c0-0.2-0.1-0.5-0.4-0.5C138.9,33,138.6,33.2,138.6,33.4"/>
	<path id="패스_3400" class="st0" d="M115.3,50l0.1-0.2l0,0c0.1-0.2,0.3-0.4,0.6-0.3c0.2,0,0.5,0,0.7,0.1l0,0
		c0.4,0.2,0.6,0.7,0.4,1.1c0,0,0,0,0,0.1l0,0l-0.1,0.2c-0.1,0.2-0.1,0.5,0.1,0.6s0.5,0.1,0.6-0.1l0.1-0.2l0,0c0-0.1,0-0.1,0.1-0.1
		c0,0,0,0,0,0c0.5-0.8,0.2-1.8-0.6-2.3h-0.1c-0.4-0.2-0.9-0.2-1.3-0.1c-0.5,0.1-0.8,0.4-1,0.8l0,0l-0.2,0.2
		c-0.1,0.2-0.1,0.5,0.1,0.6C114.9,50.3,115.2,50.2,115.3,50L115.3,50z"/>
	<g id="그룹_654" transform="translate(138.762 17.71)">
		<path id="패스_3401" class="st0" d="M1.2,6.5C0.5,6.5,0,6,0,5.4V4.5C0.1,1.9,0.9,0,4.5,0H8c0.6,0,1.2,0.5,1.2,1.2
			c0,0.6-0.5,1.2-1.2,1.2c0,0,0,0,0,0H4.5c-1.6,0-2,0.1-2.1,2.2v0.7C2.4,5.9,1.8,6.4,1.2,6.5z"/>
	</g>
	<g id="그룹_655" transform="translate(135.383 14.447)">
		<path id="패스_3402" class="st0" d="M1.2,8.5C0.5,8.5,0,8,0,7.3V6.5C0,3,2.8,0,6.4,0c0.1,0,0.2,0,0.2,0H13
			c0.6,0,1.2,0.5,1.2,1.2c0,0.6-0.5,1.2-1.2,1.2H6.8C4.5,2.2,2.6,4,2.5,6.2c0,0.1,0,0.2,0,0.3v0.6C2.5,7.8,2,8.4,1.3,8.5
			C1.3,8.5,1.2,8.5,1.2,8.5z"/>
	</g>
	<g id="그룹_656" transform="translate(132.237 11.418)">
		<path id="패스_3403" class="st0" d="M1.2,10.3C0.5,10.3,0,9.7,0,9.1V8.7C0,3.9,3.9,0,8.7,0c0,0,0,0,0,0h9.4
			c0.6,0,1.2,0.5,1.2,1.2s-0.5,1.2-1.2,1.2c0,0,0,0,0,0H8.7c-3.5,0-6.4,2.8-6.4,6.4c0,0,0,0,0,0v0.4c0,0.6-0.4,1.1-1,1.2
			C1.3,10.3,1.2,10.3,1.2,10.3z"/>
	</g>
	<g id="그룹_657" transform="translate(131.305 44.112)">
		<path id="패스_3404" class="st2" d="M1.3,60.7c-0.1,0-0.2,0-0.2-0.1c-0.2-0.2-0.3-0.5-0.3-0.8c0-0.2,0.1-0.3,0.3-0.5
			c0.2,0,0.3,0.1,0.5,0.3c0,0.2,0.1,0.3,0.2,0.5c0.1,0.1,0.1,0.3,0,0.5C1.4,60.6,1.4,60.7,1.3,60.7z"/>
		<path id="패스_3405" class="st2" d="M0.7,56.3c-0.1,0-0.3,0-0.3-0.1C0.2,56,0.1,55.7,0,55.4c0-0.2,0.1-0.3,0.3-0.5
			c0.2,0,0.3,0.1,0.5,0.3c0,0.2,0.1,0.3,0.2,0.5c0.1,0.1,0.1,0.3,0,0.4c0,0-0.1,0-0.1,0.1C0.9,56.3,0.8,56.3,0.7,56.3z"/>
		<path id="패스_3406" class="st2" d="M4.3,69.7c-0.1,0-0.2,0-0.2-0.1c-0.2-0.2-0.3-0.5-0.3-0.8c0-0.2,0.1-0.3,0.3-0.5
			c0.2,0,0.3,0.1,0.5,0.3c0,0.2,0.1,0.3,0.2,0.5c0.1,0.1,0.1,0.3,0,0.4c0,0-0.1,0-0.1,0.1C4.6,69.7,4.4,69.7,4.3,69.7z"/>
		<path id="패스_3407" class="st2" d="M6.2,73c-0.1,0-0.2,0-0.2-0.1c-0.2-0.2-0.3-0.5-0.3-0.8c0-0.2,0.1-0.3,0.3-0.5
			c0.2,0,0.3,0.1,0.5,0.3c0,0.2,0.1,0.3,0.2,0.5c0.1,0.1,0.1,0.3,0,0.5C6.3,73,6.3,73,6.2,73z"/>
		<path id="패스_3408" class="st2" d="M4.4,75.4c-0.1,0-0.3,0-0.3-0.1c-0.2-0.2-0.3-0.5-0.3-0.8c0-0.2,0.1-0.3,0.3-0.5
			c0.2,0,0.3,0.1,0.5,0.3c0,0.2,0.1,0.3,0.2,0.5c0.1,0.1,0.1,0.3,0,0.4c0,0-0.1,0-0.1,0.1C4.7,75.4,4.5,75.4,4.4,75.4z"/>
		<path id="패스_3409" class="st2" d="M3,72.4c-0.1,0-0.2,0-0.2-0.1c-0.2-0.2-0.3-0.5-0.3-0.8c0-0.2,0.1-0.3,0.3-0.5
			c0.2,0,0.3,0.1,0.5,0.3c0,0.2,0.1,0.3,0.2,0.5c0.1,0.1,0.1,0.3,0,0.5C3.1,72.4,3.1,72.4,3,72.4z"/>
		<path id="패스_3410" class="st2" d="M6.1,68.1c-0.1,0-0.3,0-0.3-0.1c-0.2-0.2-0.3-0.5-0.3-0.8c0-0.2,0.1-0.3,0.3-0.5
			c0.2,0,0.3,0.1,0.5,0.3c0,0.2,0.1,0.3,0.2,0.5c0.1,0.1,0.1,0.3,0,0.4c0,0-0.1,0-0.1,0.1C6.2,68,6.1,68.1,6.1,68.1z"/>
		<path id="패스_3411" class="st2" d="M0.8,67.7c-0.1,0-0.3,0-0.3-0.1c-0.2-0.2-0.3-0.5-0.3-0.8c0-0.2,0.2-0.4,0.3-0.4
			c0.2,0,0.4,0.2,0.4,0.3c0,0,0,0,0,0c0,0.2,0.1,0.3,0.2,0.5c0.1,0.1,0.1,0.3,0,0.4c0,0-0.1,0-0.1,0.1L0.8,67.7z"/>
		<path id="패스_3412" class="st2" d="M1,64c-0.1,0-0.3,0-0.3-0.1c-0.2-0.2-0.3-0.5-0.3-0.8c0-0.2,0.1-0.3,0.3-0.5
			c0.2,0,0.3,0.1,0.5,0.3c0,0.2,0.1,0.3,0.2,0.5c0.1,0.1,0.1,0.3,0,0.4c0,0-0.1,0-0.1,0.1C1.2,64,1.1,64,1,64z"/>
		<path id="패스_3413" class="st2" d="M3.5,58.8c-0.1,0-0.2,0-0.2-0.1c-0.2-0.2-0.3-0.5-0.3-0.8c0-0.2,0.1-0.3,0.3-0.5
			c0.2,0,0.3,0.1,0.5,0.3c0,0.2,0.1,0.3,0.2,0.5c0.1,0.1,0.1,0.3,0,0.5C3.6,58.8,3.6,58.8,3.5,58.8z"/>
		<path id="패스_3414" class="st2" d="M3.5,66c-0.1,0-0.2,0-0.2-0.1c-0.2-0.2-0.3-0.5-0.3-0.8c0-0.2,0.1-0.3,0.3-0.3
			c0,0,0.1,0,0.1,0c0.2,0,0.3,0.1,0.5,0.3c0,0.2,0.1,0.3,0.2,0.5c0.1,0.1,0.1,0.3,0,0.4c0,0-0.1,0-0.1,0.1L3.5,66z"/>
		<path id="패스_3415" class="st2" d="M32.2,81.6c-0.1,0-0.1,0-0.2-0.1s-0.2-0.3-0.1-0.5c0.1-0.1,0.2-0.3,0.2-0.5
			c0-0.2,0.2-0.3,0.5-0.3s0.4,0.2,0.4,0.5c-0.1,0.3-0.2,0.6-0.4,0.8C32.4,81.6,32.3,81.6,32.2,81.6z"/>
		<path id="패스_3416" class="st2" d="M31,78.7c-0.1,0-0.1,0-0.2-0.1s-0.2-0.3-0.1-0.5c0.1-0.1,0.2-0.3,0.2-0.5
			c0-0.2,0.2-0.4,0.3-0.4c0.2,0,0.4,0.2,0.4,0.3c0,0,0,0,0,0c-0.1,0.3-0.2,0.6-0.4,0.8C31.2,78.7,31.1,78.7,31,78.7z"/>
		<path id="패스_3417" class="st2" d="M37.1,75.8c-0.1,0-0.1,0-0.2-0.1s-0.2-0.3-0.1-0.5c0.1-0.1,0.2-0.3,0.2-0.5
			c0-0.2,0.2-0.3,0.5-0.3s0.4,0.2,0.4,0.5c-0.1,0.3-0.2,0.6-0.4,0.8C37.3,75.7,37.2,75.8,37.1,75.8z"/>
		<path id="패스_3418" class="st2" d="M35,79.6c-0.1,0-0.1,0-0.2-0.1s-0.2-0.3-0.1-0.5c0.1-0.1,0.2-0.3,0.2-0.5
			c0-0.2,0.2-0.3,0.5-0.3s0.4,0.2,0.4,0.5c-0.1,0.3-0.2,0.6-0.4,0.8C35.2,79.5,35.1,79.6,35,79.6z"/>
		<path id="패스_3419" class="st2" d="M34.3,77.2c-0.1,0-0.1,0-0.2-0.1s-0.2-0.3-0.1-0.5c0.1-0.1,0.2-0.3,0.2-0.5
			c0-0.2,0.2-0.3,0.5-0.3S35,76,35,76.2c-0.1,0.3-0.2,0.6-0.4,0.8C34.5,77.2,34.4,77.2,34.3,77.2z"/>
		<path id="패스_3420" class="st2" d="M37.5,78.7c-0.1,0-0.1,0-0.2-0.1s-0.2-0.3-0.1-0.5c0.1-0.1,0.2-0.3,0.2-0.5
			c0-0.2,0.2-0.3,0.5-0.3s0.4,0.2,0.4,0.5c-0.1,0.3-0.2,0.6-0.4,0.8C37.8,78.7,37.6,78.7,37.5,78.7z"/>
		<path id="패스_3421" class="st2" d="M34,83.1c-0.1,0-0.1,0-0.2-0.1s-0.2-0.3-0.1-0.5c0.1-0.1,0.2-0.3,0.2-0.5
			c0-0.2,0.2-0.3,0.5-0.3s0.4,0.2,0.4,0.5c-0.1,0.3-0.2,0.6-0.4,0.8C34.3,83.1,34.1,83.1,34,83.1z"/>
		<path id="패스_3422" class="st2" d="M34.5,20.7L34.5,20.7c-0.2,0-0.4-0.2-0.4-0.5c0-0.2,0-0.3-0.1-0.5c-0.1-0.2,0-0.3,0.2-0.5
			s0.4,0,0.5,0.2c0.2,0.3,0.2,0.6,0.1,0.9C34.8,20.6,34.6,20.7,34.5,20.7z"/>
		<path id="패스_3423" class="st2" d="M30.4,12.4L30.4,12.4c-0.2,0-0.4-0.2-0.4-0.5c0-0.2,0-0.3-0.1-0.5c-0.1-0.2,0-0.3,0.2-0.5
			s0.4,0,0.5,0.2c0.2,0.3,0.2,0.6,0.1,0.9C30.8,12.3,30.6,12.4,30.4,12.4z"/>
		<path id="패스_3424" class="st2" d="M34.3,12.4L34.3,12.4c-0.2,0-0.4-0.2-0.4-0.5c0-0.2,0-0.3-0.1-0.5c-0.1-0.2,0-0.3,0.2-0.5
			s0.4,0,0.5,0.2c0.2,0.3,0.2,0.6,0.1,0.9C34.6,12.3,34.5,12.4,34.3,12.4z"/>
		<path id="패스_3425" class="st2" d="M29.5,8.8L29.5,8.8c-0.2,0-0.4-0.2-0.4-0.5c0-0.2,0-0.3-0.1-0.5c-0.1-0.2,0-0.3,0.2-0.5
			s0.4,0,0.5,0.2c0.2,0.3,0.2,0.6,0.1,0.9C29.8,8.7,29.6,8.8,29.5,8.8z"/>
		<path id="패스_3426" class="st2" d="M33,4.2L33,4.2c-0.2,0-0.4-0.2-0.4-0.5c0-0.2,0-0.3-0.1-0.5c-0.1-0.2,0-0.3,0.2-0.5
			s0.4,0,0.5,0.2c0.2,0.3,0.2,0.6,0.1,0.9C33.3,4.1,33.2,4.2,33,4.2z"/>
		<path id="패스_3427" class="st2" d="M32.4,10.2L32.4,10.2c-0.2,0-0.4-0.2-0.4-0.5c0-0.2,0-0.3-0.1-0.5c-0.1-0.2,0-0.3,0.2-0.5
			s0.4,0,0.5,0.2c0.2,0.3,0.2,0.6,0.1,0.9C32.7,10.1,32.5,10.2,32.4,10.2z"/>
		<path id="패스_3428" class="st2" d="M31.2,1.4L31.2,1.4c-0.2,0-0.4-0.2-0.4-0.5c0-0.2,0-0.3-0.1-0.5c-0.1-0.2,0-0.3,0.2-0.5
			s0.4,0,0.5,0.2c0.2,0.3,0.2,0.6,0.1,0.9C31.6,1.3,31.3,1.4,31.2,1.4z"/>
		<path id="패스_3429" class="st2" d="M30.3,4.9L30.3,4.9c-0.2,0-0.4-0.2-0.4-0.5c0-0.2,0-0.3-0.1-0.5c-0.1-0.2,0-0.3,0.2-0.5
			s0.4,0,0.5,0.2c0.2,0.3,0.2,0.6,0.1,0.9C30.5,4.8,30.4,4.9,30.3,4.9z"/>
		<path id="패스_3430" class="st2" d="M32,6.9L32,6.9c-0.2,0-0.4-0.2-0.4-0.5c0-0.2,0-0.3-0.1-0.5c-0.1-0.2,0-0.3,0.2-0.5
			s0.4,0,0.5,0.2c0.2,0.3,0.2,0.6,0.1,0.9C32.4,6.8,32.3,6.9,32,6.9z"/>
		<path id="패스_3431" class="st2" d="M33.3,15.2L33.3,15.2c-0.2,0-0.4-0.2-0.4-0.5c0-0.2,0-0.3-0.1-0.5c-0.1-0.2,0-0.3,0.2-0.5
			s0.4,0,0.5,0.2c0.2,0.3,0.2,0.6,0.1,0.9C33.6,15.1,33.4,15.2,33.3,15.2z"/>
		<path id="패스_3432" class="st2" d="M32.2,18.8L32.2,18.8c-0.2,0-0.4-0.2-0.4-0.5c0-0.2,0-0.3-0.1-0.5c-0.1-0.2,0-0.3,0.2-0.5
			s0.4,0,0.5,0.2c0.1,0.3,0.1,0.6,0.1,0.9C32.5,18.7,32.4,18.8,32.2,18.8z"/>
		<path id="패스_3433" class="st2" d="M34.7,17.6L34.7,17.6c-0.2,0-0.4-0.2-0.4-0.5c0-0.2,0-0.3-0.1-0.5c-0.1-0.2,0-0.3,0.2-0.5
			s0.4,0,0.5,0.2c0.2,0.3,0.2,0.6,0.1,0.9C35.1,17.4,34.8,17.6,34.7,17.6z"/>
		<path id="패스_3434" class="st2" d="M30.3,16.2L30.3,16.2c-0.2,0-0.4-0.2-0.4-0.5c0-0.2,0-0.3-0.1-0.5c-0.1-0.2,0-0.3,0.2-0.5
			s0.4,0,0.5,0.2c0.2,0.3,0.2,0.6,0.1,0.9C30.6,16.1,30.5,16.2,30.3,16.2z"/>
	</g>
	<path id="패스_3435" class="st4" d="M119.4,72.9c0,0,10,7,16.1-2.6l3.1,10c0,0-9.6,10.6-21.6-1.7L119.4,72.9z"/>
	<path id="패스_3436" class="st2" d="M123.8,83.5c-2.6-1.2-4.8-2.8-6.8-4.9l2.3-5.7c1.9,1.2,4,2,6.2,2.3c-1.3,0.9-1.7,2.7-0.9,4.1
		c0,0,0.7,2-0.1,3L123.8,83.5z"/>
	<path id="패스_3437" class="st2" d="M122.2,39.7l0.2-0.2c0.9-0.9,4.1-3.8,3.3-6.9c0,0,3.6-0.6,9-5.2c0,0-4.9,4.5-2.9,7.3
		C128.2,35.6,125,37.3,122.2,39.7z"/>
	<g id="그룹_658" transform="translate(108.77 62.858)">
		<path id="패스_3438" class="st3" d="M6.6,8.2C6.4,8.2,6.3,8.1,6.3,8c0-0.4-0.1-0.9-0.3-1.3C5.8,5.9,4.5,3,0.2,1.3
			C0,1.3,0,1.1,0,1c0.1-0.1,0.2-0.2,0.3-0.1c0,0,0,0,0,0c2.8,0.9,5,2.9,6.2,5.6c0.2,0.8,0.3,1.4,0.3,1.4C6.9,8.1,6.8,8.2,6.6,8.2
			L6.6,8.2z"/>
		<path id="패스_3439" class="st3" d="M5.9,5.9c4.7-6.9,3-5.8,3-5.8c-2,1.5-2.8,4.5-3.1,5.7L5.9,5.9z"/>
	</g>
	<g id="그룹_659" transform="translate(104.392 59.487)">
		<path id="패스_3440" class="st1" d="M3.1,7.3c0.4-0.5,0.7-1,0.8-1.6C3.9,6.2,4,6.8,4.2,7.4c0.5,0.9,1.6,1.2,2.5,0.8
			C6.8,8.1,6.9,8,7,8c0.8-0.6,1-1.7,0.5-2.5C7.4,5.4,7.3,5.3,7.2,5.2c-0.5-0.4-1-0.7-1.6-0.8c0.6,0.1,1.2,0,1.7-0.2
			C8.3,3.6,8.6,2.4,8,1.4c0,0,0-0.1-0.1-0.1c-0.6-0.8-1.7-1-2.5-0.5C5.3,0.9,5.2,1,5.1,1.1c-0.4,0.5-0.7,1-0.8,1.6
			c0.1-0.6,0-1.2-0.2-1.7C3.6,0.1,2.4-0.3,1.5,0.2c-0.1,0-0.2,0.1-0.3,0.2C0.5,1,0.2,2.1,0.8,2.9C0.9,3,1,3.1,1,3.2
			c0.5,0.4,1,0.7,1.6,0.8C2.1,4,1.5,4,0.9,4.2C0,4.8-0.3,6,0.3,6.9c0,0,0,0.1,0.1,0.1C1,7.9,2.2,8,3,7.4C3,7.4,3.1,7.3,3.1,7.3"/>
		<path id="패스_3441" class="st2" d="M4.2,3.9L4.2,3.9V3.5c0-0.1,0-0.1,0.1-0.1c0,0,0,0,0,0h0.1v0.3C4.3,3.8,4.3,3.8,4.2,3.9"/>
		<path id="패스_3442" class="st2" d="M4.1,4.5L4.1,4.5v0.3c0,0.1,0,0.1-0.1,0.1c0,0,0,0,0,0H3.8V4.6C4.1,4.6,4.1,4.6,4.1,4.5"/>
		<path id="패스_3443" class="st2" d="M4.5,4.2H5v0.1H4.7L4.5,4.2"/>
		<path id="패스_3444" class="st2" d="M3.8,4.1H3.4V4h0.2C3.7,4,3.8,4.1,3.8,4.1"/>
	</g>
</g>
</svg>
