<svg xmlns="http://www.w3.org/2000/svg" viewBox="0 0 90 120">
  <defs>
    <style>
      .cls-1 {
        fill: #fff;
      }

      .cls-2 {
        fill: #898989;
      }
    </style>
  </defs>
  <g id="그룹_1639" data-name="그룹 1639" transform="translate(-1309 -530)">
    <rect id="사각형_702" data-name="사각형 702" class="cls-1" width="90" height="120" transform="translate(1309 530)"/>
    <g id="그룹_1363" data-name="그룹 1363" transform="translate(1338 552)">
      <g id="그룹_1360" data-name="그룹 1360" transform="translate(0.026 8.819)">
        <path id="패스_5325" data-name="패스 5325" class="cls-2" d="M15.558,29.447a1.111,1.111,0,0,1-.561-.14L.638,21.028a1.163,1.163,0,1,1,1.169-2.011l13.751,7.951,13.751-7.951a1.163,1.163,0,1,1,1.169,2.011L16.119,29.307A1.245,1.245,0,0,1,15.558,29.447Z" transform="translate(-0.056 -18.856)"/>
      </g>
      <g id="그룹_1361" data-name="그룹 1361" transform="translate(14.359 17.82)">
        <path id="패스_5326" data-name="패스 5326" class="cls-2" d="M31.869,54.47A1.158,1.158,0,0,1,30.7,53.3V39.269a1.169,1.169,0,1,1,2.339,0V53.3A1.158,1.158,0,0,1,31.869,54.47Z" transform="translate(-30.7 -38.1)"/>
      </g>
      <g id="그룹_1362" data-name="그룹 1362">
        <path id="패스_5327" data-name="패스 5327" class="cls-2" d="M15.528,35.5a1.111,1.111,0,0,1-.561-.14L.608,27.034A1.145,1.145,0,0,1,0,26.052V9.448A1.285,1.285,0,0,1,.561,8.419L14.92.14a1.288,1.288,0,0,1,1.169,0L30.449,8.419a1.162,1.162,0,0,1,.608,1.029V26.005a1.219,1.219,0,0,1-.608,1.029L16.09,35.313A.9.9,0,0,1,15.528,35.5ZM2.339,25.35l13.19,7.624,13.19-7.624V10.15L15.528,2.526,2.339,10.15Z"/>
      </g>
    </g>
  </g>
</svg>
