<svg xmlns="http://www.w3.org/2000/svg" xmlns:xlink="http://www.w3.org/1999/xlink" viewBox="0 0 173.115 60">
  <defs>
    <style>
      .cls-1 {
        fill: #fff;
      }

      .cls-2 {
        clip-path: url(#clip-path);
      }

      .cls-3 {
        fill: #d5c6f0;
        stroke: #707070;
      }

      .cls-4 {
        fill: #74c6be;
      }

      .cls-5 {
        fill: #bce2e3;
      }

      .cls-6 {
        fill: #727171;
      }

      .cls-7 {
        fill: #92aca9;
      }

      .cls-8 {
        fill: #e4f3fa;
      }

      .cls-9 {
        fill: #fcd68c;
      }

      .cls-10 {
        stroke: none;
      }

      .cls-11 {
        fill: none;
      }
    </style>
    <clipPath id="clip-path">
      <rect id="사각형_701" data-name="사각형 701" class="cls-1" width="173.115" height="60" transform="translate(613 1556)"/>
    </clipPath>
  </defs>
  <g id="마스크_그룹_3" data-name="마스크 그룹 3" class="cls-2" transform="translate(-613 -1556)">
    <g id="사각형_700" data-name="사각형 700" class="cls-3" transform="translate(479.229 1482.229)">
      <rect class="cls-10" width="683.607" height="336.393"/>
      <rect class="cls-11" x="0.5" y="0.5" width="682.607" height="335.393"/>
    </g>
    <g id="그룹_1623" data-name="그룹 1623" transform="translate(623.55 1560.599)">
      <path id="패스_5826" data-name="패스 5826" class="cls-4" d="M99.052,21.82s-5.508,0-8.163,20.445c0,0-.186,2.644-2.359,2.242a1.346,1.346,0,0,0-1.456,1.166c-.3,1.553,1.471,1.923,2.5,1.951a4.173,4.173,0,0,0,.939-.063c3.386-.666,3.561-4.516,4.14-7.436.7-3.527.979-7.1,2.494-10.317.928-1.974,2.468-3.267,3.95-4.812Z" transform="translate(-78.716 -13.221)"/>
      <path id="패스_5827" data-name="패스 5827" class="cls-4" d="M114.708,172.976l.007,0a.672.672,0,0,1,.968.244c.062.11.127.221.193.331l.131.221c.2.347.408.69.612,1.036.269.453.535.906.8,1.367.127.217.244.441.364.658.138.264.273.516.419.757l.087.146c.277.461.612,1.032.968,1.1.317.055.863-.355,1.121-.552l.958-.757a.664.664,0,0,1,.983.166.807.807,0,0,1-.149,1.064l-.968.768a2.979,2.979,0,0,1-2.177.816c-.965-.177-1.515-1.1-1.911-1.777l-.08-.138c-.164-.272-.313-.552-.455-.82-.113-.209-.222-.414-.339-.619-.262-.453-.528-.9-.794-1.352-.208-.347-.415-.7-.619-1.044l-.124-.213c-.069-.114-.138-.233-.2-.351a.792.792,0,0,1,.208-1.048" transform="translate(-110.031 -104.738)"/>
      <path id="패스_5828" data-name="패스 5828" class="cls-4" d="M111.893,172.909a.672.672,0,0,1,.968.236l3.75,6.372a3.241,3.241,0,0,0,.674.8,2.352,2.352,0,0,0,2.745.063l1.722-1.186a.67.67,0,0,1,.968.233.8.8,0,0,1-.215,1.048l-1.722,1.186a3.663,3.663,0,0,1-4.332-.122,4.781,4.781,0,0,1-1.012-1.19l-3.761-6.388a.8.8,0,0,1,.215-1.052" transform="translate(-109.378 -104.698)"/>
      <path id="패스_5829" data-name="패스 5829" class="cls-4" d="M110.507,172.874a.672.672,0,0,1,.972.232l4.566,7.755a4.091,4.091,0,0,0,5.585,1.312l1.427-.981a.673.673,0,0,1,.972.229.8.8,0,0,1-.215,1.056l-1.449,1-.044.028a5.468,5.468,0,0,1-7.42-1.758l-.025-.039-4.576-7.775a.8.8,0,0,1,.208-1.06" transform="translate(-110.184 -104.675)"/>
      <path id="패스_5830" data-name="패스 5830" class="cls-5" d="M39.191,63.809s.826,9.584-5.836,16.894l-1.3,12.09H29.467L27.778,81.527l-4.394-.146L20.926,93.857h-2.37L16.946,79.493s-5.053-2.132-3.488-12.878L16.59,34.3s2.13-19.952,6.644-21.923c0,0-5.417-5.537-1.325-12.382a12.788,12.788,0,0,1,5.417,8.094s.451.225,4.052.035h1.172a10.166,10.166,0,0,1,6.04-6.5A11.332,11.332,0,0,1,36.6,11.4c.135-.181,4.667,3.988,4.809,4.118C45.639,19.4,47.6,22.47,50.47,27.089a4.49,4.49,0,0,1,.564,3.641,9.313,9.313,0,0,1-2.552,3.724,5.83,5.83,0,0,1-4.15,1.829c-2.92-.032-6.291-.382-8.927-1.789.12.063.011.1.364,2.483Z" transform="translate(-1.9 0)"/>
      <path id="패스_5831" data-name="패스 5831" class="cls-6" d="M21.589,100.1l-1.169,2.246L23,104.983l.91-3.7a5.587,5.587,0,0,0-2.29-1.3Z" transform="translate(22.729 -60.586)"/>
      <path id="패스_5832" data-name="패스 5832" class="cls-6" d="M95.177,241.1h-5.3l.557-4.39,2.534-.138Z" transform="translate(-73.829 -143.343)"/>
      <path id="패스_5833" data-name="패스 5833" class="cls-6" d="M63.8,235.47l1.857,3.606s-3.342.012-5.075-.193l.626-3.413Z" transform="translate(-33.64 -142.677)"/>
      <path id="패스_5834" data-name="패스 5834" class="cls-1" d="M72.8,223.97l.681,4.528,0,.02h0L72.8,223.99a.046.046,0,0,1,0-.02" transform="translate(-45.918 -135.708)"/>
      <path id="패스_5835" data-name="패스 5835" class="cls-1" d="M65.446,221.94c.04,0,.084,0,.124,0a.869.869,0,0,1,.382.1,3.2,3.2,0,0,1,.32.244,1.317,1.317,0,0,0,.371.2.987.987,0,0,0,.317.051,1.213,1.213,0,0,0,.648-.2,1.97,1.97,0,0,0,.28-.229c.018-.02.095-.079.1-.11l-.572,5.273H64.831l-.681-4.528a.9.9,0,0,1,.073-.126c.025-.047.058-.091.087-.134a1.422,1.422,0,0,1,.186-.213,1.287,1.287,0,0,1,.739-.323c.076,0,.142-.008.211-.008" transform="translate(-37.272 -134.478)"/>
      <path id="패스_5836" data-name="패스 5836" class="cls-7" d="M68.3,235.46v.024H65.71l0-.024Z" transform="translate(-38.151 -142.671)"/>
      <path id="패스_5837" data-name="패스 5837" class="cls-1" d="M94.121,223.57,93.1,228.717h-.011l-.007-.016,1-5.091a.223.223,0,0,0,.04-.039" transform="translate(-73.938 -135.466)"/>
      <path id="패스_5838" data-name="패스 5838" class="cls-1" d="M93.4,221.89c.164,0,.317.272.317.272.182.461.393.591.579.591a.678.678,0,0,0,.444-.233c.189-.359.4-.477.6-.477.393,0,.728.477.728.477a.831.831,0,0,0,.652.4.959.959,0,0,0,.637-.323l-1,5.092,0-.008-1.551.083-.958.039-.663-5.671c.066-.181.146-.24.222-.24" transform="translate(-77.209 -134.448)"/>
      <path id="패스_5839" data-name="패스 5839" class="cls-7" d="M97.465,236.584l.007.016-1.562.063,1.551-.083Z" transform="translate(-78.319 -143.349)"/>
      <path id="패스_5840" data-name="패스 5840" class="cls-1" d="M51.752,7.57s.517,4.489-1.667,6.888c-.306.335-.546.485-.725.485-1.114,0,.047-5.6,2.392-7.373" transform="translate(-15.55 -4.587)"/>
      <path id="패스_5841" data-name="패스 5841" class="cls-1" d="M87.524,4.48c2.41,2.534,2.905,8.89,1.708,8.89-.226,0-.51-.225-.848-.737-2.465-3.7-.859-8.153-.859-8.153" transform="translate(-67.465 -2.715)"/>
      <path id="패스_5842" data-name="패스 5842" class="cls-8" d="M36.75,59.65c.036.059.058.091.058.091s-.018-.028-.058-.083Z" transform="translate(3.883 -36.143)"/>
      <path id="패스_5843" data-name="패스 5843" class="cls-4" d="M17.2,74.086l-.018-.2a.58.58,0,0,0-.175-.367.494.494,0,0,0-.357-.138l-.033,0a.547.547,0,0,0-.466.575l0,.035.018.2a.269.269,0,0,1-.226.3.262.262,0,0,1-.28-.244l-.018-.2h0a.39.39,0,0,1,0-.067,1.089,1.089,0,0,1,.921-1.151c.022,0,.044,0,.062,0a.961.961,0,0,1,.71.272,1.124,1.124,0,0,1,.35.729l.018.2a.255.255,0,1,1-.506.051" transform="translate(30.666 -44.128)"/>
      <path id="패스_5844" data-name="패스 5844" class="cls-4" d="M25.045,77.146l-.1-.173a.538.538,0,0,0-.306-.248.494.494,0,0,0-.379.047l-.025.016a.585.585,0,0,0-.186.741l.018.032.1.173a.288.288,0,0,1-.08.378.247.247,0,0,1-.353-.087l-.1-.173h0l-.033-.059a1.162,1.162,0,0,1,.364-1.47l.055-.035a.947.947,0,0,1,.746-.095,1.041,1.041,0,0,1,.608.489l.1.173a.291.291,0,0,1-.08.378.245.245,0,0,1-.35-.087" transform="translate(20.012 -46.144)"/>
      <path id="패스_5845" data-name="패스 5845" class="cls-1" d="M51.307,162.72h.025a.227.227,0,0,1,.186.256.99.99,0,0,1-.076.276,1.057,1.057,0,0,1-.127.233.206.206,0,0,1-.167.087.191.191,0,0,1-.131-.051.249.249,0,0,1-.036-.323h0a.662.662,0,0,0,.069-.134.581.581,0,0,0,.044-.146.228.228,0,0,1,.215-.2" transform="translate(-15.993 -98.596)"/>
      <path id="패스_5846" data-name="패스 5846" class="cls-1" d="M50.434,155.9h.025a.227.227,0,0,1,.186.256.99.99,0,0,1-.076.276,1.226,1.226,0,0,1-.124.232.205.205,0,0,1-.3.039.245.245,0,0,1-.036-.323.693.693,0,0,0,.073-.138.614.614,0,0,0,.044-.142.213.213,0,0,1,.208-.2" transform="translate(-14.804 -94.463)"/>
      <path id="패스_5847" data-name="패스 5847" class="cls-1" d="M56.1,176.96h.025a.227.227,0,0,1,.186.256.991.991,0,0,1-.076.276,1.057,1.057,0,0,1-.127.232.212.212,0,0,1-.167.087.2.2,0,0,1-.135-.051.244.244,0,0,1-.033-.323.663.663,0,0,0,.069-.134.581.581,0,0,0,.044-.146.224.224,0,0,1,.215-.2" transform="translate(-22.529 -107.224)"/>
      <path id="패스_5848" data-name="패스 5848" class="cls-1" d="M58.968,182.08h.025a.227.227,0,0,1,.186.256.99.99,0,0,1-.076.276,1.057,1.057,0,0,1-.127.233.2.2,0,0,1-.167.087.191.191,0,0,1-.131-.051.244.244,0,0,1-.036-.323.6.6,0,0,0,.073-.138.613.613,0,0,0,.044-.142.219.219,0,0,1,.211-.2" transform="translate(-26.443 -110.326)"/>
      <path id="패스_5849" data-name="패스 5849" class="cls-1" d="M56.318,185.89h.025a.227.227,0,0,1,.186.256.99.99,0,0,1-.076.276,1.057,1.057,0,0,1-.127.233.206.206,0,0,1-.167.087.192.192,0,0,1-.131-.051.245.245,0,0,1-.036-.323.663.663,0,0,0,.069-.134.614.614,0,0,0,.044-.142.228.228,0,0,1,.215-.2" transform="translate(-22.828 -112.635)"/>
      <path id="패스_5850" data-name="패스 5850" class="cls-1" d="M54.029,181.08h.025a.227.227,0,0,1,.186.256.99.99,0,0,1-.076.276,1.057,1.057,0,0,1-.127.233.217.217,0,0,1-.167.087.2.2,0,0,1-.135-.051.244.244,0,0,1-.033-.323.751.751,0,0,0,.069-.134.875.875,0,0,0,.044-.142.228.228,0,0,1,.215-.2" transform="translate(-19.706 -109.72)"/>
      <path id="패스_5851" data-name="패스 5851" class="cls-1" d="M58.754,174.32h.025a.227.227,0,0,1,.186.256.991.991,0,0,1-.076.276,1.225,1.225,0,0,1-.124.232.21.21,0,0,1-.167.091.207.207,0,0,1-.131-.047.244.244,0,0,1-.036-.323.781.781,0,0,0,.073-.138.614.614,0,0,0,.044-.142.213.213,0,0,1,.208-.2" transform="translate(-26.153 -105.624)"/>
      <path id="패스_5852" data-name="패스 5852" class="cls-1" d="M50.654,173.82h.029a.227.227,0,0,1,.182.256.964.964,0,0,1-.076.272,1.226,1.226,0,0,1-.124.232.21.21,0,0,1-.167.091.207.207,0,0,1-.131-.047.244.244,0,0,1-.036-.323.958.958,0,0,0,.073-.138.581.581,0,0,0,.044-.146.212.212,0,0,1,.208-.2" transform="translate(-15.104 -105.321)"/>
      <path id="패스_5853" data-name="패스 5853" class="cls-1" d="M50.866,167.89h.025a.227.227,0,0,1,.186.256.991.991,0,0,1-.076.276,1.188,1.188,0,0,1-.127.236.217.217,0,0,1-.167.087.192.192,0,0,1-.131-.051.244.244,0,0,1-.033-.323.875.875,0,0,0,.073-.134.792.792,0,0,0,.044-.146.208.208,0,0,1,.208-.2" transform="translate(-15.392 -101.728)"/>
      <path id="패스_5854" data-name="패스 5854" class="cls-1" d="M54.784,159.73h.025a.227.227,0,0,1,.186.256.99.99,0,0,1-.076.276,1.225,1.225,0,0,1-.124.233.206.206,0,0,1-.167.087.192.192,0,0,1-.131-.051.245.245,0,0,1-.036-.323.876.876,0,0,0,.073-.134.581.581,0,0,0,.044-.146.212.212,0,0,1,.208-.2" transform="translate(-20.737 -96.784)"/>
      <path id="패스_5855" data-name="패스 5855" class="cls-1" d="M54.784,171.09h.025a.227.227,0,0,1,.186.256.99.99,0,0,1-.076.276,1.225,1.225,0,0,1-.124.233.2.2,0,0,1-.167.087.207.207,0,0,1-.131-.047.244.244,0,0,1-.036-.323.694.694,0,0,0,.073-.138.614.614,0,0,0,.044-.142.213.213,0,0,1,.208-.2" transform="translate(-20.737 -103.667)"/>
      <path id="패스_5856" data-name="패스 5856" class="cls-1" d="M100.12,195.65a.219.219,0,0,1,.211.2.706.706,0,0,0,.04.142.693.693,0,0,0,.073.138.241.241,0,0,1-.04.323.205.205,0,0,1-.127.047.2.2,0,0,1-.167-.091,1.225,1.225,0,0,1-.124-.233.98.98,0,0,1-.076-.28.224.224,0,0,1,.189-.252h.022" transform="translate(-82.791 -118.549)"/>
      <path id="패스_5857" data-name="패스 5857" class="cls-1" d="M98.276,191.034a.222.222,0,0,1,.211.2.615.615,0,0,0,.044.142.694.694,0,0,0,.073.138.241.241,0,0,1-.04.323.2.2,0,0,1-.295-.043,1.225,1.225,0,0,1-.124-.233.991.991,0,0,1-.076-.276.227.227,0,0,1,.186-.256s.011,0,.022,0" transform="translate(-80.282 -115.749)"/>
      <path id="패스_5858" data-name="패스 5858" class="cls-1" d="M107.832,186.39a.222.222,0,0,1,.211.2.563.563,0,0,0,.044.142.644.644,0,0,0,.073.134.244.244,0,0,1-.033.323.2.2,0,0,1-.131.051.217.217,0,0,1-.167-.087,1.234,1.234,0,0,1-.127-.233.991.991,0,0,1-.076-.276.227.227,0,0,1,.186-.256h.022" transform="translate(-93.318 -112.938)"/>
      <path id="패스_5859" data-name="패스 5859" class="cls-1" d="M104.556,192.42a.218.218,0,0,1,.211.2.632.632,0,0,0,.044.146.6.6,0,0,0,.073.138.245.245,0,0,1-.036.323.207.207,0,0,1-.131.047.217.217,0,0,1-.167-.087,1.048,1.048,0,0,1-.124-.233,1,1,0,0,1-.076-.272.225.225,0,0,1,.182-.256.033.033,0,0,1,.025-.008" transform="translate(-88.847 -116.592)"/>
      <path id="패스_5860" data-name="패스 5860" class="cls-1" d="M103.466,188.69a.222.222,0,0,1,.211.2.563.563,0,0,0,.044.142.643.643,0,0,0,.073.134.241.241,0,0,1-.036.323.212.212,0,0,1-.131.051.217.217,0,0,1-.167-.087,1.232,1.232,0,0,1-.127-.233.99.99,0,0,1-.076-.276.227.227,0,0,1,.186-.256h.025" transform="translate(-87.361 -114.331)"/>
      <path id="패스_5861" data-name="패스 5861" class="cls-1" d="M108.61,191.034a.222.222,0,0,1,.211.2.563.563,0,0,0,.044.142.7.7,0,0,0,.073.138.241.241,0,0,1-.04.323.207.207,0,0,1-.131.047.2.2,0,0,1-.167-.091h0a1.226,1.226,0,0,1-.124-.233.991.991,0,0,1-.076-.276.227.227,0,0,1,.186-.256.05.05,0,0,0,.025,0" transform="translate(-94.376 -115.749)"/>
      <path id="패스_5862" data-name="패스 5862" class="cls-1" d="M103.023,198.01a.222.222,0,0,1,.211.2.581.581,0,0,0,.044.146.642.642,0,0,0,.073.134.241.241,0,0,1-.036.323.212.212,0,0,1-.131.051.217.217,0,0,1-.167-.087,1.05,1.05,0,0,1-.124-.233.991.991,0,0,1-.076-.276.227.227,0,0,1,.186-.256s.015,0,.022,0" transform="translate(-86.757 -119.979)"/>
      <path id="패스_5863" data-name="패스 5863" class="cls-1" d="M103.656,99.67a.234.234,0,0,1,.087.02.239.239,0,0,1,.106.3.779.779,0,0,0-.047.26l0,.035a.231.231,0,0,1-.182.26h-.029a.219.219,0,0,1-.211-.2.89.89,0,0,1,0-.1,1.294,1.294,0,0,1,.087-.453.205.205,0,0,1,.189-.126" transform="translate(-87.434 -60.392)"/>
      <path id="패스_5864" data-name="패스 5864" class="cls-1" d="M97.3,86.67a.234.234,0,0,1,.087.02.239.239,0,0,1,.106.3.809.809,0,0,0-.047.256l0,.039a.228.228,0,0,1-.182.26c-.011,0-.018,0-.029,0a.218.218,0,0,1-.211-.2,1.047,1.047,0,0,1-.007-.106A1.233,1.233,0,0,1,97.1,86.8a.214.214,0,0,1,.2-.134" transform="translate(-78.762 -52.515)"/>
      <path id="패스_5865" data-name="패스 5865" class="cls-1" d="M103.382,86.73a.2.2,0,0,1,.084.02.239.239,0,0,1,.109.3.784.784,0,0,0-.047.264v.035a.225.225,0,0,1-.182.256c-.011,0-.018,0-.029,0a.218.218,0,0,1-.211-.2.89.89,0,0,1,0-.1,1.255,1.255,0,0,1,.084-.449.22.22,0,0,1,.2-.134" transform="translate(-87.058 -52.552)"/>
      <path id="패스_5866" data-name="패스 5866" class="cls-1" d="M95.78,80.99a.234.234,0,0,1,.087.02.239.239,0,0,1,.106.3,1.119,1.119,0,0,0-.033.114.7.7,0,0,0-.015.142V81.6a.223.223,0,0,1-.178.26c-.011,0-.022,0-.029,0a.221.221,0,0,1-.211-.2c0-.035-.007-.071-.007-.1a1.3,1.3,0,0,1,.025-.236,1.015,1.015,0,0,1,.062-.213.218.218,0,0,1,.193-.13" transform="translate(-76.689 -49.074)"/>
      <path id="패스_5867" data-name="패스 5867" class="cls-1" d="M101.412,73.88a.2.2,0,0,1,.084.02.239.239,0,0,1,.109.3.8.8,0,0,0-.047.264v.039a.225.225,0,0,1-.182.256c-.011,0-.018,0-.029,0a.219.219,0,0,1-.211-.2.82.82,0,0,1,0-.095,1.255,1.255,0,0,1,.084-.449.212.212,0,0,1,.2-.142" transform="translate(-84.37 -44.766)"/>
      <path id="패스_5868" data-name="패스 5868" class="cls-1" d="M100.33,83.17a.2.2,0,0,1,.084.02.236.236,0,0,1,.109.3.828.828,0,0,0-.047.268V83.8a.225.225,0,0,1-.182.256h-.029a.219.219,0,0,1-.211-.2.82.82,0,0,1,0-.095,1.255,1.255,0,0,1,.084-.449.224.224,0,0,1,.2-.138" transform="translate(-82.896 -50.395)"/>
      <path id="패스_5869" data-name="패스 5869" class="cls-1" d="M98.54,69.42a.234.234,0,0,1,.087.02.239.239,0,0,1,.106.3.784.784,0,0,0-.047.264v.035a.225.225,0,0,1-.182.256h-.025a.218.218,0,0,1-.211-.2c0-.032,0-.063-.007-.095a1.276,1.276,0,0,1,.087-.453.21.21,0,0,1,.193-.13" transform="translate(-80.454 -42.063)"/>
      <path id="패스_5870" data-name="패스 5870" class="cls-1" d="M97.028,74.92a.222.222,0,0,1,.193.323.76.76,0,0,0-.047.26v.035a.228.228,0,0,1-.182.26h-.029a.218.218,0,0,1-.211-.2.97.97,0,0,1-.007-.1,1.254,1.254,0,0,1,.084-.449.232.232,0,0,1,.2-.13" transform="translate(-78.392 -45.396)"/>
      <path id="패스_5871" data-name="패스 5871" class="cls-1" d="M99.88,78a.234.234,0,0,1,.087.02.239.239,0,0,1,.106.3.576.576,0,0,0-.033.118.7.7,0,0,0-.015.142l0,.039a.225.225,0,0,1-.182.256h-.029a.218.218,0,0,1-.211-.2.83.83,0,0,1-.007-.1,1.269,1.269,0,0,1,.025-.236.95.95,0,0,1,.062-.213A.218.218,0,0,1,99.88,78" transform="translate(-82.282 -47.262)"/>
      <path id="패스_5872" data-name="패스 5872" class="cls-1" d="M101.8,91.05a.2.2,0,0,1,.084.02.236.236,0,0,1,.109.3.833.833,0,0,0-.047.272v.035a.227.227,0,0,1-.186.256h-.025a.218.218,0,0,1-.211-.2.82.82,0,0,1,0-.095,1.293,1.293,0,0,1,.084-.453.214.214,0,0,1,.2-.138" transform="translate(-84.901 -55.169)"/>
      <path id="패스_5873" data-name="패스 5873" class="cls-1" d="M100.132,96.74a.2.2,0,0,1,.084.02.239.239,0,0,1,.109.3.784.784,0,0,0-.047.264v.035a.225.225,0,0,1-.182.256h-.029a.218.218,0,0,1-.211-.2.82.82,0,0,1,0-.095,1.255,1.255,0,0,1,.084-.449.22.22,0,0,1,.2-.134" transform="translate(-82.624 -58.617)"/>
      <path id="패스_5874" data-name="패스 5874" class="cls-1" d="M104.046,94.81a.222.222,0,0,1,.193.323h0a.76.76,0,0,0-.047.26l0,.039a.231.231,0,0,1-.182.26c-.011,0-.018,0-.029,0a.218.218,0,0,1-.211-.2.969.969,0,0,1-.007-.1,1.249,1.249,0,0,1,.084-.445.216.216,0,0,1,.2-.142" transform="translate(-87.966 -57.448)"/>
      <path id="패스_5875" data-name="패스 5875" class="cls-1" d="M97.134,92.68a.234.234,0,0,1,.087.02.239.239,0,0,1,.106.3.742.742,0,0,0-.047.26V93.3a.229.229,0,0,1-.182.26h-.029a.218.218,0,0,1-.211-.2.967.967,0,0,1-.007-.1,1.181,1.181,0,0,1,.087-.449.22.22,0,0,1,.2-.13" transform="translate(-78.534 -56.157)"/>
      <path id="패스_5876" data-name="패스 5876" class="cls-5" d="M31.894,105.97s-3.532,6.557-8.974,2.707l.757,6.487s7.482,3.488,10.795-6.561Z" transform="translate(11.254 -64.21)"/>
      <path id="패스_5877" data-name="패스 5877" class="cls-1" d="M30,105.97" transform="translate(13.149 -64.21)"/>
      <path id="패스_5878" data-name="패스 5878" class="cls-1" d="M25.573,105.97h0m0,0,0,0h0m0,0a9.423,9.423,0,0,1-2.643,2.936h0a9.423,9.423,0,0,0,2.643-2.936m2.574,2.632a13.431,13.431,0,0,1-2.345,4.481h0a13.392,13.392,0,0,0,2.345-4.481" transform="translate(17.576 -64.21)"/>
      <path id="패스_5879" data-name="패스 5879" class="cls-1" d="M25.56,105.97h0l2.578,2.632a13.458,13.458,0,0,1-2.345,4.481l-.63-.41c-.63-.41-.765-1.706-.765-1.706a1.9,1.9,0,0,0-1.478-2.061,9.44,9.44,0,0,0,2.64-2.936Z" transform="translate(17.589 -64.21)"/>
      <path id="패스_5880" data-name="패스 5880" class="cls-6" d="M38.749,105.708l-1.169,2.242,2.574,2.632.91-3.7a5.587,5.587,0,0,0-2.29-1.3Z" transform="translate(-0.675 -63.979)"/>
      <path id="패스_5881" data-name="패스 5881" class="cls-5" d="M49.054,111.58s-3.532,6.557-8.974,2.707l.757,6.487s7.482,3.488,10.791-6.561Z" transform="translate(-12.149 -67.609)"/>
      <path id="패스_5882" data-name="패스 5882" class="cls-1" d="M48.144,111.58m0,0h0m0,0h0m0,0Zm0,0a9.485,9.485,0,0,1-.994,1.415,9.584,9.584,0,0,0,.994-1.415" transform="translate(-11.239 -67.609)"/>
      <path id="패스_5883" data-name="패스 5883" class="cls-8" d="M41.084,115.17h0a8.661,8.661,0,0,1-.979,1,9.3,9.3,0,0,0,.979-1m-.983,1-.007.008.007-.008m-.007.008s0,0-.007.008,0-.008.007-.008m-.011.008h0m4.569.2a13.431,13.431,0,0,1-2.345,4.481h0a13.392,13.392,0,0,0,2.345-4.481" transform="translate(-5.173 -69.784)"/>
      <path id="패스_5884" data-name="패스 5884" class="cls-1" d="M42.72,111.58h0l2.574,2.632a13.566,13.566,0,0,1-2.341,4.481l-.63-.41c-.63-.41-.765-1.706-.765-1.706a1.9,1.9,0,0,0-1.478-2.061,7.324,7.324,0,0,0,.644-.5h0l0,0,.007-.008h0l.007-.008h0a9.341,9.341,0,0,0,.979-1,9.141,9.141,0,0,0,1-1.415Z" transform="translate(-5.815 -67.609)"/>
      <path id="패스_5885" data-name="패스 5885" class="cls-1" d="M35.56,43.35c3.04,2.826,5.1,3.212,5.1,3.212-.448,1.829,1.376,3.669,1.882,4.225l.131.142c-3.146-2.861-5.439-3.011-5.439-3.011C38.4,46.128,35.56,43.35,35.56,43.35" transform="translate(-1.553 -26.267)"/>
      <path id="패스_5886" data-name="패스 5886" class="cls-6" d="M40.41,43.756a.857.857,0,1,0,.852-.926.89.89,0,0,0-.852.926" transform="translate(-2.759 -25.952)"/>
      <path id="패스_5887" data-name="패스 5887" class="cls-6" d="M57.26,52.319a.935.935,0,1,0,.932-1.009.975.975,0,0,0-.932,1.009" transform="translate(-25.9 -31.09)"/>
      <path id="패스_5888" data-name="패스 5888" class="cls-6" d="M44.592,40.565a1.3,1.3,0,0,1,.1.5,1.24,1.24,0,0,1-.175.642,1.61,1.61,0,0,1-.681.6.23.23,0,0,1-.313-.122.266.266,0,0,1,.113-.339,1.137,1.137,0,0,0,.484-.41.738.738,0,0,0,.1-.363.785.785,0,0,0-.029-.209c-.007-.028-.015-.047-.018-.059l0-.012h0l.113-.059-.113.059h0l.113-.059-.113.059a.26.26,0,0,1,.106-.339.222.222,0,0,1,.317.11" transform="translate(-6.457 -24.494)"/>
      <path id="패스_5889" data-name="패스 5889" class="cls-6" d="M58.216,49.808l-.124.087.124-.087h0l-.124.087.124-.087h0a.668.668,0,0,0,.153.158.577.577,0,0,0,.36.126,1,1,0,0,0,.6-.24.224.224,0,0,1,.328.067.272.272,0,0,1-.062.355,1.454,1.454,0,0,1-.863.327,1.027,1.027,0,0,1-.674-.256,1.012,1.012,0,0,1-.229-.264.267.267,0,0,1,.069-.351.222.222,0,0,1,.32.079" transform="translate(-26.663 -30.109)"/>
      <path id="패스_5890" data-name="패스 5890" class="cls-4" d="M4.9,68.822a3.183,3.183,0,0,1,.335.52,2.822,2.822,0,0,1,.331,1.293,2.4,2.4,0,0,1-.295,1.147.3.3,0,0,1-.43.118.356.356,0,0,1-.109-.465,1.645,1.645,0,0,0,.208-.8,2.154,2.154,0,0,0-.255-.965,2.612,2.612,0,0,0-.178-.3c-.022-.035-.044-.059-.055-.075l-.015-.016,0,0,.055-.051-.055.051h0l.055-.051-.055.051a.357.357,0,0,1,.018-.477.3.3,0,0,1,.448.02" transform="translate(46.922 -41.635)"/>
      <path id="패스_5891" data-name="패스 5891" class="cls-4" d="M.545,66.452a4.6,4.6,0,0,1,.521.808,4.439,4.439,0,0,1,.513,2,3.625,3.625,0,0,1-.451,1.754.3.3,0,0,1-.43.118.356.356,0,0,1-.109-.465,2.879,2.879,0,0,0,.364-1.411,3.707,3.707,0,0,0-.437-1.671,4.81,4.81,0,0,0-.3-.5c-.04-.059-.076-.1-.1-.134L.09,66.917l-.007-.008h0l.084-.083-.084.083h0l.084-.083-.084.083A.357.357,0,0,1,.1,66.433a.3.3,0,0,1,.444.02" transform="translate(52.492 -40.199)"/>
      <path id="패스_5892" data-name="패스 5892" class="cls-9" d="M13.176,24.34s.353,4.548,3.091,4.559c0,0-2.115-.142-3.091,3.653,0,0-.466-3.3-2.836-3.641,0,0,3.422-.079,2.836-4.571" transform="translate(34.039 -14.748)"/>
      <path id="패스_5893" data-name="패스 5893" class="cls-4" d="M66.358,30.926a.718.718,0,0,0,.688-.745v-.418l0-.043c-.091-1.663-.561-2.77-2.57-2.77H62.484a.745.745,0,0,0,0,1.486h1.984c.95,0,1.132.1,1.2,1.352v.394a.715.715,0,0,0,.684.745" transform="translate(-35.475 -16.33)"/>
      <path id="패스_5894" data-name="패스 5894" class="cls-4" d="M64.1,27.057a.719.719,0,0,0,.688-.741V25.9l0-.051c-.153-2.451-1.576-3.957-3.8-4.027H57.358a.745.745,0,0,0,0,1.486h3.608a2.449,2.449,0,0,1,2.45,2.617v.394a.719.719,0,0,0,.688.741" transform="translate(-31.353 -13.221)"/>
      <path id="패스_5895" data-name="패스 5895" class="cls-4" d="M62.121,23.244a.72.72,0,0,0,.688-.745v-.209a5.221,5.221,0,0,0-5-5.411H52.414a.747.747,0,0,0,0,1.49h5.392a3.787,3.787,0,0,1,3.626,3.925V22.5a.719.719,0,0,0,.688.741" transform="translate(-27.571 -10.228)"/>
    </g>
  </g>
</svg>
