<svg xmlns="http://www.w3.org/2000/svg" viewBox="0 0 112 112">
  <defs>
    <style>
      .cls-1, .cls-2 {
        fill: #fff;
      }

      .cls-2 {
        stroke: #74c6be;
        stroke-linecap: round;
        stroke-width: 3px;
      }

      .cls-2, .cls-3 {
        stroke-miterlimit: 10;
      }

      .cls-3 {
        fill: none;
        stroke: #ff6167;
        stroke-width: 4px;
      }
    </style>
  </defs>
  <g id="그룹_1395" data-name="그룹 1395" transform="translate(-104 -999)">
    <ellipse id="타원_130" data-name="타원 130" class="cls-1" cx="56" cy="56" rx="56" ry="56" transform="translate(104 999)"/>
    <g id="그룹_1296" data-name="그룹 1296" transform="translate(143 1025)">
      <path id="패스_4813" data-name="패스 4813" class="cls-2" d="M37.821,43.784a2.528,2.528,0,0,0-3.438-1.078l-8.929,4.721-3.643-.616h4.157a2.207,2.207,0,0,0,0-4.413H20.989C9.187,42.3,5.8,49.07,5.8,49.07l1.232,4.157c8.005,3.387,16.934.359,19.089-.462h0a2.107,2.107,0,0,0,.462-.205l10.212-5.337A2.538,2.538,0,0,0,37.821,43.784Z" transform="translate(-3.85 -21.668)"/>
      <rect id="사각형_446" data-name="사각형 446" class="cls-2" width="5.593" height="10.93" transform="translate(0 22.22)"/>
      <path id="패스_4814" data-name="패스 4814" class="cls-3" d="M30.534,2a4.764,4.764,0,0,0-4.105,2.309A4.816,4.816,0,0,0,17.5,6.824c0,6,8.929,10.52,8.929,10.52s8.929-4.464,8.929-10.52A4.818,4.818,0,0,0,30.534,2Z" transform="translate(-9.546 -2)"/>
    </g>
  </g>
</svg>
