<svg xmlns="http://www.w3.org/2000/svg" viewBox="0 0 112 112">
  <defs>
    <style>
      .cls-1, .cls-3 {
        fill: #fff;
      }

      .cls-2, .cls-4, .cls-6 {
        fill: none;
      }

      .cls-2, .cls-4 {
        stroke: #74c6be;
      }

      .cls-2, .cls-3, .cls-4, .cls-5, .cls-6 {
        stroke-miterlimit: 10;
      }

      .cls-2, .cls-3 {
        stroke-width: 3px;
      }

      .cls-3 {
        stroke: #ff6167;
      }

      .cls-4 {
        stroke-linecap: round;
      }

      .cls-4, .cls-5 {
        stroke-width: 2px;
      }

      .cls-5 {
        fill: #ffac3e;
        stroke: #fdd35c;
      }

      .cls-6 {
        stroke: #fff;
        stroke-linejoin: bevel;
      }
    </style>
  </defs>
  <g id="그룹_1394" data-name="그룹 1394" transform="translate(-104 -615)">
    <circle id="타원_128" data-name="타원 128" class="cls-1" cx="56" cy="56" r="56" transform="translate(104 615)"/>
    <g id="그룹_1295" data-name="그룹 1295" transform="translate(140.13 632)">
      <rect id="사각형_443" data-name="사각형 443" class="cls-2" width="35.473" height="23.824" transform="translate(1.834 26.176)"/>
      <path id="패스_4808" data-name="패스 4808" class="cls-3" d="M30.717,54.4a3.494,3.494,0,0,0-3.044,1.756A3.588,3.588,0,0,0,21,57.971c0,4.507,6.673,7.844,6.673,7.844s6.673-3.337,6.673-7.844A3.675,3.675,0,0,0,30.717,54.4Z" transform="translate(-8.044 -21.727)"/>
      <path id="패스_4809" data-name="패스 4809" class="cls-2" d="M1.6,35.485,9.268,25.3H31.1l6.439,10.185" transform="translate(0 -9.661)"/>
      <line id="선_55" data-name="선 55" class="cls-4" x2="15.512" transform="translate(12.195 20.732)"/>
      <circle id="타원_124" data-name="타원 124" class="cls-5" cx="7.961" cy="7.961" r="7.961" transform="translate(11.961 2)"/>
      <g id="그룹_1266" data-name="그룹 1266" transform="translate(16.059 6.8)">
        <path id="패스_4810" data-name="패스 4810" class="cls-6" d="M27.8,10.2l1.463,7.024L30.9,10.2l1.4,7.024L33.829,10.2" transform="translate(-26.922 -10.2)"/>
        <line id="선_56" data-name="선 56" class="cls-6" x2="7.785" transform="translate(0 2.049)"/>
      </g>
    </g>
  </g>
</svg>
