<svg xmlns="http://www.w3.org/2000/svg" viewBox="0 0 44.5 25.303">
  <defs>
    <style>
      .cls-1 {
        fill: #6bcbb8;
      }
    </style>
  </defs>
  <path id="패스_4566" data-name="패스 4566" class="cls-1" d="M12.661,25.3a1.412,1.412,0,0,1-1.41-1.41V22.044A10.8,10.8,0,0,1,22.04,11.259h13.5a1.41,1.41,0,0,1,0,2.82H22.04a7.978,7.978,0,0,0-7.969,7.966v1.849A1.41,1.41,0,0,1,12.661,25.3Zm-5.624,0a1.412,1.412,0,0,1-1.41-1.41V22.044A16.432,16.432,0,0,1,22.04,5.631H39.156a1.41,1.41,0,1,1,0,2.82H22.04A13.61,13.61,0,0,0,8.478,21.143c-.019.3-.031.6-.031.9V23.9A1.409,1.409,0,0,1,7.037,25.3Zm-5.628,0A1.412,1.412,0,0,1,0,23.893V22.044A22.067,22.067,0,0,1,22.04,0H43.09a1.41,1.41,0,0,1,0,2.82H22.04A19.242,19.242,0,0,0,2.82,22.04v1.849A1.413,1.413,0,0,1,1.41,25.3Z"/>
</svg>
