<svg xmlns="http://www.w3.org/2000/svg" viewBox="0 0 852.159 253.3">
  <defs>
    <style>
      .cls-1 {
        fill: #f7c7c6;
      }

      .cls-1, .cls-2 {
        stroke: #fff;
        stroke-linecap: round;
        stroke-width: 6px;
      }

      .cls-2 {
        fill: #dcc7e1;
      }

      .cls-3 {
        fill: #727171;
      }

      .cls-4 {
        fill: #bce2e3;
      }

      .cls-16, .cls-5 {
        fill: #fff;
      }

      .cls-6 {
        fill: #74c6be;
      }

      .cls-7 {
        fill: #e0f1f2;
      }

      .cls-8 {
        fill: #fbb03f;
      }

      .cls-9 {
        fill: #88d6f4;
      }

      .cls-10 {
        fill: #97c3e5;
      }

      .cls-11 {
        opacity: 0.58;
      }

      .cls-12 {
        fill: #757474;
      }

      .cls-13 {
        fill: #ededed;
      }

      .cls-14 {
        fill: #f7b716;
      }

      .cls-15, .cls-20 {
        fill: #f3775f;
      }

      .cls-16 {
        font-size: 17px;
        font-family: NanumGothic, Nanum Gothic;
      }

      .cls-17 {
        fill: #e8f5f7;
      }

      .cls-18 {
        fill: #9ad7da;
      }

      .cls-19, .cls-20 {
        opacity: 0.17;
      }

      .cls-21 {
        fill: #6cc8bf;
      }

      .cls-22 {
        fill: #afdfdf;
      }

      .cls-23 {
        fill: #daf0f6;
      }

      .cls-24 {
        fill: #58595b;
      }
    </style>
  </defs>
  <g id="그룹_1392" data-name="그룹 1392" transform="translate(-274.589 -1628.1)">
    <path id="패스_5109" data-name="패스 5109" class="cls-1" d="M170.638,85.554a85.32,85.32,0,1,0-85.3,85.554A85.576,85.576,0,0,0,170.638,85.554Z" transform="translate(953.109 1674.892)"/>
    <path id="패스_5108" data-name="패스 5108" class="cls-2" d="M169.566,101.526,198.183,85,169.353,68.339a85.631,85.631,0,1,0,.214,33.187Z" transform="translate(784.439 1674.896)"/>
    <path id="패스_5107" data-name="패스 5107" class="cls-1" d="M169.566,101.526,198.183,85,169.353,68.339a85.631,85.631,0,1,0,.214,33.187Z" transform="translate(615.771 1674.896)"/>
    <path id="패스_5106" data-name="패스 5106" class="cls-2" d="M169.566,101.526,198.183,85,169.353,68.339a85.631,85.631,0,1,0,.214,33.187Z" transform="translate(446.259 1674.896)"/>
    <path id="패스_5105" data-name="패스 5105" class="cls-1" d="M169.566,101.526,198.183,85,169.353,68.339a85.631,85.631,0,1,0,.214,33.187Z" transform="translate(277.589 1674.896)"/>
    <g id="그룹_1340" data-name="그룹 1340" transform="translate(980.178 1628.1)">
      <path id="패스_5110" data-name="패스 5110" class="cls-3" d="M108.5,75.127l.4,6.267-9,2.812,1.768-9.24s4.1-1.045,6.83-.241" transform="translate(-77.322 -14.625)"/>
      <path id="패스_5111" data-name="패스 5111" class="cls-4" d="M85.985,83.2s1.446,18.561,18.561,16.391l-8.758,13.418s-21.614-.964-18.721-27Z" transform="translate(-54.408 -16.35)"/>
      <path id="패스_5112" data-name="패스 5112" class="cls-5" d="M97.061,98.627a32.551,32.551,0,0,1-.8-12.615l9-2.812a24.422,24.422,0,0,0,3.134,9.562s-4.178-1.125-5.7,2.812c0,0-1.687,2.732-3.616,2.893Z" transform="translate(-73.679 -16.35)"/>
      <path id="패스_5113" data-name="패스 5113" class="cls-6" d="M14.08,22S27.9,23.125,30.792,71.013c0,0,0,6.187,5.544,5.7a3.4,3.4,0,0,1,3.455,2.973c.482,3.7-4.017,4.178-6.669,4.017a20.37,20.37,0,0,1-2.33-.321c-8.356-2.25-8.115-11.168-9-18.078-1.125-8.356-1.125-16.632-4.339-24.426-2.009-4.741-5.624-8.035-9-11.972Z" transform="translate(65.224 -4.323)"/>
      <path id="패스_5114" data-name="패스 5114" class="cls-4" d="M27.289,54.075c7.633-9.562,12.856-15.989,23.542-23.7.4-.241,11.892-8.517,12.213-8.115C55.251,10.847,59.991.4,59.991.4,71.642,5.946,73.249,15.829,73.249,15.829l2.812.241c8.517,1.125,9.642.723,9.642.723A28.233,28.233,0,0,1,99.925,0c8.517,15.829-5.3,26.917-5.3,26.917,10.365,5.223,11.972,49.334,11.972,49.415l2.169,54.878.643,10.365s4.1,32.943-39.451,28.524c-2.732-.241-5.464-1.687-7.794-3.053-5.383-3.214-9.883-7.955-11.651-13.981a36.622,36.622,0,0,1-1.125-7.231,42.289,42.289,0,0,1,0-8.437c.08-.4.723-4.5.964-4.982l5.624-31.095c1.527-7.553,2.973-15.025,4.5-22.578,1.286-5.142,1.045-5.223,1.286-5.383-6.508,2.571-14.623,2.732-21.533,2.25-3.857-.241-6.91-2.089-9.562-4.821-1.928-1.928-4.982-5.865-5.383-8.678-.4-3.616.321-5.865,2.009-8.035" transform="translate(-17.889)"/>
      <path id="패스_5115" data-name="패스 5115" class="cls-5" d="M79.081,4.3s-2.009,9.722,2.732,15.427S85.187,9.362,79.081,4.3" transform="translate(-36.014 -0.845)"/>
      <path id="패스_5116" data-name="패스 5116" class="cls-5" d="M43.519,4.8s3.053,10.044-3.455,17.757c-5.7,6.749-3.857-11.651,3.455-17.757" transform="translate(38.116 -0.943)"/>
      <path id="패스_5117" data-name="패스 5117" class="cls-7" d="M103.361,59.4h0c-.08.161-.161.161-.161.161l.161-.161" transform="translate(-74.435 -11.673)"/>
      <path id="패스_5118" data-name="패스 5118" class="cls-6" d="M60.025,36.426A1.684,1.684,0,0,1,58.5,34.658l.08-.964v-.08c.482-3.7,1.848-6.026,6.669-5.624l4.741.4a1.652,1.652,0,0,1-.241,3.294l-4.741-.4c-2.25-.161-2.732,0-3.134,2.732l-.08.884a1.684,1.684,0,0,1-1.768,1.527" transform="translate(-6.674 -5.491)"/>
      <path id="패스_5119" data-name="패스 5119" class="cls-6" d="M56.625,33.224A1.684,1.684,0,0,1,55.1,31.457l.08-.884v-.08c.8-5.383,4.5-8.437,9.8-8.2l8.678.643a1.652,1.652,0,1,1-.241,3.294l-8.6-.723c-4.5-.241-5.946,2.732-6.348,5.3l-.08.884a1.628,1.628,0,0,1-1.768,1.527" transform="translate(-7.612 -4.379)"/>
      <path id="패스_5120" data-name="패스 5120" class="cls-6" d="M52.825,30.05A1.684,1.684,0,0,1,51.3,28.282V27.8A12.046,12.046,0,0,1,64.235,16.792L77.09,17.837a1.652,1.652,0,0,1-.241,3.294L63.994,20.086a8.653,8.653,0,0,0-9.32,7.955v.482a1.761,1.761,0,0,1-1.848,1.527" transform="translate(-7.991 -3.293)"/>
      <path id="패스_5121" data-name="패스 5121" class="cls-5" d="M82.2,58.647a.962.962,0,0,0,.321-.321c1.286-1.125,5.946-4.821,5.223-8.919,0,0,4.982-.482,12.7-6.107,0,0-7.231,5.544-4.821,9.722,0,.08-5.464,0-13.418,5.624" transform="translate(-54.64 -8.509)"/>
      <path id="패스_5122" data-name="패스 5122" class="cls-3" d="M4.946,77.3,3.5,83.488l8.437,4.178-.241-9.4S7.758,76.5,4.946,76.98" transform="translate(97.097 -15.111)"/>
      <path id="패스_5123" data-name="패스 5123" class="cls-4" d="M24.471,85S20.052,103.078,3.5,98.1l6.428,14.7s21.453,2.571,22.9-23.542Z" transform="translate(76.206 -16.704)"/>
      <path id="패스_5124" data-name="패스 5124" class="cls-5" d="M13.7,101.552a31.18,31.18,0,0,0,2.812-12.293L8.16,85A24.237,24.237,0,0,1,3.5,93.919,4.8,4.8,0,0,1,8.723,97.7s1.286,2.973,3.134,3.455Z" transform="translate(92.517 -16.704)"/>
      <path id="패스_5125" data-name="패스 5125" class="cls-5" d="M34.342,110.243h0a.587.587,0,0,1-.482-.562,1.769,1.769,0,0,0-.08-.643.508.508,0,1,1,.964-.321,2.961,2.961,0,0,1,.08,1.205c0,.161-.241.321-.482.321" transform="translate(49.864 -21.297)"/>
      <path id="패스_5126" data-name="패스 5126" class="cls-5" d="M40.142,95.623h0a.611.611,0,0,1-.482-.643,1.769,1.769,0,0,0-.08-.643.508.508,0,1,1,.964-.321,3.063,3.063,0,0,1,.08,1.205c0,.321-.241.4-.482.4" transform="translate(39.403 -18.408)"/>
      <path id="패스_5127" data-name="패스 5127" class="cls-5" d="M33.542,96.223h0a.611.611,0,0,1-.482-.643,1.769,1.769,0,0,0-.08-.643.508.508,0,1,1,.964-.321,2.961,2.961,0,0,1,.08,1.205.45.45,0,0,1-.482.4" transform="translate(51.306 -18.526)"/>
      <path id="패스_5128" data-name="패스 5128" class="cls-5" d="M41.242,89.423h0a.611.611,0,0,1-.482-.643,1.769,1.769,0,0,0-.08-.643.508.508,0,0,1,.964-.321,2.961,2.961,0,0,1,.08,1.205.45.45,0,0,1-.482.4" transform="translate(37.42 -17.19)"/>
      <path id="패스_5129" data-name="패스 5129" class="cls-5" d="M34.542,82.223h0a.611.611,0,0,1-.482-.643,1.769,1.769,0,0,0-.08-.643.508.508,0,1,1,.964-.321,2.961,2.961,0,0,1,.08,1.205.45.45,0,0,1-.482.4" transform="translate(49.503 -15.775)"/>
      <path id="패스_5130" data-name="패스 5130" class="cls-5" d="M36.542,92.143h0a.587.587,0,0,1-.482-.562,1.769,1.769,0,0,0-.08-.643.508.508,0,1,1,.964-.321,2.961,2.961,0,0,1,.08,1.205.4.4,0,0,1-.482.321" transform="translate(45.896 -17.74)"/>
      <path id="패스_5131" data-name="패스 5131" class="cls-5" d="M37.242,77.221h0a.611.611,0,0,1-.482-.643,1.769,1.769,0,0,0-.08-.643A.546.546,0,0,1,37,75.293a.48.48,0,0,1,.643.321,3.063,3.063,0,0,1,.08,1.205.509.509,0,0,1-.482.4" transform="translate(44.633 -14.79)"/>
      <path id="패스_5132" data-name="패스 5132" class="cls-5" d="M39.442,82.923h0a.611.611,0,0,1-.482-.643,1.769,1.769,0,0,0-.08-.643.508.508,0,1,1,.964-.321,2.961,2.961,0,0,1,.08,1.205c0,.321-.161.482-.482.4" transform="translate(40.666 -15.912)"/>
      <path id="패스_5133" data-name="패스 5133" class="cls-5" d="M36.642,86.523h0a.611.611,0,0,1-.482-.643,1.769,1.769,0,0,0-.08-.643.508.508,0,1,1,.964-.321,2.961,2.961,0,0,1,.08,1.205c0,.241-.161.4-.482.4" transform="translate(45.716 -16.62)"/>
      <path id="패스_5134" data-name="패스 5134" class="cls-5" d="M35.642,100.723h0a.611.611,0,0,1-.482-.643,1.769,1.769,0,0,0-.08-.643.508.508,0,1,1,.964-.321,2.961,2.961,0,0,1,.08,1.205.4.4,0,0,1-.482.4" transform="translate(47.519 -19.41)"/>
      <path id="패스_5135" data-name="패스 5135" class="cls-5" d="M37.942,106.723h0a.611.611,0,0,1-.482-.643,1.769,1.769,0,0,0-.08-.643.508.508,0,1,1,.964-.321,2.961,2.961,0,0,1,.08,1.205.45.45,0,0,1-.482.4" transform="translate(43.371 -20.589)"/>
      <path id="패스_5136" data-name="패스 5136" class="cls-5" d="M33.542,105.023h0a.611.611,0,0,1-.482-.643,1.769,1.769,0,0,0-.08-.643.508.508,0,0,1,.964-.321,2.961,2.961,0,0,1,.08,1.205.45.45,0,0,1-.482.4" transform="translate(51.306 -20.255)"/>
      <path id="패스_5137" data-name="패스 5137" class="cls-5" d="M40.85,102.123h0a.611.611,0,0,1-.482-.643,1.769,1.769,0,0,0-.08-.643.48.48,0,0,1,.321-.643.546.546,0,0,1,.643.321,2.961,2.961,0,0,1,.08,1.205.45.45,0,0,1-.482.4" transform="translate(38.133 -19.685)"/>
      <path id="패스_5138" data-name="패스 5138" class="cls-5" d="M77.21,151.747a.534.534,0,0,1-.4-.321c-.08-.161-.321-.4-.4-.562a.524.524,0,1,1,.562-.884,2.049,2.049,0,0,1,.723.964.506.506,0,0,1-.241.643c-.08.161-.161.161-.241.161" transform="translate(-27.073 -29.456)"/>
      <path id="패스_5139" data-name="패스 5139" class="cls-5" d="M82.467,151.147a.534.534,0,0,1-.4-.321,3.4,3.4,0,0,0-.4-.562.524.524,0,1,1,.562-.884,2.049,2.049,0,0,1,.723.964.444.444,0,0,1-.241.643c-.08.08-.161.161-.241.161" transform="translate(-36.588 -29.338)"/>
      <path id="패스_5140" data-name="패스 5140" class="cls-5" d="M82.11,139.647a.534.534,0,0,1-.4-.321,3.4,3.4,0,0,0-.4-.562.524.524,0,0,1,.562-.884,2.049,2.049,0,0,1,.723.964.506.506,0,0,1-.241.643c-.08.161-.161.161-.241.161" transform="translate(-35.91 -27.079)"/>
      <path id="패스_5141" data-name="패스 5141" class="cls-5" d="M77.975,145.86a.534.534,0,0,1-.4-.321,2.442,2.442,0,0,0-.4-.562.614.614,0,0,1-.161-.723.508.508,0,0,1,.723-.08,2.049,2.049,0,0,1,.723.964.506.506,0,0,1-.241.643.3.3,0,0,1-.241.08" transform="translate(-28.48 -28.31)"/>
      <path id="패스_5142" data-name="패스 5142" class="cls-5" d="M81.958,144.947a.534.534,0,0,1-.4-.321,2.441,2.441,0,0,0-.4-.562.508.508,0,0,1-.08-.723.523.523,0,0,1,.723-.161,2.049,2.049,0,0,1,.723.964.506.506,0,0,1-.241.643c-.161.161-.241.161-.321.161" transform="translate(-35.758 -28.12)"/>
      <path id="패스_5143" data-name="패스 5143" class="cls-5" d="M77.21,141.247a.534.534,0,0,1-.4-.321c-.08-.161-.321-.4-.4-.562a.524.524,0,0,1,.562-.884,3.033,3.033,0,0,1,.8.964.506.506,0,0,1-.241.643.321.321,0,0,1-.321.161" transform="translate(-27.153 -27.393)"/>
      <path id="패스_5144" data-name="패스 5144" class="cls-5" d="M73.51,150.16a.41.41,0,0,1-.4-.321,3.4,3.4,0,0,0-.4-.562.523.523,0,0,1-.161-.723.508.508,0,0,1,.723-.08,2.049,2.049,0,0,1,.723.964.506.506,0,0,1-.241.643.3.3,0,0,1-.241.08" transform="translate(-20.4 -29.155)"/>
      <path id="패스_5145" data-name="패스 5145" class="cls-4" d="M15.1,201.216,41.213,218.25l4.017-5.3L27.072,188.2Z" transform="translate(54.482 -36.984)"/>
      <path id="패스_5146" data-name="패스 5146" class="cls-5" d="M21.7,207.6s.4,4.5-4.1,5.142c0,0-3.455.482-2.25,3.455l9,5.865,4.017-5.3Z" transform="translate(71.341 -40.796)"/>
      <path id="패스_5147" data-name="패스 5147" class="cls-3" d="M4.017,219l12.133,2.732-10.044,10.2L0,224.3Z" transform="translate(95.695 -43.036)"/>
      <path id="패스_5148" data-name="패스 5148" class="cls-4" d="M115.981,195.572l-30.533,6.348L83.6,195.572,109.553,179.1Z" transform="translate(-71.307 -35.195)"/>
      <path id="패스_5149" data-name="패스 5149" class="cls-5" d="M117.213,192s-2.009,4.1,1.928,6.267c0,0,3.053,1.768.8,4.017l-10.526,2.169-1.848-6.348Z" transform="translate(-95.358 -37.73)"/>
      <path id="패스_5150" data-name="패스 5150" class="cls-3" d="M133.893,199.148,121.6,197.3l5.7,13.1,8.437-4.9Z" transform="translate(-121.6 -38.772)"/>
      <path id="패스_5151" data-name="패스 5151" class="cls-6" d="M115.494,79.255l.4-.241a1.161,1.161,0,0,0,.562-.8,1.383,1.383,0,0,0-.161-.964l-.08-.08a1.368,1.368,0,0,0-1.768-.4l-.08.08-.4.241a.635.635,0,0,1-.723-1.045l.4-.241h0l.161-.08a2.634,2.634,0,0,1,3.455.8c0,.08.08.08.08.161a2.643,2.643,0,0,1-.884,3.455l-.4.241a.711.711,0,0,1-.884-.161,1.174,1.174,0,0,1,.321-.964" transform="translate(-96.612 -14.815)"/>
      <path id="패스_5152" data-name="패스 5152" class="cls-6" d="M124.039,72.795l.241-.4a1.383,1.383,0,0,0,.161-.964,1.358,1.358,0,0,0-.562-.8l-.08-.08a1.389,1.389,0,0,0-1.768.4l-.08.08-.241.4a.648.648,0,1,1-1.125-.643l.241-.4h0l.08-.161a2.654,2.654,0,0,1,3.455-.8c.08,0,.08.08.161.08a2.671,2.671,0,0,1,.723,3.535l-.241.4a.646.646,0,0,1-.884.241.839.839,0,0,1-.08-.884" transform="translate(-110.621 -13.577)"/>
      <path id="패스_5153" data-name="패스 5153" class="cls-3" d="M95.435,43.247l.241-.482a1.606,1.606,0,0,0,.161-1.045,1.473,1.473,0,0,0-.562-.8l-.08-.08a1.335,1.335,0,0,0-1.848.482l-.08.08h0l-.241.482a.7.7,0,1,1-1.205-.723l.241-.4c0-.08.08-.08.08-.161a2.8,2.8,0,0,1,3.7-.884c.08,0,.08.08.161.08A3.156,3.156,0,0,1,97.2,41.48a2.585,2.585,0,0,1-.321,2.009l-.241.4a.673.673,0,0,1-.964.241c-.321-.08-.4-.482-.241-.884" transform="translate(-59.118 -7.733)"/>
      <path id="패스_5154" data-name="패스 5154" class="cls-3" d="M76.279,53.017l.321-.482a2.067,2.067,0,0,0,.08-1.205,1.6,1.6,0,0,0-.643-.964l-.08-.08a1.63,1.63,0,0,0-2.089.482l-.08.08-.241.482a.773.773,0,1,1-1.366-.723l.321-.482c0-.08.08-.08.08-.161a3.056,3.056,0,0,1,4.1-.964c.08,0,.08.08.161.08a3.025,3.025,0,0,1,1.286,1.848,3.194,3.194,0,0,1-.321,2.25l-.241.482a.79.79,0,0,1-1.045.321.673.673,0,0,1-.241-.964" transform="translate(-24.293 -9.548)"/>
    </g>
    <g id="그룹_1343" data-name="그룹 1343" transform="translate(324.807 1735.562)">
      <path id="패스_5157" data-name="패스 5157" class="cls-5" d="M3.243,0A3.3,3.3,0,0,0,0,3.243V51.634a3.22,3.22,0,0,0,3.243,3.243H69.22a3.22,3.22,0,0,0,3.243-3.243V12.1L58.618,0Z"/>
      <path id="패스_5158" data-name="패스 5158" class="cls-6" d="M47,0V8.855A3.22,3.22,0,0,0,50.243,12.1H60.969Z" transform="translate(11.618)"/>
      <path id="패스_5159" data-name="패스 5159" class="cls-6" d="M48.082,28.8,45.463,43.141l-2-4.116L40.1,42.143,42.594,27.8Z" transform="translate(9.913 6.872)"/>
      <path id="패스_5160" data-name="패스 5160" class="cls-6" d="M44.7,28.8l2.619,14.343,2-4.116,3.367,3.118L50.188,27.8Z" transform="translate(11.05 6.872)"/>
      <g id="그룹_1342" data-name="그룹 1342" transform="translate(46.521 19.706)">
        <path id="패스_5161" data-name="패스 5161" class="cls-8" d="M57.629,25.9c0,.125-1.122.249-1.122.374s1.122.374,1.122.5-1.122.125-1.122.249,1.122.374,1.122.5-1.122,0-1.247.125c0,.125,1.122.5,1,.624,0,.125-1.122,0-1.247.125,0,.125,1,.624,1,.748s-1.122-.125-1.247,0c0,.125,1,.624.873.748,0,.125-1.122-.249-1.247-.125,0,.125.873.748.873.873-.125.125-1.122-.374-1.247-.249s.873.873.748,1-1.122-.374-1.122-.374c-.125.125.748.873.624,1s-1-.5-1.122-.374.748,1,.624,1c-.125.125-1-.624-1.122-.5,0,.125.624,1.122.624,1.247-.125.125-1-.624-1-.624-.125.125.5,1,.374,1.122s-.873-.748-1-.624.374,1.122.374,1.122c-.125.125-.873-.873-1-.748s.374,1.122.249,1.247-.748-.873-.873-.873.249,1.122.125,1.247c-.125,0-.624-1-.748-.873-.125,0,.125,1.122,0,1.247-.125,0-.624-1-.748-1s0,1.122-.125,1.247c-.125,0-.5-1-.624-1s0,1.122-.125,1.247c-.125,0-.374-1.122-.5-1.122s-.125,1.122-.249,1.122-.374-1.122-.5-1.122-.249,1.122-.374,1.122-.249-1.122-.374-1.122-.374,1.122-.5,1.122-.125-1.122-.249-1.122-.374,1.122-.5,1.122,0-1.122-.125-1.247c-.125,0-.5,1.122-.624,1-.125,0,0-1.122-.125-1.247-.125,0-.624,1-.748,1s.125-1.122,0-1.247c-.125,0-.624,1-.748.873-.125,0,.249-1.122.125-1.247-.125,0-.748.873-.873.873-.125-.125.374-1.122.249-1.247s-.873.873-1,.748.374-1.122.374-1.122c-.125-.125-.873.748-1,.624s.5-1,.374-1.122-1,.748-1,.624c-.125-.125.624-1,.5-1.122s-1,.624-1.122.5.624-1,.624-1c-.125-.125-1,.5-1.122.374s.748-.873.624-1-1.122.374-1.122.374c-.125-.125.873-.873.748-1s-1.122.374-1.247.249c-.374-.249.624-.873.624-1s-1.122.249-1.247.125c0-.125,1-.624.873-.748,0-.125-1.122.125-1.247,0,0-.125,1-.624,1-.748s-1.122,0-1.247-.125c0-.125,1-.5,1-.624s-1.122,0-1.247-.125c0-.125,1.122-.374,1.122-.5S37.3,26.9,37.3,26.775s1.122-.374,1.122-.5S37.3,26.027,37.3,25.9s1.122-.249,1.122-.374-1.122-.374-1.122-.5,1.122-.125,1.122-.249-1.122-.374-1.122-.5,1.122,0,1.247-.125c0-.125-1.122-.5-1-.624,0-.125,1.122,0,1.247-.125,0-.125-1-.624-1-.748s1.122.125,1.247,0c0-.125-1-.624-.873-.748,0-.125,1.122.249,1.247.125,0-.125-.873-.748-.873-.873.125-.125,1.122.374,1.247.249s-.873-.873-.748-1,1.122.374,1.122.374c.125-.125-.748-.873-.624-1s1,.5,1.122.374-.748-1-.624-1c.125-.125,1,.624,1.122.5s-.624-1-.5-1.122,1,.624,1,.624c.125-.125-.5-1-.374-1.122s.873.748,1,.624-.374-1.122-.374-1.122c.125-.125.873.873,1,.748s-.374-1.122-.249-1.247.748.873.873.873-.249-1.122-.125-1.247c.125,0,.624,1,.748.873.125,0-.125-1.122,0-1.247.125,0,.624,1,.748,1s0-1.122.125-1.247c.125,0,.5,1,.624,1s0-1.122.125-1.247c.125,0,.374,1.122.5,1.122s.125-1.122.249-1.122.374,1.122.5,1.122.249-1.122.374-1.122.249,1.122.374,1.122.374-1.122.5-1.122.125,1.122.249,1.122.374-1.122.5-1.122,0,1.122.125,1.247c.125,0,.5-1.122.624-1,.125,0,0,1.122.125,1.247.125,0,.624-1,.748-1s-.125,1.122,0,1.247c.125,0,.624-1,.748-.873.125,0-.249,1.122-.125,1.247.125,0,.748-.873.873-.873.125.125-.374,1.122-.249,1.247s.873-.873,1-.748-.374,1.122-.374,1.122c.125.125.873-.748,1-.624s-.5,1-.374,1.122,1-.748,1-.624c.125.125-.624,1-.5,1.122s1-.624,1.122-.5-.624,1-.624,1c.125.125,1-.5,1.122-.374s-.748.873-.624,1,1.122-.374,1.122-.374c.125.125-.873.873-.748,1s1.122-.374,1.247-.249-.873.748-.873.873,1.122-.249,1.247-.125c0,.125-1,.624-.873.748,0,.125,1.122-.125,1.247,0,0,.125-1,.624-1,.748s1.122,0,1.247.125c0,.125-1,.5-1,.624s1.122,0,1.247.125c0,.125-1.122.374-1.122.5s1.122.125,1.122.249-1.122.374-1.122.5S57.629,25.778,57.629,25.9Z" transform="translate(-37.3 -15.8)"/>
      </g>
      <path id="패스_5162" data-name="패스 5162" class="cls-5" d="M47.007,33.514a8.107,8.107,0,1,1,8.107-8.107A8.091,8.091,0,0,1,47.007,33.514Z" transform="translate(9.616 4.277)"/>
      <path id="패스_5163" data-name="패스 5163" class="cls-5" d="M46.933,33.165a7.733,7.733,0,1,1,7.733-7.733A7.614,7.614,0,0,1,46.933,33.165Zm0-15.465a7.733,7.733,0,1,0,7.733,7.733A7.692,7.692,0,0,0,46.933,17.7Z" transform="translate(9.69 4.375)"/>
      <path id="패스_5164" data-name="패스 5164" class="cls-5" d="M46.933,17.7a7.733,7.733,0,1,0,7.733,7.733A7.54,7.54,0,0,0,46.933,17.7Zm0,14.218a6.485,6.485,0,1,1,6.485-6.485A6.521,6.521,0,0,1,46.933,31.918Z" transform="translate(9.69 4.375)"/>
      <circle id="타원_136" data-name="타원 136" class="cls-8" cx="5.987" cy="5.987" r="5.987" transform="translate(50.636 23.822)"/>
      <rect id="사각형_486" data-name="사각형 486" class="cls-6" width="36.044" height="2.744" transform="translate(4.989 7.733)"/>
      <rect id="사각형_487" data-name="사각형 487" class="cls-6" width="26.69" height="2.744" transform="translate(4.989 21.452)"/>
      <rect id="사각형_488" data-name="사각형 488" class="cls-6" width="19.83" height="2.744" transform="translate(4.989 14.592)"/>
      <rect id="사각형_489" data-name="사각형 489" class="cls-6" width="19.83" height="2.744" transform="translate(4.989 28.436)"/>
      <rect id="사각형_490" data-name="사각형 490" class="cls-6" width="26.69" height="2.744" transform="translate(4.989 42.155)"/>
      <rect id="사각형_491" data-name="사각형 491" class="cls-6" width="35.67" height="2.744" transform="translate(4.989 35.296)"/>
    </g>
    <g id="그룹_1344" data-name="그룹 1344" transform="translate(508.479 1722.55)">
      <path id="패스_5165" data-name="패스 5165" class="cls-9" d="M46.8,36.9" transform="translate(15.043 11.861)"/>
      <path id="패스_5166" data-name="패스 5166" class="cls-5" d="M25.361,44.921h0c.132,2.114.264,4.493.4,7,.132,2.379.264,4.757.4,7,.132,1.85.132,3.7.264,5.418a.4.4,0,0,0,0,.529v1.189c.132,1.718.132,3.039.264,3.964v.925h0v.4c.132.529.264.925.529.925h0c.132.132.264.132.529.264a5.187,5.187,0,0,0,1.85.4c.529,0,1.189.132,1.718.132h1.321c.4-.4.132-.661-.4-.793a9.111,9.111,0,0,0-1.321-.529c-.661-.264-1.189-.529-1.718-.793.132-.793.4-2.246.661-4.757,0-.4.132-.793.132-1.321.132-1.586.4-3.436.529-5.682.132-2.114.264-4.361.4-7v-.529c0-1.454.264-4.229.264-6.607,0-1.321.132-2.511.132-3.3,0-1.454.132-2.643.132-3.832.132-3.171.264-5.154.264-7a45.911,45.911,0,0,0-.264-5.682c0-.529-.132-.925-.132-1.321-.132-1.057-.264-2.114-.4-3.039A20.737,20.737,0,0,1,32.5,23.646a.461.461,0,0,0,.132.264,14.2,14.2,0,0,1,1.189,7c0,1.85-.264,4.1-.529,7a3.284,3.284,0,0,1-.132,1.057,1.7,1.7,0,0,0,.132.925l.132.132h.264c.529,0,.793-.793.793-.793a8.211,8.211,0,0,0,.4-1.321,48.137,48.137,0,0,0,1.189-7,14.63,14.63,0,0,0,0-3.436,20.347,20.347,0,0,0-.925-3.568,47.512,47.512,0,0,0-1.85-4.625,5.331,5.331,0,0,0-2.114-2.379,5.356,5.356,0,0,0-1.189-.661A5.322,5.322,0,0,1,28,14.661a.129.129,0,0,0-.132-.132h0l-.4-.4V14a6.078,6.078,0,0,0,2.246-4.1,2.85,2.85,0,0,0,.529-1.85A2.91,2.91,0,0,0,30.118,7a4.793,4.793,0,0,0-4.625-4.1A4.771,4.771,0,0,0,21,6.6a6.4,6.4,0,0,1,3.039,4.229,3.658,3.658,0,0,1,.132,1.189,7.535,7.535,0,0,1-.132,1.718,7.388,7.388,0,0,1-1.85,4.1v.132c.132.264.529.661,1.586,1.189a7,7,0,0,1,1.321.793,6.877,6.877,0,0,1,2.379,2.775,36.013,36.013,0,0,1,1.85,4.757,17.629,17.629,0,0,1,.925,3.832,16.713,16.713,0,0,1,0,3.7,46.3,46.3,0,0,1-1.189,7.268,3.722,3.722,0,0,1-.529,1.454,1.714,1.714,0,0,1-1.586,1.321,1.191,1.191,0,0,1-.661-.132,1.319,1.319,0,0,1-.661-.529" transform="translate(6.75 0.932)"/>
      <path id="패스_5167" data-name="패스 5167" class="cls-5" d="M30.661,42.154h0c.132,2.114.264,4.493.4,7,.132,2.379.264,4.757.4,7,.132,1.85.132,3.7.264,5.418-.132.132-.132.264,0,.529V63.3c.132,1.718.132,3.039.264,3.964v.925h0v.4c.132.529.264.925.529.925h0c.132.132.264.132.529.264a5.187,5.187,0,0,0,1.85.4c.529,0,1.189.132,1.718.132h1.321c.4-.4.132-.661-.4-.793a9.11,9.11,0,0,0-1.321-.529c-.661-.264-1.189-.529-1.718-.793.132-.793.4-2.246.661-4.757,0-.4.132-.793.132-1.321.132-1.586.4-3.436.529-5.682.132-2.114.264-4.361.4-7v-.529c0-1.454.264-4.229.264-6.607,0-1.321.132-2.511.132-3.3,0-1.454.132-2.643.132-3.832.132-3.171.264-5.154.264-7a45.91,45.91,0,0,0-.264-5.682c0-.529-.132-.925-.132-1.321-.132-1.057-.264-2.114-.4-3.039A20.736,20.736,0,0,1,37.8,20.879a.461.461,0,0,0,.132.264,14.2,14.2,0,0,1,1.189,7c0,1.85-.264,4.1-.529,7a3.284,3.284,0,0,1-.132,1.057,1.7,1.7,0,0,0,.132.925l.132.132h.264c.529,0,.793-.793.793-.793a8.211,8.211,0,0,0,.4-1.321,48.136,48.136,0,0,0,1.189-7,14.5,14.5,0,0,0,0-3.436,20.347,20.347,0,0,0-.925-3.568,47.512,47.512,0,0,0-1.85-4.625,5.331,5.331,0,0,0-2.114-2.379,5.356,5.356,0,0,0-1.189-.661A5.322,5.322,0,0,1,33.3,11.893a.129.129,0,0,0-.132-.132h0l-.4-.4v-.132a6.078,6.078,0,0,0,2.246-4.1,6.434,6.434,0,0,0,.132-1.586,2.91,2.91,0,0,0-.132-1.057A4.242,4.242,0,0,0,30.793,0,4.771,4.771,0,0,0,26.3,3.7a6.4,6.4,0,0,1,3.039,4.229,3.658,3.658,0,0,1,.132,1.189,7.535,7.535,0,0,1-.132,1.718,7.388,7.388,0,0,1-1.85,4.1v.132c.132.264.529.661,1.586,1.189a7,7,0,0,1,1.321.793,6.877,6.877,0,0,1,2.379,2.775,36.014,36.014,0,0,1,1.85,4.757,17.629,17.629,0,0,1,.925,3.832,16.713,16.713,0,0,1,0,3.7,46.3,46.3,0,0,1-1.189,7.268,3.722,3.722,0,0,1-.529,1.454,1.714,1.714,0,0,1-1.586,1.321,1.191,1.191,0,0,1-.661-.132,1.319,1.319,0,0,1-.661-.529" transform="translate(8.454)"/>
      <path id="패스_5168" data-name="패스 5168" class="cls-5" d="M16.26,44.921h0c-.132,2.114-.264,4.493-.4,7-.132,2.379-.264,4.757-.4,7-.132,1.85-.132,3.7-.264,5.418a.4.4,0,0,1,0,.529v1.189c-.132,1.718-.132,3.039-.264,3.964v.925h0v.4c-.132.529-.264.925-.529.925h0c-.132.132-.264.132-.529.264a5.187,5.187,0,0,1-1.85.4c-.529,0-1.189.132-1.718.132H8.86c-.4-.4-.132-.661.4-.793a9.111,9.111,0,0,1,1.321-.529c.661-.264,1.189-.529,1.718-.793-.132-.793-.4-2.246-.661-4.757,0-.4-.132-.793-.132-1.321-.132-1.586-.4-3.436-.529-5.682-.132-2.114-.264-4.361-.4-7v-.529c0-1.454-.264-4.229-.264-6.607,0-1.321-.132-2.511-.132-3.3,0-1.454-.132-2.643-.132-3.832-.132-3.171-.264-5.154-.264-7a45.911,45.911,0,0,1,.264-5.682c0-.529.132-.925.132-1.321.132-1.057.264-2.114.4-3.039a20.736,20.736,0,0,0-1.586,2.775.461.461,0,0,1-.132.264,14.2,14.2,0,0,0-1.189,7c0,1.85.264,4.1.529,7a3.284,3.284,0,0,0,.132,1.057A1.7,1.7,0,0,1,8.2,39.9l-.132.132H7.8c-.529,0-.793-.793-.793-.793a8.211,8.211,0,0,1-.4-1.321,48.136,48.136,0,0,1-1.189-7,14.63,14.63,0,0,1,0-3.436,20.347,20.347,0,0,1,.925-3.568A47.512,47.512,0,0,1,8.2,19.286a5.331,5.331,0,0,1,2.114-2.379,5.356,5.356,0,0,1,1.189-.661,5.322,5.322,0,0,0,1.982-1.586.129.129,0,0,1,.132-.132h0l.4-.4V14a6.078,6.078,0,0,1-2.246-4.1,3.59,3.59,0,0,1-.4-1.85A2.91,2.91,0,0,1,11.5,7a4.793,4.793,0,0,1,4.625-4.1,4.771,4.771,0,0,1,4.493,3.7,6.4,6.4,0,0,0-3.039,4.229,3.658,3.658,0,0,0-.132,1.189,7.535,7.535,0,0,0,.132,1.718,7.388,7.388,0,0,0,1.85,4.1v.132c-.132.264-.529.661-1.586,1.189a7,7,0,0,0-1.321.793,6.877,6.877,0,0,0-2.379,2.775,36.013,36.013,0,0,0-1.85,4.757,17.629,17.629,0,0,0-.925,3.832,16.713,16.713,0,0,0,0,3.7,46.3,46.3,0,0,0,1.189,7.268,8.718,8.718,0,0,0,.529,1.454,1.714,1.714,0,0,0,1.586,1.321,1.191,1.191,0,0,0,.661-.132A1.319,1.319,0,0,0,16,44.393" transform="translate(1.712 0.932)"/>
      <path id="패스_5169" data-name="패스 5169" class="cls-5" d="M11.1,42.154h0c-.132,2.114-.264,4.493-.4,7-.132,2.379-.264,4.757-.4,7-.132,1.85-.132,3.7-.264,5.418.132.132.132.264,0,.529V63.3c-.132,1.718-.132,3.039-.264,3.964v.925h0v.4c-.132.529-.264.925-.529.925h0c-.132.132-.264.132-.529.264a5.187,5.187,0,0,1-1.85.4c-.529,0-1.189.132-1.718.132H3.7c-.4-.4-.132-.661.4-.793a9.11,9.11,0,0,1,1.321-.529c.661-.264,1.189-.529,1.718-.793-.132-.793-.4-2.246-.661-4.757,0-.4-.132-.793-.132-1.321-.132-1.586-.4-3.436-.529-5.682-.132-2.114-.264-4.361-.4-7v-.529c0-1.454-.264-4.229-.264-6.607,0-1.321-.132-2.511-.132-3.3,0-1.454-.132-2.643-.132-3.832-.132-3.171-.264-5.154-.264-7a45.911,45.911,0,0,1,.264-5.682c0-.529.132-.925.132-1.321a22.276,22.276,0,0,1,.264-3.3A20.737,20.737,0,0,0,3.7,20.614a.461.461,0,0,1-.132.264,14.2,14.2,0,0,0-1.189,7c0,1.85.264,4.1.529,7a3.284,3.284,0,0,0,.132,1.057,1.7,1.7,0,0,1-.132.925l-.264.264H2.379c-.529,0-.793-.793-.793-.793a8.211,8.211,0,0,1-.4-1.321,48.136,48.136,0,0,1-1.189-7c0-1.454,0-2.775,0-3.436a20.347,20.347,0,0,1,.925-3.568,47.512,47.512,0,0,1,1.85-4.625,5.331,5.331,0,0,1,2.114-2.379,3.12,3.12,0,0,1,1.189-.793,5.322,5.322,0,0,0,1.982-1.586.129.129,0,0,1,.132-.132h0l.4-.4v-.132a6.078,6.078,0,0,1-2.246-4.1,7.734,7.734,0,0,1-.264-1.718A2.91,2.91,0,0,1,6.211,4.1,4.793,4.793,0,0,1,10.836,0a4.771,4.771,0,0,1,4.493,3.7,6.4,6.4,0,0,0-3.039,4.229V9.118a7.535,7.535,0,0,0,.132,1.718,7.388,7.388,0,0,0,1.85,4.1v.132c-.132.264-.529.661-1.586,1.189a7,7,0,0,0-1.321.793,6.877,6.877,0,0,0-2.379,2.775,36.013,36.013,0,0,0-1.85,4.757,17.629,17.629,0,0,0-.925,3.832,16.713,16.713,0,0,0,0,3.7A46.3,46.3,0,0,0,7.4,39.379a8.718,8.718,0,0,0,.529,1.454,1.714,1.714,0,0,0,1.586,1.321,1.191,1.191,0,0,0,.661-.132,1.319,1.319,0,0,0,.661-.529"/>
      <path id="패스_5170" data-name="패스 5170" class="cls-6" d="M32.873,30.214a20.347,20.347,0,0,0-.925-3.568,47.513,47.513,0,0,0-1.85-4.625,5.331,5.331,0,0,0-2.114-2.379,5.356,5.356,0,0,0-1.189-.661A5.322,5.322,0,0,1,24.813,17.4a.129.129,0,0,0-.132-.132h0l-.4-.4v-.132a6.078,6.078,0,0,0,2.246-4.1,6.433,6.433,0,0,0,.132-1.586A2.91,2.91,0,0,0,26.53,10a4.793,4.793,0,0,0-4.625-4.1,5,5,0,0,0-4.757,5.154,6.434,6.434,0,0,0,.132,1.586,5.55,5.55,0,0,0,2.246,4.1L19,17.264h0l-.132.132a5.031,5.031,0,0,1-.793.661h0c-1.189.925-2.511,1.057-3.568,1.586a3.443,3.443,0,0,0-1.454,1.586,52.2,52.2,0,0,0-2.114,5.418,23.829,23.829,0,0,0-.925,3.568,12.123,12.123,0,0,0,.264,3.568,45.864,45.864,0,0,0,1.586,7,3.957,3.957,0,0,0,.529,1.321s.4,1.057.925.661c0,0,.264-.132.264-1.057a2.91,2.91,0,0,0-.132-1.057c-.264-3.039-.4-5.286-.529-7a15.87,15.87,0,0,1,1.189-7,.461.461,0,0,1,.132-.264q.595-1.189,1.586-2.775c-.132.925-.264,1.982-.4,3.039,0,.4-.132.925-.132,1.321a45.911,45.911,0,0,0-.264,5.682c0,1.982.132,3.964.264,7,0,1.057.132,2.379.132,3.832,0,.661,0,1.85.132,3.3.132,2.379.264,5.021.264,6.607v.529c.132,2.643.264,5.021.4,7,.264,2.907.4,5.286.661,7,.264,2.511.529,4.1.661,4.757-.529.264-1.189.529-1.718.793a5.522,5.522,0,0,0-1.321.529c-.529.264-.793.529-.4.793H15.43a7.535,7.535,0,0,0,1.718-.132,4.664,4.664,0,0,0,1.85-.4,1,1,0,0,0,.529-.264h0c.132,0,.4-.264.529-.925v-.529c0-.264.132-.661,0-.925,0-.925.132-2.379.264-3.964.132-1.982.264-4.493.4-7,.132-2.246.264-4.757.4-7,.132-2.511.264-5.021.4-7h0c.132,2.114.264,4.493.4,7,.132,2.379.264,4.757.4,7,.132,1.85.132,3.7.264,5.418-.132.132-.132.264,0,.529V68.8c.132,1.718.132,3.039.264,3.964v.925h0v.4c.132.529.264.925.529.925h0c.132.132.264.132.529.264a5.187,5.187,0,0,0,1.85.4c.529,0,1.189.132,1.718.132h1.321c.4-.4.132-.661-.4-.793a9.11,9.11,0,0,0-1.321-.529c-.661-.264-1.189-.529-1.718-.793.132-.793.4-2.246.661-4.757,0-.4.132-.793.132-1.321.132-1.586.4-3.436.529-5.682.132-2.114.264-4.361.4-7V54.4c0-1.454.264-4.229.264-6.607,0-1.321.132-2.511.132-3.3,0-1.454.132-2.643.132-3.832.132-3.171.264-5.154.264-7a45.91,45.91,0,0,0-.264-5.682c0-.529-.132-.925-.132-1.321-.132-1.057-.264-2.114-.4-3.039a20.736,20.736,0,0,1,1.586,2.775.461.461,0,0,0,.132.264,14.2,14.2,0,0,1,1.189,7c0,1.85-.264,4.1-.529,7a3.284,3.284,0,0,1-.132,1.057,1.7,1.7,0,0,0,.132.925l.132.132h.264c.529,0,.793-.793.793-.793a8.211,8.211,0,0,0,.4-1.321,48.136,48.136,0,0,0,1.189-7A5.2,5.2,0,0,0,32.873,30.214Z" transform="translate(3.202 1.896)"/>
      <path id="패스_5171" data-name="패스 5171" class="cls-5" d="M18.014,15.493c0-.132.132-.132.132-.264l1.321-.529h.4l1.189.793c.132,0,.132.132.132.264s0,.264-.132.264l-1.321,1.718,1.321,9.118v.264l-1.321,2.246a.485.485,0,0,1-.4.132h0c-.132,0-.132-.132-.264-.264l-1.057-2.379v-.264l1.057-8.854-1.057-1.982A.183.183,0,0,1,18.014,15.493Z" transform="translate(5.771 4.725)"/>
    </g>
    <g id="그룹_1352" data-name="그룹 1352" transform="translate(672 1723)">
      <path id="패스_5173" data-name="패스 5173" class="cls-6" d="M58.687,73.224a2.928,2.928,0,0,1-3,3H3a3.016,3.016,0,0,1-3-3V5.4a2.928,2.928,0,0,1,3-3h52.69a2.928,2.928,0,0,1,3,3Z" transform="translate(0 1.027)"/>
      <path id="패스_5174" data-name="패스 5174" class="cls-5" d="M53.119,68.256a2.928,2.928,0,0,1-3,3H6a2.928,2.928,0,0,1-3-3V8A2.928,2.928,0,0,1,6,5H50.121a2.928,2.928,0,0,1,3,3Z" transform="translate(1.284 2.14)"/>
      <path id="패스_5175" data-name="패스 5175" class="cls-6" d="M38.273,7a2.928,2.928,0,0,1-3,3H14a2.926,2.926,0,0,1-3-3V3a3.016,3.016,0,0,1,3-3H35.274a2.928,2.928,0,0,1,3,3Z" transform="translate(4.707)"/>
      <path id="패스_5176" data-name="패스 5176" class="cls-10" d="M13.225,23.01H7.513A1.65,1.65,0,0,1,5.8,21.3V16.013A1.65,1.65,0,0,1,7.513,14.3h5.712a1.65,1.65,0,0,1,1.713,1.713V21.3A1.736,1.736,0,0,1,13.225,23.01ZM7.513,15.3a.675.675,0,0,0-.714.714V21.3a.675.675,0,0,0,.714.714h5.712a.675.675,0,0,0,.714-.714V16.013a.675.675,0,0,0-.714-.714H7.513Z" transform="translate(2.482 6.119)"/>
      <path id="패스_5177" data-name="패스 5177" class="cls-10" d="M13.225,33.41H7.513A1.65,1.65,0,0,1,5.8,31.7V26.413A1.65,1.65,0,0,1,7.513,24.7h5.712a1.65,1.65,0,0,1,1.713,1.713V31.7A1.736,1.736,0,0,1,13.225,33.41ZM7.513,25.7a.675.675,0,0,0-.714.714V31.7a.675.675,0,0,0,.714.714h5.712a.675.675,0,0,0,.714-.714V26.413a.675.675,0,0,0-.714-.714Z" transform="translate(2.482 10.569)"/>
      <path id="패스_5178" data-name="패스 5178" class="cls-10" d="M13.225,43.81H7.513A1.65,1.65,0,0,1,5.8,42.1V36.813A1.65,1.65,0,0,1,7.513,35.1h5.712a1.65,1.65,0,0,1,1.713,1.713V42.1A1.736,1.736,0,0,1,13.225,43.81ZM7.513,36.1a.675.675,0,0,0-.714.714V42.1a.675.675,0,0,0,.714.714h5.712a.675.675,0,0,0,.714-.714V36.813a.675.675,0,0,0-.714-.714Z" transform="translate(2.482 15.019)"/>
      <path id="패스_5179" data-name="패스 5179" class="cls-10" d="M43.258,19.242H14.271a.571.571,0,0,1,0-1.142H43.258a.614.614,0,0,1,.571.571C43.829,19.1,43.686,19.242,43.258,19.242Z" transform="translate(5.862 7.745)"/>
      <path id="패스_5180" data-name="패스 5180" class="cls-10" d="M43.258,29.642H14.271a.571.571,0,0,1,0-1.142H43.258a.614.614,0,0,1,.571.571C43.829,29.5,43.686,29.642,43.258,29.642Z" transform="translate(5.862 12.195)"/>
      <path id="패스_5181" data-name="패스 5181" class="cls-10" d="M43.258,40.042H14.271a.571.571,0,0,1,0-1.142H43.258a.614.614,0,0,1,.571.571C43.829,39.9,43.686,40.042,43.258,40.042Z" transform="translate(5.862 16.645)"/>
      <path id="패스_5182" data-name="패스 5182" class="cls-8" d="M10.969,20.117h0a.863.863,0,0,1-.857-.428L7.256,15.833A.977.977,0,0,1,7.542,14.4a.977.977,0,0,1,1.428.286l2.285,3,6.426-5.712a1.015,1.015,0,1,1,1.285,1.571l-7.282,6.568C11.4,19.974,11.112,20.117,10.969,20.117Z" transform="translate(3.025 5.015)"/>
      <path id="패스_5183" data-name="패스 5183" class="cls-8" d="M10.969,29.5h0a.863.863,0,0,1-.857-.428L7.256,25.218a.977.977,0,0,1,.286-1.428.977.977,0,0,1,1.428.286l2.142,2.713,6.426-5.712a1.015,1.015,0,0,1,1.285,1.571L11.54,29.217A1.083,1.083,0,0,1,10.969,29.5Z" transform="translate(3.025 8.908)"/>
      <g id="그룹_1347" data-name="그룹 1347" transform="translate(18.277 3.57)">
        <g id="그룹_1345" data-name="그룹 1345" class="cls-11" transform="translate(0.428 0.428)">
          <circle id="타원_137" data-name="타원 137" class="cls-12" cx="1.428" cy="1.428" r="1.428"/>
        </g>
        <g id="그룹_1346" data-name="그룹 1346">
          <circle id="타원_138" data-name="타원 138" class="cls-5" cx="1.428" cy="1.428" r="1.428"/>
        </g>
      </g>
      <g id="그룹_1350" data-name="그룹 1350" transform="translate(37.411 3.57)">
        <g id="그룹_1348" data-name="그룹 1348" class="cls-11" transform="translate(0.428 0.428)">
          <circle id="타원_139" data-name="타원 139" class="cls-12" cx="1.428" cy="1.428" r="1.428"/>
        </g>
        <g id="그룹_1349" data-name="그룹 1349">
          <circle id="타원_140" data-name="타원 140" class="cls-5" cx="1.428" cy="1.428" r="1.428"/>
        </g>
      </g>
      <g id="그룹_1351" data-name="그룹 1351" transform="translate(24.703 30.414)">
        <path id="패스_5184" data-name="패스 5184" class="cls-8" d="M17.3,21.3l1.285,2,1.142-1.713Z" transform="translate(-17.3 -21.3)"/>
        <path id="패스_5185" data-name="패스 5185" class="cls-5" d="M23.769,22.071,19.342,21.5,18.2,23.213l2.57,3.713Z" transform="translate(-16.915 -21.214)"/>
        <path id="패스_5186" data-name="패스 5186" class="cls-5" d="M52.357,45.227a.93.93,0,0,1-1.285.286L47.93,43.657a.93.93,0,0,1-.286-1.285L49.5,39.23a.93.93,0,0,1,1.285-.286L53.927,40.8a.93.93,0,0,1,.286,1.285Z" transform="translate(-4.379 -13.813)"/>
        <rect id="사각형_492" data-name="사각형 492" class="cls-5" width="5.712" height="1.142" transform="translate(31.802 22.625) rotate(-58.627)"/>
        <rect id="사각형_493" data-name="사각형 493" class="cls-5" width="5.712" height="1.142" transform="matrix(0.52, -0.854, 0.854, 0.52, 18.869, 14.744)"/>
        <path id="패스_5187" data-name="패스 5187" class="cls-13" d="M18.2,23.057l2.57,3.713L22.2,24.342,18.771,22.2Z" transform="translate(-16.915 -20.915)"/>
        <path id="패스_5188" data-name="패스 5188" class="cls-13" d="M48.644,40.3l-1,1.571a.93.93,0,0,0,.286,1.285l3.141,1.856a.93.93,0,0,0,1.285-.286l1-1.571Z" transform="translate(-4.379 -13.17)"/>
        <path id="패스_5189" data-name="패스 5189" class="cls-8" d="M63.123,48.031h0l.714-1.142L23,21.9l-1.285.857-1.571,2.57h.143L20,26.755,60.838,51.6l.714-1h.143Z" transform="translate(-16.145 -21.043)"/>
        <path id="패스_5190" data-name="패스 5190" class="cls-14" d="M21,23.4l-.857,1.285h.143L20,26.113,60.838,50.959l.714-1h.143l.714-1.285Z" transform="translate(-16.145 -20.401)"/>
        <rect id="사각형_494" data-name="사각형 494" class="cls-10" width="5.712" height="1.142" transform="matrix(0.52, -0.854, 0.854, 0.52, 44.743, 30.514)"/>
      </g>
    </g>
    <g id="그룹_1353" data-name="그룹 1353" transform="translate(842 1723)">
      <path id="패스_5191" data-name="패스 5191" class="cls-5" d="M58.509,3.5A3.448,3.448,0,0,0,55,0H3.5A3.448,3.448,0,0,0,0,3.5V73.745a3.448,3.448,0,0,0,3.5,3.5H45.557L58.509,62.318Z"/>
      <path id="패스_5192" data-name="패스 5192" class="cls-6" d="M42.851,40.9H33.4a3.448,3.448,0,0,0-3.5,3.5V55.832Z" transform="translate(15.657 21.418)"/>
      <circle id="타원_141" data-name="타원 141" class="cls-15" cx="15.084" cy="15.084" r="15.084" transform="translate(14.627 8.685)"/>
      <circle id="타원_142" data-name="타원 142" class="cls-8" cx="14.779" cy="14.779" r="14.779" transform="translate(13.713 8.075)"/>
      <circle id="타원_143" data-name="타원 143" class="cls-8" cx="13.713" cy="13.713" r="13.713" transform="translate(14.779 9.142)"/>
      <text id="_" data-name="$" class="cls-16" transform="translate(22.839 28.085)"><tspan x="0" y="0">$</tspan></text>
      <rect id="사각형_495" data-name="사각형 495" class="cls-6" width="34.13" height="2.285" transform="translate(5.942 42.967)"/>
      <rect id="사각형_496" data-name="사각형 496" class="cls-6" width="46.624" height="2.285" transform="translate(5.942 46.929)"/>
      <rect id="사각형_497" data-name="사각형 497" class="cls-6" width="40.072" height="2.285" transform="translate(5.942 51.043)"/>
      <rect id="사각형_498" data-name="사각형 498" class="cls-6" width="46.624" height="2.285" transform="translate(5.942 55.004)"/>
      <rect id="사각형_499" data-name="사각형 499" class="cls-6" width="46.624" height="2.285" transform="translate(5.942 58.966)"/>
      <rect id="사각형_500" data-name="사각형 500" class="cls-6" width="26.664" height="2.285" transform="translate(5.942 63.079)"/>
    </g>
    <g id="그룹_1356" data-name="그룹 1356" transform="translate(1003 1706)">
      <rect id="사각형_501" data-name="사각형 501" class="cls-5" width="49.7" height="28.9" transform="translate(1 27.9)"/>
      <path id="패스_5193" data-name="패스 5193" class="cls-15" d="M50.7,57.8H1a.945.945,0,0,1-1-1V27.9a.945.945,0,0,1,1-1H50.7a.945.945,0,0,1,1,1V56.8A1,1,0,0,1,50.7,57.8ZM2,55.8H49.7V28.9H2Z"/>
      <rect id="사각형_502" data-name="사각형 502" class="cls-17" width="14.7" height="18.4" transform="translate(4.5 32.6)"/>
      <path id="패스_5194" data-name="패스 5194" class="cls-15" d="M29,30.5a.945.945,0,0,1-1-1V23a2.3,2.3,0,1,0-4.6,0v6.6a1,1,0,0,1-2,0V23A4.3,4.3,0,1,1,30,23v6.6A.923.923,0,0,1,29,30.5Z"/>
      <path id="패스_5195" data-name="패스 5195" class="cls-18" d="M20,9.1V.8a.3.3,0,1,1,.6,0V9.1a2.2,2.2,0,0,0,4.4,0V7a2.8,2.8,0,1,1,5.6,0V20.3a2.8,2.8,0,0,1-2.8,2.8,2.693,2.693,0,0,1-2.4-1.4c-.1-.1,0-.3.1-.4s.3,0,.4.1a2.144,2.144,0,0,0,1.9,1.1A2.22,2.22,0,0,0,30,20.3V7a2.2,2.2,0,0,0-4.4,0V9a2.8,2.8,0,0,1-2.8,2.8A2.653,2.653,0,0,1,20,9.1Z"/>
      <path id="패스_5196" data-name="패스 5196" class="cls-5" d="M27.7,23.6a3.242,3.242,0,0,1-2.9-1.7,1.268,1.268,0,0,1-.1-.6,1,1,0,0,1,.4-.5.829.829,0,0,1,1.1.3,1.859,1.859,0,0,0,1.5.9,1.752,1.752,0,0,0,1.7-1.7V7A1.7,1.7,0,0,0,26,7V9a3.3,3.3,0,1,1-6.6,0V.8a.86.86,0,0,1,.8-.8.789.789,0,0,1,.8.8V9.1a1.7,1.7,0,0,0,3.4,0V7a3.329,3.329,0,0,1,3.3-3.3A3.4,3.4,0,0,1,31,7V20.3A3.329,3.329,0,0,1,27.7,23.6Z"/>
      <g id="그룹_1354" data-name="그룹 1354" class="cls-19">
        <path id="패스_5197" data-name="패스 5197" class="cls-15" d="M51.4,48.4c0,.1-1,.2-1,.3s1,.3,1,.4-1,.1-1,.2,1,.4.9.5c0,.1-1,0-1,.2,0,.1.9.5.9.6s-1,0-1.1.1c0,.1.9.5.8.6,0,.1-1-.1-1.1,0,0,.1.8.6.8.7s-1-.2-1.1-.1.8.7.7.8-1-.3-1-.2c-.1.1.7.7.7.8-.1.1-1-.4-1-.3-.1.1.7.8.6.9s-.9-.5-1-.4.6.8.5.9-.9-.5-1-.4.5.9.4,1-.8-.6-.9-.5.5.9.4,1-.8-.7-.9-.6.4,1,.3,1c-.1.1-.7-.7-.8-.7-.1.1.3,1,.2,1-.1.1-.7-.8-.8-.7s.2,1,.1,1.1c-.1,0-.6-.8-.7-.8s.1,1,0,1.1c-.1,0-.5-.9-.6-.9s0,1-.1,1.1c-.1,0-.4-.9-.6-.9-.1,0,0,1-.2,1-.1,0-.4-1-.5-.9-.1,0-.1,1-.2,1s-.3-1-.4-1-.2,1-.3,1-.2-1-.3-1-.3,1-.4,1-.1-1-.2-1-.4,1-.5.9c-.1,0,0-1-.2-1-.1,0-.5.9-.6.9s0-1-.1-1.1c-.1,0-.5.9-.6.8-.1,0,.1-1,0-1.1-.1,0-.6.8-.7.8s.2-1,.1-1.1-.7.8-.8.7.3-1,.2-1c-.1-.1-.7.7-.8.7-.1-.1.4-1,.3-1-.1-.1-.8.7-.9.6s.5-.9.4-1-.8.6-.9.5.5-.9.4-1-.9.5-1,.4.6-.8.5-.9-.9.5-1,.4.7-.8.6-.9-1,.4-1,.3c-.1-.1.7-.7.7-.8-.1-.1-1,.3-1,.2-.1-.1.8-.7.7-.8s-1,.2-1.1.1c0-.1.8-.6.8-.7s-1,.1-1.1,0c0-.1.9-.5.8-.6,0-.1-1,0-1.1-.1,0-.1.9-.4.9-.6,0-.1-1,0-1-.2,0-.1,1-.4.9-.5,0-.1-1-.1-1-.2s1-.3,1-.4-1-.2-1-.3,1-.2,1-.3-1-.3-1-.4,1-.1,1-.2-1-.4-.9-.5c0-.1,1,0,1-.2,0-.1-.9-.5-.9-.6s1,0,1.1-.1c0-.1-.9-.5-.8-.6,0-.1,1,.1,1.1,0,0-.1-.8-.6-.8-.7s1,.2,1.1.1-.8-.7-.7-.8,1,.3,1,.2c.1-.1-.7-.7-.7-.8.1-.1,1,.4,1,.3.1-.1-.7-.8-.6-.9s.9.5,1,.4-.6-.8-.5-.9.9.5,1,.4-.5-.9-.4-1,.8.6.9.5-.5-.9-.4-1,.8.7.9.6-.4-1-.3-1c.1-.1.7.7.8.7.1-.1-.3-1-.2-1,.1-.1.7.8.8.7s-.2-1-.1-1.1c.1,0,.6.8.7.8s-.1-1,0-1.1c.1,0,.5.9.6.8.1,0,0-1,.1-1.1.1,0,.4.9.6.9.1,0,0-1,.2-1,.1,0,.4,1,.5.9.1,0,.1-1,.2-1s.3,1,.4,1,.2-1,.3-1,.2,1,.3,1,.3-1,.4-1,.1,1,.2,1,.4-1,.5-.9c.1,0,0,1,.2,1,.1,0,.5-.9.6-.9s0,1,.1,1.1c.1,0,.5-.9.6-.8.1,0-.1,1,0,1.1.1,0,.6-.8.7-.8s-.2,1-.1,1.1.7-.8.8-.7-.3,1-.2,1c.1.1.7-.7.8-.7.1.1-.4,1-.3,1,.1.1.8-.7.9-.6s-.5.9-.4,1,.8-.6.9-.5-.5.9-.4,1,.9-.5,1-.4-.6.8-.5.9.9-.5,1-.4-.7.8-.6.9,1-.4,1-.3c.1.1-.7.7-.7.8.1.1,1-.3,1-.2.1.1-.8.7-.7.8s1-.2,1.1-.1c0,.1-.8.6-.8.7s1-.1,1.1,0c0,.1-.9.5-.8.6,0,.1,1,0,1.1.1,0,.1-.9.4-.9.6,0,.1,1,0,1,.2,0,.1-1,.4-.9.5,0,.1,1,.1,1,.2s-1,.3-1,.4S51.4,48.2,51.4,48.4Z"/>
      </g>
      <circle id="타원_144" data-name="타원 144" class="cls-20" cx="5.2" cy="5.2" r="5.2" transform="translate(37.4 43.2)"/>
      <rect id="사각형_503" data-name="사각형 503" class="cls-18" width="23.2" height="1.9" transform="translate(21.5 33.1)"/>
      <rect id="사각형_504" data-name="사각형 504" class="cls-18" width="18.8" height="1.9" transform="translate(21.5 37.3)"/>
      <rect id="사각형_505" data-name="사각형 505" class="cls-18" width="23.1" height="1.9" transform="translate(21.5 45.8)"/>
      <rect id="사각형_506" data-name="사각형 506" class="cls-18" width="11.8" height="1.9" transform="translate(21.5 41.6)"/>
      <g id="그룹_1355" data-name="그룹 1355">
        <path id="패스_5198" data-name="패스 5198" class="cls-21" d="M17.3,45.1a1.828,1.828,0,0,1-1.6-.7h0a2.276,2.276,0,0,1-.4-1.6V42a1.268,1.268,0,0,0-.1-.6c-.1-.4-.2-.7-.3-1-.1-.2-.3-.5-.4-.7-.1-.1-.2-.3-.4-.4l-.1-.1a.583.583,0,0,1,.6-1c.1.1.2.1.2.2.2.2.4.3.5.5l.6.9a4.951,4.951,0,0,1,.4,1.3c0,.3.1.5.1.8v.9a3.784,3.784,0,0,0,.1.8h0a1.222,1.222,0,0,0,.9.3.552.552,0,1,1,.1,1.1C17.5,45.1,17.4,45.1,17.3,45.1Zm-1.6-.7Z"/>
        <path id="패스_5199" data-name="패스 5199" class="cls-22" d="M15.4,42.8a3.535,3.535,0,0,1-1.6,2,11.947,11.947,0,0,1-2.6,1.1,12.588,12.588,0,0,1-2.7.4,5.092,5.092,0,0,1-2.1-.6,2.016,2.016,0,0,1-.7-.9c-.2-.4,0-.7.2-1A18.184,18.184,0,0,1,9.4,40l.6-.5a2.892,2.892,0,0,1-.6-2.7c1.3.7,1.5,1.5,1.5,1.5l2.3-.1a3.246,3.246,0,0,1,1.2-1.8c1.1,2-.1,3-.1,3a3.376,3.376,0,0,1,1.1,3.4"/>
        <path id="패스_5200" data-name="패스 5200" class="cls-5" d="M9.7,37.1a2.217,2.217,0,0,0,.5,1.8.31.31,0,0,0,.2.1c.3,0,0-1.4-.7-1.9"/>
        <path id="패스_5201" data-name="패스 5201" class="cls-5" d="M14.5,36.9c-.7.7-.9,2.3-.5,2.3.1,0,.2-.1.3-.2a2.23,2.23,0,0,0,.2-2.1"/>
        <path id="패스_5202" data-name="패스 5202" class="cls-23" d="M7.9,43Z"/>
        <path id="패스_5203" data-name="패스 5203" class="cls-21" d="M6.3,44.4h0a.1.1,0,0,1,.1-.1h.1c.1,0,.1.1.1.2h0v.1a.1.1,0,0,0,.2,0v-.1h0a.52.52,0,0,0-.2-.4H6.4c-.1,0-.1.1-.1.2v.1h0"/>
        <path id="패스_5204" data-name="패스 5204" class="cls-21" d="M7.5,44.7h0a.1.1,0,0,1,.1-.1h.1c.1,0,.1.1.1.2h0V45h.1v-.1h0c.1-.2,0-.3-.1-.4H7.6c-.1,0-.1.1-.2.2h0v.2c0-.1,0-.1.1-.2"/>
        <path id="패스_5205" data-name="패스 5205" class="cls-5" d="M10.5,40.8a3.468,3.468,0,0,1-1.5.9c.1.5-.4,1-.6,1.2h0a2.692,2.692,0,0,1,1.6-.8c-.4-.5.5-1.3.5-1.3"/>
        <path id="패스_5206" data-name="패스 5206" class="cls-21" d="M11.3,40.5a.215.215,0,0,1-.2-.2v-.1h0a.793.793,0,0,1,.9-.9h.7a.2.2,0,0,1,0,.4H12c-.3,0-.4,0-.4.4v.1q-.15.3-.3.3"/>
        <path id="패스_5207" data-name="패스 5207" class="cls-21" d="M10.6,40.3a.215.215,0,0,1-.2-.2V40h0c.1-.8.5-1.3,1.3-1.3H13a.2.2,0,0,1,0,.4H11.8a.781.781,0,0,0-.8.8V40c-.1.2-.2.3-.4.3"/>
        <path id="패스_5208" data-name="패스 5208" class="cls-21" d="M10,40a.215.215,0,0,1-.2-.2v-.1A1.685,1.685,0,0,1,11.5,38h1.9a.2.2,0,0,1,0,.4H11.5a1.324,1.324,0,0,0-1.3,1.3v.1a.215.215,0,0,1-.2.2"/>
        <path id="패스_5209" data-name="패스 5209" class="cls-24" d="M9,41H9c0-.1,0-.1.1-.2h.1c.1,0,.2.1.1.2h0v.1a.1.1,0,0,0,.2,0V41h0a.265.265,0,0,0-.3-.3h0c-.1,0-.2,0-.2.1-.1.1-.1.1-.1.2v.1c0-.1,0,0,.1-.1H9"/>
        <path id="패스_5210" data-name="패스 5210" class="cls-24" d="M10.9,42h0c0-.1,0-.1.1-.2h.1a.215.215,0,0,1,.2.2h0v.1a.1.1,0,0,0,.2,0V42h0c0-.2-.1-.3-.3-.4h0c-.1,0-.2,0-.2.1-.1.1-.1.1-.1.2V42c-.1,0-.1.1,0,0h0"/>
      </g>
    </g>
    <g id="그룹_1357" data-name="그룹 1357" transform="translate(-14431 -615)">
      <path id="패스_4870" data-name="패스 4870" class="cls-6" d="M4.815,3.514,1.3,0,0,1.3,3.514,4.815,0,8.2,1.3,9.5,4.815,5.986,5.986,4.815Z" transform="translate(14884.307 2486.9)"/>
    </g>
    <g id="그룹_1358" data-name="그룹 1358" transform="translate(-14269 -615)">
      <path id="패스_4870-2" data-name="패스 4870" class="cls-6" d="M4.815,3.514,1.3,0,0,1.3,3.514,4.815,0,8.2,1.3,9.5,4.815,5.986,5.986,4.815Z" transform="translate(14884.307 2486.9)"/>
    </g>
    <g id="그룹_1359" data-name="그룹 1359" transform="translate(-14094 -615)">
      <path id="패스_4870-3" data-name="패스 4870" class="cls-6" d="M4.815,3.514,1.3,0,0,1.3,3.514,4.815,0,8.2,1.3,9.5,4.815,5.986,5.986,4.815Z" transform="translate(14884.307 2486.9)"/>
    </g>
    <g id="그룹_1360" data-name="그룹 1360" transform="translate(-13942 -615)">
      <path id="패스_4870-4" data-name="패스 4870" class="cls-6" d="M4.815,3.514,1.3,0,0,1.3,3.514,4.815,0,8.2,1.3,9.5,4.815,5.986,5.986,4.815Z" transform="translate(14884.307 2486.9)"/>
    </g>
  </g>
</svg>
