<svg xmlns="http://www.w3.org/2000/svg" viewBox="0 0 136.46 44.536">
  <defs>
    <style>
      .cls-1 {
        fill: #74c6be;
      }

      .cls-2 {
        fill: #727171;
      }

      .cls-3 {
        fill: #fff;
      }
    </style>
  </defs>
  <g id="그룹_1639" data-name="그룹 1639" transform="translate(-1154.54 -467)">
    <g id="그룹_1419" data-name="그룹 1419" transform="translate(1154.54 466.98)">
      <path id="패스_4596" data-name="패스 4596" class="cls-1" d="M14.97,13.981c.338.682.716,1.777.813,1.95a41.226,41.226,0,0,0,3.183,5.05c3.252,4.409,7.172,9.156,11.96,11.939A28.591,28.591,0,0,0,54.652,35.33a67.577,67.577,0,0,0,8.315-3.741A23.175,23.175,0,0,0,69.7,26.733c2.673-2.962,5.029-7.943,1.888-11.422a10.644,10.644,0,0,0-2.88-2.184,18.009,18.009,0,0,0-4.857-1.764c-5.58-1-8.226-.606-13.751.985a25.285,25.285,0,0,0-4.285,1.715c-2.356,1.185-4.63,2.563-7.1,3.52a17.284,17.284,0,0,1-6.951.716c-3.982-.138-7.716-2.487-11.257-4.127Z" transform="translate(-4.657 -3.358)"/>
      <path id="패스_4597" data-name="패스 4597" class="cls-2" d="M10.658,11.3c-.158-.214-.262-.613-.462-.854A4.048,4.048,0,0,0,7.44,9.431c-2.287-.255-4.492-.723-6.062-2.542A6.31,6.31,0,0,1,0,4.085c.083.372.964.806,1.254.944,1.881.909,3.417-.9,5.277-.661a5.776,5.776,0,0,0,1.957.255c.558-.172.482-.827.9-1.192a5.976,5.976,0,0,1,1.943-.937c1.171-.537.971-1.405.71-2.473,0,0,3.975,1.392,1.1,7.757-.372.827.958,1.839,1.44,2.218.358.282.648.42,1.026.668.51.331-.11.606-.413.723a6.383,6.383,0,0,1-2.411.4C12.132,11.773,11.092,11.883,10.658,11.3Z"/>
      <path id="패스_4598" data-name="패스 4598" class="cls-1" d="M40.81,39.475c-.358-.572-4.361.186-4.774.331a11.005,11.005,0,0,0-3.961,2.68c-1.033,1.013-1.867,2.391-3.169,3.073-.661.344-2.742.9-2.666,1.881.083,1.047,3.21.22,3.934.055C30.187,47.494,43.855,44.359,40.81,39.475Z" transform="translate(-8.162 -12.208)"/>
      <path id="패스_4599" data-name="패스 4599" class="cls-1" d="M54.579,46.6c-.09.227-.634.214-.7.592-.165.882,2.046,1.557,2.59,1.826a14.441,14.441,0,0,1,1.791.964c.475.331.958,1.082,1.536,1.206,0,0,2.466.524-3.024-4.953C56.763,46.243,54.93,45.733,54.579,46.6Z" transform="translate(-16.757 -14.332)"/>
      <path id="패스_4600" data-name="패스 4600" class="cls-2" d="M58.249,14.134c.152-.076.31-.145.462-.214.524-.241,1.013-.551,1.543-.8a30.723,30.723,0,0,1,3.617-1.412,24.318,24.318,0,0,1,5.477-1.116,23.644,23.644,0,0,1,6.352.317,21.463,21.463,0,0,1,6.807,2.611,10.084,10.084,0,0,1,.951.689c.324.186,1.509,1.1,1.088,1.536a5.817,5.817,0,0,1-2.177.468c-1.688.1-3.4.358-5.1.489-1.777.138-3.562.172-5.339.207-2.707.055-5.415.2-8.122.083-.8-.034-1.6-.09-2.391-.172-1.364-.138-2.639-.661-3.975-.923-.406-.083-1.088-.324-.765-.861.269-.448,1.082-.654,1.536-.868A.092.092,0,0,1,58.249,14.134Z" transform="translate(-17.603 -3.264)"/>
      <g id="그룹_1304" data-name="그룹 1304" transform="translate(2.673 6.848)">
        <path id="패스_4601" data-name="패스 4601" class="cls-3" d="M15.009,18.686a.117.117,0,0,1-.048-.007c-2.645-.331-4.361-1.337-4.361-2.57a.4.4,0,0,1,.8,0c0,.641,1.281,1.488,3.658,1.784a.4.4,0,0,1,.344.441A.39.39,0,0,1,15.009,18.686Z" transform="translate(-5.97 -11.729)"/>
        <path id="패스_4602" data-name="패스 4602" class="cls-3" d="M21.971,17.7a.4.4,0,0,1-.055-.792c2.28-.31,3.513-1.144,3.513-1.764s-1.171-1.419-3.4-1.75a.4.4,0,1,1,.117-.785c2.521.372,4.085,1.343,4.085,2.535s-1.653,2.2-4.2,2.556Z" transform="translate(-9.385 -10.763)"/>
        <path id="패스_4603" data-name="패스 4603" class="cls-3" d="M13.842,21.89A15.89,15.89,0,0,1,9.4,21.3a11.7,11.7,0,0,1-3.279-1.385c-1.082-.716-2.239-1.936-2.239-3.2a.5.5,0,0,1,.992,0c0,.813.9,1.777,1.8,2.377a10.65,10.65,0,0,0,3,1.254c3.445.992,7.1.441,10.244-.158a.486.486,0,0,1,.579.4.494.494,0,0,1-.4.579A33.188,33.188,0,0,1,13.842,21.89Z" transform="translate(-3.88 -11.888)"/>
        <path id="패스_4604" data-name="패스 4604" class="cls-3" d="M31.151,17.605a.5.5,0,0,1-.42-.234.507.507,0,0,1,.152-.689,1.858,1.858,0,0,0,.923-1.915c0-1.736-2.515-3.321-6.118-3.844a.5.5,0,0,1,.145-.985c4.237.62,6.972,2.515,6.972,4.829a2.834,2.834,0,0,1-1.385,2.756A.509.509,0,0,1,31.151,17.605Z" transform="translate(-10.531 -9.932)"/>
      </g>
      <path id="패스_4605" data-name="패스 4605" class="cls-3" d="M57.528,20.784a.283.283,0,0,1-.076-.007c-4.829-.765-7.282-1.895-7.282-3.348,0-.882.861-1.619,2.639-2.253a.494.494,0,1,1,.331.93c-1.461.524-1.984,1.04-1.984,1.323,0,.462,1.35,1.557,6.441,2.37a.5.5,0,0,1,.413.572A.484.484,0,0,1,57.528,20.784Z" transform="translate(-15.607 -4.705)"/>
      <path id="패스_4606" data-name="패스 4606" class="cls-3" d="M74.211,21.6c-1.784,0-3.548-.055-5.243-.158a.494.494,0,1,1,.062-.985c1.674.1,3.417.152,5.181.152,10.6,0,17.354-1.853,17.354-3.135,0-.262-.434-.716-1.653-1.192a.5.5,0,0,1-.276-.648.507.507,0,0,1,.648-.282c1.536.606,2.28,1.3,2.28,2.122C92.557,20.508,81.582,21.6,74.211,21.6Z" transform="translate(-21.309 -4.76)"/>
      <path id="패스_4607" data-name="패스 4607" class="cls-3" d="M67,23.156c-11.471,0-23.334-2.632-23.334-7.041,0-2.053,2.542-3.782,7.557-5.132a.5.5,0,0,1,.262.964c-4.4,1.185-6.82,2.666-6.82,4.168,0,2.921,8.977,6.042,22.335,6.042a73.436,73.436,0,0,0,8.873-.5.5.5,0,1,1,.124.992A74.085,74.085,0,0,1,67,23.156Z" transform="translate(-13.585 -3.405)"/>
      <path id="패스_4608" data-name="패스 4608" class="cls-3" d="M100.7,21.093a.492.492,0,0,1-.475-.358.5.5,0,0,1,.331-.627l.592-.179c.682-.2,1.385-.413,2.053-.668a7.114,7.114,0,0,0,2.239-1.309,1.366,1.366,0,0,0,.537-1.233c-.165-1.144-1.915-2.384-3.362-3.107a29.216,29.216,0,0,0-4.168-1.571l-.069-.021a.5.5,0,0,1,.3-.951l.069.021a31.178,31.178,0,0,1,4.313,1.626c.84.42,3.624,1.936,3.9,3.851a2.347,2.347,0,0,1-.847,2.108,8.158,8.158,0,0,1-2.563,1.509c-.7.269-1.426.482-2.129.689l-.586.172A.18.18,0,0,1,100.7,21.093Z" transform="translate(-30.497 -3.43)"/>
    </g>
    <g id="그룹_1420" data-name="그룹 1420" transform="translate(1236.995 485)">
      <g id="그룹_1306" data-name="그룹 1306" transform="translate(15.969)">
        <path id="패스_4609" data-name="패스 4609" class="cls-1" d="M31.4,5.428a1.132,1.132,0,0,1-.8-.327L28.218,2.724,25.841,5.1a1.128,1.128,0,0,1-1.6-1.6L27.417.334A1.184,1.184,0,0,1,28.225,0h0a1.127,1.127,0,0,1,.795.327L32.191,3.5a1.128,1.128,0,0,1,0,1.6A1.1,1.1,0,0,1,31.4,5.428Z" transform="translate(-23.915)"/>
        <path id="패스_4610" data-name="패스 4610" class="cls-1" d="M40.9,5.428A1.117,1.117,0,0,1,40.1,5.1L37.728,2.724,35.351,5.1a1.128,1.128,0,0,1-1.6-1.6L36.927.334a1.156,1.156,0,0,1,.8-.334h0a1.154,1.154,0,0,1,.8.327L41.7,3.5a1.132,1.132,0,0,1-.8,1.93Z" transform="translate(-27.076)"/>
        <path id="패스_4611" data-name="패스 4611" class="cls-1" d="M44.62,6.44" transform="translate(-30.796 -2.14)"/>
      </g>
      <g id="그룹_1309" data-name="그룹 1309" transform="translate(26.384 12.362)">
        <g id="그룹_1307" data-name="그룹 1307" transform="translate(0 0.015)">
          <path id="패스_4612" data-name="패스 4612" class="cls-1" d="M41.2,24.96" transform="translate(-40.075 -20.672)"/>
          <path id="패스_4613" data-name="패스 4613" class="cls-1" d="M46.976,23.954a1.124,1.124,0,0,1-.795-.334l-2.37-2.377-2.37,2.377a1.128,1.128,0,1,1-1.6-1.6l3.171-3.171a1.158,1.158,0,0,1,1.589,0l3.165,3.171a1.128,1.128,0,0,1,0,1.6A1.086,1.086,0,0,1,46.976,23.954Z" transform="translate(-39.515 -18.538)"/>
          <path id="패스_4614" data-name="패스 4614" class="cls-1" d="M56.473,23.954a1.139,1.139,0,0,1-.8-.334L53.3,21.243,50.924,23.62a1.126,1.126,0,0,1-1.589-1.6l3.171-3.171a1.167,1.167,0,0,1,1.6,0l3.171,3.171a1.132,1.132,0,0,1-.8,1.93Z" transform="translate(-42.669 -18.538)"/>
        </g>
        <g id="그룹_1308" data-name="그룹 1308" transform="translate(12.672)">
          <path id="패스_4615" data-name="패스 4615" class="cls-1" d="M65.969,23.946a1.124,1.124,0,0,1-.795-.334L62.8,21.236l-2.377,2.377a1.128,1.128,0,0,1-1.6-1.6L62,18.845a1.128,1.128,0,0,1,1.6,0l3.171,3.171a1.128,1.128,0,0,1,0,1.6A1.086,1.086,0,0,1,65.969,23.946Z" transform="translate(-58.495 -18.515)"/>
          <path id="패스_4616" data-name="패스 4616" class="cls-1" d="M75.473,23.954a1.139,1.139,0,0,1-.8-.334L72.3,21.243l-2.37,2.377a1.128,1.128,0,0,1-1.6-1.6l3.171-3.171a1.167,1.167,0,0,1,1.6,0l3.171,3.171a1.128,1.128,0,0,1,0,1.6A1.111,1.111,0,0,1,75.473,23.954Z" transform="translate(-61.656 -18.522)"/>
          <path id="패스_4617" data-name="패스 4617" class="cls-1" d="M79.19,24.96" transform="translate(-65.373 -20.657)"/>
        </g>
      </g>
      <g id="그룹_1310" data-name="그룹 1310" transform="translate(0.005 21.108)">
        <path id="패스_4618" data-name="패스 4618" class="cls-1" d="M1.13,37.041a1.145,1.145,0,0,1-.795-.327,1.128,1.128,0,0,1,0-1.6l3.171-3.171A1.122,1.122,0,0,1,4.3,31.62h0a1.127,1.127,0,0,1,.795.327l3.171,3.171a1.128,1.128,0,1,1-1.6,1.6L4.3,34.337,1.925,36.714A1.145,1.145,0,0,1,1.13,37.041Z" transform="translate(-0.005 -31.617)"/>
        <path id="패스_4619" data-name="패스 4619" class="cls-1" d="M10.63,37.04a1.125,1.125,0,0,1-.795-1.923l3.171-3.171a1.128,1.128,0,0,1,1.6,0l3.171,3.171a1.128,1.128,0,0,1-1.6,1.6L13.8,34.336l-2.377,2.377A1.145,1.145,0,0,1,10.63,37.04Z" transform="translate(-3.162 -31.615)"/>
        <path id="패스_4620" data-name="패스 4620" class="cls-1" d="M20.13,37.04a1.145,1.145,0,0,1-.795-.327,1.128,1.128,0,0,1,0-1.6l3.171-3.171a1.128,1.128,0,0,1,1.6,0l3.171,3.171a1.128,1.128,0,0,1-1.6,1.6L23.3,34.336l-2.377,2.377A1.145,1.145,0,0,1,20.13,37.04Z" transform="translate(-6.32 -31.615)"/>
      </g>
    </g>
  </g>
</svg>
