<svg xmlns="http://www.w3.org/2000/svg" viewBox="0 0 101 146.484">
  <defs>
    <style>
      .cls-1 {
        fill: #74c6be;
      }

      .cls-2 {
        fill: #bce2e3;
      }

      .cls-3 {
        fill: #727171;
      }

      .cls-4 {
        fill: #fff;
      }

      .cls-5 {
        fill: #e4f3fa;
      }

      .cls-6 {
        fill: #efefef;
      }

      .cls-7 {
        fill: #6fbeb7;
      }

      .cls-8 {
        fill: #dcdddd;
      }

      .cls-9 {
        fill: #e6e6e6;
      }

      .cls-10 {
        fill: #9fa0a0;
      }

      .cls-11 {
        fill: #666464;
      }

      .cls-12 {
        fill: #7d7d7d;
      }

      .cls-13 {
        fill: #e3c8a0;
      }

      .cls-14 {
        fill: #60b7a3;
      }

      .cls-15 {
        fill: #ededed;
      }

      .cls-16 {
        fill: #006b94;
      }

      .cls-17 {
        fill: #831a1f;
      }

      .cls-18 {
        fill: #972328;
      }

      .cls-19 {
        fill: #d2a587;
      }

      .cls-20 {
        fill: #eae5e3;
      }

      .cls-21 {
        fill: #2eb6aa;
      }

      .cls-22 {
        fill: #9ec364;
      }

      .cls-23 {
        fill: #ffe33f;
      }

      .cls-24 {
        fill: #595757;
      }

      .cls-25 {
        fill: #999;
      }

      .cls-26 {
        fill: none;
        stroke: #000;
        stroke-miterlimit: 10;
      }

      .cls-27 {
        fill: #e0f1f2;
      }
    </style>
  </defs>
  <g id="그룹_1337" data-name="그룹 1337" transform="translate(0 0)">
    <path id="패스_4762" data-name="패스 4762" class="cls-1" d="M95.514,16.52s8.988,0,13.31,30.8c0,0,.3,3.988,3.849,3.376a2.162,2.162,0,0,1,2.373,1.753c.489,2.341-2.406,2.9-4.078,2.936a7.42,7.42,0,0,1-1.533-.1c-5.53-1-5.807-6.8-6.753-11.206-1.134-5.318-1.6-10.692-4.07-15.545-1.517-2.977-4.021-4.926-6.443-7.25Z" transform="translate(-16.999 -3.047)"/>
    <path id="패스_4763" data-name="패스 4763" class="cls-1" d="M114.539,152.39h-.016a1.051,1.051,0,0,1-1.036-1.052v-4.8c0-.351.024-.7.033-1.052.016-.416.033-.816.033-1.207v-.237c-.008-.75-.008-1.68-.4-2.039-.351-.318-1.338-.277-1.811-.253l-1.753.114a1.042,1.042,0,1,1-.139-2.08l1.778-.114a4.566,4.566,0,0,1,3.319.791c1.077.971,1.085,2.479,1.085,3.58v.228c.008.449-.016.889-.033,1.313-.016.326-.024.652-.033.987-.008.734,0,1.46,0,2.194v2.61a1.02,1.02,0,0,1-1.028,1.011" transform="translate(-20.007 -25.757)"/>
    <path id="패스_4764" data-name="패스 4764" class="cls-1" d="M117.233,153.522a1.044,1.044,0,0,1-1.036-1.044v-10.35a4.6,4.6,0,0,0-.253-1.46,3.707,3.707,0,0,0-3.385-2.259h-3.026a1.04,1.04,0,1,1,0-2.08h3.026a5.787,5.787,0,0,1,5.326,3.6,6.531,6.531,0,0,1,.391,2.178v10.382a1.039,1.039,0,0,1-1.044,1.036" transform="translate(-20.009 -25.144)"/>
    <path id="패스_4765" data-name="패스 4765" class="cls-1" d="M120.161,154.666a1.041,1.041,0,0,1-1.044-1.044V141.03a6.369,6.369,0,0,0-6.019-5.97h-2.5a1.04,1.04,0,1,1,0-2.08h2.553l.073.008a8.509,8.509,0,0,1,7.984,7.944v12.7a1.05,1.05,0,0,1-1.044,1.036" transform="translate(-20.204 -24.526)"/>
    <path id="패스_4766" data-name="패스 4766" class="cls-2" d="M76.755,122.164c.53-.008,1.06-.024,1.582-.041.465-.008,5.505-.343,5.538-.171l3.988,18.693H91.7l2.618-21.523s8.2-3.2,5.652-19.3L94.9,51.405s-3.458-29.9-10.774-32.851c0,0,8.792-8.3,2.145-18.554a19.394,19.394,0,0,0-8.784,12.128s-.734.334-6.573.049h-1.9s-1.623-6.59-9.795-9.738a15.92,15.92,0,0,0,3.221,14.648c-.22-.277-7.577,5.978-7.8,6.174-6.859,5.815-10.04,10.415-14.7,17.331a6.291,6.291,0,0,0-.922,5.456c.424,1.868,2.74,4.363,4.135,5.578a9.839,9.839,0,0,0,6.728,2.74c4.738-.049,10.2-.579,14.476-2.683-.188.09-.016.147-.587,3.719-.2,1.492-.416,2.977-.62,4.461-.481,3.474-.971,6.949-1.444,10.431-.555,4.07-1.142,8.139-1.688,12.217-.432,3.23-.856,6.467-1.329,9.7a33.354,33.354,0,0,0,.522,13.351,33.8,33.8,0,0,0,3.5,8.93c1.525,2.626,3.564,5.383,6.427,6.622a18.008,18.008,0,0,0,7.609,1.052" transform="translate(-7.154 0)"/>
    <path id="패스_4767" data-name="패스 4767" class="cls-3" d="M94.34,178.076h8.588l-.9-6.582-4.11-.2Z" transform="translate(-17.399 -31.591)"/>
    <path id="패스_4768" data-name="패스 4768" class="cls-4" d="M96.65,161.655a1.317,1.317,0,0,0,2.145-.049s1.223-1.615,2.145,0c0,0,.979,1.077,1.664-.538,0,0,.538-.881.881-.049l-1.077,8.5-4.1-.147Z" transform="translate(-17.825 -29.631)"/>
    <path id="패스_4769" data-name="패스 4769" class="cls-4" d="M64.78,5.48s-.84,6.728,2.7,10.325,1.713-7.226-2.7-10.325" transform="translate(-11.931 -1.011)"/>
    <path id="패스_4770" data-name="패스 4770" class="cls-4" d="M96.044,3.24s2.6,6.663-1.395,12.209C91.143,20.334,91.4,7.742,96.044,3.24" transform="translate(-17.016 -0.598)"/>
    <path id="패스_4771" data-name="패스 4771" class="cls-5" d="M55.96,43.19c-.057.09-.09.13-.09.13s.033-.041.09-.122Z" transform="translate(-10.304 -7.966)"/>
    <path id="패스_4772" data-name="패스 4772" class="cls-1" d="M41.4,54.617l.024-.3a.839.839,0,0,1,.865-.75l.049.008a.822.822,0,0,1,.75.865l-.008.049-.024.31a.411.411,0,0,0,.367.449.419.419,0,0,0,.457-.367l.033-.3h0l.008-.1a1.67,1.67,0,0,0-1.492-1.721l-.106-.008a1.645,1.645,0,0,0-1.15.408,1.562,1.562,0,0,0-.563,1.093l-.033.3a.407.407,0,0,0,.367.449.433.433,0,0,0,.457-.383" transform="translate(-7.484 -9.729)"/>
    <path id="패스_4773" data-name="패스 4773" class="cls-1" d="M47.016,56.628l.163-.261a.859.859,0,0,1,.5-.367.846.846,0,0,1,.612.073l.041.024a.841.841,0,0,1,.3,1.109l-.024.041-.163.269a.411.411,0,0,0,.13.563.417.417,0,0,0,.571-.13l.155-.261h0l.057-.082a1.666,1.666,0,0,0-.6-2.2l-.09-.049a1.632,1.632,0,0,0-1.215-.139,1.668,1.668,0,0,0-.987.734l-.163.261a.419.419,0,0,0,.13.571.45.45,0,0,0,.579-.155" transform="translate(-8.529 -10.173)"/>
    <path id="패스_4774" data-name="패스 4774" class="cls-1" d="M74.915,26.246a1.121,1.121,0,0,1-1.125-1.117V24.5l.008-.065c.147-2.5.913-4.176,4.192-4.176h3.238A1.121,1.121,0,0,1,81.22,22.5H77.982c-1.55,0-1.843.155-1.957,2.031v.6a1.1,1.1,0,0,1-1.109,1.117" transform="translate(-13.609 -3.737)"/>
    <path id="패스_4775" data-name="패스 4775" class="cls-1" d="M71.187,24.415A1.119,1.119,0,0,1,70.07,23.3v-.636l.008-.073c.253-3.695,2.569-5.962,6.206-6.068H82.2a1.114,1.114,0,0,1,1.117,1.117A1.126,1.126,0,0,1,82.2,18.763H76.309c-3.058.09-3.866,2.186-4,3.939v.6a1.131,1.131,0,0,1-1.125,1.117" transform="translate(-12.923 -3.047)"/>
    <path id="패스_4776" data-name="패스 4776" class="cls-1" d="M67.585,22.511a1.128,1.128,0,0,1-1.125-1.125v-.31a8.164,8.164,0,0,1,8.156-8.156h8.792a1.117,1.117,0,0,1,0,2.235H74.624a5.917,5.917,0,0,0-5.913,5.913v.31a1.124,1.124,0,0,1-1.125,1.134" transform="translate(-12.257 -2.383)"/>
    <path id="패스_4777" data-name="패스 4777" class="cls-4" d="M66.743,119.1a.332.332,0,0,1-.269-.13,1.733,1.733,0,0,1-.334-.767.347.347,0,0,1,.3-.383.339.339,0,0,1,.383.3,1.239,1.239,0,0,0,.179.416.338.338,0,0,1-.049.481.316.316,0,0,1-.212.082" transform="translate(-12.198 -21.729)"/>
    <path id="패스_4778" data-name="패스 4778" class="cls-4" d="M66.1,114.162a.321.321,0,0,1-.269-.13,1.833,1.833,0,0,1-.326-.758.341.341,0,0,1,.294-.383.333.333,0,0,1,.383.3,1.149,1.149,0,0,0,.188.424.347.347,0,0,1-.057.481.383.383,0,0,1-.212.065" transform="translate(-12.081 -20.82)"/>
    <path id="패스_4779" data-name="패스 4779" class="cls-4" d="M70.2,129.4a.332.332,0,0,1-.269-.13,1.751,1.751,0,0,1-.334-.758.341.341,0,0,1,.294-.383.349.349,0,0,1,.391.294,1.108,1.108,0,0,0,.188.424.333.333,0,0,1-.057.481.319.319,0,0,1-.212.073" transform="translate(-12.836 -23.631)"/>
    <path id="패스_4780" data-name="패스 4780" class="cls-4" d="M72.293,133.12a.343.343,0,0,1-.269-.13,1.693,1.693,0,0,1-.334-.767.347.347,0,0,1,.3-.383.338.338,0,0,1,.383.3,1.06,1.06,0,0,0,.188.416.347.347,0,0,1-.269.563" transform="translate(-13.221 -24.315)"/>
    <path id="패스_4781" data-name="패스 4781" class="cls-4" d="M70.365,135.872a.332.332,0,0,1-.269-.13,1.834,1.834,0,0,1-.326-.758.347.347,0,0,1,.3-.383.342.342,0,0,1,.383.3,1,1,0,0,0,.179.416.347.347,0,0,1-.057.481.352.352,0,0,1-.212.073" transform="translate(-12.867 -24.824)"/>
    <path id="패스_4782" data-name="패스 4782" class="cls-4" d="M68.7,132.392a.332.332,0,0,1-.269-.13,1.638,1.638,0,0,1-.326-.767.335.335,0,0,1,.3-.375.326.326,0,0,1,.375.3,1.061,1.061,0,0,0,.179.408.34.34,0,0,1-.057.481.259.259,0,0,1-.2.082" transform="translate(-12.561 -24.182)"/>
    <path id="패스_4783" data-name="패스 4783" class="cls-4" d="M72.133,127.5a.355.355,0,0,1-.277-.139,1.932,1.932,0,0,1-.326-.758.353.353,0,0,1,.3-.383.358.358,0,0,1,.383.3,1.047,1.047,0,0,0,.188.416.347.347,0,0,1-.065.481.283.283,0,0,1-.2.082" transform="translate(-13.192 -23.279)"/>
    <path id="패스_4784" data-name="패스 4784" class="cls-4" d="M66.265,127.132a.373.373,0,0,1-.277-.13,1.666,1.666,0,0,1-.318-.767.346.346,0,0,1,.31-.375.341.341,0,0,1,.375.31,1.061,1.061,0,0,0,.179.408.341.341,0,0,1-.065.481.313.313,0,0,1-.2.073" transform="translate(-12.111 -23.212)"/>
    <path id="패스_4785" data-name="패스 4785" class="cls-4" d="M66.425,122.842a.321.321,0,0,1-.269-.13,1.733,1.733,0,0,1-.326-.758.347.347,0,0,1,.3-.383.339.339,0,0,1,.383.3,1.115,1.115,0,0,0,.188.416.346.346,0,0,1-.057.481.4.4,0,0,1-.22.073" transform="translate(-12.14 -22.421)"/>
    <path id="패스_4786" data-name="패스 4786" class="cls-4" d="M69.253,116.932a.332.332,0,0,1-.269-.131,1.775,1.775,0,0,1-.334-.767.341.341,0,0,1,.31-.375.327.327,0,0,1,.375.31,1.082,1.082,0,0,0,.188.408.338.338,0,0,1-.049.481.358.358,0,0,1-.22.073" transform="translate(-12.661 -21.331)"/>
    <path id="패스_4787" data-name="패스 4787" class="cls-4" d="M69.253,125.158a.321.321,0,0,1-.269-.131,1.809,1.809,0,0,1-.334-.775.353.353,0,0,1,.31-.383.332.332,0,0,1,.375.31,1.176,1.176,0,0,0,.188.416.339.339,0,0,1-.057.481.289.289,0,0,1-.212.082" transform="translate(-12.661 -22.845)"/>
    <path id="패스_4788" data-name="패스 4788" class="cls-4" d="M101.943,142.941a.357.357,0,0,1-.2-.065.34.34,0,0,1-.065-.481,1.132,1.132,0,0,0,.188-.424.337.337,0,0,1,.383-.3.347.347,0,0,1,.3.383,1.753,1.753,0,0,1-.326.767.365.365,0,0,1-.277.122" transform="translate(-18.739 -26.127)"/>
    <path id="패스_4789" data-name="패스 4789" class="cls-4" d="M100.623,139.6a.378.378,0,0,1-.2-.065.34.34,0,0,1-.065-.481,1.075,1.075,0,0,0,.179-.416.344.344,0,0,1,.685.065,1.855,1.855,0,0,1-.318.758.344.344,0,0,1-.277.139" transform="translate(-18.495 -25.512)"/>
    <path id="패스_4790" data-name="패스 4790" class="cls-4" d="M107.532,136.24a.352.352,0,0,1-.212-.073.34.34,0,0,1-.057-.481,1.21,1.21,0,0,0,.188-.424.345.345,0,0,1,.685.082,1.81,1.81,0,0,1-.326.767.373.373,0,0,1-.277.13" transform="translate(-19.769 -24.89)"/>
    <path id="패스_4791" data-name="패스 4791" class="cls-4" d="M105.163,140.6a.352.352,0,0,1-.212-.073.346.346,0,0,1-.057-.481,1.184,1.184,0,0,0,.188-.432.342.342,0,1,1,.677.1,1.809,1.809,0,0,1-.326.75.318.318,0,0,1-.269.139" transform="translate(-19.332 -25.694)"/>
    <path id="패스_4792" data-name="패스 4792" class="cls-4" d="M104.362,137.9a.352.352,0,0,1-.212-.073.333.333,0,0,1-.057-.481,1.176,1.176,0,0,0,.188-.416.342.342,0,0,1,.383-.3.347.347,0,0,1,.3.383,1.733,1.733,0,0,1-.326.758.373.373,0,0,1-.277.13" transform="translate(-19.184 -25.198)"/>
    <path id="패스_4793" data-name="패스 4793" class="cls-4" d="M108.1,139.6a.352.352,0,0,1-.212-.073.348.348,0,0,1-.065-.481,1.149,1.149,0,0,0,.188-.424.342.342,0,0,1,.383-.3.353.353,0,0,1,.3.383,1.833,1.833,0,0,1-.326.758.34.34,0,0,1-.269.139" transform="translate(-19.874 -25.51)"/>
    <path id="패스_4794" data-name="패스 4794" class="cls-4" d="M104.052,144.651a.352.352,0,0,1-.212-.073.34.34,0,0,1-.057-.481,1.011,1.011,0,0,0,.179-.424.341.341,0,0,1,.677.09,1.692,1.692,0,0,1-.326.758.317.317,0,0,1-.261.13" transform="translate(-19.127 -26.443)"/>
    <path id="패스_4795" data-name="패스 4795" class="cls-4" d="M104.561,73.492h-.041a.341.341,0,0,1-.294-.383,1.125,1.125,0,0,0-.073-.449.345.345,0,0,1,.628-.285,1.657,1.657,0,0,1,.13.816.365.365,0,0,1-.351.3" transform="translate(-19.204 -13.311)"/>
    <path id="패스_4796" data-name="패스 4796" class="cls-4" d="M99.95,64.081H99.9a.353.353,0,0,1-.294-.391,1.157,1.157,0,0,0-.065-.44.347.347,0,0,1,.628-.294,1.692,1.692,0,0,1,.131.832.366.366,0,0,1-.351.294" transform="translate(-18.353 -11.575)"/>
    <path id="패스_4797" data-name="패스 4797" class="cls-4" d="M104.349,64.122h-.057a.337.337,0,0,1-.285-.391,1.065,1.065,0,0,0-.073-.44.343.343,0,0,1,.179-.457.353.353,0,0,1,.457.171,1.706,1.706,0,0,1,.122.824.349.349,0,0,1-.343.294" transform="translate(-19.163 -11.583)"/>
    <path id="패스_4798" data-name="패스 4798" class="cls-4" d="M98.848,59.962H98.8a.344.344,0,0,1-.294-.391,1.011,1.011,0,0,0-.082-.449.345.345,0,0,1,.179-.449.338.338,0,0,1,.449.179,1.792,1.792,0,0,1,.13.816.324.324,0,0,1-.334.294" transform="translate(-18.147 -10.816)"/>
    <path id="패스_4799" data-name="패스 4799" class="cls-4" d="M102.928,54.821h-.049a.341.341,0,0,1-.294-.383.991.991,0,0,0-.082-.449.353.353,0,0,1,.171-.457.341.341,0,0,1,.457.171,1.6,1.6,0,0,1,.13.824.336.336,0,0,1-.334.294" transform="translate(-18.9 -9.867)"/>
    <path id="패스_4800" data-name="패스 4800" class="cls-4" d="M102.139,61.55H102.1a.347.347,0,0,1-.3-.383,1.141,1.141,0,0,0-.073-.457.346.346,0,0,1,.171-.457.353.353,0,0,1,.457.171,1.773,1.773,0,0,1,.13.824.344.344,0,0,1-.343.3" transform="translate(-18.755 -11.107)"/>
    <path id="패스_4801" data-name="패스 4801" class="cls-4" d="M100.848,51.589l-.049-.008a.353.353,0,0,1-.294-.391,1.065,1.065,0,0,0-.073-.44.343.343,0,1,1,.62-.294,1.618,1.618,0,0,1,.13.832.33.33,0,0,1-.334.3" transform="translate(-18.517 -9.269)"/>
    <path id="패스_4802" data-name="패스 4802" class="cls-4" d="M99.749,55.57H99.7a.349.349,0,0,1-.294-.391,1.125,1.125,0,0,0-.073-.449.346.346,0,0,1,.171-.457.335.335,0,0,1,.449.179,1.722,1.722,0,0,1,.13.824.329.329,0,0,1-.334.294" transform="translate(-18.314 -10.005)"/>
    <path id="패스_4803" data-name="패스 4803" class="cls-4" d="M101.82,57.81h-.041a.347.347,0,0,1-.3-.383,1.119,1.119,0,0,0-.073-.457.353.353,0,0,1,.171-.457.347.347,0,0,1,.457.179,1.738,1.738,0,0,1,.13.816.35.35,0,0,1-.343.3" transform="translate(-18.697 -10.418)"/>
    <path id="패스_4804" data-name="패스 4804" class="cls-4" d="M103.209,67.25h-.049a.353.353,0,0,1-.294-.391,1.125,1.125,0,0,0-.073-.449.346.346,0,0,1,.171-.457.353.353,0,0,1,.457.171,1.646,1.646,0,0,1,.122.832.341.341,0,0,1-.334.294" transform="translate(-18.952 -12.159)"/>
    <path id="패스_4805" data-name="패스 4805" class="cls-4" d="M102,71.371h-.041a.353.353,0,0,1-.3-.383,1.163,1.163,0,0,0-.073-.457.357.357,0,0,1,.179-.457.345.345,0,0,1,.449.179,1.774,1.774,0,0,1,.13.816.343.343,0,0,1-.343.3" transform="translate(-18.73 -12.919)"/>
    <path id="패스_4806" data-name="패스 4806" class="cls-4" d="M104.84,69.972h-.049a.349.349,0,0,1-.294-.391,1.065,1.065,0,0,0-.073-.44.349.349,0,0,1,.636-.285,1.791,1.791,0,0,1,.13.824.358.358,0,0,1-.351.294" transform="translate(-19.254 -12.662)"/>
    <path id="패스_4807" data-name="패스 4807" class="cls-4" d="M99.828,68.432h-.049a.345.345,0,0,1-.294-.383A.991.991,0,0,0,99.4,67.6a.345.345,0,0,1,.628-.285,1.706,1.706,0,0,1,.131.824.336.336,0,0,1-.334.294" transform="translate(-18.328 -12.378)"/>
    <path id="패스_4808" data-name="패스 4808" class="cls-4" d="M55.69,43.081l.212-.212c.824-.84,3.784-3.6,3.058-6.329,0,0,3.344-.587,8.278-4.82,0,0-4.592,4.168-2.724,6.851-.008.008-3.727.228-8.824,4.51" transform="translate(-10.271 -5.85)"/>
    <path id="패스_4809" data-name="패스 4809" class="cls-2" d="M83.476,147.429l-15.4,15.17-3.458-3.042,8.922-19.3Z" transform="translate(-11.918 -25.868)"/>
    <path id="패스_4810" data-name="패스 4810" class="cls-4" d="M67.913,155.19a3.221,3.221,0,0,0,3.466,2.912s2.439-.122,1.982,2.039l-5.293,5.211-3.458-3.034Z" transform="translate(-11.916 -28.622)"/>
    <path id="패스_4811" data-name="패스 4811" class="cls-3" d="M62.842,163.92l-7.862,3.523,8.229,5.513,3.091-5.994Z" transform="translate(-10.14 -30.232)"/>
    <path id="패스_4812" data-name="패스 4812" class="cls-3" d="M76.144,37.887a1.737,1.737,0,1,1-1.737-1.737,1.733,1.733,0,0,1,1.737,1.737" transform="translate(-13.403 -6.667)"/>
    <path id="패스_4813" data-name="패스 4813" class="cls-6" d="M43.543,76.61S35.216,55.568,14.411,50.74L0,56.751s23.594,1.574,32.892,23.88Z" transform="translate(0 -9.358)"/>
    <path id="패스_4814" data-name="패스 4814" class="cls-3" d="M46.608,81.624l3.115,1.982-2.243,4.543L43.86,84.324a8.184,8.184,0,0,1,2.634-2.814" transform="translate(-8.089 -15.033)"/>
    <path id="패스_4815" data-name="패스 4815" class="cls-2" d="M50.543,83.646S59.816,89.363,65.6,81.77l2.822,8.058S59.384,98.147,48.3,88.2Z" transform="translate(-8.908 -15.081)"/>
    <path id="패스_4816" data-name="패스 4816" class="cls-4" d="M54.539,92.57A19.921,19.921,0,0,1,48.3,88.623l2.243-4.543a16.057,16.057,0,0,0,5.742,1.966s-2.194,1.28-.946,3.262c0,0,.587,1.6-.1,2.439Z" transform="translate(-8.908 -15.507)"/>
    <path id="패스_4817" data-name="패스 4817" class="cls-7" d="M71.1,48.914a1.137,1.137,0,0,0,.22-.171c.93-.865.75-3.026-.481-5.057-1.256-2.072-3.148-3.246-4.339-2.724l-.008-.008-.065.041-.1.041a.889.889,0,0,0-.139.106l-.9.571.53.016a5.584,5.584,0,0,1,4.306,3.629,6.693,6.693,0,0,1,.114,4.045l.587-.375a.894.894,0,0,0,.269-.114" transform="translate(-12.042 -7.532)"/>
    <path id="패스_4818" data-name="패스 4818" class="cls-8" d="M69.131,45.566a5.584,5.584,0,0,0-4.306-3.629l-.53-.016L59.85,44.75l4.4,8.074,5-3.221a6.678,6.678,0,0,0-.122-4.037" transform="translate(-11.038 -7.731)"/>
    <path id="패스_4819" data-name="패스 4819" class="cls-7" d="M60.12,44.878,62.355,43.5S67.7,44.609,67,51.37l-2.324,1.558Z" transform="translate(-11.088 -8.023)"/>
    <path id="패스_4820" data-name="패스 4820" class="cls-9" d="M64.222,48.189c1.142,2.169,1.109,4.42-.057,5.04s-3.042-.644-4.184-2.814-1.109-4.429.057-5.04,3.05.644,4.184,2.814" transform="translate(-10.908 -8.34)"/>
    <path id="패스_4821" data-name="패스 4821" class="cls-7" d="M60.649,45.392a1.137,1.137,0,0,0-.555.13c-1.044.546-1.036,2.724.033,4.747.881,1.68,2.251,2.854,3.336,2.854a1.191,1.191,0,0,0,.563-.13c1.044-.546,1.036-2.724-.033-4.747-.889-1.688-2.259-2.854-3.344-2.854m2.806,8.156c-1.256,0-2.748-1.24-3.711-3.083-1.215-2.308-1.142-4.649.147-5.326a1.578,1.578,0,0,1,.758-.179c1.256,0,2.748,1.24,3.711,3.083,1.215,2.308,1.15,4.649-.147,5.326a1.578,1.578,0,0,1-.758.179" transform="translate(-10.859 -8.292)"/>
    <path id="패스_4822" data-name="패스 4822" class="cls-10" d="M63.425,49.12c.636,1.15.636,2.365.008,2.708s-1.656-.3-2.292-1.452-.636-2.365-.008-2.716c.636-.334,1.656.31,2.292,1.46" transform="translate(-11.188 -8.774)"/>
    <path id="패스_4823" data-name="패스 4823" class="cls-4" d="M63.254,48.783c-.3.171-.8-.13-1.109-.677s-.326-1.125-.024-1.3.791.13,1.109.677.318,1.117.024,1.3" transform="translate(-11.417 -8.624)"/>
    <path id="패스_4824" data-name="패스 4824" class="cls-3" d="M61.846,31.392l-.033.318a.866.866,0,0,1-.9.783l-.049-.008a.874.874,0,0,1-.783-.9v-.057h0l.033-.318a.431.431,0,0,0-.383-.473.435.435,0,0,0-.473.383l-.033.31h0l-.008.106a1.732,1.732,0,0,0,1.55,1.786l.106.008a1.722,1.722,0,0,0,1.191-.424,1.68,1.68,0,0,0,.587-1.134l.033-.318a.431.431,0,0,0-.383-.473.465.465,0,0,0-.457.408" transform="translate(-10.922 -5.669)"/>
    <path id="패스_4825" data-name="패스 4825" class="cls-9" d="M91.164,78.21s4.4-9.069,14.362-1.615l-.114-2.088S94.63,66.352,88.75,77.892Z" transform="translate(-16.368 -13.226)"/>
    <path id="패스_4826" data-name="패스 4826" class="cls-9" d="M68.032,74.18a42.9,42.9,0,0,0,1.411,4.7l-2.781.212-.391-2.7Z" transform="translate(-12.222 -13.681)"/>
    <path id="패스_4827" data-name="패스 4827" class="cls-11" d="M65.656,79.384a111.209,111.209,0,0,0-3.719,16.14c-1.313,8.9-1.631,14.378-.579,23.333a51.9,51.9,0,0,0,1.468,7.65c.334,1.215.718,2.414,1.125,3.6.2.6.742,3.221,1.272,3.5,0,0,12.747,13.326,39.979-.057l-4.722-26.131S88.435,104.984,86.159,79.09c-5.44.147-10.382.008-15.822.155-1.566.057-3.124.1-4.681.139" transform="translate(-11.2 -14.587)"/>
    <path id="패스_4828" data-name="패스 4828" class="cls-3" d="M70.48,95.69a38.32,38.32,0,0,0,7.536.563l.563,8.547-7.87-1.908Z" transform="translate(-12.999 -17.648)"/>
    <path id="패스_4829" data-name="패스 4829" class="cls-12" d="M70.7,104.942a11.358,11.358,0,0,0,8.058,1.558l-.2-2.055S75.795,99.6,70.51,99.38Z" transform="translate(-13.004 -18.329)"/>
    <path id="패스_4830" data-name="패스 4830" class="cls-13" d="M68.987,81.314a.6.6,0,1,1-.6-.6.6.6,0,0,1,.6.6" transform="translate(-12.501 -14.885)"/>
    <path id="패스_4831" data-name="패스 4831" class="cls-13" d="M112.9,144.524a.6.6,0,1,1-.6-.6.6.6,0,0,1,.6.6" transform="translate(-20.599 -26.543)"/>
    <path id="패스_4832" data-name="패스 4832" class="cls-13" d="M84.357,150.314a.6.6,0,1,1-.6-.6.6.6,0,0,1,.6.6" transform="translate(-15.335 -27.611)"/>
    <path id="패스_4833" data-name="패스 4833" class="cls-13" d="M77.247,148.9a.6.6,0,1,1-.6-.6.6.6,0,0,1,.6.6" transform="translate(-14.024 -27.351)"/>
    <path id="패스_4834" data-name="패스 4834" class="cls-13" d="M89.947,81.144a.6.6,0,1,1-.6-.6.6.6,0,0,1,.6.6" transform="translate(-16.366 -14.854)"/>
    <path id="패스_4835" data-name="패스 4835" class="cls-13" d="M93.668,76.267l-.131-.1a.489.489,0,0,1-.685.1l-.962-.726a.489.489,0,1,1,.587-.783l.962.726a.489.489,0,0,1,.1.685l.131.1.139.1a.817.817,0,0,0,.171-.5.83.83,0,0,0-.326-.661l-.962-.726a.817.817,0,0,0-.5-.171.83.83,0,0,0-.661.326.817.817,0,0,0-.171.5.83.83,0,0,0,.326.661l.962.726a.817.817,0,0,0,.5.171.83.83,0,0,0,.661-.326Z" transform="translate(-16.85 -13.705)"/>
    <path id="패스_4836" data-name="패스 4836" class="cls-13" d="M68.5,75.851l-.155.065a.561.561,0,0,1,.041.2.5.5,0,0,1-.3.457l-1.109.473a.557.557,0,0,1-.188.041.485.485,0,0,1-.449-.3.561.561,0,0,1-.041-.2.485.485,0,0,1,.3-.449l1.109-.473a.556.556,0,0,1,.188-.041.485.485,0,0,1,.449.3l.155-.073.155-.065a.829.829,0,0,0-.758-.506.93.93,0,0,0-.326.065l-1.109.473a.82.82,0,0,0-.506.758.93.93,0,0,0,.065.326.831.831,0,0,0,.767.506.93.93,0,0,0,.326-.065l1.109-.473a.829.829,0,0,0,.506-.758.93.93,0,0,0-.065-.326Z" transform="translate(-12.165 -13.884)"/>
    <rect id="사각형_488" data-name="사각형 488" class="cls-14" width="3.254" height="3.303" transform="translate(72.312 67.599) rotate(-7.342)"/>
    <path id="패스_4837" data-name="패스 4837" class="cls-4" d="M91.57,84.29,90.9,84.4a.677.677,0,0,0-.563.767l.016.114a.1.1,0,0,0,.2-.033l-.016-.114a.471.471,0,0,1,.391-.538l.669-.106a.094.094,0,0,0,.082-.114c.008-.057-.049-.09-.106-.082" transform="translate(-16.66 -15.545)"/>
    <path id="패스_4838" data-name="패스 4838" class="cls-4" d="M91.657,83.83l-.881.139a1.024,1.024,0,0,0-.848,1.158l.016.114a.094.094,0,0,0,.114.082.1.1,0,0,0,.082-.114l-.016-.114a.812.812,0,0,1,.677-.93l.881-.139a.091.091,0,0,0,.082-.114c.008-.049-.049-.09-.106-.082" transform="translate(-16.583 -15.461)"/>
    <path id="패스_4839" data-name="패스 4839" class="cls-4" d="M91.765,83.37l-1.125.179a1.364,1.364,0,0,0-1.134,1.558l.016.114a.091.091,0,0,0,.114.082.1.1,0,0,0,.082-.114l-.016-.114a1.159,1.159,0,0,1,.962-1.321l1.126-.179a.1.1,0,0,0,.082-.114.087.087,0,0,0-.106-.09" transform="translate(-16.505 -15.376)"/>
    <rect id="사각형_489" data-name="사각형 489" class="cls-15" width="11.94" height="1.207" transform="matrix(0.407, -0.914, 0.914, 0.407, 66.465, 98.206)"/>
    <rect id="사각형_490" data-name="사각형 490" class="cls-16" width="3.328" height="1.207" transform="matrix(0.408, -0.913, 0.913, 0.408, 69.958, 90.33)"/>
    <rect id="사각형_491" data-name="사각형 491" class="cls-16" width="3.319" height="0.31" transform="translate(70.896 91.691) rotate(-65.97)"/>
    <path id="패스_4840" data-name="패스 4840" class="cls-16" d="M88.03,109.111l.285.122.253-.563-.285-.13Z" transform="translate(-16.236 -20.018)"/>
    <rect id="사각형_492" data-name="사각형 492" class="cls-17" width="8.621" height="1.207" transform="translate(66.093 98.92) rotate(-81.512)"/>
    <path id="패스_4841" data-name="패스 4841" class="cls-18" d="M83.809,110.368l-1.2-.179.677-2.879.53.106Z" transform="translate(-15.236 -19.791)"/>
    <rect id="사각형_493" data-name="사각형 493" class="cls-15" width="5.839" height="10.725" transform="translate(58.882 91.795) rotate(-25.151)"/>
    <path id="패스_4842" data-name="패스 4842" class="cls-19" d="M73.183,112.211a.142.142,0,1,1-.261.114l-.334-.75a.14.14,0,0,1,.073-.188.138.138,0,0,1,.188.073Z" transform="translate(-13.385 -20.541)"/>
    <path id="패스_4843" data-name="패스 4843" class="cls-19" d="M74.163,111.781a.142.142,0,1,1-.261.114l-.334-.75a.14.14,0,0,1,.073-.188.144.144,0,0,1,.188.065Z" transform="translate(-13.566 -20.462)"/>
    <path id="패스_4844" data-name="패스 4844" class="cls-19" d="M75.143,111.353a.14.14,0,0,1-.073.188.143.143,0,0,1-.188-.073l-.334-.742a.14.14,0,0,1,.073-.188.138.138,0,0,1,.188.073Z" transform="translate(-13.747 -20.384)"/>
    <path id="패스_4845" data-name="패스 4845" class="cls-19" d="M76.121,110.921a.142.142,0,1,1-.261.114l-.343-.75a.142.142,0,1,1,.261-.114Z" transform="translate(-13.925 -20.303)"/>
    <path id="패스_4846" data-name="패스 4846" class="cls-19" d="M77.094,110.491a.144.144,0,0,1-.065.188.14.14,0,0,1-.188-.073l-.334-.75a.14.14,0,0,1,.073-.188.138.138,0,0,1,.188.073Z" transform="translate(-14.108 -20.224)"/>
    <path id="패스_4847" data-name="패스 4847" class="cls-19" d="M78.072,110.061a.142.142,0,1,1-.261.114l-.334-.75a.14.14,0,0,1,.073-.188.144.144,0,0,1,.188.065Z" transform="translate(-14.287 -20.144)"/>
    <path id="패스_4848" data-name="패스 4848" class="cls-12" d="M65.83,112.29l.318.09a55.1,55.1,0,0,0,16.442,1.737l.228,12.837s-16.654-.816-16.988-14.664" transform="translate(-12.141 -20.71)"/>
    <path id="패스_4849" data-name="패스 4849" class="cls-20" d="M74.264,104.412c-.033-.041-.065-.082-.1-.131a1.063,1.063,0,0,0-.122-.147c-.041-.033-.073-.065-.114-.1a.652.652,0,0,0-.131-.065.608.608,0,0,0-.432.008,1.161,1.161,0,0,0-.228.106c-.057.033-.106.073-.163.106l-.073.041c-.09.033-.09.065-.163.114a.89.89,0,0,0-.139.106h0c-.008.008.253-.179.416-.041a.1.1,0,0,1,.13.073s.049.122.22.049a.115.115,0,0,1,.188.008s.163.2.277-.016c0,0,.073-.106.261.139,0,0,.065.139.237-.016,0,0,.1-.065.228.106-.057-.073-.1-.147-.155-.22a.931.931,0,0,1-.139-.122Z" transform="translate(-13.39 -19.169)"/>
    <path id="패스_4850" data-name="패스 4850" class="cls-21" d="M74.975,106.284c.09.008.237.033.228-.106a.338.338,0,0,0-.033-.1c-.049-.09-.008-.024-.114-.228a.794.794,0,0,0-.155-.171,1.382,1.382,0,0,1-.294-.359,2.316,2.316,0,0,0-.334-.465c-.1-.212-.245-.09-.245-.09-.114.171-.2.008-.2.008-.188-.236-.261-.139-.261-.139-.114.2-.261.016-.261.016a.13.13,0,0,0-.2-.016c-.179.073-.212-.041-.212-.041-.016-.033-.041-.114-.082-.13s-.114.008-.163-.008a.274.274,0,0,0-.285.082l-.024.024h0c-.139.1-.065.261-.2.351a2,2,0,0,1-.375.2c-.188.073-.171.1-.359.245-.041.033-.179.082-.155.147.041.106.2.13.318.155l3.279.612a1.043,1.043,0,0,0,.139.016" transform="translate(-13.138 -19.263)"/>
    <path id="패스_4851" data-name="패스 4851" class="cls-22" d="M73.408,104.228,73.4,104.2l.082-.049a.392.392,0,0,0,.171-.237l.041.008.008.016a.45.45,0,0,1-.22.294l-.057.024-.016-.024Z" transform="translate(-13.537 -19.164)"/>
    <path id="패스_4852" data-name="패스 4852" class="cls-22" d="M73.58,104.183c.3.171.285.1.285.1,0-.073-.163-.122-.22-.13Z" transform="translate(-13.57 -19.209)"/>
    <path id="패스_4853" data-name="패스 4853" class="cls-21" d="M72.567,102.616l-.008-.008-.016-.008h-.008c-.049-.008-.285-.016-.481.7h0L72,103.35H72a.086.086,0,0,0-.106.057l.008.09a.169.169,0,0,0,.114.082h.065c.147-.008.188-.139.22-.237l.016-.041.033-.1a.991.991,0,0,1,.114-.269.627.627,0,0,1,.13-.122l.041-.033.024-.016Z" transform="translate(-13.259 -18.922)"/>
    <path id="패스_4854" data-name="패스 4854" class="cls-21" d="M71.646,104.55l-.016.041.024.065.016.057.008.024.016.024v.008l.065.082h.033l.057-.016.041-.016.016-.049-.041-.008-.041.016-.033.008h-.008l-.024-.041v-.008l-.016-.024V104.7l-.008-.024-.016-.049-.016-.041-.008-.008v-.016l-.041-.016Z" transform="translate(-13.211 -19.282)"/>
    <path id="패스_4855" data-name="패스 4855" class="cls-21" d="M71.9,104.88l-.049-.016-.073.024-.024.008-.073-.024-.016-.033-.1-.253-.041-.016-.016.041.1.253.033.049a.18.18,0,0,0,.122.049l.041-.008.073-.024Z" transform="translate(-13.189 -19.286)"/>
    <path id="패스_4856" data-name="패스 4856" class="cls-21" d="M71.824,104.975l-.057.024-.041.008a.16.16,0,0,1-.155-.09l-.114-.3-.041-.016-.016.016v.024l.114.3h0a.221.221,0,0,0,.22.13l.057-.008v-.008l.008.008.065-.024.016-.041Z" transform="translate(-13.168 -19.292)"/>
    <path id="패스_4857" data-name="패스 4857" class="cls-2" d="M72.783,104.447a.644.644,0,0,1-.2.408l-.082.049-.09.033-.122.359-.09-.016.016-.359-.147-.033-.163.367-.082-.016.041-.449-.016-.024-.033-.073a.461.461,0,0,1-.033-.277,3.584,3.584,0,0,1,.171-.5c.073-.2.155-.4.228-.6a3.1,3.1,0,0,1,.188-.408l.13-.139a.305.305,0,0,1,.057-.375.24.24,0,0,1,.13.261.722.722,0,0,0,.139.024l.024.008a.269.269,0,0,1,.245-.122.3.3,0,0,1-.122.294l.114.139a1.568,1.568,0,0,1,.147.253.334.334,0,0,1,.057.245.235.235,0,0,1-.188.147l-.13.008a.553.553,0,0,1-.2-.1v.318c0,.139.008.277.008.416a1.1,1.1,0,0,1-.008.155" transform="translate(-13.239 -18.886)"/>
    <path id="패스_4858" data-name="패스 4858" class="cls-23" d="M73.54,103.7l.082.057h-.106a.1.1,0,0,0-.049.155.107.107,0,0,0,.155.033l.057-.09v.1a.1.1,0,1,0,.179-.1l-.082-.057h.1a.113.113,0,0,0,.057-.155.107.107,0,0,0-.155-.033l-.057.082v-.106a.1.1,0,0,0-.155-.049.123.123,0,0,0-.024.163" transform="translate(-13.546 -19.092)"/>
    <path id="패스_4859" data-name="패스 4859" class="cls-23" d="M73.628,103.772a.121.121,0,1,0,.155-.073.115.115,0,0,0-.155.073" transform="translate(-13.578 -19.124)"/>
    <path id="패스_4860" data-name="패스 4860" class="cls-24" d="M72.038,104.87l-.008.122.114.016.024-.139Z" transform="translate(-13.285 -19.341)"/>
    <path id="패스_4861" data-name="패스 4861" class="cls-24" d="M71.8,105.972l.171.033-.041-.139-.082-.016Z" transform="translate(-13.242 -19.522)"/>
    <path id="패스_4862" data-name="패스 4862" class="cls-25" d="M72.12,104.993l.008-.033Z" transform="translate(-13.301 -19.358)"/>
    <path id="패스_4863" data-name="패스 4863" class="cls-26" d="M72.11,104.991l.016-.041m-.008.041v-.041m0,.041H72.11l.008-.041h.008Z" transform="translate(-13.299 -19.356)"/>
    <path id="패스_4864" data-name="패스 4864" class="cls-24" d="M72.26,106.06l.147.024-.024-.139-.082-.016Z" transform="translate(-13.327 -19.537)"/>
    <path id="패스_4865" data-name="패스 4865" class="cls-4" d="M72.169,104.824l.041-.2a.132.132,0,0,1-.122.024l-.049-.008-.008.2Z" transform="translate(-13.285 -19.295)"/>
    <path id="패스_4866" data-name="패스 4866" class="cls-4" d="M72.326,105.738h0l-.008.008h0l-.008.147.082.016.057-.155H72.44l-.008.008-.033-.008-.008-.008-.016-.008-.008-.008h-.008Z" transform="translate(-13.336 -19.5)"/>
    <path id="패스_4867" data-name="패스 4867" class="cls-4" d="M71.86,105.809l.082.016.073-.147-.049-.016-.041-.008-.033-.016-.016-.008Z" transform="translate(-13.253 -19.482)"/>
    <path id="패스_4868" data-name="패스 4868" class="cls-27" d="M73.4,103.45Z" transform="translate(-13.537 -19.079)"/>
    <path id="패스_4869" data-name="패스 4869" class="cls-24" d="M73.286,103.18l-.008.008-.008.008v.008l.008.049.041.024h0l.073-.049v-.016l-.016-.024h0l-.016.008v.008l-.008.016-.024.016h0l-.016-.008-.008-.016V103.2Z" transform="translate(-13.513 -19.03)"/>
    <path id="패스_4870" data-name="패스 4870" class="cls-24" d="M72.946,103.23h-.008l-.008.016v.008l.008.041.041.033h.008l.065-.057v-.016l-.016-.016h0l-.016.016v.008l-.033.024h0l-.016-.008-.008-.016.008-.016-.016-.016Z" transform="translate(-13.451 -19.039)"/>
    <path id="패스_4871" data-name="패스 4871" class="cls-21" d="M72.922,102.888l-.033-.008-.049.033.033.049.033.008.024.033v.016l.008.033.024.016h0l.049-.033v-.016h0a.11.11,0,0,0-.09-.13" transform="translate(-13.434 -18.974)"/>
    <path id="패스_4872" data-name="패스 4872" class="cls-21" d="M73.069,102.995,73,102.783l-.147-.033-.049.033.033.049.147.033c.049.008.065.041.057.09v.016l.008.033.024.016h0l.049-.033v-.016h0a.156.156,0,0,0-.122-.188" transform="translate(-13.427 -18.95)"/>
    <path id="패스_4873" data-name="패스 4873" class="cls-21" d="M73.186,102.749a.252.252,0,0,0-.13-.09l-.237-.049-.049.033.008.033.024.016.237.049.073.049.016.09v.008l.008.033.024.016h0l.049-.033V102.9a.158.158,0,0,0-.024-.147" transform="translate(-13.421 -18.925)"/>
    <path id="패스_4874" data-name="패스 4874" class="cls-4" d="M72.618,104.936l-.008.016v.041l.016.008.024-.008.024-.041-.024-.033Z" transform="translate(-13.392 -19.351)"/>
    <path id="패스_4875" data-name="패스 4875" class="cls-4" d="M72.468,105.166l-.008.016v.041l.016.008.024-.008.024-.041-.024-.033Z" transform="translate(-13.364 -19.393)"/>
    <path id="패스_4876" data-name="패스 4876" class="cls-4" d="M72.638,105.146l-.008.016v.041l.016.008.024-.008.024-.049-.016-.024Z" transform="translate(-13.395 -19.389)"/>
    <path id="패스_4877" data-name="패스 4877" class="cls-4" d="M72.8,105.064l-.016.016v.041h.041l.024-.049-.016-.033Z" transform="translate(-13.423 -19.373)"/>
    <path id="패스_4878" data-name="패스 4878" class="cls-4" d="M72.831,104.82l-.033.024-.008.016v.041l.016.008.024-.008.016-.049Z" transform="translate(-13.425 -19.332)"/>
    <path id="패스_4879" data-name="패스 4879" class="cls-4" d="M72.384,103.99l-.024.041.024.033h0l.033-.024.008-.016-.008-.033Z" transform="translate(-13.345 -19.179)"/>
    <path id="패스_4880" data-name="패스 4880" class="cls-4" d="M72.5,103.8l-.016.041.016.033h0l.033-.024.008-.016v-.041Z" transform="translate(-13.368 -19.142)"/>
    <path id="패스_4881" data-name="패스 4881" class="cls-4" d="M72.4,103.648l-.016.041.016.033h0l.033-.024.008-.016v-.041Z" transform="translate(-13.349 -19.114)"/>
    <path id="패스_4882" data-name="패스 4882" class="cls-4" d="M72.306,103.83l-.016.041.016.033h0l.033-.024.008-.016v-.033Z" transform="translate(-13.333 -19.15)"/>
    <path id="패스_4883" data-name="패스 4883" class="cls-2" d="M73.2,104.22a.221.221,0,0,1-.285-.13l-.1.212a.275.275,0,0,0,.416.057Z" transform="translate(-13.43 -19.197)"/>
    <path id="패스_4884" data-name="패스 4884" class="cls-4" d="M73.146,104.454a.369.369,0,0,0,.147-.065l-.033-.139a.284.284,0,0,1-.114.008l.008.033v.057l-.024.082Z" transform="translate(-13.487 -19.227)"/>
    <path id="패스_4885" data-name="패스 4885" class="cls-4" d="M73.383,103.56h0a.153.153,0,0,1,0-.122v-.016l-.016-.008h-.016a.179.179,0,0,1-.106-.073h-.016l-.008.016s.033.073,0,.114v.016l.008.008h0c.016,0,.065.016.122.09l.008.008h.016Z" transform="translate(-13.504 -19.059)"/>
    <path id="패스_4886" data-name="패스 4886" class="cls-24" d="M73.363,104.21l-.073.033.033.139.09-.073-.041-.1Z" transform="translate(-13.517 -19.22)"/>
    <path id="패스_4887" data-name="패스 4887" class="cls-22" d="M74.851,105.2a6.986,6.986,0,0,1-.049.75c-.008.106-.008.065-.016.139a.314.314,0,0,1,.237-.057s.155.049-.237.106l-.008.049-.008.049c-.008.041,0,.073-.049.065l-.016-.065.008-.033a.762.762,0,0,0,.024-.171c-.228-.057-.188-.106-.188-.106.024-.049.163.016.188.057a1.123,1.123,0,0,0,.016-.179s.049-.538.041-.6" transform="translate(-13.749 -19.402)"/>
    <path id="패스_4888" data-name="패스 4888" class="cls-22" d="M73.611,105.853a.417.417,0,0,0-.2-.008c.008-.065.008-.082.016-.171a2.117,2.117,0,0,0,.033-.693l-.049.008a5.213,5.213,0,0,1-.033.555,1.356,1.356,0,0,1-.016.2c-.024-.041-.163-.106-.188-.065,0,0-.033.049.179.1-.008.114-.016.13-.016.171-.188-.22-.2-.106-.2-.106,0,.041.155.114.2.139-.008.057-.016.049-.016.049h0l.024.033.024-.016v-.008a.962.962,0,0,0,.033-.147c.253.057.351,0,.22-.033" transform="translate(-13.487 -19.362)"/>
    <path id="패스_4889" data-name="패스 4889" class="cls-23" d="M73.53,105.5l-.065.008.049-.041a.078.078,0,0,0-.033-.106.064.064,0,0,0-.09.041l.008.065-.041-.057a.059.059,0,0,0-.09.033.079.079,0,0,0,.049.1h.065l-.049.041a.086.086,0,0,0,.033.106.064.064,0,0,0,.09-.041l-.008-.065.041.057a.059.059,0,0,0,.09-.033c.008-.049-.008-.1-.049-.106" transform="translate(-13.512 -19.43)"/>
    <path id="패스_4890" data-name="패스 4890" class="cls-23" d="M73.575,105.025H73.5l.065-.041.008-.016h.049l.016-.073-.041-.024h.049l.024-.073-.073-.008-.024.041V104.8l.008-.008-.016-.1-.057-.008.057-.024v-.1l-.09.016-.008.065-.024-.057-.09.008.016.1.057.008-.057.024v.1l.09-.016.016-.065.016.049v.057l.008.008-.073.049-.008.082-.041-.073a.086.086,0,1,0-.09.147h.073l-.065.041a.1.1,0,0,0,.016.131.078.078,0,0,0,.114-.041l.008-.082.041.073a.083.083,0,0,0,.122-.024.092.092,0,0,0-.024-.13" transform="translate(-13.508 -19.284)"/>
    <path id="패스_4891" data-name="패스 4891" class="cls-23" d="M75.012,104.965h-.057l.049-.041a.086.086,0,0,0-.033-.106.064.064,0,0,0-.09.041l.008.065-.041-.049a.059.059,0,0,0-.09.033.079.079,0,0,0,.049.1l.065-.008-.049.041a.076.076,0,0,0,.033.1.064.064,0,0,0,.09-.041l-.008-.065.041.057a.059.059,0,0,0,.09-.033c0-.033-.016-.082-.057-.09" transform="translate(-13.787 -19.331)"/>
    <path id="패스_4892" data-name="패스 4892" class="cls-23" d="M74.722,105.707l.073.024-.049-.065v-.016l-.049-.016.016-.073.041-.008-.041-.024v-.073l.073.016.008.049.016-.033-.008-.016.049-.09.057.008-.041-.041a.066.066,0,0,1,.041-.09.06.06,0,0,1,.082.049l-.008.065.041-.041.082.041a.078.078,0,0,1-.049.09L75,105.455l.041.041a.066.066,0,0,1-.041.09.065.065,0,0,1-.082-.049l.008-.065-.033.041-.024.049-.008.008.049.073-.024.082.065-.049a.082.082,0,0,1,.106.065.092.092,0,0,1-.082.106l-.073-.024.049.065a.092.092,0,0,1-.065.114.085.085,0,0,1-.1-.082l.024-.082-.065.049a.082.082,0,0,1-.106-.065c0-.057.033-.114.082-.114" transform="translate(-13.766 -19.412)"/>
    <path id="패스_4893" data-name="패스 4893" class="cls-23" d="M73.48,105.166l.008.016.016-.016-.008-.016Z" transform="translate(-13.552 -19.393)"/>
    <path id="패스_4894" data-name="패스 4894" class="cls-22" d="M74.35,104.55a4.914,4.914,0,0,0-.326,1,1.935,1.935,0,0,0-.057.237.369.369,0,0,0-.237-.163s-.188-.008.237.2a.718.718,0,0,0-.016.139v.049l.016.041c.016.008.049.016.057-.041l.008-.049c.057-.008.277-.033.285-.09,0,0,.033-.147-.285.049.008-.049,0-.008.024-.139.277.016.261-.049.261-.049-.008-.065-.2-.033-.245,0a3.023,3.023,0,0,1,.073-.326s.237-.775.277-.848" transform="translate(-13.591 -19.282)"/>
    <path id="패스_4895" data-name="패스 4895" class="cls-23" d="M74.068,105.346l.065.041-.073.008a.085.085,0,0,0-.033.122.077.077,0,0,0,.122.016l.041-.073.008.082a.078.078,0,0,0,.114.033.09.09,0,0,0,.016-.131l-.065-.041.073-.008a.094.094,0,0,0,.033-.13.081.081,0,0,0-.122-.016l-.041.073-.008-.082a.078.078,0,0,0-.114-.033.1.1,0,0,0-.016.139" transform="translate(-13.65 -19.401)"/>
    <path id="패스_4896" data-name="패스 4896" class="cls-23" d="M74.2,104.738l.057.073-.09-.024a.111.111,0,0,0-.09.13.1.1,0,0,0,.131.073l.073-.065-.024.1a.1.1,0,0,0,.122.09.11.11,0,0,0,.073-.139L74.4,104.9l.09.024a.111.111,0,0,0,.09-.13.094.094,0,0,0-.13-.073l-.073.065.024-.1a.1.1,0,0,0-.122-.09.1.1,0,0,0-.073.139" transform="translate(-13.662 -19.291)"/>
    <path id="패스_4897" data-name="패스 4897" class="cls-23" d="M74.5,104.39l.024.073-.065-.041a.1.1,0,0,0-.106.073.075.075,0,0,0,.082.09l.073-.033-.049.065a.076.076,0,0,0,.065.1.09.09,0,0,0,.09-.09l-.024-.073.065.041a.1.1,0,0,0,.106-.073.076.076,0,0,0-.082-.09l-.073.033.049-.065a.076.076,0,0,0-.065-.1.09.09,0,0,0-.09.09" transform="translate(-13.712 -19.236)"/>
    <path id="패스_4898" data-name="패스 4898" class="cls-23" d="M74.86,105.686l.008.008.016-.008-.008-.016Z" transform="translate(-13.807 -19.489)"/>
    <path id="패스_4899" data-name="패스 4899" class="cls-23" d="M73.45,104.689l.049.065.065-.049-.049-.065Z" transform="translate(-13.546 -19.299)"/>
    <path id="패스_4900" data-name="패스 4900" class="cls-23" d="M73.533,105.148a.083.083,0,0,1-.163-.033.085.085,0,0,1,.1-.065.079.079,0,0,1,.065.1" transform="translate(-13.531 -19.374)"/>
    <path id="패스_4901" data-name="패스 4901" class="cls-23" d="M73.37,105.529l.057.082.073-.049-.049-.082Z" transform="translate(-13.532 -19.454)"/>
    <path id="패스_4902" data-name="패스 4902" class="cls-23" d="M74.3,105.436a.091.091,0,1,1-.073-.106.1.1,0,0,1,.073.106" transform="translate(-13.67 -19.426)"/>
    <path id="패스_4903" data-name="패스 4903" class="cls-23" d="M74.461,104.922a.113.113,0,0,1-.13.09.1.1,0,0,1-.082-.122.109.109,0,0,1,.122-.09.1.1,0,0,1,.09.122" transform="translate(-13.693 -19.328)"/>
    <path id="패스_4904" data-name="패스 4904" class="cls-23" d="M74.673,104.558a.083.083,0,1,1-.065-.1.089.089,0,0,1,.065.1" transform="translate(-13.742 -19.265)"/>
    <rect id="사각형_494" data-name="사각형 494" class="cls-23" width="0.09" height="0.09" transform="translate(61.057 85.635) rotate(-34.402)"/>
    <rect id="사각형_495" data-name="사각형 495" class="cls-23" width="0.09" height="0.09" transform="matrix(0.824, -0.567, 0.567, 0.824, 61.123, 85.992)"/>
    <path id="패스_4905" data-name="패스 4905" class="cls-23" d="M74.77,105.611l.033.057.057-.041-.033-.057Z" transform="translate(-13.79 -19.47)"/>
    <path id="패스_4906" data-name="패스 4906" class="cls-23" d="M74.963,105.878a.079.079,0,0,1-.1.065.083.083,0,1,1,.1-.065" transform="translate(-13.795 -19.509)"/>
    <path id="패스_4907" data-name="패스 4907" class="cls-3" d="M75.832,49.949l1.762,6.125L70.213,59.6l-.473-9.143s3.458-1.419,6.084-.791" transform="translate(-12.862 -9.13)"/>
    <path id="패스_4908" data-name="패스 4908" class="cls-2" d="M77.7,57.56s5.4,17.991,20.2,14.387L93.074,85.811s-19.5.913-22.754-24.728Z" transform="translate(-12.969 -10.616)"/>
    <path id="패스_4909" data-name="패스 4909" class="cls-4" d="M73.833,73.327A37.092,37.092,0,0,1,70.31,61.093l7.381-3.523a28.57,28.57,0,0,0,4.959,9.045s-3.972-.767-4.494,3.262c0,0-.922,2.781-2.618,3.124Z" transform="translate(-12.967 -10.618)"/>
  </g>
</svg>
