<svg id="그룹_448" data-name="그룹 448" xmlns="http://www.w3.org/2000/svg" viewBox="0 0 234.107 188.965">
  <defs>
    <style>
      .cls-1 {
        fill: #74c6be;
      }

      .cls-2 {
        fill: #6a6969;
      }

      .cls-3 {
        fill: #efefef;
      }

      .cls-4 {
        fill: #f7f8f8;
      }

      .cls-5 {
        fill: #fff;
      }

      .cls-6 {
        fill: #e3904a;
      }

      .cls-7 {
        fill: #bce2e3;
      }

      .cls-8 {
        fill: #727171;
      }

      .cls-9 {
        fill: #e4f3fa;
      }
    </style>
  </defs>
  <path id="패스_134" data-name="패스 134" class="cls-1" d="M134.4,86v58.336a2.835,2.835,0,0,0,5.67,0V86Z" transform="translate(12.149 7.665)"/>
  <rect id="사각형_48" data-name="사각형 48" class="cls-2" width="4.471" height="18.864" transform="translate(137.171 153.527)"/>
  <path id="패스_135" data-name="패스 135" class="cls-3" d="M135.866,164.433a7.633,7.633,0,1,1-7.633-7.633,7.586,7.586,0,0,1,7.633,7.633" transform="translate(10.901 14.064)"/>
  <path id="패스_136" data-name="패스 136" class="cls-2" d="M136.1,164.668h-2.835a4.84,4.84,0,1,1-1.418-3.38,4.784,4.784,0,0,1,1.418,3.38h5.67a10.458,10.458,0,0,0-3.053-7.415,10.654,10.654,0,0,0-7.415-3.053,10.458,10.458,0,0,0-7.415,3.053A10.654,10.654,0,0,0,118,164.668a10.458,10.458,0,0,0,3.053,7.415,10.654,10.654,0,0,0,7.415,3.053,10.458,10.458,0,0,0,7.415-3.053,10.655,10.655,0,0,0,3.053-7.415Z" transform="translate(10.666 13.83)"/>
  <rect id="사각형_49" data-name="사각형 49" class="cls-4" width="88.649" height="2.399" transform="translate(11.667 159.961)"/>
  <rect id="사각형_50" data-name="사각형 50" class="cls-4" width="88.649" height="2.399" transform="translate(11.667 155.381)"/>
  <rect id="사각형_51" data-name="사각형 51" class="cls-4" width="88.649" height="2.399" transform="translate(11.667 150.692)"/>
  <rect id="사각형_52" data-name="사각형 52" class="cls-4" width="88.649" height="2.399" transform="translate(11.667 146.004)"/>
  <rect id="사각형_53" data-name="사각형 53" class="cls-4" width="88.649" height="2.399" transform="translate(11.667 141.315)"/>
  <rect id="사각형_54" data-name="사각형 54" class="cls-4" width="88.649" height="2.399" transform="translate(11.667 136.735)"/>
  <rect id="사각형_55" data-name="사각형 55" class="cls-4" width="88.649" height="2.399" transform="translate(11.667 132.047)"/>
  <rect id="사각형_56" data-name="사각형 56" class="cls-4" width="88.649" height="2.399" transform="translate(11.667 127.358)"/>
  <rect id="사각형_57" data-name="사각형 57" class="cls-4" width="88.649" height="2.399" transform="translate(11.667 122.669)"/>
  <rect id="사각형_58" data-name="사각형 58" class="cls-4" width="88.649" height="2.399" transform="translate(11.667 118.09)"/>
  <rect id="사각형_59" data-name="사각형 59" class="cls-4" width="88.649" height="2.399" transform="translate(11.667 113.401)"/>
  <rect id="사각형_60" data-name="사각형 60" class="cls-4" width="88.649" height="2.399" transform="translate(11.667 108.712)"/>
  <rect id="사각형_61" data-name="사각형 61" class="cls-4" width="88.649" height="2.399" transform="translate(11.667 104.023)"/>
  <rect id="사각형_62" data-name="사각형 62" class="cls-4" width="88.649" height="2.399" transform="translate(11.667 99.444)"/>
  <rect id="사각형_63" data-name="사각형 63" class="cls-4" width="88.649" height="2.399" transform="translate(11.667 94.755)"/>
  <rect id="사각형_64" data-name="사각형 64" class="cls-4" width="88.649" height="2.399" transform="translate(11.667 90.066)"/>
  <rect id="사각형_65" data-name="사각형 65" class="cls-4" width="88.649" height="2.399" transform="translate(11.667 85.378)"/>
  <rect id="사각형_66" data-name="사각형 66" class="cls-4" width="88.649" height="2.399" transform="translate(11.667 80.798)"/>
  <rect id="사각형_67" data-name="사각형 67" class="cls-4" width="88.649" height="2.399" transform="translate(11.667 76.109)"/>
  <rect id="사각형_68" data-name="사각형 68" class="cls-4" width="88.649" height="2.399" transform="translate(11.667 71.421)"/>
  <rect id="사각형_69" data-name="사각형 69" class="cls-4" width="88.649" height="2.399" transform="translate(11.667 66.732)"/>
  <rect id="사각형_70" data-name="사각형 70" class="cls-4" width="88.649" height="2.399" transform="translate(11.667 62.152)"/>
  <rect id="사각형_71" data-name="사각형 71" class="cls-5" width="88.649" height="2.399" transform="translate(11.667 157.671)"/>
  <rect id="사각형_72" data-name="사각형 72" class="cls-5" width="88.649" height="2.399" transform="translate(11.667 152.982)"/>
  <rect id="사각형_73" data-name="사각형 73" class="cls-5" width="88.649" height="2.399" transform="translate(11.667 148.293)"/>
  <rect id="사각형_74" data-name="사각형 74" class="cls-5" width="88.649" height="2.399" transform="translate(11.667 143.714)"/>
  <rect id="사각형_75" data-name="사각형 75" class="cls-5" width="88.649" height="2.399" transform="translate(11.667 139.025)"/>
  <rect id="사각형_76" data-name="사각형 76" class="cls-5" width="88.649" height="2.399" transform="translate(11.667 134.336)"/>
  <rect id="사각형_77" data-name="사각형 77" class="cls-5" width="88.649" height="2.399" transform="translate(11.667 129.648)"/>
  <rect id="사각형_78" data-name="사각형 78" class="cls-5" width="88.649" height="2.399" transform="translate(11.667 125.068)"/>
  <rect id="사각형_79" data-name="사각형 79" class="cls-5" width="88.649" height="2.399" transform="translate(11.667 120.379)"/>
  <rect id="사각형_80" data-name="사각형 80" class="cls-5" width="88.649" height="2.399" transform="translate(11.667 115.691)"/>
  <rect id="사각형_81" data-name="사각형 81" class="cls-5" width="88.649" height="2.399" transform="translate(11.667 111.111)"/>
  <rect id="사각형_82" data-name="사각형 82" class="cls-5" width="88.649" height="2.399" transform="translate(11.667 106.422)"/>
  <rect id="사각형_83" data-name="사각형 83" class="cls-5" width="88.649" height="2.399" transform="translate(11.667 101.734)"/>
  <rect id="사각형_84" data-name="사각형 84" class="cls-5" width="88.649" height="2.399" transform="translate(11.667 97.045)"/>
  <rect id="사각형_85" data-name="사각형 85" class="cls-5" width="88.649" height="2.399" transform="translate(11.667 92.465)"/>
  <rect id="사각형_86" data-name="사각형 86" class="cls-5" width="88.649" height="2.399" transform="translate(11.667 87.777)"/>
  <rect id="사각형_87" data-name="사각형 87" class="cls-5" width="88.649" height="2.399" transform="translate(11.667 83.088)"/>
  <rect id="사각형_88" data-name="사각형 88" class="cls-5" width="88.649" height="2.399" transform="translate(11.667 78.399)"/>
  <rect id="사각형_89" data-name="사각형 89" class="cls-5" width="88.649" height="2.399" transform="translate(11.667 73.82)"/>
  <rect id="사각형_90" data-name="사각형 90" class="cls-5" width="88.649" height="2.399" transform="translate(11.667 69.131)"/>
  <rect id="사각형_91" data-name="사각형 91" class="cls-5" width="88.649" height="2.399" transform="translate(11.667 64.442)"/>
  <rect id="사각형_92" data-name="사각형 92" class="cls-5" width="88.649" height="2.399" transform="translate(11.667 59.754)"/>
  <rect id="사각형_93" data-name="사각형 93" class="cls-1" width="25.624" height="6.433" transform="translate(121.906 137.499)"/>
  <path id="패스_137" data-name="패스 137" class="cls-1" d="M112.27,131.6l-5.67,23.662h11.885V130.4Z" transform="translate(9.636 11.678)"/>
  <path id="패스_138" data-name="패스 138" class="cls-1" d="M1.5,161.732H125.15l11.667-8.832H1.5Z" transform="translate(0.136 13.712)"/>
  <path id="패스_139" data-name="패스 139" class="cls-6" d="M106.749,161.976H62.37v-8.069h44.379Zm-55.065,0H7.306v-8.069H51.685ZM0,167.646H115.145V149H0Z" transform="translate(0 13.359)"/>
  <path id="패스_140" data-name="패스 140" class="cls-1" d="M133.74,149.184l-11.34,7.96V134.9h11.34Z" transform="translate(11.064 12.085)"/>
  <rect id="사각형_94" data-name="사각형 94" class="cls-1" width="14.284" height="5.452" transform="translate(126.593 167.62) rotate(-35.936)"/>
  <path id="패스_141" data-name="패스 141" class="cls-2" d="M114.562,154.781a2.181,2.181,0,1,1-2.181-2.181,2.059,2.059,0,0,1,2.181,2.181" transform="translate(9.961 13.684)"/>
  <rect id="사각형_95" data-name="사각형 95" class="cls-1" width="7.088" height="7.851" transform="translate(142.296 146.985)"/>
  <path id="패스_142" data-name="패스 142" class="cls-1" d="M188.662,15.8s11.449,0,17.01,39.363c0,0,.436,5.125,4.907,4.362a2.841,2.841,0,0,1,3.053,2.29c.654,2.944-3.053,3.707-5.234,3.707a11.852,11.852,0,0,1-1.963-.109c-7.088-1.308-7.415-8.723-8.614-14.284-1.418-6.76-2.072-13.63-5.234-19.845-1.963-3.816-5.125-6.324-8.287-9.268Z" transform="translate(16.659 1.319)"/>
  <path id="패스_143" data-name="패스 143" class="cls-1" d="M207.751,149.738h0a1.326,1.326,0,0,1-1.308-1.309v-9.268c0-.981,0-2.181-.545-2.617-.436-.436-1.745-.327-2.29-.327l-2.29.109a1.313,1.313,0,1,1-.218-2.617l2.29-.109c1.09,0,2.944-.109,4.253.981,1.418,1.2,1.418,3.162,1.418,4.58v9.486a1.414,1.414,0,0,1-1.308,1.09" transform="translate(18.069 11.967)"/>
  <path id="패스_144" data-name="패스 144" class="cls-1" d="M211.122,152.208a1.26,1.26,0,0,1-1.309-1.308V137.706a4.345,4.345,0,0,0-.327-1.854,4.833,4.833,0,0,0-4.362-2.835h-3.816a1.308,1.308,0,0,1,0-2.617h3.816a7.249,7.249,0,0,1,6.76,4.58,10.069,10.069,0,0,1,.545,2.835v13.3a1.227,1.227,0,0,1-1.309,1.09" transform="translate(18.078 11.678)"/>
  <path id="패스_145" data-name="패스 145" class="cls-1" d="M214.521,154.8a1.26,1.26,0,0,1-1.308-1.308V137.35a8.224,8.224,0,0,0-7.742-7.633h-3.162a1.308,1.308,0,0,1,0-2.617h3.38a11.009,11.009,0,0,1,10.25,10.141v16.247a1.423,1.423,0,0,1-1.418,1.308" transform="translate(18.169 11.38)"/>
  <path id="패스_146" data-name="패스 146" class="cls-7" d="M181.8,156.026h2.072c.545,0,7.087-.436,7.087-.218l5.125,23.88h4.907l3.38-27.478s10.468-4.034,7.2-24.643l-6.433-61.825s-4.471-38.164-13.739-41.98c0,0,11.231-10.577,2.726-23.662a24.877,24.877,0,0,0-11.231,15.484s-.981.436-8.4.109h-2.4s-2.072-8.4-12.54-12.43c0,0-3.38,9.377,4.143,18.755-.327-.327-9.7,7.633-9.923,7.851-8.723,7.415-12.867,13.3-18.755,22.135-1.418,1.963-1.854,3.925-1.2,6.979.545,2.4,3.489,5.561,5.234,7.088a12.7,12.7,0,0,0,8.614,3.489c6.106-.109,13.085-.763,18.537-3.38-.218.109,0,.218-.763,4.8-.218,1.854-.545,3.816-.763,5.67-.654,4.471-1.2,8.832-1.854,13.3-.763,5.234-1.418,10.359-2.181,15.593-.545,4.144-1.09,8.287-1.745,12.43a42.566,42.566,0,0,0,.654,17.01,43.1,43.1,0,0,0,4.471,11.449c1.963,3.38,4.58,6.869,8.178,8.505a25.785,25.785,0,0,0,9.6,1.09" transform="translate(12.07 -0.1)"/>
  <path id="패스_147" data-name="패스 147" class="cls-8" d="M186.4,172.314h11.013l-1.2-8.4-5.234-.218Z" transform="translate(16.849 14.688)"/>
  <path id="패스_148" data-name="패스 148" class="cls-5" d="M188.6,154.806a1.657,1.657,0,0,0,2.726-.109s1.527-2.072,2.726,0c0,0,1.2,1.418,2.072-.654,0,0,.654-1.09,1.09-.109l-1.417,10.9-5.234-.218Z" transform="translate(17.048 13.768)"/>
  <path id="패스_149" data-name="패스 149" class="cls-5" d="M158.209,5.2s-1.09,8.614,3.489,13.194c4.471,4.689,2.181-9.159-3.489-13.194" transform="translate(14.291 0.361)"/>
  <path id="패스_150" data-name="패스 150" class="cls-5" d="M189.3,3.1s3.271,8.505-1.745,15.593c-4.58,6.215-4.253-9.814,1.745-15.593" transform="translate(16.671 0.171)"/>
  <path id="패스_151" data-name="패스 151" class="cls-9" d="M149.809,41.3a.338.338,0,0,0-.109.218c0-.109,0-.109.109-.218Z" transform="translate(13.532 3.624)"/>
  <path id="패스_152" data-name="패스 152" class="cls-1" d="M136.09,52.79v-.436a.932.932,0,0,1,.327-.654.674.674,0,0,1,.763-.218h.109a1.076,1.076,0,0,1,.981,1.09v.545a.494.494,0,1,0,.981.109V52.79h0v-.109A2.143,2.143,0,0,0,137.29,50.5h-.109a2.073,2.073,0,0,0-1.418.545A2.28,2.28,0,0,0,135,52.463V52.9a.5.5,0,0,0,.436.545q.654-.164.654-.654" transform="translate(12.203 4.456)"/>
  <path id="패스_153" data-name="패스 153" class="cls-1" d="M141.46,54.557l.218-.327a.736.736,0,0,1,.654-.436.958.958,0,0,1,.763.109h.109a1.193,1.193,0,0,1,.436,1.418v.109l-.218.327a.561.561,0,1,0,.981.545l.218-.327h0l.109-.109a2.135,2.135,0,0,0-.763-2.835l-.109-.109a2.507,2.507,0,0,0-1.527-.218,1.946,1.946,0,0,0-1.308.981l-.218.327a.575.575,0,0,0,.218.763c-.109.109.218.109.436-.218" transform="translate(12.722 4.651)"/>
  <path id="패스_154" data-name="패스 154" class="cls-1" d="M168.217,27.033a1.443,1.443,0,0,1-1.418-1.418v-.872c.218-3.162,1.2-5.343,5.343-5.343h4.143a1.418,1.418,0,1,1,0,2.835h-4.143c-1.963,0-2.4.218-2.508,2.617v.763a1.443,1.443,0,0,1-1.417,1.418" transform="translate(15.077 1.645)"/>
  <path id="패스_155" data-name="패스 155" class="cls-1" d="M164.718,25.832a1.443,1.443,0,0,1-1.418-1.418v-.872c.327-4.689,3.271-7.633,7.96-7.742h7.524a1.418,1.418,0,0,1,0,2.835H171.26c-3.925.109-4.907,2.835-5.125,5.016v.763a1.443,1.443,0,0,1-1.418,1.418" transform="translate(14.761 1.319)"/>
  <path id="패스_156" data-name="패스 156" class="cls-1" d="M161.217,24.621A1.443,1.443,0,0,1,159.8,23.2v-.436A10.47,10.47,0,0,1,170.268,12.3H181.5a1.418,1.418,0,1,1,0,2.835H170.268a7.539,7.539,0,0,0-7.524,7.524v.436a1.639,1.639,0,0,1-1.527,1.527" transform="translate(14.445 1.003)"/>
  <path id="패스_157" data-name="패스 157" class="cls-5" d="M160.263,114.236c-.109,0-.218-.109-.327-.218a2.694,2.694,0,0,1-.436-.981.436.436,0,1,1,.872,0,1.151,1.151,0,0,0,.218.545.514.514,0,0,1-.109.654h-.218" transform="translate(14.418 10.069)"/>
  <path id="패스_158" data-name="패스 158" class="cls-5" d="M159.663,109.545c-.109,0-.218-.109-.327-.218a2.694,2.694,0,0,1-.436-.981.45.45,0,0,1,.872-.218,1.151,1.151,0,0,0,.218.545.514.514,0,0,1-.109.654.235.235,0,0,1-.218.218" transform="translate(14.363 9.635)"/>
  <path id="패스_159" data-name="패스 159" class="cls-5" d="M163.563,124.045c-.109,0-.218-.109-.327-.218a2.694,2.694,0,0,1-.436-.981.45.45,0,0,1,.872-.218,1.151,1.151,0,0,0,.218.545.514.514,0,0,1-.109.654c0,.218-.109.218-.218.218" transform="translate(14.716 10.946)"/>
  <path id="패스_160" data-name="패스 160" class="cls-5" d="M165.563,127.636c-.109,0-.218-.109-.327-.218a2.693,2.693,0,0,1-.436-.981c0-.218.109-.436.327-.436a.6.6,0,0,1,.545.327,1.151,1.151,0,0,0,.218.545.514.514,0,0,1-.109.654c0,.109-.109.109-.218.109" transform="translate(14.897 11.28)"/>
  <path id="패스_161" data-name="패스 161" class="cls-5" d="M163.763,130.236c-.109,0-.218-.109-.327-.218a2.694,2.694,0,0,1-.436-.981.436.436,0,0,1,.872,0,1.151,1.151,0,0,0,.218.545.514.514,0,0,1-.109.654h-.218" transform="translate(14.734 11.515)"/>
  <path id="패스_162" data-name="패스 162" class="cls-5" d="M162.163,126.936c-.109,0-.218-.109-.327-.218a1.624,1.624,0,0,1-.436-.981.436.436,0,1,1,.872,0,1.152,1.152,0,0,0,.218.545.514.514,0,0,1-.109.654h-.218" transform="translate(14.589 11.217)"/>
  <path id="패스_163" data-name="패스 163" class="cls-5" d="M165.363,122.236c-.109,0-.218-.109-.327-.218a2.694,2.694,0,0,1-.436-.981.436.436,0,1,1,.872,0,1.151,1.151,0,0,0,.218.545.514.514,0,0,1-.109.654h-.218" transform="translate(14.879 10.792)"/>
  <path id="패스_164" data-name="패스 164" class="cls-5" d="M159.763,121.936c-.109,0-.218-.109-.327-.218a2.694,2.694,0,0,1-.436-.981.436.436,0,1,1,.872,0,1.151,1.151,0,0,0,.218.545.514.514,0,0,1-.109.654c0-.109-.109,0-.218,0" transform="translate(14.372 10.765)"/>
  <path id="패스_165" data-name="패스 165" class="cls-5" d="M159.963,117.836c-.109,0-.218-.109-.327-.218a2.7,2.7,0,0,1-.436-.981.436.436,0,1,1,.872,0,1.152,1.152,0,0,0,.218.545.514.514,0,0,1-.109.654c0-.109-.109,0-.218,0" transform="translate(14.39 10.395)"/>
  <path id="패스_166" data-name="패스 166" class="cls-5" d="M162.663,112.127c-.109,0-.218-.109-.327-.109a1.624,1.624,0,0,1-.436-.981.436.436,0,0,1,.872,0,1.152,1.152,0,0,0,.218.545.514.514,0,0,1-.109.654c0-.109-.109-.109-.218-.109" transform="translate(14.635 9.888)"/>
  <path id="패스_167" data-name="패스 167" class="cls-5" d="M162.663,120.036c-.109,0-.218-.109-.327-.218a1.624,1.624,0,0,1-.436-.981.436.436,0,0,1,.872,0,1.152,1.152,0,0,0,.218.545.514.514,0,0,1-.109.654h-.218" transform="translate(14.635 10.593)"/>
  <path id="패스_168" data-name="패스 168" class="cls-5" d="M193.833,137.045c-.109,0-.218,0-.218-.109-.218-.109-.218-.436-.109-.654a1.151,1.151,0,0,0,.218-.545.436.436,0,0,1,.872,0,1.624,1.624,0,0,1-.436.981q-.164.327-.327.327" transform="translate(17.485 12.121)"/>
  <path id="패스_169" data-name="패스 169" class="cls-5" d="M192.533,133.845c-.109,0-.218,0-.218-.109-.218-.109-.218-.436-.109-.654a1.151,1.151,0,0,0,.218-.545.436.436,0,1,1,.872,0,1.624,1.624,0,0,1-.436.981.348.348,0,0,1-.327.327" transform="translate(17.367 11.832)"/>
  <path id="패스_170" data-name="패스 170" class="cls-5" d="M199.133,130.645c-.109,0-.218,0-.218-.109-.218-.109-.218-.436-.109-.654a1.151,1.151,0,0,0,.218-.545.436.436,0,1,1,.872,0,1.624,1.624,0,0,1-.436.981.348.348,0,0,1-.327.327" transform="translate(17.964 11.543)"/>
  <path id="패스_171" data-name="패스 171" class="cls-5" d="M196.933,134.738c-.109,0-.218,0-.218-.109-.218-.109-.218-.436-.109-.654a1.151,1.151,0,0,0,.218-.545.45.45,0,1,1,.872.218,1.624,1.624,0,0,1-.436.981.4.4,0,0,1-.327.109" transform="translate(17.765 11.92)"/>
  <path id="패스_172" data-name="패스 172" class="cls-5" d="M196.133,132.245c-.109,0-.218,0-.218-.109-.218-.109-.218-.436-.109-.654a1.152,1.152,0,0,0,.218-.545.5.5,0,0,1,.545-.436.381.381,0,0,1,.327.545,1.624,1.624,0,0,1-.436.981c-.109.109-.218.218-.327.218" transform="translate(17.693 11.687)"/>
  <path id="패스_173" data-name="패스 173" class="cls-5" d="M199.733,133.845c-.109,0-.218,0-.218-.109-.218-.109-.218-.436-.109-.654a1.152,1.152,0,0,0,.218-.545.5.5,0,0,1,.545-.436.381.381,0,0,1,.327.545,1.624,1.624,0,0,1-.436.981c-.109.109-.218.218-.327.218" transform="translate(18.018 11.832)"/>
  <path id="패스_174" data-name="패스 174" class="cls-5" d="M195.833,138.638c-.109,0-.218,0-.218-.109-.218-.109-.218-.436-.109-.654a1.151,1.151,0,0,0,.218-.545.45.45,0,1,1,.872.218,1.624,1.624,0,0,1-.436.981.4.4,0,0,1-.327.109" transform="translate(17.666 12.272)"/>
  <path id="패스_175" data-name="패스 175" class="cls-5" d="M196.349,70.639h0c-.327,0-.436-.218-.436-.545,0-.109,0-.436-.109-.545a.415.415,0,1,1,.763-.327,3.225,3.225,0,0,1,.218,1.09c0,.218-.218.327-.436.327" transform="translate(17.695 6.125)"/>
  <path id="패스_176" data-name="패스 176" class="cls-5" d="M191.949,61.639h0c-.327,0-.436-.218-.436-.545,0-.109,0-.436-.109-.545a.415.415,0,0,1,.763-.327,1.794,1.794,0,0,1,.109,1.09c.109.218-.109.327-.327.327" transform="translate(17.298 5.311)"/>
  <path id="패스_177" data-name="패스 177" class="cls-5" d="M196.149,61.739h0c-.327,0-.436-.218-.436-.545,0-.109,0-.436-.109-.545a.415.415,0,0,1,.763-.327,1.794,1.794,0,0,1,.109,1.09c.109.109-.109.327-.327.327" transform="translate(17.677 5.32)"/>
  <path id="패스_178" data-name="패스 178" class="cls-5" d="M190.849,57.739h0c-.327,0-.436-.218-.436-.545,0-.109,0-.436-.109-.545a.415.415,0,1,1,.763-.327,3.225,3.225,0,0,1,.218,1.09.487.487,0,0,1-.436.327" transform="translate(17.198 4.958)"/>
  <path id="패스_179" data-name="패스 179" class="cls-5" d="M194.749,52.839h0c-.327,0-.436-.218-.436-.545,0-.109,0-.436-.109-.545a.415.415,0,1,1,.763-.327,2.735,2.735,0,0,1,.218,1.09.487.487,0,0,1-.436.327" transform="translate(17.551 4.516)"/>
  <path id="패스_180" data-name="패스 180" class="cls-5" d="M194.049,59.239h0c-.327,0-.436-.218-.436-.545,0-.109,0-.436-.109-.545a.415.415,0,0,1,.763-.327,2.737,2.737,0,0,1,.218,1.09c0,.218-.218.327-.436.327" transform="translate(17.487 5.094)"/>
  <path id="패스_181" data-name="패스 181" class="cls-5" d="M192.849,49.739h0c-.327,0-.436-.218-.436-.545,0-.109,0-.436-.109-.545a.415.415,0,1,1,.763-.327,3.225,3.225,0,0,1,.218,1.09c-.109.109-.218.327-.436.327" transform="translate(17.379 4.235)"/>
  <path id="패스_182" data-name="패스 182" class="cls-5" d="M191.749,53.539h0c-.327,0-.436-.218-.436-.545,0-.109,0-.436-.109-.545a.415.415,0,1,1,.763-.327,3.227,3.227,0,0,1,.218,1.09c0,.218-.218.327-.436.327" transform="translate(17.279 4.579)"/>
  <path id="패스_183" data-name="패스 183" class="cls-5" d="M193.749,55.639h0c-.327,0-.436-.218-.436-.545,0-.109,0-.436-.109-.545a.415.415,0,0,1,.763-.327,1.693,1.693,0,0,1,.109,1.09c.109.218-.109.327-.327.327" transform="translate(17.46 4.769)"/>
  <path id="패스_184" data-name="패스 184" class="cls-5" d="M195.049,64.739h0c-.327,0-.436-.218-.436-.545,0-.109,0-.436-.109-.545a.415.415,0,1,1,.763-.327,1.794,1.794,0,0,1,.109,1.09c.109.109-.109.327-.327.327" transform="translate(17.578 5.591)"/>
  <path id="패스_185" data-name="패스 185" class="cls-5" d="M193.949,68.639h0c-.327,0-.436-.218-.436-.545,0-.109,0-.436-.109-.545a.415.415,0,1,1,.763-.327,1.794,1.794,0,0,1,.109,1.09.348.348,0,0,1-.327.327" transform="translate(17.478 5.944)"/>
  <path id="패스_186" data-name="패스 186" class="cls-5" d="M196.649,67.339h0c-.327,0-.436-.218-.436-.545,0-.109,0-.436-.109-.545a.415.415,0,1,1,.763-.327,1.794,1.794,0,0,1,.109,1.09.348.348,0,0,1-.327.327" transform="translate(17.722 5.826)"/>
  <path id="패스_187" data-name="패스 187" class="cls-5" d="M191.849,65.839h0c-.327,0-.436-.218-.436-.545,0-.109,0-.436-.109-.545a.415.415,0,0,1,.763-.327,3.225,3.225,0,0,1,.218,1.09.487.487,0,0,1-.436.327" transform="translate(17.288 5.691)"/>
  <path id="패스_188" data-name="패스 188" class="cls-8" d="M141.68,78.018l4.034,2.508-2.835,5.779L138.3,81.4a9.834,9.834,0,0,1,3.38-3.6" transform="translate(12.501 6.924)"/>
  <path id="패스_189" data-name="패스 189" class="cls-7" d="M145.344,80.5s11.885,7.306,19.191-2.4l3.6,10.25S156.575,98.927,142.4,86.278Z" transform="translate(12.872 6.951)"/>
  <path id="패스_190" data-name="패스 190" class="cls-5" d="M150.36,91.195a25.17,25.17,0,0,1-7.96-5.016l2.835-5.779a20.392,20.392,0,0,0,7.306,2.508s-2.835,1.636-1.2,4.143c0,0,.763,2.072-.109,3.162Z" transform="translate(12.872 7.159)"/>
  <path id="패스_191" data-name="패스 191" class="cls-5" d="M149.5,44.793l.218-.218c1.09-1.09,4.8-4.58,3.925-8.069,0,0,4.253-.763,10.577-6.106,0,0-5.888,5.343-3.489,8.723,0,0-4.689.218-11.231,5.67" transform="translate(13.514 2.639)"/>
  <path id="패스_192" data-name="패스 192" class="cls-7" d="M182.1,143.159l-19.627,19.409L158,158.752,169.449,134Z" transform="translate(14.282 12.004)"/>
  <path id="패스_193" data-name="패스 193" class="cls-5" d="M162.243,148.3s.436,4.034,4.471,3.707c0,0,3.162-.109,2.508,2.617l-6.76,6.651L158.1,157.35Z" transform="translate(14.291 13.296)"/>
  <path id="패스_194" data-name="패스 194" class="cls-8" d="M158.832,156.7,148.8,161.171l10.577,6.978,3.925-7.633Z" transform="translate(13.45 14.056)"/>
  <path id="패스_195" data-name="패스 195" class="cls-8" d="M170.162,36.781a2.181,2.181,0,1,1-2.181-2.181,2.12,2.12,0,0,1,2.181,2.181" transform="translate(14.987 3.018)"/>
  <path id="패스_196" data-name="패스 196" class="cls-8" d="M157.343,30.672a2.072,2.072,0,1,1-2.072-2.072,2.07,2.07,0,0,1,2.072,2.072" transform="translate(13.848 2.476)"/>
  <path id="패스_197" data-name="패스 197" class="cls-2" d="M141.369,96.971a4.034,4.034,0,1,1-8.069,0V78.434a4.034,4.034,0,0,1,8.069,0Z" transform="translate(12.049 6.616)"/>
</svg>
