<svg id="그룹_589" data-name="그룹 589" xmlns="http://www.w3.org/2000/svg" viewBox="0 0 101.742 147.6">
  <defs>
    <style>
      .cls-1 {
        fill: #74c6be;
      }

      .cls-2 {
        fill: #bce2e3;
      }

      .cls-3 {
        fill: #727171;
      }

      .cls-4 {
        fill: #fff;
      }

      .cls-5 {
        fill: #e4f3fa;
      }

      .cls-6 {
        fill: #efefef;
      }

      .cls-7 {
        fill: #6fbeb7;
      }

      .cls-8 {
        fill: #dcdddd;
      }

      .cls-9 {
        fill: #e6e6e6;
      }

      .cls-10 {
        fill: #9fa0a0;
      }

      .cls-11 {
        fill: #666464;
      }

      .cls-12 {
        fill: #7d7d7d;
      }

      .cls-13 {
        fill: #e3c8a0;
      }

      .cls-14 {
        fill: #60b7a3;
      }

      .cls-15 {
        fill: #ededed;
      }

      .cls-16 {
        fill: #006b94;
      }

      .cls-17 {
        fill: #831a1f;
      }

      .cls-18 {
        fill: #972328;
      }

      .cls-19 {
        fill: #d2a587;
      }

      .cls-20 {
        fill: #eae5e3;
      }

      .cls-21 {
        fill: #2eb6aa;
      }

      .cls-22 {
        fill: #9ec364;
      }

      .cls-23 {
        fill: #ffe33f;
      }

      .cls-24 {
        fill: #595757;
      }

      .cls-25 {
        fill: #999;
      }

      .cls-26 {
        fill: none;
        stroke: #000;
        stroke-miterlimit: 10;
      }

      .cls-27 {
        fill: #e0f1f2;
      }
    </style>
  </defs>
  <path id="패스_3039" data-name="패스 3039" class="cls-1" d="M95.552,16.5s9.04,0,13.4,31.065c0,0,.329,4.027,3.863,3.369a2.238,2.238,0,0,1,2.383,1.808c.493,2.383-2.383,2.959-4.109,2.959a9.946,9.946,0,0,1-1.561-.082c-5.588-.986-5.835-6.821-6.821-11.259-1.151-5.342-1.644-10.766-4.109-15.7-1.561-2.959-4.027-4.931-6.492-7.314Z" transform="translate(-16.41 -2.94)"/>
  <path id="패스_3040" data-name="패스 3040" class="cls-1" d="M114.564,152.5h0a1.088,1.088,0,0,1-1.068-1.068v-7.4c0-.74,0-1.726-.411-2.055-.329-.329-1.315-.247-1.808-.247l-1.726.082a1.072,1.072,0,1,1-.164-2.137l1.808-.082c.822,0,2.383-.082,3.369.822,1.068.986,1.068,2.465,1.068,3.616v7.4a1.088,1.088,0,0,1-1.068,1.068" transform="translate(-19.314 -24.873)"/>
  <path id="패스_3041" data-name="패스 3041" class="cls-1" d="M117.294,153.623a1.088,1.088,0,0,1-1.068-1.068V142.117a3.981,3.981,0,0,0-.247-1.479,3.777,3.777,0,0,0-3.369-2.3h-3.041a1.068,1.068,0,1,1,0-2.137h3.041a5.825,5.825,0,0,1,5.342,3.616,7.634,7.634,0,0,1,.411,2.219v10.437a1.107,1.107,0,0,1-1.068,1.151" transform="translate(-19.332 -24.267)"/>
  <path id="패스_3042" data-name="패스 3042" class="cls-1" d="M120.266,154.861a1.088,1.088,0,0,1-1.068-1.068V141.136a6.4,6.4,0,0,0-6.082-6h-2.548a1.068,1.068,0,1,1,0-2.137h2.63a8.651,8.651,0,0,1,8.054,7.972v12.82a1.019,1.019,0,0,1-.986,1.068" transform="translate(-19.51 -23.697)"/>
  <path id="패스_3043" data-name="패스 3043" class="cls-2" d="M77.012,123.11h1.561c.493,0,5.506-.329,5.588-.164l4.027,18.82h3.863l2.63-21.7s8.218-3.205,5.671-19.477L95.339,51.775s-3.452-30.161-10.848-33.12c0,0,8.876-8.383,2.137-18.655a19.6,19.6,0,0,0-8.876,12.245s-.74.329-6.657.082H69.2s-1.644-6.657-9.862-9.78A16.2,16.2,0,0,0,62.63,17.341c-.247-.247-7.643,6-7.89,6.246-6.9,5.835-10.108,10.519-14.793,17.5a6.214,6.214,0,0,0-.9,5.506c.411,1.89,2.794,4.356,4.191,5.588a10,10,0,0,0,6.821,2.794c4.767-.082,10.273-.575,14.629-2.712-.164.082,0,.164-.575,3.78-.247,1.479-.411,2.959-.657,4.52-.493,3.534-.986,6.986-1.479,10.519L60.247,83.415c-.411,3.287-.9,6.492-1.315,9.78a33.9,33.9,0,0,0,.493,13.478,36.881,36.881,0,0,0,3.534,9.04c1.561,2.63,3.616,5.424,6.492,6.657a23.224,23.224,0,0,0,7.561.74" transform="translate(-6.91)"/>
  <path id="패스_3044" data-name="패스 3044" class="cls-3" d="M94.3,178.121h8.711l-.9-6.657-4.191-.164Z" transform="translate(-16.802 -30.521)"/>
  <path id="패스_3045" data-name="패스 3045" class="cls-4" d="M96.7,161.665a1.276,1.276,0,0,0,2.137-.082s1.233-1.644,2.137,0c0,0,.986,1.068,1.644-.575,0,0,.575-.9.9-.082l-1.068,8.547-4.109-.164Z" transform="translate(-17.229 -28.611)"/>
  <path id="패스_3046" data-name="패스 3046" class="cls-4" d="M64.782,5.5s-.822,6.739,2.712,10.437C71.11,19.553,69.22,8.623,64.782,5.5" transform="translate(-11.528 -0.98)"/>
  <path id="패스_3047" data-name="패스 3047" class="cls-4" d="M96.074,3.2s2.63,6.739-1.4,12.327C91.143,20.458,91.389,7.8,96.074,3.2" transform="translate(-16.439 -0.57)"/>
  <path id="패스_3048" data-name="패스 3048" class="cls-5" d="M55.982,43.2a.255.255,0,0,0-.082.164.255.255,0,0,1,.082-.164Z" transform="translate(-9.96 -7.697)"/>
  <path id="패스_3049" data-name="패스 3049" class="cls-1" d="M41.44,54.59v-.329a.832.832,0,0,1,.329-.575.746.746,0,0,1,.575-.247h.082a.894.894,0,0,1,.74.9v.411a.555.555,0,0,0,.329.493.521.521,0,0,0,.493-.411v-.329h0v-.082A1.7,1.7,0,0,0,42.508,52.7h-.082a1.964,1.964,0,0,0-1.151.411,1.719,1.719,0,0,0-.575,1.068v.329a.521.521,0,0,0,.411.493.45.45,0,0,0,.329-.411" transform="translate(-7.252 -9.39)"/>
  <path id="패스_3050" data-name="패스 3050" class="cls-1" d="M47.047,56.651l.164-.247a1.208,1.208,0,0,1,.493-.411.722.722,0,0,1,.575.082h.082a.91.91,0,0,1,.329,1.151v.082l-.247.164a.433.433,0,0,0,.164.575c.164.082.493.082.575-.164l.164-.247h0l.082-.082a1.71,1.71,0,0,0-.575-2.219l-.082-.082a1.642,1.642,0,0,0-1.233-.164,1.467,1.467,0,0,0-.986.74l-.164.247a.433.433,0,0,0,.164.575c.082.247.329.164.493,0" transform="translate(-8.257 -9.807)"/>
  <path id="패스_3051" data-name="패스 3051" class="cls-1" d="M74.951,26.282A1.123,1.123,0,0,1,73.8,25.131v-.74c.164-2.548.9-4.191,4.191-4.191h3.287a1.151,1.151,0,1,1,0,2.3H77.991c-1.561,0-1.89.164-1.972,2.055v.575a1.107,1.107,0,0,1-1.068,1.151" transform="translate(-13.149 -3.599)"/>
  <path id="패스_3052" data-name="패스 3052" class="cls-1" d="M71.151,24.472A1.123,1.123,0,0,1,70,23.321v-.74c.247-3.7,2.548-6,6.246-6.082h5.917a1.151,1.151,0,1,1,0,2.3H76.246c-3.041.082-3.863,2.219-4.027,3.945v.575a1.016,1.016,0,0,1-1.068,1.151" transform="translate(-12.472 -2.94)"/>
  <path id="패스_3053" data-name="패스 3053" class="cls-1" d="M67.551,22.6A1.123,1.123,0,0,1,66.4,21.447v-.329A8.242,8.242,0,0,1,74.618,12.9h8.876a1.151,1.151,0,1,1,0,2.3H74.7a5.98,5.98,0,0,0-6,6v.329A1.107,1.107,0,0,1,67.551,22.6" transform="translate(-11.831 -2.298)"/>
  <path id="패스_3054" data-name="패스 3054" class="cls-4" d="M66.775,119.115c-.082,0-.164-.082-.247-.164a1.224,1.224,0,0,1-.329-.74.419.419,0,0,1,.329-.411c.247,0,.329.082.411.329a.868.868,0,0,0,.164.411.387.387,0,0,1-.082.493.3.3,0,0,1-.247.082" transform="translate(-11.795 -20.989)"/>
  <path id="패스_3055" data-name="패스 3055" class="cls-4" d="M66.075,114.115c-.082,0-.164-.082-.247-.164a1.224,1.224,0,0,1-.329-.74.372.372,0,1,1,.74-.082.868.868,0,0,0,.164.411.387.387,0,0,1-.082.493.3.3,0,0,1-.247.082" transform="translate(-11.67 -20.098)"/>
  <path id="패스_3056" data-name="패스 3056" class="cls-4" d="M70.175,129.415c-.082,0-.164-.082-.247-.164a1.224,1.224,0,0,1-.329-.74.372.372,0,0,1,.74-.082.868.868,0,0,0,.164.411.387.387,0,0,1-.082.493.3.3,0,0,1-.247.082" transform="translate(-12.401 -22.824)"/>
  <path id="패스_3057" data-name="패스 3057" class="cls-4" d="M72.275,133.115c-.082,0-.164-.082-.247-.164a1.224,1.224,0,0,1-.329-.74.372.372,0,0,1,.74-.082.868.868,0,0,0,.164.411.387.387,0,0,1-.082.493.3.3,0,0,1-.247.082" transform="translate(-12.775 -23.483)"/>
  <path id="패스_3058" data-name="패스 3058" class="cls-4" d="M70.375,135.915c-.082,0-.164-.082-.247-.164a1.224,1.224,0,0,1-.329-.74.372.372,0,0,1,.74-.082.868.868,0,0,0,.164.411.387.387,0,0,1-.082.493c-.082,0-.164.082-.247.082" transform="translate(-12.437 -23.982)"/>
  <path id="패스_3059" data-name="패스 3059" class="cls-4" d="M68.675,132.415c-.082,0-.164-.082-.247-.164a1.224,1.224,0,0,1-.329-.74.419.419,0,0,1,.329-.411c.247,0,.329.082.411.329a.868.868,0,0,0,.164.411.387.387,0,0,1-.082.493.3.3,0,0,1-.247.082" transform="translate(-12.134 -23.359)"/>
  <path id="패스_3060" data-name="패스 3060" class="cls-4" d="M72.175,127.515c-.082,0-.247-.082-.247-.164a1.224,1.224,0,0,1-.329-.74.372.372,0,1,1,.74-.082.868.868,0,0,0,.164.411c.082.164.082.411-.082.493s-.164.082-.247.082" transform="translate(-12.757 -22.486)"/>
  <path id="패스_3061" data-name="패스 3061" class="cls-4" d="M66.275,127.115c-.082,0-.164-.082-.247-.164a1.224,1.224,0,0,1-.329-.74.372.372,0,0,1,.74-.082.868.868,0,0,0,.164.411c.082.164.082.411-.082.493a.3.3,0,0,1-.247.082" transform="translate(-11.706 -22.414)"/>
  <path id="패스_3062" data-name="패스 3062" class="cls-4" d="M66.475,122.815c-.082,0-.164-.082-.247-.164a1.224,1.224,0,0,1-.329-.74.372.372,0,1,1,.74-.082.868.868,0,0,0,.164.411c.082.164.082.411-.082.493s-.164.082-.247.082" transform="translate(-11.742 -21.648)"/>
  <path id="패스_3063" data-name="패스 3063" class="cls-4" d="M69.275,116.915c-.082,0-.164-.082-.247-.164a1.224,1.224,0,0,1-.329-.74.419.419,0,0,1,.329-.411c.247,0,.329.082.411.329a.868.868,0,0,0,.164.411.387.387,0,0,1-.082.493.3.3,0,0,1-.247.082" transform="translate(-12.241 -20.597)"/>
  <path id="패스_3064" data-name="패스 3064" class="cls-4" d="M69.275,125.115c-.082,0-.164-.082-.247-.164a1.224,1.224,0,0,1-.329-.74.419.419,0,0,1,.329-.411c.247,0,.329.082.411.329a.868.868,0,0,0,.164.411.387.387,0,0,1-.082.493.3.3,0,0,1-.247.082" transform="translate(-12.241 -22.058)"/>
  <path id="패스_3065" data-name="패스 3065" class="cls-4" d="M101.917,142.915a.3.3,0,0,1-.247-.082c-.164-.082-.164-.329-.082-.493a.868.868,0,0,0,.164-.411.372.372,0,0,1,.74.082,1.224,1.224,0,0,1-.329.74c0,.164-.164.164-.247.164" transform="translate(-18.091 -25.229)"/>
  <path id="패스_3066" data-name="패스 3066" class="cls-4" d="M100.617,139.615a.3.3,0,0,1-.247-.082c-.164-.082-.164-.329-.082-.493a.868.868,0,0,0,.164-.411.372.372,0,0,1,.74.082,1.224,1.224,0,0,1-.329.74c0,.082-.164.164-.247.164" transform="translate(-17.859 -24.641)"/>
  <path id="패스_3067" data-name="패스 3067" class="cls-4" d="M107.517,136.215a.3.3,0,0,1-.247-.082c-.164-.082-.164-.329-.082-.493a.868.868,0,0,0,.164-.411.372.372,0,0,1,.74.082,1.224,1.224,0,0,1-.329.74c0,.164-.164.164-.247.164" transform="translate(-19.089 -24.036)"/>
  <path id="패스_3068" data-name="패스 3068" class="cls-4" d="M105.117,140.615a.3.3,0,0,1-.247-.082c-.164-.082-.164-.329-.082-.493a.868.868,0,0,0,.164-.411.372.372,0,0,1,.74.082,1.224,1.224,0,0,1-.329.74c0,.082-.082.164-.247.164" transform="translate(-18.661 -24.82)"/>
  <path id="패스_3069" data-name="패스 3069" class="cls-4" d="M104.317,137.915a.3.3,0,0,1-.247-.082c-.164-.082-.164-.329-.082-.493a.868.868,0,0,0,.164-.411.372.372,0,0,1,.74.082,1.224,1.224,0,0,1-.329.74c0,.082-.082.164-.247.164" transform="translate(-18.518 -24.339)"/>
  <path id="패스_3070" data-name="패스 3070" class="cls-4" d="M108.117,139.615a.3.3,0,0,1-.247-.082c-.164-.082-.164-.329-.082-.493a.868.868,0,0,0,.164-.411.372.372,0,0,1,.74.082,1.224,1.224,0,0,1-.329.74c-.082.082-.164.164-.247.164" transform="translate(-19.195 -24.641)"/>
  <path id="패스_3071" data-name="패스 3071" class="cls-4" d="M104.017,144.615a.3.3,0,0,1-.247-.082c-.164-.082-.164-.329-.082-.493a.868.868,0,0,0,.164-.411.372.372,0,0,1,.74.082,1.224,1.224,0,0,1-.329.74c0,.164-.082.164-.247.164" transform="translate(-18.465 -25.532)"/>
  <path id="패스_3072" data-name="패스 3072" class="cls-4" d="M104.6,73.508h0c-.247,0-.329-.164-.329-.411,0-.082,0-.329-.082-.411a.368.368,0,0,1,.657-.329,2.432,2.432,0,0,1,.164.822c-.164.164-.247.329-.411.329" transform="translate(-18.559 -12.857)"/>
  <path id="패스_3073" data-name="패스 3073" class="cls-4" d="M100,64.108h0c-.247,0-.329-.247-.329-.411,0-.082,0-.329-.082-.411a.368.368,0,1,1,.657-.329,2.431,2.431,0,0,1,.164.822c-.164.164-.247.329-.411.329" transform="translate(-17.739 -11.182)"/>
  <path id="패스_3074" data-name="패스 3074" class="cls-4" d="M104.4,64.108h0c-.247,0-.411-.247-.329-.411,0-.082,0-.329-.082-.411a.368.368,0,1,1,.657-.329,2.431,2.431,0,0,1,.164.822c-.164.247-.247.329-.411.329" transform="translate(-18.523 -11.182)"/>
  <path id="패스_3075" data-name="패스 3075" class="cls-4" d="M98.9,60.008h0c-.247,0-.329-.164-.329-.411,0-.082,0-.329-.082-.411a.368.368,0,1,1,.657-.329,2.92,2.92,0,0,1,.164.822c-.164.164-.247.329-.411.329" transform="translate(-17.543 -10.452)"/>
  <path id="패스_3076" data-name="패스 3076" class="cls-4" d="M102.9,54.808h0c-.247,0-.411-.164-.329-.411,0-.082,0-.329-.082-.411a.368.368,0,0,1,.657-.329,2.92,2.92,0,0,1,.164.822.419.419,0,0,1-.411.329" transform="translate(-18.256 -9.525)"/>
  <path id="패스_3077" data-name="패스 3077" class="cls-4" d="M102.1,61.59h0c-.247,0-.329-.164-.329-.411a1.221,1.221,0,0,0-.082-.493.368.368,0,0,1,.657-.329,2.432,2.432,0,0,1,.164.822c-.082.247-.164.411-.411.411" transform="translate(-18.113 -10.719)"/>
  <path id="패스_3078" data-name="패스 3078" class="cls-4" d="M100.9,51.608h0c-.247,0-.411-.247-.329-.411,0-.082,0-.329-.082-.411a.368.368,0,1,1,.657-.329,2.431,2.431,0,0,1,.164.822c-.164.164-.247.329-.411.329" transform="translate(-17.899 -8.955)"/>
  <path id="패스_3079" data-name="패스 3079" class="cls-4" d="M99.8,55.608h0c-.247,0-.411-.247-.329-.411,0-.082,0-.329-.082-.411a.368.368,0,1,1,.657-.329,2.92,2.92,0,0,1,.164.822c-.164.164-.247.329-.411.329" transform="translate(-17.703 -9.668)"/>
  <path id="패스_3080" data-name="패스 3080" class="cls-4" d="M101.8,57.79h0c-.247,0-.329-.164-.329-.411a1.221,1.221,0,0,0-.082-.493.368.368,0,0,1,.657-.329,2.432,2.432,0,0,1,.164.822c-.082.247-.247.411-.411.411" transform="translate(-18.06 -10.042)"/>
  <path id="패스_3081" data-name="패스 3081" class="cls-4" d="M103.2,67.308h0c-.247,0-.329-.247-.329-.411,0-.082,0-.329-.082-.411a.368.368,0,0,1,.657-.329,2.92,2.92,0,0,1,.164.822.546.546,0,0,1-.411.329" transform="translate(-18.309 -11.752)"/>
  <path id="패스_3082" data-name="패스 3082" class="cls-4" d="M102,71.39h0c-.247,0-.329-.164-.329-.411a1.222,1.222,0,0,0-.082-.493.368.368,0,0,1,.657-.329,2.431,2.431,0,0,1,.164.822c-.082.247-.247.411-.411.411" transform="translate(-18.095 -12.465)"/>
  <path id="패스_3083" data-name="패스 3083" class="cls-4" d="M104.8,70.008h0c-.247,0-.411-.164-.329-.411,0-.082,0-.329-.082-.411a.368.368,0,0,1,.657-.329,2.431,2.431,0,0,1,.164.822.546.546,0,0,1-.411.329" transform="translate(-18.594 -12.234)"/>
  <path id="패스_3084" data-name="패스 3084" class="cls-4" d="M99.8,68.408h0c-.247,0-.411-.164-.329-.411,0-.082,0-.329-.082-.411a.368.368,0,0,1,.657-.329,2.432,2.432,0,0,1,.164.822.419.419,0,0,1-.411.329" transform="translate(-17.703 -11.948)"/>
  <path id="패스_3085" data-name="패스 3085" class="cls-4" d="M55.7,43.206l.247-.247c.822-.822,3.78-3.616,3.041-6.41,0,0,3.369-.575,8.383-4.849,0,0-4.6,4.191-2.712,6.9-.082,0-3.863.247-8.958,4.6" transform="translate(-9.924 -5.648)"/>
  <path id="패스_3086" data-name="패스 3086" class="cls-2" d="M83.584,147.532l-15.45,15.2L64.6,159.7l9.04-19.4Z" transform="translate(-11.51 -24.998)"/>
  <path id="패스_3087" data-name="패스 3087" class="cls-4" d="M67.987,155.2a3.3,3.3,0,0,0,3.534,2.959s2.465-.164,1.972,2.055l-5.342,5.26L64.7,162.432Z" transform="translate(-11.528 -27.653)"/>
  <path id="패스_3088" data-name="패스 3088" class="cls-3" d="M62.89,163.9,55,167.434l8.3,5.588,3.123-6.082Z" transform="translate(-9.8 -29.203)"/>
  <path id="패스_3089" data-name="패스 3089" class="cls-3" d="M76.152,37.925A1.726,1.726,0,1,1,74.426,36.2a1.639,1.639,0,0,1,1.726,1.726" transform="translate(-12.953 -6.449)"/>
  <path id="패스_3090" data-name="패스 3090" class="cls-6" d="M43.886,76.852S35.5,55.649,14.546,50.8L0,56.8s23.751,1.561,33.12,24.08Z" transform="translate(0 -9.051)"/>
  <path id="패스_3091" data-name="패스 3091" class="cls-3" d="M46.612,81.582l3.123,1.972-2.219,4.6L43.9,84.376A8.648,8.648,0,0,1,46.53,81.5" transform="translate(-7.822 -14.521)"/>
  <path id="패스_3092" data-name="패스 3092" class="cls-2" d="M50.519,83.69s9.369,5.753,15.2-1.89L68.6,89.936s-9.122,8.383-20.3-1.644Z" transform="translate(-8.606 -14.575)"/>
  <path id="패스_3093" data-name="패스 3093" class="cls-4" d="M54.546,92.647A19.114,19.114,0,0,1,48.3,88.7l2.219-4.6a16.223,16.223,0,0,0,5.753,1.972s-2.219,1.315-.986,3.287c0,0,.575,1.644-.082,2.465Z" transform="translate(-8.606 -14.984)"/>
  <path id="패스_3094" data-name="패스 3094" class="cls-7" d="M71.135,48.941c.082-.082.164-.082.247-.164.9-.9.74-3.041-.493-5.1s-3.205-3.287-4.356-2.712h-.082l-.082.082c-.082,0-.082.082-.164.082l-.9.575h.493a5.749,5.749,0,0,1,4.356,3.7,7,7,0,0,1,.082,4.109l.575-.411c.164-.082.247-.082.329-.164" transform="translate(-11.635 -7.274)"/>
  <path id="패스_3095" data-name="패스 3095" class="cls-8" d="M69.187,45.616A5.572,5.572,0,0,0,64.831,42h-.493L59.9,44.876l4.438,8.136,5.013-3.287a6.493,6.493,0,0,0-.164-4.109" transform="translate(-10.673 -7.483)"/>
  <path id="패스_3096" data-name="패스 3096" class="cls-7" d="M60.1,44.9l2.219-1.4S67.743,44.651,67,51.39l-2.3,1.561Z" transform="translate(-10.708 -7.751)"/>
  <path id="패스_3097" data-name="패스 3097" class="cls-9" d="M64.289,48.256c1.151,2.219,1.151,4.438-.082,5.1-1.151.657-3.041-.657-4.191-2.794-1.151-2.219-1.151-4.438.082-5.1,1.151-.657,3.041.575,4.191,2.794" transform="translate(-10.541 -8.069)"/>
  <path id="패스_3098" data-name="패스 3098" class="cls-7" d="M60.7,45.411a1.524,1.524,0,0,0-.575.164c-1.068.575-1.068,2.712,0,4.767.9,1.726,2.3,2.876,3.369,2.876a1.188,1.188,0,0,0,.575-.164c1.068-.575,1.068-2.712,0-4.767-.9-1.726-2.3-2.876-3.369-2.876m2.794,8.218c-1.233,0-2.794-1.233-3.78-3.123-1.233-2.3-1.151-4.684.164-5.342a2.4,2.4,0,0,1,.74-.164c1.233,0,2.794,1.233,3.78,3.123,1.233,2.3,1.151,4.684-.164,5.342a2.4,2.4,0,0,1-.74.164" transform="translate(-10.483 -8.018)"/>
  <path id="패스_3099" data-name="패스 3099" class="cls-10" d="M63.494,49.161c.657,1.151.657,2.383,0,2.712s-1.644-.329-2.3-1.479-.657-2.383,0-2.712c.575-.329,1.644.329,2.3,1.479" transform="translate(-10.815 -8.481)"/>
  <path id="패스_3100" data-name="패스 3100" class="cls-4" d="M63.3,48.763c-.329.164-.822-.164-1.151-.657-.329-.575-.329-1.151,0-1.315s.822.164,1.151.657c.247.575.247,1.151,0,1.315" transform="translate(-11.029 -8.329)"/>
  <path id="패스_3101" data-name="패스 3101" class="cls-3" d="M61.812,31.357v.329a.832.832,0,0,1-.329.575.888.888,0,0,1-.575.247h-.082A.9.9,0,0,1,60,31.6v-.082h0v-.329a.454.454,0,1,0-.9-.082v.329h0v.082a1.787,1.787,0,0,0,1.561,1.808h.082a2.019,2.019,0,0,0,1.233-.411,1.438,1.438,0,0,0,.575-1.151V31.44a.521.521,0,0,0-.411-.493c-.082,0-.247.164-.329.411" transform="translate(-10.53 -5.47)"/>
  <path id="패스_3102" data-name="패스 3102" class="cls-9" d="M91.183,78.267s4.438-9.122,14.464-1.644l-.082-2.137S94.717,66.269,88.8,77.857Z" transform="translate(-15.822 -12.768)"/>
  <path id="패스_3103" data-name="패스 3103" class="cls-9" d="M68.008,74.2s.74,3.041,1.4,4.767l-2.794.247L66.2,76.5Z" transform="translate(-11.795 -13.22)"/>
  <path id="패스_3104" data-name="패스 3104" class="cls-11" d="M65.717,79.447a111.2,111.2,0,0,0-3.78,16.272c-1.315,8.958-1.644,14.464-.575,23.5a61.018,61.018,0,0,0,1.479,7.725c.329,1.233.74,2.465,1.151,3.616.247.575.74,3.205,1.315,3.534,0,0,12.82,13.4,40.269-.082l-4.767-26.3S88.646,105.252,86.345,79.2c-5.506.164-10.437,0-15.943.164a44.557,44.557,0,0,0-4.684.082" transform="translate(-10.819 -14.111)"/>
  <path id="패스_3105" data-name="패스 3105" class="cls-3" d="M70.5,95.7a36.753,36.753,0,0,0,7.561.575l.575,8.629-7.89-1.89Z" transform="translate(-12.561 -17.051)"/>
  <path id="패스_3106" data-name="패스 3106" class="cls-12" d="M70.664,104.988A11.266,11.266,0,0,0,78.8,106.55l-.164-2.055s-2.794-4.849-8.136-5.1Z" transform="translate(-12.561 -17.71)"/>
  <path id="패스_3107" data-name="패스 3107" class="cls-13" d="M69.051,81.275a.575.575,0,1,1-.575-.575.617.617,0,0,1,.575.575" transform="translate(-12.098 -14.379)"/>
  <path id="패스_3108" data-name="패스 3108" class="cls-13" d="M112.951,144.573a.575.575,0,1,1-.575-.575c.247-.082.575.247.575.575" transform="translate(-19.92 -25.654)"/>
  <path id="패스_3109" data-name="패스 3109" class="cls-13" d="M84.351,150.372a.575.575,0,1,1-.575-.575c.329-.082.575.164.575.575" transform="translate(-14.824 -26.687)"/>
  <path id="패스_3110" data-name="패스 3110" class="cls-13" d="M77.251,148.875a.575.575,0,1,1-.575-.575.562.562,0,0,1,.575.575" transform="translate(-13.559 -26.423)"/>
  <path id="패스_3111" data-name="패스 3111" class="cls-13" d="M89.951,81.173a.575.575,0,1,1-.575-.575c.329-.082.575.247.575.575" transform="translate(-15.822 -14.358)"/>
  <path id="패스_3112" data-name="패스 3112" class="cls-13" d="M93.7,76.272l-.164-.082c-.082.164-.247.164-.411.164a.494.494,0,0,1-.329-.082l-.9-.74c-.164-.082-.164-.247-.164-.411a.494.494,0,0,1,.082-.329c.082-.164.247-.164.411-.164a.494.494,0,0,1,.329.082l.986.74c.164.082.164.247.164.411a.494.494,0,0,1-.082.329l.082.082.164.082a1.168,1.168,0,0,0,.164-.493A.747.747,0,0,0,93.7,75.2l-.986-.74a1.168,1.168,0,0,0-.493-.164.747.747,0,0,0-.657.329,1.168,1.168,0,0,0-.164.493.747.747,0,0,0,.329.657l.986.74a1.168,1.168,0,0,0,.493.164.747.747,0,0,0,.657-.329Z" transform="translate(-16.285 -13.238)"/>
  <path id="패스_3113" data-name="패스 3113" class="cls-13" d="M68.548,75.875l-.164.082v.164a.511.511,0,0,1-.329.493l-1.151.493H66.74a.511.511,0,0,1-.493-.329v-.164a.511.511,0,0,1,.329-.493l1.151-.493h.164a.511.511,0,0,1,.493.329l.164-.082.164-.082a.79.79,0,0,0-.74-.493.494.494,0,0,0-.329.082l-1.151.493a.79.79,0,0,0-.493.74.494.494,0,0,0,.082.329.79.79,0,0,0,.74.493.494.494,0,0,0,.329-.082l1.151-.493a.79.79,0,0,0,.493-.74.494.494,0,0,0-.082-.329Z" transform="translate(-11.759 -13.416)"/>
  <rect id="사각형_228" data-name="사각형 228" class="cls-14" width="3.287" height="3.369" transform="translate(72.858 68.111) rotate(-7.342)"/>
  <path id="패스_3114" data-name="패스 3114" class="cls-4" d="M91.612,84.3l-.74.082a.64.64,0,0,0-.575.74V85.2a.082.082,0,0,0,.164,0v-.082c-.082-.247.164-.493.411-.575l.657-.082a.08.08,0,0,0,.082-.082c.082-.082,0-.082,0-.082" transform="translate(-16.086 -15.02)"/>
  <path id="패스_3115" data-name="패스 3115" class="cls-4" d="M91.723,83.8l-.9.164A.965.965,0,0,0,90,85.115V85.2a.082.082,0,0,0,.164,0v-.082a.77.77,0,0,1,.657-.9l.9-.164a.08.08,0,0,0,.082-.082.287.287,0,0,0-.082-.164" transform="translate(-16.033 -14.931)"/>
  <path id="패스_3116" data-name="패스 3116" class="cls-4" d="M91.8,83.4l-1.151.164A1.389,1.389,0,0,0,89.5,85.126v.082a.082.082,0,1,0,.164,0v-.082a1.137,1.137,0,0,1,.986-1.315l1.151-.164a.08.08,0,0,0,.082-.082c0-.164-.082-.164-.082-.164" transform="translate(-15.945 -14.86)"/>
  <rect id="사각형_229" data-name="사각형 229" class="cls-15" width="11.999" height="1.233" transform="matrix(0.407, -0.914, 0.914, 0.407, 66.972, 98.985)"/>
  <rect id="사각형_230" data-name="사각형 230" class="cls-16" width="3.369" height="1.233" transform="matrix(0.408, -0.913, 0.913, 0.408, 70.538, 91.006)"/>
  <rect id="사각형_231" data-name="사각형 231" class="cls-16" width="3.369" height="0.329" transform="translate(71.41 92.382) rotate(-65.97)"/>
  <path id="패스_3117" data-name="패스 3117" class="cls-16" d="M88,109.075l.329.164.247-.575-.329-.164Z" transform="translate(-15.679 -19.332)"/>
  <rect id="사각형_232" data-name="사각형 232" class="cls-17" width="8.711" height="1.233" transform="translate(66.578 99.659) rotate(-81.512)"/>
  <path id="패스_3118" data-name="패스 3118" class="cls-18" d="M83.833,110.423l-1.233-.247.657-2.876.575.082Z" transform="translate(-14.717 -19.118)"/>
  <rect id="사각형_233" data-name="사각형 233" class="cls-15" width="5.917" height="10.766" transform="translate(59.293 92.509) rotate(-25.151)"/>
  <path id="패스_3119" data-name="패스 3119" class="cls-19" d="M73.175,112.222c0,.082,0,.164-.082.164s-.164,0-.164-.082l-.329-.74c0-.082,0-.164.082-.164s.164,0,.164.082Z" transform="translate(-12.935 -19.849)"/>
  <path id="패스_3120" data-name="패스 3120" class="cls-19" d="M74.175,111.822c0,.082,0,.164-.082.164s-.164,0-.164-.082l-.329-.74c0-.082,0-.164.082-.164s.164,0,.164.082Z" transform="translate(-13.114 -19.777)"/>
  <path id="패스_3121" data-name="패스 3121" class="cls-19" d="M75.175,111.322c0,.082,0,.164-.082.164s-.164,0-.164-.082l-.329-.74c0-.082,0-.164.082-.164s.164,0,.164.082Z" transform="translate(-13.292 -19.688)"/>
  <path id="패스_3122" data-name="패스 3122" class="cls-19" d="M76.175,110.922c0,.082,0,.164-.082.164s-.164,0-.164-.082l-.329-.74c0-.082,0-.164.082-.164s.164,0,.164.082Z" transform="translate(-13.47 -19.617)"/>
  <path id="패스_3123" data-name="패스 3123" class="cls-19" d="M77.075,110.522c0,.082,0,.164-.082.164s-.164,0-.164-.082l-.329-.74c0-.082,0-.164.082-.164s.164,0,.164.082Z" transform="translate(-13.63 -19.546)"/>
  <path id="패스_3124" data-name="패스 3124" class="cls-19" d="M78.075,110.122c0,.082,0,.164-.082.164s-.164,0-.164-.082l-.329-.74c0-.082,0-.164.082-.164s.164,0,.164.082Z" transform="translate(-13.808 -19.474)"/>
  <path id="패스_3125" data-name="패스 3125" class="cls-12" d="M65.8,112.3a1.3,1.3,0,0,1,.329.082,54.7,54.7,0,0,0,16.6,1.726l.247,12.9c0,.082-16.847-.74-17.176-14.711" transform="translate(-11.724 -20.009)"/>
  <path id="패스_3126" data-name="패스 3126" class="cls-20" d="M74.226,104.38a.287.287,0,0,1-.082-.164c0-.082-.082-.082-.164-.164l-.082-.082a.287.287,0,0,0-.164-.082.367.367,0,0,0-.411,0c-.082,0-.164.082-.247.082s-.082.082-.164.082h-.082c-.082,0-.082.082-.164.082s-.082.082-.164.082h0s.247-.164.411-.082c0,0,.082-.082.164.082a.36.36,0,0,0,.247.082.114.114,0,0,1,.164,0s.164.164.247,0c0,0,.082-.082.247.164,0,0,.082.164.247,0,0,0,.082-.082.247.082-.082-.082-.082-.164-.164-.247,0,.164,0,.164-.082.082Z" transform="translate(-12.918 -18.499)"/>
  <path id="패스_3127" data-name="패스 3127" class="cls-21" d="M74.98,106.29c.082,0,.247,0,.247-.082v-.082c-.082-.082,0,0-.082-.247a.177.177,0,0,0-.164-.164c-.164-.082-.247-.247-.329-.329a1.719,1.719,0,0,0-.329-.493c-.082-.247-.247-.082-.247-.082-.082.164-.247,0-.247,0-.164-.247-.247-.164-.247-.164-.082.247-.247,0-.247,0a.114.114,0,0,0-.164,0,.18.18,0,0,1-.247-.082.287.287,0,0,1-.082-.164h-.164a.621.621,0,0,0-.329.082h0c-.164.082-.082.247-.247.329a2.11,2.11,0,0,1-.411.164.862.862,0,0,0-.329.247.177.177,0,0,0-.164.164.623.623,0,0,0,.329.164l3.287.657a.255.255,0,0,0,.164.082" transform="translate(-12.686 -18.601)"/>
  <path id="패스_3128" data-name="패스 3128" class="cls-22" d="M73.4,104.229h0l.082-.082a.3.3,0,0,0,.164-.247h0c0,.247-.082.329-.247.329Z" transform="translate(-13.078 -18.512)"/>
  <path id="패스_3129" data-name="패스 3129" class="cls-22" d="M73.6,104.2c.329.164.329.082.329.082a.494.494,0,0,0-.329-.082Z" transform="translate(-13.114 -18.566)"/>
  <path id="패스_3130" data-name="패스 3130" class="cls-21" d="M72.557,102.6h0c-.082,0-.329,0-.493.657h0l-.082.082h0c-.082,0-.082,0-.082.082v.082l.082.082h0c.164,0,.164-.164.247-.247v-.164c0-.082.082-.164.082-.247s.082-.082.164-.082h0Z" transform="translate(-12.811 -18.281)"/>
  <path id="패스_3131" data-name="패스 3131" class="cls-21" d="M71.682,104.5l-.082.082.082.082h0v.082h0l.082.082h.164v-.082h-.164v-.082h-.082v-.082h0Z" transform="translate(-12.757 -18.619)"/>
  <path id="패스_3132" data-name="패스 3132" class="cls-21" d="M71.929,104.947h-.164l-.082-.247H71.6v.082l.082.247v.082a.287.287,0,0,0,.164.082h.082v-.247Z" transform="translate(-12.757 -18.655)"/>
  <path id="패스_3133" data-name="패스 3133" class="cls-21" d="M71.811,105.011h-.082c-.082,0-.164,0-.164-.082l-.082-.329H71.4l.082.329h0c0,.082.164.164.247.164h.082v-.082Z" transform="translate(-12.722 -18.637)"/>
  <path id="패스_3134" data-name="패스 3134" class="cls-2" d="M72.8,104.455a.628.628,0,0,1-.164.411l-.082.082h-.082l-.082.329h-.082v-.329h-.164l-.164.329H71.9l.082-.493h0V104.7c0-.082-.082-.164,0-.247a1.168,1.168,0,0,1,.164-.493c.082-.164.164-.411.247-.575s.082-.247.164-.411l.164-.164s-.164-.164.082-.411a.3.3,0,0,1,.164.247h.164a.3.3,0,0,1,.247-.164.29.29,0,0,1-.082.329l.082.164c.082.082.082.164.164.247,0,.082.082.164.082.247a.177.177,0,0,1-.164.164H73.3a.287.287,0,0,1-.164-.082v.74c-.329.082-.329.082-.329.164" transform="translate(-12.811 -18.245)"/>
  <path id="패스_3135" data-name="패스 3135" class="cls-23" d="M73.582,103.664l.082.082-.082-.082a.3.3,0,0,0-.082.247c0,.082.082.082.164,0l.082-.082v.082c0,.082.082.082.164.082s.082-.082,0-.164l-.082-.082h.082c.082,0,.082-.082.082-.164s-.082-.082-.164,0l-.082.082v-.082c0-.082-.082-.082-.164-.082-.082.082-.082.164,0,.164" transform="translate(-13.096 -18.441)"/>
  <path id="패스_3136" data-name="패스 3136" class="cls-23" d="M73.6,103.782c0,.082,0,.164.082.164s.164,0,.164-.082,0-.164-.082-.164-.082,0-.164.082" transform="translate(-13.114 -18.477)"/>
  <path id="패스_3137" data-name="패스 3137" class="cls-24" d="M72,104.9v.082h.164V104.9Z" transform="translate(-12.829 -18.69)"/>
  <path id="패스_3138" data-name="패스 3138" class="cls-24" d="M71.8,105.982h.164V105.9h-.082Z" transform="translate(-12.793 -18.869)"/>
  <path id="패스_3139" data-name="패스 3139" class="cls-25" d="M72.1,105Z" transform="translate(-12.846 -18.708)"/>
  <path id="패스_3140" data-name="패스 3140" class="cls-26" d="M72.1,105h0m0,0h0m0,0Z" transform="translate(-12.846 -18.708)"/>
  <path id="패스_3141" data-name="패스 3141" class="cls-24" d="M72.3,106.064h.082V105.9H72.3Z" transform="translate(-12.882 -18.869)"/>
  <path id="패스_3142" data-name="패스 3142" class="cls-4" d="M72.182,104.847l.082-.247s-.082.082-.082,0H72.1v.247Z" transform="translate(-12.846 -18.637)"/>
  <path id="패스_3143" data-name="패스 3143" class="cls-4" d="M72.3,105.7h0v.164h.082l.082-.082h-.082V105.7h0Z" transform="translate(-12.882 -18.833)"/>
  <path id="패스_3144" data-name="패스 3144" class="cls-4" d="M71.9,105.847h.082v-.164H71.9V105.6h0Z" transform="translate(-12.811 -18.815)"/>
  <path id="패스_3145" data-name="패스 3145" class="cls-27" d="M73.4,103.5Z" transform="translate(-13.078 -18.441)"/>
  <path id="패스_3146" data-name="패스 3146" class="cls-24" d="M73.3,103.2h0v.082h0l.082-.082h0l-.082.082h0V103.2Z" transform="translate(-13.06 -18.388)"/>
  <path id="패스_3147" data-name="패스 3147" class="cls-24" d="M72.982,103.2H72.9v.082h.164V103.2h0l-.082.082h0Z" transform="translate(-12.989 -18.388)"/>
  <path id="패스_3148" data-name="패스 3148" class="cls-21" d="M72.882,102.9h0v.082h.082c.082,0,0-.082-.082-.082" transform="translate(-12.971 -18.334)"/>
  <path id="패스_3149" data-name="패스 3149" class="cls-21" d="M73.029,103.047m-.082-.247H72.7v.082l.247-.082c0,.082.082.082.082.164h.082a.177.177,0,0,0-.164-.164" transform="translate(-12.953 -18.316)"/>
  <path id="패스_3150" data-name="패스 3150" class="cls-21" d="M73.193,102.764c0-.082-.082-.082-.164-.082l-.247-.082H72.7l.247.082.247.082-.082.164h.082v-.164" transform="translate(-12.953 -18.281)"/>
  <path id="패스_3151" data-name="패스 3151" class="cls-4" d="M72.6,104.9v.082h.082V104.9Z" transform="translate(-12.935 -18.69)"/>
  <path id="패스_3152" data-name="패스 3152" class="cls-4" d="M72.5,105.182h0V105.1Z" transform="translate(-12.918 -18.726)"/>
  <path id="패스_3153" data-name="패스 3153" class="cls-4" d="M72.6,105.1v.082h.082V105.1Z" transform="translate(-12.935 -18.726)"/>
  <path id="패스_3154" data-name="패스 3154" class="cls-4" d="M72.8,105.082h.082L72.8,105Z" transform="translate(-12.971 -18.708)"/>
  <path id="패스_3155" data-name="패스 3155" class="cls-4" d="M72.8,104.8v.082h.082Z" transform="translate(-12.971 -18.673)"/>
  <path id="패스_3156" data-name="패스 3156" class="cls-4" d="M72.4,104h0v.082h0V104Z" transform="translate(-12.9 -18.53)"/>
  <path id="패스_3157" data-name="패스 3157" class="cls-4" d="M72.5,103.8h0v.082h0l.082-.082Z" transform="translate(-12.918 -18.494)"/>
  <path id="패스_3158" data-name="패스 3158" class="cls-4" d="M72.4,103.6v.082h.082Z" transform="translate(-12.9 -18.459)"/>
  <path id="패스_3159" data-name="패스 3159" class="cls-4" d="M72.3,103.8v.082h.082V103.8Z" transform="translate(-12.882 -18.494)"/>
  <path id="패스_3160" data-name="패스 3160" class="cls-2" d="M73.211,104.264a.255.255,0,0,1-.329-.164l-.082.247a.29.29,0,0,0,.411.082Z" transform="translate(-12.971 -18.548)"/>
  <path id="패스_3161" data-name="패스 3161" class="cls-4" d="M73.1,104.447c.082,0,.082,0,.164-.082V104.2h-.082v.082l-.082.164Z" transform="translate(-13.024 -18.566)"/>
  <path id="패스_3162" data-name="패스 3162" class="cls-4" d="M73.382,103.547h0v-.164h0a.08.08,0,0,1-.082-.082h0v.082h0c0,.082,0,.082.082.164Z" transform="translate(-13.06 -18.405)"/>
  <path id="패스_3163" data-name="패스 3163" class="cls-24" d="M73.382,104.2l-.082.082v.082l.082-.082Z" transform="translate(-13.06 -18.566)"/>
  <path id="패스_3164" data-name="패스 3164" class="cls-22" d="M74.826,105.2c0,.164-.082.74-.082.74v.164c.082,0,.164-.082.247-.082,0,0,.164.082-.247.082v.164a.08.08,0,0,1-.082.082v-.082h0V106.1c-.247-.082-.164-.082-.164-.082,0-.082.164,0,.164.082v-.164a3.05,3.05,0,0,0,.164-.74" transform="translate(-13.271 -18.744)"/>
  <path id="패스_3165" data-name="패스 3165" class="cls-22" d="M73.611,105.8h-.164v-.164c.082-.493.082-.493,0-.74h-.082v.74l-.164-.082s0,.082.164.082v.164c-.164-.247-.164-.082-.164-.082,0,.082.164.082.164.164v.082h0V105.8c.329.164.411.082.247,0" transform="translate(-13.042 -18.69)"/>
  <path id="패스_3166" data-name="패스 3166" class="cls-23" d="M73.529,105.464h0c0-.082,0-.164-.082-.164a.08.08,0,0,0-.082.082v.082l-.082-.082H73.2a.08.08,0,0,0,.082.082h.082l-.082.082v.082a.08.08,0,0,0,.082-.082v-.082l.082.082h.082c.082,0,0-.082,0-.082" transform="translate(-13.042 -18.762)"/>
  <path id="패스_3167" data-name="패스 3167" class="cls-23" d="M73.564,105.011h0l.082-.164h.082v-.082h-.082v-.082h0V104.6h-.082v0h-.082v.082h0v.082h.082v.082h0l-.082.082v0H73.4v.164h.082l-.082.082v.164h.082v0h.082c.082-.247.082-.247,0-.329" transform="translate(-13.078 -18.637)"/>
  <path id="패스_3168" data-name="패스 3168" class="cls-23" d="M75.029,104.964h0c0-.082,0-.164-.082-.164s-.082,0-.082.082v.082l-.082-.082H74.7a.08.08,0,0,0,.082.082h.082l-.082.082v.082a.08.08,0,0,0,.082-.082v-.082l.082.082h.082v-.082" transform="translate(-13.31 -18.673)"/>
  <path id="패스_3169" data-name="패스 3169" class="cls-23" d="M74.682,105.711h0v-.164h.082v-.082h.082v.082h0l.082-.082h.082l-.082-.082V105.3a.08.08,0,0,1,.082.082v.082l.082-.082h.082a.08.08,0,0,1-.082.082h-.082l.082.082v.082a.08.08,0,0,1-.082-.082v-.082h0v.082h0l.082.082v.082l.082-.082c.082,0,.082,0,.082.082s0,.082-.082.082h-.082l-.164.082c0,.082,0,.082-.082.082s-.082,0-.082-.082v-.082l-.082.082c-.082,0-.082,0-.082-.082l.082-.082" transform="translate(-13.292 -18.762)"/>
  <path id="패스_3170" data-name="패스 3170" class="cls-23" d="M73.5,105.2Z" transform="translate(-13.096 -18.744)"/>
  <path id="패스_3171" data-name="패스 3171" class="cls-22" d="M74.35,104.6a3.408,3.408,0,0,0-.329.986c0,.082-.082.164-.082.247-.082-.082-.164-.164-.247-.164,0,0-.164,0,.247.247v.247h.082v-.082A.494.494,0,0,0,74.35,106s0-.164-.329.082v-.164c.247,0,.247-.082.247-.082,0-.082-.164,0-.247,0,0-.082.082-.247.082-.329s.247-.822.247-.9" transform="translate(-13.124 -18.637)"/>
  <path id="패스_3172" data-name="패스 3172" class="cls-23" d="M74.087,105.351h0c-.082.082-.082.164,0,.164,0,0,.082.082.082,0v0c0,.082.082.082.082,0a.114.114,0,0,0,0-.164h0c.082,0,.082-.082,0-.164,0,0-.082-.082-.082,0v0c0-.082-.082-.082-.082,0s-.082.082,0,.164" transform="translate(-13.189 -18.731)"/>
  <path id="패스_3173" data-name="패스 3173" class="cls-23" d="M74.175,104.747h0c-.082.082-.164.164-.082.164,0,.082.082.082.164.082l.082-.082v.082a.08.08,0,0,0,.082.082c.082,0,.082-.082.082-.164l-.082-.082H74.5c.082,0,.082-.082.082-.164s-.082-.082-.164-.082l-.082.082v-.082a.08.08,0,0,0-.082-.082c0,.082-.082.164-.082.247" transform="translate(-13.195 -18.619)"/>
  <path id="패스_3174" data-name="패스 3174" class="cls-23" d="M74.464,104.382h0a.287.287,0,0,0-.164.082c0,.082,0,.082.082.082h.082l-.082.082c0,.082,0,.082.082.082s.082,0,.082-.082v-.082l.082.082c.082,0,.082,0,.082-.082s0-.082-.082-.082h-.082l.082-.082c0-.082,0-.082-.082-.082a.08.08,0,0,0-.082.082" transform="translate(-13.238 -18.584)"/>
  <path id="패스_3175" data-name="패스 3175" class="cls-23" d="M74.9,105.7Z" transform="translate(-13.345 -18.833)"/>
  <path id="패스_3176" data-name="패스 3176" class="cls-23" d="M73.4,104.682l.082.082.082-.082-.082-.082Z" transform="translate(-13.078 -18.637)"/>
  <path id="패스_3177" data-name="패스 3177" class="cls-23" d="M73.564,105.182a.082.082,0,1,1-.082-.082.08.08,0,0,1,.082.082" transform="translate(-13.078 -18.726)"/>
  <path id="패스_3178" data-name="패스 3178" class="cls-23" d="M73.4,105.5v.082h.082V105.5Z" transform="translate(-13.078 -18.797)"/>
  <path id="패스_3179" data-name="패스 3179" class="cls-23" d="M74.264,105.475a.082.082,0,1,1-.082-.082c.082-.082.164,0,.082.082" transform="translate(-13.203 -18.772)"/>
  <path id="패스_3180" data-name="패스 3180" class="cls-23" d="M74.447,104.864c0,.082-.082.082-.164.082s-.082-.082-.082-.164.082-.082.164-.082a.255.255,0,0,1,.082.164" transform="translate(-13.22 -18.655)"/>
  <path id="패스_3181" data-name="패스 3181" class="cls-23" d="M74.664,104.582a.082.082,0,1,1-.082-.082c.082,0,.082,0,.082.082" transform="translate(-13.274 -18.619)"/>
  <rect id="사각형_234" data-name="사각형 234" class="cls-23" width="0.082" height="0.082" transform="translate(61.553 86.303) rotate(-34.402)"/>
  <rect id="사각형_235" data-name="사각형 235" class="cls-23" width="0.082" height="0.082" transform="matrix(0.824, -0.567, 0.567, 0.824, 61.612, 86.637)"/>
  <path id="패스_3182" data-name="패스 3182" class="cls-23" d="M74.8,105.6v.082l.082-.082Z" transform="translate(-13.327 -18.815)"/>
  <path id="패스_3183" data-name="패스 3183" class="cls-23" d="M74.964,105.882a.082.082,0,1,1-.082-.082c.082,0,.082,0,.082.082" transform="translate(-13.327 -18.851)"/>
  <path id="패스_3184" data-name="패스 3184" class="cls-3" d="M75.882,50l1.808,6.164-7.4,3.534-.493-9.2s3.452-1.4,6.164-.822" transform="translate(-12.437 -8.825)"/>
  <path id="패스_3185" data-name="패스 3185" class="cls-2" d="M77.8,57.6S83.22,75.762,98.178,72.064L93.329,86.035s-19.642.9-22.929-24.9Z" transform="translate(-12.543 -10.263)"/>
  <path id="패스_3186" data-name="패스 3186" class="cls-4" d="M73.834,73.461A37.294,37.294,0,0,1,70.3,61.134L77.7,57.6a28.74,28.74,0,0,0,5.013,9.122s-4.027-.74-4.52,3.287c0,0-.9,2.794-2.63,3.123Z" transform="translate(-12.526 -10.263)"/>
</svg>
