<svg xmlns="http://www.w3.org/2000/svg" viewBox="0 0 1200 522">
  <defs>
    <style>
      .cls-1 {
        fill: none;
      }

      .cls-2 {
        fill: #74c6be;
      }

      .cls-3 {
        fill: #f2e9b6;
      }

      .cls-4 {
        fill: #727171;
      }

      .cls-5 {
        fill: #fff;
      }

      .cls-6 {
        fill: #bce2e3;
      }

      .cls-7 {
        fill: #f5ecd3;
      }

      .cls-8 {
        fill: #fdd35c;
      }

      .cls-9 {
        fill: #fbf6d2;
      }

      .cls-10 {
        fill: #4d4d4d;
      }

      .cls-11 {
        fill: #64c0ab;
      }

      .cls-12 {
        fill: #ea5541;
      }
    </style>
  </defs>
  <g id="그룹_674" data-name="그룹 674" transform="translate(-100 -650)">
    <path id="패스_3035" data-name="패스 3035" class="cls-1" d="M0,0H1200V522H0Z" transform="translate(100 650)"/>
    <path id="패스_2891" data-name="패스 2891" class="cls-2" d="M500.951.2c-16.875.1-31.641.408-46.407.611C294.23,3.872,23.3,9.678-12.562,18.135c-35.86,8.354,70.245,32.1,217.9,34.342,906.631,1.334,681.091,13.55,778.123,0,6.953-.976,157.546-3.151,149.48-34.342-14.89-4.333-69.817-1.04-189.02-7.437C838.453,4.89,663.373-1.222,500.951.2Z" transform="translate(132.691 975.494)"/>
    <path id="패스_2890" data-name="패스 2890" class="cls-3" d="M502.181.1c-16.916.053-31.718.214-46.519.32C294.958,2.027,39.1,7.742,3.154,12.176c-35.947,4.38,54.681,14.159,202.7,15.334,908.836.7,682.748,7.1,780.016,0,6.969-.512,148.027,1.019,139.941-15.334-14.926-2.272-60.084-3.216-179.578-6.57C840.5,2.561,665-.644,502.181.1Z" transform="translate(128.947 977.494)"/>
    <g id="그룹_584" data-name="그룹 584" transform="translate(585.156 914.461)">
      <g id="그룹_581" data-name="그룹 581" transform="translate(0.043 0.012)">
        <path id="패스_3003" data-name="패스 3003" class="cls-4" d="M198.431,64.377a4.462,4.462,0,0,0-1.172-3.515c-2.409-3.125-5.729-3.971-9.114-5.794-5.663-2.994-6.38-2.864-12.434-5.078-2.278-.846-4.687-1.627-6.9-2.6a40.333,40.333,0,0,1-14.386-10.871c-4.947-5.989-14.256-10.546-20.441-15.3a44.52,44.52,0,0,0-9.83-6.184c-3.255-1.3-2.278-1.758-5.4-3.19-2.669-1.237-3.776-3.125-6.38-4.492C99.874.843,85.1,2.6,73.575,10.217,68.3,13.732,64.005,18.093,59.449,22.65,54.7,27.4,47.926,33.912,42.979,38.534c-4.947,4.557-12.043,7.291-18.032,10.09-6.965,3.32-14.191,6.77-19.92,11.913C3.4,61.969-1.157,64.768.34,67.242c2.539,4.166,13.931,3.58,17.9,3.906,22.589,1.888,45.7,2.669,68.352,2.669,20.506,0,41.206,0,61.712-1.367,8.918-.586,17.837-.846,26.755-1.823C178.381,70.236,197.129,69.976,198.431,64.377Z" transform="translate(-0.043 -1.176)"/>
        <path id="패스_3004" data-name="패스 3004" class="cls-2" d="M89.4,22.723c-.26.325,9.634,3.711,15.623-4.622,0,0,1.107-4.362,5.273,1.758,0,0,2.6,4.231,8.723.13,0,0,2.409-4.687,7.356-.911,0,0,7.551,6.119,10.35-2.474,0,0,2.083-4.362,10.806,3.45,0,0,4.622,5.338,7.681-1.823,0,0,.716-3.776,9.83,1.823A60.758,60.758,0,0,0,151.7,10.68c-1.367-.651-3.841-2.018-5.143-2.734-2.213-1.367-4.1-3.125-6.314-4.492A23.635,23.635,0,0,0,133.4,1.111a28.5,28.5,0,0,0-16.339.2c-3.58,1.237-4.557,3.255-7.877,5.078-2.734,1.5-5.078,2.6-7.681,4.362-2.994,1.953-5.012,4.557-7.551,7.03A55.451,55.451,0,0,0,89.4,22.723Z" transform="translate(-31.228 -0.012)"/>
      </g>
      <g id="그룹_582" data-name="그룹 582" transform="translate(41.237 28.764)">
        <path id="패스_3005" data-name="패스 3005" class="cls-5" d="M75.742,53.371c-1.562,2.864-6.054,4.3-9.569,2.409-4.882-2.669-2.474-8.463-.26-10.22,5.143-4.362,12.694,2.539,9.83,7.812" transform="translate(-63.323 -44.179)"/>
        <path id="패스_3006" data-name="패스 3006" class="cls-5" d="M91.642,53.371c-1.562,2.864-6.054,4.3-9.569,2.409-4.882-2.669-2.474-8.463-.26-10.22,5.078-4.362,12.694,2.539,9.83,7.812" transform="translate(-68.873 -44.179)"/>
        <path id="패스_3007" data-name="패스 3007" class="cls-5" d="M107.842,53.371c-1.562,2.864-6.054,4.3-9.569,2.409-4.882-2.669-2.474-8.463-.26-10.22,5.143-4.362,12.694,2.539,9.83,7.812" transform="translate(-74.527 -44.179)"/>
      </g>
      <g id="그룹_583" data-name="그룹 583" transform="translate(113.775 24.884)">
        <path id="패스_3008" data-name="패스 3008" class="cls-5" d="M187.088,47.385c-1.562,2.8-6.054,4.3-9.5,2.409-4.882-2.669-2.409-8.4-.26-10.22,5.078-4.3,12.629,2.539,9.765,7.812" transform="translate(-174.755 -38.219)"/>
        <path id="패스_3009" data-name="패스 3009" class="cls-5" d="M204.088,47.385c-1.562,2.8-6.054,4.3-9.5,2.409-4.882-2.669-2.409-8.4-.26-10.22,5.012-4.3,12.564,2.539,9.765,7.812" transform="translate(-180.688 -38.219)"/>
        <path id="패스_3010" data-name="패스 3010" class="cls-5" d="M220.977,47.385c-1.562,2.8-6.054,4.3-9.5,2.409-4.882-2.669-2.474-8.4-.26-10.22,5.078-4.3,12.629,2.539,9.765,7.812" transform="translate(-186.576 -38.219)"/>
        <path id="패스_3011" data-name="패스 3011" class="cls-5" d="M238.977,47.385c-1.562,2.8-6.054,4.3-9.5,2.409-4.882-2.669-2.474-8.4-.26-10.22,5.078-4.3,12.629,2.539,9.765,7.812" transform="translate(-192.858 -38.219)"/>
      </g>
    </g>
    <g id="그룹_461" data-name="그룹 461" transform="translate(1025.931 825)">
      <g id="그룹_459" data-name="그룹 459">
        <path id="패스_2427" data-name="패스 2427" class="cls-6" d="M13.3,26.1c-1.7,3-6.5,4.6-10.2,2.6-5.2-2.8-2.6-9-.3-10.9,5.4-4.7,13.5,2.7,10.5,8.3"/>
        <path id="패스_2428" data-name="패스 2428" class="cls-6" d="M25.1,26.1c-1.7,3-6.5,4.6-10.2,2.6-5.2-2.8-2.6-9-.3-10.9,5.4-4.7,13.5,2.7,10.5,8.3"/>
        <path id="패스_2429" data-name="패스 2429" class="cls-6" d="M36.9,26.1c-1.7,3-6.5,4.6-10.2,2.6-5.2-2.8-2.6-9-.3-10.9,5.4-4.7,13.5,2.7,10.5,8.3"/>
        <path id="패스_2430" data-name="패스 2430" class="cls-6" d="M16.7,36.6l-.2.2a.791.791,0,0,1-1.2-.9,4.177,4.177,0,0,1,1.1-1.5,17.383,17.383,0,0,0,1.3-1.5c-.1.1,0,.4,0,.5a5.853,5.853,0,0,1-.2,1.3,5.449,5.449,0,0,1-.8,1.9"/>
        <path id="패스_2431" data-name="패스 2431" class="cls-6" d="M25.9,32.8c-1.1.9-2.5,1.7-2.4,3.3a1.4,1.4,0,0,0,.9,1.2c1.3.1,1.3-2.2,1.3-2.9-.1-.4-.1-1.4.2-1.6"/>
        <path id="패스_2432" data-name="패스 2432" class="cls-6" d="M7.6,33.2c0-.3-2.5,2.7-2.6,3.1-.4,1.1,1.5,1.2,2,.5.4-.6.4-2.1.6-3.6"/>
        <path id="패스_2433" data-name="패스 2433" class="cls-6" d="M22.8,45.7c-.1.1-.1.2-.2.2a.734.734,0,0,1-1.3-.6,3.63,3.63,0,0,1,.7-1.7,16.179,16.179,0,0,0,1-1.8c0,.1.1.4.1.5a5.7,5.7,0,0,1,.1,1.3,7.117,7.117,0,0,1-.4,2.1"/>
        <path id="패스_2434" data-name="패스 2434" class="cls-6" d="M5,40.9c-1.2.8-2.6,1.5-2.6,3.1,0,.4.4,1.2.8,1.2,1.2.2,1.4-2.1,1.5-2.8,0-.2,0-1.3.3-1.5"/>
        <path id="패스_2435" data-name="패스 2435" class="cls-6" d="M14.3,41.9a16.793,16.793,0,0,0-2.1,3.5c-.2,1.2,1.6.9,2,.2.4-.8.2-2.3.1-3.7"/>
        <path id="패스_2436" data-name="패스 2436" class="cls-6" d="M1.5,52.5l-.2.2a.791.791,0,0,1-1.2-.9,4.177,4.177,0,0,1,1.1-1.5,17.383,17.383,0,0,0,1.3-1.5c-.1.1,0,.4,0,.5a5.853,5.853,0,0,1-.2,1.3,4.552,4.552,0,0,1-.8,1.9"/>
        <path id="패스_2437" data-name="패스 2437" class="cls-6" d="M21.7,49.4c-1.2.7-2.7,1.4-2.8,3,0,.4.3,1.2.7,1.3,1.2.2,1.5-2,1.6-2.7.1-.3.2-1.4.5-1.6"/>
        <path id="패스_2438" data-name="패스 2438" class="cls-6" d="M12.3,49.1c0-.3-2.4,2.8-2.5,3.2-.4,1.1,1.5,1.1,2,.4a11.066,11.066,0,0,0,.5-3.6"/>
      </g>
      <g id="그룹_460" data-name="그룹 460">
        <path id="패스_2439" data-name="패스 2439" class="cls-6" d="M52.8,9.8c-1.7,3-6.5,4.6-10.2,2.5-5.2-2.8-2.6-9-.3-10.9,5.5-4.5,13.6,2.8,10.5,8.4"/>
        <path id="패스_2440" data-name="패스 2440" class="cls-6" d="M64.6,9.8c-1.7,3-6.5,4.6-10.2,2.5-5.2-2.8-2.6-9-.3-10.9,5.5-4.5,13.6,2.8,10.5,8.4"/>
      </g>
    </g>
    <g id="그룹_488" data-name="그룹 488" transform="translate(434.807 825)">
      <g id="그룹_486" data-name="그룹 486">
        <path id="패스_2636" data-name="패스 2636" class="cls-6" d="M42.4,20.6a.9.9,0,0,0,.5-.1,10.76,10.76,0,0,0,5.7-7.7,10.987,10.987,0,0,0-3.2-9.4A10.987,10.987,0,0,0,37.5,0h0a11.113,11.113,0,0,0-7.6,3.2A9.074,9.074,0,0,0,27,10.1a9.633,9.633,0,0,0,3.1,6.8,7.748,7.748,0,0,0,10.6-.4,6.423,6.423,0,0,0,2-4.4,6.029,6.029,0,0,0-1.8-4.5A5.347,5.347,0,0,0,36.8,6a4.6,4.6,0,0,0-3.6,1.7,4.279,4.279,0,0,0-.7,3.5,3.575,3.575,0,0,0,2.1,2.5,1.158,1.158,0,0,0,1.4-.6,1.158,1.158,0,0,0-.6-1.4,1.622,1.622,0,0,1-.9-1.1A1.579,1.579,0,0,1,34.8,9a3.215,3.215,0,0,1,2.1-1,3.541,3.541,0,0,1,2.6,1,4,4,0,0,1,1.2,2.9,4.22,4.22,0,0,1-1.4,3,5.592,5.592,0,0,1-7.7.3,6.968,6.968,0,0,1-2.4-5.3,7.009,7.009,0,0,1,2.1-5.3A8.483,8.483,0,0,1,37.4,2h0a8.96,8.96,0,0,1,6.4,2.8,8.686,8.686,0,0,1,2.6,7.6,8.305,8.305,0,0,1-4.5,6.1,1.15,1.15,0,0,0-.5,1.4A1.041,1.041,0,0,0,42.4,20.6Z"/>
      </g>
      <g id="그룹_487" data-name="그룹 487">
        <path id="패스_2637" data-name="패스 2637" class="cls-6" d="M15.4,37.8a.9.9,0,0,0,.5-.1A10.76,10.76,0,0,0,21.6,30a10.987,10.987,0,0,0-3.2-9.4,10.987,10.987,0,0,0-7.9-3.4h0a11.113,11.113,0,0,0-7.6,3.2A9.266,9.266,0,0,0,.2,27.3a9.633,9.633,0,0,0,3.1,6.8,7.748,7.748,0,0,0,10.6-.4,6.423,6.423,0,0,0,2-4.4,6.029,6.029,0,0,0-1.8-4.5A5.347,5.347,0,0,0,10,23.2a4.6,4.6,0,0,0-3.6,1.7,4.279,4.279,0,0,0-.7,3.5,3.575,3.575,0,0,0,2.1,2.5,1.077,1.077,0,0,0,.8-2,1.622,1.622,0,0,1-.9-1.1A1.579,1.579,0,0,1,8,26.2a3.215,3.215,0,0,1,2.1-1,3.541,3.541,0,0,1,2.6,1,4,4,0,0,1,1.2,2.9,4.22,4.22,0,0,1-1.4,3,5.592,5.592,0,0,1-7.7.3,6.968,6.968,0,0,1-2.4-5.3,7.009,7.009,0,0,1,2.1-5.3,8.483,8.483,0,0,1,6.1-2.6h0A8.96,8.96,0,0,1,17,22a8.686,8.686,0,0,1,2.6,7.6,8.305,8.305,0,0,1-4.5,6.1,1.15,1.15,0,0,0-.5,1.4A.709.709,0,0,0,15.4,37.8Z"/>
      </g>
    </g>
    <g id="그룹_571" data-name="그룹 571" transform="translate(960.01 940.017)">
      <path id="패스_2892" data-name="패스 2892" class="cls-6" d="M9.5,28a24.153,24.153,0,0,1-5.4,7.6c-1.5,1.3-4.3,2.7-4.1,5,.5,5,11.9,4.1,15,4.1,6,0,12,0,18,.1,6.1,0,13.8,2,19.4-1,5.8-3.1-2.2-8.4-3.4-12C46.3,23.7,40,13,29.6,12.4c-6.4-.3-11.7,1-15.4,6.4A66.658,66.658,0,0,0,9.5,28Z"/>
      <path id="패스_2893" data-name="패스 2893" class="cls-2" d="M47.5,22.8a26.55,26.55,0,0,1-6.3,10.1c-1.9,1.8-12.4,7.6-6.6,10.7,4,2.1,10.2,1.7,14.6,1.8,1.8.1,3.7,0,5.5,0,13.7,0,27.3.1,41,0,6.3-.1,22-.9,9.9-10.4-7.1-5.5-4.2-16.6-8.5-23.7C92.3,3.4,83.4-.3,74.3,0,58.9.6,52.6,8.9,47.5,22.8Z"/>
    </g>
    <g id="그룹_574" data-name="그룹 574" transform="translate(369.002 912.476)">
      <path id="패스_2894" data-name="패스 2894" class="cls-5" d="M35.128,30.833a1.882,1.882,0,1,0,.927,2.495A1.906,1.906,0,0,0,35.128,30.833Z" transform="translate(-9.327 -8.81)"/>
      <path id="패스_2895" data-name="패스 2895" class="cls-7" d="M44.064,41.863c-3.635-4.775-5.06-5.274-5.417-4.989s-.214,1.782,3.421,6.557c1.711,2.209,3.849,4.7,5.631,6.7l1.354-1.069A81.1,81.1,0,0,0,44.064,41.863Z" transform="translate(-11.065 -10.575)"/>
      <path id="패스_2896" data-name="패스 2896" class="cls-7" d="M33.58,38.7c-.855,0-2.138,13.186-2.78,26.514h5.346C35.647,51.886,34.435,38.7,33.58,38.7Z" transform="translate(-8.848 -11.118)"/>
      <path id="패스_2897" data-name="패스 2897" class="cls-7" d="M30.4,85.257h5.987c-.071-2.138-.143-4.348-.214-6.557H30.614C30.543,80.838,30.471,83.119,30.4,85.257Z" transform="translate(-8.733 -22.608)"/>
      <path id="패스_2898" data-name="패스 2898" class="cls-7" d="M38.9,14.64c-2.352,5.488-2.138,6.985-1.711,7.2s1.639-.641,4.063-6.2c1.069-2.566,2.209-5.631,3.136-8.2L42.822,6.8C41.468,9.152,40.042,12.074,38.9,14.64Z" transform="translate(-10.607 -1.954)"/>
      <path id="패스_2899" data-name="패스 2899" class="cls-7" d="M16.481,36.425c5.916-1.14,6.985-2.209,6.914-2.637s-1.5-1-7.341.143c-2.708.5-5.916,1.354-8.553,2.067l.356,1.711C10.494,37.423,13.772,36.924,16.481,36.425Z" transform="translate(-2.155 -9.555)"/>
      <g id="그룹_573" data-name="그룹 573" transform="translate(-0.002 -0.003)">
        <g id="그룹_572" data-name="그룹 572">
          <path id="패스_2900" data-name="패스 2900" class="cls-8" d="M39.039,99.814V97.248A4.32,4.32,0,0,0,34.691,92.9H28.348A4.32,4.32,0,0,0,24,97.248v2.495H39.039Z" transform="translate(-6.893 -26.685)"/>
          <path id="패스_2901" data-name="패스 2901" class="cls-8" d="M55.463,58.889c.214-.143-1-2.281-2.708-4.989L51.4,54.969C53.538,57.321,55.32,59.032,55.463,58.889Z" transform="translate(-14.764 -15.482)"/>
          <path id="패스_2902" data-name="패스 2902" class="cls-8" d="M30.3,93.673h6.13c0-1.853,0-3.778-.071-5.773H30.371C30.3,89.9,30.3,91.82,30.3,93.673Z" transform="translate(-8.702 -25.248)"/>
          <path id="패스_2903" data-name="패스 2903" class="cls-8" d="M30.771,75.8c0,.641-.071,1.354-.071,2h5.559c0-.641-.071-1.354-.071-2Z" transform="translate(-8.817 -21.773)"/>
          <path id="패스_2904" data-name="패스 2904" class="cls-8" d="M48.194,0c-.214-.071-1.5,2-2.994,4.775l1.568.641C47.766,2.423,48.407.071,48.194,0Z" transform="translate(-12.983 0.003)"/>
          <path id="패스_2905" data-name="패스 2905" class="cls-8" d="M0,39.024c.071.214,2.495.143,5.631-.214L5.274,37.1C2.28,37.955-.072,38.739,0,39.024Z" transform="translate(0.002 -10.656)"/>
        </g>
        <path id="패스_2906" data-name="패스 2906" class="cls-8" d="M35.05,32.067a.973.973,0,1,0,.5,1.283A.967.967,0,0,0,35.05,32.067Z" transform="translate(-9.675 -9.186)"/>
      </g>
    </g>
    <g id="그룹_577" data-name="그룹 577" transform="translate(435.009 955.039)">
      <g id="그룹_575" data-name="그룹 575">
        <path id="패스_2907" data-name="패스 2907" class="cls-4" d="M31.2,15.8h-.4c-1.1.1-2.2,0-3.3.1-2.2.2-4,1.8-5.6,3.4a5.367,5.367,0,0,0-1.5,3.8,9.77,9.77,0,0,1-1.2,4.8,7.318,7.318,0,0,0-.1,3.3,8.272,8.272,0,0,0,.9,1.6,7.046,7.046,0,0,0,4.9,3.1,16.346,16.346,0,0,0,5.4-.2S47,36,43.7,22c-.2-1-2-1.7-2.7-2.5a8.431,8.431,0,0,0-6.7-3.3C33.2,16.1,32.3,15.8,31.2,15.8Z"/>
        <path id="패스_2908" data-name="패스 2908" class="cls-4" d="M11.5,12.1c1.6,2.2,4.1-.1,7-1.6,2.5-1.3,5.3-5.1,3.2-7-.7-.7-3.4-.5-4.8-.4-1.9.3-2.7-.1-3.8.6a9.217,9.217,0,0,0-3,3.5A3.617,3.617,0,0,0,9.4,10C9.6,11.1,10.9,11.3,11.5,12.1Z"/>
        <path id="패스_2909" data-name="패스 2909" class="cls-4" d="M56.7,17.6c1.9,2.6,4.9-.1,8.4-1.9,3-1.5,2.4-4.8-.1-7.1-1.9-1.8-4.2-2.4-6.5-1.1-2.2,1.3-4.3,5.7-4,8.2C54.7,16.3,56.4,17.2,56.7,17.6Z"/>
        <path id="패스_2910" data-name="패스 2910" class="cls-4" d="M17,18.2c-2.3-1.2-7.7-3.5-9.2-2.9a27.665,27.665,0,0,0-5.4,2.8C1,19,1.5,22.2.5,23.4s-.4,4.7.7,6.2c1.5,2.1,7.3,2.8,9,2.2,3.7-1.3,7.3-5.8,8.6-10C19.3,20.1,18.4,19,17,18.2Z"/>
        <path id="패스_2911" data-name="패스 2911" class="cls-4" d="M57.6,31.3c.6-2.1,2.6-5.3,1.9-6.5a23.711,23.711,0,0,0-3.2-3.9c-1-.9-3.5,0-4.7-.7-1.2-.6-4.6-1.2-5.6,0-1.5,1.6.9,5,1.7,6.3,1.7,2.8,3.7,6.6,7.4,6.9A2.653,2.653,0,0,0,57.6,31.3Z"/>
        <path id="패스_2912" data-name="패스 2912" class="cls-4" d="M38,1.9c-2-.5-4.5-2-5.6-1.2-1.3.9-6.3,2-7.4,3.1-.6.6-.4,1.7-.4,2.5a13.1,13.1,0,0,0,0,2.8,4.355,4.355,0,0,0,1.6,2.2c1.6,1.4,2.8,2.4,5.1,2.3a10.388,10.388,0,0,0,4.6-1.1c2.7-1.7,3.8-4.6,4.1-8.1C40.2,3,39.3,2.2,38,1.9Z"/>
        <path id="패스_2913" data-name="패스 2913" class="cls-4" d="M72.6,17.6c-2.2-.1-5.6-.8-6.6.2-1.2,1.2-3.9,2.4-4.8,3.8-.7,1.1.7,3.4.4,4.7s1.4,4,2.7,4.8c1.9,1.1,6.6-1,7.7-2a10.976,10.976,0,0,0,3.2-9.4C75,18.2,73.9,17.7,72.6,17.6Z"/>
        <path id="패스_2914" data-name="패스 2914" class="cls-4" d="M52.1,14.6s1,3.2-2.8,2.8a11.864,11.864,0,0,0-4.2.1,4.711,4.711,0,0,1-3.5-.1c-1.7-.8-2.3-2.2-2.5-4s1-2.9,2.2-3.9a4.924,4.924,0,0,0,1-1.5c.7-1.3,2.2-3.5,3.8-3.6,1.2-.1,2,1,2.6,2,1.1,1.3,2.8,2.3,3.2,4.1C52.1,11.8,51.7,13.4,52.1,14.6Z"/>
        <path id="패스_2915" data-name="패스 2915" class="cls-4" d="M44.6,3.5c.4-.3.8-.4,1.1-.9a1.216,1.216,0,0,0,.1-1.4,4.485,4.485,0,0,0-1.3-1A2.484,2.484,0,0,0,42.6.1c-.4.1-1.7.1-1.9.5-.6.8.5,2.8.9,3a2.41,2.41,0,0,0,1.5.4,1.817,1.817,0,0,0,1.4-.3C44.5,3.6,44.6,3.6,44.6,3.5Z"/>
        <path id="패스_2916" data-name="패스 2916" class="cls-4" d="M17.2,12.8a2.928,2.928,0,0,0-.7,1.6,1.332,1.332,0,0,0,1,1.4c.8.2,2.4,1.8,3.3,1.7a6.3,6.3,0,0,0,2.7-1,9.624,9.624,0,0,0,1.6-3.2c.1-1.1-3.1-2.4-3.7-2.4a6.436,6.436,0,0,0-2.4.5c-.8.3-1.3.4-1.6,1.1C17.3,12.6,17.3,12.7,17.2,12.8Z"/>
        <path id="패스_2917" data-name="패스 2917" class="cls-4" d="M50.9,2.5c-.4.4-.9.7-1.1,1.3a1.217,1.217,0,0,0,.7,1.6c.8.4,1.9,2.4,2.7,2.5a5.789,5.789,0,0,0,2.9-.3,9.1,9.1,0,0,0,2.3-2.8c.4-1.1-2.4-3.1-3-3.3a7.017,7.017,0,0,0-2.5-.1c-.8.1-1.3.1-1.8.7C51,2.4,50.9,2.4,50.9,2.5Z"/>
      </g>
      <g id="그룹_576" data-name="그룹 576">
        <path id="패스_2918" data-name="패스 2918" class="cls-9" d="M30.6,11.1a.367.367,0,0,1-.3-.1.616.616,0,0,1-.1-.7.494.494,0,0,0,.1-.3c0-.3.3-.4.5-.4.3,0,.4.3.4.5a1.909,1.909,0,0,1-.3.8C30.9,11.1,30.7,11.1,30.6,11.1Z"/>
        <path id="패스_2919" data-name="패스 2919" class="cls-9" d="M28.2,7.7a.367.367,0,0,1-.3-.1.616.616,0,0,1-.1-.7c.1,0,.2-.2.2-.3,0-.3.3-.4.5-.4.3,0,.4.3.4.5a1.909,1.909,0,0,1-.3.8A.4.4,0,0,1,28.2,7.7Z"/>
        <path id="패스_2920" data-name="패스 2920" class="cls-9" d="M34.3,5a.367.367,0,0,1-.3-.1.616.616,0,0,1-.1-.7c.1,0,.2-.2.2-.3,0-.3.3-.4.5-.4.3,0,.4.3.4.5a1.909,1.909,0,0,1-.3.8A.758.758,0,0,1,34.3,5Z"/>
        <path id="패스_2921" data-name="패스 2921" class="cls-9" d="M43.9,3.1c-.1,0-.2,0-.2-.1-.2-.1-.2-.4-.1-.6.1-.1.1-.3.2-.4a.43.43,0,0,1,.4-.4c.2,0,.4.2.3.4a1.909,1.909,0,0,1-.3.8C44.1,3.1,44,3.1,43.9,3.1Z"/>
        <path id="패스_2922" data-name="패스 2922" class="cls-9" d="M42.3,2.1c-.1,0-.2,0-.2-.1-.2-.1-.2-.4-.1-.6.1-.1.1-.3.2-.4,0-.2.2-.4.4-.3.2,0,.4.2.3.4a1.909,1.909,0,0,1-.3.8C42.5,2,42.4,2.1,42.3,2.1Z"/>
        <path id="패스_2923" data-name="패스 2923" class="cls-9" d="M32.1,8a.367.367,0,0,1-.3-.1.616.616,0,0,1-.1-.7.367.367,0,0,0,.1-.3c0-.3.3-.4.5-.4.3,0,.4.3.4.5a1.909,1.909,0,0,1-.3.8C32.4,8,32.2,8,32.1,8Z"/>
        <path id="패스_2924" data-name="패스 2924" class="cls-9" d="M30.7,4.8a.367.367,0,0,1-.3-.1.616.616,0,0,1-.1-.7.367.367,0,0,0,.1-.3c0-.3.3-.4.5-.4.3,0,.4.3.4.5a1.909,1.909,0,0,1-.3.8C31,4.8,30.9,4.8,30.7,4.8Z"/>
        <path id="패스_2925" data-name="패스 2925" class="cls-9" d="M14.4,10.9a.367.367,0,0,1-.3-.1.616.616,0,0,1-.1-.7.494.494,0,0,0,.1-.3c0-.3.3-.5.5-.4.3,0,.5.3.4.5a1.909,1.909,0,0,1-.3.8C14.6,10.9,14.5,10.9,14.4,10.9Z"/>
        <path id="패스_2926" data-name="패스 2926" class="cls-9" d="M12.4,8.3a.367.367,0,0,1-.3-.1.616.616,0,0,1-.1-.7.367.367,0,0,0,.1-.3c0-.3.3-.4.5-.4.3,0,.4.3.4.5a1.909,1.909,0,0,1-.3.8C12.7,8.2,12.6,8.3,12.4,8.3Z"/>
        <path id="패스_2927" data-name="패스 2927" class="cls-9" d="M15.7,6.3a.367.367,0,0,1-.3-.1.616.616,0,0,1-.1-.7.367.367,0,0,0,.1-.3c0-.3.3-.4.5-.4.3,0,.4.3.4.5a1.909,1.909,0,0,1-.3.8C16,6.2,15.9,6.3,15.7,6.3Z"/>
        <path id="패스_2928" data-name="패스 2928" class="cls-9" d="M19.9,6.8a.367.367,0,0,1-.3-.1.616.616,0,0,1-.1-.7.367.367,0,0,0,.1-.3c0-.3.3-.4.5-.4.3,0,.4.3.4.5a1.909,1.909,0,0,1-.3.8C20.1,6.8,20,6.8,19.9,6.8Z"/>
        <path id="패스_2929" data-name="패스 2929" class="cls-9" d="M17.2,8.9a.367.367,0,0,1-.3-.1.616.616,0,0,1-.1-.7.367.367,0,0,0,.1-.3c0-.3.3-.4.5-.4.3,0,.4.3.4.5a1.909,1.909,0,0,1-.3.8C17.4,8.9,17.3,8.9,17.2,8.9Z"/>
        <path id="패스_2930" data-name="패스 2930" class="cls-9" d="M37.5,26a.367.367,0,0,1-.3-.1.616.616,0,0,1-.1-.7.367.367,0,0,0,.1-.3c0-.3.3-.4.5-.4.3,0,.4.3.4.5a1.909,1.909,0,0,1-.3.8C37.8,25.9,37.6,26,37.5,26Z"/>
        <path id="패스_2931" data-name="패스 2931" class="cls-9" d="M22.8,30.6a.367.367,0,0,1-.3-.1.616.616,0,0,1-.1-.7.367.367,0,0,0,.1-.3c0-.3.3-.4.5-.4.3,0,.4.3.4.5a1.909,1.909,0,0,1-.3.8C23.1,30.5,23,30.6,22.8,30.6Z"/>
        <path id="패스_2932" data-name="패스 2932" class="cls-9" d="M40.6,28.4a.367.367,0,0,1-.3-.1.616.616,0,0,1-.1-.7.367.367,0,0,0,.1-.3c0-.3.3-.4.5-.4.3,0,.4.3.4.5a1.909,1.909,0,0,1-.3.8C40.8,28.4,40.7,28.4,40.6,28.4Z"/>
        <path id="패스_2933" data-name="패스 2933" class="cls-9" d="M34.1,27.2a.367.367,0,0,1-.3-.1.616.616,0,0,1-.1-.7.367.367,0,0,0,.1-.3c0-.3.3-.4.5-.4.3,0,.4.3.4.5a1.909,1.909,0,0,1-.3.8C34.4,27.1,34.2,27.2,34.1,27.2Z"/>
        <path id="패스_2934" data-name="패스 2934" class="cls-9" d="M25.9,29.2a.367.367,0,0,1-.3-.1.616.616,0,0,1-.1-.7.367.367,0,0,0,.1-.3c0-.3.3-.4.5-.4.3,0,.4.3.4.5a1.909,1.909,0,0,1-.3.8C26.1,29.2,26,29.2,25.9,29.2Z"/>
        <path id="패스_2935" data-name="패스 2935" class="cls-9" d="M33.1,32.1a.367.367,0,0,1-.3-.1.616.616,0,0,1-.1-.7.367.367,0,0,0,.1-.3c0-.3.3-.4.5-.4.3,0,.4.3.4.5a1.909,1.909,0,0,1-.3.8C33.4,32.1,33.3,32.1,33.1,32.1Z"/>
        <path id="패스_2936" data-name="패스 2936" class="cls-9" d="M32.2,19.6a.367.367,0,0,1-.3-.1.616.616,0,0,1-.1-.7.367.367,0,0,0,.1-.3c0-.3.3-.4.5-.4.3,0,.4.3.4.5a1.909,1.909,0,0,1-.3.8C32.5,19.5,32.3,19.6,32.2,19.6Z"/>
        <path id="패스_2937" data-name="패스 2937" class="cls-9" d="M26,32.9a.367.367,0,0,1-.3-.1.616.616,0,0,1-.1-.7.367.367,0,0,0,.1-.3c0-.3.3-.4.5-.4.3,0,.4.3.4.5a1.909,1.909,0,0,1-.3.8C26.3,32.9,26.1,32.9,26,32.9Z"/>
        <path id="패스_2938" data-name="패스 2938" class="cls-9" d="M24.8,22.1a.367.367,0,0,1-.3-.1.616.616,0,0,1-.1-.7.367.367,0,0,0,.1-.3c0-.3.3-.4.5-.4.3,0,.4.3.4.5a1.909,1.909,0,0,1-.3.8C25.1,22.1,25,22.1,24.8,22.1Z"/>
        <path id="패스_2939" data-name="패스 2939" class="cls-9" d="M37.6,30.9a.367.367,0,0,1-.3-.1.616.616,0,0,1-.1-.7.367.367,0,0,0,.1-.3c0-.3.3-.4.5-.4.3,0,.4.3.4.5a1.909,1.909,0,0,1-.3.8C37.9,30.8,37.7,30.9,37.6,30.9Z"/>
        <path id="패스_2940" data-name="패스 2940" class="cls-9" d="M35.9,8.1a.367.367,0,0,1-.3-.1.616.616,0,0,1-.1-.7.494.494,0,0,0,.1-.3c0-.3.3-.4.5-.4.3,0,.4.3.4.5a1.909,1.909,0,0,1-.3.8C36.2,8,36,8.1,35.9,8.1Z"/>
        <path id="패스_2941" data-name="패스 2941" class="cls-9" d="M37.6,5.3a.367.367,0,0,1-.3-.1.616.616,0,0,1-.1-.7.367.367,0,0,0,.1-.3c0-.3.3-.5.5-.4.3,0,.4.3.4.5a1.909,1.909,0,0,1-.3.8C37.9,5.2,37.7,5.3,37.6,5.3Z"/>
        <path id="패스_2942" data-name="패스 2942" class="cls-9" d="M34.2,11a.367.367,0,0,1-.3-.1.616.616,0,0,1-.1-.7.367.367,0,0,0,.1-.3c0-.3.3-.5.5-.4.3,0,.4.3.4.5a1.909,1.909,0,0,1-.3.8C34.5,10.9,34.3,11,34.2,11Z"/>
        <path id="패스_2943" data-name="패스 2943" class="cls-9" d="M43.5,15.7c-.1,0-.2,0-.2-.1-.2-.1-.2-.4-.1-.6a.367.367,0,0,0,.1-.3.4.4,0,0,1,.8,0,2.118,2.118,0,0,1-.3.7A.319.319,0,0,1,43.5,15.7Z"/>
        <path id="패스_2944" data-name="패스 2944" class="cls-9" d="M41.6,13.1c-.1,0-.2,0-.2-.1-.2-.1-.2-.4-.1-.6a.367.367,0,0,0,.1-.3.453.453,0,0,1,.9.1,2.118,2.118,0,0,1-.3.7C41.8,13,41.7,13.1,41.6,13.1Z"/>
        <path id="패스_2945" data-name="패스 2945" class="cls-9" d="M46.1,8a.367.367,0,0,1-.3-.1c-.2-.1-.2-.4-.1-.6,0-.1.1-.2.1-.3a.453.453,0,0,1,.9.1,2.118,2.118,0,0,1-.3.7C46.3,7.9,46.2,8,46.1,8Z"/>
        <path id="패스_2946" data-name="패스 2946" class="cls-9" d="M45.8,13.3a.367.367,0,0,1-.3-.1c-.2-.1-.2-.4-.1-.6,0-.1.1-.2.1-.3a.453.453,0,0,1,.9.1,2.118,2.118,0,0,1-.3.7C46,13.2,45.9,13.3,45.8,13.3Z"/>
        <path id="패스_2947" data-name="패스 2947" class="cls-9" d="M47.4,10.4a.367.367,0,0,1-.3-.1c-.2-.1-.2-.4-.1-.6,0-.1.1-.2.1-.3a.453.453,0,0,1,.9.1,2.118,2.118,0,0,1-.3.7C47.6,10.3,47.5,10.4,47.4,10.4Z"/>
        <path id="패스_2948" data-name="패스 2948" class="cls-9" d="M49.3,12.6c-.1,0-.2,0-.2-.1-.2-.1-.2-.4-.1-.6a.367.367,0,0,0,.1-.3.453.453,0,0,1,.9.1,2.118,2.118,0,0,1-.3.7A.52.52,0,0,1,49.3,12.6Z"/>
        <path id="패스_2949" data-name="패스 2949" class="cls-9" d="M48.1,15.9a.367.367,0,0,1-.3-.1c-.2-.1-.2-.4-.1-.6,0-.1.1-.2.1-.3a.453.453,0,0,1,.9.1,2.118,2.118,0,0,1-.3.7C48.3,15.8,48.2,15.9,48.1,15.9Z"/>
        <path id="패스_2950" data-name="패스 2950" class="cls-9" d="M44,10.9a.367.367,0,0,1-.3-.1c-.2-.1-.2-.4-.1-.6a.367.367,0,0,0,.1-.3.453.453,0,0,1,.9.1,2.118,2.118,0,0,1-.3.7C44.2,10.8,44.1,10.9,44,10.9Z"/>
        <path id="패스_2951" data-name="패스 2951" class="cls-9" d="M54.6,3.8a.367.367,0,0,1-.3-.1c-.2-.1-.2-.4-.1-.6a.367.367,0,0,0,.1-.3.453.453,0,0,1,.9.1,2.118,2.118,0,0,1-.3.7C54.8,3.8,54.7,3.8,54.6,3.8Z"/>
        <path id="패스_2952" data-name="패스 2952" class="cls-9" d="M53.3,6.5c-.1,0-.2,0-.2-.1a.348.348,0,0,1-.1-.5c0-.1.1-.2.1-.3a.35.35,0,0,1,.5-.3.458.458,0,0,1,.4.5,2.118,2.118,0,0,1-.3.7Z"/>
        <path id="패스_2953" data-name="패스 2953" class="cls-9" d="M52.1,4.3a.367.367,0,0,1-.3-.1c-.2-.1-.2-.4-.1-.6a.367.367,0,0,0,.1-.3.453.453,0,0,1,.9.1,2.118,2.118,0,0,1-.3.7C52.3,4.3,52.2,4.3,52.1,4.3Z"/>
        <path id="패스_2954" data-name="패스 2954" class="cls-9" d="M55.9,6c-.1,0-.2,0-.2-.1-.2-.1-.2-.4-.1-.6a.367.367,0,0,0,.1-.3.453.453,0,0,1,.9.1,2.118,2.118,0,0,1-.3.7C56.1,5.9,56,6,55.9,6Z"/>
        <path id="패스_2955" data-name="패스 2955" class="cls-9" d="M20.9,13.2a.367.367,0,0,1-.3-.1c-.2-.1-.2-.4-.1-.6a.367.367,0,0,0,.1-.3.453.453,0,1,1,.9.1,2.118,2.118,0,0,1-.3.7C21.1,13.1,21,13.2,20.9,13.2Z"/>
        <path id="패스_2956" data-name="패스 2956" class="cls-9" d="M19.4,15.3c-.1,0-.2,0-.2-.1-.2-.1-.2-.4-.1-.6,0-.1.1-.2.1-.3a.412.412,0,1,1,.8.2,2.118,2.118,0,0,1-.3.7A1.007,1.007,0,0,1,19.4,15.3Z"/>
        <path id="패스_2957" data-name="패스 2957" class="cls-9" d="M22,15.3c-.1,0-.2,0-.2-.1-.2-.1-.2-.4-.1-.6a.367.367,0,0,0,.1-.3.453.453,0,0,1,.9.1,2.118,2.118,0,0,1-.3.7C22.2,15.2,22.1,15.3,22,15.3Z"/>
        <path id="패스_2958" data-name="패스 2958" class="cls-9" d="M38.4,22.1a.367.367,0,0,1-.3-.1.616.616,0,0,1-.1-.7.367.367,0,0,0,.1-.3c0-.3.3-.4.5-.4.3,0,.4.3.4.5a1.909,1.909,0,0,1-.3.8C38.7,22.1,38.5,22.1,38.4,22.1Z"/>
        <path id="패스_2959" data-name="패스 2959" class="cls-9" d="M30.8,23.8a.367.367,0,0,1-.3-.1.616.616,0,0,1-.1-.7.367.367,0,0,0,.1-.3c0-.3.3-.4.5-.4.3,0,.4.3.4.5a1.909,1.909,0,0,1-.3.8C31.1,23.7,31,23.8,30.8,23.8Z"/>
        <path id="패스_2960" data-name="패스 2960" class="cls-9" d="M58.9,16.3a.367.367,0,0,1-.3-.1.616.616,0,0,1-.1-.7.494.494,0,0,0,.1-.3c0-.3.3-.5.5-.4.3,0,.4.3.4.5a1.909,1.909,0,0,1-.3.8C59.2,16.3,59.1,16.3,58.9,16.3Z"/>
        <path id="패스_2961" data-name="패스 2961" class="cls-9" d="M47.4,22.7a.367.367,0,0,1-.3-.1.616.616,0,0,1-.1-.7.494.494,0,0,0,.1-.3c0-.3.3-.5.5-.4.3,0,.5.3.4.5a1.909,1.909,0,0,1-.3.8C47.7,22.6,47.5,22.7,47.4,22.7Z"/>
        <path id="패스_2962" data-name="패스 2962" class="cls-9" d="M57.4,13.3a.367.367,0,0,1-.3-.1.616.616,0,0,1-.1-.7.494.494,0,0,0,.1-.3c0-.3.3-.4.5-.4.3,0,.4.3.4.5a1.909,1.909,0,0,1-.3.8C57.7,13.2,57.6,13.3,57.4,13.3Z"/>
        <path id="패스_2963" data-name="패스 2963" class="cls-9" d="M62.8,10.3a.367.367,0,0,1-.3-.1.616.616,0,0,1-.1-.7.367.367,0,0,0,.1-.3c0-.3.3-.4.5-.4.3,0,.4.3.4.5a1.909,1.909,0,0,1-.3.8C63.1,10.3,63,10.3,62.8,10.3Z"/>
        <path id="패스_2964" data-name="패스 2964" class="cls-9" d="M61,13.2a.367.367,0,0,1-.3-.1.616.616,0,0,1-.1-.7.494.494,0,0,0,.1-.3c0-.3.3-.4.5-.4.3,0,.4.3.4.5a1.909,1.909,0,0,1-.3.8C61.2,13.2,61.1,13.2,61,13.2Z"/>
        <path id="패스_2965" data-name="패스 2965" class="cls-9" d="M59.8,10.3a.367.367,0,0,1-.3-.1.616.616,0,0,1-.1-.7.367.367,0,0,0,.1-.3c0-.3.3-.4.5-.4.3,0,.4.3.4.5a1.909,1.909,0,0,1-.3.8C60.1,10.2,60,10.3,59.8,10.3Z"/>
        <path id="패스_2966" data-name="패스 2966" class="cls-9" d="M64.4,13.1a.367.367,0,0,1-.3-.1.616.616,0,0,1-.1-.7.494.494,0,0,0,.1-.3c0-.3.3-.4.5-.4.3,0,.4.3.4.5a1.909,1.909,0,0,1-.3.8C64.7,13,64.6,13.1,64.4,13.1Z"/>
        <path id="패스_2967" data-name="패스 2967" class="cls-9" d="M62.6,15.8a.367.367,0,0,1-.3-.1.616.616,0,0,1-.1-.7.367.367,0,0,0,.1-.3c0-.3.3-.5.5-.4.3,0,.4.3.4.5a1.909,1.909,0,0,1-.3.8C62.9,15.7,62.8,15.8,62.6,15.8Z"/>
        <path id="패스_2968" data-name="패스 2968" class="cls-9" d="M12.1,23.6a.367.367,0,0,1-.3-.1.616.616,0,0,1-.1-.7.494.494,0,0,0,.1-.3c0-.3.3-.4.5-.4.3,0,.4.3.4.5a1.909,1.909,0,0,1-.3.8C12.4,23.5,12.2,23.6,12.1,23.6Z"/>
        <path id="패스_2969" data-name="패스 2969" class="cls-9" d="M4.4,21a.367.367,0,0,1-.3-.1.616.616,0,0,1-.1-.7.494.494,0,0,0,.1-.3c0-.3.3-.4.5-.4.3,0,.4.3.4.5a1.909,1.909,0,0,1-.3.8C4.7,20.9,4.6,21,4.4,21Z"/>
        <path id="패스_2970" data-name="패스 2970" class="cls-9" d="M16,23.9a.367.367,0,0,1-.3-.1.616.616,0,0,1-.1-.7.367.367,0,0,0,.1-.3c0-.3.3-.4.5-.4.3,0,.4.3.4.5a1.909,1.909,0,0,1-.3.8C16.2,23.8,16.1,23.9,16,23.9Z"/>
        <path id="패스_2971" data-name="패스 2971" class="cls-9" d="M9.9,29.2a.367.367,0,0,1-.3-.1.616.616,0,0,1-.1-.7.367.367,0,0,0,.1-.3c0-.3.3-.4.5-.4.3,0,.4.3.4.5a1.909,1.909,0,0,1-.3.8C10.2,29.2,10,29.2,9.9,29.2Z"/>
        <path id="패스_2972" data-name="패스 2972" class="cls-9" d="M8.8,26a.367.367,0,0,1-.3-.1.616.616,0,0,1-.1-.7.494.494,0,0,0,.1-.3c0-.3.3-.4.5-.4.3,0,.4.3.4.5a1.909,1.909,0,0,1-.3.8C9.1,25.9,9,26,8.8,26Z"/>
        <path id="패스_2973" data-name="패스 2973" class="cls-9" d="M4.3,29.8a.367.367,0,0,1-.3-.1.616.616,0,0,1-.1-.7c.1-.1.1-.3.2-.3,0-.3.3-.4.5-.4.3,0,.4.3.4.5a1.909,1.909,0,0,1-.3.8A.758.758,0,0,1,4.3,29.8Z"/>
        <path id="패스_2974" data-name="패스 2974" class="cls-9" d="M14.6,20.7a.367.367,0,0,1-.3-.1.616.616,0,0,1-.1-.7.367.367,0,0,0,.1-.3c0-.3.3-.4.5-.4.3,0,.4.3.4.5a1.909,1.909,0,0,1-.3.8C14.9,20.6,14.7,20.7,14.6,20.7Z"/>
        <path id="패스_2975" data-name="패스 2975" class="cls-9" d="M7.2,19.6a.367.367,0,0,1-.3-.1.616.616,0,0,1-.1-.7.367.367,0,0,0,.1-.3c0-.3.3-.4.5-.4.3,0,.4.3.4.5a1.909,1.909,0,0,1-.3.8C7.4,19.5,7.3,19.6,7.2,19.6Z"/>
        <path id="패스_2976" data-name="패스 2976" class="cls-9" d="M6.3,23.6a.367.367,0,0,1-.3-.1.616.616,0,0,1-.1-.7.494.494,0,0,0,.1-.3c0-.3.3-.4.5-.4.3,0,.4.3.4.5a1.909,1.909,0,0,1-.3.8C6.6,23.5,6.5,23.6,6.3,23.6Z"/>
        <path id="패스_2977" data-name="패스 2977" class="cls-9" d="M2.5,25.7a.367.367,0,0,1-.3-.1c-.2-.1-.2-.4-.1-.6.1-.1.1-.3.2-.3,0-.3.3-.4.5-.4.3,0,.4.3.4.5a1.909,1.909,0,0,1-.3.8C2.8,25.7,2.7,25.7,2.5,25.7Z"/>
        <path id="패스_2978" data-name="패스 2978" class="cls-9" d="M69.6,21.5a.367.367,0,0,1-.3-.1.616.616,0,0,1-.1-.7.367.367,0,0,0,.1-.3c0-.3.3-.4.5-.4.3,0,.4.3.4.5a1.909,1.909,0,0,1-.3.8C69.9,21.4,69.8,21.5,69.6,21.5Z"/>
        <path id="패스_2979" data-name="패스 2979" class="cls-9" d="M72.7,23.9a.367.367,0,0,1-.3-.1.616.616,0,0,1-.1-.7.367.367,0,0,0,.1-.3c0-.3.3-.5.5-.4.3,0,.4.3.4.5a1.909,1.909,0,0,1-.3.8C73,23.8,72.9,23.9,72.7,23.9Z"/>
        <path id="패스_2980" data-name="패스 2980" class="cls-9" d="M64.7,22.7a.367.367,0,0,1-.3-.1.616.616,0,0,1-.1-.7.367.367,0,0,0,.1-.3c0-.3.3-.4.5-.4.3,0,.4.3.4.5a1.909,1.909,0,0,1-.3.8C64.9,22.6,64.8,22.7,64.7,22.7Z"/>
        <path id="패스_2981" data-name="패스 2981" class="cls-9" d="M65.3,28.5a.367.367,0,0,1-.3-.1.616.616,0,0,1-.1-.7.367.367,0,0,0,.1-.3c0-.3.3-.4.5-.4.3,0,.4.3.4.5a1.909,1.909,0,0,1-.3.8C65.6,28.5,65.4,28.5,65.3,28.5Z"/>
        <path id="패스_2982" data-name="패스 2982" class="cls-9" d="M67.1,26a.367.367,0,0,1-.3-.1.616.616,0,0,1-.1-.7.367.367,0,0,0,.1-.3c0-.3.3-.4.5-.4.3,0,.4.3.4.5a1.909,1.909,0,0,1-.3.8C67.4,25.9,67.3,26,67.1,26Z"/>
        <path id="패스_2983" data-name="패스 2983" class="cls-9" d="M70.2,27.3a.367.367,0,0,1-.3-.1.616.616,0,0,1-.1-.7.367.367,0,0,0,.1-.3c0-.3.3-.4.5-.4.3,0,.4.3.4.5a1.909,1.909,0,0,1-.3.8C70.5,27.2,70.4,27.3,70.2,27.3Z"/>
        <path id="패스_2984" data-name="패스 2984" class="cls-9" d="M55.6,25.5a.367.367,0,0,1-.3-.1.616.616,0,0,1-.1-.7.367.367,0,0,0,.1-.3c0-.3.3-.4.5-.4.3,0,.4.3.4.5a1.909,1.909,0,0,1-.3.8C55.9,25.5,55.8,25.5,55.6,25.5Z"/>
        <path id="패스_2985" data-name="패스 2985" class="cls-9" d="M53.8,28.4a.367.367,0,0,1-.3-.1.616.616,0,0,1-.1-.7c.1-.1.1-.3.2-.3,0-.3.3-.4.5-.4.3,0,.4.3.4.5a1.909,1.909,0,0,1-.3.8C54,28.4,53.9,28.4,53.8,28.4Z"/>
        <path id="패스_2986" data-name="패스 2986" class="cls-9" d="M54.7,31.2a.367.367,0,0,1-.3-.1.616.616,0,0,1-.1-.7.367.367,0,0,0,.1-.3c0-.3.3-.4.5-.4.3,0,.4.3.4.5a1.909,1.909,0,0,1-.3.8C54.9,31.1,54.8,31.2,54.7,31.2Z"/>
        <path id="패스_2987" data-name="패스 2987" class="cls-9" d="M50.3,27.7a.367.367,0,0,1-.3-.1.616.616,0,0,1-.1-.7.367.367,0,0,0,.1-.3c0-.3.3-.4.5-.4.3,0,.4.3.4.5a1.909,1.909,0,0,1-.3.8C50.6,27.7,50.4,27.7,50.3,27.7Z"/>
        <path id="패스_2988" data-name="패스 2988" class="cls-9" d="M51.8,24a.367.367,0,0,1-.3-.1.616.616,0,0,1-.1-.7c.1-.1.1-.3.2-.3,0-.3.3-.4.5-.4.3,0,.4.3.4.5a1.909,1.909,0,0,1-.3.8C52.1,24,52,24,51.8,24Z"/>
        <path id="패스_2989" data-name="패스 2989" class="cls-9" d="M57.2,28.3a.367.367,0,0,1-.3-.1.616.616,0,0,1-.1-.7.494.494,0,0,0,.1-.3c0-.3.3-.4.5-.4.3,0,.4.3.4.5a1.909,1.909,0,0,1-.3.8C57.5,28.2,57.4,28.3,57.2,28.3Z"/>
      </g>
    </g>
    <g id="그룹_579" data-name="그룹 579" transform="translate(1230.022 959.968)">
      <rect id="사각형_223" data-name="사각형 223" class="cls-10" width="32.9" height="1.3" transform="translate(7.698 31.6) rotate(-73.638)"/>
      <path id="패스_2990" data-name="패스 2990" class="cls-8" d="M6.7,13c-.3,1-2,1.4-3.8.8C1,13.3-.2,12.1,0,11.1c.3-1,2-1.4,3.8-.8C5.7,10.8,7,12,6.7,13Z"/>
      <path id="패스_2991" data-name="패스 2991" class="cls-2" d="M13.3,15c-.3,1-2,1.4-3.8.8C7.6,15.3,6.4,14,6.7,13s2-1.4,3.8-.8C12.3,12.7,13.6,14,13.3,15Z"/>
      <path id="패스_2992" data-name="패스 2992" class="cls-8" d="M19.9,16.9c-.3,1-2,1.4-3.8.8C14.3,17.2,13,16,13.3,15s2-1.4,3.8-.8C19,14.7,20.2,15.9,19.9,16.9Z"/>
      <path id="패스_2993" data-name="패스 2993" class="cls-2" d="M26.6,18.9c-.3,1-2,1.4-3.8.8-1.8-.5-3.1-1.8-2.8-2.8s2-1.4,3.8-.8C25.6,16.6,26.8,17.9,26.6,18.9Z"/>
      <g id="그룹_578" data-name="그룹 578">
        <path id="패스_2994" data-name="패스 2994" class="cls-8" d="M0,11.1,13.3,15,17.2,1.7A13.82,13.82,0,0,0,0,11.1Z"/>
        <path id="패스_2995" data-name="패스 2995" class="cls-2" d="M17.2,1.7,13.3,15l13.3,3.9A13.856,13.856,0,0,0,17.2,1.7Z"/>
      </g>
      <path id="패스_2996" data-name="패스 2996" class="cls-2" d="M6.7,13S9.2,3.7,17.2,1.7L13.3,15Z"/>
      <path id="패스_2997" data-name="패스 2997" class="cls-8" d="M19.9,16.9s2.9-9.2-2.7-15.2L13.3,15Z"/>
    </g>
    <g id="그룹_580" data-name="그룹 580" transform="translate(918 962.062)">
      <path id="패스_2998" data-name="패스 2998" class="cls-11" d="M32.2,28.4S33,15.9,17,18.6c0,0-.6,12.4,15.2,9.8"/>
      <path id="패스_2999" data-name="패스 2999" class="cls-11" d="M21,16.5S7,7.6,0,27.8c0,0,14,8.7,21-11.3"/>
      <path id="패스_3000" data-name="패스 3000" class="cls-12" d="M5.8,4.2a14.164,14.164,0,0,1-2,2.2C-3.7,12.5,5.2,22.1,11.3,24c2.4.8,4.4.1,6.9-.5,2.4-.6,5.7.2,7.8-1.1,3.6-2.1,4.8-8.1,4.5-11.7-.4-4.6-3.7-6.4-7.6-7.6a33.514,33.514,0,0,1-5.4-1.6C14.7.3,12.6-1,9.6.9A23.674,23.674,0,0,0,5.8,4.2Z"/>
      <path id="패스_3001" data-name="패스 3001" class="cls-5" d="M20.4,11.4a4.8,4.8,0,1,1-4.8-4.8A4.738,4.738,0,0,1,20.4,11.4Z"/>
      <path id="패스_3002" data-name="패스 3002" class="cls-8" d="M20.3,11a4.4,4.4,0,1,1-4.4-4.4A4.439,4.439,0,0,1,20.3,11Z"/>
    </g>
    <g id="그룹_587" data-name="그룹 587" transform="translate(728 743.851)">
      <path id="패스_3012" data-name="패스 3012" class="cls-8" d="M76.685,23.332a3.028,3.028,0,0,1-3.032,3.032H65.332A3.028,3.028,0,0,1,62.3,23.332h0A3.028,3.028,0,0,1,65.332,20.3h8.257a3.043,3.043,0,0,1,3.1,3.032Z" transform="translate(-22.113 -7.217)"/>
      <path id="패스_3013" data-name="패스 3013" class="cls-8" d="M76.685,56.532a3.028,3.028,0,0,1-3.032,3.032H65.332A3.028,3.028,0,0,1,62.3,56.532h0A3.028,3.028,0,0,1,65.332,53.5h8.257a3.127,3.127,0,0,1,3.1,3.032Z" transform="translate(-22.113 -19.001)"/>
      <path id="패스_3014" data-name="패스 3014" class="cls-2" d="M42.4,32.316,54.979,48.829A4.869,4.869,0,0,0,58.913,50.7c.774,0,1.548.065,2.9.065a4.266,4.266,0,0,0,2.645-.516,2.712,2.712,0,0,0,.774-1.806,7.9,7.9,0,0,0,.129-1.226v-27.8c0-2.129.064-4.322,0-6.515a1.757,1.757,0,0,0-.452-1.29,2.81,2.81,0,0,0-1.871-.71h-4.9a3.349,3.349,0,0,0-2.387,1.484L46.335,23.414Z" transform="translate(-15.05 -3.881)"/>
      <g id="그룹_585" data-name="그룹 585" transform="translate(2.709 -0.034)">
        <path id="패스_3015" data-name="패스 3015" class="cls-5" d="M125.334,2.052C124.56-.141,123.27-.077,121.4-.012a8.452,8.452,0,0,0-3.354.71c-1.29.581-1.935,2-2.516,3.1h0c-.065.065-.065.194-.129.258h10.256A7.591,7.591,0,0,0,125.334,2.052Z" transform="translate(-43.67 0.034)"/>
        <path id="패스_3016" data-name="패스 3016" class="cls-2" d="M57.353,29.3H8.973A31.116,31.116,0,0,0,4.2,32.525a1.884,1.884,0,0,0,.581.129H57.417a1.678,1.678,0,1,0-.065-3.354Z" transform="translate(-4.2 -10.378)"/>
        <path id="패스_3017" data-name="패스 3017" class="cls-2" d="M112.626,10.4c-.387.839-.839,1.677-1.226,2.516h12.256l.258-2.516Z" transform="translate(-42.25 -3.67)"/>
        <path id="패스_3018" data-name="패스 3018" class="cls-8" d="M124.589,9.016l.258-2.387V6.5H114.59c-.452.839-.9,1.677-1.29,2.516Z" transform="translate(-42.924 -2.285)"/>
      </g>
      <path id="패스_3019" data-name="패스 3019" class="cls-5" d="M21.869,31.476a.578.578,0,0,1-.581.581H10.581A.578.578,0,0,1,10,31.476h0a.578.578,0,0,1,.581-.581H21.289c.323-.065.581.258.581.581Z" transform="translate(-3.549 -10.975)"/>
      <path id="패스_3020" data-name="패스 3020" class="cls-5" d="M34.332,31.476a.578.578,0,0,1-.581.581H31.881a.578.578,0,0,1-.581-.581h0a.578.578,0,0,1,.581-.581h1.871c.323-.065.581.258.581.581Z" transform="translate(-11.11 -10.975)"/>
      <path id="패스_3021" data-name="패스 3021" class="cls-5" d="M41.122,31.476a.578.578,0,0,1-.581.581H39.381a.578.578,0,0,1-.581-.581h0a.578.578,0,0,1,.581-.581h1.161c.323-.065.581.258.581.581Z" transform="translate(-13.772 -10.975)"/>
      <path id="패스_3022" data-name="패스 3022" class="cls-5" d="M46.742,31.476a.578.578,0,0,1-.581.581h-.581A.578.578,0,0,1,45,31.476h0a.578.578,0,0,1,.581-.581h.581c.323-.065.581.258.581.581Z" transform="translate(-15.972 -10.975)"/>
      <path id="패스_3023" data-name="패스 3023" class="cls-5" d="M51.226,31.476a.578.578,0,0,1-.581.581h-.065A.578.578,0,0,1,50,31.476h0a.578.578,0,0,1,.581-.581h.065c.323-.065.581.258.581.581Z" transform="translate(-17.747 -10.975)"/>
      <path id="패스_3024" data-name="패스 3024" class="cls-5" d="M55.226,31.476a.578.578,0,0,1-.581.581h-.065A.578.578,0,0,1,54,31.476h0a.578.578,0,0,1,.581-.581h.065c.323-.065.581.258.581.581Z" transform="translate(-19.167 -10.975)"/>
      <path id="패스_3025" data-name="패스 3025" class="cls-5" d="M59.126,31.476a.578.578,0,0,1-.581.581h-.065a.578.578,0,0,1-.581-.581h0a.578.578,0,0,1,.581-.581h.065c.323-.065.581.258.581.581Z" transform="translate(-20.551 -10.975)"/>
      <path id="패스_3026" data-name="패스 3026" class="cls-5" d="M63.126,31.476a.578.578,0,0,1-.581.581h-.065a.578.578,0,0,1-.581-.581h0a.578.578,0,0,1,.581-.581h.065c.323-.065.581.258.581.581Z" transform="translate(-21.971 -10.975)"/>
      <path id="패스_3027" data-name="패스 3027" class="cls-5" d="M67.026,31.476a.578.578,0,0,1-.581.581h-.065a.578.578,0,0,1-.581-.581h0a.578.578,0,0,1,.581-.581h.065c.323-.065.581.258.581.581Z" transform="translate(-23.355 -10.975)"/>
      <path id="패스_3028" data-name="패스 3028" class="cls-5" d="M71.026,31.476a.578.578,0,0,1-.581.581h-.065a.578.578,0,0,1-.581-.581h0a.578.578,0,0,1,.581-.581h.065c.323-.065.581.258.581.581Z" transform="translate(-24.775 -10.975)"/>
      <path id="패스_3029" data-name="패스 3029" class="cls-5" d="M74.926,31.476a.578.578,0,0,1-.581.581h-.065a.578.578,0,0,1-.581-.581h0a.578.578,0,0,1,.581-.581h.065c.323-.065.581.258.581.581Z" transform="translate(-26.159 -10.975)"/>
      <path id="패스_3030" data-name="패스 3030" class="cls-5" d="M78.926,31.476a.578.578,0,0,1-.581.581h-.065a.578.578,0,0,1-.581-.581h0a.578.578,0,0,1,.581-.581h.065c.323-.065.581.258.581.581Z" transform="translate(-27.579 -10.975)"/>
      <path id="패스_3031" data-name="패스 3031" class="cls-5" d="M82.826,31.476a.578.578,0,0,1-.581.581h-.065a.578.578,0,0,1-.581-.581h0a.578.578,0,0,1,.581-.581h.065c.323-.065.581.258.581.581Z" transform="translate(-28.963 -10.975)"/>
      <g id="그룹_586" data-name="그룹 586" transform="translate(0 9.277)">
        <path id="패스_3032" data-name="패스 3032" class="cls-5" d="M81.184,30.526l-.129.839L84.087,14.4H71.83c-.387.774-.774,1.548-1.161,2.258a9.271,9.271,0,0,1-6.773,5.16,2.194,2.194,0,0,1-.645.065H15.323a20.289,20.289,0,0,0-2.838.194,19.5,19.5,0,0,0-4.9,1.935H55.962a1.677,1.677,0,0,1,0,3.354H3.325a1.883,1.883,0,0,1-.581-.129c-.258.194-.516.452-.774.645A4.4,4.4,0,0,0,.1,31.494H80.99C80.99,31.43,81.184,30.591,81.184,30.526Z" transform="translate(-0.035 -14.4)"/>
        <path id="패스_3033" data-name="패스 3033" class="cls-8" d="M4.58,45.609H71.795c2.774,0,8.644-2,9.1-4.709H0v.065A4.612,4.612,0,0,0,4.58,45.609Z" transform="translate(0 -23.806)"/>
      </g>
      <path id="패스_3034" data-name="패스 3034" class="cls-2" d="M121.81,19.1h3.161a2.7,2.7,0,0,1,2.387,2.9v2.451a1.513,1.513,0,0,1-1.226,1.419,2.4,2.4,0,0,1-1.161-.129c-.516-.194-1.032-.452-1.548-.645-1.29-.581-2.516-1.1-3.806-1.677-1.032-.452-2.387-.774-2.967-1.806a2.1,2.1,0,0,1-.258-.839,1.219,1.219,0,0,1,.581-1.355,3.147,3.147,0,0,1,1.548-.258h3.29Z" transform="translate(-41.307 -6.791)"/>
    </g>
    <g id="그룹_588" data-name="그룹 588" transform="translate(634.931 802)">
      <path id="패스_2439-2" data-name="패스 2439" class="cls-6" d="M52.8,9.8c-1.7,3-6.5,4.6-10.2,2.5-5.2-2.8-2.6-9-.3-10.9,5.5-4.5,13.6,2.8,10.5,8.4"/>
      <path id="패스_2440-2" data-name="패스 2440" class="cls-6" d="M64.6,9.8c-1.7,3-6.5,4.6-10.2,2.5-5.2-2.8-2.6-9-.3-10.9,5.5-4.5,13.6,2.8,10.5,8.4"/>
    </g>
  </g>
</svg>
