<svg xmlns="http://www.w3.org/2000/svg" viewBox="0 0 1200 522">
  <defs>
    <style>
      .cls-1 {
        fill: rgba(255,254,240,0);
      }

      .cls-2 {
        fill: #74c6be;
      }

      .cls-3 {
        fill: #f2e9b6;
      }

      .cls-4 {
        fill: #727171;
      }

      .cls-5 {
        fill: #fff;
      }

      .cls-6 {
        fill: #bce2e3;
      }

      .cls-7 {
        fill: #f5ecd3;
      }

      .cls-8 {
        fill: #fdd35c;
      }

      .cls-9 {
        fill: #fbf6d2;
      }

      .cls-10 {
        fill: #4d4d4d;
      }

      .cls-11 {
        fill: #64c0ab;
      }

      .cls-12 {
        fill: #ea5541;
      }
    </style>
  </defs>
  <g id="그룹_673" data-name="그룹 673" transform="translate(-100.233 -651)">
    <path id="패스_3035" data-name="패스 3035" class="cls-1" d="M0,0H1200V522H0Z" transform="translate(100.233 651)"/>
    <path id="패스_2891" data-name="패스 2891" class="cls-2" d="M500.951.2c-16.875.1-31.641.408-46.407.611C294.23,3.872,23.3,9.678-12.562,18.135c-35.86,8.354,70.245,32.1,217.9,34.342,906.631,1.334,681.091,13.55,778.123,0,6.953-.976,157.546-3.151,149.48-34.342-14.89-4.333-69.817-1.04-189.02-7.437C838.453,4.89,663.373-1.222,500.951.2Z" transform="translate(132.691 975.494)"/>
    <path id="패스_2890" data-name="패스 2890" class="cls-3" d="M502.181.1c-16.916.053-31.718.214-46.519.32C294.958,2.027,39.1,7.742,3.154,12.176c-35.947,4.38,54.681,14.159,202.7,15.334,908.836.7,682.748,7.1,780.016,0,6.969-.512,148.027,1.019,139.941-15.334-14.926-2.272-60.084-3.216-179.578-6.57C840.5,2.561,665-.644,502.181.1Z" transform="translate(128.947 977.494)"/>
    <g id="그룹_584" data-name="그룹 584" transform="translate(585.156 914.461)">
      <g id="그룹_581" data-name="그룹 581" transform="translate(0.043 0.012)">
        <path id="패스_3003" data-name="패스 3003" class="cls-4" d="M198.431,64.377a4.462,4.462,0,0,0-1.172-3.515c-2.409-3.125-5.729-3.971-9.114-5.794-5.663-2.994-6.38-2.864-12.434-5.078-2.278-.846-4.687-1.627-6.9-2.6a40.333,40.333,0,0,1-14.386-10.871c-4.947-5.989-14.256-10.546-20.441-15.3a44.52,44.52,0,0,0-9.83-6.184c-3.255-1.3-2.278-1.758-5.4-3.19-2.669-1.237-3.776-3.125-6.38-4.492C99.874.843,85.1,2.6,73.575,10.217,68.3,13.732,64.005,18.093,59.449,22.65,54.7,27.4,47.926,33.912,42.979,38.534c-4.947,4.557-12.043,7.291-18.032,10.09-6.965,3.32-14.191,6.77-19.92,11.913C3.4,61.969-1.157,64.768.34,67.242c2.539,4.166,13.931,3.58,17.9,3.906,22.589,1.888,45.7,2.669,68.352,2.669,20.506,0,41.206,0,61.712-1.367,8.918-.586,17.837-.846,26.755-1.823C178.381,70.236,197.129,69.976,198.431,64.377Z" transform="translate(-0.043 -1.176)"/>
        <path id="패스_3004" data-name="패스 3004" class="cls-2" d="M89.4,22.723c-.26.325,9.634,3.711,15.623-4.622,0,0,1.107-4.362,5.273,1.758,0,0,2.6,4.231,8.723.13,0,0,2.409-4.687,7.356-.911,0,0,7.551,6.119,10.35-2.474,0,0,2.083-4.362,10.806,3.45,0,0,4.622,5.338,7.681-1.823,0,0,.716-3.776,9.83,1.823A60.758,60.758,0,0,0,151.7,10.68c-1.367-.651-3.841-2.018-5.143-2.734-2.213-1.367-4.1-3.125-6.314-4.492A23.635,23.635,0,0,0,133.4,1.111a28.5,28.5,0,0,0-16.339.2c-3.58,1.237-4.557,3.255-7.877,5.078-2.734,1.5-5.078,2.6-7.681,4.362-2.994,1.953-5.012,4.557-7.551,7.03A55.451,55.451,0,0,0,89.4,22.723Z" transform="translate(-31.228 -0.012)"/>
      </g>
      <g id="그룹_582" data-name="그룹 582" transform="translate(41.237 28.764)">
        <path id="패스_3005" data-name="패스 3005" class="cls-5" d="M75.742,53.371c-1.562,2.864-6.054,4.3-9.569,2.409-4.882-2.669-2.474-8.463-.26-10.22,5.143-4.362,12.694,2.539,9.83,7.812" transform="translate(-63.323 -44.179)"/>
        <path id="패스_3006" data-name="패스 3006" class="cls-5" d="M91.642,53.371c-1.562,2.864-6.054,4.3-9.569,2.409-4.882-2.669-2.474-8.463-.26-10.22,5.078-4.362,12.694,2.539,9.83,7.812" transform="translate(-68.873 -44.179)"/>
        <path id="패스_3007" data-name="패스 3007" class="cls-5" d="M107.842,53.371c-1.562,2.864-6.054,4.3-9.569,2.409-4.882-2.669-2.474-8.463-.26-10.22,5.143-4.362,12.694,2.539,9.83,7.812" transform="translate(-74.527 -44.179)"/>
      </g>
      <g id="그룹_583" data-name="그룹 583" transform="translate(113.775 24.884)">
        <path id="패스_3008" data-name="패스 3008" class="cls-5" d="M187.088,47.385c-1.562,2.8-6.054,4.3-9.5,2.409-4.882-2.669-2.409-8.4-.26-10.22,5.078-4.3,12.629,2.539,9.765,7.812" transform="translate(-174.755 -38.219)"/>
        <path id="패스_3009" data-name="패스 3009" class="cls-5" d="M204.088,47.385c-1.562,2.8-6.054,4.3-9.5,2.409-4.882-2.669-2.409-8.4-.26-10.22,5.012-4.3,12.564,2.539,9.765,7.812" transform="translate(-180.688 -38.219)"/>
        <path id="패스_3010" data-name="패스 3010" class="cls-5" d="M220.977,47.385c-1.562,2.8-6.054,4.3-9.5,2.409-4.882-2.669-2.474-8.4-.26-10.22,5.078-4.3,12.629,2.539,9.765,7.812" transform="translate(-186.576 -38.219)"/>
        <path id="패스_3011" data-name="패스 3011" class="cls-5" d="M238.977,47.385c-1.562,2.8-6.054,4.3-9.5,2.409-4.882-2.669-2.474-8.4-.26-10.22,5.078-4.3,12.629,2.539,9.765,7.812" transform="translate(-192.858 -38.219)"/>
      </g>
    </g>
    <g id="그룹_461" data-name="그룹 461" transform="translate(1025.931 825)">
      <g id="그룹_459" data-name="그룹 459">
        <path id="패스_2427" data-name="패스 2427" class="cls-6" d="M13.3,26.1c-1.7,3-6.5,4.6-10.2,2.6-5.2-2.8-2.6-9-.3-10.9,5.4-4.7,13.5,2.7,10.5,8.3"/>
        <path id="패스_2428" data-name="패스 2428" class="cls-6" d="M25.1,26.1c-1.7,3-6.5,4.6-10.2,2.6-5.2-2.8-2.6-9-.3-10.9,5.4-4.7,13.5,2.7,10.5,8.3"/>
        <path id="패스_2429" data-name="패스 2429" class="cls-6" d="M36.9,26.1c-1.7,3-6.5,4.6-10.2,2.6-5.2-2.8-2.6-9-.3-10.9,5.4-4.7,13.5,2.7,10.5,8.3"/>
        <path id="패스_2430" data-name="패스 2430" class="cls-6" d="M16.7,36.6l-.2.2a.791.791,0,0,1-1.2-.9,4.177,4.177,0,0,1,1.1-1.5,17.383,17.383,0,0,0,1.3-1.5c-.1.1,0,.4,0,.5a5.853,5.853,0,0,1-.2,1.3,5.449,5.449,0,0,1-.8,1.9"/>
        <path id="패스_2431" data-name="패스 2431" class="cls-6" d="M25.9,32.8c-1.1.9-2.5,1.7-2.4,3.3a1.4,1.4,0,0,0,.9,1.2c1.3.1,1.3-2.2,1.3-2.9-.1-.4-.1-1.4.2-1.6"/>
        <path id="패스_2432" data-name="패스 2432" class="cls-6" d="M7.6,33.2c0-.3-2.5,2.7-2.6,3.1-.4,1.1,1.5,1.2,2,.5.4-.6.4-2.1.6-3.6"/>
        <path id="패스_2433" data-name="패스 2433" class="cls-6" d="M22.8,45.7c-.1.1-.1.2-.2.2a.734.734,0,0,1-1.3-.6,3.63,3.63,0,0,1,.7-1.7,16.179,16.179,0,0,0,1-1.8c0,.1.1.4.1.5a5.7,5.7,0,0,1,.1,1.3,7.117,7.117,0,0,1-.4,2.1"/>
        <path id="패스_2434" data-name="패스 2434" class="cls-6" d="M5,40.9c-1.2.8-2.6,1.5-2.6,3.1,0,.4.4,1.2.8,1.2,1.2.2,1.4-2.1,1.5-2.8,0-.2,0-1.3.3-1.5"/>
        <path id="패스_2435" data-name="패스 2435" class="cls-6" d="M14.3,41.9a16.793,16.793,0,0,0-2.1,3.5c-.2,1.2,1.6.9,2,.2.4-.8.2-2.3.1-3.7"/>
        <path id="패스_2436" data-name="패스 2436" class="cls-6" d="M1.5,52.5l-.2.2a.791.791,0,0,1-1.2-.9,4.177,4.177,0,0,1,1.1-1.5,17.383,17.383,0,0,0,1.3-1.5c-.1.1,0,.4,0,.5a5.853,5.853,0,0,1-.2,1.3,4.552,4.552,0,0,1-.8,1.9"/>
        <path id="패스_2437" data-name="패스 2437" class="cls-6" d="M21.7,49.4c-1.2.7-2.7,1.4-2.8,3,0,.4.3,1.2.7,1.3,1.2.2,1.5-2,1.6-2.7.1-.3.2-1.4.5-1.6"/>
        <path id="패스_2438" data-name="패스 2438" class="cls-6" d="M12.3,49.1c0-.3-2.4,2.8-2.5,3.2-.4,1.1,1.5,1.1,2,.4a11.066,11.066,0,0,0,.5-3.6"/>
      </g>
      <g id="그룹_460" data-name="그룹 460">
        <path id="패스_2439" data-name="패스 2439" class="cls-6" d="M52.8,9.8c-1.7,3-6.5,4.6-10.2,2.5-5.2-2.8-2.6-9-.3-10.9,5.5-4.5,13.6,2.8,10.5,8.4"/>
        <path id="패스_2440" data-name="패스 2440" class="cls-6" d="M64.6,9.8c-1.7,3-6.5,4.6-10.2,2.5-5.2-2.8-2.6-9-.3-10.9,5.5-4.5,13.6,2.8,10.5,8.4"/>
      </g>
    </g>
    <g id="그룹_488" data-name="그룹 488" transform="translate(434.807 825)">
      <g id="그룹_486" data-name="그룹 486">
        <path id="패스_2636" data-name="패스 2636" class="cls-6" d="M42.4,20.6a.9.9,0,0,0,.5-.1,10.76,10.76,0,0,0,5.7-7.7,10.987,10.987,0,0,0-3.2-9.4A10.987,10.987,0,0,0,37.5,0h0a11.113,11.113,0,0,0-7.6,3.2A9.074,9.074,0,0,0,27,10.1a9.633,9.633,0,0,0,3.1,6.8,7.748,7.748,0,0,0,10.6-.4,6.423,6.423,0,0,0,2-4.4,6.029,6.029,0,0,0-1.8-4.5A5.347,5.347,0,0,0,36.8,6a4.6,4.6,0,0,0-3.6,1.7,4.279,4.279,0,0,0-.7,3.5,3.575,3.575,0,0,0,2.1,2.5,1.158,1.158,0,0,0,1.4-.6,1.158,1.158,0,0,0-.6-1.4,1.622,1.622,0,0,1-.9-1.1A1.579,1.579,0,0,1,34.8,9a3.215,3.215,0,0,1,2.1-1,3.541,3.541,0,0,1,2.6,1,4,4,0,0,1,1.2,2.9,4.22,4.22,0,0,1-1.4,3,5.592,5.592,0,0,1-7.7.3,6.968,6.968,0,0,1-2.4-5.3,7.009,7.009,0,0,1,2.1-5.3A8.483,8.483,0,0,1,37.4,2h0a8.96,8.96,0,0,1,6.4,2.8,8.686,8.686,0,0,1,2.6,7.6,8.305,8.305,0,0,1-4.5,6.1,1.15,1.15,0,0,0-.5,1.4A1.041,1.041,0,0,0,42.4,20.6Z"/>
      </g>
      <g id="그룹_487" data-name="그룹 487">
        <path id="패스_2637" data-name="패스 2637" class="cls-6" d="M15.4,37.8a.9.9,0,0,0,.5-.1A10.76,10.76,0,0,0,21.6,30a10.987,10.987,0,0,0-3.2-9.4,10.987,10.987,0,0,0-7.9-3.4h0a11.113,11.113,0,0,0-7.6,3.2A9.266,9.266,0,0,0,.2,27.3a9.633,9.633,0,0,0,3.1,6.8,7.748,7.748,0,0,0,10.6-.4,6.423,6.423,0,0,0,2-4.4,6.029,6.029,0,0,0-1.8-4.5A5.347,5.347,0,0,0,10,23.2a4.6,4.6,0,0,0-3.6,1.7,4.279,4.279,0,0,0-.7,3.5,3.575,3.575,0,0,0,2.1,2.5,1.077,1.077,0,0,0,.8-2,1.622,1.622,0,0,1-.9-1.1A1.579,1.579,0,0,1,8,26.2a3.215,3.215,0,0,1,2.1-1,3.541,3.541,0,0,1,2.6,1,4,4,0,0,1,1.2,2.9,4.22,4.22,0,0,1-1.4,3,5.592,5.592,0,0,1-7.7.3,6.968,6.968,0,0,1-2.4-5.3,7.009,7.009,0,0,1,2.1-5.3,8.483,8.483,0,0,1,6.1-2.6h0A8.96,8.96,0,0,1,17,22a8.686,8.686,0,0,1,2.6,7.6,8.305,8.305,0,0,1-4.5,6.1,1.15,1.15,0,0,0-.5,1.4A.709.709,0,0,0,15.4,37.8Z"/>
      </g>
    </g>
    <g id="그룹_571" data-name="그룹 571" transform="translate(960.01 940.017)">
      <path id="패스_2892" data-name="패스 2892" class="cls-6" d="M9.5,28a24.153,24.153,0,0,1-5.4,7.6c-1.5,1.3-4.3,2.7-4.1,5,.5,5,11.9,4.1,15,4.1,6,0,12,0,18,.1,6.1,0,13.8,2,19.4-1,5.8-3.1-2.2-8.4-3.4-12C46.3,23.7,40,13,29.6,12.4c-6.4-.3-11.7,1-15.4,6.4A66.658,66.658,0,0,0,9.5,28Z"/>
      <path id="패스_2893" data-name="패스 2893" class="cls-2" d="M47.5,22.8a26.55,26.55,0,0,1-6.3,10.1c-1.9,1.8-12.4,7.6-6.6,10.7,4,2.1,10.2,1.7,14.6,1.8,1.8.1,3.7,0,5.5,0,13.7,0,27.3.1,41,0,6.3-.1,22-.9,9.9-10.4-7.1-5.5-4.2-16.6-8.5-23.7C92.3,3.4,83.4-.3,74.3,0,58.9.6,52.6,8.9,47.5,22.8Z"/>
    </g>
    <g id="그룹_574" data-name="그룹 574" transform="translate(369.002 912.476)">
      <path id="패스_2894" data-name="패스 2894" class="cls-5" d="M35.128,30.833a1.882,1.882,0,1,0,.927,2.495A1.906,1.906,0,0,0,35.128,30.833Z" transform="translate(-9.327 -8.81)"/>
      <path id="패스_2895" data-name="패스 2895" class="cls-7" d="M44.064,41.863c-3.635-4.775-5.06-5.274-5.417-4.989s-.214,1.782,3.421,6.557c1.711,2.209,3.849,4.7,5.631,6.7l1.354-1.069A81.1,81.1,0,0,0,44.064,41.863Z" transform="translate(-11.065 -10.575)"/>
      <path id="패스_2896" data-name="패스 2896" class="cls-7" d="M33.58,38.7c-.855,0-2.138,13.186-2.78,26.514h5.346C35.647,51.886,34.435,38.7,33.58,38.7Z" transform="translate(-8.848 -11.118)"/>
      <path id="패스_2897" data-name="패스 2897" class="cls-7" d="M30.4,85.257h5.987c-.071-2.138-.143-4.348-.214-6.557H30.614C30.543,80.838,30.471,83.119,30.4,85.257Z" transform="translate(-8.733 -22.608)"/>
      <path id="패스_2898" data-name="패스 2898" class="cls-7" d="M38.9,14.64c-2.352,5.488-2.138,6.985-1.711,7.2s1.639-.641,4.063-6.2c1.069-2.566,2.209-5.631,3.136-8.2L42.822,6.8C41.468,9.152,40.042,12.074,38.9,14.64Z" transform="translate(-10.607 -1.954)"/>
      <path id="패스_2899" data-name="패스 2899" class="cls-7" d="M16.481,36.425c5.916-1.14,6.985-2.209,6.914-2.637s-1.5-1-7.341.143c-2.708.5-5.916,1.354-8.553,2.067l.356,1.711C10.494,37.423,13.772,36.924,16.481,36.425Z" transform="translate(-2.155 -9.555)"/>
      <g id="그룹_573" data-name="그룹 573" transform="translate(-0.002 -0.003)">
        <g id="그룹_572" data-name="그룹 572">
          <path id="패스_2900" data-name="패스 2900" class="cls-8" d="M39.039,99.814V97.248A4.32,4.32,0,0,0,34.691,92.9H28.348A4.32,4.32,0,0,0,24,97.248v2.495H39.039Z" transform="translate(-6.893 -26.685)"/>
          <path id="패스_2901" data-name="패스 2901" class="cls-8" d="M55.463,58.889c.214-.143-1-2.281-2.708-4.989L51.4,54.969C53.538,57.321,55.32,59.032,55.463,58.889Z" transform="translate(-14.764 -15.482)"/>
          <path id="패스_2902" data-name="패스 2902" class="cls-8" d="M30.3,93.673h6.13c0-1.853,0-3.778-.071-5.773H30.371C30.3,89.9,30.3,91.82,30.3,93.673Z" transform="translate(-8.702 -25.248)"/>
          <path id="패스_2903" data-name="패스 2903" class="cls-8" d="M30.771,75.8c0,.641-.071,1.354-.071,2h5.559c0-.641-.071-1.354-.071-2Z" transform="translate(-8.817 -21.773)"/>
          <path id="패스_2904" data-name="패스 2904" class="cls-8" d="M48.194,0c-.214-.071-1.5,2-2.994,4.775l1.568.641C47.766,2.423,48.407.071,48.194,0Z" transform="translate(-12.983 0.003)"/>
          <path id="패스_2905" data-name="패스 2905" class="cls-8" d="M0,39.024c.071.214,2.495.143,5.631-.214L5.274,37.1C2.28,37.955-.072,38.739,0,39.024Z" transform="translate(0.002 -10.656)"/>
        </g>
        <path id="패스_2906" data-name="패스 2906" class="cls-8" d="M35.05,32.067a.973.973,0,1,0,.5,1.283A.967.967,0,0,0,35.05,32.067Z" transform="translate(-9.675 -9.186)"/>
      </g>
    </g>
    <g id="그룹_577" data-name="그룹 577" transform="translate(328.009 961.727)">
      <g id="그룹_575" data-name="그룹 575" transform="translate(-0.009 -0.039)">
        <path id="패스_2907" data-name="패스 2907" class="cls-4" d="M28.253,15.8h-.3c-.835.076-1.67,0-2.506.076-1.67.152-3.037,1.367-4.252,2.581a4.075,4.075,0,0,0-1.139,2.885,7.418,7.418,0,0,1-.911,3.644,5.556,5.556,0,0,0-.076,2.506,6.281,6.281,0,0,0,.683,1.215,5.349,5.349,0,0,0,3.72,2.354,12.411,12.411,0,0,0,4.1-.152s12.68.228,10.174-10.4c-.152-.759-1.519-1.291-2.05-1.9A6.4,6.4,0,0,0,30.607,16.1C29.772,16.028,29.089,15.8,28.253,15.8Z" transform="translate(-4.558 -3.774)"/>
        <path id="패스_2908" data-name="패스 2908" class="cls-4" d="M10.973,9.908c1.215,1.67,3.113-.076,5.315-1.215,1.9-.987,4.024-3.872,2.43-5.315-.531-.531-2.581-.38-3.644-.3C13.63,3.3,13.023,3,12.187,3.53A7,7,0,0,0,9.91,6.188a2.746,2.746,0,0,0-.531,2.126C9.53,9.149,10.517,9.3,10.973,9.908Z" transform="translate(-2.234 -0.691)"/>
        <path id="패스_2909" data-name="패스 2909" class="cls-4" d="M56.163,15c1.443,1.974,3.72-.076,6.378-1.443,2.278-1.139,1.822-3.644-.076-5.391a3.966,3.966,0,0,0-4.935-.835,7.992,7.992,0,0,0-3.037,6.226C54.645,14.013,55.936,14.7,56.163,15Z" transform="translate(-13.107 -1.608)"/>
        <path id="패스_2910" data-name="패스 2910" class="cls-4" d="M12.905,17.478c-1.746-.911-5.846-2.657-6.985-2.2A21,21,0,0,0,1.82,17.4c-1.063.683-.683,3.113-1.443,4.024s-.3,3.568.531,4.707c1.139,1.594,5.543,2.126,6.833,1.67,2.809-.987,5.543-4.4,6.53-7.593C14.651,18.921,13.968,18.086,12.905,17.478Z" transform="translate(0.009 -3.63)"/>
        <path id="패스_2911" data-name="패스 2911" class="cls-4" d="M54.691,28.461c.456-1.594,1.974-4.024,1.443-4.935a18,18,0,0,0-2.43-2.961c-.759-.683-2.657,0-3.568-.531-.911-.456-3.493-.911-4.252,0-1.139,1.215.683,3.8,1.291,4.783,1.291,2.126,2.809,5.011,5.618,5.239A2.014,2.014,0,0,0,54.691,28.461Z" transform="translate(-10.951 -4.666)"/>
        <path id="패스_2912" data-name="패스 2912" class="cls-4" d="M34.753,1.556C33.234,1.176,31.336.037,30.5.645c-.987.683-4.783,1.519-5.618,2.354-.456.456-.3,1.291-.3,1.9a9.949,9.949,0,0,0,0,2.126,3.307,3.307,0,0,0,1.215,1.67c1.215,1.063,2.126,1.822,3.872,1.746A7.887,7.887,0,0,0,33.158,9.6c2.05-1.291,2.885-3.493,3.113-6.15C36.423,2.391,35.74,1.783,34.753,1.556Z" transform="translate(-5.894 -0.083)"/>
        <path id="패스_2913" data-name="패스 2913" class="cls-4" d="M69.808,17.52c-1.67-.076-4.252-.607-5.011.152-.911.911-2.961,1.822-3.644,2.885-.531.835.531,2.581.3,3.568s1.063,3.037,2.05,3.644c1.443.835,5.011-.759,5.846-1.519a8.333,8.333,0,0,0,2.43-7.137C71.63,17.976,70.795,17.6,69.808,17.52Z" transform="translate(-14.679 -4.127)"/>
        <path id="패스_2914" data-name="패스 2914" class="cls-4" d="M48.965,12.143s.759,2.43-2.126,2.126a9.008,9.008,0,0,0-3.189.076,3.577,3.577,0,0,1-2.657-.076,3.381,3.381,0,0,1-1.9-3.037c-.152-1.367.759-2.2,1.67-2.961a3.738,3.738,0,0,0,.759-1.139c.531-.987,1.67-2.657,2.885-2.733.911-.076,1.519.759,1.974,1.519.835.987,2.126,1.746,2.43,3.113C48.965,10.017,48.661,11.232,48.965,12.143Z" transform="translate(-9.401 -1.028)"/>
        <path id="패스_2915" data-name="패스 2915" class="cls-4" d="M43.619,2.648c.3-.228.607-.3.835-.683A.923.923,0,0,0,44.53.9a3.406,3.406,0,0,0-.987-.759A1.886,1.886,0,0,0,42.1.066c-.3.076-1.291.076-1.443.38-.456.607.38,2.126.683,2.278a1.83,1.83,0,0,0,1.139.3A1.38,1.38,0,0,0,43.543,2.8C43.543,2.724,43.619,2.724,43.619,2.648Z" transform="translate(-9.749 0.039)"/>
        <path id="패스_2916" data-name="패스 2916" class="cls-4" d="M17.031,12.343a2.223,2.223,0,0,0-.531,1.215,1.012,1.012,0,0,0,.759,1.063c.607.152,1.822,1.367,2.506,1.291a4.782,4.782,0,0,0,2.05-.759,7.307,7.307,0,0,0,1.215-2.43c.076-.835-2.354-1.822-2.809-1.822a4.887,4.887,0,0,0-1.822.38c-.607.228-.987.3-1.215.835C17.107,12.191,17.107,12.267,17.031,12.343Z" transform="translate(-3.965 -2.594)"/>
        <path id="패스_2917" data-name="패스 2917" class="cls-4" d="M50.617,2.219c-.3.3-.683.531-.835.987a.924.924,0,0,0,.531,1.215c.607.3,1.443,1.822,2.05,1.9a4.4,4.4,0,0,0,2.2-.228,6.907,6.907,0,0,0,1.746-2.126c.3-.835-1.822-2.354-2.278-2.506a5.328,5.328,0,0,0-1.9-.076c-.607.076-.987.076-1.367.531C50.693,2.143,50.617,2.143,50.617,2.219Z" transform="translate(-11.964 -0.291)"/>
      </g>
      <g id="그룹_576" data-name="그룹 576" transform="translate(1.542 0.502)">
        <path id="패스_2918" data-name="패스 2918" class="cls-9" d="M30.488,10.739a.279.279,0,0,1-.228-.076.468.468,0,0,1-.076-.531A.375.375,0,0,0,30.26,9.9c0-.228.228-.3.38-.3.228,0,.3.228.3.38a1.45,1.45,0,0,1-.228.607C30.716,10.739,30.564,10.739,30.488,10.739Z" transform="translate(-8.799 -2.822)"/>
        <path id="패스_2919" data-name="패스 2919" class="cls-9" d="M28.088,7.339a.279.279,0,0,1-.228-.076.468.468,0,0,1-.076-.531c.076,0,.152-.152.152-.228,0-.228.228-.3.38-.3.228,0,.3.228.3.38a1.45,1.45,0,0,1-.228.607A.3.3,0,0,1,28.088,7.339Z" transform="translate(-8.221 -2.004)"/>
        <path id="패스_2920" data-name="패스 2920" class="cls-9" d="M34.188,4.639a.279.279,0,0,1-.228-.076.468.468,0,0,1-.076-.531c.076,0,.152-.152.152-.228,0-.228.228-.3.38-.3.228,0,.3.228.3.38a1.45,1.45,0,0,1-.228.607A.576.576,0,0,1,34.188,4.639Z" transform="translate(-9.69 -1.354)"/>
        <path id="패스_2921" data-name="패스 2921" class="cls-9" d="M43.812,2.739c-.076,0-.152,0-.152-.076-.152-.076-.152-.3-.076-.456.076-.076.076-.228.152-.3a.327.327,0,0,1,.3-.3c.152,0,.3.152.228.3a1.45,1.45,0,0,1-.228.607C43.964,2.739,43.888,2.739,43.812,2.739Z" transform="translate(-12.025 -0.896)"/>
        <path id="패스_2922" data-name="패스 2922" class="cls-9" d="M42.212,1.757c-.076,0-.152,0-.152-.076-.152-.076-.152-.3-.076-.456.076-.076.076-.228.152-.3,0-.152.152-.3.3-.228.152,0,.3.152.228.3a1.45,1.45,0,0,1-.228.607C42.364,1.681,42.288,1.757,42.212,1.757Z" transform="translate(-11.64 -0.673)"/>
        <path id="패스_2923" data-name="패스 2923" class="cls-9" d="M31.988,7.639a.279.279,0,0,1-.228-.076.468.468,0,0,1-.076-.531A.279.279,0,0,0,31.76,6.8c0-.228.228-.3.38-.3.228,0,.3.228.3.38a1.45,1.45,0,0,1-.228.607C32.216,7.639,32.064,7.639,31.988,7.639Z" transform="translate(-9.16 -2.076)"/>
        <path id="패스_2924" data-name="패스 2924" class="cls-9" d="M30.588,4.439a.279.279,0,0,1-.228-.076.468.468,0,0,1-.076-.531A.279.279,0,0,0,30.36,3.6c0-.228.228-.3.38-.3.228,0,.3.228.3.38a1.45,1.45,0,0,1-.228.607C30.816,4.439,30.74,4.439,30.588,4.439Z" transform="translate(-8.823 -1.306)"/>
        <path id="패스_2925" data-name="패스 2925" class="cls-9" d="M14.288,10.533a.279.279,0,0,1-.228-.076.468.468,0,0,1-.076-.531A.375.375,0,0,0,14.06,9.7c0-.228.228-.38.38-.3.228,0,.38.228.3.38a1.45,1.45,0,0,1-.228.607C14.44,10.533,14.364,10.533,14.288,10.533Z" transform="translate(-4.899 -2.768)"/>
        <path id="패스_2926" data-name="패스 2926" class="cls-9" d="M12.288,7.939a.279.279,0,0,1-.228-.076.468.468,0,0,1-.076-.531A.279.279,0,0,0,12.06,7.1c0-.228.228-.3.38-.3.228,0,.3.228.3.38a1.45,1.45,0,0,1-.228.607C12.516,7.863,12.44,7.939,12.288,7.939Z" transform="translate(-4.418 -2.148)"/>
        <path id="패스_2927" data-name="패스 2927" class="cls-9" d="M15.588,5.939a.279.279,0,0,1-.228-.076.468.468,0,0,1-.076-.531A.279.279,0,0,0,15.36,5.1c0-.228.228-.3.38-.3.228,0,.3.228.3.38a1.45,1.45,0,0,1-.228.607C15.816,5.863,15.74,5.939,15.588,5.939Z" transform="translate(-5.212 -1.667)"/>
        <path id="패스_2928" data-name="패스 2928" class="cls-9" d="M19.788,6.439a.279.279,0,0,1-.228-.076.468.468,0,0,1-.076-.531A.279.279,0,0,0,19.56,5.6c0-.228.228-.3.38-.3.228,0,.3.228.3.38a1.45,1.45,0,0,1-.228.607C19.94,6.439,19.864,6.439,19.788,6.439Z" transform="translate(-6.223 -1.787)"/>
        <path id="패스_2929" data-name="패스 2929" class="cls-9" d="M17.088,8.539a.279.279,0,0,1-.228-.076.468.468,0,0,1-.076-.531A.279.279,0,0,0,16.86,7.7c0-.228.228-.3.38-.3.228,0,.3.228.3.38a1.45,1.45,0,0,1-.228.607C17.24,8.539,17.164,8.539,17.088,8.539Z" transform="translate(-5.573 -2.293)"/>
        <path id="패스_2930" data-name="패스 2930" class="cls-9" d="M37.388,25.639a.279.279,0,0,1-.228-.076.468.468,0,0,1-.076-.531.279.279,0,0,0,.076-.228c0-.228.228-.3.38-.3.228,0,.3.228.3.38a1.45,1.45,0,0,1-.228.607C37.616,25.563,37.464,25.639,37.388,25.639Z" transform="translate(-10.46 -6.41)"/>
        <path id="패스_2931" data-name="패스 2931" class="cls-9" d="M22.688,30.239a.279.279,0,0,1-.228-.076.468.468,0,0,1-.076-.531.279.279,0,0,0,.076-.228c0-.228.228-.3.38-.3.228,0,.3.228.3.38a1.45,1.45,0,0,1-.228.607C22.916,30.163,22.84,30.239,22.688,30.239Z" transform="translate(-6.921 -7.517)"/>
        <path id="패스_2932" data-name="패스 2932" class="cls-9" d="M40.488,28.039a.279.279,0,0,1-.228-.076.468.468,0,0,1-.076-.531.279.279,0,0,0,.076-.228c0-.228.228-.3.38-.3.228,0,.3.228.3.38a1.45,1.45,0,0,1-.228.607C40.64,28.039,40.564,28.039,40.488,28.039Z" transform="translate(-11.207 -6.987)"/>
        <path id="패스_2933" data-name="패스 2933" class="cls-9" d="M33.988,26.839a.279.279,0,0,1-.228-.076.468.468,0,0,1-.076-.531A.279.279,0,0,0,33.76,26c0-.228.228-.3.38-.3.228,0,.3.228.3.38a1.45,1.45,0,0,1-.228.607C34.216,26.763,34.064,26.839,33.988,26.839Z" transform="translate(-9.642 -6.698)"/>
        <path id="패스_2934" data-name="패스 2934" class="cls-9" d="M25.788,28.839a.279.279,0,0,1-.228-.076.468.468,0,0,1-.076-.531A.279.279,0,0,0,25.56,28c0-.228.228-.3.38-.3.228,0,.3.228.3.38a1.45,1.45,0,0,1-.228.607C25.94,28.839,25.864,28.839,25.788,28.839Z" transform="translate(-7.668 -7.18)"/>
        <path id="패스_2935" data-name="패스 2935" class="cls-9" d="M32.988,31.739a.279.279,0,0,1-.228-.076.468.468,0,0,1-.076-.531.279.279,0,0,0,.076-.228c0-.228.228-.3.38-.3.228,0,.3.228.3.38a1.45,1.45,0,0,1-.228.607C33.216,31.739,33.14,31.739,32.988,31.739Z" transform="translate(-9.401 -7.878)"/>
        <path id="패스_2936" data-name="패스 2936" class="cls-9" d="M32.088,19.239a.279.279,0,0,1-.228-.076.468.468,0,0,1-.076-.531.279.279,0,0,0,.076-.228c0-.228.228-.3.38-.3.228,0,.3.228.3.38a1.45,1.45,0,0,1-.228.607C32.316,19.163,32.164,19.239,32.088,19.239Z" transform="translate(-9.184 -4.869)"/>
        <path id="패스_2937" data-name="패스 2937" class="cls-9" d="M25.888,32.539a.279.279,0,0,1-.228-.076.468.468,0,0,1-.076-.531.279.279,0,0,0,.076-.228c0-.228.228-.3.38-.3.228,0,.3.228.3.38a1.45,1.45,0,0,1-.228.607C26.116,32.539,25.964,32.539,25.888,32.539Z" transform="translate(-7.692 -8.071)"/>
        <path id="패스_2938" data-name="패스 2938" class="cls-9" d="M24.688,21.739a.279.279,0,0,1-.228-.076.468.468,0,0,1-.076-.531.279.279,0,0,0,.076-.228c0-.228.228-.3.38-.3.228,0,.3.228.3.38a1.45,1.45,0,0,1-.228.607C24.916,21.739,24.84,21.739,24.688,21.739Z" transform="translate(-7.403 -5.471)"/>
        <path id="패스_2939" data-name="패스 2939" class="cls-9" d="M37.488,30.539a.279.279,0,0,1-.228-.076.468.468,0,0,1-.076-.531.279.279,0,0,0,.076-.228c0-.228.228-.3.38-.3.228,0,.3.228.3.38a1.45,1.45,0,0,1-.228.607C37.716,30.463,37.564,30.539,37.488,30.539Z" transform="translate(-10.484 -7.589)"/>
        <path id="패스_2940" data-name="패스 2940" class="cls-9" d="M35.788,7.739a.279.279,0,0,1-.228-.076.468.468,0,0,1-.076-.531A.375.375,0,0,0,35.56,6.9c0-.228.228-.3.38-.3.228,0,.3.228.3.38a1.45,1.45,0,0,1-.228.607C36.016,7.663,35.864,7.739,35.788,7.739Z" transform="translate(-10.075 -2.1)"/>
        <path id="패스_2941" data-name="패스 2941" class="cls-9" d="M37.488,4.933a.279.279,0,0,1-.228-.076.468.468,0,0,1-.076-.531A.279.279,0,0,0,37.26,4.1c0-.228.228-.38.38-.3.228,0,.3.228.3.38a1.45,1.45,0,0,1-.228.607C37.716,4.857,37.564,4.933,37.488,4.933Z" transform="translate(-10.484 -1.42)"/>
        <path id="패스_2942" data-name="패스 2942" class="cls-9" d="M34.088,10.633a.279.279,0,0,1-.228-.076.468.468,0,0,1-.076-.531A.279.279,0,0,0,33.86,9.8c0-.228.228-.38.38-.3.228,0,.3.228.3.38a1.45,1.45,0,0,1-.228.607C34.316,10.557,34.164,10.633,34.088,10.633Z" transform="translate(-9.666 -2.792)"/>
        <path id="패스_2943" data-name="패스 2943" class="cls-9" d="M43.412,15.363c-.076,0-.152,0-.152-.076-.152-.076-.152-.3-.076-.456a.279.279,0,0,0,.076-.228.3.3,0,0,1,.607,0,1.608,1.608,0,0,1-.228.531A.242.242,0,0,1,43.412,15.363Z" transform="translate(-11.929 -3.954)"/>
        <path id="패스_2944" data-name="패스 2944" class="cls-9" d="M41.512,12.763c-.076,0-.152,0-.152-.076-.152-.076-.152-.3-.076-.456A.279.279,0,0,0,41.36,12a.344.344,0,0,1,.683.076,1.608,1.608,0,0,1-.228.531C41.664,12.687,41.588,12.763,41.512,12.763Z" transform="translate(-11.472 -3.328)"/>
        <path id="패스_2945" data-name="패스 2945" class="cls-9" d="M45.988,7.663a.279.279,0,0,1-.228-.076c-.152-.076-.152-.3-.076-.456,0-.076.076-.152.076-.228a.344.344,0,0,1,.683.076,1.608,1.608,0,0,1-.228.531C46.14,7.587,46.064,7.663,45.988,7.663Z" transform="translate(-12.531 -2.1)"/>
        <path id="패스_2946" data-name="패스 2946" class="cls-9" d="M45.688,12.963a.279.279,0,0,1-.228-.076c-.152-.076-.152-.3-.076-.456,0-.076.076-.152.076-.228a.344.344,0,1,1,.683.076,1.608,1.608,0,0,1-.228.531C45.84,12.887,45.764,12.963,45.688,12.963Z" transform="translate(-12.459 -3.376)"/>
        <path id="패스_2947" data-name="패스 2947" class="cls-9" d="M47.288,10.063a.279.279,0,0,1-.228-.076c-.152-.076-.152-.3-.076-.456,0-.076.076-.152.076-.228a.344.344,0,0,1,.683.076,1.608,1.608,0,0,1-.228.531C47.44,9.987,47.364,10.063,47.288,10.063Z" transform="translate(-12.844 -2.678)"/>
        <path id="패스_2948" data-name="패스 2948" class="cls-9" d="M49.212,12.263c-.076,0-.152,0-.152-.076-.152-.076-.152-.3-.076-.456a.279.279,0,0,0,.076-.228.344.344,0,0,1,.683.076,1.608,1.608,0,0,1-.228.531A.394.394,0,0,1,49.212,12.263Z" transform="translate(-13.325 -3.208)"/>
        <path id="패스_2949" data-name="패스 2949" class="cls-9" d="M47.988,15.563a.279.279,0,0,1-.228-.076c-.152-.076-.152-.3-.076-.456,0-.076.076-.152.076-.228a.344.344,0,0,1,.683.076,1.608,1.608,0,0,1-.228.531C48.14,15.487,48.064,15.563,47.988,15.563Z" transform="translate(-13.012 -4.002)"/>
        <path id="패스_2950" data-name="패스 2950" class="cls-9" d="M43.888,10.563a.279.279,0,0,1-.228-.076c-.152-.076-.152-.3-.076-.456A.279.279,0,0,0,43.66,9.8a.344.344,0,0,1,.683.076,1.608,1.608,0,0,1-.228.531C44.04,10.487,43.964,10.563,43.888,10.563Z" transform="translate(-12.025 -2.798)"/>
        <path id="패스_2951" data-name="패스 2951" class="cls-9" d="M54.488,3.463a.279.279,0,0,1-.228-.076c-.152-.076-.152-.3-.076-.456A.279.279,0,0,0,54.26,2.7a.344.344,0,0,1,.683.076,1.608,1.608,0,0,1-.228.531C54.64,3.463,54.564,3.463,54.488,3.463Z" transform="translate(-14.577 -1.089)"/>
        <path id="패스_2952" data-name="패스 2952" class="cls-9" d="M53.212,6.2c-.076,0-.152,0-.152-.076a.264.264,0,0,1-.076-.38c0-.076.076-.152.076-.228a.266.266,0,0,1,.38-.228.347.347,0,0,1,.3.38,1.608,1.608,0,0,1-.228.531Z" transform="translate(-14.288 -1.781)"/>
        <path id="패스_2953" data-name="패스 2953" class="cls-9" d="M51.988,3.963a.279.279,0,0,1-.228-.076c-.152-.076-.152-.3-.076-.456A.279.279,0,0,0,51.76,3.2a.344.344,0,0,1,.683.076,1.608,1.608,0,0,1-.228.531C52.14,3.963,52.064,3.963,51.988,3.963Z" transform="translate(-13.975 -1.209)"/>
        <path id="패스_2954" data-name="패스 2954" class="cls-9" d="M55.812,5.663c-.076,0-.152,0-.152-.076-.152-.076-.152-.3-.076-.456A.279.279,0,0,0,55.66,4.9a.344.344,0,0,1,.683.076,1.608,1.608,0,0,1-.228.531C55.964,5.587,55.888,5.663,55.812,5.663Z" transform="translate(-14.914 -1.619)"/>
        <path id="패스_2955" data-name="패스 2955" class="cls-9" d="M20.788,12.863a.279.279,0,0,1-.228-.076c-.152-.076-.152-.3-.076-.456a.279.279,0,0,0,.076-.228.344.344,0,0,1,.683.076,1.608,1.608,0,0,1-.228.531C20.94,12.787,20.864,12.863,20.788,12.863Z" transform="translate(-6.464 -3.352)"/>
        <path id="패스_2956" data-name="패스 2956" class="cls-9" d="M19.312,14.981c-.076,0-.152,0-.152-.076-.152-.076-.152-.3-.076-.456,0-.076.076-.152.076-.228a.313.313,0,0,1,.607.152,1.608,1.608,0,0,1-.228.531A.765.765,0,0,1,19.312,14.981Z" transform="translate(-6.127 -3.875)"/>
        <path id="패스_2957" data-name="패스 2957" class="cls-9" d="M21.912,14.963c-.076,0-.152,0-.152-.076-.152-.076-.152-.3-.076-.456a.279.279,0,0,0,.076-.228.344.344,0,1,1,.683.076,1.608,1.608,0,0,1-.228.531C22.064,14.887,21.988,14.963,21.912,14.963Z" transform="translate(-6.753 -3.858)"/>
        <path id="패스_2958" data-name="패스 2958" class="cls-9" d="M38.288,21.739a.279.279,0,0,1-.228-.076.468.468,0,0,1-.076-.531.279.279,0,0,0,.076-.228c0-.228.228-.3.38-.3.228,0,.3.228.3.38a1.45,1.45,0,0,1-.228.607C38.516,21.739,38.364,21.739,38.288,21.739Z" transform="translate(-10.677 -5.471)"/>
        <path id="패스_2959" data-name="패스 2959" class="cls-9" d="M30.688,23.439a.279.279,0,0,1-.228-.076.468.468,0,0,1-.076-.531.279.279,0,0,0,.076-.228c0-.228.228-.3.38-.3.228,0,.3.228.3.38a1.45,1.45,0,0,1-.228.607C30.916,23.363,30.84,23.439,30.688,23.439Z" transform="translate(-8.847 -5.88)"/>
        <path id="패스_2960" data-name="패스 2960" class="cls-9" d="M58.788,15.933a.279.279,0,0,1-.228-.076.468.468,0,0,1-.076-.531.375.375,0,0,0,.076-.228c0-.228.228-.38.38-.3.228,0,.3.228.3.38a1.45,1.45,0,0,1-.228.607C59.016,15.933,58.94,15.933,58.788,15.933Z" transform="translate(-15.612 -4.068)"/>
        <path id="패스_2961" data-name="패스 2961" class="cls-9" d="M47.288,22.333a.279.279,0,0,1-.228-.076.468.468,0,0,1-.076-.531.375.375,0,0,0,.076-.228c0-.228.228-.38.38-.3.228,0,.38.228.3.38a1.45,1.45,0,0,1-.228.607C47.516,22.257,47.364,22.333,47.288,22.333Z" transform="translate(-12.844 -5.609)"/>
        <path id="패스_2962" data-name="패스 2962" class="cls-9" d="M57.288,12.939a.279.279,0,0,1-.228-.076.468.468,0,0,1-.076-.531.375.375,0,0,0,.076-.228c0-.228.228-.3.38-.3.228,0,.3.228.3.38a1.45,1.45,0,0,1-.228.607C57.516,12.863,57.44,12.939,57.288,12.939Z" transform="translate(-15.251 -3.352)"/>
        <path id="패스_2963" data-name="패스 2963" class="cls-9" d="M62.688,9.939a.279.279,0,0,1-.228-.076.468.468,0,0,1-.076-.531A.279.279,0,0,0,62.46,9.1c0-.228.228-.3.38-.3.228,0,.3.228.3.38a1.45,1.45,0,0,1-.228.607C62.916,9.939,62.84,9.939,62.688,9.939Z" transform="translate(-16.551 -2.63)"/>
        <path id="패스_2964" data-name="패스 2964" class="cls-9" d="M60.888,12.839a.279.279,0,0,1-.228-.076.468.468,0,0,1-.076-.531A.375.375,0,0,0,60.66,12c0-.228.228-.3.38-.3.228,0,.3.228.3.38a1.45,1.45,0,0,1-.228.607C61.04,12.839,60.964,12.839,60.888,12.839Z" transform="translate(-16.118 -3.328)"/>
        <path id="패스_2965" data-name="패스 2965" class="cls-9" d="M59.688,9.939a.279.279,0,0,1-.228-.076.468.468,0,0,1-.076-.531A.279.279,0,0,0,59.46,9.1c0-.228.228-.3.38-.3.228,0,.3.228.3.38a1.45,1.45,0,0,1-.228.607C59.916,9.863,59.84,9.939,59.688,9.939Z" transform="translate(-15.829 -2.63)"/>
        <path id="패스_2966" data-name="패스 2966" class="cls-9" d="M64.288,12.739a.279.279,0,0,1-.228-.076.468.468,0,0,1-.076-.531.375.375,0,0,0,.076-.228c0-.228.228-.3.38-.3.228,0,.3.228.3.38a1.45,1.45,0,0,1-.228.607C64.516,12.663,64.44,12.739,64.288,12.739Z" transform="translate(-16.936 -3.304)"/>
        <path id="패스_2967" data-name="패스 2967" class="cls-9" d="M62.488,15.433a.279.279,0,0,1-.228-.076.468.468,0,0,1-.076-.531.279.279,0,0,0,.076-.228c0-.228.228-.38.38-.3.228,0,.3.228.3.38a1.45,1.45,0,0,1-.228.607C62.716,15.357,62.64,15.433,62.488,15.433Z" transform="translate(-16.503 -3.948)"/>
        <path id="패스_2968" data-name="패스 2968" class="cls-9" d="M11.988,23.239a.279.279,0,0,1-.228-.076.468.468,0,0,1-.076-.531.375.375,0,0,0,.076-.228c0-.228.228-.3.38-.3.228,0,.3.228.3.38a1.45,1.45,0,0,1-.228.607C12.216,23.163,12.064,23.239,11.988,23.239Z" transform="translate(-4.345 -5.832)"/>
        <path id="패스_2969" data-name="패스 2969" class="cls-9" d="M4.288,20.639a.279.279,0,0,1-.228-.076.468.468,0,0,1-.076-.531A.375.375,0,0,0,4.06,19.8c0-.228.228-.3.38-.3.228,0,.3.228.3.38a1.45,1.45,0,0,1-.228.607C4.516,20.563,4.44,20.639,4.288,20.639Z" transform="translate(-2.492 -5.206)"/>
        <path id="패스_2970" data-name="패스 2970" class="cls-9" d="M15.888,23.539a.279.279,0,0,1-.228-.076.468.468,0,0,1-.076-.531.279.279,0,0,0,.076-.228c0-.228.228-.3.38-.3.228,0,.3.228.3.38a1.45,1.45,0,0,1-.228.607C16.04,23.463,15.964,23.539,15.888,23.539Z" transform="translate(-5.284 -5.904)"/>
        <path id="패스_2971" data-name="패스 2971" class="cls-9" d="M9.788,28.839a.279.279,0,0,1-.228-.076.468.468,0,0,1-.076-.531A.279.279,0,0,0,9.56,28c0-.228.228-.3.38-.3.228,0,.3.228.3.38a1.45,1.45,0,0,1-.228.607C10.016,28.839,9.864,28.839,9.788,28.839Z" transform="translate(-3.816 -7.18)"/>
        <path id="패스_2972" data-name="패스 2972" class="cls-9" d="M8.688,25.639a.279.279,0,0,1-.228-.076.468.468,0,0,1-.076-.531A.375.375,0,0,0,8.46,24.8c0-.228.228-.3.38-.3.228,0,.3.228.3.38a1.45,1.45,0,0,1-.228.607C8.916,25.563,8.84,25.639,8.688,25.639Z" transform="translate(-3.551 -6.41)"/>
        <path id="패스_2973" data-name="패스 2973" class="cls-9" d="M4.188,29.439a.279.279,0,0,1-.228-.076.468.468,0,0,1-.076-.531c.076-.076.076-.228.152-.228,0-.228.228-.3.38-.3.228,0,.3.228.3.38a1.45,1.45,0,0,1-.228.607A.576.576,0,0,1,4.188,29.439Z" transform="translate(-2.468 -7.324)"/>
        <path id="패스_2974" data-name="패스 2974" class="cls-9" d="M14.488,20.339a.279.279,0,0,1-.228-.076.468.468,0,0,1-.076-.531.279.279,0,0,0,.076-.228c0-.228.228-.3.38-.3.228,0,.3.228.3.38a1.45,1.45,0,0,1-.228.607C14.716,20.263,14.564,20.339,14.488,20.339Z" transform="translate(-4.947 -5.134)"/>
        <path id="패스_2975" data-name="패스 2975" class="cls-9" d="M7.088,19.239a.279.279,0,0,1-.228-.076.468.468,0,0,1-.076-.531A.279.279,0,0,0,6.86,18.4c0-.228.228-.3.38-.3.228,0,.3.228.3.38a1.45,1.45,0,0,1-.228.607C7.24,19.163,7.164,19.239,7.088,19.239Z" transform="translate(-3.166 -4.869)"/>
        <path id="패스_2976" data-name="패스 2976" class="cls-9" d="M6.188,23.239a.279.279,0,0,1-.228-.076.468.468,0,0,1-.076-.531A.375.375,0,0,0,5.96,22.4c0-.228.228-.3.38-.3.228,0,.3.228.3.38a1.45,1.45,0,0,1-.228.607C6.416,23.163,6.34,23.239,6.188,23.239Z" transform="translate(-2.949 -5.832)"/>
        <path id="패스_2977" data-name="패스 2977" class="cls-9" d="M2.388,25.363a.279.279,0,0,1-.228-.076c-.152-.076-.152-.3-.076-.456.076-.076.076-.228.152-.228,0-.228.228-.3.38-.3.228,0,.3.228.3.38a1.45,1.45,0,0,1-.228.607C2.616,25.363,2.54,25.363,2.388,25.363Z" transform="translate(-2.034 -6.361)"/>
        <path id="패스_2978" data-name="패스 2978" class="cls-9" d="M69.488,21.139a.279.279,0,0,1-.228-.076.468.468,0,0,1-.076-.531.279.279,0,0,0,.076-.228c0-.228.228-.3.38-.3.228,0,.3.228.3.38a1.45,1.45,0,0,1-.228.607C69.716,21.063,69.64,21.139,69.488,21.139Z" transform="translate(-18.188 -5.326)"/>
        <path id="패스_2979" data-name="패스 2979" class="cls-9" d="M72.588,23.533a.279.279,0,0,1-.228-.076.468.468,0,0,1-.076-.531.279.279,0,0,0,.076-.228c0-.228.228-.38.38-.3.228,0,.3.228.3.38a1.45,1.45,0,0,1-.228.607C72.816,23.457,72.74,23.533,72.588,23.533Z" transform="translate(-18.935 -5.898)"/>
        <path id="패스_2980" data-name="패스 2980" class="cls-9" d="M64.588,22.339a.279.279,0,0,1-.228-.076.468.468,0,0,1-.076-.531.279.279,0,0,0,.076-.228c0-.228.228-.3.38-.3.228,0,.3.228.3.38a1.45,1.45,0,0,1-.228.607C64.74,22.263,64.664,22.339,64.588,22.339Z" transform="translate(-17.009 -5.615)"/>
        <path id="패스_2981" data-name="패스 2981" class="cls-9" d="M65.188,28.139a.279.279,0,0,1-.228-.076.468.468,0,0,1-.076-.531.279.279,0,0,0,.076-.228c0-.228.228-.3.38-.3.228,0,.3.228.3.38a1.45,1.45,0,0,1-.228.607C65.416,28.139,65.264,28.139,65.188,28.139Z" transform="translate(-17.153 -7.011)"/>
        <path id="패스_2982" data-name="패스 2982" class="cls-9" d="M66.988,25.639a.279.279,0,0,1-.228-.076.468.468,0,0,1-.076-.531.279.279,0,0,0,.076-.228c0-.228.228-.3.38-.3.228,0,.3.228.3.38a1.45,1.45,0,0,1-.228.607C67.216,25.563,67.14,25.639,66.988,25.639Z" transform="translate(-17.586 -6.41)"/>
        <path id="패스_2983" data-name="패스 2983" class="cls-9" d="M70.088,26.939a.279.279,0,0,1-.228-.076.468.468,0,0,1-.076-.531.279.279,0,0,0,.076-.228c0-.228.228-.3.38-.3.228,0,.3.228.3.38a1.45,1.45,0,0,1-.228.607C70.316,26.863,70.24,26.939,70.088,26.939Z" transform="translate(-18.333 -6.723)"/>
        <path id="패스_2984" data-name="패스 2984" class="cls-9" d="M55.488,25.139a.279.279,0,0,1-.228-.076.468.468,0,0,1-.076-.531.279.279,0,0,0,.076-.228c0-.228.228-.3.38-.3.228,0,.3.228.3.38a1.45,1.45,0,0,1-.228.607C55.716,25.139,55.64,25.139,55.488,25.139Z" transform="translate(-14.818 -6.289)"/>
        <path id="패스_2985" data-name="패스 2985" class="cls-9" d="M53.688,28.039a.279.279,0,0,1-.228-.076.468.468,0,0,1-.076-.531c.076-.076.076-.228.152-.228,0-.228.228-.3.38-.3.228,0,.3.228.3.38a1.45,1.45,0,0,1-.228.607C53.84,28.039,53.764,28.039,53.688,28.039Z" transform="translate(-14.385 -6.987)"/>
        <path id="패스_2986" data-name="패스 2986" class="cls-9" d="M54.588,30.839a.279.279,0,0,1-.228-.076.468.468,0,0,1-.076-.531A.279.279,0,0,0,54.36,30c0-.228.228-.3.38-.3.228,0,.3.228.3.38a1.45,1.45,0,0,1-.228.607C54.74,30.763,54.664,30.839,54.588,30.839Z" transform="translate(-14.601 -7.661)"/>
        <path id="패스_2987" data-name="패스 2987" class="cls-9" d="M50.188,27.339a.279.279,0,0,1-.228-.076.468.468,0,0,1-.076-.531.279.279,0,0,0,.076-.228c0-.228.228-.3.38-.3.228,0,.3.228.3.38a1.45,1.45,0,0,1-.228.607C50.416,27.339,50.264,27.339,50.188,27.339Z" transform="translate(-13.542 -6.819)"/>
        <path id="패스_2988" data-name="패스 2988" class="cls-9" d="M51.688,23.639a.279.279,0,0,1-.228-.076.468.468,0,0,1-.076-.531c.076-.076.076-.228.152-.228,0-.228.228-.3.38-.3.228,0,.3.228.3.38a1.45,1.45,0,0,1-.228.607C51.916,23.639,51.84,23.639,51.688,23.639Z" transform="translate(-13.903 -5.928)"/>
        <path id="패스_2989" data-name="패스 2989" class="cls-9" d="M57.088,27.939a.279.279,0,0,1-.228-.076.468.468,0,0,1-.076-.531.375.375,0,0,0,.076-.228c0-.228.228-.3.38-.3.228,0,.3.228.3.38a1.45,1.45,0,0,1-.228.607C57.316,27.863,57.24,27.939,57.088,27.939Z" transform="translate(-15.203 -6.963)"/>
      </g>
    </g>
    <g id="그룹_579" data-name="그룹 579" transform="translate(1230.022 959.968)">
      <rect id="사각형_223" data-name="사각형 223" class="cls-10" width="32.9" height="1.3" transform="translate(7.698 31.6) rotate(-73.638)"/>
      <path id="패스_2990" data-name="패스 2990" class="cls-8" d="M6.7,13c-.3,1-2,1.4-3.8.8C1,13.3-.2,12.1,0,11.1c.3-1,2-1.4,3.8-.8C5.7,10.8,7,12,6.7,13Z"/>
      <path id="패스_2991" data-name="패스 2991" class="cls-2" d="M13.3,15c-.3,1-2,1.4-3.8.8C7.6,15.3,6.4,14,6.7,13s2-1.4,3.8-.8C12.3,12.7,13.6,14,13.3,15Z"/>
      <path id="패스_2992" data-name="패스 2992" class="cls-8" d="M19.9,16.9c-.3,1-2,1.4-3.8.8C14.3,17.2,13,16,13.3,15s2-1.4,3.8-.8C19,14.7,20.2,15.9,19.9,16.9Z"/>
      <path id="패스_2993" data-name="패스 2993" class="cls-2" d="M26.6,18.9c-.3,1-2,1.4-3.8.8-1.8-.5-3.1-1.8-2.8-2.8s2-1.4,3.8-.8C25.6,16.6,26.8,17.9,26.6,18.9Z"/>
      <g id="그룹_578" data-name="그룹 578">
        <path id="패스_2994" data-name="패스 2994" class="cls-8" d="M0,11.1,13.3,15,17.2,1.7A13.82,13.82,0,0,0,0,11.1Z"/>
        <path id="패스_2995" data-name="패스 2995" class="cls-2" d="M17.2,1.7,13.3,15l13.3,3.9A13.856,13.856,0,0,0,17.2,1.7Z"/>
      </g>
      <path id="패스_2996" data-name="패스 2996" class="cls-2" d="M6.7,13S9.2,3.7,17.2,1.7L13.3,15Z"/>
      <path id="패스_2997" data-name="패스 2997" class="cls-8" d="M19.9,16.9s2.9-9.2-2.7-15.2L13.3,15Z"/>
    </g>
    <g id="그룹_580" data-name="그룹 580" transform="translate(918 962.062)">
      <path id="패스_2998" data-name="패스 2998" class="cls-11" d="M32.2,28.4S33,15.9,17,18.6c0,0-.6,12.4,15.2,9.8"/>
      <path id="패스_2999" data-name="패스 2999" class="cls-11" d="M21,16.5S7,7.6,0,27.8c0,0,14,8.7,21-11.3"/>
      <path id="패스_3000" data-name="패스 3000" class="cls-12" d="M5.8,4.2a14.164,14.164,0,0,1-2,2.2C-3.7,12.5,5.2,22.1,11.3,24c2.4.8,4.4.1,6.9-.5,2.4-.6,5.7.2,7.8-1.1,3.6-2.1,4.8-8.1,4.5-11.7-.4-4.6-3.7-6.4-7.6-7.6a33.514,33.514,0,0,1-5.4-1.6C14.7.3,12.6-1,9.6.9A23.674,23.674,0,0,0,5.8,4.2Z"/>
      <path id="패스_3001" data-name="패스 3001" class="cls-5" d="M20.4,11.4a4.8,4.8,0,1,1-4.8-4.8A4.738,4.738,0,0,1,20.4,11.4Z"/>
      <path id="패스_3002" data-name="패스 3002" class="cls-8" d="M20.3,11a4.4,4.4,0,1,1-4.4-4.4A4.439,4.439,0,0,1,20.3,11Z"/>
    </g>
    <g id="그룹_587" data-name="그룹 587" transform="translate(728 743.851)">
      <path id="패스_3012" data-name="패스 3012" class="cls-8" d="M76.685,23.332a3.028,3.028,0,0,1-3.032,3.032H65.332A3.028,3.028,0,0,1,62.3,23.332h0A3.028,3.028,0,0,1,65.332,20.3h8.257a3.043,3.043,0,0,1,3.1,3.032Z" transform="translate(-22.113 -7.217)"/>
      <path id="패스_3013" data-name="패스 3013" class="cls-8" d="M76.685,56.532a3.028,3.028,0,0,1-3.032,3.032H65.332A3.028,3.028,0,0,1,62.3,56.532h0A3.028,3.028,0,0,1,65.332,53.5h8.257a3.127,3.127,0,0,1,3.1,3.032Z" transform="translate(-22.113 -19.001)"/>
      <path id="패스_3014" data-name="패스 3014" class="cls-2" d="M42.4,32.316,54.979,48.829A4.869,4.869,0,0,0,58.913,50.7c.774,0,1.548.065,2.9.065a4.266,4.266,0,0,0,2.645-.516,2.712,2.712,0,0,0,.774-1.806,7.9,7.9,0,0,0,.129-1.226v-27.8c0-2.129.064-4.322,0-6.515a1.757,1.757,0,0,0-.452-1.29,2.81,2.81,0,0,0-1.871-.71h-4.9a3.349,3.349,0,0,0-2.387,1.484L46.335,23.414Z" transform="translate(-15.05 -3.881)"/>
      <g id="그룹_585" data-name="그룹 585" transform="translate(2.709 -0.034)">
        <path id="패스_3015" data-name="패스 3015" class="cls-5" d="M125.334,2.052C124.56-.141,123.27-.077,121.4-.012a8.452,8.452,0,0,0-3.354.71c-1.29.581-1.935,2-2.516,3.1h0c-.065.065-.065.194-.129.258h10.256A7.591,7.591,0,0,0,125.334,2.052Z" transform="translate(-43.67 0.034)"/>
        <path id="패스_3016" data-name="패스 3016" class="cls-2" d="M57.353,29.3H8.973A31.116,31.116,0,0,0,4.2,32.525a1.884,1.884,0,0,0,.581.129H57.417a1.678,1.678,0,1,0-.065-3.354Z" transform="translate(-4.2 -10.378)"/>
        <path id="패스_3017" data-name="패스 3017" class="cls-2" d="M112.626,10.4c-.387.839-.839,1.677-1.226,2.516h12.256l.258-2.516Z" transform="translate(-42.25 -3.67)"/>
        <path id="패스_3018" data-name="패스 3018" class="cls-8" d="M124.589,9.016l.258-2.387V6.5H114.59c-.452.839-.9,1.677-1.29,2.516Z" transform="translate(-42.924 -2.285)"/>
      </g>
      <path id="패스_3019" data-name="패스 3019" class="cls-5" d="M21.869,31.476a.578.578,0,0,1-.581.581H10.581A.578.578,0,0,1,10,31.476h0a.578.578,0,0,1,.581-.581H21.289c.323-.065.581.258.581.581Z" transform="translate(-3.549 -10.975)"/>
      <path id="패스_3020" data-name="패스 3020" class="cls-5" d="M34.332,31.476a.578.578,0,0,1-.581.581H31.881a.578.578,0,0,1-.581-.581h0a.578.578,0,0,1,.581-.581h1.871c.323-.065.581.258.581.581Z" transform="translate(-11.11 -10.975)"/>
      <path id="패스_3021" data-name="패스 3021" class="cls-5" d="M41.122,31.476a.578.578,0,0,1-.581.581H39.381a.578.578,0,0,1-.581-.581h0a.578.578,0,0,1,.581-.581h1.161c.323-.065.581.258.581.581Z" transform="translate(-13.772 -10.975)"/>
      <path id="패스_3022" data-name="패스 3022" class="cls-5" d="M46.742,31.476a.578.578,0,0,1-.581.581h-.581A.578.578,0,0,1,45,31.476h0a.578.578,0,0,1,.581-.581h.581c.323-.065.581.258.581.581Z" transform="translate(-15.972 -10.975)"/>
      <path id="패스_3023" data-name="패스 3023" class="cls-5" d="M51.226,31.476a.578.578,0,0,1-.581.581h-.065A.578.578,0,0,1,50,31.476h0a.578.578,0,0,1,.581-.581h.065c.323-.065.581.258.581.581Z" transform="translate(-17.747 -10.975)"/>
      <path id="패스_3024" data-name="패스 3024" class="cls-5" d="M55.226,31.476a.578.578,0,0,1-.581.581h-.065A.578.578,0,0,1,54,31.476h0a.578.578,0,0,1,.581-.581h.065c.323-.065.581.258.581.581Z" transform="translate(-19.167 -10.975)"/>
      <path id="패스_3025" data-name="패스 3025" class="cls-5" d="M59.126,31.476a.578.578,0,0,1-.581.581h-.065a.578.578,0,0,1-.581-.581h0a.578.578,0,0,1,.581-.581h.065c.323-.065.581.258.581.581Z" transform="translate(-20.551 -10.975)"/>
      <path id="패스_3026" data-name="패스 3026" class="cls-5" d="M63.126,31.476a.578.578,0,0,1-.581.581h-.065a.578.578,0,0,1-.581-.581h0a.578.578,0,0,1,.581-.581h.065c.323-.065.581.258.581.581Z" transform="translate(-21.971 -10.975)"/>
      <path id="패스_3027" data-name="패스 3027" class="cls-5" d="M67.026,31.476a.578.578,0,0,1-.581.581h-.065a.578.578,0,0,1-.581-.581h0a.578.578,0,0,1,.581-.581h.065c.323-.065.581.258.581.581Z" transform="translate(-23.355 -10.975)"/>
      <path id="패스_3028" data-name="패스 3028" class="cls-5" d="M71.026,31.476a.578.578,0,0,1-.581.581h-.065a.578.578,0,0,1-.581-.581h0a.578.578,0,0,1,.581-.581h.065c.323-.065.581.258.581.581Z" transform="translate(-24.775 -10.975)"/>
      <path id="패스_3029" data-name="패스 3029" class="cls-5" d="M74.926,31.476a.578.578,0,0,1-.581.581h-.065a.578.578,0,0,1-.581-.581h0a.578.578,0,0,1,.581-.581h.065c.323-.065.581.258.581.581Z" transform="translate(-26.159 -10.975)"/>
      <path id="패스_3030" data-name="패스 3030" class="cls-5" d="M78.926,31.476a.578.578,0,0,1-.581.581h-.065a.578.578,0,0,1-.581-.581h0a.578.578,0,0,1,.581-.581h.065c.323-.065.581.258.581.581Z" transform="translate(-27.579 -10.975)"/>
      <path id="패스_3031" data-name="패스 3031" class="cls-5" d="M82.826,31.476a.578.578,0,0,1-.581.581h-.065a.578.578,0,0,1-.581-.581h0a.578.578,0,0,1,.581-.581h.065c.323-.065.581.258.581.581Z" transform="translate(-28.963 -10.975)"/>
      <g id="그룹_586" data-name="그룹 586" transform="translate(0 9.277)">
        <path id="패스_3032" data-name="패스 3032" class="cls-5" d="M81.184,30.526l-.129.839L84.087,14.4H71.83c-.387.774-.774,1.548-1.161,2.258a9.271,9.271,0,0,1-6.773,5.16,2.194,2.194,0,0,1-.645.065H15.323a20.289,20.289,0,0,0-2.838.194,19.5,19.5,0,0,0-4.9,1.935H55.962a1.677,1.677,0,0,1,0,3.354H3.325a1.883,1.883,0,0,1-.581-.129c-.258.194-.516.452-.774.645A4.4,4.4,0,0,0,.1,31.494H80.99C80.99,31.43,81.184,30.591,81.184,30.526Z" transform="translate(-0.035 -14.4)"/>
        <path id="패스_3033" data-name="패스 3033" class="cls-8" d="M4.58,45.609H71.795c2.774,0,8.644-2,9.1-4.709H0v.065A4.612,4.612,0,0,0,4.58,45.609Z" transform="translate(0 -23.806)"/>
      </g>
      <path id="패스_3034" data-name="패스 3034" class="cls-2" d="M121.81,19.1h3.161a2.7,2.7,0,0,1,2.387,2.9v2.451a1.513,1.513,0,0,1-1.226,1.419,2.4,2.4,0,0,1-1.161-.129c-.516-.194-1.032-.452-1.548-.645-1.29-.581-2.516-1.1-3.806-1.677-1.032-.452-2.387-.774-2.967-1.806a2.1,2.1,0,0,1-.258-.839,1.219,1.219,0,0,1,.581-1.355,3.147,3.147,0,0,1,1.548-.258h3.29Z" transform="translate(-41.307 -6.791)"/>
    </g>
    <g id="그룹_588" data-name="그룹 588" transform="translate(634.931 802)">
      <path id="패스_2439-2" data-name="패스 2439" class="cls-6" d="M52.8,9.8c-1.7,3-6.5,4.6-10.2,2.5-5.2-2.8-2.6-9-.3-10.9,5.5-4.5,13.6,2.8,10.5,8.4"/>
      <path id="패스_2440-2" data-name="패스 2440" class="cls-6" d="M64.6,9.8c-1.7,3-6.5,4.6-10.2,2.5-5.2-2.8-2.6-9-.3-10.9,5.5-4.5,13.6,2.8,10.5,8.4"/>
    </g>
  </g>
</svg>
