<svg xmlns="http://www.w3.org/2000/svg" viewBox="0 0 160 140">
  <defs>
    <style>
      .cls-1 {
        fill: none;
      }

      .cls-2 {
        fill: #74c6be;
      }

      .cls-3 {
        fill: #64c0ab;
      }

      .cls-4 {
        fill: #bce2e3;
      }

      .cls-5 {
        fill: #727171;
      }

      .cls-6 {
        fill: #fff;
      }

      .cls-7 {
        fill: #e0f1f2;
      }

      .cls-8 {
        fill: #e6e6e6;
      }

      .cls-9 {
        fill: #666464;
      }

      .cls-10 {
        fill: #7d7d7d;
      }

      .cls-11 {
        fill: #e3c8a0;
      }

      .cls-12 {
        fill: #60b7a3;
      }

      .cls-13 {
        fill: #b5b5b6;
      }

      .cls-14 {
        fill: #ea5541;
      }

      .cls-15 {
        fill: #898989;
      }

      .cls-16 {
        fill: #ededed;
      }

      .cls-17 {
        fill: #006b94;
      }

      .cls-18 {
        fill: #831a1f;
      }

      .cls-19 {
        fill: #972328;
      }

      .cls-20 {
        fill: #d2a587;
      }

      .cls-21 {
        fill: #f6c3d9;
      }

      .cls-22 {
        fill: #fdd35c;
      }
    </style>
  </defs>
  <g id="그룹_672" data-name="그룹 672" transform="translate(0 -572)">
    <rect id="사각형_270" data-name="사각형 270" class="cls-1" width="160" height="140" transform="translate(0 572)"/>
    <g id="그룹_669" data-name="그룹 669" transform="translate(-7.796)">
      <g id="그룹_592" data-name="그룹 592" transform="translate(62.268 594.977)">
        <path id="패스_2057" data-name="패스 2057" class="cls-2" d="M66.451,16.9s6.324,0,9.346,21.659c0,0,.224,2.8,2.686,2.351a1.583,1.583,0,0,1,1.679,1.231c.336,1.623-1.679,2.015-2.854,2.071a6.773,6.773,0,0,1-1.063-.056c-3.862-.728-4.086-4.757-4.757-7.891-.784-3.75-1.119-7.5-2.854-10.914-1.063-2.071-2.854-3.47-4.533-5.093Z" transform="translate(-28.202 -7.498)"/>
        <path id="패스_2058" data-name="패스 2058" class="cls-3" d="M85.009,152.1h0a.741.741,0,0,1-.728-.728v-5.093c0-.5,0-1.175-.28-1.455-.224-.224-.951-.168-1.287-.168l-1.231.056a.73.73,0,1,1-.112-1.455L82.6,143.2a3.551,3.551,0,0,1,2.351.56,3.111,3.111,0,0,1,.784,2.519v5.093a.705.705,0,0,1-.728.728" transform="translate(-35.511 -63.111)"/>
        <path id="패스_2059" data-name="패스 2059" class="cls-3" d="M86.956,151.833a.741.741,0,0,1-.728-.728V143.83a2.516,2.516,0,0,0-.168-1.007,2.609,2.609,0,0,0-2.407-1.567H81.528a.728.728,0,0,1,0-1.455H83.71a4.114,4.114,0,0,1,3.75,2.518,4.273,4.273,0,0,1,.28,1.511v7.276a.792.792,0,0,1-.784.728" transform="translate(-35.555 -61.614)"/>
        <path id="패스_2060" data-name="패스 2060" class="cls-3" d="M89.444,151.523a.741.741,0,0,1-.728-.728v-8.843a4.478,4.478,0,0,0-4.253-4.2H82.728a.728.728,0,0,1,0-1.455h1.847a5.93,5.93,0,0,1,5.6,5.6v8.955a.733.733,0,0,1-.728.672" transform="translate(-36.084 -60.073)"/>
        <path id="패스_2061" data-name="패스 2061" class="cls-4" d="M23.133,67.26a24.18,24.18,0,0,0,6.66,17.8l1.455,12.76h2.966l1.9-11.865,5.037-.168,2.8,13.152h2.686l1.847-15.111s5.765-2.239,3.974-13.544L48.878,36.255S46.471,15.211,41.322,13.14c0,0,6.156-5.821,1.511-13.04a13.538,13.538,0,0,0-6.156,8.507s-.5.224-4.645.056H30.689S29.569,4.018,23.8,1.835a11.213,11.213,0,0,0,2.295,10.3c-.168-.168-5.317,4.2-5.485,4.309-4.869,4.03-7.108,7.276-10.354,12.145a4.673,4.673,0,0,0-.672,3.862c.28,1.343,1.9,3.078,2.91,3.918a6.827,6.827,0,0,0,4.757,1.9c3.358-.056,7.164-.392,10.186-1.9-.112.056,0,.112-.392,2.63Z" transform="translate(-4.137 -0.1)"/>
        <path id="패스_2062" data-name="패스 2062" class="cls-5" d="M66.3,180.257h6.044l-.616-4.645-2.91-.112Z" transform="translate(-29.17 -77.334)"/>
        <path id="패스_2063" data-name="패스 2063" class="cls-5" d="M46.727,174.7,44.6,178.506s3.806,0,5.765-.224l-.728-3.582" transform="translate(-19.615 -76.982)"/>
        <path id="패스_2064" data-name="패스 2064" class="cls-6" d="M47.3,164.612c0,.056.112.112.112.112a1.171,1.171,0,0,0,.336.224,1.318,1.318,0,0,0,1.119.168,1.676,1.676,0,0,0,.448-.224c.112-.056.224-.168.392-.28a1.055,1.055,0,0,1,.448-.112h.392a1.139,1.139,0,0,1,.84.336c.056.056.168.112.224.224.056.056.056.112.112.168,0,0,.112.112.112.168l-.784,4.757H48.084Z" transform="translate(-20.804 -72.491)"/>
        <path id="패스_2065" data-name="패스 2065" class="cls-6" d="M68.7,165.219a.916.916,0,0,0,1.511-.056s.84-1.119,1.511,0c0,0,.672.784,1.175-.392,0,0,.392-.616.616-.056l-.728,6.044-2.854-.112Z" transform="translate(-30.227 -72.482)"/>
        <path id="패스_2066" data-name="패스 2066" class="cls-6" d="M36.048,5.6s-.616,4.7,1.9,7.276c2.463,2.519,1.175-5.093-1.9-7.276" transform="translate(-15.82 -2.522)"/>
        <path id="패스_2067" data-name="패스 2067" class="cls-6" d="M66.885,3.3s1.847,4.7-1.007,8.563c-2.463,3.47-2.295-5.373,1.007-8.563" transform="translate(-28.244 -1.509)"/>
        <path id="패스_2068" data-name="패스 2068" class="cls-7" d="M27.038,44.2a.173.173,0,0,0-.056.112c-.056,0,0,0,.056-.112Z" transform="translate(-11.847 -19.519)"/>
        <path id="패스_2069" data-name="패스 2069" class="cls-2" d="M11.9,55.343v-.224a.567.567,0,0,1,.224-.392.6.6,0,0,1,.392-.168h.056a.529.529,0,0,1,.5.616v.28a.309.309,0,0,0,.616.056v-.224h0v-.056A1.217,1.217,0,0,0,12.631,54h-.056a1.213,1.213,0,0,0-.784.28.979.979,0,0,0-.392.784v.224a.355.355,0,0,0,.28.336.306.306,0,0,0,.224-.28" transform="translate(-4.996 -23.834)"/>
        <path id="패스_2070" data-name="패스 2070" class="cls-5" d="M30.491,31.648v.224a.567.567,0,0,1-.224.392.6.6,0,0,1-.392.168h-.056a.529.529,0,0,1-.5-.616V31.76h0v-.224a.309.309,0,0,0-.616-.056v.28a1.217,1.217,0,0,0,1.063,1.231h.056a1.213,1.213,0,0,0,.784-.28.979.979,0,0,0,.392-.784V31.7a.355.355,0,0,0-.28-.336.306.306,0,0,0-.224.28" transform="translate(-12.614 -13.794)"/>
        <path id="패스_2071" data-name="패스 2071" class="cls-5" d="M43.847,38.648v.224a.566.566,0,0,1-.224.392.6.6,0,0,1-.392.168h-.056a.61.61,0,0,1-.56-.616v-.28A.309.309,0,1,0,42,38.48v.28a1.259,1.259,0,0,0,1.063,1.231h.056a1.213,1.213,0,0,0,.784-.28.979.979,0,0,0,.392-.784V38.7a.355.355,0,0,0-.28-.336c-.056,0-.168.112-.168.28" transform="translate(-18.47 -16.877)"/>
        <path id="패스_2072" data-name="패스 2072" class="cls-2" d="M17.709,57.537l.112-.168a.823.823,0,0,1,.336-.28.632.632,0,0,1,.448.056h.056a.62.62,0,0,1,.224.784v.056l-.112.168c-.056.112-.056.336.112.392a.248.248,0,0,0,.392-.112l.112-.168h0a.055.055,0,0,1,.056-.056,1.22,1.22,0,0,0-.392-1.567A.055.055,0,0,1,19,56.586a1.118,1.118,0,0,0-.84-.112.892.892,0,0,0-.672.5l-.112.168c-.056.112-.056.336.112.392,0,.168.168.112.224,0" transform="translate(-7.612 -24.908)"/>
        <path id="패스_2073" data-name="패스 2073" class="cls-2" d="M46.084,25a.765.765,0,0,1-.784-.784v-.5c.112-1.735.616-2.91,2.966-2.91h2.295a.784.784,0,1,1,0,1.567H48.266c-1.063,0-1.287.112-1.4,1.455v.448a.793.793,0,0,1-.784.728" transform="translate(-19.923 -9.215)"/>
        <path id="패스_2074" data-name="패스 2074" class="cls-2" d="M42.284,22.441a.765.765,0,0,1-.784-.784v-.5A4.208,4.208,0,0,1,45.865,16.9h4.142a.784.784,0,0,1,0,1.567H45.865a2.655,2.655,0,0,0-2.8,2.8v.392a.765.765,0,0,1-.784.784" transform="translate(-18.25 -7.498)"/>
        <path id="패스_2075" data-name="패스 2075" class="cls-2" d="M38.584,20.016a.765.765,0,0,1-.784-.784v-.224A5.733,5.733,0,0,1,43.509,13.3h6.156a.784.784,0,1,1,0,1.567H43.509a4.132,4.132,0,0,0-4.142,4.142v.224a.765.765,0,0,1-.784.784" transform="translate(-16.621 -5.912)"/>
        <path id="패스_2076" data-name="패스 2076" class="cls-6" d="M37.892,121.551c-.056,0-.168-.056-.168-.112a.855.855,0,0,1-.224-.56c0-.112.056-.28.224-.28s.28.056.28.224a.591.591,0,0,0,.112.28c.056.112.056.28-.056.336-.056.112-.112.112-.168.112" transform="translate(-16.489 -53.16)"/>
        <path id="패스_2077" data-name="패스 2077" class="cls-6" d="M37.292,116.451c-.056,0-.168-.056-.168-.112a.855.855,0,0,1-.224-.56c0-.112.056-.28.224-.28.112,0,.28.056.28.224a.591.591,0,0,0,.112.28c.056.112.056.28-.056.336-.056.112-.112.112-.168.112" transform="translate(-16.225 -50.914)"/>
        <path id="패스_2078" data-name="패스 2078" class="cls-6" d="M41.492,132.2c-.056,0-.168-.056-.168-.112a.833.833,0,0,1-.224-.5c0-.112.056-.28.224-.28.112,0,.28.056.28.224a.427.427,0,0,0,.112.28c.056.112.056.28-.056.336-.056,0-.112.056-.168.056" transform="translate(-18.074 -57.872)"/>
        <path id="패스_2079" data-name="패스 2079" class="cls-6" d="M43.592,135.951c-.056,0-.112-.056-.168-.112a.855.855,0,0,1-.224-.56c0-.112.056-.28.224-.28.112,0,.28.056.28.224a.591.591,0,0,0,.112.28c.056.112.056.28-.056.336-.056.056-.112.112-.168.112" transform="translate(-18.999 -59.501)"/>
        <path id="패스_2080" data-name="패스 2080" class="cls-6" d="M41.592,138.751c-.056,0-.168-.056-.168-.112a.855.855,0,0,1-.224-.56c0-.112.056-.28.224-.28.112,0,.28.056.28.224a.591.591,0,0,0,.112.28c.056.112.056.28-.056.336-.056.112-.112.112-.168.112" transform="translate(-18.118 -60.734)"/>
        <path id="패스_2081" data-name="패스 2081" class="cls-6" d="M39.892,135.151c-.056,0-.168-.056-.168-.112a.855.855,0,0,1-.224-.56c0-.112.056-.28.224-.28s.28.056.28.224a.591.591,0,0,0,.112.28c.056.112.056.28-.056.336-.056.112-.112.112-.168.112" transform="translate(-17.369 -59.149)"/>
        <path id="패스_2082" data-name="패스 2082" class="cls-6" d="M43.392,130.151c-.056,0-.168-.056-.168-.112a.855.855,0,0,1-.224-.56c0-.112.056-.28.224-.28.112,0,.28.056.28.224a.591.591,0,0,0,.112.28c.056.112.056.28-.056.336-.056.112-.112.112-.168.112" transform="translate(-18.911 -56.947)"/>
        <path id="패스_2083" data-name="패스 2083" class="cls-6" d="M37.392,129.751c-.056,0-.168-.056-.168-.112a.855.855,0,0,1-.224-.56.253.253,0,0,1,.5-.056.591.591,0,0,0,.112.28c.056.112.056.28-.056.336-.056.112-.112.112-.168.112" transform="translate(-16.269 -56.771)"/>
        <path id="패스_2084" data-name="패스 2084" class="cls-6" d="M37.592,125.351c-.056,0-.168-.056-.168-.112a.855.855,0,0,1-.224-.56c0-.112.056-.28.224-.28s.28.056.28.224a.591.591,0,0,0,.112.28c.056.112.056.28-.056.336-.056.112-.112.112-.168.112" transform="translate(-16.357 -54.833)"/>
        <path id="패스_2085" data-name="패스 2085" class="cls-6" d="M40.492,119.351c-.056,0-.168-.056-.168-.112a.855.855,0,0,1-.224-.56c0-.112.056-.28.224-.28s.28.056.28.224a.591.591,0,0,0,.112.28.211.211,0,0,1-.056.336c-.056.056-.112.112-.168.112" transform="translate(-17.634 -52.191)"/>
        <path id="패스_2086" data-name="패스 2086" class="cls-6" d="M40.492,127.751c-.056,0-.168-.056-.168-.112a.855.855,0,0,1-.224-.56c0-.112.056-.28.224-.28s.28.056.28.224a.591.591,0,0,0,.112.28c.056.112.056.28-.056.336-.056.112-.112.112-.168.112" transform="translate(-17.634 -55.89)"/>
        <path id="패스_2087" data-name="패스 2087" class="cls-6" d="M73.995,146a.206.206,0,0,1-.168-.056c-.112-.056-.112-.224-.056-.336a.591.591,0,0,0,.112-.28.253.253,0,1,1,.5.056,1.182,1.182,0,0,1-.224.56c0,.056-.112.056-.168.056" transform="translate(-32.444 -63.948)"/>
        <path id="패스_2088" data-name="패스 2088" class="cls-6" d="M72.695,142.6a.206.206,0,0,1-.168-.056c-.112-.056-.112-.224-.056-.336a.591.591,0,0,0,.112-.28.253.253,0,0,1,.5.056,1.182,1.182,0,0,1-.224.56c-.056,0-.112.056-.168.056" transform="translate(-31.872 -62.451)"/>
        <path id="패스_2089" data-name="패스 2089" class="cls-6" d="M79.695,139.2a.206.206,0,0,1-.168-.056c-.112-.056-.112-.224-.056-.336a.591.591,0,0,0,.112-.28.253.253,0,0,1,.5.056,1.182,1.182,0,0,1-.224.56.245.245,0,0,1-.168.056" transform="translate(-34.954 -60.954)"/>
        <path id="패스_2090" data-name="패스 2090" class="cls-6" d="M77.295,143.6a.206.206,0,0,1-.168-.056c-.112-.056-.112-.224-.056-.336a.591.591,0,0,0,.112-.28.256.256,0,0,1,.28-.224c.112,0,.224.168.224.28a.833.833,0,0,1-.224.5c0,.112-.112.112-.168.112" transform="translate(-33.897 -62.891)"/>
        <path id="패스_2091" data-name="패스 2091" class="cls-6" d="M76.495,140.9a.206.206,0,0,1-.168-.056c-.112-.056-.112-.224-.056-.336a.591.591,0,0,0,.112-.28.253.253,0,0,1,.5.056,1.182,1.182,0,0,1-.224.56.564.564,0,0,1-.168.056" transform="translate(-33.545 -61.703)"/>
        <path id="패스_2092" data-name="패스 2092" class="cls-6" d="M80.295,142.6a.206.206,0,0,1-.168-.056c-.112-.056-.112-.224-.056-.336a.591.591,0,0,0,.112-.28.253.253,0,0,1,.5.056.833.833,0,0,1-.224.5c0,.056-.056.112-.168.112" transform="translate(-35.218 -62.451)"/>
        <path id="패스_2093" data-name="패스 2093" class="cls-6" d="M76.195,147.8a.206.206,0,0,1-.168-.056c-.112-.056-.112-.224-.056-.336a.591.591,0,0,0,.112-.28.253.253,0,0,1,.5.056,1.182,1.182,0,0,1-.224.56c-.056,0-.112.056-.168.056" transform="translate(-33.413 -64.741)"/>
        <path id="패스_2094" data-name="패스 2094" class="cls-6" d="M76.663,74.834h0c-.168,0-.28-.168-.224-.28a.832.832,0,0,0-.056-.336.25.25,0,1,1,.448-.224,1.656,1.656,0,0,1,.112.56c-.056.168-.168.28-.28.28" transform="translate(-33.6 -32.579)"/>
        <path id="패스_2095" data-name="패스 2095" class="cls-6" d="M71.963,65.178h0c-.168,0-.28-.168-.224-.28,0-.056,0-.224-.056-.28a.25.25,0,0,1,.448-.224,1.656,1.656,0,0,1,.112.56.286.286,0,0,1-.28.224" transform="translate(-31.531 -28.352)"/>
        <path id="패스_2096" data-name="패스 2096" class="cls-6" d="M76.463,65.234h0c-.168,0-.28-.168-.224-.28a.832.832,0,0,0-.056-.336.25.25,0,0,1,.448-.224,1.988,1.988,0,0,1,.112.56c-.056.168-.168.28-.28.28" transform="translate(-33.512 -28.352)"/>
        <path id="패스_2097" data-name="패스 2097" class="cls-6" d="M70.863,60.934h0c-.168,0-.28-.168-.224-.28a.832.832,0,0,0-.056-.336.25.25,0,1,1,.448-.224,1.989,1.989,0,0,1,.112.56c-.056.224-.168.28-.28.28" transform="translate(-31.047 -26.459)"/>
        <path id="패스_2098" data-name="패스 2098" class="cls-6" d="M74.963,55.734h0c-.168,0-.28-.168-.224-.28a.832.832,0,0,0-.056-.336.25.25,0,1,1,.448-.224,1.988,1.988,0,0,1,.112.56c-.056.168-.112.28-.28.28" transform="translate(-32.852 -24.169)"/>
        <path id="패스_2099" data-name="패스 2099" class="cls-6" d="M74.163,62.634h0c-.168,0-.28-.112-.224-.28a.832.832,0,0,0-.056-.336.25.25,0,1,1,.448-.224,1.656,1.656,0,0,1,.112.56c-.056.168-.112.28-.28.28" transform="translate(-32.5 -27.207)"/>
        <path id="패스_2100" data-name="패스 2100" class="cls-6" d="M72.863,52.478h0c-.168,0-.28-.168-.224-.28,0-.056,0-.224-.056-.28a.25.25,0,1,1,.448-.224,1.988,1.988,0,0,1,.112.56.372.372,0,0,1-.28.224" transform="translate(-31.927 -22.76)"/>
        <path id="패스_2101" data-name="패스 2101" class="cls-6" d="M71.763,56.434h0c-.168,0-.28-.168-.224-.28a.832.832,0,0,0-.056-.336.25.25,0,1,1,.448-.224,1.988,1.988,0,0,1,.112.56c-.056.224-.168.28-.28.28" transform="translate(-31.443 -24.477)"/>
        <path id="패스_2102" data-name="패스 2102" class="cls-6" d="M73.863,58.734h0c-.168,0-.28-.112-.224-.28a.832.832,0,0,0-.056-.336.25.25,0,0,1,.448-.224,1.656,1.656,0,0,1,.112.56c-.056.224-.168.28-.28.28" transform="translate(-32.368 -25.49)"/>
        <path id="패스_2103" data-name="패스 2103" class="cls-6" d="M75.263,68.434h0c-.168,0-.28-.168-.224-.28a.832.832,0,0,0-.056-.336.25.25,0,1,1,.448-.224,1.988,1.988,0,0,1,.112.56c-.056.168-.168.28-.28.28" transform="translate(-32.984 -29.761)"/>
        <path id="패스_2104" data-name="패스 2104" class="cls-6" d="M74.063,72.634h0c-.168,0-.28-.168-.224-.28a.832.832,0,0,0-.056-.336.25.25,0,1,1,.448-.224,1.988,1.988,0,0,1,.112.56c-.056.224-.168.28-.28.28" transform="translate(-32.456 -31.611)"/>
        <path id="패스_2105" data-name="패스 2105" class="cls-6" d="M76.963,71.234h0c-.168,0-.28-.168-.224-.28a.832.832,0,0,0-.056-.336.25.25,0,1,1,.448-.224,1.988,1.988,0,0,1,.112.56c-.056.168-.168.28-.28.28" transform="translate(-33.733 -30.994)"/>
        <path id="패스_2106" data-name="패스 2106" class="cls-6" d="M71.863,69.634h0c-.168,0-.28-.168-.224-.28a.832.832,0,0,0-.056-.336.25.25,0,1,1,.448-.224,1.988,1.988,0,0,1,.112.56c-.056.168-.168.28-.28.28" transform="translate(-31.487 -30.29)"/>
        <path id="패스_2107" data-name="패스 2107" class="cls-4" d="M21.711,86.879s6.548,4.589,10.466-1.679l2.071,6.548S28.035,98.632,20.2,90.629Z" transform="translate(-8.871 -37.572)"/>
        <path id="패스_2108" data-name="패스 2108" class="cls-6" d="M24.521,95.14A13.787,13.787,0,0,1,20.1,91.95l1.511-3.75a10.793,10.793,0,0,0,4.03,1.567,2.058,2.058,0,0,0-.616,2.686,2.694,2.694,0,0,1-.056,2.015Z" transform="translate(-8.827 -38.893)"/>
        <path id="패스_2109" data-name="패스 2109" class="cls-6" d="M26.1,40.059l.168-.168c.56-.616,2.686-2.519,2.127-4.477,0,0,2.351-.392,5.821-3.414,0,0-3.246,2.91-1.9,4.813A13.62,13.62,0,0,0,26.1,40.059" transform="translate(-11.469 -14.147)"/>
        <path id="패스_2110" data-name="패스 2110" class="cls-3" d="M13.3,82.228A.241.241,0,0,1,13.077,82a6.338,6.338,0,0,0-.28-1.175,8.551,8.551,0,0,0-5.429-4.981A.231.231,0,0,1,7.48,75.4c4.2,1.511,5.429,4.421,5.709,5.261a6.4,6.4,0,0,1,.28,1.287.189.189,0,0,1-.168.28Z" transform="translate(-3.147 -33.257)"/>
        <path id="패스_2111" data-name="패스 2111" class="cls-3" d="M16.856,79.346c4.365-6.436,2.854-5.485,2.854-5.485-1.847,1.455-2.63,4.2-2.91,5.317Z" transform="translate(-7.374 -32.558)"/>
        <path id="패스_2112" data-name="패스 2112" class="cls-8" d="M62.279,79.031s3.078-6.324,10.074-1.119L72.3,76.457s-7.556-5.709-11.7,2.351Z" transform="translate(-26.66 -32.858)"/>
        <path id="패스_2113" data-name="패스 2113" class="cls-8" d="M38.831,77a26.467,26.467,0,0,0,1.007,3.3l-1.959.168-.28-1.9Z" transform="translate(-16.533 -33.962)"/>
        <path id="패스_2114" data-name="패스 2114" class="cls-8" d="M81.7,116.663l1.959-1.063.336,1.679-2.071,1.007Z" transform="translate(-35.951 -50.958)"/>
        <path id="패스_2115" data-name="패스 2115" class="cls-9" d="M35.38,82.124a87.138,87.138,0,0,0-2.63,11.305,55.156,55.156,0,0,0-.392,16.342,45.309,45.309,0,0,0,1.007,5.373c.224.839.5,1.679.784,2.518.168.448.5,2.239.9,2.463,0,0,8.955,9.346,28.039-.056l-3.3-18.3S51.331,100.033,49.764,81.9c-3.806.112-7.276,0-11.081.112-1.119.056-2.239.112-3.3.112" transform="translate(-14.033 -36.119)"/>
        <path id="패스_2116" data-name="패스 2116" class="cls-5" d="M41.9,98.9a26.022,26.022,0,0,0,5.261.392l.392,5.988-5.541-1.343Z" transform="translate(-18.426 -43.605)"/>
        <path id="패스_2117" data-name="패스 2117" class="cls-10" d="M42.012,106.618a8.16,8.16,0,0,0,5.653,1.119l-.112-1.511s-1.959-3.414-5.653-3.526Z" transform="translate(-18.426 -45.278)"/>
        <path id="패스_2118" data-name="패스 2118" class="cls-11" d="M39.9,84.048a.448.448,0,1,1-.9,0,.412.412,0,0,1,.448-.448.441.441,0,0,1,.448.448" transform="translate(-17.149 -36.868)"/>
        <path id="패스_2119" data-name="패스 2119" class="cls-11" d="M84.8,148.548a.448.448,0,1,1-.448-.448c.224.056.448.224.448.448" transform="translate(-36.92 -65.269)"/>
        <path id="패스_2120" data-name="패스 2120" class="cls-11" d="M55.6,154.448a.448.448,0,1,1-.448-.448c.28.056.448.224.448.448" transform="translate(-24.063 -67.867)"/>
        <path id="패스_2121" data-name="패스 2121" class="cls-11" d="M48.4,153.048a.448.448,0,1,1-.448-.448.482.482,0,0,1,.448.448" transform="translate(-20.892 -67.251)"/>
        <path id="패스_2122" data-name="패스 2122" class="cls-11" d="M61.3,83.848a.448.448,0,1,1-.448-.448.441.441,0,0,1,.448.448" transform="translate(-26.572 -36.78)"/>
        <path id="패스_2123" data-name="패스 2123" class="cls-11" d="M64.867,78.443l-.112-.056c-.056.112-.168.112-.28.112a.336.336,0,0,1-.224-.056l-.672-.5c-.112-.056-.112-.168-.112-.28a.336.336,0,0,1,.056-.224c.056-.112.168-.112.28-.112a.336.336,0,0,1,.224.056l.672.5c.112.056.112.168.112.28a.336.336,0,0,1-.056.224l.112.056.112.056a.8.8,0,0,0,.112-.336.509.509,0,0,0-.224-.448l-.672-.5a.8.8,0,0,0-.336-.112.509.509,0,0,0-.448.224h0a.8.8,0,0,0-.112.336.509.509,0,0,0,.224.448l.672.5a.8.8,0,0,0,.336.112.509.509,0,0,0,.448-.224Z" transform="translate(-27.849 -34.006)"/>
        <path id="패스_2124" data-name="패스 2124" class="cls-11" d="M39.091,78.492l-.112.056v.112a.348.348,0,0,1-.224.336l-.784.336H37.86a.348.348,0,0,1-.336-.224V79a.348.348,0,0,1,.224-.336h0l.784-.336h.112a.348.348,0,0,1,.336.224l.112-.056.112-.056a.616.616,0,0,0-.56-.336.336.336,0,0,0-.224.056l-.784.336h0a.616.616,0,0,0-.336.56.336.336,0,0,0,.056.224.616.616,0,0,0,.56.336.337.337,0,0,0,.224-.056l.784-.336a.616.616,0,0,0,.336-.56.336.336,0,0,0-.056-.224Z" transform="translate(-16.401 -34.446)"/>
        <rect id="사각형_202" data-name="사각형 202" class="cls-12" width="2.295" height="2.295" transform="translate(33.86 48.006) rotate(-7.342)"/>
        <path id="패스_2125" data-name="패스 2125" class="cls-6" d="M63.031,87.3l-.448.056a.461.461,0,0,0-.392.56v.056a.056.056,0,0,0,.112,0v-.056c-.056-.168.112-.336.28-.392l.448-.056a.055.055,0,0,0,.056-.056c0-.112,0-.112-.056-.112" transform="translate(-27.357 -38.497)"/>
        <path id="패스_2126" data-name="패스 2126" class="cls-6" d="M62.926,86.8l-.616.112a.75.75,0,0,0-.616.84v.056a.056.056,0,1,0,.112,0v-.056a.58.58,0,0,1,.448-.672l.616-.112a.055.055,0,0,0,.056-.056c.056-.112.056-.112,0-.112" transform="translate(-27.139 -38.277)"/>
        <path id="패스_2127" data-name="패스 2127" class="cls-6" d="M62.852,86.3l-.784.112a.907.907,0,0,0-.784,1.063v.056a.056.056,0,0,0,.112,0v-.056a.86.86,0,0,1,.672-.951l.784-.112a.055.055,0,0,0,.056-.056c.056,0,0-.056-.056-.056" transform="translate(-26.954 -38.057)"/>
        <path id="패스_2128" data-name="패스 2128" class="cls-13" d="M52.335,90.69,44.5,87.5l.112.616,8.171,3.526Z" transform="translate(-19.571 -38.585)"/>
        <path id="패스_2129" data-name="패스 2129" class="cls-6" d="M53.812,90.708l-5.6-6.884L47.6,83.6l4.645,6.94Z" transform="translate(-20.936 -36.868)"/>
        <path id="패스_2130" data-name="패스 2130" class="cls-13" d="M54.543,92.275a.3.3,0,1,1-.168-.392.341.341,0,0,1,.168.392" transform="translate(-23.738 -40.506)"/>
        <path id="패스_2131" data-name="패스 2131" class="cls-14" d="M60.314,88.8a1.949,1.949,0,1,0,1.119,2.519A1.991,1.991,0,0,0,60.314,88.8M59.195,91.65a1.169,1.169,0,1,1,1.511-.672,1.2,1.2,0,0,1-1.511.672" transform="translate(-25.367 -39.097)"/>
        <path id="패스_2132" data-name="패스 2132" class="cls-14" d="M55.214,95.1a1.949,1.949,0,1,0,1.119,2.519A2.013,2.013,0,0,0,55.214,95.1m-1.175,2.966a1.206,1.206,0,1,1,1.567-.672,1.22,1.22,0,0,1-1.567.672" transform="translate(-23.121 -41.871)"/>
        <path id="패스_2133" data-name="패스 2133" class="cls-14" d="M56.268,92.3l-.168.784,2.127.9-.672-1.287Z" transform="translate(-24.679 -40.699)"/>
        <path id="패스_2134" data-name="패스 2134" class="cls-14" d="M55.34,93l-.84.5.5,1.007,1.959.448Z" transform="translate(-23.974 -41.007)"/>
        <path id="패스_2135" data-name="패스 2135" class="cls-4" d="M73.7,95.465s8,2.071,8.4-4.03c0,0,1.119-3.694-5.149-7.835,0,0,2.183,6.324-3.47,6.324,0,.056-3.078.728.224,5.541" transform="translate(-31.755 -36.868)"/>
        <path id="패스_2136" data-name="패스 2136" class="cls-6" d="M70.937,100.088A13.306,13.306,0,0,1,65.9,98.074l.56-3.974a9.927,9.927,0,0,0,4.309.5,2.015,2.015,0,0,0,.056,2.742s.728,1.175.448,1.959Z" transform="translate(-28.994 -41.491)"/>
        <path id="패스_2137" data-name="패스 2137" class="cls-15" d="M61.387,92.112l2.519,1.007-.56,3.974L60.1,94.686A6.467,6.467,0,0,1,61.275,92" transform="translate(-26.44 -40.567)"/>
        <rect id="사각형_203" data-name="사각형 203" class="cls-16" width="8.395" height="0.84" transform="matrix(0.407, -0.913, 0.913, 0.407, 29.763, 69.431)"/>
        <path id="패스_2138" data-name="패스 2138" class="cls-17" d="M58.284,112.963l-.784-.336.951-2.127.784.336Z" transform="translate(-25.295 -48.713)"/>
        <rect id="사각형_204" data-name="사각형 204" class="cls-17" width="2.351" height="0.224" transform="translate(32.867 64.885) rotate(-66.026)"/>
        <rect id="사각형_205" data-name="사각형 205" class="cls-17" width="0.448" height="0.224" transform="matrix(0.409, -0.913, 0.913, 0.409, 33.488, 63.08)"/>
        <rect id="사각형_206" data-name="사각형 206" class="cls-18" width="6.044" height="0.84" transform="translate(29.508 69.952) rotate(-81.466)"/>
        <path id="패스_2139" data-name="패스 2139" class="cls-19" d="M55.139,112.927l-.84-.112.448-2.015.392.056Z" transform="translate(-23.886 -48.845)"/>
        <rect id="사각형_207" data-name="사각형 207" class="cls-16" width="4.086" height="7.5" transform="translate(24.435 64.98) rotate(-25.151)"/>
        <path id="패스_2140" data-name="패스 2140" class="cls-20" d="M44.492,115.56c0,.056,0,.112-.056.112s-.112,0-.112-.056l-.224-.5c0-.056,0-.112.056-.112s.112,0,.112.056Z" transform="translate(-19.395 -50.694)"/>
        <path id="패스_2141" data-name="패스 2141" class="cls-20" d="M45.492,115.06c0,.056,0,.112-.056.112s-.112,0-.112-.056l-.224-.5c0-.056,0-.112.056-.112s.112,0,.112.056Z" transform="translate(-19.835 -50.474)"/>
        <path id="패스_2142" data-name="패스 2142" class="cls-20" d="M46.492,114.66c0,.056,0,.112-.056.112s-.112,0-.112-.056l-.224-.5c0-.056,0-.112.056-.112s.112,0,.112.056Z" transform="translate(-20.276 -50.298)"/>
        <path id="패스_2143" data-name="패스 2143" class="cls-20" d="M47.492,114.26c0,.056,0,.112-.056.112s-.112,0-.112-.056l-.224-.5c0-.056,0-.112.056-.112s.112,0,.112.056Z" transform="translate(-20.716 -50.122)"/>
        <path id="패스_2144" data-name="패스 2144" class="cls-20" d="M48.492,113.76c0,.056,0,.112-.056.112s-.112,0-.112-.056l-.224-.5c0-.056,0-.112.056-.112s.112,0,.112.056Z" transform="translate(-21.156 -49.902)"/>
        <path id="패스_2145" data-name="패스 2145" class="cls-20" d="M49.448,113.36c0,.056,0,.112-.056.112s-.112,0-.112-.056l-.28-.5c0-.056,0-.112.056-.112s.112,0,.112.056Z" transform="translate(-21.553 -49.725)"/>
        <path id="패스_2146" data-name="패스 2146" class="cls-10" d="M37.1,115.9a.882.882,0,0,1,.224.056,39.9,39.9,0,0,0,11.529,1.231l.168,9.011c0-.056-11.641-.616-11.921-10.3" transform="translate(-16.313 -51.09)"/>
        <path id="패스_2147" data-name="패스 2147" class="cls-3" d="M12.93,88.313a.336.336,0,0,1-.224.056,2.738,2.738,0,0,0-.784-.392,6.217,6.217,0,0,0-5.317.672c-.112.056-.168,0-.224-.056s0-.168.056-.224a6.626,6.626,0,0,1,5.653-.728,6.213,6.213,0,0,1,.84.448c.056,0,.056.112,0,.224Z" transform="translate(-2.776 -38.502)"/>
        <path id="패스_2148" data-name="패스 2148" class="cls-21" d="M4.786,88.858a2.68,2.68,0,0,0-.5-1.175,3.281,3.281,0,0,0,1.063.728,1.337,1.337,0,0,0,1.567-1.231,1.363,1.363,0,0,0-1.4-1.455,2.68,2.68,0,0,0-1.175.5,2.443,2.443,0,0,0,.672-1.063A1.337,1.337,0,0,0,3.779,83.6,1.363,1.363,0,0,0,2.324,85a2.68,2.68,0,0,0,.5,1.175A2.443,2.443,0,0,0,1.764,85.5,1.337,1.337,0,0,0,.2,86.731a1.363,1.363,0,0,0,1.4,1.455,2.68,2.68,0,0,0,1.175-.5A2.443,2.443,0,0,0,2.1,88.746a1.337,1.337,0,0,0,1.231,1.567,1.381,1.381,0,0,0,1.455-1.455" transform="translate(-0.061 -36.865)"/>
        <path id="패스_2149" data-name="패스 2149" class="cls-6" d="M5.88,89.08h0c-.056,0-.056-.056-.112-.056s-.056-.056-.112-.056a.2.2,0,0,1-.056-.112c0-.056,0-.056.056-.056h.056l.056.056.056.056a.206.206,0,0,0,.056.168" transform="translate(-2.442 -39.157)"/>
        <path id="패스_2150" data-name="패스 2150" class="cls-6" d="M6.6,89.9h0c.056,0,.056.056.112.056s.056.056.112.056a.2.2,0,0,1,.056.112.055.055,0,0,1-.056.056H6.768l-.056-.056-.056-.056A.433.433,0,0,1,6.6,89.9" transform="translate(-2.883 -39.642)"/>
        <path id="패스_2151" data-name="패스 2151" class="cls-6" d="M6.6,89.08h0c0-.056.056-.056.056-.112s.056-.056.056-.112l.056-.056c.056,0,.056,0,.056.056v.112l-.056.056c-.056,0-.112.056-.168.056" transform="translate(-2.883 -39.157)"/>
        <path id="패스_2152" data-name="패스 2152" class="cls-6" d="M5.824,89.8h0l-.056.112c0,.056-.056.056-.056.112l-.056.056c-.056,0-.056,0-.056-.056v-.056l.056-.056.056-.056a.2.2,0,0,1,.112-.056" transform="translate(-2.442 -39.598)"/>
        <path id="패스_2153" data-name="패스 2153" class="cls-22" d="M3,75.565A4.124,4.124,0,0,0,3.787,74a4.355,4.355,0,0,0,.224,1.735,1.781,1.781,0,0,0,2.63.56,1.823,1.823,0,0,0,.28-2.686,4.124,4.124,0,0,0-1.567-.784A3.546,3.546,0,0,0,7.089,72.6a1.812,1.812,0,1,0-2.127-2.91,3.457,3.457,0,0,0-.784,1.567,3.95,3.95,0,0,0-.224-1.679,1.781,1.781,0,0,0-2.63-.56,1.823,1.823,0,0,0-.28,2.686,4.124,4.124,0,0,0,1.567.784,4.355,4.355,0,0,0-1.735.224,1.781,1.781,0,0,0-.56,2.63A1.824,1.824,0,0,0,3,75.565" transform="translate(0.042 -30.288)"/>
        <path id="패스_2154" data-name="패스 2154" class="cls-6" d="M7.3,74.815h0v-.336a.2.2,0,0,1,.056-.112c.056-.056.056-.056.112,0v.112c0,.056,0,.056-.056.112-.056.112-.056.168-.112.224" transform="translate(-3.191 -32.784)"/>
        <path id="패스_2155" data-name="패스 2155" class="cls-6" d="M6.968,76.3h0v.28c0,.056,0,.112-.056.112H6.8v-.168c.112-.112.168-.168.168-.224" transform="translate(-2.971 -33.653)"/>
        <path id="패스_2156" data-name="패스 2156" class="cls-6" d="M7.8,75.8h.28c.056,0,.056,0,.112.056s.056.056,0,.112H8.08a.055.055,0,0,1-.056-.056c-.112-.056-.168-.056-.224-.112" transform="translate(-3.411 -33.433)"/>
        <path id="패스_2157" data-name="패스 2157" class="cls-6" d="M6.372,75.512h0a.2.2,0,0,0-.112.056H6.092c-.056,0-.112,0-.112-.056-.056-.056,0-.056,0-.112h.168a.055.055,0,0,1,.056.056.564.564,0,0,0,.168.056" transform="translate(-2.599 -33.257)"/>
        <path id="패스_2158" data-name="패스 2158" class="cls-3" d="M14.388,87.5c-1.063,2.127-.5,1.791-.5,1.791a1.918,1.918,0,0,0,.56-1.735Z" transform="translate(-6.025 -38.585)"/>
        <path id="패스_2159" data-name="패스 2159" class="cls-3" d="M12.587,86.459C11.3,84.444,11.3,85.115,11.3,85.115a2.177,2.177,0,0,0,1.175,1.4Z" transform="translate(-4.952 -37.488)"/>
        <path id="패스_2160" data-name="패스 2160" class="cls-15" d="M17.4,85.312l2.183,1.567-1.511,3.75L15.5,87.551A6.847,6.847,0,0,1,17.291,85.2" transform="translate(-6.801 -37.572)"/>
      </g>
      <g id="그룹_593" data-name="그룹 593" transform="translate(58.796 673.775)">
        <path id="패스_2238" data-name="패스 2238" class="cls-2" d="M53.138,38.972h0c-.065,0-.1-.065-.065-.1A29.506,29.506,0,0,0,53.106,23.8c0-.032,0-.065.065-.1.032,0,.065,0,.1.065a29.759,29.759,0,0,1-.032,15.142c-.032.032-.065.065-.1.065" transform="translate(-35.856 -16.006)"/>
        <path id="패스_2239" data-name="패스 2239" class="cls-2" d="M54.837,28.969c-.032,0-.032,0-.065-.032s0-.065.032-.1l1.816-1.167c.032-.032.065,0,.1.032s0,.065-.032.1l-1.816,1.167h-.032" transform="translate(-37.004 -18.682)"/>
        <path id="패스_2240" data-name="패스 2240" class="cls-2" d="M50.7,21.469h-.032l-1.232-.875a.073.073,0,0,1,.065-.13l1.2.843,1.783-1.135c.032-.032.065,0,.1.032s0,.065-.032.1l-1.816,1.167H50.7" transform="translate(-33.383 -13.613)"/>
        <path id="패스_2241" data-name="패스 2241" class="cls-2" d="M52.58,34.97h-.032l-1.459-.908a.08.08,0,0,1-.032-.13.119.119,0,0,1,.1-.032l1.459.908a.2.2,0,0,1,.032.13c-.032,0-.032.032-.065.032" transform="translate(-34.487 -22.899)"/>
        <path id="패스_2242" data-name="패스 2242" class="cls-2" d="M56.037,50.572c-.032,0-.032,0-.065-.032s0-.065.032-.1l1.686-1.07c.032-.032.065,0,.1.032s0,.065-.032.1l-1.686,1.038a.032.032,0,0,1-.032.032" transform="translate(-37.815 -33.345)"/>
        <path id="패스_2243" data-name="패스 2243" class="cls-2" d="M53.411,45.838h-.032l-1.329-.875a.1.1,0,0,1,0-.13.119.119,0,0,1,.1-.032l1.329.875a.119.119,0,0,1,.032.1c-.032.065-.065.065-.1.065" transform="translate(-35.156 -30.265)"/>
        <path id="패스_2244" data-name="패스 2244" class="cls-2" d="M52.657,18.794a.07.07,0,0,1-.065-.065L52.3,16.3c0-.032.032-.065.065-.1.032,0,.065.032.1.065l.292,2.432a.086.086,0,0,1-.1.1h0" transform="translate(-35.342 -10.938)"/>
        <path id="패스_2245" data-name="패스 2245" class="cls-2" d="M51.156,27.986h0l-1.492-.324c-.032,0-.065-.032-.065-.1,0-.032.032-.065.1-.065l1.459.292c.032,0,.065.032.065.1,0,.1-.032.1-.065.1" transform="translate(-33.518 -18.574)"/>
        <path id="패스_2246" data-name="패스 2246" class="cls-2" d="M55.665,34.7h-.032a.119.119,0,0,1-.032-.1l.551-.973a.073.073,0,1,1,.13.065l-.551.973a.1.1,0,0,1-.065.032" transform="translate(-37.572 -22.696)"/>
        <path id="패스_2247" data-name="패스 2247" class="cls-2" d="M54.9,59.224c4.637-1.394,3.5-1.524,3.5-1.524a6.92,6.92,0,0,0-3.5,1.394Z" transform="translate(-37.099 -38.982)"/>
        <path id="패스_2248" data-name="패스 2248" class="cls-2" d="M56.3,40c2.659-1.329,1.978-1.3,1.978-1.3A3.852,3.852,0,0,0,56.3,39.932Z" transform="translate(-38.045 -26.143)"/>
        <path id="패스_2249" data-name="패스 2249" class="cls-2" d="M51.14,53c-2.918-2.3-2.075-2.108-2.075-2.108a5.062,5.062,0,0,1,2.108,2.01Z" transform="translate(-33.079 -34.379)"/>
        <path id="패스_2250" data-name="패스 2250" class="cls-2" d="M48.816,60.854c-2.788-3.534-2.529-2.529-2.529-2.529a5.611,5.611,0,0,0,2.529,2.724Z" transform="translate(-31.274 -39.315)"/>
        <path id="패스_2251" data-name="패스 2251" class="cls-22" d="M50.157,13.98a.955.955,0,0,0,.162-.422.744.744,0,0,0,.13.454.461.461,0,0,0,.713.065.481.481,0,0,0,0-.713.955.955,0,0,0-.422-.162.744.744,0,0,0,.454-.13.461.461,0,0,0,.065-.713.481.481,0,0,0-.713,0,.956.956,0,0,0-.162.422.744.744,0,0,0-.13-.454.554.554,0,0,0-.746-.065.481.481,0,0,0,0,.713.956.956,0,0,0,.422.162.744.744,0,0,0-.454.13.461.461,0,0,0-.065.713.493.493,0,0,0,.746,0" transform="translate(-33.296 -8.199)"/>
        <path id="패스_2252" data-name="패스 2252" class="cls-6" d="M52.5,14.8h0v-.1h.032v.1c0-.032,0,0-.032,0" transform="translate(-35.477 -9.925)"/>
        <path id="패스_2253" data-name="패스 2253" class="cls-6" d="M52.432,15.6h0v.1H52.4v-.032h0v-.032a.032.032,0,0,0,.032-.032" transform="translate(-35.41 -10.533)"/>
        <path id="패스_2254" data-name="패스 2254" class="cls-6" d="M52.8,15.3h.1v.032h-.1c.032,0,0-.032,0-.032" transform="translate(-35.68 -10.33)"/>
        <path id="패스_2255" data-name="패스 2255" class="cls-6" d="M52.1,15.232H52V15.2h.065a.032.032,0,0,0,.032.032" transform="translate(-35.14 -10.263)"/>
        <path id="패스_2256" data-name="패스 2256" class="cls-22" d="M52.18,24.54a.453.453,0,0,0,.1-.292.774.774,0,0,0,.065.292.333.333,0,1,0,.486-.454.453.453,0,0,0-.292-.1.774.774,0,0,0,.292-.065.333.333,0,1,0-.454-.486.453.453,0,0,0-.1.292.774.774,0,0,0-.065-.292.333.333,0,1,0-.486.454.453.453,0,0,0,.292.1.774.774,0,0,0-.292.065.36.36,0,0,0-.065.486.337.337,0,0,0,.519,0" transform="translate(-34.866 -15.744)"/>
        <path id="패스_2257" data-name="패스 2257" class="cls-6" d="M53.7,25.1h0V25h.032c0,.065,0,.065-.032.1" transform="translate(-36.288 -16.885)"/>
        <path id="패스_2258" data-name="패스 2258" class="cls-6" d="M53.632,25.6h0v.1H53.6c.032-.065.032-.065.032-.1" transform="translate(-36.221 -17.29)"/>
        <path id="패스_2259" data-name="패스 2259" class="cls-6" d="M53.9,25.449H54v.032h0c-.065-.032-.065-.032-.1-.032" transform="translate(-36.423 -17.172)"/>
        <path id="패스_2260" data-name="패스 2260" class="cls-6" d="M53.4,25.332h-.1V25.3h0c.065.032.065.032.1.032" transform="translate(-36.018 -17.088)"/>
        <path id="패스_2261" data-name="패스 2261" class="cls-22" d="M58.252,26.049a1.079,1.079,0,0,0-.195-.324.876.876,0,0,0,.357.162.377.377,0,0,0,.422-.422.407.407,0,0,0-.486-.389,1.717,1.717,0,0,0-.324.195.875.875,0,0,0,.162-.357.377.377,0,0,0-.422-.422.407.407,0,0,0-.389.486,1.718,1.718,0,0,0,.195.324.875.875,0,0,0-.357-.162.377.377,0,0,0-.422.422.422.422,0,0,0,.486.389.673.673,0,0,0,.324-.195.876.876,0,0,0-.162.357.377.377,0,0,0,.422.422.44.44,0,0,0,.389-.486" transform="translate(-38.376 -16.54)"/>
        <path id="패스_2262" data-name="패스 2262" class="cls-6" d="M59.665,27.3h0a.1.1,0,0,0-.065-.032V27.2h.032c0,.065,0,.065.032.1" transform="translate(-40.275 -18.372)"/>
        <path id="패스_2263" data-name="패스 2263" class="cls-6" d="M60.1,27.7h0a.1.1,0,0,0,.065.032V27.8h-.032c-.032-.065-.032-.065-.032-.1" transform="translate(-40.613 -18.71)"/>
        <path id="패스_2264" data-name="패스 2264" class="cls-6" d="M60.1,27.265h0a.1.1,0,0,0,.032-.065H60.2v.032h0l-.1.032" transform="translate(-40.613 -18.372)"/>
        <path id="패스_2265" data-name="패스 2265" class="cls-6" d="M59.6,27.8h0a.113.113,0,0,1-.032.065H59.5v-.032h0c.065-.032.065-.032.1-.032" transform="translate(-40.208 -18.777)"/>
        <path id="패스_2266" data-name="패스 2266" class="cls-22" d="M49.819,32.49a.749.749,0,0,0-.227-.227,1.2,1.2,0,0,0,.292.065.361.361,0,0,0,.259-.422.335.335,0,0,0-.454-.195.749.749,0,0,0-.227.227,1.2,1.2,0,0,0,.065-.292.361.361,0,0,0-.422-.259.335.335,0,0,0-.195.454.749.749,0,0,0,.227.227A1.2,1.2,0,0,0,48.847,32a.361.361,0,0,0-.259.422.335.335,0,0,0,.454.195.749.749,0,0,0,.227-.227,1.2,1.2,0,0,0-.065.292.327.327,0,1,0,.616-.195" transform="translate(-32.829 -21.197)"/>
        <path id="패스_2267" data-name="패스 2267" class="cls-6" d="M50.7,33.632h-.1V33.6h0c.065,0,.065,0,.1.032-.032-.032-.032,0,0,0" transform="translate(-34.193 -22.696)"/>
        <path id="패스_2268" data-name="패스 2268" class="cls-6" d="M51.2,33.8h.1c-.065.065-.065.032-.1,0h0" transform="translate(-34.599 -22.832)"/>
        <path id="패스_2269" data-name="패스 2269" class="cls-6" d="M51.1,33.465h0V33.4h0c.032.032.032.032,0,.065h0" transform="translate(-34.531 -22.561)"/>
        <path id="패스_2270" data-name="패스 2270" class="cls-6" d="M50.832,33.9h0v.065H50.8c0-.032,0-.032.032-.065h0" transform="translate(-34.329 -22.899)"/>
        <path id="패스_2271" data-name="패스 2271" class="cls-22" d="M49.621,42.653a.92.92,0,0,0-.195-.292.685.685,0,0,0,.324.13.348.348,0,0,0,.357-.389.386.386,0,0,0-.454-.324.92.92,0,0,0-.292.195.685.685,0,0,0,.13-.324.348.348,0,0,0-.389-.357.386.386,0,0,0-.324.454.92.92,0,0,0,.195.292.685.685,0,0,0-.324-.13.348.348,0,0,0-.357.389.386.386,0,0,0,.454.324.92.92,0,0,0,.292-.195.685.685,0,0,0-.13.324.348.348,0,0,0,.389.357.386.386,0,0,0,.324-.454" transform="translate(-32.631 -27.891)"/>
        <path id="패스_2272" data-name="패스 2272" class="cls-6" d="M50.865,43.8h0c-.032,0-.032-.032,0,0-.032,0-.032-.032-.065-.032V43.7h.032c0,.065,0,.065.032.1" transform="translate(-34.329 -29.522)"/>
        <path id="패스_2273" data-name="패스 2273" class="cls-6" d="M51.3,44.2h0c.032,0,.032.032.065.032v.032h-.032A.1.1,0,0,1,51.3,44.2" transform="translate(-34.666 -29.86)"/>
        <path id="패스_2274" data-name="패스 2274" class="cls-6" d="M51.2,43.765h0c0-.032.032-.032.032-.065H51.3c-.065.065-.065.065-.1.065" transform="translate(-34.599 -29.522)"/>
        <path id="패스_2275" data-name="패스 2275" class="cls-6" d="M50.8,44.2h0c0,.032-.032.032-.032.065H50.7v-.032h0c.065,0,.065,0,.1-.032" transform="translate(-34.261 -29.86)"/>
        <path id="패스_2276" data-name="패스 2276" class="cls-22" d="M60.3,48a.583.583,0,0,0-.13-.292c.065.065.162.162.259.162a.34.34,0,0,0,.389-.292.353.353,0,0,0-.324-.357.583.583,0,0,0-.292.13c.065-.065.162-.162.162-.259a.34.34,0,0,0-.292-.389.333.333,0,0,0-.357.324.583.583,0,0,0,.13.292c-.065-.065-.162-.162-.259-.162a.34.34,0,0,0-.389.292.353.353,0,0,0,.324.357.583.583,0,0,0,.292-.13c-.065.065-.162.162-.162.259a.34.34,0,0,0,.292.389A.3.3,0,0,0,60.3,48" transform="translate(-40.005 -31.549)"/>
        <path id="패스_2277" data-name="패스 2277" class="cls-6" d="M61.532,48.965h0l-.032-.032V48.9h0l.032.065" transform="translate(-41.559 -33.036)"/>
        <path id="패스_2278" data-name="패스 2278" class="cls-6" d="M61.8,49.4h0l.032.032v.032h0A.113.113,0,0,0,61.8,49.4" transform="translate(-41.762 -33.373)"/>
        <path id="패스_2279" data-name="패스 2279" class="cls-6" d="M61.9,49.132h0l.032-.032h.032c-.065,0-.065,0-.065.032" transform="translate(-41.83 -33.171)"/>
        <path id="패스_2280" data-name="패스 2280" class="cls-6" d="M61.465,49.4h0l-.032.032H61.4a.1.1,0,0,1,.065-.032" transform="translate(-41.492 -33.373)"/>
        <path id="패스_2281" data-name="패스 2281" class="cls-22" d="M57.378,18.719a.64.64,0,0,0,.195-.357,1.454,1.454,0,0,0,.032.389.442.442,0,0,0,.616.162.426.426,0,0,0,.1-.616.64.64,0,0,0-.357-.195,1.454,1.454,0,0,0,.389-.032.442.442,0,0,0,.162-.616.426.426,0,0,0-.616-.1.641.641,0,0,0-.195.357,1.454,1.454,0,0,0-.032-.389.442.442,0,0,0-.616-.162.426.426,0,0,0-.1.616.641.641,0,0,0,.357.195,1.454,1.454,0,0,0-.389.032.442.442,0,0,0-.162.616.384.384,0,0,0,.616.1" transform="translate(-38.313 -11.544)"/>
        <path id="패스_2282" data-name="패스 2282" class="cls-6" d="M59.6,19.6h0v-.1h.032v.032h0v.032c0,.032,0,.032-.032.032" transform="translate(-40.275 -13.168)"/>
        <path id="패스_2283" data-name="패스 2283" class="cls-6" d="M59.532,20.3h0v.1H59.5v-.032h0v-.032a.032.032,0,0,1,.032-.032" transform="translate(-40.208 -13.709)"/>
        <path id="패스_2284" data-name="패스 2284" class="cls-6" d="M59.8,20.1h.1v.032h-.065A.032.032,0,0,0,59.8,20.1" transform="translate(-40.41 -13.574)"/>
        <path id="패스_2285" data-name="패스 2285" class="cls-6" d="M59.2,19.932h-.1V19.9h.065c0,.032,0,.032.032.032" transform="translate(-39.937 -13.439)"/>
        <path id="패스_2286" data-name="패스 2286" class="cls-22" d="M46.516,19.789c.1-.032.195-.195.259-.292a1.941,1.941,0,0,0-.065.389.4.4,0,0,0,.551.292.4.4,0,0,0,.227-.584c-.032-.1-.195-.195-.292-.259a1.941,1.941,0,0,0,.389.065.4.4,0,0,0,.292-.551.4.4,0,0,0-.584-.227c-.1.032-.195.195-.259.292a1.941,1.941,0,0,0,.065-.389.4.4,0,0,0-.551-.292.4.4,0,0,0-.227.584c.032.1.195.195.292.259a1.941,1.941,0,0,0-.389-.065.418.418,0,1,0,.292.778" transform="translate(-31.018 -12.29)"/>
        <path id="패스_2287" data-name="패스 2287" class="cls-6" d="M49.2,20.9h0v-.065a.032.032,0,0,1,.032-.032h.032v.032h0v.032a.1.1,0,0,1-.065.032" transform="translate(-33.247 -14.047)"/>
        <path id="패스_2288" data-name="패스 2288" class="cls-6" d="M48.865,21.5h0v.065a.032.032,0,0,1-.032.032H48.8v-.032h0v-.032c.032,0,.065,0,.065-.032" transform="translate(-32.977 -14.52)"/>
        <path id="패스_2289" data-name="패스 2289" class="cls-6" d="M49.3,21.4h.065a.032.032,0,0,1,.032.032v.032h-.065c0-.032-.032-.032-.032-.065" transform="translate(-33.315 -14.452)"/>
        <path id="패스_2290" data-name="패스 2290" class="cls-6" d="M48.7,21.065h-.065a.032.032,0,0,1-.032-.032V21h.065c0,.065.032.065.032.065" transform="translate(-32.842 -14.182)"/>
        <path id="패스_2291" data-name="패스 2291" class="cls-22" d="M47.591,26.94a.453.453,0,0,0,.1-.292.774.774,0,0,0,.065.292.333.333,0,1,0,.486-.454.453.453,0,0,0-.292-.1.774.774,0,0,0,.292-.065.333.333,0,1,0-.454-.486.453.453,0,0,0-.1.292.774.774,0,0,0-.065-.292.333.333,0,1,0-.486.454.453.453,0,0,0,.292.1.774.774,0,0,0-.292.065.326.326,0,0,0-.032.486.323.323,0,0,0,.486,0" transform="translate(-31.768 -17.366)"/>
        <path id="패스_2292" data-name="패스 2292" class="cls-6" d="M49.1,27.5h0v-.1h.032c-.032.065-.032.065-.032.1" transform="translate(-33.18 -18.507)"/>
        <path id="패스_2293" data-name="패스 2293" class="cls-6" d="M49.032,28h0v.1H49a.251.251,0,0,0,.032-.1" transform="translate(-33.112 -18.912)"/>
        <path id="패스_2294" data-name="패스 2294" class="cls-6" d="M49.3,27.8h.1v.032h0c-.1,0-.1,0-.1-.032" transform="translate(-33.315 -18.777)"/>
        <path id="패스_2295" data-name="패스 2295" class="cls-6" d="M48.7,27.732h-.1V27.7h0l.1.032" transform="translate(-32.842 -18.71)"/>
        <path id="패스_2296" data-name="패스 2296" class="cls-22" d="M55.513,32.456a1.522,1.522,0,0,0,.292-.195.685.685,0,0,0-.13.324.348.348,0,0,0,.389.357.331.331,0,0,0,.292-.422,1.522,1.522,0,0,0-.195-.292.685.685,0,0,0,.324.13.348.348,0,0,0,.357-.389.331.331,0,0,0-.422-.292,1.523,1.523,0,0,0-.292.195.685.685,0,0,0,.13-.324.348.348,0,0,0-.389-.357.331.331,0,0,0-.292.422,1.522,1.522,0,0,0,.195.292.685.685,0,0,0-.324-.13.348.348,0,0,0-.357.389.331.331,0,0,0,.422.292" transform="translate(-37.226 -21.066)"/>
        <path id="패스_2297" data-name="패스 2297" class="cls-6" d="M57.9,33.565h0c0-.032.032-.032.032-.065h.032v.032h0c-.032.032-.032.032-.065.032" transform="translate(-39.126 -22.629)"/>
        <path id="패스_2298" data-name="패스 2298" class="cls-6" d="M57.565,34h0c0,.032-.032.032-.032.065H57.5c.032-.065.065-.065.065-.065" transform="translate(-38.856 -22.967)"/>
        <path id="패스_2299" data-name="패스 2299" class="cls-6" d="M58,34h0c.032,0,.032.032.065.032V34.1h-.032L58,34" transform="translate(-39.194 -22.967)"/>
        <path id="패스_2300" data-name="패스 2300" class="cls-6" d="M57.565,33.565h0c-.032,0-.032,0-.065-.032V33.5h.032c0,.065,0,.065.032.065" transform="translate(-38.856 -22.629)"/>
        <path id="패스_2301" data-name="패스 2301" class="cls-2" d="M29.038,26.772h0c-.065,0-.1-.065-.065-.1A29.506,29.506,0,0,0,29.006,11.6c0-.032,0-.065.065-.1.032,0,.065,0,.1.065a29.759,29.759,0,0,1-.032,15.142c-.032.065-.065.065-.1.065" transform="translate(-19.571 -7.762)"/>
        <path id="패스_2302" data-name="패스 2302" class="cls-2" d="M30.737,16.769c-.032,0-.032,0-.065-.032s0-.065.032-.1l1.816-1.167c.032-.032.065,0,.1.032s0,.065-.032.1l-1.816,1.167h-.032" transform="translate(-20.718 -10.437)"/>
        <path id="패스_2303" data-name="패스 2303" class="cls-2" d="M26.6,9.3h-.032l-1.232-.875A.073.073,0,0,1,25.4,8.3l1.2.843L28.38,7.972c.032-.032.065,0,.1.032s0,.065-.032.1L26.662,9.269c-.032.032-.032.032-.065.032" transform="translate(-17.097 -5.369)"/>
        <path id="패스_2304" data-name="패스 2304" class="cls-2" d="M28.5,22.838h-.032L27,21.93c-.032-.032-.065-.065-.032-.1a.119.119,0,0,1,.1-.032l1.459.908a.119.119,0,0,1,.032.1c-.032.032-.032.032-.065.032" transform="translate(-18.218 -14.723)"/>
        <path id="패스_2305" data-name="패스 2305" class="cls-2" d="M31.937,38.372c-.032,0-.032,0-.065-.032s0-.065.032-.1l1.686-1.07c.032-.032.065,0,.1.032s0,.065-.032.1l-1.686,1.07h-.032" transform="translate(-21.529 -25.101)"/>
        <path id="패스_2306" data-name="패스 2306" class="cls-2" d="M29.327,33.705h-.032l-1.362-.875A.073.073,0,0,1,28,32.7l1.329.875a.119.119,0,0,1,.032.1.032.032,0,0,1-.032.032" transform="translate(-18.854 -22.088)"/>
        <path id="패스_2307" data-name="패스 2307" class="cls-2" d="M28.557,6.694a.07.07,0,0,1-.065-.065L28.2,4.2c0-.032.032-.065.065-.1a.07.07,0,0,1,.065.065L28.622,6.6c.032.032,0,.065-.065.1h0" transform="translate(-19.056 -2.762)"/>
        <path id="패스_2308" data-name="패스 2308" class="cls-2" d="M27.056,15.886h0l-1.492-.324c-.032,0-.065-.032-.065-.1,0-.032.032-.065.1-.065l1.459.292c.032,0,.065.032.065.1s0,.1-.065.1" transform="translate(-17.232 -10.398)"/>
        <path id="패스_2309" data-name="패스 2309" class="cls-2" d="M31.565,22.6h-.032a.119.119,0,0,1-.032-.1l.551-.973a.073.073,0,1,1,.13.065l-.551.973c-.032.032-.032.032-.065.032" transform="translate(-21.286 -14.52)"/>
        <path id="패스_2310" data-name="패스 2310" class="cls-2" d="M30.9,47.124c4.637-1.394,3.5-1.524,3.5-1.524a6.92,6.92,0,0,0-3.5,1.394Z" transform="translate(-20.881 -30.806)"/>
        <path id="패스_2311" data-name="패스 2311" class="cls-2" d="M32.2,27.9c2.659-1.329,1.978-1.3,1.978-1.3A3.852,3.852,0,0,0,32.2,27.832Z" transform="translate(-21.76 -17.966)"/>
        <path id="패스_2312" data-name="패스 2312" class="cls-2" d="M27.04,40.8c-2.918-2.3-2.075-2.108-2.075-2.108a5.062,5.062,0,0,1,2.108,2.01Z" transform="translate(-16.794 -26.134)"/>
        <path id="패스_2313" data-name="패스 2313" class="cls-2" d="M24.716,48.654c-2.788-3.534-2.529-2.529-2.529-2.529a5.611,5.611,0,0,0,2.529,2.724Z" transform="translate(-14.989 -31.071)"/>
        <path id="패스_2314" data-name="패스 2314" class="cls-22" d="M26.124,1.829a.956.956,0,0,0,.162-.422.744.744,0,0,0,.13.454.461.461,0,0,0,.713.065.481.481,0,0,0,0-.713.955.955,0,0,0-.422-.162.744.744,0,0,0,.454-.13.461.461,0,0,0,.065-.713.481.481,0,0,0-.713,0,.956.956,0,0,0-.162.422.744.744,0,0,0-.13-.454.461.461,0,0,0-.713-.065.481.481,0,0,0,0,.713.955.955,0,0,0,.422.162.81.81,0,0,0-.454.13.461.461,0,0,0-.065.713.481.481,0,0,0,.713,0" transform="translate(-17.078 0.028)"/>
        <path id="패스_2315" data-name="패스 2315" class="cls-6" d="M28.4,2.7h0V2.6h.032v.1c0-.032,0-.032-.032,0" transform="translate(-19.192 -1.748)"/>
        <path id="패스_2316" data-name="패스 2316" class="cls-6" d="M28.332,3.4h0v.1H28.3V3.465h0V3.432c.032,0,.032,0,.032-.032" transform="translate(-19.124 -2.289)"/>
        <path id="패스_2317" data-name="패스 2317" class="cls-6" d="M28.7,3.2h.1v.032h-.1c.032-.032,0-.032,0-.032" transform="translate(-19.394 -2.153)"/>
        <path id="패스_2318" data-name="패스 2318" class="cls-6" d="M28,3.032h-.1V3h.065c0,.032,0,.032.032.032" transform="translate(-18.854 -2.018)"/>
        <path id="패스_2319" data-name="패스 2319" class="cls-22" d="M28.091,12.44a.453.453,0,0,0,.1-.292.774.774,0,0,0,.065.292.333.333,0,1,0,.486-.454.453.453,0,0,0-.292-.1.774.774,0,0,0,.292-.065.333.333,0,1,0-.454-.486.453.453,0,0,0-.1.292.774.774,0,0,0-.065-.292.333.333,0,1,0-.486.454.453.453,0,0,0,.292.1.774.774,0,0,0-.292.065.333.333,0,1,0,.454.486" transform="translate(-18.591 -7.567)"/>
        <path id="패스_2320" data-name="패스 2320" class="cls-6" d="M29.67,12.9h0v-.1H29.7l-.032.1" transform="translate(-20.04 -8.641)"/>
        <path id="패스_2321" data-name="패스 2321" class="cls-6" d="M29.632,13.5h0v.1H29.6c0-.065,0-.1.032-.1" transform="translate(-20.003 -9.114)"/>
        <path id="패스_2322" data-name="패스 2322" class="cls-6" d="M29.8,13.3h.1v.032h0c-.065,0-.065-.032-.1-.032" transform="translate(-20.138 -8.979)"/>
        <path id="패스_2323" data-name="패스 2323" class="cls-6" d="M29.3,13.232h-.1V13.2h0a.251.251,0,0,0,.1.032" transform="translate(-19.732 -8.911)"/>
        <path id="패스_2324" data-name="패스 2324" class="cls-22" d="M34.152,13.849a.673.673,0,0,0-.195-.324.876.876,0,0,0,.357.162.377.377,0,0,0,.422-.422.407.407,0,0,0-.486-.389,1.717,1.717,0,0,0-.324.195.876.876,0,0,0,.162-.357.377.377,0,0,0-.422-.422.407.407,0,0,0-.389.486c0,.1.13.227.195.324a.875.875,0,0,0-.357-.162.377.377,0,0,0-.422.422.422.422,0,0,0,.486.389.673.673,0,0,0,.324-.195.876.876,0,0,0-.162.357.377.377,0,0,0,.422.422.407.407,0,0,0,.389-.486" transform="translate(-22.09 -8.295)"/>
        <path id="패스_2325" data-name="패스 2325" class="cls-6" d="M35.565,15.1h0a.1.1,0,0,0-.065-.032V15h.032a.142.142,0,0,0,.032.1" transform="translate(-23.99 -10.127)"/>
        <path id="패스_2326" data-name="패스 2326" class="cls-6" d="M36,15.6h0a.1.1,0,0,0,.065.032V15.7h-.032A.251.251,0,0,1,36,15.6" transform="translate(-24.327 -10.533)"/>
        <path id="패스_2327" data-name="패스 2327" class="cls-6" d="M36,15.165h0a.1.1,0,0,0,.032-.065H36.1v.032h0a.251.251,0,0,1-.1.032" transform="translate(-24.327 -10.195)"/>
        <path id="패스_2328" data-name="패스 2328" class="cls-6" d="M35.5,15.6h0a.113.113,0,0,1-.032.065H35.4v-.032h0c.065,0,.065-.032.1-.032" transform="translate(-23.922 -10.533)"/>
        <path id="패스_2329" data-name="패스 2329" class="cls-22" d="M25.719,20.39a.749.749,0,0,0-.227-.227,1.2,1.2,0,0,0,.292.065.361.361,0,0,0,.259-.422.335.335,0,0,0-.454-.195.749.749,0,0,0-.227.227,1.2,1.2,0,0,0,.065-.292.361.361,0,0,0-.422-.259.335.335,0,0,0-.195.454.749.749,0,0,0,.227.227,1.2,1.2,0,0,0-.292-.065.361.361,0,0,0-.259.422.335.335,0,0,0,.454.195.749.749,0,0,0,.227-.227,1.2,1.2,0,0,0-.065.292.327.327,0,1,0,.616-.195" transform="translate(-16.543 -13.02)"/>
        <path id="패스_2330" data-name="패스 2330" class="cls-6" d="M26.6,21.432h-.1V21.4h0c.065,0,.065,0,.1.032h0" transform="translate(-17.908 -14.452)"/>
        <path id="패스_2331" data-name="패스 2331" class="cls-6" d="M27.1,21.7h.065c-.032.032-.032.032-.065,0h0" transform="translate(-18.313 -14.655)"/>
        <path id="패스_2332" data-name="패스 2332" class="cls-6" d="M27,21.365h0V21.3h.032c0,.032,0,.032-.032.065.032-.032,0-.032,0,0" transform="translate(-18.246 -14.385)"/>
        <path id="패스_2333" data-name="패스 2333" class="cls-6" d="M26.749,21.8h0v.065h0c-.032-.032-.032-.032,0-.065h0" transform="translate(-18.06 -14.723)"/>
        <path id="패스_2334" data-name="패스 2334" class="cls-22" d="M25.521,30.553a.92.92,0,0,0-.195-.292.685.685,0,0,0,.324.13A.348.348,0,0,0,26.007,30a.386.386,0,0,0-.454-.324.583.583,0,0,0-.292.195.685.685,0,0,0,.13-.324A.348.348,0,0,0,25,29.191a.386.386,0,0,0-.324.454.92.92,0,0,0,.195.292.685.685,0,0,0-.324-.13.348.348,0,0,0-.357.389.386.386,0,0,0,.454.324.92.92,0,0,0,.292-.195.685.685,0,0,0-.13.324.348.348,0,0,0,.389.357.4.4,0,0,0,.324-.454" transform="translate(-16.345 -19.715)"/>
        <path id="패스_2335" data-name="패스 2335" class="cls-6" d="M26.765,31.665h0c-.032,0-.032-.032-.065-.032V31.6h0c.032.032.032.065.065.065" transform="translate(-18.043 -21.345)"/>
        <path id="패스_2336" data-name="패스 2336" class="cls-6" d="M27.2,32.1h0c.032,0,.032.032.065.032v.032h0L27.2,32.1" transform="translate(-18.381 -21.683)"/>
        <path id="패스_2337" data-name="패스 2337" class="cls-6" d="M27.1,31.665h0c.032,0,.032-.032,0,0,0-.032.032-.032.032-.065h.032c-.032.065-.032.065-.065.065" transform="translate(-18.313 -21.345)"/>
        <path id="패스_2338" data-name="패스 2338" class="cls-6" d="M26.7,32.1h0c0,.032-.032.032-.032.065H26.6v-.032h0a.251.251,0,0,1,.1-.032" transform="translate(-17.975 -21.683)"/>
        <path id="패스_2339" data-name="패스 2339" class="cls-22" d="M36.2,35.9a.583.583,0,0,0-.13-.292c.065.065.162.162.259.162a.359.359,0,0,0,.389-.292.353.353,0,0,0-.324-.357.583.583,0,0,0-.292.13c.065-.065.162-.162.162-.259a.34.34,0,0,0-.292-.389.333.333,0,0,0-.357.324.583.583,0,0,0,.13.292c-.065-.065-.162-.162-.259-.162a.34.34,0,0,0-.389.292.353.353,0,0,0,.324.357.583.583,0,0,0,.292-.13c-.065.065-.162.162-.162.259a.34.34,0,0,0,.292.389A.3.3,0,0,0,36.2,35.9" transform="translate(-23.719 -23.372)"/>
        <path id="패스_2340" data-name="패스 2340" class="cls-6" d="M37.432,36.865h0l-.032-.032V36.8h0a.1.1,0,0,1,.032.065" transform="translate(-25.273 -24.859)"/>
        <path id="패스_2341" data-name="패스 2341" class="cls-6" d="M37.8,37.3h0l.032.032v.032h0L37.8,37.3" transform="translate(-25.544 -25.197)"/>
        <path id="패스_2342" data-name="패스 2342" class="cls-6" d="M37.8,36.932h0l.032-.032h.032l-.065.032" transform="translate(-25.544 -24.926)"/>
        <path id="패스_2343" data-name="패스 2343" class="cls-6" d="M37.365,37.2h0l-.032.032H37.3a.113.113,0,0,0,.065-.032" transform="translate(-25.206 -25.129)"/>
        <path id="패스_2344" data-name="패스 2344" class="cls-22" d="M33.378,6.619a.641.641,0,0,0,.195-.357,1.454,1.454,0,0,0,.032.389.442.442,0,0,0,.616.162.426.426,0,0,0,.1-.616A.64.64,0,0,0,33.962,6a1.454,1.454,0,0,0,.389-.032.442.442,0,0,0,.162-.616.426.426,0,0,0-.616-.1.64.64,0,0,0-.195.357,1.454,1.454,0,0,0-.032-.389.442.442,0,0,0-.616-.162.426.426,0,0,0-.1.616.641.641,0,0,0,.357.195,1.454,1.454,0,0,0-.389.032.442.442,0,0,0-.162.616.416.416,0,0,0,.616.1" transform="translate(-22.095 -3.367)"/>
        <path id="패스_2345" data-name="패스 2345" class="cls-6" d="M35.57,7.5h0V7.4H35.6v.032h0v.032a.032.032,0,0,0-.032.032" transform="translate(-24.027 -4.992)"/>
        <path id="패스_2346" data-name="패스 2346" class="cls-6" d="M35.432,8.1h0v.1H35.4V8.165h0V8.132a.032.032,0,0,0,.032-.032" transform="translate(-23.922 -5.465)"/>
        <path id="패스_2347" data-name="패스 2347" class="cls-6" d="M35.7,7.949h.1v.032h-.065c0-.032,0-.032-.032-.032" transform="translate(-24.125 -5.346)"/>
        <path id="패스_2348" data-name="패스 2348" class="cls-6" d="M35.1,7.832H35V7.8h.065l.032.032" transform="translate(-23.652 -5.262)"/>
        <path id="패스_2349" data-name="패스 2349" class="cls-22" d="M22.416,7.689c.1-.032.195-.195.259-.292a1.941,1.941,0,0,0-.065.389.4.4,0,0,0,.551.292.4.4,0,0,0,.227-.584c-.032-.1-.195-.195-.292-.259a1.941,1.941,0,0,0,.389.065.4.4,0,0,0,.292-.551.4.4,0,0,0-.584-.227c-.1.032-.195.195-.259.292A1.941,1.941,0,0,0,23,6.425a.4.4,0,0,0-.551-.292.4.4,0,0,0-.227.584c.032.1.195.195.292.259a1.941,1.941,0,0,0-.389-.065.4.4,0,0,0-.292.551.44.44,0,0,0,.584.227" transform="translate(-14.732 -4.113)"/>
        <path id="패스_2350" data-name="패스 2350" class="cls-6" d="M25.1,8.8h0V8.732a.032.032,0,0,1,.032-.032h.032v.032h0v.032c-.032,0-.065,0-.065.032" transform="translate(-16.962 -5.87)"/>
        <path id="패스_2351" data-name="패스 2351" class="cls-6" d="M24.765,9.4h0v.065a.032.032,0,0,1-.032.032H24.7V9.465h0V9.432a.1.1,0,0,1,.065-.032" transform="translate(-16.691 -6.343)"/>
        <path id="패스_2352" data-name="패스 2352" class="cls-6" d="M25.2,9.3h.065a.032.032,0,0,1,.032.032v.032h-.065A.113.113,0,0,0,25.2,9.3" transform="translate(-17.029 -6.276)"/>
        <path id="패스_2353" data-name="패스 2353" class="cls-6" d="M24.6,8.965h-.065a.032.032,0,0,1-.032-.032V8.9h.065c0,.032.032.032.032.065" transform="translate(-16.556 -6.005)"/>
        <path id="패스_2354" data-name="패스 2354" class="cls-22" d="M23.491,14.84a.453.453,0,0,0,.1-.292.774.774,0,0,0,.065.292.333.333,0,1,0,.486-.454.453.453,0,0,0-.292-.1.774.774,0,0,0,.292-.065.333.333,0,1,0-.454-.486.453.453,0,0,0-.1.292.774.774,0,0,0-.065-.292.333.333,0,1,0-.486.454.453.453,0,0,0,.292.1.774.774,0,0,0-.292.065.326.326,0,0,0-.032.486.323.323,0,0,0,.486,0" transform="translate(-15.483 -9.189)"/>
        <path id="패스_2355" data-name="패스 2355" class="cls-6" d="M25,15.3h0v-.1h.032a.142.142,0,0,1-.032.1" transform="translate(-16.894 -10.263)"/>
        <path id="패스_2356" data-name="패스 2356" class="cls-6" d="M24.932,15.9h0V16H24.9l.032-.1" transform="translate(-16.826 -10.736)"/>
        <path id="패스_2357" data-name="패스 2357" class="cls-6" d="M25.2,15.7h.1v.032h0a.251.251,0,0,0-.1-.032" transform="translate(-17.029 -10.6)"/>
        <path id="패스_2358" data-name="패스 2358" class="cls-6" d="M24.6,15.632h-.1V15.6h0c.1,0,.1.032.1.032" transform="translate(-16.556 -10.533)"/>
        <path id="패스_2359" data-name="패스 2359" class="cls-22" d="M31.413,20.356a1.523,1.523,0,0,0,.292-.195.685.685,0,0,0-.13.324.348.348,0,0,0,.389.357.331.331,0,0,0,.292-.422,1.523,1.523,0,0,0-.195-.292.685.685,0,0,0,.324.13.348.348,0,0,0,.357-.389.331.331,0,0,0-.422-.292,1.523,1.523,0,0,0-.292.195.685.685,0,0,0,.13-.324.348.348,0,0,0-.389-.357.331.331,0,0,0-.292.422,1.523,1.523,0,0,0,.195.292.685.685,0,0,0-.324-.13.348.348,0,0,0-.357.389.373.373,0,0,0,.422.292" transform="translate(-20.94 -12.889)"/>
        <path id="패스_2360" data-name="패스 2360" class="cls-6" d="M33.8,21.465h0c0-.032.032-.032.032-.065h.032v.032h0c-.032,0-.032,0-.065.032" transform="translate(-22.841 -14.452)"/>
        <path id="패스_2361" data-name="패스 2361" class="cls-6" d="M33.465,21.9h0c0,.032,0,.032-.032.065H33.4c.032-.065.065-.065.065-.065" transform="translate(-22.57 -14.79)"/>
        <path id="패스_2362" data-name="패스 2362" class="cls-6" d="M33.9,21.8h0c.032,0,.032.032.065.032V21.9h-.032c-.032-.065-.032-.065-.032-.1" transform="translate(-22.908 -14.723)"/>
        <path id="패스_2363" data-name="패스 2363" class="cls-6" d="M33.465,21.465h0c-.032,0-.032,0-.065-.032V21.4h0l.065.065" transform="translate(-22.57 -14.452)"/>
        <path id="패스_2364" data-name="패스 2364" class="cls-2" d="M7.138,38.172h0c-.065,0-.1-.065-.065-.1A29.506,29.506,0,0,0,7.106,23c0-.032,0-.065.065-.1.032,0,.065,0,.1.065a29.759,29.759,0,0,1-.032,15.142c-.032.065-.065.065-.1.065" transform="translate(-4.771 -15.466)"/>
        <path id="패스_2365" data-name="패스 2365" class="cls-2" d="M8.937,28.169c-.032,0-.032,0-.065-.032s0-.065.032-.1l1.816-1.167c.032-.032.065,0,.1.032s0,.065-.032.1L8.969,28.169H8.937" transform="translate(-5.986 -18.141)"/>
        <path id="패스_2366" data-name="패스 2366" class="cls-2" d="M4.8,20.669H4.765l-1.232-.875a.073.073,0,0,1,.065-.13l1.2.843L6.58,19.372c.032-.032.065,0,.1.032s0,.065-.032.1L4.829,20.669H4.8" transform="translate(-2.365 -13.073)"/>
        <path id="패스_2367" data-name="패스 2367" class="cls-2" d="M6.624,34.238H6.592L5.132,33.33A.073.073,0,0,1,5.2,33.2l1.459.908a.119.119,0,0,1,.032.1c0,.032-.032.032-.065.032" transform="translate(-3.446 -22.426)"/>
        <path id="패스_2368" data-name="패스 2368" class="cls-2" d="M10.037,49.772c-.032,0-.032,0-.065-.032s0-.065.032-.1l1.686-1.07c.032-.032.065,0,.1.032s0,.065-.032.1l-1.686,1.07h-.032" transform="translate(-6.73 -32.805)"/>
        <path id="패스_2369" data-name="패스 2369" class="cls-2" d="M7.494,45.105H7.462L6.132,44.23A.073.073,0,1,1,6.2,44.1l1.329.875a.119.119,0,0,1,.032.1c-.032.032-.032.032-.065.032" transform="translate(-4.122 -29.792)"/>
        <path id="패스_2370" data-name="패스 2370" class="cls-2" d="M6.757,17.994a.07.07,0,0,1-.065-.065L6.4,15.5c0-.032.032-.065.065-.1.032,0,.065.032.1.065L6.854,17.9q-.049.1-.1.1h0" transform="translate(-4.325 -10.398)"/>
        <path id="패스_2371" data-name="패스 2371" class="cls-2" d="M5.256,27.286h0l-1.492-.324c-.032,0-.065-.032-.065-.1,0-.032.032-.065.1-.065l1.459.324c.032,0,.065.032.065.1a.07.07,0,0,1-.065.065" transform="translate(-2.5 -18.101)"/>
        <path id="패스_2372" data-name="패스 2372" class="cls-2" d="M9.665,34H9.632a.119.119,0,0,1-.032-.1l.551-.973a.073.073,0,1,1,.13.065l-.551.973A.113.113,0,0,1,9.665,34" transform="translate(-6.487 -22.223)"/>
        <path id="패스_2373" data-name="패스 2373" class="cls-2" d="M9,58.524C13.637,57.13,12.5,57,12.5,57A6.92,6.92,0,0,0,9,58.394Z" transform="translate(-6.082 -38.509)"/>
        <path id="패스_2374" data-name="패스 2374" class="cls-2" d="M10.3,39.2c2.659-1.329,1.978-1.3,1.978-1.3A3.852,3.852,0,0,0,10.3,39.132Z" transform="translate(-6.96 -25.602)"/>
        <path id="패스_2375" data-name="패스 2375" class="cls-2" d="M5.24,52.2c-2.918-2.3-2.075-2.108-2.075-2.108A5.062,5.062,0,0,1,5.272,52.1Z" transform="translate(-2.062 -33.838)"/>
        <path id="패스_2376" data-name="패스 2376" class="cls-2" d="M2.916,60.054C.127,56.519.387,57.525.387,57.525a5.611,5.611,0,0,0,2.529,2.724Z" transform="translate(-0.257 -38.774)"/>
        <path id="패스_2377" data-name="패스 2377" class="cls-22" d="M4.224,13.229a.955.955,0,0,0,.162-.422.744.744,0,0,0,.13.454.461.461,0,0,0,.713.065.481.481,0,0,0,0-.713.955.955,0,0,0-.422-.162.744.744,0,0,0,.454-.13.461.461,0,0,0,.065-.713.481.481,0,0,0-.713,0,.955.955,0,0,0-.162.422.744.744,0,0,0-.13-.454.461.461,0,0,0-.713-.065.481.481,0,0,0,0,.713.956.956,0,0,0,.422.162.744.744,0,0,0-.454.13.461.461,0,0,0-.065.713.481.481,0,0,0,.713,0" transform="translate(-2.279 -7.676)"/>
        <path id="패스_2378" data-name="패스 2378" class="cls-6" d="M6.6,14.1h0V14h.032v.032h0v.032c-.032,0-.032,0-.032.032" transform="translate(-4.46 -9.452)"/>
        <path id="패스_2379" data-name="패스 2379" class="cls-6" d="M6.532,14.8h0v.1H6.5v-.032h0v-.032a.032.032,0,0,1,.032-.032" transform="translate(-4.393 -9.992)"/>
        <path id="패스_2380" data-name="패스 2380" class="cls-6" d="M6.8,14.5h.1v.032H6.8c.032,0,.032,0,0-.032" transform="translate(-4.595 -9.79)"/>
        <path id="패스_2381" data-name="패스 2381" class="cls-6" d="M6.1,14.432H6V14.4h.065a.032.032,0,0,0,.032.032" transform="translate(-4.055 -9.722)"/>
        <path id="패스_2382" data-name="패스 2382" class="cls-22" d="M6.248,23.84a.453.453,0,0,0,.1-.292.774.774,0,0,0,.065.292.333.333,0,1,0,.486-.454.453.453,0,0,0-.292-.1.774.774,0,0,0,.292-.065.309.309,0,0,0,.065-.486.325.325,0,0,0-.486,0,.453.453,0,0,0-.1.292.774.774,0,0,0-.065-.292.333.333,0,1,0-.486.454.453.453,0,0,0,.292.1.774.774,0,0,0-.292.065.36.36,0,0,0-.065.486.325.325,0,0,0,.486,0" transform="translate(-3.849 -15.271)"/>
        <path id="패스_2383" data-name="패스 2383" class="cls-6" d="M7.8,24.3h0v-.1h.032l-.032.1" transform="translate(-5.271 -16.344)"/>
        <path id="패스_2384" data-name="패스 2384" class="cls-6" d="M7.732,24.9h0V25H7.7c0-.1.032-.1.032-.1" transform="translate(-5.203 -16.817)"/>
        <path id="패스_2385" data-name="패스 2385" class="cls-6" d="M8,24.7h.1v.032h0L8,24.7" transform="translate(-5.406 -16.682)"/>
        <path id="패스_2386" data-name="패스 2386" class="cls-6" d="M7.4,24.632H7.3V24.6h0a.251.251,0,0,0,.1.032" transform="translate(-4.933 -16.615)"/>
        <path id="패스_2387" data-name="패스 2387" class="cls-22" d="M12.252,25.249c0-.1-.13-.227-.195-.324a.876.876,0,0,0,.357.162.377.377,0,0,0,.422-.422.407.407,0,0,0-.486-.389c-.1,0-.227.13-.324.195a.876.876,0,0,0,.162-.357.377.377,0,0,0-.422-.422.407.407,0,0,0-.389.486c0,.1.13.227.195.324a.875.875,0,0,0-.357-.162.377.377,0,0,0-.422.422.422.422,0,0,0,.486.389c.1,0,.227-.13.324-.195a.876.876,0,0,0-.162.357.377.377,0,0,0,.422.422.44.44,0,0,0,.389-.486" transform="translate(-7.291 -15.999)"/>
        <path id="패스_2388" data-name="패스 2388" class="cls-6" d="M13.665,26.5h0a.1.1,0,0,0-.065-.032V26.4h.032a.251.251,0,0,1,.032.1" transform="translate(-9.19 -17.831)"/>
        <path id="패스_2389" data-name="패스 2389" class="cls-6" d="M14.1,27h0a.1.1,0,0,0,.065.032V27.1h-.032A.142.142,0,0,0,14.1,27" transform="translate(-9.528 -18.236)"/>
        <path id="패스_2390" data-name="패스 2390" class="cls-6" d="M14.1,26.565h0a.1.1,0,0,0,.032-.065H14.2v.032h0c-.065,0-.065.032-.1.032" transform="translate(-9.528 -17.899)"/>
        <path id="패스_2391" data-name="패스 2391" class="cls-6" d="M13.6,27h0a.113.113,0,0,1-.032.065H13.5v-.032h0A.251.251,0,0,1,13.6,27" transform="translate(-9.123 -18.236)"/>
        <path id="패스_2392" data-name="패스 2392" class="cls-22" d="M3.819,31.79a.749.749,0,0,0-.227-.227,1.2,1.2,0,0,0,.292.065.361.361,0,0,0,.259-.422.335.335,0,0,0-.454-.195.749.749,0,0,0-.227.227,1.2,1.2,0,0,0,.065-.292.361.361,0,0,0-.422-.259.335.335,0,0,0-.195.454.749.749,0,0,0,.227.227,1.2,1.2,0,0,0-.292-.065.361.361,0,0,0-.259.422.335.335,0,0,0,.454.195.749.749,0,0,0,.227-.227,1.2,1.2,0,0,0-.065.292.361.361,0,0,0,.422.259.335.335,0,0,0,.195-.454" transform="translate(-1.744 -20.724)"/>
        <path id="패스_2393" data-name="패스 2393" class="cls-6" d="M4.765,32.849H4.7c.032-.032.032-.032.065,0h0" transform="translate(-3.176 -22.173)"/>
        <path id="패스_2394" data-name="패스 2394" class="cls-6" d="M5.2,33.1h.1c-.065.032-.065.032-.1,0h0" transform="translate(-3.514 -22.359)"/>
        <path id="패스_2395" data-name="패스 2395" class="cls-6" d="M5.1,32.7h0v-.1h0a.061.061,0,0,1,0,.1h0" transform="translate(-3.446 -22.021)"/>
        <path id="패스_2396" data-name="패스 2396" class="cls-6" d="M4.932,33.2h0v.065H4.9c0-.032,0-.065.032-.065h0" transform="translate(-3.311 -22.426)"/>
        <path id="패스_2397" data-name="패스 2397" class="cls-22" d="M3.688,41.886a.92.92,0,0,0-.195-.292.685.685,0,0,0,.324.13.4.4,0,0,0,.389-.422.386.386,0,0,0-.454-.324.92.92,0,0,0-.292.195.685.685,0,0,0,.13-.324.348.348,0,0,0-.389-.357.386.386,0,0,0-.324.454.92.92,0,0,0,.195.292.685.685,0,0,0-.324-.13.348.348,0,0,0-.357.389.386.386,0,0,0,.454.324,1.353,1.353,0,0,0,.259-.195.685.685,0,0,0-.13.324.348.348,0,0,0,.389.357.324.324,0,0,0,.324-.422" transform="translate(-1.613 -27.351)"/>
        <path id="패스_2398" data-name="패스 2398" class="cls-6" d="M4.865,43.065h0c-.032,0-.032-.032-.065-.032V43h.032a.1.1,0,0,1,.032.065" transform="translate(-3.244 -29.049)"/>
        <path id="패스_2399" data-name="패스 2399" class="cls-6" d="M5.3,43.4h0c0,.032.032.032,0,0,.032,0,.032.032.065.032v.032H5.332C5.3,43.432,5.3,43.432,5.3,43.4" transform="translate(-3.582 -29.319)"/>
        <path id="패스_2400" data-name="패스 2400" class="cls-6" d="M5.3,43.065h0c0-.032.032-.032.032-.065h.032l-.065.065" transform="translate(-3.582 -29.049)"/>
        <path id="패스_2401" data-name="패스 2401" class="cls-6" d="M4.865,43.5h0v.065H4.8v-.032h0l.065-.032" transform="translate(-3.244 -29.386)"/>
        <path id="패스_2402" data-name="패스 2402" class="cls-22" d="M14.4,47.3a.583.583,0,0,0-.13-.292.574.574,0,0,0,.259.162.34.34,0,0,0,.389-.292.353.353,0,0,0-.324-.357.583.583,0,0,0-.292.13c.065-.065.162-.162.162-.259A.34.34,0,0,0,14.175,46a.333.333,0,0,0-.357.324.583.583,0,0,0,.13.292c-.065-.065-.162-.162-.259-.162a.34.34,0,0,0-.389.292.353.353,0,0,0,.324.357.583.583,0,0,0,.292-.13c-.065.065-.162.162-.162.259a.3.3,0,0,0,.292.389A.331.331,0,0,0,14.4,47.3" transform="translate(-8.988 -31.076)"/>
        <path id="패스_2403" data-name="패스 2403" class="cls-6" d="M15.632,48.265h0l-.032-.032V48.2h0c0,.032,0,.032.032.065" transform="translate(-10.542 -32.563)"/>
        <path id="패스_2404" data-name="패스 2404" class="cls-6" d="M15.9,48.6h0l.032.032v.032h0c-.032-.032-.032-.032-.032-.065" transform="translate(-10.745 -32.833)"/>
        <path id="패스_2405" data-name="패스 2405" class="cls-6" d="M15.9,48.332h0l.032-.032h.032a.1.1,0,0,1-.065.032" transform="translate(-10.745 -32.63)"/>
        <path id="패스_2406" data-name="패스 2406" class="cls-6" d="M15.465,48.6h0l-.032.032H15.4l.065-.032" transform="translate(-10.407 -32.833)"/>
        <path id="패스_2407" data-name="패스 2407" class="cls-22" d="M11.478,18.019a.64.64,0,0,0,.195-.357,1.454,1.454,0,0,0,.032.389.442.442,0,0,0,.616.162.426.426,0,0,0,.1-.616.641.641,0,0,0-.357-.195,1.454,1.454,0,0,0,.389-.032.442.442,0,0,0,.162-.616.426.426,0,0,0-.616-.1.64.64,0,0,0-.195.357,1.454,1.454,0,0,0-.032-.389.442.442,0,0,0-.616-.162.426.426,0,0,0-.1.616.64.64,0,0,0,.357.195,1.454,1.454,0,0,0-.389.032.442.442,0,0,0-.162.616.421.421,0,0,0,.616.1" transform="translate(-7.296 -11.071)"/>
        <path id="패스_2408" data-name="패스 2408" class="cls-6" d="M13.7,18.9h0v-.1h.032v.032h0v.032a.032.032,0,0,0-.032.032" transform="translate(-9.258 -12.695)"/>
        <path id="패스_2409" data-name="패스 2409" class="cls-6" d="M13.532,19.5h0v.1H13.5v-.032h0v-.032c.032,0,.032,0,.032-.032" transform="translate(-9.123 -13.168)"/>
        <path id="패스_2410" data-name="패스 2410" class="cls-6" d="M13.9,19.3H14v.032h-.065A.032.032,0,0,1,13.9,19.3" transform="translate(-9.393 -13.033)"/>
        <path id="패스_2411" data-name="패스 2411" class="cls-6" d="M13.2,19.232h-.1V19.2h.065c.032,0,.032,0,.032.032" transform="translate(-8.853 -12.966)"/>
        <path id="패스_2412" data-name="패스 2412" class="cls-22" d="M.616,19.089c.1-.032.195-.195.259-.292a1.941,1.941,0,0,0-.065.389.4.4,0,0,0,.551.292.4.4,0,0,0,.227-.584c-.032-.1-.195-.195-.292-.259a1.941,1.941,0,0,0,.389.065.4.4,0,0,0,.292-.551.4.4,0,0,0-.584-.227c-.1.032-.195.195-.259.292a1.941,1.941,0,0,0,.065-.389.4.4,0,0,0-.551-.292.4.4,0,0,0-.227.584c.032.1.195.195.292.259a.558.558,0,0,0-.389-.065.4.4,0,0,0-.292.551.444.444,0,0,0,.584.227" transform="translate(0 -11.817)"/>
        <path id="패스_2413" data-name="패스 2413" class="cls-6" d="M3.2,20.2h0v-.065a.032.032,0,0,1,.032-.032h.032v.032h0v.032c-.032,0-.032,0-.065.032" transform="translate(-2.163 -13.574)"/>
        <path id="패스_2414" data-name="패스 2414" class="cls-6" d="M2.865,20.8h0v.065H2.8v-.032h0V20.8h.065" transform="translate(-1.892 -14.047)"/>
        <path id="패스_2415" data-name="패스 2415" class="cls-6" d="M3.3,20.7h.065a.032.032,0,0,1,.032.032v.032H3.332c0-.065,0-.065-.032-.065" transform="translate(-2.23 -13.979)"/>
        <path id="패스_2416" data-name="패스 2416" class="cls-6" d="M2.7,20.365H2.632a.032.032,0,0,1-.032-.032V20.3h.065c.032.032.032.032.032.065" transform="translate(-1.757 -13.709)"/>
        <path id="패스_2417" data-name="패스 2417" class="cls-22" d="M1.659,26.24a.453.453,0,0,0,.1-.292.774.774,0,0,0,.065.292.333.333,0,1,0,.486-.454.453.453,0,0,0-.292-.1.774.774,0,0,0,.292-.065.36.36,0,0,0,.065-.486.325.325,0,0,0-.486,0,.453.453,0,0,0-.1.292.774.774,0,0,0-.065-.292.333.333,0,1,0-.486.454.774.774,0,0,0,.292.065.774.774,0,0,0-.292.065.326.326,0,0,0-.032.486.29.29,0,0,0,.454.032" transform="translate(-0.751 -16.893)"/>
        <path id="패스_2418" data-name="패스 2418" class="cls-6" d="M3.149,26.7h0c-.032,0-.032-.032,0,0v-.1h.032a.251.251,0,0,0-.032.1" transform="translate(-2.112 -17.966)"/>
        <path id="패스_2419" data-name="패스 2419" class="cls-6" d="M3.032,27.2h0v.1H3c.032-.065.032-.065.032-.1" transform="translate(-2.027 -18.372)"/>
        <path id="패스_2420" data-name="패스 2420" class="cls-6" d="M3.3,27.1h.1v.032h0c-.065-.032-.065-.032-.1-.032" transform="translate(-2.23 -18.304)"/>
        <path id="패스_2421" data-name="패스 2421" class="cls-6" d="M2.8,27.032H2.7V27h0c.065,0,.065,0,.1.032" transform="translate(-1.825 -18.236)"/>
        <path id="패스_2422" data-name="패스 2422" class="cls-22" d="M9.613,31.756a1.522,1.522,0,0,0,.292-.195.685.685,0,0,0-.13.324.367.367,0,0,0,.389.357.331.331,0,0,0,.292-.422,1.523,1.523,0,0,0-.195-.292.685.685,0,0,0,.324.13.348.348,0,0,0,.357-.389.331.331,0,0,0-.422-.292,1.523,1.523,0,0,0-.292.195.685.685,0,0,0,.13-.324.348.348,0,0,0-.389-.357.331.331,0,0,0-.292.422,1.522,1.522,0,0,0,.195.292.685.685,0,0,0-.324-.13.348.348,0,0,0-.357.389.355.355,0,0,0,.422.292" transform="translate(-6.208 -20.593)"/>
        <path id="패스_2423" data-name="패스 2423" class="cls-6" d="M12,32.765h0c0-.032.032-.032.032-.065h.032v.032h0a.1.1,0,0,1-.065.032" transform="translate(-8.109 -22.088)"/>
        <path id="패스_2424" data-name="패스 2424" class="cls-6" d="M11.565,33.2h0c0,.032-.032.032-.032.065H11.5c.065-.032.065-.032.065-.065" transform="translate(-7.771 -22.426)"/>
        <path id="패스_2425" data-name="패스 2425" class="cls-6" d="M12,33.2h0c.032,0,.032.032.065.032V33.3h0A.4.4,0,0,0,12,33.2" transform="translate(-8.109 -22.426)"/>
        <path id="패스_2426" data-name="패스 2426" class="cls-6" d="M11.565,32.865h0c-.032,0-.032,0-.065-.032V32.8h.032c.032.032.032.032.032.065" transform="translate(-7.771 -22.156)"/>
      </g>
    </g>
  </g>
</svg>
