<svg xmlns="http://www.w3.org/2000/svg" viewBox="0 0 160 140">
  <defs>
    <style>
      .cls-1 {
        fill: none;
      }

      .cls-2 {
        fill: #74c6be;
      }

      .cls-3 {
        fill: #bce2e3;
      }

      .cls-4 {
        fill: #727171;
      }

      .cls-5 {
        fill: #fff;
      }

      .cls-6 {
        fill: #92aca9;
      }

      .cls-7 {
        fill: #e4f3fa;
      }

      .cls-8 {
        fill: #fcd68c;
      }
    </style>
  </defs>
  <g id="그룹_671" data-name="그룹 671" transform="translate(-160 -410)">
    <rect id="사각형_267" data-name="사각형 267" class="cls-1" width="160" height="140" transform="translate(160 410)"/>
    <rect id="사각형_266" data-name="사각형 266" class="cls-1" width="160" height="140" transform="translate(160 410)"/>
    <g id="그룹_591" data-name="그룹 591" transform="translate(209 433.977)">
      <path id="패스_1987" data-name="패스 1987" class="cls-2" d="M89.344,21.8s6.209,0,9.21,21.34c0,0,.206,2.755,2.673,2.344a1.527,1.527,0,0,1,1.645,1.234c.329,1.6-1.645,2.015-2.837,2.015a4.689,4.689,0,0,1-1.069-.082c-3.824-.7-4.03-4.729-4.687-7.771-.781-3.7-1.11-7.4-2.8-10.773-1.069-2.056-2.8-3.413-4.482-5.016Z" transform="translate(-51.227 -12.836)"/>
      <path id="패스_1988" data-name="패스 1988" class="cls-2" d="M123.188,173.016h0a.8.8,0,0,0-1.11.247,3.792,3.792,0,0,0-.206.329l-.164.247c-.247.37-.452.74-.7,1.069-.288.493-.617.946-.9,1.439-.123.247-.288.452-.411.7-.164.288-.329.535-.452.781l-.082.164c-.329.493-.7,1.069-1.11,1.151a2.569,2.569,0,0,1-1.275-.576l-1.069-.781a.794.794,0,0,0-.946,1.275l1.11.781a2.753,2.753,0,0,0,4.646-.987l.082-.164a9.84,9.84,0,0,0,.535-.863c.123-.206.247-.411.37-.658.288-.452.617-.946.9-1.4.247-.37.452-.74.7-1.11l.123-.206.247-.37a.836.836,0,0,0-.288-1.069" transform="translate(-67.391 -101.8)"/>
      <path id="패스_1989" data-name="패스 1989" class="cls-2" d="M123.928,172.916a.8.8,0,0,0-1.11.247l-4.235,6.661a2.961,2.961,0,0,1-.74.822,2.883,2.883,0,0,1-3.084.082l-1.933-1.234a.8.8,0,0,0-.863,1.357l1.933,1.234a4.413,4.413,0,0,0,4.893-.123,4.8,4.8,0,0,0,1.151-1.234l4.235-6.661a.844.844,0,0,0-.247-1.151" transform="translate(-65.705 -101.741)"/>
      <path id="패스_1990" data-name="패스 1990" class="cls-2" d="M125.571,172.916a.8.8,0,0,0-1.11.247l-5.14,8.1a4.812,4.812,0,0,1-6.291,1.357l-1.6-1.028a.8.8,0,0,0-.863,1.357l1.645,1.028.041.041a6.471,6.471,0,0,0,8.388-1.85l.041-.041,5.181-8.1a.834.834,0,0,0-.288-1.11" transform="translate(-64.881 -101.741)"/>
      <path id="패스_1991" data-name="패스 1991" class="cls-3" d="M26.694,66.57a23.983,23.983,0,0,0,6.579,17.64l1.48,12.623h2.919l1.891-11.76,4.975-.164,2.8,13.034h2.673l1.809-15.008s5.715-2.22,3.947-13.446L52.228,35.773S49.8,14.967,44.745,12.911c0,0,6.127-5.8,1.48-12.911A13.494,13.494,0,0,0,40.1,8.429s-.493.247-4.564.041H34.218a10.877,10.877,0,0,0-6.826-6.784,11.042,11.042,0,0,0,2.261,10.2c-.164-.164-5.3,4.194-5.469,4.317-4.77,4.03-6.99,7.237-10.238,12.048a4.243,4.243,0,0,0-.617,3.783c.288,1.316,1.891,3.043,2.878,3.865A6.731,6.731,0,0,0,20.9,37.787c3.289-.041,7.113-.411,10.074-1.85-.123.082,0,.123-.411,2.59Z" transform="translate(-7.738 0)"/>
      <path id="패스_1992" data-name="패스 1992" class="cls-4" d="M23.032,100.123l1.316,2.344-2.919,2.755L20.4,101.357A6.494,6.494,0,0,1,22.99,100Z" transform="translate(-12.012 -58.882)"/>
      <path id="패스_1993" data-name="패스 1993" class="cls-4" d="M89.9,241.329h5.962l-.617-4.605-2.878-.123Z" transform="translate(-52.935 -139.315)"/>
      <path id="패스_1994" data-name="패스 1994" class="cls-4" d="M62.7,235.441l-2.1,3.742s3.783,0,5.715-.206l-.7-3.577H62.7Z" transform="translate(-35.683 -138.608)"/>
      <path id="패스_1995" data-name="패스 1995" class="cls-5" d="M73.581,224l-.781,4.729v.041h0l.781-4.77h0" transform="translate(-42.866 -131.896)"/>
      <path id="패스_1996" data-name="패스 1996" class="cls-5" d="M66.919,221.9H66.8a.937.937,0,0,0-.452.123l-.37.247a1.921,1.921,0,0,1-.411.206,1.137,1.137,0,0,1-.37.041,1.675,1.675,0,0,1-.74-.206c-.123-.082-.206-.164-.329-.247a.185.185,0,0,1-.123-.123l.658,5.51h2.919l.781-4.729c0-.041-.082-.123-.082-.123-.041-.041-.082-.082-.082-.123-.082-.082-.123-.164-.206-.206a1.306,1.306,0,0,0-.822-.329c-.082,0-.164-.041-.247-.041" transform="translate(-37.685 -130.659)"/>
      <path id="패스_1997" data-name="패스 1997" class="cls-6" d="M65.7,235.5Z" transform="translate(-38.686 -138.667)"/>
      <path id="패스_1998" data-name="패스 1998" class="cls-5" d="M93.1,223.6l1.151,5.386h0l-1.151-5.3V223.6" transform="translate(-54.819 -131.66)"/>
      <path id="패스_1999" data-name="패스 1999" class="cls-5" d="M97.641,221.9c-.206,0-.37.288-.37.288-.206.493-.452.617-.658.617a.722.722,0,0,1-.493-.247.79.79,0,0,0-.658-.493,1.248,1.248,0,0,0-.822.493.87.87,0,0,1-.74.411,1.107,1.107,0,0,1-.7-.329l1.151,5.3h0l1.768.082,1.069.041.74-5.921c-.082-.206-.206-.247-.288-.247" transform="translate(-54.878 -130.659)"/>
      <path id="패스_2000" data-name="패스 2000" class="cls-6" d="M95.9,236.6h0l1.768.082Z" transform="translate(-56.468 -139.315)"/>
      <path id="패스_2001" data-name="패스 2001" class="cls-5" d="M49.017,7.6s-.576,4.687,1.891,7.2a1.2,1.2,0,0,0,.822.493c1.234,0-.082-5.839-2.714-7.689" transform="translate(-28.828 -4.475)"/>
      <path id="패스_2002" data-name="패스 2002" class="cls-5" d="M89.622,4.5c-2.714,2.632-3.289,9.293-1.933,9.293.247,0,.576-.247.946-.781,2.8-3.865.987-8.511.987-8.511" transform="translate(-51.218 -2.65)"/>
      <path id="패스_2003" data-name="패스 2003" class="cls-7" d="M36.782,59.6l-.082.082s.041,0,.082-.082Z" transform="translate(-21.61 -35.094)"/>
      <path id="패스_2004" data-name="패스 2004" class="cls-2" d="M16.176,74.234l.041-.206a.432.432,0,0,1,.206-.37.5.5,0,0,1,.411-.123h.041a.59.59,0,0,1,.535.617v.041l-.041.206a.291.291,0,0,0,.576.082l.041-.206h0v-.082A1.109,1.109,0,0,0,16.957,73h-.082a1.257,1.257,0,0,0-.822.288,1.335,1.335,0,0,0-.411.74l-.041.206a.313.313,0,0,0,.247.329c.206-.041.329-.164.329-.329" transform="translate(-9.186 -42.984)"/>
      <path id="패스_2005" data-name="패스 2005" class="cls-2" d="M23.973,77.327l.123-.164a.639.639,0,0,1,.329-.247.487.487,0,0,1,.411.041h.041a.587.587,0,0,1,.206.781v.041l-.123.164a.3.3,0,1,0,.493.329l.123-.164h0l.041-.041a1.136,1.136,0,0,0-.411-1.521l-.082-.041a1.052,1.052,0,0,0-.863-.082,1.226,1.226,0,0,0-.7.493l-.123.164a.319.319,0,0,0,.082.411.562.562,0,0,0,.452-.164" transform="translate(-13.776 -44.967)"/>
      <path id="패스_2006" data-name="패스 2006" class="cls-5" d="M51.147,162.7h0c-.164,0-.247.123-.247.288a.762.762,0,0,0,.082.288l.123.247a.314.314,0,0,0,.206.082.247.247,0,0,0,.164-.041.217.217,0,0,0,.041-.329h0c0-.041-.041-.082-.082-.123a.247.247,0,0,1-.041-.164.237.237,0,0,0-.247-.247" transform="translate(-29.971 -95.801)"/>
      <path id="패스_2007" data-name="패스 2007" class="cls-5" d="M50.247,155.9h0c-.164,0-.247.123-.247.288a.594.594,0,0,0,.082.288l.123.247a.314.314,0,0,0,.206.082.247.247,0,0,0,.164-.041.217.217,0,0,0,.041-.329c-.041-.041-.041-.082-.082-.123a.247.247,0,0,1-.041-.164.237.237,0,0,0-.247-.247" transform="translate(-29.441 -91.797)"/>
      <path id="패스_2008" data-name="패스 2008" class="cls-5" d="M55.947,177h0c-.164,0-.247.123-.247.288a.762.762,0,0,0,.082.288.86.86,0,0,0,.164.247.314.314,0,0,0,.206.082.247.247,0,0,0,.164-.041.217.217,0,0,0,.041-.329c0-.041-.041-.082-.082-.123a.247.247,0,0,1-.041-.164.3.3,0,0,0-.288-.247" transform="translate(-32.797 -104.221)"/>
      <path id="패스_2009" data-name="패스 2009" class="cls-5" d="M58.847,182.1h0c-.164,0-.247.123-.247.288a.594.594,0,0,0,.082.288l.123.247a.314.314,0,0,0,.206.082.247.247,0,0,0,.164-.041.217.217,0,0,0,.041-.329c-.041-.041-.041-.082-.082-.123a.247.247,0,0,1-.041-.164q-.062-.247-.247-.247" transform="translate(-34.505 -107.224)"/>
      <path id="패스_2010" data-name="패스 2010" class="cls-5" d="M56.147,185.9h0c-.164,0-.247.123-.247.288a.762.762,0,0,0,.082.288l.123.247a.314.314,0,0,0,.206.082.247.247,0,0,0,.164-.041.217.217,0,0,0,.041-.329c0-.041-.041-.082-.082-.123a.247.247,0,0,1-.041-.164.237.237,0,0,0-.247-.247" transform="translate(-32.915 -109.462)"/>
      <path id="패스_2011" data-name="패스 2011" class="cls-5" d="M53.847,181.1h0c-.164,0-.247.123-.247.288a.762.762,0,0,0,.082.288l.123.247a.314.314,0,0,0,.206.082.247.247,0,0,0,.164-.041.217.217,0,0,0,.041-.329c0-.041-.041-.082-.082-.123a.247.247,0,0,1-.041-.164.237.237,0,0,0-.247-.247" transform="translate(-31.561 -106.635)"/>
      <path id="패스_2012" data-name="패스 2012" class="cls-5" d="M58.647,174.3h0c-.164,0-.247.123-.247.288a.762.762,0,0,0,.082.288l.123.247a.314.314,0,0,0,.206.082.247.247,0,0,0,.164-.041.217.217,0,0,0,.041-.329c0-.041-.041-.082-.082-.123a.247.247,0,0,1-.041-.164q-.062-.247-.247-.247" transform="translate(-34.387 -102.631)"/>
      <path id="패스_2013" data-name="패스 2013" class="cls-5" d="M50.547,173.8h0c-.164,0-.247.123-.247.288a.763.763,0,0,0,.082.288l.123.247a.314.314,0,0,0,.206.082.247.247,0,0,0,.164-.041.217.217,0,0,0,.041-.329c0-.041-.041-.082-.082-.123a.247.247,0,0,1-.041-.164q-.062-.247-.247-.247" transform="translate(-29.618 -102.337)"/>
      <path id="패스_2014" data-name="패스 2014" class="cls-5" d="M50.747,167.9h0c-.164,0-.247.123-.247.288a.762.762,0,0,0,.082.288l.123.247a.314.314,0,0,0,.206.082.247.247,0,0,0,.164-.041.217.217,0,0,0,.041-.329c0-.041-.041-.082-.082-.123a.247.247,0,0,1-.041-.164q-.062-.247-.247-.247" transform="translate(-29.735 -98.863)"/>
      <path id="패스_2015" data-name="패스 2015" class="cls-5" d="M54.647,159.7h0c-.164,0-.247.123-.247.288a.594.594,0,0,0,.082.288l.123.247a.314.314,0,0,0,.206.082.247.247,0,0,0,.164-.041.217.217,0,0,0,.041-.329c0-.041-.041-.082-.082-.123a.247.247,0,0,1-.041-.164q-.062-.247-.247-.247" transform="translate(-32.032 -94.035)"/>
      <path id="패스_2016" data-name="패스 2016" class="cls-5" d="M54.647,171.1h0c-.164,0-.247.123-.247.288a.762.762,0,0,0,.082.288l.123.247a.314.314,0,0,0,.206.082.247.247,0,0,0,.164-.041.217.217,0,0,0,.041-.329c0-.041-.041-.082-.082-.123a.247.247,0,0,1-.041-.164q-.062-.247-.247-.247" transform="translate(-32.032 -100.747)"/>
      <path id="패스_2017" data-name="패스 2017" class="cls-5" d="M100.306,195.7a.261.261,0,0,0-.247.206.311.311,0,0,1-.041.164c-.041.041-.041.123-.082.123a.249.249,0,0,0,.041.329c.041.041.082.041.164.041s.123-.041.206-.082l.123-.247a.594.594,0,0,0,.082-.288.237.237,0,0,0-.247-.247h0" transform="translate(-58.818 -115.232)"/>
      <path id="패스_2018" data-name="패스 2018" class="cls-5" d="M98.506,191a.261.261,0,0,0-.247.206c0,.041-.041.082-.041.164-.041.041-.041.123-.082.164a.249.249,0,0,0,.041.329c.041.041.082.041.164.041s.123-.041.206-.082l.123-.247a.594.594,0,0,0,.082-.288.3.3,0,0,0-.247-.288h0" transform="translate(-57.758 -112.465)"/>
      <path id="패스_2019" data-name="패스 2019" class="cls-5" d="M107.988,186.4a.261.261,0,0,0-.247.206c0,.041-.041.082-.041.164-.041.041-.041.123-.082.123a.214.214,0,0,0,.041.329c.041.041.082.041.164.041s.123-.041.206-.082l.123-.247a.594.594,0,0,0,.082-.288c.041-.123-.082-.247-.247-.247h0" transform="translate(-63.334 -109.756)"/>
      <path id="패스_2020" data-name="패스 2020" class="cls-5" d="M104.788,192.4a.261.261,0,0,0-.247.206c0,.041-.041.082-.041.164-.041.041-.041.123-.082.123a.214.214,0,0,0,.041.329c.041.041.082.041.164.041s.123-.041.206-.082l.123-.247a.594.594,0,0,0,.082-.288.3.3,0,0,0-.247-.247h0" transform="translate(-61.45 -113.289)"/>
      <path id="패스_2021" data-name="패스 2021" class="cls-5" d="M103.688,188.7a.261.261,0,0,0-.247.206c0,.041-.041.082-.041.164-.041.041-.041.123-.082.123a.214.214,0,0,0,.041.329c.041.041.082.041.164.041s.123-.041.206-.082l.123-.247a.594.594,0,0,0,.082-.288.237.237,0,0,0-.247-.247h0" transform="translate(-60.802 -111.111)"/>
      <path id="패스_2022" data-name="패스 2022" class="cls-5" d="M108.806,191a.261.261,0,0,0-.247.206c0,.041-.041.082-.041.164-.041.041-.041.123-.082.164a.249.249,0,0,0,.041.329c.041.041.082.041.164.041s.123-.041.206-.082h0l.123-.247a.594.594,0,0,0,.082-.288.3.3,0,0,0-.247-.288h0" transform="translate(-63.823 -112.465)"/>
      <path id="패스_2023" data-name="패스 2023" class="cls-5" d="M103.188,198a.261.261,0,0,0-.247.206c0,.041-.041.082-.041.164-.041.041-.041.123-.082.123a.214.214,0,0,0,.041.329c.041.041.082.041.164.041s.123-.041.206-.082l.123-.247a.594.594,0,0,0,.082-.288c.041-.123-.082-.247-.247-.247h0" transform="translate(-60.508 -116.587)"/>
      <path id="패스_2024" data-name="패스 2024" class="cls-5" d="M103.684,99.7c-.041,0-.082,0-.082.041a.259.259,0,0,0-.123.329c.041.041.041.206.041.288v.041a.309.309,0,0,0,.206.288h.041a.261.261,0,0,0,.247-.206V100.4a1.478,1.478,0,0,0-.082-.452c-.082-.206-.164-.247-.247-.247" transform="translate(-60.921 -58.705)"/>
      <path id="패스_2025" data-name="패스 2025" class="cls-5" d="M97.284,86.7c-.041,0-.082,0-.082.041a.259.259,0,0,0-.123.329c.041.041.041.206.041.288V87.4a.309.309,0,0,0,.206.288h.041a.261.261,0,0,0,.247-.206v-.123a1.478,1.478,0,0,0-.082-.452c-.082-.164-.164-.206-.247-.206" transform="translate(-57.152 -51.051)"/>
      <path id="패스_2026" data-name="패스 2026" class="cls-5" d="M103.384,86.7H103.3a.259.259,0,0,0-.123.329c.041.041.041.206.041.288v.041a.309.309,0,0,0,.206.288h.041a.261.261,0,0,0,.247-.206v-.082a1.478,1.478,0,0,0-.082-.452c-.082-.123-.164-.206-.247-.206" transform="translate(-60.744 -51.051)"/>
      <path id="패스_2027" data-name="패스 2027" class="cls-5" d="M95.784,81c-.041,0-.082,0-.082.041a.259.259,0,0,0-.123.329c0,.041.041.082.041.123V81.7a.309.309,0,0,0,.206.288h.041a.261.261,0,0,0,.247-.206v-.123a.522.522,0,0,0-.041-.247.314.314,0,0,0-.082-.206c-.041-.164-.123-.206-.206-.206" transform="translate(-56.269 -47.695)"/>
      <path id="패스_2028" data-name="패스 2028" class="cls-5" d="M101.384,73.9H101.3a.259.259,0,0,0-.123.329c.041.041.041.206.041.288v.041a.309.309,0,0,0,.206.288h.041a.261.261,0,0,0,.247-.206v-.082a1.478,1.478,0,0,0-.082-.452.249.249,0,0,0-.247-.206" transform="translate(-59.567 -43.514)"/>
      <path id="패스_2029" data-name="패스 2029" class="cls-5" d="M100.284,83.2H100.2a.259.259,0,0,0-.123.329c.041.041.041.206.041.288v.041a.309.309,0,0,0,.206.288h.041a.261.261,0,0,0,.247-.206v-.082a1.478,1.478,0,0,0-.082-.452c-.041-.164-.123-.206-.247-.206" transform="translate(-58.919 -48.99)"/>
      <path id="패스_2030" data-name="패스 2030" class="cls-5" d="M98.484,69.4c-.041,0-.082,0-.082.041a.259.259,0,0,0-.123.329c.041.041.041.206.041.288V70.1a.309.309,0,0,0,.206.288h.041a.261.261,0,0,0,.247-.206V70.1a2.064,2.064,0,0,0-.082-.493.261.261,0,0,0-.247-.206" transform="translate(-57.859 -40.864)"/>
      <path id="패스_2031" data-name="패스 2031" class="cls-5" d="M96.984,74.9c-.041,0-.082,0-.082.041a.259.259,0,0,0-.123.329c.041.041.041.206.041.288V75.6a.309.309,0,0,0,.206.288h.041a.261.261,0,0,0,.247-.206v-.123a1.478,1.478,0,0,0-.082-.452.261.261,0,0,0-.247-.206" transform="translate(-56.976 -44.103)"/>
      <path id="패스_2032" data-name="패스 2032" class="cls-5" d="M99.884,78c-.041,0-.082,0-.082.041a.259.259,0,0,0-.123.329c0,.041.041.082.041.123V78.7a.309.309,0,0,0,.206.288h.041a.261.261,0,0,0,.247-.206V78.7a.521.521,0,0,0-.041-.247.314.314,0,0,0-.082-.206c-.041-.206-.123-.247-.206-.247" transform="translate(-58.683 -45.928)"/>
      <path id="패스_2033" data-name="패스 2033" class="cls-5" d="M101.784,91H101.7a.259.259,0,0,0-.123.329c.041.041.041.206.041.288v.041a.309.309,0,0,0,.206.288h.041a.261.261,0,0,0,.247-.206v-.082a1.478,1.478,0,0,0-.082-.452c-.082-.123-.164-.206-.247-.206" transform="translate(-59.802 -53.583)"/>
      <path id="패스_2034" data-name="패스 2034" class="cls-5" d="M100.084,96.7H100a.259.259,0,0,0-.123.329c.041.041.041.206.041.288v.041a.309.309,0,0,0,.206.288h.041a.261.261,0,0,0,.247-.206v-.082a1.478,1.478,0,0,0-.082-.452.261.261,0,0,0-.247-.206" transform="translate(-58.801 -56.939)"/>
      <path id="패스_2035" data-name="패스 2035" class="cls-5" d="M103.984,94.8c-.041,0-.082,0-.082.041a.259.259,0,0,0-.123.329h0c.041.041.041.206.041.288V95.5a.309.309,0,0,0,.206.288h.041a.261.261,0,0,0,.247-.206v-.123a1.478,1.478,0,0,0-.082-.452c-.041-.164-.123-.206-.247-.206" transform="translate(-61.098 -55.82)"/>
      <path id="패스_2036" data-name="패스 2036" class="cls-5" d="M97.084,92.7c-.041,0-.082,0-.082.041a.259.259,0,0,0-.123.329c.041,0,.041.164.041.247v.041a.309.309,0,0,0,.206.288h.041a.261.261,0,0,0,.247-.206v-.123a1.478,1.478,0,0,0-.082-.452.256.256,0,0,0-.247-.164" transform="translate(-57.035 -54.584)"/>
      <path id="패스_2037" data-name="패스 2037" class="cls-3" d="M25.878,106s3.988,6.826,10.156,2.837l-.863,6.784S26.742,119.281,23,108.8Z" transform="translate(-13.543 -62.415)"/>
      <path id="패스_2038" data-name="패스 2038" class="cls-5" d="M30,106" transform="translate(-17.665 -62.415)"/>
      <path id="패스_2039" data-name="패스 2039" class="cls-5" d="M25.819,106h0m0,0,0,0h0m0,0a10.441,10.441,0,0,0,3,3.043h0a10.441,10.441,0,0,1-3-3.043M22.9,108.755a14.2,14.2,0,0,0,2.632,4.687h0a14.638,14.638,0,0,1-2.632-4.687" transform="translate(-13.484 -62.415)"/>
      <path id="패스_2040" data-name="패스 2040" class="cls-5" d="M25.819,106h0L22.9,108.755a14.2,14.2,0,0,0,2.632,4.687l.7-.411c.7-.411.863-1.768.863-1.768a2.013,2.013,0,0,1,1.686-2.138A11.551,11.551,0,0,1,25.819,106Z" transform="translate(-13.484 -62.415)"/>
      <path id="패스_2041" data-name="패스 2041" class="cls-4" d="M40.132,105.723l1.316,2.344-2.919,2.755L37.5,106.957a6.494,6.494,0,0,1,2.59-1.357Z" transform="translate(-22.081 -62.179)"/>
      <path id="패스_2042" data-name="패스 2042" class="cls-3" d="M43.078,111.6s3.988,6.826,10.156,2.837l-.863,6.784S43.942,124.881,40.2,114.4Z" transform="translate(-23.671 -65.712)"/>
      <path id="패스_2043" data-name="패스 2043" class="cls-5" d="M47.2,111.6m0,0h0m0,0h0m0,0Zm0,0a8.276,8.276,0,0,0,1.11,1.48,7.548,7.548,0,0,1-1.11-1.48" transform="translate(-27.792 -65.712)"/>
      <path id="패스_2044" data-name="패스 2044" class="cls-7" d="M44.13,115.2h0a13.657,13.657,0,0,0,1.11,1.028,6.826,6.826,0,0,1-1.11-1.028m1.11,1.028h0m0,0h0m0,.041h0m-5.14.206a14.2,14.2,0,0,0,2.632,4.687h0a14.638,14.638,0,0,1-2.632-4.687" transform="translate(-23.612 -67.832)"/>
      <path id="패스_2045" data-name="패스 2045" class="cls-5" d="M43.019,111.6h0L40.1,114.355a14.2,14.2,0,0,0,2.632,4.687l.7-.411c.7-.411.863-1.768.863-1.768a2.043,2.043,0,0,1,1.686-2.138,8.34,8.34,0,0,1-.74-.535h0a13.657,13.657,0,0,1-1.11-1.028,9.564,9.564,0,0,1-1.11-1.562Z" transform="translate(-23.612 -65.712)"/>
      <path id="패스_2046" data-name="패스 2046" class="cls-5" d="M43.559,43.3c-3.454,2.96-5.757,3.372-5.757,3.372.493,1.891-1.562,3.824-2.138,4.4l-.164.164c3.536-3,6.127-3.125,6.127-3.125-1.275-1.891,1.933-4.811,1.933-4.811" transform="translate(-20.903 -25.496)"/>
      <path id="패스_2047" data-name="패스 2047" class="cls-4" d="M42.391,43.842a.946.946,0,0,1-1.891,0,.956.956,0,0,1,.946-.946.93.93,0,0,1,.946.946" transform="translate(-23.847 -25.257)"/>
      <path id="패스_2048" data-name="패스 2048" class="cls-4" d="M59.338,52.369A1.069,1.069,0,1,1,58.269,51.3a1.089,1.089,0,0,1,1.069,1.069" transform="translate(-33.681 -30.207)"/>
      <path id="패스_2049" data-name="패스 2049" class="cls-4" d="M43.623,40.621a1.338,1.338,0,0,0-.123.535,1.035,1.035,0,0,0,.206.658,1.745,1.745,0,0,0,.781.617.332.332,0,0,0,.37-.123.282.282,0,0,0-.123-.37,1.2,1.2,0,0,1-.535-.411.663.663,0,0,1-.123-.37.308.308,0,0,1,.041-.206v-.041h0l-.123-.041.123.082h0l-.123-.041.123.082a.282.282,0,0,0-.123-.37c-.164-.206-.329-.123-.37,0" transform="translate(-25.614 -23.845)"/>
      <path id="패스_2050" data-name="패스 2050" class="cls-4" d="M59.442,49.821l.123.082-.123-.082h0l.123.082-.123-.082h0l-.164.164a.614.614,0,0,1-.411.123,1.089,1.089,0,0,1-.658-.247.268.268,0,0,0-.288.452,1.752,1.752,0,0,0,.987.329,1.355,1.355,0,0,0,.781-.247.613.613,0,0,0,.247-.288.268.268,0,0,0-.082-.37.309.309,0,0,0-.411.082" transform="translate(-34.031 -29.262)"/>
      <path id="패스_2051" data-name="패스 2051" class="cls-2" d="M5.14,68.815a2.245,2.245,0,0,0-.37.535,2.96,2.96,0,0,0-.37,1.357A2.282,2.282,0,0,0,4.729,71.9a.36.36,0,1,0,.617-.37,1.7,1.7,0,0,1-.247-.822,1.862,1.862,0,0,1,.288-.987,3.794,3.794,0,0,0,.206-.329c.041-.041.041-.082.082-.082h0l-.082-.082.041.041h0l-.041-.041.041.041a.375.375,0,0,0,0-.493.336.336,0,0,0-.493.041" transform="translate(-2.591 -40.444)"/>
      <path id="패스_2052" data-name="패스 2052" class="cls-2" d="M1.151,66.445a5.846,5.846,0,0,0-.576.822A4.362,4.362,0,0,0,0,69.364a3.681,3.681,0,0,0,.493,1.85.381.381,0,0,0,.493.123.381.381,0,0,0,.123-.493A3.112,3.112,0,0,1,.7,69.364a3.566,3.566,0,0,1,.493-1.727c.123-.206.247-.411.329-.535q.123-.062.123-.123l.041-.041h0L1.6,66.856l.082.082h0L1.6,66.856l.082.082a.375.375,0,0,0,0-.493.385.385,0,0,0-.535,0" transform="translate(0 -39.06)"/>
      <path id="패스_2053" data-name="패스 2053" class="cls-8" d="M13.8,24.3s-.411,4.729-3.5,4.77c0,0,2.385-.164,3.5,3.824,0,0,.535-3.454,3.207-3.783,0-.041-3.865-.123-3.207-4.811" transform="translate(-6.065 -14.308)"/>
      <path id="패스_2054" data-name="패스 2054" class="cls-2" d="M62.581,31.053a.781.781,0,0,1-.781-.781v-.493c.082-1.727.617-2.878,2.919-2.878h2.261a.781.781,0,0,1,0,1.562H64.719c-1.069,0-1.275.123-1.357,1.4v.411a.781.781,0,0,1-.781.781" transform="translate(-36.389 -15.839)"/>
      <path id="패스_2055" data-name="패스 2055" class="cls-2" d="M57.481,27.269a.781.781,0,0,1-.781-.781v-.493A4.153,4.153,0,0,1,60.976,21.8h4.112a.781.781,0,1,1,0,1.562H61.017a2.628,2.628,0,0,0-2.755,2.714v.411a.808.808,0,0,1-.781.781" transform="translate(-33.386 -12.836)"/>
      <path id="패스_2056" data-name="패스 2056" class="cls-2" d="M52.481,23.52a.781.781,0,0,1-.781-.781v-.206A5.642,5.642,0,0,1,57.333,16.9h6.085a.781.781,0,0,1,.781.781.756.756,0,0,1-.781.781H57.374a4.124,4.124,0,0,0-4.112,4.112v.206a.747.747,0,0,1-.781.74" transform="translate(-30.442 -9.951)"/>
    </g>
  </g>
</svg>
