<svg xmlns="http://www.w3.org/2000/svg" viewBox="0 0 160 140">
  <defs>
    <style>
      .cls-1 {
        fill: none;
      }

      .cls-2 {
        fill: #64c0ab;
      }

      .cls-3 {
        fill: #fdd23e;
      }

      .cls-4 {
        fill: #fbf6d2;
      }

      .cls-5 {
        fill: #99d9d9;
      }

      .cls-6 {
        fill: #e0b079;
      }

      .cls-7 {
        fill: #fdd35c;
      }

      .cls-8 {
        fill: #727171;
      }

      .cls-9 {
        fill: #f2e9b6;
      }

      .cls-10 {
        fill: #74c6be;
      }

      .cls-11 {
        fill: #fff;
      }

      .cls-12 {
        fill: #fbc93e;
      }
    </style>
  </defs>
  <g id="그룹_670" data-name="그룹 670" transform="translate(0 -410)">
    <rect id="사각형_268" data-name="사각형 268" class="cls-1" width="160" height="140" transform="translate(0 410)"/>
    <g id="그룹_590" data-name="그룹 590" transform="translate(21 458.445)">
      <g id="그룹_550" data-name="그룹 550" transform="translate(52.927 4.227)">
        <g id="그룹_519" data-name="그룹 519">
          <g id="그룹_516" data-name="그룹 516" transform="translate(26.36 13.456)">
            <path id="패스_2735" data-name="패스 2735" class="cls-2" d="M152.853,44.577A18.977,18.977,0,1,1,133.877,25.6,18.966,18.966,0,0,1,152.853,44.577Z" transform="translate(-114.9 -25.6)"/>
          </g>
          <g id="그룹_517" data-name="그룹 517" transform="translate(15.112)">
            <path id="패스_2736" data-name="패스 2736" class="cls-2" d="M131.723,22.661A16.561,16.561,0,1,1,115.161,6.1,16.566,16.566,0,0,1,131.723,22.661Z" transform="translate(-98.6 -6.1)"/>
          </g>
          <g id="그룹_518" data-name="그룹 518" transform="translate(0 12.421)">
            <path id="패스_2737" data-name="패스 2737" class="cls-2" d="M114.653,43.077A18.977,18.977,0,1,1,95.677,24.1,18.966,18.966,0,0,1,114.653,43.077Z" transform="translate(-76.7 -24.1)"/>
          </g>
        </g>
        <g id="그룹_525" data-name="그룹 525" transform="translate(11.524 35.049)">
          <g id="그룹_520" data-name="그룹 520" transform="translate(1.242 1.731)">
            <path id="패스_2738" data-name="패스 2738" class="cls-3" d="M100.237,62.436a2.3,2.3,0,0,1-.414.69,1.86,1.86,0,0,1-.483.552,2.884,2.884,0,0,1-.69.276c-.276.069-.483.138-.759.207a1.486,1.486,0,0,1-.759-.138,2.159,2.159,0,0,1-.69-.345c-.207-.138-.483-.207-.621-.414s-.207-.483-.345-.69c-.069-.276-.207-.483-.276-.759a2.481,2.481,0,0,1,.138-.759,2.159,2.159,0,0,1,.345-.69,2.1,2.1,0,0,1,.552-.552,3.223,3.223,0,0,1,.69-.345,2.182,2.182,0,0,1,1.518.138,2.066,2.066,0,0,1,.69.276,4.164,4.164,0,0,1,.552.552,2.158,2.158,0,0,1,.345.69,3.111,3.111,0,0,1,.207.759A1.282,1.282,0,0,1,100.237,62.436Z" transform="translate(-95.2 -59.4)"/>
          </g>
          <g id="그룹_521" data-name="그룹 521" transform="translate(1.418 1.631)">
            <path id="패스_2739" data-name="패스 2739" class="cls-3" d="M100.317,62.391a2.3,2.3,0,0,1-.414.69,2.149,2.149,0,0,1-.483.621,2.472,2.472,0,0,1-.759.276,2.156,2.156,0,0,1-1.518,0,2.066,2.066,0,0,1-.69-.276,2.1,2.1,0,0,1-.552-.552,3.241,3.241,0,0,1-.414-.621,2.783,2.783,0,0,1,0-.759,2.83,2.83,0,0,1,.069-.759,2.446,2.446,0,0,1,.207-.759,2.1,2.1,0,0,1,.552-.552,2.472,2.472,0,0,1,.759-.276,2.935,2.935,0,0,1,.759-.138,2.8,2.8,0,0,1,.759,0,2.159,2.159,0,0,1,.69.345,1.86,1.86,0,0,1,.552.483,2.158,2.158,0,0,1,.345.69,2.935,2.935,0,0,1,.138.759A1.682,1.682,0,0,1,100.317,62.391Z" transform="translate(-95.456 -59.256)"/>
          </g>
          <g id="그룹_522" data-name="그룹 522" transform="translate(2.508 0.995)">
            <path id="패스_2740" data-name="패스 2740" class="cls-3" d="M98.943,59.553a.96.96,0,0,1-1.794.207A1,1,0,0,1,97.08,59a.789.789,0,0,1,.483-.552.949.949,0,0,1,.759-.069,1,1,0,0,1,.621.414A1.411,1.411,0,0,1,98.943,59.553Z" transform="translate(-97.034 -58.334)"/>
          </g>
          <g id="그룹_523" data-name="그룹 523" transform="translate(2.553 3.387)">
            <path id="패스_2741" data-name="패스 2741" class="cls-4" d="M98.769,64.345c-.069,0-.069,0-.069-.069v-.138l.069-.069c0-.069.069-.069.138-.069s.069.069.069.138-.069.138-.207.207Z" transform="translate(-97.596 -62.482)"/>
            <path id="패스_2742" data-name="패스 2742" class="cls-4" d="M100.356,65.145c-.069,0-.069,0-.069-.069-.069-.069,0-.138.069-.138l.069-.069c0-.069.069-.069.138-.069s.069.069.069.138a.953.953,0,0,1-.276.207Z" transform="translate(-98.079 -62.73)"/>
            <path id="패스_2743" data-name="패스 2743" class="cls-4" d="M101.569,63.045c-.069,0-.069,0-.069-.069s0-.138.069-.138l.069-.069c0-.069.069-.069.138-.069s.069.069.069.138a.952.952,0,0,1-.276.207Z" transform="translate(-98.464 -62.079)"/>
            <path id="패스_2744" data-name="패스 2744" class="cls-4" d="M101.169,62.145c-.069,0-.069,0-.069-.069s0-.138.069-.138l.069-.069c0-.069.069-.069.138-.069s.069.069.069.138a.952.952,0,0,1-.276.207C101.238,62.076,101.238,62.145,101.169,62.145Z" transform="translate(-98.34 -61.8)"/>
            <path id="패스_2745" data-name="패스 2745" class="cls-4" d="M100.055,64.145c-.069,0-.069,0-.069-.069a.1.1,0,0,1,0-.138l.069-.069c0-.069.069-.069.138-.069s.069.069.069.138-.069.138-.207.207Z" transform="translate(-97.985 -62.42)"/>
            <path id="패스_2746" data-name="패스 2746" class="cls-4" d="M100.369,63.145c-.069,0-.069,0-.069-.069s0-.138.069-.138l.069-.069c0-.069.069-.069.138-.069s.069.069.069.138a.953.953,0,0,1-.276.207Z" transform="translate(-98.092 -62.11)"/>
            <path id="패스_2747" data-name="패스 2747" class="cls-4" d="M101.155,64.145c-.069,0-.069,0-.069-.069a.1.1,0,0,1,0-.138l.069-.069c0-.069.069-.069.138-.069s.069.069.069.138-.069.138-.207.207Z" transform="translate(-98.326 -62.42)"/>
            <path id="패스_2748" data-name="패스 2748" class="cls-4" d="M99.269,65.345c-.069,0-.069,0-.069-.069s0-.138.069-.138l.069-.069c0-.069.069-.069.138-.069s.069.069.069.138a.952.952,0,0,1-.276.207Z" transform="translate(-97.751 -62.792)"/>
            <path id="패스_2749" data-name="패스 2749" class="cls-4" d="M97.169,64.945c-.069,0-.069,0-.069-.069v-.138l.069-.069c0-.069.069-.069.138-.069s.069.069.069.138-.069.138-.207.207Z" transform="translate(-97.1 -62.668)"/>
            <path id="패스_2750" data-name="패스 2750" class="cls-4" d="M98.169,65.345c-.069,0-.069,0-.069-.069v-.138l.069-.069c0-.069.069-.069.138-.069s.069.069.069.138c-.069.069-.138.207-.207.207Z" transform="translate(-97.41 -62.792)"/>
          </g>
          <g id="그룹_524" data-name="그룹 524">
            <path id="패스_2751" data-name="패스 2751" class="cls-5" d="M98.452,58.707c0,.069-.138.138-.276.138s-.276-.069-.276-.138a.22.22,0,0,1,.207-.207C98.245,58.569,98.452,58.638,98.452,58.707Z" transform="translate(-94.795 -57.39)"/>
            <path id="패스_2752" data-name="패스 2752" class="cls-5" d="M96.505,58.14s-1.656-1.311-3.105,1.1C93.4,59.245,96.643,59.452,96.505,58.14Z" transform="translate(-93.4 -57.169)"/>
            <path id="패스_2753" data-name="패스 2753" class="cls-5" d="M96.922,57.795s-.621-1.587-2.622-.552C94.3,57.243,96.439,58.761,96.922,57.795Z" transform="translate(-93.679 -56.892)"/>
            <path id="패스_2754" data-name="패스 2754" class="cls-5" d="M97.983,58.459c-.069,0-.069-.069,0,0a.53.53,0,0,0-.138-.207.953.953,0,0,0-.207-.276l-.069-.069-.069-.069v-.069c0-.069,0-.069.069-.069h.138l.069.069.069.069c.069.138.138.207.207.345.069.069.069.138.069.276Z" transform="translate(-94.671 -57.142)"/>
          </g>
        </g>
        <g id="그룹_531" data-name="그룹 531" transform="translate(41.927 23.456)">
          <g id="그룹_526" data-name="그룹 526" transform="translate(0.067 1.562)">
            <path id="패스_2755" data-name="패스 2755" class="cls-3" d="M137.655,45.491a2.066,2.066,0,0,0,.276.69,2.1,2.1,0,0,0,.552.552,2.884,2.884,0,0,0,.69.276,2.934,2.934,0,0,0,.759.138,2.784,2.784,0,0,0,.759,0,2.472,2.472,0,0,0,.759-.276,2.148,2.148,0,0,0,.483-.621,3.241,3.241,0,0,0,.414-.621,3.094,3.094,0,0,0,.069-.759,2.587,2.587,0,0,0-.069-.759c-.069-.276-.276-.414-.414-.621a4.163,4.163,0,0,0-.552-.552,2.8,2.8,0,0,0-.621-.345c-.276-.069-.483-.138-.759-.207a2.783,2.783,0,0,0-.759,0,1.532,1.532,0,0,0-.759.345c-.207.138-.276.483-.414.69s-.414.345-.483.621a2.783,2.783,0,0,0,0,.759A2.589,2.589,0,0,0,137.655,45.491Z" transform="translate(-137.556 -42.356)"/>
          </g>
          <g id="그룹_527" data-name="그룹 527" transform="translate(0 1.493)">
            <path id="패스_2756" data-name="패스 2756" class="cls-3" d="M137.487,45.46c.069.276.276.414.483.621a3.793,3.793,0,0,0,.483.621,2.884,2.884,0,0,0,.69.276,2.935,2.935,0,0,0,.759.138,2.783,2.783,0,0,0,.759,0,2.766,2.766,0,0,0,1.518-1.656,3.111,3.111,0,0,0,.207-.759,2.784,2.784,0,0,0,0-.759,2.3,2.3,0,0,0-.414-.69,3.792,3.792,0,0,0-.483-.621,2.884,2.884,0,0,0-.69-.276,2.831,2.831,0,0,0-.759-.069,2.8,2.8,0,0,0-.759,0c-.276.069-.414.276-.69.414a1.761,1.761,0,0,0-.966,1.173,2.83,2.83,0,0,0-.069.759A1.817,1.817,0,0,0,137.487,45.46Z" transform="translate(-137.459 -42.256)"/>
          </g>
          <g id="그룹_528" data-name="그룹 528" transform="translate(1.846 0.788)">
            <path id="패스_2757" data-name="패스 2757" class="cls-3" d="M140.18,42.591a.789.789,0,0,0,.483.552.949.949,0,0,0,.759.069.878.878,0,0,0,.621-.483.949.949,0,0,0,.069-.759.878.878,0,0,0-.483-.621.949.949,0,0,0-.759-.069.878.878,0,0,0-.621.483A1.2,1.2,0,0,0,140.18,42.591Z" transform="translate(-140.134 -41.234)"/>
          </g>
          <g id="그룹_529" data-name="그룹 529" transform="translate(0.374 3.318)">
            <path id="패스_2758" data-name="패스 2758" class="cls-4" d="M141.076,47.445c.069,0,.069,0,.069-.069s0-.138-.069-.138l-.069-.069c0-.069-.069-.069-.138-.069s-.069.069-.069.138c.069.069.138.207.276.207Z" transform="translate(-138.868 -45.582)"/>
            <path id="패스_2759" data-name="패스 2759" class="cls-4" d="M139.476,48.245c.069,0,.069,0,.069-.069s0-.138-.069-.138l-.069-.069c0-.069-.069-.069-.138-.069s-.069.069-.069.138c.069.069.207.138.276.207Z" transform="translate(-138.372 -45.83)"/>
            <path id="패스_2760" data-name="패스 2760" class="cls-4" d="M138.276,46.145c.069,0,.069,0,.069-.069s0-.138-.069-.138l-.069-.069c0-.069-.069-.069-.138-.069s-.069.069-.069.138c.069.069.138.207.276.207Z" transform="translate(-138 -45.179)"/>
            <path id="패스_2761" data-name="패스 2761" class="cls-4" d="M138.676,45.245c.069,0,.069,0,.069-.069s0-.138-.069-.138l-.069-.069c0-.069-.069-.069-.138-.069s-.069.069-.069.138a.953.953,0,0,0,.276.207Z" transform="translate(-138.124 -44.9)"/>
            <path id="패스_2762" data-name="패스 2762" class="cls-4" d="M139.807,47.245c.069,0,.069,0,.069-.069a.1.1,0,0,0,0-.138l-.069-.069c0-.069-.069-.069-.138-.069s-.069.069-.069.138a.183.183,0,0,0,.207.207Z" transform="translate(-138.496 -45.52)"/>
            <path id="패스_2763" data-name="패스 2763" class="cls-4" d="M139.476,46.245c.069,0,.069,0,.069-.069s0-.138-.069-.138l-.069-.069c0-.069-.069-.069-.138-.069s-.069.069-.069.138a.953.953,0,0,0,.276.207Z" transform="translate(-138.372 -45.21)"/>
            <path id="패스_2764" data-name="패스 2764" class="cls-4" d="M138.707,47.345c.069,0,.069,0,.069-.069a.1.1,0,0,0,0-.138l-.069-.069c0-.069-.069-.069-.138-.069s-.069.069-.069.138.069.138.207.207Z" transform="translate(-138.155 -45.551)"/>
            <path id="패스_2765" data-name="패스 2765" class="cls-4" d="M140.576,48.545c.069,0,.069,0,.069-.069s0-.138-.069-.138l-.069-.069c0-.069-.069-.069-.138-.069s-.069.069-.069.138a.953.953,0,0,0,.276.207Z" transform="translate(-138.713 -45.923)"/>
            <path id="패스_2766" data-name="패스 2766" class="cls-4" d="M142.707,48.045c.069,0,.069,0,.069-.069v-.138l-.069-.069c0-.069-.069-.069-.138-.069s-.069.069-.069.138.069.138.207.207Z" transform="translate(-139.395 -45.768)"/>
            <path id="패스_2767" data-name="패스 2767" class="cls-4" d="M141.807,48.545c.069,0,.069,0,.069-.069a.1.1,0,0,0,0-.138l-.069-.069c0-.069-.069-.069-.138-.069s-.069.069-.069.138.069.138.207.207Z" transform="translate(-139.116 -45.923)"/>
          </g>
          <g id="그룹_530" data-name="그룹 530" transform="translate(2.651)">
            <path id="패스_2768" data-name="패스 2768" class="cls-5" d="M141.3,41.907c0,.069.138.138.276.138s.276-.069.276-.138a.22.22,0,0,0-.207-.207C141.507,41.7,141.3,41.838,141.3,41.907Z" transform="translate(-141.3 -40.59)"/>
            <path id="패스_2769" data-name="패스 2769" class="cls-5" d="M142.1,41.352s1.656-1.242,3.105,1.1C145.2,42.388,142.03,42.595,142.1,41.352Z" transform="translate(-141.547 -40.381)"/>
            <path id="패스_2770" data-name="패스 2770" class="cls-5" d="M141.9,40.995s.621-1.587,2.622-.552C144.522,40.443,142.383,41.892,141.9,40.995Z" transform="translate(-141.486 -40.092)"/>
            <path id="패스_2771" data-name="패스 2771" class="cls-5" d="M141.738,41.659h0a.531.531,0,0,1,.138-.207.953.953,0,0,1,.207-.276l.069-.069.069-.069v-.069a.068.068,0,0,0-.069-.069h-.138l-.069.069-.069.069c-.069.138-.138.207-.207.345-.069.069-.069.138-.069.276.069-.069.069,0,.138,0Z" transform="translate(-141.393 -40.342)"/>
          </g>
        </g>
        <g id="그룹_537" data-name="그룹 537" transform="translate(30.846 6.688)">
          <g id="그룹_532" data-name="그룹 532" transform="translate(1.556 1.575)">
            <path id="패스_2772" data-name="패스 2772" class="cls-3" d="M128.379,21.2a2.159,2.159,0,0,1-.345.69,1.86,1.86,0,0,1-.483.552,2.3,2.3,0,0,1-.69.414,3.094,3.094,0,0,1-.759.069,2.831,2.831,0,0,1-.759-.069,2.067,2.067,0,0,1-.69-.276,2.149,2.149,0,0,1-.483-.621,3.241,3.241,0,0,1-.414-.621,3.1,3.1,0,0,1-.069-.759,2.784,2.784,0,0,1,0-.759,2.3,2.3,0,0,1,.414-.69,3.953,3.953,0,0,1,1.311-.828,3.111,3.111,0,0,1,.759-.207c.276,0,.552-.069.759.069a2.159,2.159,0,0,1,.69.345,4.164,4.164,0,0,1,.552.552c.138.207.414.414.483.621a2.783,2.783,0,0,1,0,.759C128.379,20.714,128.448,20.99,128.379,21.2Z" transform="translate(-123.656 -18.075)"/>
          </g>
          <g id="그룹_533" data-name="그룹 533" transform="translate(1.242 1.524)">
            <path id="패스_2773" data-name="패스 2773" class="cls-3" d="M128.237,21.243a2.551,2.551,0,0,1-.345.759,2.1,2.1,0,0,1-.552.552,2.472,2.472,0,0,1-.759.276,3.111,3.111,0,0,1-.759.207,2.481,2.481,0,0,1-.759-.138,2.3,2.3,0,0,1-.69-.414,2.149,2.149,0,0,1-.621-.483,2.884,2.884,0,0,1-.276-.69c-.069-.276-.207-.483-.276-.759a3.111,3.111,0,0,1,.207-.759,2.159,2.159,0,0,1,.345-.69,2.1,2.1,0,0,1,.552-.552,6.412,6.412,0,0,1,.69-.345,1.5,1.5,0,0,1,1.518,0,2.446,2.446,0,0,1,.759.207,2.148,2.148,0,0,1,.621.483c.138.207.207.483.345.69a2.83,2.83,0,0,1,.069.759C128.237,20.691,128.306,20.967,128.237,21.243Z" transform="translate(-123.2 -18)"/>
          </g>
          <g id="그룹_534" data-name="그룹 534" transform="translate(2.457 0.788)">
            <path id="패스_2774" data-name="패스 2774" class="cls-3" d="M126.92,18.291a.789.789,0,0,1-.483.552,1.054,1.054,0,0,1-1.449-1.173,1.1,1.1,0,0,1,.483-.621.949.949,0,0,1,.759-.069.789.789,0,0,1,.552.483A.966.966,0,0,1,126.92,18.291Z" transform="translate(-124.961 -16.934)"/>
          </g>
          <g id="그룹_535" data-name="그룹 535" transform="translate(2.553 3.318)">
            <path id="패스_2775" data-name="패스 2775" class="cls-4" d="M126.769,23.245c-.069,0-.069,0-.069-.069v-.138l.069-.069c0-.069.069-.069.138-.069s.069.069.069.138-.069.138-.207.207C126.838,23.176,126.838,23.245,126.769,23.245Z" transform="translate(-125.596 -21.313)"/>
            <path id="패스_2776" data-name="패스 2776" class="cls-4" d="M128.369,23.945c-.069,0-.069,0-.069-.069s0-.138.069-.138l.069-.069c0-.069.069-.069.138-.069s.069.069.069.138a.953.953,0,0,1-.276.207Z" transform="translate(-126.092 -21.53)"/>
            <path id="패스_2777" data-name="패스 2777" class="cls-4" d="M129.569,21.845c-.069,0-.069,0-.069-.069s0-.138.069-.138l.069-.069c0-.069.069-.069.138-.069s.069.069.069.138c-.069.138-.138.207-.276.207Z" transform="translate(-126.464 -20.879)"/>
            <path id="패스_2778" data-name="패스 2778" class="cls-4" d="M129.269,20.945c-.069,0-.069,0-.069-.069s0-.138.069-.138l.069-.069c0-.069.069-.069.138-.069s.069.069.069.138a.952.952,0,0,0-.276.207Z" transform="translate(-126.371 -20.6)"/>
            <path id="패스_2779" data-name="패스 2779" class="cls-4" d="M128.169,23.045c-.069,0-.069,0-.069-.069v-.138l.069-.069c0-.069.069-.069.138-.069s.069.069.069.138l-.207.207Z" transform="translate(-126.03 -21.251)"/>
            <path id="패스_2780" data-name="패스 2780" class="cls-4" d="M128.469,21.945c-.069,0-.069,0-.069-.069s0-.138.069-.138l.069-.069c0-.069.069-.069.138-.069s.069.069.069.138a.953.953,0,0,0-.276.207Z" transform="translate(-126.123 -20.91)"/>
            <path id="패스_2781" data-name="패스 2781" class="cls-4" d="M129.255,23.045c-.069,0-.069,0-.069-.069a.1.1,0,0,1,0-.138l.069-.069c0-.069.069-.069.138-.069s.069.069.069.138l-.207.207Z" transform="translate(-126.357 -21.251)"/>
            <path id="패스_2782" data-name="패스 2782" class="cls-4" d="M127.269,24.245c-.069,0-.069,0-.069-.069s0-.138.069-.138l.069-.069c0-.069.069-.069.138-.069s.069.069.069.138a.953.953,0,0,1-.276.207Z" transform="translate(-125.751 -21.623)"/>
            <path id="패스_2783" data-name="패스 2783" class="cls-4" d="M125.169,23.745c-.069,0-.069,0-.069-.069v-.138l.069-.069c0-.069.069-.069.138-.069s.069.069.069.138-.069.138-.207.207Z" transform="translate(-125.1 -21.468)"/>
            <path id="패스_2784" data-name="패스 2784" class="cls-4" d="M126.169,24.245c-.069,0-.069,0-.069-.069v-.138l.069-.069c0-.069.069-.069.138-.069s.069.069.069.138-.069.138-.207.207Z" transform="translate(-125.41 -21.623)"/>
          </g>
          <g id="그룹_536" data-name="그룹 536">
            <path id="패스_2785" data-name="패스 2785" class="cls-5" d="M126.452,17.607c0,.069-.138.138-.276.138s-.276-.069-.276-.138a.22.22,0,0,1,.207-.207C126.245,17.4,126.452,17.538,126.452,17.607Z" transform="translate(-122.795 -16.29)"/>
            <path id="패스_2786" data-name="패스 2786" class="cls-5" d="M124.505,17.04s-1.656-1.311-3.105,1.1C121.469,18.145,124.643,18.283,124.505,17.04Z" transform="translate(-121.4 -16.069)"/>
            <path id="패스_2787" data-name="패스 2787" class="cls-5" d="M124.922,16.695s-.621-1.587-2.622-.552C122.369,16.143,124.508,17.592,124.922,16.695Z" transform="translate(-121.679 -15.792)"/>
            <path id="패스_2788" data-name="패스 2788" class="cls-5" d="M125.983,17.359h0a.531.531,0,0,0-.138-.207.953.953,0,0,0-.207-.276l-.069-.069a.068.068,0,0,1-.069-.069v-.069a.068.068,0,0,1,.069-.069h.138l.069.069a.068.068,0,0,0,.069.069c.069.138.138.207.207.345.069.069.069.138.069.276Z" transform="translate(-122.671 -16.042)"/>
          </g>
        </g>
        <g id="그룹_543" data-name="그룹 543" transform="translate(13.428 16.556)">
          <g id="그룹_538" data-name="그룹 538" transform="translate(0.029 1.593)">
            <path id="패스_2789" data-name="패스 2789" class="cls-3" d="M96.269,35.505a2.158,2.158,0,0,0,.345.69,4.164,4.164,0,0,0,.552.552,2.3,2.3,0,0,0,.69.414,1.5,1.5,0,0,0,1.518,0,2.158,2.158,0,0,0,.69-.345,1.86,1.86,0,0,0,.552-.483,6.412,6.412,0,0,0,.345-.69c.069-.276.276-.483.276-.759a2.481,2.481,0,0,0-.138-.759,2.159,2.159,0,0,0-.345-.69,3.945,3.945,0,0,0-.483-.552,2.159,2.159,0,0,0-.69-.345,2.481,2.481,0,0,0-.759-.138,3.36,3.36,0,0,0-.828.069,2.3,2.3,0,0,0-.69.414,4.164,4.164,0,0,0-.552.552,3.241,3.241,0,0,0-.414.621,2.481,2.481,0,0,0-.138.759A2.347,2.347,0,0,0,96.269,35.505Z" transform="translate(-96.2 -32.4)"/>
          </g>
          <g id="그룹_539" data-name="그룹 539" transform="translate(0 1.562)">
            <path id="패스_2790" data-name="패스 2790" class="cls-3" d="M96.256,35.491a3.953,3.953,0,0,0,.828,1.311,2.472,2.472,0,0,0,.759.276c.276.069.483.276.759.276a3.111,3.111,0,0,0,.759-.207,2.446,2.446,0,0,0,.759-.207c.207-.138.276-.414.483-.621a2.158,2.158,0,0,0,.345-.69,3.111,3.111,0,0,0,.207-.759,2.481,2.481,0,0,0-.138-.759,2.158,2.158,0,0,0-.345-.69,4.163,4.163,0,0,0-.552-.552,3.24,3.24,0,0,0-.621-.414,2.587,2.587,0,0,0-.759-.069,2.783,2.783,0,0,0-.759,0c-.276.069-.414.345-.621.483a3.655,3.655,0,0,0-.69.414,2.472,2.472,0,0,0-.276.759,3.111,3.111,0,0,0-.207.759A1.193,1.193,0,0,0,96.256,35.491Z" transform="translate(-96.159 -32.356)"/>
          </g>
          <g id="그룹_540" data-name="그룹 540" transform="translate(1.865 0.857)">
            <path id="패스_2791" data-name="패스 2791" class="cls-3" d="M98.888,32.622a1.1,1.1,0,0,0,.483.621.949.949,0,0,0,.759.069.789.789,0,0,0,.552-.483.949.949,0,0,0,.069-.759,1,1,0,0,0-.414-.621.95.95,0,0,0-1.311.414A1.063,1.063,0,0,0,98.888,32.622Z" transform="translate(-98.861 -31.334)"/>
          </g>
          <g id="그룹_541" data-name="그룹 541" transform="translate(0.374 3.318)">
            <path id="패스_2792" data-name="패스 2792" class="cls-4" d="M99.876,37.445c.069,0,.069,0,.069-.069s0-.138-.069-.138l-.069-.069c0-.069-.069-.069-.138-.069s-.069.069-.069.138c.069.069.138.207.276.207Z" transform="translate(-97.599 -35.582)"/>
            <path id="패스_2793" data-name="패스 2793" class="cls-4" d="M98.276,38.245c.069,0,.069,0,.069-.069s0-.138-.069-.138l-.069-.069c0-.069-.069-.069-.138-.069s-.069.069-.069.138a.953.953,0,0,0,.276.207Z" transform="translate(-97.103 -35.83)"/>
            <path id="패스_2794" data-name="패스 2794" class="cls-4" d="M96.976,36.145c.069,0,.069,0,.069-.069s0-.138-.069-.138l-.069-.069c0-.069-.069-.069-.138-.069s-.069.069-.069.138c.138.069.207.207.276.207Z" transform="translate(-96.7 -35.179)"/>
            <path id="패스_2795" data-name="패스 2795" class="cls-4" d="M97.376,35.245c.069,0,.069,0,.069-.069s0-.138-.069-.138l-.069-.069c0-.069-.069-.069-.138-.069s-.069.069-.069.138c.069.069.207.138.276.207Z" transform="translate(-96.824 -34.9)"/>
            <path id="패스_2796" data-name="패스 2796" class="cls-4" d="M98.507,37.245c.069,0,.069,0,.069-.069v-.138l-.069-.069c0-.069-.069-.069-.138-.069s-.069.069-.069.138a.311.311,0,0,0,.207.207Z" transform="translate(-97.196 -35.52)"/>
            <path id="패스_2797" data-name="패스 2797" class="cls-4" d="M98.207,36.245c.069,0,.069,0,.069-.069s0-.138-.069-.138l-.069-.069c0-.069-.069-.069-.138-.069,0,0,0,.069,0,.138s.138.138.207.207Z" transform="translate(-97.103 -35.21)"/>
            <path id="패스_2798" data-name="패스 2798" class="cls-4" d="M97.407,37.345c.069,0,.069,0,.069-.069a.1.1,0,0,0,0-.138l-.069-.069c0-.069-.069-.069-.138-.069s-.069.069-.069.138l.207.207Z" transform="translate(-96.855 -35.551)"/>
            <path id="패스_2799" data-name="패스 2799" class="cls-4" d="M99.376,38.545c.069,0,.069,0,.069-.069s0-.138-.069-.138l-.069-.069c0-.069-.069-.069-.138-.069s-.069.069-.069.138a.952.952,0,0,0,.276.207C99.307,38.476,99.307,38.545,99.376,38.545Z" transform="translate(-97.444 -35.923)"/>
            <path id="패스_2800" data-name="패스 2800" class="cls-4" d="M101.476,38.045c.069,0,.069,0,.069-.069s0-.138-.069-.138l-.069-.069c0-.069-.069-.069-.138-.069s-.069.069-.069.138a.953.953,0,0,0,.276.207Z" transform="translate(-98.095 -35.768)"/>
            <path id="패스_2801" data-name="패스 2801" class="cls-4" d="M100.507,38.545c.069,0,.069,0,.069-.069a.1.1,0,0,0,0-.138l-.069-.069c0-.069-.069-.069-.138-.069s-.069.069-.069.138.069.138.207.207Z" transform="translate(-97.816 -35.923)"/>
          </g>
          <g id="그룹_542" data-name="그룹 542" transform="translate(2.72)">
            <path id="패스_2802" data-name="패스 2802" class="cls-5" d="M100.1,31.907c0,.069.138.138.276.138s.276-.069.276-.138a.22.22,0,0,0-.207-.207C100.307,31.7,100.1,31.838,100.1,31.907Z" transform="translate(-100.1 -30.59)"/>
            <path id="패스_2803" data-name="패스 2803" class="cls-5" d="M100.8,31.34s1.656-1.311,3.105,1.1C103.9,32.376,100.73,32.583,100.8,31.34Z" transform="translate(-100.316 -30.369)"/>
            <path id="패스_2804" data-name="패스 2804" class="cls-5" d="M100.6,30.995s.621-1.587,2.622-.552C103.222,30.443,101.083,31.892,100.6,30.995Z" transform="translate(-100.255 -30.092)"/>
            <path id="패스_2805" data-name="패스 2805" class="cls-5" d="M100.538,31.659h0a.53.53,0,0,1,.138-.207.952.952,0,0,1,.207-.276l.069-.069a.068.068,0,0,0,.069-.069v-.069a.068.068,0,0,0-.069-.069h-.138l-.069.069a.068.068,0,0,1-.069.069c-.069.138-.138.207-.207.345-.069.069-.069.138-.069.276.069-.069.069,0,.138,0Z" transform="translate(-100.193 -30.342)"/>
          </g>
        </g>
        <g id="그룹_549" data-name="그룹 549" transform="translate(49.063 35.325)">
          <g id="그룹_544" data-name="그룹 544" transform="translate(1.311 1.524)">
            <path id="패스_2806" data-name="패스 2806" class="cls-3" d="M154.737,62.743a2.159,2.159,0,0,1-.345.69,2.1,2.1,0,0,1-.552.552c-.207.138-.483.138-.759.276a3.111,3.111,0,0,1-.759.207,2.934,2.934,0,0,1-.759-.138,2.159,2.159,0,0,1-.69-.345c-.207-.138-.552-.207-.69-.414a2.446,2.446,0,0,1-.207-.759c-.069-.276-.276-.483-.276-.759a3.359,3.359,0,0,1,.069-.828c.069-.276.345-.414.483-.621a4.164,4.164,0,0,1,.552-.552,2.159,2.159,0,0,1,.69-.345,1.5,1.5,0,0,1,1.518,0,2.067,2.067,0,0,1,.69.276,2.149,2.149,0,0,1,.621.483,2.472,2.472,0,0,1,.276.759,2.446,2.446,0,0,1,.207.759C154.737,62.191,154.806,62.467,154.737,62.743Z" transform="translate(-149.7 -59.5)"/>
          </g>
          <g id="그룹_545" data-name="그룹 545" transform="translate(1.349 1.524)">
            <path id="패스_2807" data-name="패스 2807" class="cls-3" d="M154.686,62.743a2.3,2.3,0,0,1-.414.69,4.164,4.164,0,0,1-.552.552,6.415,6.415,0,0,1-.69.345c-.207.069-.483.207-.759.276a2.934,2.934,0,0,1-.759-.138,2.3,2.3,0,0,1-.69-.414,2.1,2.1,0,0,1-.552-.552c-.138-.207-.414-.414-.483-.621a2.783,2.783,0,0,1,0-.759,2.83,2.83,0,0,1,.069-.759,2.472,2.472,0,0,1,.276-.759,2.1,2.1,0,0,1,.552-.552,2.884,2.884,0,0,1,.69-.276c.276-.069.483-.276.759-.276a2.587,2.587,0,0,1,.759.069,1.532,1.532,0,0,1,.759.345,2.1,2.1,0,0,1,.552.552,3.222,3.222,0,0,1,.345.69,2.782,2.782,0,0,1,0,.759A1.188,1.188,0,0,1,154.686,62.743Z" transform="translate(-149.756 -59.5)"/>
          </g>
          <g id="그룹_546" data-name="그룹 546" transform="translate(2.439 0.875)">
            <path id="패스_2808" data-name="패스 2808" class="cls-3" d="M153.312,59.83a.789.789,0,0,1-.483.552.949.949,0,0,1-.759.069,1,1,0,0,1-.621-.414.949.949,0,0,1-.069-.759.773.773,0,0,1,.483-.552.958.958,0,0,1,.759-.138.789.789,0,0,1,.552.483A.805.805,0,0,1,153.312,59.83Z" transform="translate(-151.334 -58.561)"/>
          </g>
          <g id="그룹_547" data-name="그룹 547" transform="translate(2.523 3.318)">
            <path id="패스_2809" data-name="패스 2809" class="cls-4" d="M153.169,64.645c-.069,0-.069,0-.069-.069v-.138l.069-.069c0-.069.069-.069.138-.069s.069.069.069.138a.183.183,0,0,1-.207.207Z" transform="translate(-151.965 -62.782)"/>
            <path id="패스_2810" data-name="패스 2810" class="cls-4" d="M154.769,65.445c-.069,0-.069,0-.069-.069s0-.138.069-.138l.069-.069c0-.069.069-.069.138-.069s.069.069.069.138a.953.953,0,0,1-.276.207Z" transform="translate(-152.461 -63.03)"/>
            <path id="패스_2811" data-name="패스 2811" class="cls-4" d="M155.969,63.345c-.069,0-.069,0-.069-.069s0-.138.069-.138l.069-.069c0-.069.069-.069.138-.069s.069.069.069.138c-.069.138-.138.207-.276.207Z" transform="translate(-152.833 -62.379)"/>
            <path id="패스_2812" data-name="패스 2812" class="cls-4" d="M155.569,62.445c-.069,0-.069,0-.069-.069s0-.138.069-.138l.069-.069c0-.069.069-.069.138-.069s.069.069.069.138a.952.952,0,0,1-.276.207Z" transform="translate(-152.709 -62.1)"/>
            <path id="패스_2813" data-name="패스 2813" class="cls-4" d="M154.455,64.545c-.069,0-.069,0-.069-.069a.1.1,0,0,1,0-.138l.069-.069c0-.069.069-.069.138-.069s.069.069.069.138-.069.138-.207.207C154.524,64.476,154.524,64.545,154.455,64.545Z" transform="translate(-152.354 -62.751)"/>
            <path id="패스_2814" data-name="패스 2814" class="cls-4" d="M154.769,63.445c-.069,0-.069,0-.069-.069s0-.138.069-.138l.069-.069c0-.069.069-.069.138-.069s.069.069.069.138a.953.953,0,0,1-.276.207Z" transform="translate(-152.461 -62.41)"/>
            <path id="패스_2815" data-name="패스 2815" class="cls-4" d="M155.555,64.545c-.069,0-.069,0-.069-.069a.1.1,0,0,1,0-.138l.069-.069c0-.069.069-.069.138-.069s.069.069.069.138-.069.138-.207.207Z" transform="translate(-152.695 -62.751)"/>
            <path id="패스_2816" data-name="패스 2816" class="cls-4" d="M153.669,65.745c-.069,0-.069,0-.069-.069s0-.138.069-.138l.069-.069c0-.069.069-.069.138-.069s.069.069.069.138a.953.953,0,0,1-.276.207Z" transform="translate(-152.12 -63.123)"/>
            <path id="패스_2817" data-name="패스 2817" class="cls-4" d="M151.555,65.245c-.069,0-.069,0-.069-.069a.1.1,0,0,1,0-.138l.069-.069c0-.069.069-.069.138-.069s.069.069.069.138-.069.138-.207.207Z" transform="translate(-151.456 -62.968)"/>
            <path id="패스_2818" data-name="패스 2818" class="cls-4" d="M152.555,65.745c-.069,0-.069,0-.069-.069a.1.1,0,0,1,0-.138l.069-.069c0-.069.069-.069.138-.069s.069.069.069.138-.138.138-.207.207Z" transform="translate(-151.766 -63.123)"/>
          </g>
          <g id="그룹_548" data-name="그룹 548">
            <path id="패스_2819" data-name="패스 2819" class="cls-5" d="M152.852,59.107c0,.069-.138.138-.276.138s-.276-.069-.276-.138a.22.22,0,0,1,.207-.207C152.645,58.9,152.852,59.038,152.852,59.107Z" transform="translate(-149.195 -57.79)"/>
            <path id="패스_2820" data-name="패스 2820" class="cls-5" d="M150.905,58.54s-1.656-1.311-3.105,1.1C147.8,59.645,151.043,59.783,150.905,58.54Z" transform="translate(-147.8 -57.569)"/>
            <path id="패스_2821" data-name="패스 2821" class="cls-5" d="M151.322,58.195s-.621-1.587-2.622-.552C148.769,57.643,150.839,59.092,151.322,58.195Z" transform="translate(-148.079 -57.292)"/>
            <path id="패스_2822" data-name="패스 2822" class="cls-5" d="M152.383,58.859c0-.069-.069-.069,0,0a.53.53,0,0,0-.138-.207.952.952,0,0,0-.207-.276l-.069-.069-.069-.069v-.069a.068.068,0,0,1,.069-.069h.138l.069.069.069.069c.069.138.138.207.207.345.069.069.069.138.069.276-.069-.069-.069,0-.138,0Z" transform="translate(-149.071 -57.542)"/>
          </g>
        </g>
        <path id="패스_2823" data-name="패스 2823" class="cls-6" d="M121.5,54.4" transform="translate(-90.585 -21.07)"/>
        <path id="패스_2824" data-name="패스 2824" class="cls-7" d="M129.325,57.429c-.069-.621-.552-1.1-.759-1.656-.552-1.449-1.794-.138-2.691.345-2.277,1.242-4.485,3.45-6.763,4.692.207-.069-.138-2.484-.138-2.76a10.7,10.7,0,0,0-.483-3.312c-.276-.828-.621-1.725-.9-2.553-.345-.9-.621-1.794-.966-2.691-.069-.207-.483-1.035-.414-1.173,1.794-4.14,3.588-8.35,5.382-12.49.414-.9.966-1.725,1.38-2.691.483-1.311.276-1.932-1.173-2.139-1.242-.207-2.484,2.829-2.967,3.657,0-.069-3.519-2.484-3.8-2.76-.69-.483-1.311-.966-2-1.518-.828-.621-.966-.69-1.656,0-.759.759.276,1.311.9,1.863.69.69,1.449,1.38,2.139,2,.966.9,1.932,1.863,2.9,2.76L112,45.353c-1.725-.9-3.381-1.794-5.106-2.691-1.1-.621-2.208-1.311-3.312-1.932-.621-.345-.828-.69-1.449-.345-.69.414-1.449,1.656-.759,2.346a26.083,26.083,0,0,0,3.864,2.76c1.449,1.035,2.9,2.07,4.278,3.174.207.207.69.414.828.69a1.387,1.387,0,0,1,.276.552c1.656,2.967,1.587,9.8,1.38,13.249l-.483,18.079a1.656,1.656,0,0,1-.483.828,8.981,8.981,0,0,1-1.587,1.242,5,5,0,0,0-.621.345c-.207.138-.414.483,0,.621a1.472,1.472,0,0,0,.552,0l4.209-.414c.069,0,.207.345.276.414l1.035,1.656c.276.483.759,1.38,1.449,1.311.276,0,.345-.207.483-.414a21.809,21.809,0,0,0,2-3.45s.345.069.414.069c.69.138,1.311.345,2,.552a16.248,16.248,0,0,0,2.415.759c.207.069.69.138.828-.069.138-.276-.345-.552-.552-.621a7.526,7.526,0,0,0-.759-.414,9.478,9.478,0,0,1-1.38-.9,6.968,6.968,0,0,1-1.1-.9,3.609,3.609,0,0,1-.138-1.725c0-3.243-.138-6.487-.207-9.73,0-1.449-.069-2.9-.069-4.347,0-.138.966-.69,1.035-.828a47.477,47.477,0,0,0,4.278-4.071,15.955,15.955,0,0,1,2-1.656C128.083,58.947,129.463,58.464,129.325,57.429Z" transform="translate(-84.264 -13.473)"/>
      </g>
      <path id="패스_2825" data-name="패스 2825" class="cls-8" d="M50.3,14.785S51.611.363,61.617.087c0,0,7.522-1.38,11.317,14.974Z" transform="translate(-15.59 0)"/>
      <path id="패스_2826" data-name="패스 2826" class="cls-8" d="M47.841,31.6H71.579c.552,4.83,1.242,9.661,1.725,14.491.9,8.488,1.794,16.975,3.036,25.394.552,3.8,2.691,9.385.414,12.9-1.863,2.9-5.451,2.967-8.557,2.967-4.347,0-8.695-.138-13.042,0-3.105.069-6.9.483-9.316-2.07-2.208-2.346-2-5.8-1.794-8.764.207-3.105.483-6.211.759-9.316.414-4.968.828-9.868,1.242-14.836.345-4.485.759-9.04,1.1-13.525.207-2.277.345-4.485.552-6.763v-.138" transform="translate(-13.614 -9.776)"/>
      <path id="패스_2827" data-name="패스 2827" class="cls-8" d="M74.443,26.712a1.163,1.163,0,0,1-1.173,1.173h-24.5A1.163,1.163,0,0,1,47.6,26.712V24.573A1.163,1.163,0,0,1,48.773,23.4h24.5a1.163,1.163,0,0,1,1.173,1.173Z" transform="translate(-14.753 -7.235)"/>
      <path id="패스_2828" data-name="패스 2828" class="cls-9" d="M60.315,38.194c0,1.035-.552,1.794-1.173,1.794-.69,0-1.242-.828-1.242-1.794,0-1.035.552-1.794,1.173-1.794C59.763,36.4,60.315,37.228,60.315,38.194Z" transform="translate(-17.946 -11.264)"/>
      <path id="패스_2829" data-name="패스 2829" class="cls-9" d="M73.215,38.694c0,1.035-.552,1.794-1.173,1.794-.69,0-1.242-.828-1.242-1.794s.552-1.794,1.173-1.794C72.663,36.9,73.215,37.659,73.215,38.694Z" transform="translate(-21.944 -11.419)"/>
      <path id="패스_2830" data-name="패스 2830" class="cls-8" d="M40.9,76.894a3.077,3.077,0,0,0,2.76,3.312l.828.069c1.656.138,3.174-2.346,3.312-4l1.656-17.665a3.077,3.077,0,0,0-2.76-3.312h-.9a3.077,3.077,0,0,0-3.312,2.76Z" transform="translate(-12.672 -17.117)"/>
      <path id="패스_2831" data-name="패스 2831" class="cls-9" d="M61.36,50.04a3.954,3.954,0,0,1-.759-.759.981.981,0,0,1,1.518-1.242,2.815,2.815,0,0,0,1.932,1.173,2.976,2.976,0,0,0,1.932-.759.976.976,0,1,1,1.38,1.38,4.99,4.99,0,0,1-3.381,1.311A4.1,4.1,0,0,1,61.36,50.04Z" transform="translate(-18.714 -14.76)"/>
      <path id="패스_2832" data-name="패스 2832" class="cls-8" d="M90.567,79.972c.207,1.518-.828,4.416-2.346,4.623l-2.208.621c-1.518.207-1.173-1.725-1.38-3.312L81.389,59.063A2.749,2.749,0,0,1,83.8,55.958l.759-.069A2.749,2.749,0,0,1,87.668,58.3Z" transform="translate(-25.218 -17.297)"/>
      <path id="패스_2833" data-name="패스 2833" class="cls-8" d="M87.568,45.238a1.835,1.835,0,0,1-1.587,2l-.483.069a1.835,1.835,0,0,1-2-1.587l-1.1-10.558a1.835,1.835,0,0,1,1.587-2l.483-.069a1.835,1.835,0,0,1,2,1.587Z" transform="translate(-25.532 -10.234)"/>
      <path id="패스_2834" data-name="패스 2834" class="cls-8" d="M44,45.281a1.89,1.89,0,0,0,1.656,2l.483.069a1.89,1.89,0,0,0,2-1.656l.9-10.627a1.89,1.89,0,0,0-1.656-2L46.9,33a1.848,1.848,0,0,0-2,1.656Z" transform="translate(-13.635 -10.208)"/>
      <g id="그룹_552" data-name="그룹 552" transform="translate(37.65 4.416)">
        <path id="패스_2835" data-name="패스 2835" class="cls-9" d="M58.456,7.427a.254.254,0,0,1-.207-.069.425.425,0,0,1-.069-.483c.069-.069.069-.207.138-.207a.352.352,0,0,1,.69.138.717.717,0,0,1-.276.552A.415.415,0,0,1,58.456,7.427Z" transform="translate(-55.668 -6.374)"/>
        <path id="패스_2836" data-name="패스 2836" class="cls-9" d="M61.642,7.427a.254.254,0,0,1-.207-.069.341.341,0,0,1-.069-.483.341.341,0,0,0,.069-.207.352.352,0,0,1,.69.138.717.717,0,0,1-.276.552C61.849,7.427,61.711,7.427,61.642,7.427Z" transform="translate(-56.647 -6.374)"/>
        <path id="패스_2837" data-name="패스 2837" class="cls-9" d="M57.856,12.627a.254.254,0,0,1-.207-.069.425.425,0,0,1-.069-.483c.069-.069.069-.207.138-.207a.352.352,0,0,1,.69.138,1.028,1.028,0,0,1-.276.621Z" transform="translate(-55.482 -7.986)"/>
        <path id="패스_2838" data-name="패스 2838" class="cls-9" d="M56.642,10.1a.254.254,0,0,1-.207-.069.341.341,0,0,1-.069-.483c.069-.069.069-.207.138-.276a.352.352,0,1,1,.69.138.852.852,0,0,1-.276.552A.523.523,0,0,1,56.642,10.1Z" transform="translate(-55.097 -7.18)"/>
        <path id="패스_2839" data-name="패스 2839" class="cls-9" d="M59.742,10.1a.254.254,0,0,1-.207-.069.341.341,0,0,1-.069-.483c.069-.069.069-.207.138-.276a.352.352,0,1,1,.69.138.852.852,0,0,1-.276.552A.359.359,0,0,1,59.742,10.1Z" transform="translate(-56.058 -7.18)"/>
        <g id="그룹_551" data-name="그룹 551" transform="translate(13.525 45.217)">
          <path id="패스_2840" data-name="패스 2840" class="cls-9" d="M76.4,80.536a.522.522,0,0,1-.276-.069.365.365,0,0,1-.069-.552.523.523,0,0,0,.138-.276.345.345,0,0,1,.414-.345.386.386,0,0,1,.345.414,1.054,1.054,0,0,1-.276.69C76.609,80.536,76.54,80.536,76.4,80.536Z" transform="translate(-74.719 -74.188)"/>
          <path id="패스_2841" data-name="패스 2841" class="cls-9" d="M74.6,76.842a.522.522,0,0,1-.276-.069.365.365,0,0,1-.069-.552.523.523,0,0,0,.138-.276.386.386,0,0,1,.414-.345c.207,0,.345.207.345.483a1.226,1.226,0,0,1-.276.69C74.809,76.773,74.671,76.842,74.6,76.842Z" transform="translate(-74.161 -73.047)"/>
          <path id="패스_2842" data-name="패스 2842" class="cls-9" d="M81.2,73.142a.415.415,0,0,1-.276-.069.365.365,0,0,1-.069-.552.523.523,0,0,0,.138-.276c0-.207.207-.345.483-.345.207,0,.345.207.345.483a1.226,1.226,0,0,1-.276.69A.517.517,0,0,1,81.2,73.142Z" transform="translate(-76.206 -71.9)"/>
          <path id="패스_2843" data-name="패스 2843" class="cls-9" d="M78.9,76.742a.522.522,0,0,1-.276-.069.365.365,0,0,1-.069-.552.523.523,0,0,0,.138-.276c0-.207.207-.345.483-.345.207,0,.345.207.345.483a1.457,1.457,0,0,1-.276.69A2.988,2.988,0,0,1,78.9,76.742Z" transform="translate(-75.493 -73.016)"/>
          <path id="패스_2844" data-name="패스 2844" class="cls-9" d="M77.5,73.142a.415.415,0,0,1-.276-.069.365.365,0,0,1-.069-.552.523.523,0,0,0,.138-.276c0-.207.207-.345.483-.345.207,0,.345.207.345.483a1.226,1.226,0,0,1-.276.69A2.986,2.986,0,0,1,77.5,73.142Z" transform="translate(-75.059 -71.9)"/>
          <path id="패스_2845" data-name="패스 2845" class="cls-9" d="M83.2,76.542a.522.522,0,0,1-.276-.069.365.365,0,0,1-.069-.552.523.523,0,0,0,.138-.276c0-.207.207-.345.483-.345.207,0,.345.207.345.483a1.226,1.226,0,0,1-.276.69A.75.75,0,0,1,83.2,76.542Z" transform="translate(-76.826 -72.954)"/>
          <path id="패스_2846" data-name="패스 2846" class="cls-9" d="M80.911,79.836a.522.522,0,0,1-.276-.069.427.427,0,0,1-.069-.552.523.523,0,0,0,.138-.276.345.345,0,0,1,.414-.345.386.386,0,0,1,.345.414,1.226,1.226,0,0,1-.276.69C81.187,79.767,81.049,79.836,80.911,79.836Z" transform="translate(-76.123 -73.971)"/>
        </g>
        <path id="패스_2847" data-name="패스 2847" class="cls-9" d="M59.4,97.142a.415.415,0,0,1-.276-.069.365.365,0,0,1-.069-.552.523.523,0,0,0,.138-.276.381.381,0,1,1,.759.069,1.226,1.226,0,0,1-.276.69A.523.523,0,0,1,59.4,97.142Z" transform="translate(-55.924 -34.122)"/>
        <path id="패스_2848" data-name="패스 2848" class="cls-9" d="M55,96.942a.415.415,0,0,1-.276-.069.365.365,0,0,1-.069-.552.523.523,0,0,0,.138-.276c0-.207.207-.345.483-.345.207,0,.345.207.345.483a1.226,1.226,0,0,1-.276.69A2.989,2.989,0,0,0,55,96.942Z" transform="translate(-54.561 -34.06)"/>
        <path id="패스_2849" data-name="패스 2849" class="cls-9" d="M63.4,97.436a.415.415,0,0,1-.276-.069.365.365,0,0,1-.069-.552.523.523,0,0,0,.138-.276.345.345,0,0,1,.414-.345.386.386,0,0,1,.345.414,1.226,1.226,0,0,1-.276.69C63.678,97.367,63.54,97.436,63.4,97.436Z" transform="translate(-57.164 -34.209)"/>
      </g>
      <g id="그룹_562" data-name="그룹 562" transform="translate(31.743 42.457)">
        <g id="그룹_553" data-name="그룹 553" transform="translate(0 0.069)">
          <path id="패스_2850" data-name="패스 2850" class="cls-9" d="M46.414,82.371a.414.414,0,0,1,0-.828H48.9a2.516,2.516,0,0,0,1.587-1.311,4.772,4.772,0,0,0,.483-3.8,2.887,2.887,0,0,0-.552-.828,3.738,3.738,0,0,0-2.76-1.1c-.207,0-.414-.069-.621-.069a.46.46,0,0,1-.345-.483c.414-5.451.966-11.938.966-11.938a.45.45,0,1,1,.9.069c0,.069-.759,9.523-.9,11.524a.254.254,0,0,1,.207.069,4.559,4.559,0,0,1,3.312,1.449A4.119,4.119,0,0,1,51.8,76.16a5.7,5.7,0,0,1-.483,4.554,2.948,2.948,0,0,1-2.277,1.725Z" transform="translate(-46 -61.6)"/>
        </g>
        <g id="그룹_554" data-name="그룹 554" transform="translate(3.174 14.56)">
          <line id="선_19" data-name="선 19" class="cls-9" x2="1.725" y2="0.138" transform="translate(0.414 0.483)"/>
          <path id="패스_2851" data-name="패스 2851" class="cls-9" d="M52.739,83.635h0L51.014,83.5a.45.45,0,0,1,.069-.9l1.725.138a.461.461,0,0,1,.414.483A.592.592,0,0,1,52.739,83.635Z" transform="translate(-50.6 -82.6)"/>
        </g>
        <g id="그룹_555" data-name="그룹 555" transform="translate(3.036 16.354)">
          <line id="선_20" data-name="선 20" class="cls-9" x2="1.725" y2="0.069" transform="translate(0.414 0.483)"/>
          <path id="패스_2852" data-name="패스 2852" class="cls-9" d="M52.539,86.166h0L50.814,86.1a.45.45,0,1,1,.069-.9l1.725.069a.461.461,0,0,1,.414.483A.5.5,0,0,1,52.539,86.166Z" transform="translate(-50.4 -85.2)"/>
        </g>
        <g id="그룹_556" data-name="그룹 556" transform="translate(2.553 18.148)">
          <line id="선_21" data-name="선 21" class="cls-9" x2="1.725" y2="0.069" transform="translate(0.483 0.483)"/>
          <path id="패스_2853" data-name="패스 2853" class="cls-9" d="M51.908,88.835h0L50.114,88.7a.45.45,0,1,1,.069-.9l1.794.138a.461.461,0,0,1,.414.483A.592.592,0,0,1,51.908,88.835Z" transform="translate(-49.7 -87.8)"/>
        </g>
        <g id="그룹_557" data-name="그룹 557" transform="translate(23.978 15.594)">
          <path id="패스_2854" data-name="패스 2854" class="cls-9" d="M86.649,93.139H83.613a2.92,2.92,0,0,1-2.139-1.587,5.786,5.786,0,0,1-.414-4.623A4.61,4.61,0,0,1,84.1,84.513c.069,0,1.863-.621,2.208-.345a.379.379,0,0,1,.207.345A.5.5,0,0,1,86.1,85h-.069a14.525,14.525,0,0,0-1.656.414,3.533,3.533,0,0,0-2.484,1.932,4.936,4.936,0,0,0,.345,3.8,2.1,2.1,0,0,0,1.449,1.173h2.967a.414.414,0,0,1,0,.828Z" transform="translate(-80.748 -84.098)"/>
        </g>
        <g id="그룹_558" data-name="그룹 558" transform="translate(24.152 18.493)">
          <line id="선_22" data-name="선 22" class="cls-9" x1="2.208" y2="0.207" transform="translate(0.414 0.483)"/>
          <path id="패스_2855" data-name="패스 2855" class="cls-9" d="M81.414,89.4A.4.4,0,0,1,81,88.99a.456.456,0,0,1,.414-.483l2.208-.207a.456.456,0,0,1,.483.414.5.5,0,0,1-.414.483l-2.277.207Z" transform="translate(-81 -88.3)"/>
        </g>
        <g id="그룹_559" data-name="그룹 559" transform="translate(24.152 20.357)">
          <line id="선_23" data-name="선 23" class="cls-9" x1="2.277" y2="0.138" transform="translate(0.414 0.414)"/>
          <path id="패스_2856" data-name="패스 2856" class="cls-9" d="M81.414,92.035A.445.445,0,0,1,81,91.621a.5.5,0,0,1,.414-.483L83.622,91a.45.45,0,1,1,.069.9l-2.277.138Z" transform="translate(-81 -91)"/>
        </g>
        <g id="그룹_560" data-name="그룹 560" transform="translate(24.98 22.082)">
          <line id="선_24" data-name="선 24" class="cls-9" x1="1.863" y2="0.069" transform="translate(0.414 0.483)"/>
          <path id="패스_2857" data-name="패스 2857" class="cls-9" d="M82.614,94.466a.445.445,0,0,1-.414-.414.5.5,0,0,1,.414-.483l1.863-.069a.456.456,0,0,1,.483.414.5.5,0,0,1-.414.483l-1.932.069Z" transform="translate(-82.2 -93.5)"/>
        </g>
        <g id="그룹_561" data-name="그룹 561" transform="translate(27.05)">
          <line id="선_25" data-name="선 25" class="cls-9" x1="1.725" y1="15.457" transform="translate(0.414 0.483)"/>
          <path id="패스_2858" data-name="패스 2858" class="cls-9" d="M87.339,77.923a.4.4,0,0,1-.414-.414L85.2,61.983c0-.207.138-.483.345-.483a.456.456,0,0,1,.483.414L87.753,77.44c.069.207-.138.414-.414.483Z" transform="translate(-85.2 -61.5)"/>
        </g>
      </g>
      <g id="그룹_569" data-name="그룹 569" transform="translate(0 22.572)">
        <g id="그룹_563" data-name="그룹 563" transform="translate(0 3.517)">
          <path id="패스_2859" data-name="패스 2859" class="cls-10" d="M37.872,90.78a.254.254,0,0,1-.207-.069C13.1,76.151,8.269,42.89,8.2,42.545c0-.207.069-.345.276-.345s.345.069.345.276c.069.345,4.83,33.33,29.189,47.752a.332.332,0,0,1,.138.414A.358.358,0,0,1,37.872,90.78Z" transform="translate(-2.542 -39.15)"/>
          <path id="패스_2860" data-name="패스 2860" class="cls-10" d="M37.572,103.637s-2.622-3.381-6.072.966c-.069,0,2.622,3.312,6.072-.966" transform="translate(-9.763 -57.804)"/>
          <path id="패스_2861" data-name="패스 2861" class="cls-10" d="M8.958,53.987S8.544,49.708,3.3,51.5c0,0,.414,4.278,5.658,2.484" transform="translate(-1.023 -41.897)"/>
          <path id="패스_2862" data-name="패스 2862" class="cls-10" d="M36.451,98.606s-2.76-2.277.9-5.106c0,0,2.691,2.277-.9,5.106" transform="translate(-10.988 -55.05)"/>
          <path id="패스_2863" data-name="패스 2863" class="cls-10" d="M10.094,47.659s-.483-3.588,4.14-3.174c0,0,.483,3.588-4.14,3.174" transform="translate(-3.124 -39.848)"/>
          <path id="패스_2864" data-name="패스 2864" class="cls-10" d="M34.42,66.633s1.242-3.381-3.381-3.933c0,0-1.173,3.381,3.381,3.933" transform="translate(-9.578 -45.504)"/>
          <path id="패스_2865" data-name="패스 2865" class="cls-10" d="M31.7,77.533s1.242-3.381-3.381-3.933c-.069,0-1.242,3.381,3.381,3.933" transform="translate(-8.721 -48.883)"/>
          <path id="패스_2866" data-name="패스 2866" class="cls-10" d="M36.313,82.933S37.555,79.552,32.932,79c0,0-1.242,3.381,3.381,3.933" transform="translate(-10.16 -50.556)"/>
          <path id="패스_2867" data-name="패스 2867" class="cls-10" d="M21.225,77.985S19.362,74.88,23.778,73.5c0,0,1.863,3.105-2.553,4.485" transform="translate(-6.458 -48.852)"/>
          <path id="패스_2868" data-name="패스 2868" class="cls-10" d="M6.28,41.175S5.934,36.345,0,38.208c0,0,.414,4.761,6.28,2.967" transform="translate(0 -37.78)"/>
          <path id="패스_2869" data-name="패스 2869" class="cls-10" d="M24.092,88.042s-1.1-4.692-6.694-1.932c-.069.069,1.1,4.692,6.694,1.932" transform="translate(-5.392 -52.49)"/>
          <path id="패스_2870" data-name="패스 2870" class="cls-10" d="M12.067,66.46S10.756,61.008,4.2,64.32c0,0,1.38,5.451,7.867,2.139" transform="translate(-1.302 -45.675)"/>
          <path id="패스_2871" data-name="패스 2871" class="cls-10" d="M31.388,86.011h0a.316.316,0,0,1-.345-.276c0-.138-1.311-11.386,4.485-20.909a.309.309,0,1,1,.552.276c-5.658,9.385-4.416,20.426-4.416,20.564C31.733,85.8,31.595,85.942,31.388,86.011Z" transform="translate(-9.582 -46.112)"/>
          <path id="패스_2872" data-name="패스 2872" class="cls-10" d="M44.055,61.392S40.4,58.218,37.5,63.738c-.069,0,3.657,3.105,6.556-2.346" transform="translate(-11.622 -44.817)"/>
        </g>
        <g id="그룹_564" data-name="그룹 564" transform="translate(7.41 15.761)">
          <path id="패스_2873" data-name="패스 2873" class="cls-11" d="M10.781,60.752a5.9,5.9,0,0,1,0,1.1c-.552,3.657,4.347,4.14,6.556,3.105A4.834,4.834,0,0,0,19.2,63.1c.552-.759,1.656-1.38,1.932-2.277.483-1.518-.69-3.519-1.656-4.485-1.242-1.173-2.691-.9-4.071-.276a16.519,16.519,0,0,1-1.932.9c-1.1.345-2,.552-2.415,1.794A10.7,10.7,0,0,0,10.781,60.752Z" transform="translate(-10.738 -55.525)"/>
          <path id="패스_2874" data-name="패스 2874" class="cls-11" d="M18.78,61.01a1.815,1.815,0,1,1-2.07-1.518A1.851,1.851,0,0,1,18.78,61.01Z" transform="translate(-12.113 -56.749)"/>
          <path id="패스_2875" data-name="패스 2875" class="cls-12" d="M18.8,60.871a1.679,1.679,0,1,1-3.312.552,1.744,1.744,0,0,1,1.38-1.932A1.668,1.668,0,0,1,18.8,60.871Z" transform="translate(-12.205 -56.748)"/>
        </g>
        <g id="그룹_566" data-name="그룹 566" transform="translate(20.814 26.222)">
          <path id="패스_2876" data-name="패스 2876" class="cls-11" d="M30.188,73.662c-.069,1.1-.069,2.277.9,2.967,1.173.828,3.312,1.173,4.485.138a4.357,4.357,0,0,0,1.518-2.346,3.141,3.141,0,0,0-.414-2.07A2.848,2.848,0,0,0,34.881,70.7a2.955,2.955,0,0,0-1.518.414,2.631,2.631,0,0,1-1.035.069,2.239,2.239,0,0,0-1.587.552,2.678,2.678,0,0,0-.552,1.932Z" transform="translate(-30.162 -70.684)"/>
          <g id="그룹_565" data-name="그룹 565" transform="translate(2.075 1.441)">
            <path id="패스_2877" data-name="패스 2877" class="cls-11" d="M36.158,74.033a1.5,1.5,0,1,1-1.725-1.242A1.544,1.544,0,0,1,36.158,74.033Z" transform="translate(-33.169 -72.772)"/>
            <path id="패스_2878" data-name="패스 2878" class="cls-12" d="M36.282,73.994a1.367,1.367,0,1,1-1.587-1.1A1.347,1.347,0,0,1,36.282,73.994Z" transform="translate(-33.293 -72.801)"/>
          </g>
        </g>
        <g id="그룹_568" data-name="그룹 568" transform="translate(1.63)">
          <path id="패스_2879" data-name="패스 2879" class="cls-11" d="M2.388,35.662c-.069,1.1-.069,2.277.9,2.967,1.173.828,3.312,1.173,4.485.138a4.357,4.357,0,0,0,1.518-2.346,3.141,3.141,0,0,0-.414-2.07A2.847,2.847,0,0,0,7.081,32.7a2.955,2.955,0,0,0-1.518.414,2.631,2.631,0,0,1-1.035.069,2.239,2.239,0,0,0-1.587.552,3.041,3.041,0,0,0-.552,1.932Z" transform="translate(-2.362 -32.684)"/>
          <g id="그룹_567" data-name="그룹 567" transform="translate(2.144 1.453)">
            <path id="패스_2880" data-name="패스 2880" class="cls-11" d="M8.458,36.124a1.528,1.528,0,0,1-1.242,1.725,1.5,1.5,0,1,1-.483-2.967A1.445,1.445,0,0,1,8.458,36.124Z" transform="translate(-5.469 -34.806)"/>
            <path id="패스_2881" data-name="패스 2881" class="cls-12" d="M8.482,35.97a1.4,1.4,0,0,1-1.1,1.587A1.448,1.448,0,0,1,5.79,36.384a1.4,1.4,0,0,1,1.1-1.587A1.448,1.448,0,0,1,8.482,35.97Z" transform="translate(-5.562 -34.791)"/>
          </g>
        </g>
      </g>
      <path id="패스_2882" data-name="패스 2882" class="cls-9" d="M65.94,40.545c-.069-.069-.069-.138-.138-.207-.69-.552-1.173.69-1.38,1.173-.345.552-1.794,1.794-1.1,2.484a3.1,3.1,0,0,0,2.484.621c1.587-.207.966-1.587.621-2.553A9.773,9.773,0,0,0,65.94,40.545Z" transform="translate(-19.568 -12.441)"/>
      <path id="패스_2883" data-name="패스 2883" class="cls-9" d="M55.342,104.042a.254.254,0,0,1-.207-.069.418.418,0,0,1-.069-.552.523.523,0,0,0,.138-.276.381.381,0,1,1,.759.069,1.028,1.028,0,0,1-.276.621C55.549,103.973,55.48,104.042,55.342,104.042Z" transform="translate(-17.044 -31.844)"/>
      <path id="패스_2884" data-name="패스 2884" class="cls-9" d="M52.642,100.142a.254.254,0,0,1-.207-.069.418.418,0,0,1-.069-.552.523.523,0,0,0,.138-.276.381.381,0,0,1,.759.069,1.028,1.028,0,0,1-.276.621A.376.376,0,0,1,52.642,100.142Z" transform="translate(-16.207 -30.635)"/>
      <path id="패스_2885" data-name="패스 2885" class="cls-9" d="M57.042,100.542a.254.254,0,0,1-.207-.069.418.418,0,0,1-.069-.552.523.523,0,0,0,.138-.276.381.381,0,1,1,.759.069,1.028,1.028,0,0,1-.276.621A.631.631,0,0,1,57.042,100.542Z" transform="translate(-17.571 -30.759)"/>
      <path id="패스_2886" data-name="패스 2886" class="cls-9" d="M61.342,100.673a.254.254,0,0,1-.207-.069.341.341,0,0,1-.069-.483.523.523,0,0,0,.138-.276.381.381,0,1,1,.759.069,1.028,1.028,0,0,1-.276.621A1.166,1.166,0,0,1,61.342,100.673Z" transform="translate(-18.904 -30.821)"/>
      <path id="패스_2887" data-name="패스 2887" class="cls-9" d="M65.442,100.673a.254.254,0,0,1-.207-.069.341.341,0,0,1-.069-.483.523.523,0,0,0,.138-.276.381.381,0,0,1,.759.069,1.028,1.028,0,0,1-.276.621A1.166,1.166,0,0,1,65.442,100.673Z" transform="translate(-20.175 -30.821)"/>
      <path id="패스_2888" data-name="패스 2888" class="cls-9" d="M59.342,103.842a.254.254,0,0,1-.207-.069.418.418,0,0,1-.069-.552.523.523,0,0,0,.138-.276.381.381,0,1,1,.759.069,1.028,1.028,0,0,1-.276.621C59.618,103.842,59.48,103.842,59.342,103.842Z" transform="translate(-18.284 -31.782)"/>
      <path id="패스_2889" data-name="패스 2889" class="cls-9" d="M63.242,103.842a.254.254,0,0,1-.207-.069.418.418,0,0,1-.069-.552.523.523,0,0,0,.138-.276.381.381,0,1,1,.759.069,1.028,1.028,0,0,1-.276.621C63.449,103.842,63.38,103.842,63.242,103.842Z" transform="translate(-19.493 -31.782)"/>
    </g>
    <rect id="사각형_265" data-name="사각형 265" class="cls-1" width="160" height="140" transform="translate(0 410)"/>
  </g>
</svg>
