<svg id="그룹_667" data-name="그룹 667" xmlns="http://www.w3.org/2000/svg" viewBox="0 0 200.253 161.639">
  <defs>
    <style>
      .cls-1 {
        fill: #74c6be;
      }

      .cls-2 {
        fill: #6a6969;
      }

      .cls-3 {
        fill: #efefef;
      }

      .cls-4 {
        fill: #f7f8f8;
      }

      .cls-5 {
        fill: #fff;
      }

      .cls-6 {
        fill: #e3904a;
      }

      .cls-7 {
        fill: #bce2e3;
      }

      .cls-8 {
        fill: #727171;
      }

      .cls-9 {
        fill: #e4f3fa;
      }
    </style>
  </defs>
  <path id="패스_134" data-name="패스 134" class="cls-1" d="M134.4,86v49.9a2.425,2.425,0,0,0,4.85,0V86Z" transform="translate(-9.044 -5.88)"/>
  <rect id="사각형_48" data-name="사각형 48" class="cls-2" width="3.824" height="16.136" transform="translate(117.335 131.326)"/>
  <path id="패스_135" data-name="패스 135" class="cls-3" d="M133.658,163.329a6.529,6.529,0,1,1-6.529-6.529,6.489,6.489,0,0,1,6.529,6.529" transform="translate(-8.115 -10.644)"/>
  <path id="패스_136" data-name="패스 136" class="cls-2" d="M133.483,163.154h-2.425a4.14,4.14,0,1,1-1.213-2.891,4.092,4.092,0,0,1,1.213,2.891h4.85a8.946,8.946,0,0,0-2.612-6.342,9.114,9.114,0,0,0-6.342-2.612,8.945,8.945,0,0,0-6.342,2.612A9.114,9.114,0,0,0,118,163.154a8.946,8.946,0,0,0,2.612,6.342,9.114,9.114,0,0,0,6.342,2.612A8.946,8.946,0,0,0,133.3,169.5a9.114,9.114,0,0,0,2.612-6.342Z" transform="translate(-7.94 -10.469)"/>
  <rect id="사각형_49" data-name="사각형 49" class="cls-4" width="75.829" height="2.052" transform="translate(9.98 136.829)"/>
  <rect id="사각형_50" data-name="사각형 50" class="cls-4" width="75.829" height="2.052" transform="translate(9.98 132.911)"/>
  <rect id="사각형_51" data-name="사각형 51" class="cls-4" width="75.829" height="2.052" transform="translate(9.98 128.901)"/>
  <rect id="사각형_52" data-name="사각형 52" class="cls-4" width="75.829" height="2.052" transform="translate(9.98 124.89)"/>
  <rect id="사각형_53" data-name="사각형 53" class="cls-4" width="75.829" height="2.052" transform="translate(9.98 120.879)"/>
  <rect id="사각형_54" data-name="사각형 54" class="cls-4" width="75.829" height="2.052" transform="translate(9.98 116.962)"/>
  <rect id="사각형_55" data-name="사각형 55" class="cls-4" width="75.829" height="2.052" transform="translate(9.98 112.951)"/>
  <rect id="사각형_56" data-name="사각형 56" class="cls-4" width="75.829" height="2.052" transform="translate(9.98 108.941)"/>
  <rect id="사각형_57" data-name="사각형 57" class="cls-4" width="75.829" height="2.052" transform="translate(9.98 104.93)"/>
  <rect id="사각형_58" data-name="사각형 58" class="cls-4" width="75.829" height="2.052" transform="translate(9.98 101.013)"/>
  <rect id="사각형_59" data-name="사각형 59" class="cls-4" width="75.829" height="2.052" transform="translate(9.98 97.002)"/>
  <rect id="사각형_60" data-name="사각형 60" class="cls-4" width="75.829" height="2.052" transform="translate(9.98 92.991)"/>
  <rect id="사각형_61" data-name="사각형 61" class="cls-4" width="75.829" height="2.052" transform="translate(9.98 88.981)"/>
  <rect id="사각형_62" data-name="사각형 62" class="cls-4" width="75.829" height="2.052" transform="translate(9.98 85.063)"/>
  <rect id="사각형_63" data-name="사각형 63" class="cls-4" width="75.829" height="2.052" transform="translate(9.98 81.053)"/>
  <rect id="사각형_64" data-name="사각형 64" class="cls-4" width="75.829" height="2.052" transform="translate(9.98 77.042)"/>
  <rect id="사각형_65" data-name="사각형 65" class="cls-4" width="75.829" height="2.052" transform="translate(9.98 73.031)"/>
  <rect id="사각형_66" data-name="사각형 66" class="cls-4" width="75.829" height="2.052" transform="translate(9.98 69.114)"/>
  <rect id="사각형_67" data-name="사각형 67" class="cls-4" width="75.829" height="2.052" transform="translate(9.98 65.103)"/>
  <rect id="사각형_68" data-name="사각형 68" class="cls-4" width="75.829" height="2.052" transform="translate(9.98 61.093)"/>
  <rect id="사각형_69" data-name="사각형 69" class="cls-4" width="75.829" height="2.052" transform="translate(9.98 57.082)"/>
  <rect id="사각형_70" data-name="사각형 70" class="cls-4" width="75.829" height="2.052" transform="translate(9.98 53.164)"/>
  <rect id="사각형_71" data-name="사각형 71" class="cls-5" width="75.829" height="2.052" transform="translate(9.98 134.87)"/>
  <rect id="사각형_72" data-name="사각형 72" class="cls-5" width="75.829" height="2.052" transform="translate(9.98 130.859)"/>
  <rect id="사각형_73" data-name="사각형 73" class="cls-5" width="75.829" height="2.052" transform="translate(9.98 126.849)"/>
  <rect id="사각형_74" data-name="사각형 74" class="cls-5" width="75.829" height="2.052" transform="translate(9.98 122.931)"/>
  <rect id="사각형_75" data-name="사각형 75" class="cls-5" width="75.829" height="2.052" transform="translate(9.98 118.921)"/>
  <rect id="사각형_76" data-name="사각형 76" class="cls-5" width="75.829" height="2.052" transform="translate(9.98 114.91)"/>
  <rect id="사각형_77" data-name="사각형 77" class="cls-5" width="75.829" height="2.052" transform="translate(9.98 110.899)"/>
  <rect id="사각형_78" data-name="사각형 78" class="cls-5" width="75.829" height="2.052" transform="translate(9.98 106.982)"/>
  <rect id="사각형_79" data-name="사각형 79" class="cls-5" width="75.829" height="2.052" transform="translate(9.98 102.971)"/>
  <rect id="사각형_80" data-name="사각형 80" class="cls-5" width="75.829" height="2.052" transform="translate(9.98 98.961)"/>
  <rect id="사각형_81" data-name="사각형 81" class="cls-5" width="75.829" height="2.052" transform="translate(9.98 95.043)"/>
  <rect id="사각형_82" data-name="사각형 82" class="cls-5" width="75.829" height="2.052" transform="translate(9.98 91.033)"/>
  <rect id="사각형_83" data-name="사각형 83" class="cls-5" width="75.829" height="2.052" transform="translate(9.98 87.022)"/>
  <rect id="사각형_84" data-name="사각형 84" class="cls-5" width="75.829" height="2.052" transform="translate(9.98 83.011)"/>
  <rect id="사각형_85" data-name="사각형 85" class="cls-5" width="75.829" height="2.052" transform="translate(9.98 79.094)"/>
  <rect id="사각형_86" data-name="사각형 86" class="cls-5" width="75.829" height="2.052" transform="translate(9.98 75.083)"/>
  <rect id="사각형_87" data-name="사각형 87" class="cls-5" width="75.829" height="2.052" transform="translate(9.98 71.073)"/>
  <rect id="사각형_88" data-name="사각형 88" class="cls-5" width="75.829" height="2.052" transform="translate(9.98 67.062)"/>
  <rect id="사각형_89" data-name="사각형 89" class="cls-5" width="75.829" height="2.052" transform="translate(9.98 63.144)"/>
  <rect id="사각형_90" data-name="사각형 90" class="cls-5" width="75.829" height="2.052" transform="translate(9.98 59.134)"/>
  <rect id="사각형_91" data-name="사각형 91" class="cls-5" width="75.829" height="2.052" transform="translate(9.98 55.123)"/>
  <rect id="사각형_92" data-name="사각형 92" class="cls-5" width="75.829" height="2.052" transform="translate(9.98 51.113)"/>
  <rect id="사각형_93" data-name="사각형 93" class="cls-1" width="21.919" height="5.503" transform="translate(104.277 117.615)"/>
  <path id="패스_137" data-name="패스 137" class="cls-1" d="M111.45,131.426l-4.85,20.24h10.167V130.4Z" transform="translate(-7.173 -8.868)"/>
  <path id="패스_138" data-name="패스 138" class="cls-1" d="M1.5,160.455H107.269l9.98-7.555H1.5Z" transform="translate(-0.101 -10.382)"/>
  <path id="패스_139" data-name="패스 139" class="cls-6" d="M91.312,160.1H53.351v-6.9H91.312Zm-47.1,0H6.249v-6.9H44.21ZM0,164.949H98.494V149H0Z" transform="translate(0 -10.119)"/>
  <path id="패스_140" data-name="패스 140" class="cls-1" d="M132.1,147.118l-9.7,6.809V134.9h9.7Z" transform="translate(-8.236 -9.171)"/>
  <rect id="사각형_94" data-name="사각형 94" class="cls-1" width="12.218" height="4.664" transform="translate(108.286 143.38) rotate(-35.936)"/>
  <path id="패스_141" data-name="패스 141" class="cls-2" d="M113.931,154.465a1.865,1.865,0,1,1-1.865-1.865,1.761,1.761,0,0,1,1.865,1.865" transform="translate(-7.415 -10.361)"/>
  <rect id="사각형_95" data-name="사각형 95" class="cls-1" width="6.063" height="6.716" transform="translate(121.719 125.729)"/>
  <path id="패스_142" data-name="패스 142" class="cls-1" d="M188.031,15.8s9.793,0,14.55,33.671c0,0,.373,4.384,4.2,3.731a2.43,2.43,0,0,1,2.612,1.959c.56,2.518-2.612,3.171-4.477,3.171a10.139,10.139,0,0,1-1.679-.093c-6.063-1.119-6.342-7.462-7.368-12.219-1.213-5.783-1.772-11.659-4.477-16.975-1.679-3.264-4.384-5.41-7.089-7.928Z" transform="translate(-12.402 -1.156)"/>
  <path id="패스_143" data-name="패스 143" class="cls-1" d="M206.616,147.4h0a1.134,1.134,0,0,1-1.119-1.119v-7.928c0-.839,0-1.865-.466-2.239-.373-.373-1.492-.28-1.959-.28l-1.959.093a1.123,1.123,0,1,1-.187-2.238l1.959-.093a5.49,5.49,0,0,1,3.638.839c1.213,1.026,1.213,2.7,1.213,3.917v8.115a1.21,1.21,0,0,1-1.119.933" transform="translate(-13.451 -9.083)"/>
  <path id="패스_144" data-name="패스 144" class="cls-1" d="M209.514,149.054a1.078,1.078,0,0,1-1.119-1.119V136.649a3.716,3.716,0,0,0-.28-1.586,4.134,4.134,0,0,0-3.731-2.425h-3.264a1.119,1.119,0,1,1,0-2.239h3.264a6.2,6.2,0,0,1,5.783,3.917,8.613,8.613,0,0,1,.466,2.425v11.379a1.05,1.05,0,0,1-1.119.933" transform="translate(-13.458 -8.868)"/>
  <path id="패스_145" data-name="패스 145" class="cls-1" d="M212.566,150.791a1.078,1.078,0,0,1-1.119-1.119v-13.8a7.035,7.035,0,0,0-6.622-6.529h-2.7a1.119,1.119,0,0,1,0-2.238h2.891a9.417,9.417,0,0,1,8.767,8.674v13.9a1.217,1.217,0,0,1-1.213,1.119" transform="translate(-13.525 -8.646)"/>
  <path id="패스_146" data-name="패스 146" class="cls-7" d="M174.821,133.478h1.772c.466,0,6.063-.373,6.063-.187l4.384,20.426h4.2l2.891-23.5s8.954-3.451,6.156-21.079l-5.5-52.885S190.957,23.6,183.029,20.34c0,0,9.607-9.047,2.332-20.24a21.28,21.28,0,0,0-9.607,13.244s-.839.373-7.182.093H166.52S164.748,6.256,155.794,2.8c0,0-2.891,8.021,3.544,16.043-.28-.28-8.3,6.529-8.488,6.716-7.462,6.342-11.006,11.379-16.043,18.934a6.744,6.744,0,0,0-1.026,5.969c.466,2.052,2.985,4.757,4.477,6.063a10.863,10.863,0,0,0,7.368,2.985c5.223-.093,11.193-.653,15.856-2.891-.187.093,0,.187-.653,4.1-.187,1.586-.466,3.264-.653,4.85-.56,3.824-1.026,7.555-1.586,11.379-.653,4.477-1.213,8.861-1.865,13.338-.466,3.544-.933,7.089-1.492,10.633a36.41,36.41,0,0,0,.56,14.55,36.865,36.865,0,0,0,3.824,9.793c1.679,2.891,3.917,5.876,7,7.275a22.056,22.056,0,0,0,8.208.933" transform="translate(-8.985 -0.1)"/>
  <path id="패스_147" data-name="패스 147" class="cls-8" d="M186.4,171.068h9.42l-1.026-7.182-4.477-.187Z" transform="translate(-12.543 -11.109)"/>
  <path id="패스_148" data-name="패스 148" class="cls-5" d="M188.6,154.621a1.417,1.417,0,0,0,2.332-.093s1.306-1.772,2.332,0c0,0,1.026,1.213,1.772-.56,0,0,.56-.933.933-.093l-1.213,9.327-4.477-.187Z" transform="translate(-12.691 -10.424)"/>
  <path id="패스_149" data-name="패스 149" class="cls-5" d="M158.193,5.2s-.933,7.368,2.985,11.286C165,20.5,163.043,8.651,158.193,5.2" transform="translate(-10.638 -0.443)"/>
  <path id="패스_150" data-name="패스 150" class="cls-5" d="M188.6,3.1s2.8,7.275-1.492,13.338c-3.917,5.316-3.638-8.394,1.492-13.338" transform="translate(-12.41 -0.302)"/>
  <path id="패스_151" data-name="패스 151" class="cls-9" d="M149.793,41.3a.289.289,0,0,0-.093.187c0-.093,0-.093.093-.187Z" transform="translate(-10.073 -2.872)"/>
  <path id="패스_152" data-name="패스 152" class="cls-1" d="M135.933,52.459v-.373a.8.8,0,0,1,.28-.56.577.577,0,0,1,.653-.187h.093a.92.92,0,0,1,.839.933v.466a.422.422,0,0,0,.839.093v-.373h0v-.093a1.833,1.833,0,0,0-1.679-1.865h-.093a1.773,1.773,0,0,0-1.213.466A1.95,1.95,0,0,0,135,52.179v.373a.427.427,0,0,0,.373.466q.56-.14.56-.56" transform="translate(-9.084 -3.491)"/>
  <path id="패스_153" data-name="패스 153" class="cls-1" d="M141.356,54.283l.187-.28a.63.63,0,0,1,.56-.373.819.819,0,0,1,.653.093h.093a1.02,1.02,0,0,1,.373,1.213v.093l-.187.28a.48.48,0,0,0,.839.466l.187-.28h0l.093-.093a1.826,1.826,0,0,0-.653-2.425l-.093-.093A2.145,2.145,0,0,0,142.1,52.7a1.664,1.664,0,0,0-1.119.839l-.187.28a.492.492,0,0,0,.187.653c-.093.093.187.093.373-.187" transform="translate(-9.47 -3.637)"/>
  <path id="패스_154" data-name="패스 154" class="cls-1" d="M168.013,25.929a1.235,1.235,0,0,1-1.213-1.213V23.97c.187-2.7,1.026-4.57,4.57-4.57h3.544a1.213,1.213,0,0,1,0,2.425H171.37c-1.679,0-2.052.187-2.145,2.239v.653a1.235,1.235,0,0,1-1.212,1.213" transform="translate(-11.224 -1.399)"/>
  <path id="패스_155" data-name="패스 155" class="cls-1" d="M164.513,24.381a1.235,1.235,0,0,1-1.213-1.213v-.746c.28-4.011,2.8-6.529,6.809-6.622h6.436a1.213,1.213,0,0,1,0,2.425h-6.436c-3.358.093-4.2,2.425-4.384,4.29v.653a1.235,1.235,0,0,1-1.213,1.213" transform="translate(-10.988 -1.156)"/>
  <path id="패스_156" data-name="패스 156" class="cls-1" d="M161.012,22.84a1.235,1.235,0,0,1-1.212-1.213v-.373a8.956,8.956,0,0,1,8.954-8.954h9.607a1.213,1.213,0,1,1,0,2.425h-9.607a6.449,6.449,0,0,0-6.436,6.436v.373a1.4,1.4,0,0,1-1.306,1.306" transform="translate(-10.753 -0.921)"/>
  <path id="패스_157" data-name="패스 157" class="cls-5" d="M160.153,114c-.093,0-.187-.093-.28-.187a2.3,2.3,0,0,1-.373-.839.373.373,0,1,1,.746,0,.985.985,0,0,0,.187.466.439.439,0,0,1-.093.56h-.187" transform="translate(-10.733 -7.67)"/>
  <path id="패스_158" data-name="패스 158" class="cls-5" d="M159.553,109.292c-.093,0-.187-.093-.28-.187a2.3,2.3,0,0,1-.373-.839.385.385,0,0,1,.746-.187.985.985,0,0,0,.187.466.439.439,0,0,1-.093.56.2.2,0,0,1-.187.187" transform="translate(-10.692 -7.347)"/>
  <path id="패스_159" data-name="패스 159" class="cls-5" d="M163.453,123.792c-.093,0-.186-.093-.28-.187a2.3,2.3,0,0,1-.373-.839.385.385,0,1,1,.746-.187.984.984,0,0,0,.187.466.439.439,0,0,1-.093.56c0,.187-.093.187-.187.187" transform="translate(-10.955 -8.323)"/>
  <path id="패스_160" data-name="패스 160" class="cls-5" d="M165.453,127.4c-.093,0-.187-.093-.28-.187a2.3,2.3,0,0,1-.373-.839c0-.187.093-.373.28-.373a.513.513,0,0,1,.466.28.985.985,0,0,0,.187.466.439.439,0,0,1-.093.56c0,.093-.093.093-.187.093" transform="translate(-11.089 -8.572)"/>
  <path id="패스_161" data-name="패스 161" class="cls-5" d="M163.653,130c-.093,0-.187-.093-.28-.187a2.3,2.3,0,0,1-.373-.839.373.373,0,0,1,.746,0,.985.985,0,0,0,.186.466.439.439,0,0,1-.093.56h-.187" transform="translate(-10.968 -8.747)"/>
  <path id="패스_162" data-name="패스 162" class="cls-5" d="M162.053,126.7c-.093,0-.187-.093-.28-.187a1.389,1.389,0,0,1-.373-.839.373.373,0,1,1,.746,0,.985.985,0,0,0,.187.466.439.439,0,0,1-.093.56h-.187" transform="translate(-10.861 -8.525)"/>
  <path id="패스_163" data-name="패스 163" class="cls-5" d="M165.253,122c-.093,0-.187-.093-.28-.187a2.3,2.3,0,0,1-.373-.839.373.373,0,1,1,.746,0,.985.985,0,0,0,.187.466.439.439,0,0,1-.093.56h-.186" transform="translate(-11.076 -8.208)"/>
  <path id="패스_164" data-name="패스 164" class="cls-5" d="M159.653,121.7c-.093,0-.187-.093-.28-.187a2.3,2.3,0,0,1-.373-.839.373.373,0,1,1,.746,0,.985.985,0,0,0,.187.466.439.439,0,0,1-.093.56c0-.093-.093,0-.186,0" transform="translate(-10.699 -8.188)"/>
  <path id="패스_165" data-name="패스 165" class="cls-5" d="M159.853,117.6c-.093,0-.187-.093-.28-.187a2.305,2.305,0,0,1-.373-.839.373.373,0,1,1,.746,0,.985.985,0,0,0,.187.466.439.439,0,0,1-.093.56c0-.093-.093,0-.186,0" transform="translate(-10.713 -7.912)"/>
  <path id="패스_166" data-name="패스 166" class="cls-5" d="M162.553,111.906c-.093,0-.187-.093-.28-.093a1.389,1.389,0,0,1-.373-.839.373.373,0,0,1,.746,0,.985.985,0,0,0,.187.466.439.439,0,0,1-.093.56c0-.093-.093-.093-.187-.093" transform="translate(-10.894 -7.536)"/>
  <path id="패스_167" data-name="패스 167" class="cls-5" d="M162.553,119.8c-.093,0-.187-.093-.28-.187a1.389,1.389,0,0,1-.373-.839.373.373,0,0,1,.746,0,.985.985,0,0,0,.187.466.439.439,0,0,1-.093.56h-.187" transform="translate(-10.894 -8.06)"/>
  <path id="패스_168" data-name="패스 168" class="cls-5" d="M193.775,136.792c-.093,0-.187,0-.187-.093-.187-.093-.187-.373-.093-.56a.985.985,0,0,0,.186-.466.373.373,0,0,1,.746,0,1.389,1.389,0,0,1-.373.839q-.14.28-.28.28" transform="translate(-13.016 -9.198)"/>
  <path id="패스_169" data-name="패스 169" class="cls-5" d="M192.475,133.592c-.093,0-.187,0-.187-.093-.187-.093-.187-.373-.093-.56a.985.985,0,0,0,.187-.466.373.373,0,1,1,.746,0,1.389,1.389,0,0,1-.373.839.3.3,0,0,1-.28.28" transform="translate(-12.929 -8.982)"/>
  <path id="패스_170" data-name="패스 170" class="cls-5" d="M199.075,130.392c-.093,0-.187,0-.187-.093-.187-.093-.187-.373-.093-.56a.985.985,0,0,0,.187-.466.373.373,0,1,1,.746,0,1.389,1.389,0,0,1-.373.839.3.3,0,0,1-.28.28" transform="translate(-13.373 -8.767)"/>
  <path id="패스_171" data-name="패스 171" class="cls-5" d="M196.875,134.5c-.093,0-.187,0-.187-.093-.187-.093-.187-.373-.093-.56a.985.985,0,0,0,.186-.466.385.385,0,1,1,.746.187,1.389,1.389,0,0,1-.373.839.343.343,0,0,1-.28.093" transform="translate(-13.225 -9.048)"/>
  <path id="패스_172" data-name="패스 172" class="cls-5" d="M196.075,131.992c-.093,0-.187,0-.187-.093-.187-.093-.187-.373-.093-.56a.985.985,0,0,0,.186-.466.427.427,0,0,1,.466-.373.326.326,0,0,1,.28.466,1.389,1.389,0,0,1-.373.839c-.093.093-.187.187-.28.187" transform="translate(-13.171 -8.875)"/>
  <path id="패스_173" data-name="패스 173" class="cls-5" d="M199.675,133.592c-.093,0-.187,0-.187-.093-.187-.093-.187-.373-.093-.56a.985.985,0,0,0,.187-.466.427.427,0,0,1,.466-.373.326.326,0,0,1,.28.466,1.389,1.389,0,0,1-.373.839c-.093.093-.187.187-.28.187" transform="translate(-13.413 -8.982)"/>
  <path id="패스_174" data-name="패스 174" class="cls-5" d="M195.775,138.4c-.093,0-.187,0-.187-.093-.187-.093-.187-.373-.093-.56a.985.985,0,0,0,.187-.466.385.385,0,1,1,.746.187,1.389,1.389,0,0,1-.373.839.343.343,0,0,1-.28.093" transform="translate(-13.151 -9.31)"/>
  <path id="패스_175" data-name="패스 175" class="cls-5" d="M196.264,70.4h0c-.28,0-.373-.187-.373-.466,0-.093,0-.373-.093-.466a.355.355,0,1,1,.653-.28,2.758,2.758,0,0,1,.187.933c0,.187-.187.28-.373.28" transform="translate(-13.173 -4.734)"/>
  <path id="패스_176" data-name="패스 176" class="cls-5" d="M191.864,61.4h0c-.28,0-.373-.187-.373-.466,0-.093,0-.373-.093-.466a.355.355,0,0,1,.653-.28,1.535,1.535,0,0,1,.093.933c.093.187-.093.28-.28.28" transform="translate(-12.877 -4.128)"/>
  <path id="패스_177" data-name="패스 177" class="cls-5" d="M196.064,61.5h0c-.28,0-.373-.187-.373-.466,0-.093,0-.373-.093-.466a.355.355,0,0,1,.653-.28,1.535,1.535,0,0,1,.093.933c.093.093-.093.28-.28.28" transform="translate(-13.159 -4.135)"/>
  <path id="패스_178" data-name="패스 178" class="cls-5" d="M190.764,57.5h0c-.28,0-.373-.187-.373-.466,0-.093,0-.373-.093-.466a.355.355,0,1,1,.653-.28,2.759,2.759,0,0,1,.187.933.416.416,0,0,1-.373.28" transform="translate(-12.803 -3.866)"/>
  <path id="패스_179" data-name="패스 179" class="cls-5" d="M194.664,52.6h0c-.28,0-.373-.187-.373-.466,0-.093,0-.373-.093-.466a.355.355,0,1,1,.653-.28,2.339,2.339,0,0,1,.187.933.416.416,0,0,1-.373.28" transform="translate(-13.065 -3.536)"/>
  <path id="패스_180" data-name="패스 180" class="cls-5" d="M193.964,59h0c-.28,0-.373-.187-.373-.466,0-.093,0-.373-.093-.466a.355.355,0,0,1,.653-.28,2.341,2.341,0,0,1,.187.933c0,.187-.187.28-.373.28" transform="translate(-13.018 -3.967)"/>
  <path id="패스_181" data-name="패스 181" class="cls-5" d="M192.764,49.5h0c-.28,0-.373-.187-.373-.466,0-.093,0-.373-.093-.466a.355.355,0,1,1,.653-.28,2.759,2.759,0,0,1,.187.933c-.093.093-.187.28-.373.28" transform="translate(-12.937 -3.327)"/>
  <path id="패스_182" data-name="패스 182" class="cls-5" d="M191.664,53.3h0c-.28,0-.373-.187-.373-.466,0-.093,0-.373-.093-.466a.355.355,0,1,1,.653-.28,2.76,2.76,0,0,1,.187.933c0,.187-.187.28-.373.28" transform="translate(-12.863 -3.583)"/>
  <path id="패스_183" data-name="패스 183" class="cls-5" d="M193.664,55.4h0c-.28,0-.373-.187-.373-.466,0-.093,0-.373-.093-.466a.355.355,0,0,1,.653-.28,1.448,1.448,0,0,1,.093.933c.093.187-.093.28-.28.28" transform="translate(-12.998 -3.724)"/>
  <path id="패스_184" data-name="패스 184" class="cls-5" d="M194.964,64.5h0c-.28,0-.373-.187-.373-.466,0-.093,0-.373-.093-.466a.355.355,0,1,1,.653-.28,1.535,1.535,0,0,1,.093.933c.093.093-.093.28-.28.28" transform="translate(-13.085 -4.337)"/>
  <path id="패스_185" data-name="패스 185" class="cls-5" d="M193.864,68.4h0c-.28,0-.373-.187-.373-.466,0-.093,0-.373-.093-.466a.355.355,0,1,1,.653-.28,1.534,1.534,0,0,1,.093.933.3.3,0,0,1-.28.28" transform="translate(-13.011 -4.599)"/>
  <path id="패스_186" data-name="패스 186" class="cls-5" d="M196.564,67.1h0c-.28,0-.373-.187-.373-.466,0-.093,0-.373-.093-.466a.355.355,0,1,1,.653-.28,1.534,1.534,0,0,1,.093.933.3.3,0,0,1-.28.28" transform="translate(-13.193 -4.512)"/>
  <path id="패스_187" data-name="패스 187" class="cls-5" d="M191.764,65.6h0c-.28,0-.373-.187-.373-.466,0-.093,0-.373-.093-.466a.355.355,0,0,1,.653-.28,2.759,2.759,0,0,1,.187.933.416.416,0,0,1-.373.28" transform="translate(-12.87 -4.411)"/>
  <path id="패스_188" data-name="패스 188" class="cls-8" d="M141.191,77.987l3.451,2.145-2.425,4.943-3.917-4.2a8.412,8.412,0,0,1,2.891-3.078" transform="translate(-9.306 -5.328)"/>
  <path id="패스_189" data-name="패스 189" class="cls-7" d="M144.918,80.152S155.085,86.4,161.334,78.1l3.078,8.767S154.525,95.915,142.4,85.1Z" transform="translate(-9.582 -5.349)"/>
  <path id="패스_190" data-name="패스 190" class="cls-5" d="M149.209,89.634a21.53,21.53,0,0,1-6.809-4.29l2.425-4.943a17.443,17.443,0,0,0,6.249,2.145s-2.425,1.4-1.026,3.544c0,0,.653,1.772-.093,2.7Z" transform="translate(-9.582 -5.503)"/>
  <path id="패스_191" data-name="패스 191" class="cls-5" d="M149.5,42.712l.187-.187c.933-.933,4.1-3.917,3.358-6.9,0,0,3.638-.653,9.047-5.223,0,0-5.037,4.57-2.985,7.462,0,0-4.011.187-9.607,4.85" transform="translate(-10.06 -2.139)"/>
  <path id="패스_192" data-name="패스 192" class="cls-7" d="M178.613,141.835l-16.789,16.6L158,155.173,167.793,134Z" transform="translate(-10.632 -9.11)"/>
  <path id="패스_193" data-name="패스 193" class="cls-5" d="M161.644,148.3a3.5,3.5,0,0,0,3.824,3.171s2.7-.093,2.145,2.239l-5.783,5.69-3.731-3.358Z" transform="translate(-10.639 -10.072)"/>
  <path id="패스_194" data-name="패스 194" class="cls-8" d="M157.381,156.7l-8.581,3.824,9.047,5.969,3.358-6.529Z" transform="translate(-10.013 -10.638)"/>
  <path id="패스_195" data-name="패스 195" class="cls-8" d="M169.531,36.465a1.865,1.865,0,1,1-1.865-1.865,1.813,1.813,0,0,1,1.865,1.865" transform="translate(-11.157 -2.421)"/>
  <path id="패스_196" data-name="패스 196" class="cls-8" d="M156.744,30.372a1.772,1.772,0,1,1-1.772-1.772,1.771,1.771,0,0,1,1.772,1.772" transform="translate(-10.309 -2.018)"/>
  <path id="패스_197" data-name="패스 197" class="cls-2" d="M140.2,93.707a3.451,3.451,0,0,1-6.9,0V77.851a3.451,3.451,0,0,1,6.9,0Z" transform="translate(-8.97 -5.1)"/>
</svg>
