<svg xmlns="http://www.w3.org/2000/svg" viewBox="0 0 128.725 161.791">
  <defs>
    <style>
      .cls-1 {
        fill: #727171;
      }

      .cls-2 {
        fill: #bce2e3;
      }

      .cls-3 {
        fill: #fff;
      }

      .cls-4 {
        fill: #f2e9b6;
      }

      .cls-5 {
        fill: #74c6be;
      }

      .cls-6 {
        fill: #e0f1f2;
      }

      .cls-7 {
        fill: #fdd35c;
      }

      .cls-8 {
        fill: #ea5541;
      }

      .cls-9 {
        fill: #fff4cd;
      }
    </style>
  </defs>
  <g id="그룹_668" data-name="그룹 668" transform="translate(0.003)">
    <path id="패스_2161" data-name="패스 2161" class="cls-1" d="M112.455,98.179,109,93.836l5.528-4.936,3.258,7.107s-2.665,2.172-5.232,2.369" transform="translate(-1.403 -1.144)"/>
    <path id="패스_2162" data-name="패스 2162" class="cls-1" d="M125.841,94.675,121.3,91.418l3.949-6.318,5.034,6.021a12.492,12.492,0,0,1-4.343,3.751" transform="translate(-1.561 -1.095)"/>
    <path id="패스_2163" data-name="패스 2163" class="cls-2" d="M107.905,94.226s-9.378-14.017-22.605-7.8l1.283-12.734s18.262-4.936,27.442,15.992Z" transform="translate(-1.098 -0.942)"/>
    <path id="패스_2164" data-name="패스 2164" class="cls-3" d="M107.524,80.1a29.116,29.116,0,0,1,6.91,8.687l-5.528,4.936A24.35,24.35,0,0,0,101.7,88s3.751-.592,3.06-3.949c0,0,0-2.468,1.382-3.258Z" transform="translate(-1.309 -1.031)"/>
    <path id="패스_2165" data-name="패스 2165" class="cls-1" d="M122.174,90.378c4.541,8.983,2.665,18.361.395,27.442a255.433,255.433,0,0,0-5.725,31c-.1.987-.3,1.876-.395,2.863l-5.034-1.086c1.086-11.747-5.627-18.459-5.627-18.459-4.64,1.974-10.562,17.571-10.562,17.571l-5.725-.494c.987-7.009,6.712-15.794,5.331-26.554a53.836,53.836,0,0,1,.79-16.386c.691-3.85.1-1.777,1.185-5.627C97.4,98.473,102.234,88.7,105.2,88.7c2.863,0,16.288.987,16.288.987a10.81,10.81,0,0,1,.987,1.086" transform="translate(-1.152 -1.142)"/>
    <path id="패스_2166" data-name="패스 2166" class="cls-1" d="M103.822,90.216a9.134,9.134,0,0,0-.494-.987c-1.678-2.665-7.3-4.047-10.069-4.837A28.652,28.652,0,0,0,82.8,84.1l-.3,2.863c.395,0,.79.1,1.185.1,1.185.2,2.369.494,3.554.79,1.579.494,2.961,1.481,4.442,2.073,6.219,2.468,6.318,9.575,9.18,9.773,2.172.3,3.949-6.811,2.961-9.476" transform="translate(-1.062 -1.078)"/>
    <path id="패스_2167" data-name="패스 2167" class="cls-4" d="M82.394,86.951a2.834,2.834,0,0,0-1.876.691,3.64,3.64,0,0,0-.987,1.579c0,.1-.1.1-.1.2-.3.494-.592-.1-.691-.395a1.09,1.09,0,0,1,0-.79c0-.1.2-.691.3-.691,0,0-.79.2-1.481,1.876,0,.1-.1.395-.2.395-.494,0-.395-1.382-.3-1.678,0-.1.3-.888.395-.888a2.142,2.142,0,0,0-1.481.79c-.1.1-.3.3-.494.2-.3-.2.1-.987.2-1.185a3.984,3.984,0,0,1,1.283-1.283l-.2-.1a1.464,1.464,0,0,0-.691-.1,1.592,1.592,0,0,0-.888.3c-.2.1-.691.592-.888.3s.395-.888.592-1.086a3.157,3.157,0,0,1,1.876-.494c-.1,0-.2-.2-.3-.2-.2-.1-.494-.3-.691-.395-.3-.1-.691-.1-.888-.3-.395-.3.592-.494.79-.494h.79a25.483,25.483,0,0,1,2.863.3c.592.1,1.086.2,1.678.3h.1l1.481.2c0,.2.395,2.961-.2,2.961" transform="translate(-0.956 -1.071)"/>
    <path id="패스_2168" data-name="패스 2168" class="cls-5" d="M56.07,15.2S45.31,16.582,45.014,54.192c0,0,.3,4.837-4.047,4.64A2.6,2.6,0,0,0,38.4,61.3c-.2,2.863,3.356,3.06,5.331,2.863a11.475,11.475,0,0,0,1.777-.395c6.416-2.073,5.923-9.082,6.318-14.511.494-6.515.2-13.03,2.468-19.249,1.382-3.751,4.047-6.515,6.614-9.674Z" transform="translate(-0.494 -0.196)"/>
    <path id="패스_2169" data-name="패스 2169" class="cls-2" d="M112.3,40.571C105.986,33.365,101.642,28.627,92.956,23c-.3-.2-9.575-6.219-9.773-5.824A18.369,18.369,0,0,0,84.565,0c-8.884,4.837-9.674,12.537-9.674,12.537l-2.172.3c-6.614,1.185-7.5.888-7.5.888A22.437,22.437,0,0,0,53.372,1.185C47.35,13.82,58.6,22.013,58.6,22.013,50.706,26.455,51.2,61,51.2,61.1l.494,42.94-.1,8.094S49.719,138,83.479,132.769a14.831,14.831,0,0,0,5.923-2.764,19.68,19.68,0,0,0,8.588-11.451,27.483,27.483,0,0,0,.592-5.725,29.792,29.792,0,0,0-.395-6.614c-.1-.3-.79-3.455-.987-3.85L91.574,78.279,87.131,60.807c-1.185-3.949-.987-4.047-1.185-4.146,5.232,1.777,11.451,1.579,16.88.888a11.5,11.5,0,0,0,7.3-4.146c1.382-1.579,3.652-4.738,3.85-7.009a6.713,6.713,0,0,0-1.678-5.824" transform="translate(-0.659)"/>
    <path id="패스_2170" data-name="패스 2170" class="cls-3" d="M84.35,2.5s1.974,7.5-1.579,12.142c-3.455,4.64-2.961-8,1.579-12.142" transform="translate(-1.036 -0.032)"/>
    <path id="패스_2171" data-name="패스 2171" class="cls-3" d="M53.9,4.3s-1.974,8,3.455,13.721C62.089,23.055,59.917,8.742,53.9,4.3" transform="translate(-0.689 -0.055)"/>
    <path id="패스_2172" data-name="패스 2172" class="cls-6" d="M97.4,36.9h0l.1.1-.1-.1" transform="translate(-1.254 -0.475)"/>
    <path id="패스_2173" data-name="패스 2173" class="cls-5" d="M77.28,24.515a1.27,1.27,0,0,0,1.086-1.481l-.1-.691v-.1c-.494-2.863-1.678-4.64-5.429-4.146l-3.652.494a1.3,1.3,0,0,0,.395,2.567l3.652-.494c1.777-.2,2.172-.1,2.567,2.073l.1.691a1.179,1.179,0,0,0,1.382,1.086" transform="translate(-0.876 -0.232)"/>
    <path id="패스_2174" data-name="패스 2174" class="cls-5" d="M80.507,22.691a1.27,1.27,0,0,0,1.086-1.481l-.1-.691v-.1c-.888-4.146-3.85-6.416-8-6.021l-6.712.888A1.324,1.324,0,0,0,65.7,16.769a1.27,1.27,0,0,0,1.481,1.086l6.712-.888c3.455-.395,4.738,1.876,5.133,3.85l.1.691a1.239,1.239,0,0,0,1.382,1.185" transform="translate(-0.845 -0.185)"/>
    <path id="패스_2175" data-name="패스 2175" class="cls-5" d="M83.632,20.769a1.324,1.324,0,0,0,1.086-1.481v-.395A9.392,9.392,0,0,0,74.254,10.8L64.186,12.082A1.27,1.27,0,0,0,63.1,13.563a1.324,1.324,0,0,0,1.481,1.086l10.069-1.283a6.786,6.786,0,0,1,7.6,5.824v.395a1.239,1.239,0,0,0,1.382,1.185" transform="translate(-0.812 -0.138)"/>
    <path id="패스_2176" data-name="패스 2176" class="cls-3" d="M98.406,38.653a1.222,1.222,0,0,0-.3-.2c-1.086-.79-4.837-3.554-4.442-6.811,0,0-3.949-.2-10.167-4.245,0,0,5.824,4.047,4.146,7.4,0,0,4.245-.3,10.76,3.85" transform="translate(-1.075 -0.353)"/>
    <path id="패스_2177" data-name="패스 2177" class="cls-2" d="M39.137,86.988s5.627-11.155,16.584.2l1.086-12.931S46.343,63.3,34.3,80.078Z" transform="translate(-0.441 -0.91)"/>
    <path id="패스_2178" data-name="패스 2178" class="cls-3" d="M55.293,71.68h0c.3-.1.395-.3.3-.494v-.494c.1-.2-.1-.395-.3-.494s-.395.1-.494.3a1.673,1.673,0,0,0,0,.987c.2.1.3.2.494.2" transform="translate(-0.704 -0.903)"/>
    <path id="패스_2179" data-name="패스 2179" class="cls-3" d="M58.493,62.28h0c.3-.1.395-.3.3-.494v-.494c.1-.2-.1-.395-.3-.494s-.395.1-.494.3a1.673,1.673,0,0,0,0,.987.754.754,0,0,0,.494.2" transform="translate(-0.746 -0.782)"/>
    <path id="패스_2180" data-name="패스 2180" class="cls-3" d="M54.393,62.88h0c.3-.1.395-.3.3-.494v-.494c.1-.2-.1-.395-.3-.494s-.395.1-.494.3a1.673,1.673,0,0,0,0,.987.754.754,0,0,0,.494.2" transform="translate(-0.693 -0.79)"/>
    <path id="패스_2181" data-name="패스 2181" class="cls-3" d="M58.993,58.28h0c.3-.1.395-.3.3-.494v-.494c.1-.2-.1-.395-.3-.494s-.395.1-.494.3a1.673,1.673,0,0,0,0,.987c.2.1.3.2.494.2" transform="translate(-0.752 -0.731)"/>
    <path id="패스_2182" data-name="패스 2182" class="cls-3" d="M54.593,53.88h0c.3-.1.395-.3.3-.494v-.494c.1-.2-.1-.395-.3-.494s-.395.1-.494.3a1.673,1.673,0,0,0,0,.987.754.754,0,0,0,.494.2" transform="translate(-0.695 -0.674)"/>
    <path id="패스_2183" data-name="패스 2183" class="cls-3" d="M56.093,60.18h0c.3-.1.395-.3.3-.494v-.494c.1-.2-.1-.395-.3-.494s-.395.1-.494.3a1.682,1.682,0,0,0,0,.987c.2.1.3.2.494.2" transform="translate(-0.715 -0.755)"/>
    <path id="패스_2184" data-name="패스 2184" class="cls-3" d="M56.093,50.58h0c.3-.1.395-.3.3-.494v-.494c.1-.2-.1-.395-.3-.494s-.395.1-.494.3a1.673,1.673,0,0,0,0,.987.754.754,0,0,0,.494.2" transform="translate(-0.715 -0.632)"/>
    <path id="패스_2185" data-name="패스 2185" class="cls-3" d="M57.693,54.18h0c.3-.1.395-.3.3-.494v-.494c.1-.2-.1-.395-.3-.494s-.395.1-.494.3a1.674,1.674,0,0,0,0,.987c.1.1.3.3.494.2" transform="translate(-0.735 -0.678)"/>
    <path id="패스_2186" data-name="패스 2186" class="cls-3" d="M55.993,56.58h0c.3-.1.395-.3.3-.494v-.494c.1-.2-.1-.395-.3-.494s-.395.1-.494.3a1.673,1.673,0,0,0,0,.987.754.754,0,0,0,.494.2" transform="translate(-0.713 -0.709)"/>
    <path id="패스_2187" data-name="패스 2187" class="cls-3" d="M55.793,65.68h0c.3-.1.395-.3.3-.494v-.494c.1-.2-.1-.395-.3-.494s-.395.1-.494.3a1.673,1.673,0,0,0,0,.987c.2.1.3.2.494.2" transform="translate(-0.711 -0.826)"/>
    <path id="패스_2188" data-name="패스 2188" class="cls-3" d="M57.493,69.38h0c.3-.1.395-.3.3-.494v-.494c.1-.2-.1-.395-.3-.494s-.395.1-.494.3a1.682,1.682,0,0,0,0,.987.754.754,0,0,0,.494.2" transform="translate(-0.733 -0.874)"/>
    <path id="패스_2189" data-name="패스 2189" class="cls-3" d="M54.593,68.38h0c.3-.1.395-.3.3-.494v-.494c.1-.2-.1-.395-.3-.494s-.395.1-.494.3a1.682,1.682,0,0,0,0,.987,1.668,1.668,0,0,0,.494.2" transform="translate(-0.695 -0.861)"/>
    <path id="패스_2190" data-name="패스 2190" class="cls-3" d="M59.193,66.38h0c.3-.1.395-.3.3-.494v-.494c.1-.2,0-.395-.3-.494-.2-.1-.395.1-.494.3a1.673,1.673,0,0,0,0,.987.754.754,0,0,0,.494.2" transform="translate(-0.755 -0.835)"/>
    <path id="패스_2191" data-name="패스 2191" class="cls-3" d="M83.593,96.681a.315.315,0,0,0,.3-.3c.1-.1.2-.395.3-.395.2-.1.2-.395.1-.592s-.395-.2-.592-.1a2.376,2.376,0,0,0-.592.79.361.361,0,0,0,.2.494.764.764,0,0,0,.3.1" transform="translate(-1.069 -1.226)"/>
    <path id="패스_2192" data-name="패스 2192" class="cls-3" d="M86.993,96.081a.315.315,0,0,0,.3-.3c.1-.2.2-.395.3-.395.2-.1.2-.395.1-.592s-.395-.2-.592-.1a2.376,2.376,0,0,0-.592.79.361.361,0,0,0,.2.494c.2.1.2.1.3.1" transform="translate(-1.113 -1.218)"/>
    <path id="패스_2193" data-name="패스 2193" class="cls-3" d="M86.293,88.881a.315.315,0,0,0,.3-.3c.1-.1.2-.395.3-.395.2-.1.2-.395.1-.592s-.395-.2-.592-.1a2.376,2.376,0,0,0-.592.79.361.361,0,0,0,.2.494.764.764,0,0,0,.3.1" transform="translate(-1.104 -1.125)"/>
    <path id="패스_2194" data-name="패스 2194" class="cls-3" d="M83.893,92.881a.315.315,0,0,0,.3-.3c.1-.1.2-.395.3-.395.2-.1.2-.395.1-.592s-.395-.2-.592-.1a2.375,2.375,0,0,0-.592.79.361.361,0,0,0,.2.494.764.764,0,0,0,.3.1" transform="translate(-1.073 -1.177)"/>
    <path id="패스_2195" data-name="패스 2195" class="cls-3" d="M86.493,92.181a.315.315,0,0,0,.3-.3c0-.1.2-.395.3-.395.2-.1.2-.395.1-.592s-.395-.2-.592-.1a2.376,2.376,0,0,0-.592.79.361.361,0,0,0,.2.494c.2.1.3.2.3.1" transform="translate(-1.106 -1.168)"/>
    <path id="패스_2196" data-name="패스 2196" class="cls-3" d="M83.293,90.081a.315.315,0,0,0,.3-.3c.1-.2.2-.395.3-.395.2-.1.2-.395.1-.592s-.395-.2-.592-.1a2.376,2.376,0,0,0-.592.79.361.361,0,0,0,.2.494.764.764,0,0,0,.3.1" transform="translate(-1.065 -1.141)"/>
    <path id="패스_2197" data-name="패스 2197" class="cls-3" d="M81.193,95.781a.315.315,0,0,0,.3-.3c.1-.1.2-.395.3-.395.2-.1.2-.395.1-.592s-.395-.2-.592-.1a2.376,2.376,0,0,0-.592.79.361.361,0,0,0,.2.494c.2.1.2.1.3.1" transform="translate(-1.038 -1.214)"/>
    <path id="패스_2198" data-name="패스 2198" class="cls-2" d="M74.521,129.07l-7.9,23-5.034-1.283L60.8,126.8Z" transform="translate(-0.783 -1.632)"/>
    <path id="패스_2199" data-name="패스 2199" class="cls-3" d="M61.3,142.1s1.974,2.961,4.936,1.185c0,0,2.369-1.382,3.06,1.086l-2.665,7.9L61.6,150.984Z" transform="translate(-0.789 -1.829)"/>
    <path id="패스_2200" data-name="패스 2200" class="cls-1" d="M61.519,151.1,55.3,158.6l11.155,1.481.1-7.7Z" transform="translate(-0.712 -1.945)"/>
    <path id="패스_2201" data-name="패스 2201" class="cls-2" d="M82.7,129.028l13.326,20.335,4.541-2.468L95.335,123.5Z" transform="translate(-1.064 -1.589)"/>
    <path id="패스_2202" data-name="패스 2202" class="cls-3" d="M98.806,138.4a3.619,3.619,0,0,1-4.541,2.369s-2.665-.691-2.665,1.777l4.541,7.009,4.541-2.567Z" transform="translate(-1.179 -1.781)"/>
    <path id="패스_2203" data-name="패스 2203" class="cls-1" d="M100.741,147.2l7.8,5.725-10.365,4.146-1.974-7.4Z" transform="translate(-1.238 -1.894)"/>
    <path id="패스_2204" data-name="패스 2204" class="cls-5" d="M105.977,49.657l-.3-.2a1.451,1.451,0,0,1-.494-.592.792.792,0,0,1,.1-.79v-.1a1.093,1.093,0,0,1,1.382-.395h.1l.3.2c.2.1.592.1.691-.2.1-.2.1-.592-.2-.691l-.3-.2h0l-.1-.1a2.032,2.032,0,0,0-2.665.79l-.1.1a1.937,1.937,0,0,0-.1,1.481,2.123,2.123,0,0,0,.888,1.185l.3.2c.2.1.592.1.691-.2.1-.1,0-.395-.2-.494" transform="translate(-1.341 -0.597)"/>
    <path id="패스_2205" data-name="패스 2205" class="cls-5" d="M110.08,45.362l-.2-.3a1.064,1.064,0,0,1-.2-.79.666.666,0,0,1,.395-.592h.1a1.044,1.044,0,0,1,1.382.2v.1l.2.3a.494.494,0,0,0,.79-.592l-.2-.3h0l-.1-.1a2.04,2.04,0,0,0-2.764-.494l-.1.1a2.194,2.194,0,0,0-.79,1.283,2.033,2.033,0,0,0,.3,1.481l.2.3a.6.6,0,0,0,.987-.592" transform="translate(-1.397 -0.546)"/>
    <path id="패스_2206" data-name="패스 2206" class="cls-1" d="M91.08,27.461l-.2-.3a1.064,1.064,0,0,1-.2-.79,1.591,1.591,0,0,1,.395-.691h.1a1.106,1.106,0,0,1,1.481.3v.1h0l.2.3a.768.768,0,0,0,.79.2.619.619,0,0,0,.2-.79l-.2-.3-.1-.1a2.3,2.3,0,0,0-2.961-.592l-.1.1a1.919,1.919,0,0,0-.888,1.382,2.288,2.288,0,0,0,.3,1.579l.2.3a.619.619,0,0,0,.79.2,1.007,1.007,0,0,0,.2-.888" transform="translate(-1.153 -0.315)"/>
    <path id="패스_2207" data-name="패스 2207" class="cls-1" d="M78.979,34.356l-.2-.395a1.467,1.467,0,0,1-.2-.888,1.356,1.356,0,0,1,.494-.79h.1a1.235,1.235,0,0,1,1.678.3v.1l.2.395a.576.576,0,1,0,.987-.592l-.3-.395-.1-.1a2.464,2.464,0,0,0-3.258-.592l-.1.1a2.34,2.34,0,0,0-.888,1.481,2.848,2.848,0,0,0,.3,1.777l.2.395a.547.547,0,0,0,.79.2.724.724,0,0,0,.3-.987" transform="translate(-0.996 -0.399)"/>
    <path id="패스_2208" data-name="패스 2208" class="cls-1" d="M47.036,63.532a1.869,1.869,0,0,1-1.777,1.974L5.972,67.678A1.869,1.869,0,0,1,4,65.9l-.2-3.455a1.869,1.869,0,0,1,1.777-1.974L44.963,58.3a1.869,1.869,0,0,1,1.974,1.777Z" transform="translate(-0.049 -0.75)"/>
    <path id="패스_2209" data-name="패스 2209" class="cls-1" d="M18.84,42.083a.611.611,0,0,1-.79.1.514.514,0,0,1-.1-.79.594.594,0,0,0,.1-.395.545.545,0,0,1,1.086.1,1.474,1.474,0,0,1-.3.987m-1.876,2.961a.748.748,0,0,1-.395.2.363.363,0,0,1-.3-.1.514.514,0,0,1-.1-.79c.1-.1.1-.3.2-.395a.545.545,0,1,1,1.086.1,2.314,2.314,0,0,1-.494.987M15.287,42.28a.748.748,0,0,1-.395.2.593.593,0,0,1-.395-.1.514.514,0,0,1-.1-.79.594.594,0,0,0,.1-.395.545.545,0,0,1,1.086.1,1.1,1.1,0,0,1-.3.987m-.3,5.824a.748.748,0,0,1-.395.2.593.593,0,0,1-.395-.1.514.514,0,0,1-.1-.79.593.593,0,0,0,.1-.395.545.545,0,1,1,1.086.1,2.337,2.337,0,0,1-.3.987M13.51,45.242a.394.394,0,0,1-.395.2.363.363,0,0,1-.3-.1.514.514,0,0,1-.1-.79.748.748,0,0,0,.2-.395.545.545,0,0,1,1.086.1,4.549,4.549,0,0,1-.494.987M23.48,33.2C7.39,34.482,6.6,57.877,6.6,57.877L43.124,56.3C35.424,30.336,23.48,33.2,23.48,33.2" transform="translate(-0.085 -0.426)"/>
    <path id="패스_2210" data-name="패스 2210" class="cls-1" d="M54.292,140.055l-4.936.3a4.523,4.523,0,0,1-3.554-2.369c-1.382-2.172-1.876-5.331-1.086-7.3a7.241,7.241,0,0,1,4.64-4.146,21.217,21.217,0,0,1,2.369-.691l-4.047-24.283c-.1-.395.2-.691.592-.79s.691.2.79.592l4.146,24.777v.1h0a.751.751,0,0,1-.592.79h-.1a25.5,25.5,0,0,0-2.567.79c-2.073.79-3.258,1.777-3.85,3.258l2.665-.395c.395-.1.691.2.79.592s-.2.691-.592.79l-3.258.494a6.517,6.517,0,0,0,.1,1.382l3.159-.395c.395-.1.691.2.79.592a.751.751,0,0,1-.592.79l-3.06.395a4.654,4.654,0,0,0,.592,1.481c.1,0,.1-.1.2-.1l3.06-.3a.7.7,0,1,1,.2,1.382l-2.567.3a2.713,2.713,0,0,0,1.876.987l4.837-.3a.675.675,0,0,1,.691.691.66.66,0,0,1-.691.592M43.73,121a1.042,1.042,0,0,0,.2-.494c0-.395.3-.592.691-.592s.592.3.592.691a1.8,1.8,0,0,1-.395,1.086.543.543,0,0,1-.494.3.594.594,0,0,1-.395-.1.573.573,0,0,1-.2-.888m-.1-7.5a1.042,1.042,0,0,0,.2-.494c0-.395.3-.592.691-.592s.592.3.592.691a1.8,1.8,0,0,1-.395,1.086.543.543,0,0,1-.494.3.594.594,0,0,1-.395-.1.573.573,0,0,1-.2-.888M46,117.154a1.042,1.042,0,0,0,.2-.494.653.653,0,0,1,.691-.592c.395,0,.592.3.592.691a1.8,1.8,0,0,1-.395,1.086.543.543,0,0,1-.494.3.594.594,0,0,1-.395-.1.643.643,0,0,1-.2-.888m-3.652,1.185a.543.543,0,0,1-.494.3.594.594,0,0,1-.395-.1.643.643,0,0,1-.2-.888,1.042,1.042,0,0,0,.2-.494c0-.395.3-.592.691-.592s.592.3.592.691a1.8,1.8,0,0,1-.395,1.086m-1.777-3.949a.543.543,0,0,1-.494.3.594.594,0,0,1-.395-.1.643.643,0,0,1-.2-.888.754.754,0,0,0,.2-.494c0-.395.3-.592.691-.592s.592.3.592.691a1.8,1.8,0,0,1-.395,1.086m-.79,8.391a.543.543,0,0,1-.494.3.594.594,0,0,1-.395-.1.643.643,0,0,1-.2-.888,1.042,1.042,0,0,0,.2-.494c0-.395.3-.592.691-.592s.592.3.592.691a2.07,2.07,0,0,1-.395,1.086m-2.27-4.047a.543.543,0,0,1-.494.3.594.594,0,0,1-.395-.1.643.643,0,0,1-.2-.888,1.042,1.042,0,0,0,.2-.494c0-.395.3-.592.691-.592s.592.3.592.691a2.429,2.429,0,0,1-.395,1.086m-5.133-38.7c-1.086.1-2.073-1.185-2.172-2.764s.691-2.961,1.777-3.06,2.073,1.185,2.172,2.764c.1,1.678-.691,2.961-1.777,3.06M30.5,89.712a8.047,8.047,0,0,1-5.33,2.369A7.155,7.155,0,0,1,20.927,90.6a4.831,4.831,0,0,1-1.283-1.185,1.469,1.469,0,0,1,.1-2.172,1.584,1.584,0,0,1,2.27.1,4.773,4.773,0,0,0,3.258,1.678,4.969,4.969,0,0,0,3.06-1.382A1.5,1.5,0,1,1,30.5,89.712m-1.777,55.97c-.1.2-.3.2-.494.3a.594.594,0,0,1-.395-.1.645.645,0,0,1-.2-.79.748.748,0,0,0,.2-.395.592.592,0,1,1,1.185,0,2.9,2.9,0,0,1-.3.987m-2.27-3.356a.543.543,0,0,1-.494.3.594.594,0,0,1-.395-.1.643.643,0,0,1-.2-.888,1.042,1.042,0,0,0,.2-.494c0-.395.3-.592.691-.592s.592.3.592.691c-.1.3-.3.79-.395,1.086m.1,7.107c-.1.2-.3.2-.494.3a.593.593,0,0,1-.395-.1.522.522,0,0,1-.1-.79.748.748,0,0,0,.2-.395.592.592,0,0,1,1.185,0,10.237,10.237,0,0,1-.395.987m-2.369-3.554c-.1.2-.3.2-.494.3a.593.593,0,0,1-.395-.1.645.645,0,0,1-.2-.79.748.748,0,0,0,.2-.395.592.592,0,1,1,1.185,0,1.474,1.474,0,0,1-.3.987M22.21,149.63c-.1.2-.3.2-.494.3a.593.593,0,0,1-.395-.1.645.645,0,0,1-.2-.79.748.748,0,0,0,.2-.395.592.592,0,0,1,1.185,0,1.1,1.1,0,0,1-.3.987m-1.382-8.193a1.042,1.042,0,0,0,.2-.494c0-.395.3-.592.691-.592s.592.3.592.691a1.8,1.8,0,0,1-.395,1.086.543.543,0,0,1-.494.3.593.593,0,0,1-.395-.1.643.643,0,0,1-.2-.888m-2.764-61.2c-1.086.1-2.073-1.185-2.172-2.764s.691-2.961,1.777-3.06,2.073,1.185,2.172,2.764c.1,1.678-.691,3.06-1.777,3.06m1.382,65.842c-.1.2-.3.2-.494.2a.594.594,0,0,1-.395-.1.522.522,0,0,1-.1-.79.749.749,0,0,0,.2-.395.538.538,0,0,1,.691-.494.494.494,0,0,1,.494.592c-.1.3-.3.691-.395.987m-1.678,4.047a.543.543,0,0,1-.494.3.593.593,0,0,1-.395-.1.645.645,0,0,1-.2-.79.748.748,0,0,0,.2-.395.592.592,0,0,1,1.185,0,1.9,1.9,0,0,1-.3.987m-1.678-7.8a.643.643,0,0,1-.2-.888,1.042,1.042,0,0,0,.2-.494.653.653,0,0,1,.691-.592c.395,0,.592.3.592.691a1.8,1.8,0,0,1-.395,1.086.543.543,0,0,1-.494.3c-.1.1-.3,0-.395-.1m-1.777-8.983a5.432,5.432,0,0,1-3.455,3.06l-4.146.2a.691.691,0,0,1,0-1.382l4.047-.2a2.679,2.679,0,0,0,1.876-1.481H10.661a.691.691,0,0,1,0-1.382l2.665.1a7.4,7.4,0,0,0,.494-1.579H11.253a.691.691,0,0,1,0-1.382h2.764a7.471,7.471,0,0,0-.1-1.481H11.352a.691.691,0,1,1,0-1.382h2.073a6.915,6.915,0,0,0-.79-.987c-1.086-1.185-2.764-1.382-4.541-1.481-.395,0-.691-.1-1.086-.1a.653.653,0,0,1-.592-.691c.2-8.785.494-19.249.494-19.348a.691.691,0,1,1,1.382,0c0,.2-.395,15.3-.494,18.657h.395c1.876.2,3.949.395,5.429,1.974a5.042,5.042,0,0,1,1.086,1.579,9.093,9.093,0,0,1-.395,7.3m.2,12.635a.543.543,0,0,1-.494.3.594.594,0,0,1-.395-.1.645.645,0,0,1-.2-.79.749.749,0,0,0,.2-.395.592.592,0,1,1,1.185,0,1.193,1.193,0,0,1-.3.987m9.476-65.545c.3-.691.987-2.764,2.172-1.974l.3.3a15.345,15.345,0,0,1,.79,2.27c.592,1.579,1.777,3.751-.79,4.245-1.283.2-3.06.2-4.047-.79-1.086-.987,1.086-3.06,1.579-4.047m36.03,52.219L53.5,98.1A4.455,4.455,0,0,0,49.06,94.45c-.1-.79-.3-1.579-.395-2.369h.2l.79-.1a3.05,3.05,0,0,0,2.468-3.356l-2.764-16.88A3.05,3.05,0,0,0,46,69.278l-.79.1a4.275,4.275,0,0,0-.494.1c-.1-.592-.2-1.283-.3-1.876l-38.1,2.073v1.974c-.2,0-.395-.1-.592-.1h-.79a2.967,2.967,0,0,0-3.06,2.863L1.185,91.39a2.967,2.967,0,0,0,2.863,3.06h.79a1.924,1.924,0,0,0,.79-.1v1.777a4.855,4.855,0,0,0-4.64,4.738L0,131.369A4.818,4.818,0,0,0,4.442,136.4c0,1.974-.1,3.949-.1,5.824-.1,4.738-.1,10.464,3.652,14.017,4.047,3.85,10.069,2.863,15.1,2.468,7.009-.592,13.919-.79,20.927-1.185,4.936-.3,10.76-.691,13.425-5.528,1.974-3.455,1.382-8,.3-12.339,1.777-1.481,2.665-5.034,2.27-7.009" transform="translate(0 -0.87)"/>
    <path id="패스_2211" data-name="패스 2211" class="cls-7" d="M108.753,113.742c-.691.691-2.567-.79-3.159-1.481a1.782,1.782,0,0,1,2.567-2.468c.592.691,1.283,3.258.592,3.949" transform="translate(-1.353 -1.406)"/>
    <path id="패스_2212" data-name="패스 2212" class="cls-8" d="M105.965,115.882c.1.987.2,1.974-.691,2.073a1.911,1.911,0,0,1-1.974-1.481,1.711,1.711,0,0,1,1.481-1.974c.888-.2.987.395,1.185,1.382" transform="translate(-1.329 -1.473)"/>
    <path id="패스_2213" data-name="패스 2213" class="cls-5" d="M104.866,107.581c.1.987.2,1.974-.691,2.073a1.747,1.747,0,0,1-1.876-1.579,1.711,1.711,0,0,1,1.481-1.974c.79-.1.987.494,1.086,1.481" transform="translate(-1.317 -1.365)"/>
    <path id="패스_2214" data-name="패스 2214" class="cls-3" d="M107,106.272a3.523,3.523,0,0,0-3.258-1.185,3.47,3.47,0,0,0-2.665,1.974,5.883,5.883,0,0,0-.592,2.863,13.134,13.134,0,0,0,3.554,7.8h0a14.184,14.184,0,0,0,7.4,3.949,2.21,2.21,0,0,0,1.974-.494c.691-.79.691-2.27.1-4.343-.592-1.481-1.185-2.764-1.777-4.047A43.016,43.016,0,0,0,107,106.272Zm-3.751,11.944h0a13.842,13.842,0,0,1-3.751-8.391,9.417,9.417,0,0,1,.691-3.258,4.45,4.45,0,0,1,3.258-2.369,4.4,4.4,0,0,1,3.949,1.481,33.429,33.429,0,0,1,4.738,6.712,40.306,40.306,0,0,1,1.876,4.146c.79,2.468.691,4.146-.2,5.133a3.31,3.31,0,0,1-2.764.79,15.08,15.08,0,0,1-7.8-4.245" transform="translate(-1.281 -1.34)"/>
    <path id="패스_2215" data-name="패스 2215" class="cls-3" d="M99.8,111.553h0a.476.476,0,0,1,.1-.691c.3-.1,6.318-3.554,9.674-2.764a.407.407,0,1,1-.2.79c-2.961-.691-8.983,2.665-9.082,2.665-.1.2-.3.1-.494,0" transform="translate(-1.283 -1.39)"/>
    <path id="패스_2216" data-name="패스 2216" class="cls-3" d="M101,114.455h0a.477.477,0,0,1,.1-.691c.3-.1,6.515-3.455,9.773-2.665a.407.407,0,0,1-.2.79c-2.961-.691-9.18,2.567-9.18,2.665a.434.434,0,0,1-.494-.1" transform="translate(-1.298 -1.428)"/>
    <path id="패스_2217" data-name="패스 2217" class="cls-3" d="M102.8,117.259l-.1-.1a.475.475,0,0,1,.2-.592c.3-.1,6.416-3.06,9.674-2.369a.407.407,0,1,1-.2.79c-2.961-.691-9.082,2.27-9.18,2.27-.1.2-.3.1-.395,0" transform="translate(-1.321 -1.468)"/>
    <path id="패스_2218" data-name="패스 2218" class="cls-3" d="M106.2,120.467h0a.477.477,0,0,1,.1-.691c.2-.1,4.541-2.468,7.8-1.678a.407.407,0,0,1-.2.79c-2.961-.691-7.206,1.579-7.206,1.678-.2.1-.395.1-.494-.1" transform="translate(-1.365 -1.518)"/>
    <path id="패스_2219" data-name="패스 2219" class="cls-3" d="M108.7,121.424a.345.345,0,0,1-.1-.2A31.032,31.032,0,0,0,101.4,108.69c-.2-.1-.2-.395,0-.592a.37.37,0,0,1,.592,0,31.728,31.728,0,0,1,7.4,12.833c.1.2-.1.395-.3.494-.1.2-.3.1-.395,0" transform="translate(-1.303 -1.389)"/>
    <path id="패스_2220" data-name="패스 2220" class="cls-3" d="M111.675,122.368a.363.363,0,0,1-.1-.3c0-.1-.1-7.3-9.378-16.781h0a.419.419,0,0,1,.592-.592c9.575,9.773,9.575,17.077,9.575,17.373a.425.425,0,0,1-.395.395.363.363,0,0,1-.3-.1" transform="translate(-1.313 -1.346)"/>
    <path id="패스_2221" data-name="패스 2221" class="cls-1" d="M128.027,79.963c-1.382,8.687-8.983,14.61-16.781,13.228-7.9-1.283-13.03-9.378-11.549-17.966S108.68,60.714,116.577,62c7.7,1.283,12.931,9.378,11.451,17.966" transform="translate(-1.28 -0.796)"/>
    <path id="패스_2222" data-name="패스 2222" class="cls-4" d="M125.591,79.6c-1.185,7.107-7.4,11.944-13.919,10.858s-10.76-7.7-9.575-14.807,7.4-11.944,13.919-10.858,10.76,7.7,9.575,14.807" transform="translate(-1.311 -0.832)"/>
    <path id="패스_2223" data-name="패스 2223" class="cls-1" d="M100.6,75.487s14.215-12.833,26.258,4.442l-.1-7.6L120.244,66.8h-15l-3.258,5.034Z" transform="translate(-1.295 -0.86)"/>
    <path id="패스_2224" data-name="패스 2224" class="cls-2" d="M124.462,68.413a4.363,4.363,0,0,1-5.034,3.554l-9.575-1.579a4.357,4.357,0,1,1,1.481-8.588l9.575,1.579a4.471,4.471,0,0,1,3.554,5.034" transform="translate(-1.367 -0.795)"/>
    <path id="패스_2225" data-name="패스 2225" class="cls-8" d="M121.275,61.178,111.7,59.6a6.6,6.6,0,1,0-2.172,13.03l9.575,1.579a6.6,6.6,0,0,0,2.172-13.03m-.395,2.27a4.357,4.357,0,1,1-1.481,8.588l-9.575-1.579a4.357,4.357,0,0,1,1.481-8.588Z" transform="translate(-1.339 -0.766)"/>
    <path id="패스_2226" data-name="패스 2226" class="cls-1" d="M110.369,76.675c-.2.987-.79,1.678-1.481,1.579-.592-.1-.987-.987-.888-1.876.2-.987.79-1.678,1.481-1.579s1.086.888.888,1.876" transform="translate(-1.39 -0.963)"/>
    <path id="패스_2227" data-name="패스 2227" class="cls-1" d="M118.869,78.475c-.2.987-.79,1.678-1.481,1.579-.592-.1-.987-.987-.888-1.876.2-.987.79-1.678,1.481-1.579.691,0,1.086.888.888,1.876" transform="translate(-1.499 -0.986)"/>
    <path id="패스_2228" data-name="패스 2228" class="cls-1" d="M109.29,84.77a6.926,6.926,0,0,1-.592-.888.961.961,0,0,1,.3-1.283.94.94,0,0,1,1.283.3,2.493,2.493,0,0,0,1.678,1.382,3.164,3.164,0,0,0,1.974-.395.918.918,0,1,1,1.086,1.481,5.1,5.1,0,0,1-3.455.691,3.811,3.811,0,0,1-2.27-1.283" transform="translate(-1.397 -1.061)"/>
    <path id="패스_2229" data-name="패스 2229" class="cls-8" d="M114.059,78.5c0-.1-.1-.1-.1-.2-.592-.592-1.185.494-1.481.888-.395.494-1.974,1.382-1.481,2.172a2.859,2.859,0,0,0,2.27.987c1.579,0,1.185-1.382.987-2.369a6.716,6.716,0,0,0-.2-1.481" transform="translate(-1.427 -1.005)"/>
    <path id="패스_2230" data-name="패스 2230" class="cls-8" d="M128.044,78.2a1.2,1.2,0,0,1-.888-.79,12.5,12.5,0,0,0-3.06-5.232,1.119,1.119,0,0,1,1.481-1.678,14.506,14.506,0,0,1,3.751,6.219,1.082,1.082,0,0,1-.79,1.382.74.74,0,0,1-.494.1" transform="translate(-1.592 -0.904)"/>
    <path id="패스_2231" data-name="패스 2231" class="cls-8" d="M100.188,73.916c-.2,0-.3-.1-.494-.2a1.232,1.232,0,0,1-.3-1.579,12.985,12.985,0,0,1,5.627-4.64,1.174,1.174,0,0,1,1.481.691,1.221,1.221,0,0,1-.592,1.481,11.627,11.627,0,0,0-4.64,3.949,1.307,1.307,0,0,1-1.086.3" transform="translate(-1.277 -0.868)"/>
    <path id="패스_2232" data-name="패스 2232" class="cls-4" d="M118.209,107.587a3.444,3.444,0,0,1-2.073.3,3.118,3.118,0,0,1-1.678-1.086c-.1,0-.1-.1-.2-.1-.494-.3-.494.395-.494.691a2.955,2.955,0,0,0,.395.79c.1.1.494.592.691.494,0,0-.888.3-2.27-1.086-.1-.1-.3-.395-.395-.3-.494.2.3,1.481.592,1.678a4.943,4.943,0,0,0,.79.691,2.217,2.217,0,0,1-1.777,0c-.2-.1-.395-.1-.494.1-.2.395.494.888.79,1.086a2.474,2.474,0,0,0,1.876.494l-.2.2a2.066,2.066,0,0,1-.592.395,3.508,3.508,0,0,1-.987.2c-.2,0-.888-.2-.888.2s.79.691,1.086.691a4.009,4.009,0,0,0,2.073-.494c-.1,0-.1.3-.2.3a3,3,0,0,1-.494.691c-.2.2-.592.395-.691.691-.2.494.79.1.987,0s.494-.3.691-.395a22.963,22.963,0,0,0,2.567-1.678,16.879,16.879,0,0,0,1.382-1.086l.1-.1,1.283-.888c-.3.1-1.283-2.665-1.876-2.468" transform="translate(-1.432 -1.372)"/>
    <path id="패스_2233" data-name="패스 2233" class="cls-1" d="M123.034,91.4s13.524,10.069-3.159,18.558L118,107.589s8.785-6.12,1.382-11.451c0,0,1.185-4.738,3.652-4.738" transform="translate(-1.519 -1.176)"/>
    <path id="패스_2234" data-name="패스 2234" class="cls-9" d="M111.8,151.5s-.494,3.356,2.665,4.146a7.764,7.764,0,0,0,2.27-3.06Z" transform="translate(-1.439 -1.95)"/>
    <path id="패스_2235" data-name="패스 2235" class="cls-9" d="M89.5,150s-.1,3.85,3.652,4.245a8.433,8.433,0,0,0,2.172-3.751Z" transform="translate(-1.152 -1.93)"/>
    <path id="패스_2236" data-name="패스 2236" class="cls-5" d="M111.789,151.5s-3.85,4.146,5.034,12.24l8.094-1.283-8.094-9.871c-.1,0-2.863,4.343-5.034-1.086" transform="translate(-1.428 -1.95)"/>
    <path id="패스_2237" data-name="패스 2237" class="cls-5" d="M89.369,150,79.3,158.391l7.7,1.777s7.7-3.554,8.094-9.575c0-.1-6.318,4.047-5.725-.592" transform="translate(-1.021 -1.93)"/>
  </g>
</svg>
