<svg xmlns="http://www.w3.org/2000/svg" viewBox="0 0 199.38 163.821">
  <defs>
    <style>
      .cls-1 {
        fill: #74c6be;
      }

      .cls-2 {
        fill: #bce2e3;
      }

      .cls-3 {
        fill: #727171;
      }

      .cls-4 {
        fill: #fff;
      }

      .cls-5 {
        fill: #92aca9;
      }

      .cls-6 {
        fill: #e4f3fa;
      }

      .cls-7 {
        fill: #fcd68c;
      }

      .cls-8 {
        fill: #fdd35c;
      }

      .cls-9 {
        fill: #fbf6d2;
      }
    </style>
  </defs>
  <g id="그룹_666" data-name="그룹 666" transform="translate(-858 -114.817)">
    <g id="그룹_664" data-name="그룹 664">
      <g id="그룹_662" data-name="그룹 662" transform="translate(963 121)">
        <path id="패스_1987" data-name="패스 1987" class="cls-1" d="M90.622,21.8s9.594,0,14.233,32.976c0,0,.318,4.257,4.13,3.622a2.36,2.36,0,0,1,2.542,1.906c.508,2.478-2.542,3.113-4.384,3.113a7.246,7.246,0,0,1-1.652-.127c-5.909-1.08-6.227-7.307-7.243-12.009-1.207-5.718-1.716-11.437-4.321-16.647-1.652-3.177-4.321-5.274-6.926-7.752Z" transform="translate(-31.722 -7.949)"/>
        <path id="패스_1988" data-name="패스 1988" class="cls-1" d="M127.952,173.086h0a1.242,1.242,0,0,0-1.716.381,5.86,5.86,0,0,0-.318.508l-.254.381c-.381.572-.7,1.144-1.08,1.652-.445.762-.953,1.461-1.4,2.224-.191.381-.445.7-.635,1.08-.254.445-.508.826-.7,1.207l-.127.254c-.508.762-1.08,1.652-1.716,1.779a3.969,3.969,0,0,1-1.97-.89l-1.652-1.207a1.226,1.226,0,0,0-1.461,1.97l1.716,1.207c.826.572,2.224,1.588,3.812,1.334,1.652-.254,2.669-1.779,3.368-2.859l.127-.254a15.2,15.2,0,0,0,.826-1.334c.191-.318.381-.635.572-1.017.445-.7.953-1.461,1.4-2.16.381-.572.7-1.144,1.08-1.716l.191-.318.381-.572a1.291,1.291,0,0,0-.445-1.652" transform="translate(-41.731 -63.038)"/>
        <path id="패스_1989" data-name="패스 1989" class="cls-1" d="M130.657,172.986a1.242,1.242,0,0,0-1.716.381L122.4,183.661a4.576,4.576,0,0,1-1.144,1.271,4.454,4.454,0,0,1-4.765.127l-2.986-1.906a1.243,1.243,0,0,0-1.334,2.1l2.986,1.906a6.82,6.82,0,0,0,7.561-.191,7.416,7.416,0,0,0,1.779-1.906l6.544-10.293a1.3,1.3,0,0,0-.381-1.779" transform="translate(-40.687 -63.001)"/>
        <path id="패스_1990" data-name="패스 1990" class="cls-1" d="M133.959,172.986a1.242,1.242,0,0,0-1.716.381L124.3,185.884a7.436,7.436,0,0,1-9.721,2.1l-2.478-1.588a1.243,1.243,0,0,0-1.334,2.1l2.542,1.588.064.064a10,10,0,0,0,12.962-2.859l.064-.064L134.4,174.7a1.288,1.288,0,0,0-.445-1.716" transform="translate(-40.176 -63.001)"/>
        <path id="패스_1991" data-name="패스 1991" class="cls-2" d="M34.083,102.869s-1.461,15.44,10.166,27.258l2.287,19.506h4.511l2.923-18.172,7.688-.254,4.321,20.142h4.13l2.8-23.192s8.832-3.431,6.1-20.777l-5.464-52.1s-3.749-32.15-11.564-35.327c0,0,9.467-8.959,2.287-19.951A20.852,20.852,0,0,0,54.8,13.025s-.762.381-7.053.064H45.711S43.932,5.973,35.163,2.605a17.062,17.062,0,0,0,3.495,15.758c-.254-.254-8.2,6.481-8.451,6.672-7.37,6.227-10.8,11.183-15.821,18.617a6.557,6.557,0,0,0-.953,5.846c.445,2.033,2.923,4.7,4.448,5.973a10.4,10.4,0,0,0,7.243,2.923c5.083-.064,10.992-.635,15.567-2.859-.191.127,0,.191-.635,4Z" transform="translate(-4.792 0)"/>
        <path id="패스_1992" data-name="패스 1992" class="cls-3" d="M24.466,100.191l2.033,3.622-4.511,4.257L20.4,102.1a10.034,10.034,0,0,1,4-2.1Z" transform="translate(-7.438 -36.462)"/>
        <path id="패스_1993" data-name="패스 1993" class="cls-3" d="M89.9,243.907h9.213l-.953-7.116-4.448-.191Z" transform="translate(-32.779 -86.268)"/>
        <path id="패스_1994" data-name="패스 1994" class="cls-3" d="M63.84,235.464l-3.24,5.782s5.846,0,8.832-.318l-1.08-5.528H63.84Z" transform="translate(-22.096 -85.831)"/>
        <path id="패스_1995" data-name="패스 1995" class="cls-4" d="M74.007,224,72.8,231.307v.064h0L74.007,224h0" transform="translate(-26.544 -81.674)"/>
        <path id="패스_1996" data-name="패스 1996" class="cls-4" d="M68.511,221.9h-.191a1.449,1.449,0,0,0-.7.191l-.572.381a2.968,2.968,0,0,1-.635.318,1.759,1.759,0,0,1-.572.064,2.589,2.589,0,0,1-1.144-.318c-.191-.127-.318-.254-.508-.381a.286.286,0,0,1-.191-.191l1.017,8.514h4.511l1.207-7.307c0-.064-.127-.191-.127-.191-.064-.064-.127-.127-.127-.191-.127-.127-.191-.254-.318-.318a2.018,2.018,0,0,0-1.271-.508c-.127,0-.254-.064-.381-.064" transform="translate(-23.335 -80.908)"/>
        <path id="패스_1997" data-name="패스 1997" class="cls-5" d="M65.7,235.5Z" transform="translate(-23.955 -85.867)"/>
        <path id="패스_1998" data-name="패스 1998" class="cls-4" d="M93.1,223.6l1.779,8.324h0l-1.779-8.2V223.6" transform="translate(-33.946 -81.528)"/>
        <path id="패스_1999" data-name="패스 1999" class="cls-4" d="M100.062,221.9c-.318,0-.572.445-.572.445-.318.762-.7.953-1.017.953a1.116,1.116,0,0,1-.762-.381,1.221,1.221,0,0,0-1.017-.762,1.929,1.929,0,0,0-1.271.762,1.345,1.345,0,0,1-1.144.635,1.711,1.711,0,0,1-1.08-.508l1.779,8.2h0l2.732.127,1.652.064,1.144-9.15c-.127-.318-.318-.381-.445-.381" transform="translate(-33.982 -80.908)"/>
        <path id="패스_2000" data-name="패스 2000" class="cls-5" d="M95.9,236.6h0l2.732.127Z" transform="translate(-34.967 -86.268)"/>
        <path id="패스_2001" data-name="패스 2001" class="cls-4" d="M49.048,7.6s-.89,7.243,2.923,11.119a1.848,1.848,0,0,0,1.271.762c1.906,0-.127-9.022-4.194-11.882" transform="translate(-17.851 -2.771)"/>
        <path id="패스_2002" data-name="패스 2002" class="cls-4" d="M91.06,4.5c-4.194,4.066-5.083,14.36-2.986,14.36.381,0,.89-.381,1.461-1.207C93.856,11.68,91.06,4.5,91.06,4.5" transform="translate(-31.716 -1.641)"/>
        <path id="패스_2003" data-name="패스 2003" class="cls-6" d="M36.827,59.6l-.127.127s.064,0,.127-.127Z" transform="translate(-13.381 -21.731)"/>
        <path id="패스_2004" data-name="패스 2004" class="cls-1" d="M16.49,74.906l.064-.318a.667.667,0,0,1,.318-.572.768.768,0,0,1,.635-.191h.064a.912.912,0,0,1,.826.953v.064l-.064.318a.449.449,0,0,0,.89.127l.064-.318h0v-.127A1.714,1.714,0,0,0,17.7,73H17.57a1.942,1.942,0,0,0-1.271.445,2.063,2.063,0,0,0-.635,1.144l-.064.318a.483.483,0,0,0,.381.508c.318-.064.508-.254.508-.508" transform="translate(-5.688 -26.617)"/>
        <path id="패스_2005" data-name="패스 2005" class="cls-1" d="M24.288,77.85l.191-.254a.988.988,0,0,1,.508-.381.752.752,0,0,1,.635.064h.064A.908.908,0,0,1,26,78.485v.064l-.191.254a.458.458,0,0,0,.762.508l.191-.254h0l.064-.064a1.755,1.755,0,0,0-.635-2.351l-.127-.064a1.625,1.625,0,0,0-1.334-.127,1.894,1.894,0,0,0-1.08.762l-.191.254a.493.493,0,0,0,.127.635.868.868,0,0,0,.7-.254" transform="translate(-8.531 -27.845)"/>
        <path id="패스_2006" data-name="패스 2006" class="cls-4" d="M51.281,162.7h0c-.254,0-.381.191-.381.445a1.178,1.178,0,0,0,.127.445l.191.381a.485.485,0,0,0,.318.127.382.382,0,0,0,.254-.064.336.336,0,0,0,.064-.508h0c0-.064-.064-.127-.127-.191a.382.382,0,0,1-.064-.254.366.366,0,0,0-.381-.381" transform="translate(-18.559 -59.323)"/>
        <path id="패스_2007" data-name="패스 2007" class="cls-4" d="M50.381,155.9h0c-.254,0-.381.191-.381.445a.918.918,0,0,0,.127.445l.191.381a.485.485,0,0,0,.318.127.382.382,0,0,0,.254-.064.336.336,0,0,0,.064-.508c-.064-.064-.064-.127-.127-.191a.382.382,0,0,1-.064-.254.366.366,0,0,0-.381-.381" transform="translate(-18.231 -56.844)"/>
        <path id="패스_2008" data-name="패스 2008" class="cls-4" d="M56.081,177h0c-.254,0-.381.191-.381.445a1.178,1.178,0,0,0,.127.445,1.329,1.329,0,0,0,.254.381.485.485,0,0,0,.318.127.382.382,0,0,0,.254-.064.336.336,0,0,0,.064-.508c0-.064-.064-.127-.127-.191a.382.382,0,0,1-.064-.254.464.464,0,0,0-.445-.381" transform="translate(-20.309 -64.537)"/>
        <path id="패스_2009" data-name="패스 2009" class="cls-4" d="M58.981,182.1h0c-.254,0-.381.191-.381.445a.918.918,0,0,0,.127.445l.191.381a.485.485,0,0,0,.318.127.382.382,0,0,0,.254-.064.336.336,0,0,0,.064-.508c-.064-.064-.064-.127-.127-.191a.382.382,0,0,1-.064-.254q-.1-.381-.381-.381" transform="translate(-21.367 -66.397)"/>
        <path id="패스_2010" data-name="패스 2010" class="cls-4" d="M56.281,185.9h0c-.254,0-.381.191-.381.445a1.178,1.178,0,0,0,.127.445l.191.381a.485.485,0,0,0,.318.127.382.382,0,0,0,.254-.064.336.336,0,0,0,.064-.508c0-.064-.064-.127-.127-.191a.382.382,0,0,1-.064-.254.366.366,0,0,0-.381-.381" transform="translate(-20.382 -67.782)"/>
        <path id="패스_2011" data-name="패스 2011" class="cls-4" d="M53.981,181.1h0c-.254,0-.381.191-.381.445a1.178,1.178,0,0,0,.127.445l.191.381a.485.485,0,0,0,.318.127.382.382,0,0,0,.254-.064.336.336,0,0,0,.064-.508c0-.064-.064-.127-.127-.191a.382.382,0,0,1-.064-.254.366.366,0,0,0-.381-.381" transform="translate(-19.543 -66.032)"/>
        <path id="패스_2012" data-name="패스 2012" class="cls-4" d="M58.781,174.3h0c-.254,0-.381.191-.381.445a1.178,1.178,0,0,0,.127.445l.191.381a.485.485,0,0,0,.318.127.382.382,0,0,0,.254-.064.336.336,0,0,0,.064-.508c0-.064-.064-.127-.127-.191a.382.382,0,0,1-.064-.254q-.1-.381-.381-.381" transform="translate(-21.294 -63.553)"/>
        <path id="패스_2013" data-name="패스 2013" class="cls-4" d="M50.681,173.8h0c-.254,0-.381.191-.381.445a1.178,1.178,0,0,0,.127.445l.191.381a.485.485,0,0,0,.318.127.382.382,0,0,0,.254-.064.336.336,0,0,0,.064-.508c0-.064-.064-.127-.127-.191a.382.382,0,0,1-.064-.254q-.1-.381-.381-.381" transform="translate(-18.34 -63.37)"/>
        <path id="패스_2014" data-name="패스 2014" class="cls-4" d="M50.881,167.9h0c-.254,0-.381.191-.381.445a1.178,1.178,0,0,0,.127.445l.191.381a.485.485,0,0,0,.318.127.382.382,0,0,0,.254-.064.336.336,0,0,0,.064-.508c0-.064-.064-.127-.127-.191a.382.382,0,0,1-.064-.254q-.1-.381-.381-.381" transform="translate(-18.413 -61.219)"/>
        <path id="패스_2015" data-name="패스 2015" class="cls-4" d="M54.781,159.7h0c-.254,0-.381.191-.381.445a.918.918,0,0,0,.127.445l.191.381a.485.485,0,0,0,.318.127.382.382,0,0,0,.254-.064.336.336,0,0,0,.064-.508c0-.064-.064-.127-.127-.191a.382.382,0,0,1-.064-.254q-.1-.381-.381-.381" transform="translate(-19.835 -58.229)"/>
        <path id="패스_2016" data-name="패스 2016" class="cls-4" d="M54.781,171.1h0c-.254,0-.381.191-.381.445a1.178,1.178,0,0,0,.127.445l.191.381a.485.485,0,0,0,.318.127.382.382,0,0,0,.254-.064.336.336,0,0,0,.064-.508c0-.064-.064-.127-.127-.191a.382.382,0,0,1-.064-.254q-.1-.381-.381-.381" transform="translate(-19.835 -62.386)"/>
        <path id="패스_2017" data-name="패스 2017" class="cls-4" d="M100.532,195.7a.4.4,0,0,0-.381.318.48.48,0,0,1-.064.254c-.064.064-.064.191-.127.191a.385.385,0,0,0,.064.508c.064.064.127.064.254.064s.191-.064.318-.127l.191-.381a.918.918,0,0,0,.127-.445.366.366,0,0,0-.381-.381h0" transform="translate(-36.422 -71.355)"/>
        <path id="패스_2018" data-name="패스 2018" class="cls-4" d="M98.732,191a.4.4,0,0,0-.381.318c0,.064-.064.127-.064.254-.064.064-.064.191-.127.254a.385.385,0,0,0,.064.508c.064.064.127.064.254.064s.191-.064.318-.127l.191-.381a.918.918,0,0,0,.127-.445.464.464,0,0,0-.381-.445h0" transform="translate(-35.766 -69.642)"/>
        <path id="패스_2019" data-name="패스 2019" class="cls-4" d="M108.221,186.4a.4.4,0,0,0-.381.318c0,.064-.064.127-.064.254-.064.064-.064.191-.127.191a.331.331,0,0,0,.064.508c.064.064.127.064.254.064s.191-.064.318-.127l.191-.381a.918.918,0,0,0,.127-.445c.064-.191-.127-.381-.381-.381h0" transform="translate(-39.218 -67.965)"/>
        <path id="패스_2020" data-name="패스 2020" class="cls-4" d="M105.021,192.4a.4.4,0,0,0-.381.318c0,.064-.064.127-.064.254-.064.064-.064.191-.127.191a.331.331,0,0,0,.064.508c.064.064.127.064.254.064s.191-.064.318-.127l.191-.381a.918.918,0,0,0,.127-.445.461.461,0,0,0-.381-.381h0" transform="translate(-38.052 -70.152)"/>
        <path id="패스_2021" data-name="패스 2021" class="cls-4" d="M103.921,188.7a.4.4,0,0,0-.381.318c0,.064-.064.127-.064.254-.064.064-.064.191-.127.191a.331.331,0,0,0,.064.508c.064.064.127.064.254.064s.191-.064.318-.127l.191-.381a.918.918,0,0,0,.127-.445.366.366,0,0,0-.381-.381h0" transform="translate(-37.651 -68.803)"/>
        <path id="패스_2022" data-name="패스 2022" class="cls-4" d="M109.032,191a.4.4,0,0,0-.381.318c0,.064-.064.127-.064.254-.064.064-.064.191-.127.254a.385.385,0,0,0,.064.508c.064.064.127.064.254.064s.191-.064.318-.127h0l.191-.381a.918.918,0,0,0,.127-.445.464.464,0,0,0-.381-.445h0" transform="translate(-39.521 -69.642)"/>
        <path id="패스_2023" data-name="패스 2023" class="cls-4" d="M103.421,198a.4.4,0,0,0-.381.318c0,.064-.064.127-.064.254-.064.064-.064.191-.127.191a.331.331,0,0,0,.064.508c.064.064.127.064.254.064s.191-.064.318-.127l.191-.381a.919.919,0,0,0,.127-.445c.064-.191-.127-.381-.381-.381h0" transform="translate(-37.468 -72.194)"/>
        <path id="패스_2024" data-name="패스 2024" class="cls-4" d="M103.8,99.7c-.064,0-.127,0-.127.064a.4.4,0,0,0-.191.508c.064.064.064.318.064.445v.064a.478.478,0,0,0,.318.445h.064a.4.4,0,0,0,.381-.318v-.127a2.284,2.284,0,0,0-.127-.7c-.127-.318-.254-.381-.381-.381" transform="translate(-37.724 -36.352)"/>
        <path id="패스_2025" data-name="패스 2025" class="cls-4" d="M97.4,86.7c-.064,0-.127,0-.127.064a.4.4,0,0,0-.191.508c.064.064.064.318.064.445v.064a.478.478,0,0,0,.318.445h.064a.4.4,0,0,0,.381-.318v-.191a2.284,2.284,0,0,0-.127-.7c-.127-.254-.254-.318-.381-.318" transform="translate(-35.391 -31.612)"/>
        <path id="패스_2026" data-name="패스 2026" class="cls-4" d="M103.5,86.7h-.127a.4.4,0,0,0-.191.508c.064.064.064.318.064.445v.064a.478.478,0,0,0,.318.445h.064a.4.4,0,0,0,.381-.318v-.127a2.284,2.284,0,0,0-.127-.7c-.127-.191-.254-.318-.381-.318" transform="translate(-37.615 -31.612)"/>
        <path id="패스_2027" data-name="패스 2027" class="cls-4" d="M95.9,81c-.064,0-.127,0-.127.064a.4.4,0,0,0-.191.508c0,.064.064.127.064.191v.318a.478.478,0,0,0,.318.445h.064a.4.4,0,0,0,.381-.318v-.191a.806.806,0,0,0-.064-.381.485.485,0,0,0-.127-.318c-.064-.254-.191-.318-.318-.318" transform="translate(-34.844 -29.534)"/>
        <path id="패스_2028" data-name="패스 2028" class="cls-4" d="M101.5,73.9h-.127a.4.4,0,0,0-.191.508c.064.064.064.318.064.445v.064a.478.478,0,0,0,.318.445h.064a.4.4,0,0,0,.381-.318v-.127a2.284,2.284,0,0,0-.127-.7.384.384,0,0,0-.381-.318" transform="translate(-36.886 -26.945)"/>
        <path id="패스_2029" data-name="패스 2029" class="cls-4" d="M100.4,83.2h-.127a.4.4,0,0,0-.191.508c.064.064.064.318.064.445v.064a.478.478,0,0,0,.318.445h.064a.4.4,0,0,0,.381-.318v-.127a2.284,2.284,0,0,0-.127-.7c-.064-.254-.191-.318-.381-.318" transform="translate(-36.484 -30.336)"/>
        <path id="패스_2030" data-name="패스 2030" class="cls-4" d="M98.6,69.4c-.064,0-.127,0-.127.064a.4.4,0,0,0-.191.508c.064.064.064.318.064.445v.064a.478.478,0,0,0,.318.445h.064a.4.4,0,0,0,.381-.318V70.48a3.188,3.188,0,0,0-.127-.762A.4.4,0,0,0,98.6,69.4" transform="translate(-35.828 -25.304)"/>
        <path id="패스_2031" data-name="패스 2031" class="cls-4" d="M97.1,74.9c-.064,0-.127,0-.127.064a.4.4,0,0,0-.191.508c.064.064.064.318.064.445v.064a.478.478,0,0,0,.318.445h.064a.4.4,0,0,0,.381-.318v-.191a2.284,2.284,0,0,0-.127-.7A.4.4,0,0,0,97.1,74.9" transform="translate(-35.281 -27.31)"/>
        <path id="패스_2032" data-name="패스 2032" class="cls-4" d="M100,78c-.064,0-.127,0-.127.064a.4.4,0,0,0-.191.508c0,.064.064.127.064.191v.318a.478.478,0,0,0,.318.445h.064a.4.4,0,0,0,.381-.318V79.08a.806.806,0,0,0-.064-.381.485.485,0,0,0-.127-.318c-.064-.318-.191-.381-.318-.381" transform="translate(-36.339 -28.44)"/>
        <path id="패스_2033" data-name="패스 2033" class="cls-4" d="M101.9,91h-.127a.4.4,0,0,0-.191.508c.064.064.064.318.064.445v.064a.478.478,0,0,0,.318.445h.064a.4.4,0,0,0,.381-.318v-.127a2.284,2.284,0,0,0-.127-.7c-.127-.191-.254-.318-.381-.318" transform="translate(-37.031 -33.18)"/>
        <path id="패스_2034" data-name="패스 2034" class="cls-4" d="M100.2,96.7h-.127a.4.4,0,0,0-.191.508c.064.064.064.318.064.445v.064a.478.478,0,0,0,.318.445h.064a.4.4,0,0,0,.381-.318v-.127a2.284,2.284,0,0,0-.127-.7.4.4,0,0,0-.381-.318" transform="translate(-36.412 -35.258)"/>
        <path id="패스_2035" data-name="패스 2035" class="cls-4" d="M104.1,94.8c-.064,0-.127,0-.127.064a.4.4,0,0,0-.191.508h0c.064.064.064.318.064.445v.064a.478.478,0,0,0,.318.445h.064a.4.4,0,0,0,.381-.318v-.191a2.284,2.284,0,0,0-.127-.7c-.064-.254-.191-.318-.381-.318" transform="translate(-37.834 -34.566)"/>
        <path id="패스_2036" data-name="패스 2036" class="cls-4" d="M97.2,92.7c-.064,0-.127,0-.127.064a.4.4,0,0,0-.191.508c.064,0,.064.254.064.381v.064a.478.478,0,0,0,.318.445h.064a.4.4,0,0,0,.381-.318v-.191a2.284,2.284,0,0,0-.127-.7A.4.4,0,0,0,97.2,92.7" transform="translate(-35.318 -33.8)"/>
        <path id="패스_2037" data-name="패스 2037" class="cls-2" d="M27.448,106s6.163,10.547,15.694,4.384l-1.334,10.484S28.782,126.523,23,110.321Z" transform="translate(-8.386 -38.649)"/>
        <path id="패스_2038" data-name="패스 2038" class="cls-4" d="M30,106" transform="translate(-10.938 -38.649)"/>
        <path id="패스_2039" data-name="패스 2039" class="cls-4" d="M27.411,106h0m0,0,0,0h0m0,0a16.134,16.134,0,0,0,4.638,4.7h0a16.134,16.134,0,0,1-4.638-4.7M22.9,110.257a21.94,21.94,0,0,0,4.066,7.243h0a22.62,22.62,0,0,1-4.066-7.243" transform="translate(-8.35 -38.649)"/>
        <path id="패스_2040" data-name="패스 2040" class="cls-4" d="M27.411,106h0L22.9,110.257a21.94,21.94,0,0,0,4.066,7.243l1.08-.635c1.08-.635,1.334-2.732,1.334-2.732a3.111,3.111,0,0,1,2.605-3.3A17.85,17.85,0,0,1,27.411,106Z" transform="translate(-8.35 -38.649)"/>
        <path id="패스_2041" data-name="패스 2041" class="cls-3" d="M41.566,105.791l2.033,3.622-4.511,4.257L37.5,107.7a10.034,10.034,0,0,1,4-2.1Z" transform="translate(-13.673 -38.503)"/>
        <path id="패스_2042" data-name="패스 2042" class="cls-2" d="M44.648,111.6s6.163,10.547,15.694,4.384l-1.334,10.484S45.982,132.123,40.2,115.921Z" transform="translate(-14.658 -40.691)"/>
        <path id="패스_2043" data-name="패스 2043" class="cls-4" d="M47.2,111.6m0,0h0m0,0h0m0,0Zm0,0a12.789,12.789,0,0,0,1.716,2.287A11.664,11.664,0,0,1,47.2,111.6" transform="translate(-17.21 -40.691)"/>
        <path id="패스_2044" data-name="패스 2044" class="cls-6" d="M46.327,115.2h0a21.1,21.1,0,0,0,1.716,1.588,10.547,10.547,0,0,1-1.716-1.588m1.716,1.588h0m0,0h0m0,.064h0m-7.942.318a21.939,21.939,0,0,0,4.066,7.243h0A22.62,22.62,0,0,1,40.1,117.17" transform="translate(-14.621 -42.004)"/>
        <path id="패스_2045" data-name="패스 2045" class="cls-4" d="M44.611,111.6h0L40.1,115.857a21.94,21.94,0,0,0,4.066,7.243l1.08-.635c1.08-.635,1.334-2.732,1.334-2.732a3.158,3.158,0,0,1,2.605-3.3,12.886,12.886,0,0,1-1.144-.826h0a21.1,21.1,0,0,1-1.716-1.588,14.78,14.78,0,0,1-1.716-2.414Z" transform="translate(-14.621 -40.691)"/>
        <path id="패스_2046" data-name="패스 2046" class="cls-4" d="M47.954,43.3c-5.337,4.575-8.9,5.21-8.9,5.21.762,2.923-2.414,5.909-3.3,6.8l-.254.254c5.464-4.638,9.467-4.829,9.467-4.829C43,47.811,47.954,43.3,47.954,43.3" transform="translate(-12.944 -15.788)"/>
        <path id="패스_2047" data-name="패스 2047" class="cls-3" d="M43.423,44.359a1.461,1.461,0,0,1-2.923,0A1.478,1.478,0,0,1,41.961,42.9a1.437,1.437,0,0,1,1.461,1.461" transform="translate(-14.767 -15.64)"/>
        <path id="패스_2048" data-name="패스 2048" class="cls-3" d="M60.5,52.952A1.652,1.652,0,1,1,58.852,51.3,1.682,1.682,0,0,1,60.5,52.952" transform="translate(-20.856 -18.705)"/>
        <path id="패스_2049" data-name="패스 2049" class="cls-3" d="M43.691,40.689a2.068,2.068,0,0,0-.191.826,1.6,1.6,0,0,0,.318,1.017,2.7,2.7,0,0,0,1.207.953.512.512,0,0,0,.572-.191.436.436,0,0,0-.191-.572,1.846,1.846,0,0,1-.826-.635,1.025,1.025,0,0,1-.191-.572.476.476,0,0,1,.064-.318v-.064h0l-.191-.064.191.127h0l-.191-.064.191.127a.436.436,0,0,0-.191-.572c-.254-.318-.508-.191-.572,0" transform="translate(-15.861 -14.765)"/>
        <path id="패스_2050" data-name="패스 2050" class="cls-3" d="M60.34,49.889l.191.127-.191-.127h0l.191.127-.191-.127h0l-.254.254a.949.949,0,0,1-.635.191,1.683,1.683,0,0,1-1.017-.381.414.414,0,0,0-.445.7,2.707,2.707,0,0,0,1.525.508,2.093,2.093,0,0,0,1.207-.381.946.946,0,0,0,.381-.445.414.414,0,0,0-.127-.572.477.477,0,0,0-.635.127" transform="translate(-21.073 -18.12)"/>
        <path id="패스_2051" data-name="패스 2051" class="cls-1" d="M5.544,68.886a3.469,3.469,0,0,0-.572.826,4.574,4.574,0,0,0-.572,2.1,3.526,3.526,0,0,0,.508,1.843.589.589,0,0,0,.762.191.589.589,0,0,0,.191-.762,2.633,2.633,0,0,1-.381-1.271,2.877,2.877,0,0,1,.445-1.525,5.861,5.861,0,0,0,.318-.508c.064-.064.064-.127.127-.127h0l-.127-.127.064.064h0l-.064-.064.064.064a.58.58,0,0,0,0-.762.519.519,0,0,0-.762.064" transform="translate(-1.604 -25.044)"/>
        <path id="패스_2052" data-name="패스 2052" class="cls-1" d="M1.779,66.5a9.035,9.035,0,0,0-.89,1.271A6.741,6.741,0,0,0,0,71.015a5.687,5.687,0,0,0,.762,2.859.589.589,0,0,0,.762.191.589.589,0,0,0,.191-.762,4.809,4.809,0,0,1-.635-2.287,5.51,5.51,0,0,1,.762-2.669c.191-.318.381-.635.508-.826q.191-.1.191-.191l.064-.064h0l-.127-.127.127.127h0l-.127-.127.127.127a.58.58,0,0,0,0-.762.6.6,0,0,0-.826,0" transform="translate(0 -24.187)"/>
        <path id="패스_2053" data-name="패스 2053" class="cls-7" d="M15.7,24.3s-.635,7.307-5.4,7.37c0,0,3.685-.254,5.4,5.909,0,0,.826-5.337,4.956-5.846,0-.064-5.973-.191-4.956-7.434" transform="translate(-3.756 -8.86)"/>
        <path id="패스_2054" data-name="패스 2054" class="cls-1" d="M63.007,33.317A1.206,1.206,0,0,1,61.8,32.11v-.762c.127-2.669.953-4.448,4.511-4.448h3.495a1.207,1.207,0,1,1,0,2.414H66.311c-1.652,0-1.97.191-2.1,2.16v.635a1.206,1.206,0,0,1-1.207,1.207" transform="translate(-22.533 -9.808)"/>
        <path id="패스_2055" data-name="패스 2055" class="cls-1" d="M57.907,30.251A1.206,1.206,0,0,1,56.7,29.043v-.762c.254-3.939,2.732-6.354,6.608-6.481h6.354a1.207,1.207,0,1,1,0,2.414h-6.29c-3.24.064-4.13,2.351-4.257,4.194v.635a1.249,1.249,0,0,1-1.207,1.207" transform="translate(-20.674 -7.949)"/>
        <path id="패스_2056" data-name="패스 2056" class="cls-1" d="M52.907,27.13A1.206,1.206,0,0,1,51.7,25.922V25.6a8.718,8.718,0,0,1,8.7-8.7h9.4a1.206,1.206,0,0,1,1.207,1.207,1.168,1.168,0,0,1-1.207,1.207h-9.34a6.373,6.373,0,0,0-6.354,6.354v.318a1.155,1.155,0,0,1-1.207,1.144" transform="translate(-18.851 -6.162)"/>
      </g>
      <g id="그룹_663" data-name="그룹 663" transform="translate(858 114.851)">
        <path id="패스_3012" data-name="패스 3012" class="cls-8" d="M76.685,23.332a3.028,3.028,0,0,1-3.032,3.032H65.332A3.028,3.028,0,0,1,62.3,23.332h0A3.028,3.028,0,0,1,65.332,20.3h8.257a3.043,3.043,0,0,1,3.1,3.032Z" transform="translate(-22.113 -7.217)"/>
        <path id="패스_3013" data-name="패스 3013" class="cls-8" d="M76.685,56.532a3.028,3.028,0,0,1-3.032,3.032H65.332A3.028,3.028,0,0,1,62.3,56.532h0A3.028,3.028,0,0,1,65.332,53.5h8.257a3.127,3.127,0,0,1,3.1,3.032Z" transform="translate(-22.113 -19.001)"/>
        <path id="패스_3014" data-name="패스 3014" class="cls-1" d="M42.4,32.316,54.979,48.829A4.869,4.869,0,0,0,58.913,50.7c.774,0,1.548.065,2.9.065a4.266,4.266,0,0,0,2.645-.516,2.712,2.712,0,0,0,.774-1.806,7.9,7.9,0,0,0,.129-1.226v-27.8c0-2.129.064-4.322,0-6.515a1.757,1.757,0,0,0-.452-1.29,2.81,2.81,0,0,0-1.871-.71h-4.9a3.349,3.349,0,0,0-2.387,1.484L46.335,23.414Z" transform="translate(-15.05 -3.881)"/>
        <g id="그룹_585" data-name="그룹 585" transform="translate(2.709 -0.034)">
          <path id="패스_3015" data-name="패스 3015" class="cls-4" d="M125.334,2.052C124.56-.141,123.27-.077,121.4-.012a8.452,8.452,0,0,0-3.354.71c-1.29.581-1.935,2-2.516,3.1h0c-.065.065-.065.194-.129.258h10.256A7.591,7.591,0,0,0,125.334,2.052Z" transform="translate(-43.67 0.034)"/>
          <path id="패스_3016" data-name="패스 3016" class="cls-1" d="M57.353,29.3H8.973A31.116,31.116,0,0,0,4.2,32.525a1.884,1.884,0,0,0,.581.129H57.417a1.678,1.678,0,1,0-.065-3.354Z" transform="translate(-4.2 -10.378)"/>
          <path id="패스_3017" data-name="패스 3017" class="cls-1" d="M112.626,10.4c-.387.839-.839,1.677-1.226,2.516h12.256l.258-2.516Z" transform="translate(-42.25 -3.67)"/>
          <path id="패스_3018" data-name="패스 3018" class="cls-8" d="M124.589,9.016l.258-2.387V6.5H114.59c-.452.839-.9,1.677-1.29,2.516Z" transform="translate(-42.924 -2.285)"/>
        </g>
        <path id="패스_3019" data-name="패스 3019" class="cls-4" d="M21.869,31.476a.578.578,0,0,1-.581.581H10.581A.578.578,0,0,1,10,31.476h0a.578.578,0,0,1,.581-.581H21.289c.323-.065.581.258.581.581Z" transform="translate(-3.549 -10.975)"/>
        <path id="패스_3020" data-name="패스 3020" class="cls-4" d="M34.332,31.476a.578.578,0,0,1-.581.581H31.881a.578.578,0,0,1-.581-.581h0a.578.578,0,0,1,.581-.581h1.871c.323-.065.581.258.581.581Z" transform="translate(-11.11 -10.975)"/>
        <path id="패스_3021" data-name="패스 3021" class="cls-4" d="M41.122,31.476a.578.578,0,0,1-.581.581H39.381a.578.578,0,0,1-.581-.581h0a.578.578,0,0,1,.581-.581h1.161c.323-.065.581.258.581.581Z" transform="translate(-13.772 -10.975)"/>
        <path id="패스_3022" data-name="패스 3022" class="cls-4" d="M46.742,31.476a.578.578,0,0,1-.581.581h-.581A.578.578,0,0,1,45,31.476h0a.578.578,0,0,1,.581-.581h.581c.323-.065.581.258.581.581Z" transform="translate(-15.972 -10.975)"/>
        <path id="패스_3023" data-name="패스 3023" class="cls-4" d="M51.226,31.476a.578.578,0,0,1-.581.581h-.065A.578.578,0,0,1,50,31.476h0a.578.578,0,0,1,.581-.581h.065c.323-.065.581.258.581.581Z" transform="translate(-17.747 -10.975)"/>
        <path id="패스_3024" data-name="패스 3024" class="cls-4" d="M55.226,31.476a.578.578,0,0,1-.581.581h-.065A.578.578,0,0,1,54,31.476h0a.578.578,0,0,1,.581-.581h.065c.323-.065.581.258.581.581Z" transform="translate(-19.167 -10.975)"/>
        <path id="패스_3025" data-name="패스 3025" class="cls-4" d="M59.126,31.476a.578.578,0,0,1-.581.581h-.065a.578.578,0,0,1-.581-.581h0a.578.578,0,0,1,.581-.581h.065c.323-.065.581.258.581.581Z" transform="translate(-20.551 -10.975)"/>
        <path id="패스_3026" data-name="패스 3026" class="cls-4" d="M63.126,31.476a.578.578,0,0,1-.581.581h-.065a.578.578,0,0,1-.581-.581h0a.578.578,0,0,1,.581-.581h.065c.323-.065.581.258.581.581Z" transform="translate(-21.971 -10.975)"/>
        <path id="패스_3027" data-name="패스 3027" class="cls-4" d="M67.026,31.476a.578.578,0,0,1-.581.581h-.065a.578.578,0,0,1-.581-.581h0a.578.578,0,0,1,.581-.581h.065c.323-.065.581.258.581.581Z" transform="translate(-23.355 -10.975)"/>
        <path id="패스_3028" data-name="패스 3028" class="cls-4" d="M71.026,31.476a.578.578,0,0,1-.581.581h-.065a.578.578,0,0,1-.581-.581h0a.578.578,0,0,1,.581-.581h.065c.323-.065.581.258.581.581Z" transform="translate(-24.775 -10.975)"/>
        <path id="패스_3029" data-name="패스 3029" class="cls-4" d="M74.926,31.476a.578.578,0,0,1-.581.581h-.065a.578.578,0,0,1-.581-.581h0a.578.578,0,0,1,.581-.581h.065c.323-.065.581.258.581.581Z" transform="translate(-26.159 -10.975)"/>
        <path id="패스_3030" data-name="패스 3030" class="cls-4" d="M78.926,31.476a.578.578,0,0,1-.581.581h-.065a.578.578,0,0,1-.581-.581h0a.578.578,0,0,1,.581-.581h.065c.323-.065.581.258.581.581Z" transform="translate(-27.579 -10.975)"/>
        <path id="패스_3031" data-name="패스 3031" class="cls-4" d="M82.826,31.476a.578.578,0,0,1-.581.581h-.065a.578.578,0,0,1-.581-.581h0a.578.578,0,0,1,.581-.581h.065c.323-.065.581.258.581.581Z" transform="translate(-28.963 -10.975)"/>
        <g id="그룹_586" data-name="그룹 586" transform="translate(0 9.277)">
          <path id="패스_3032" data-name="패스 3032" class="cls-4" d="M81.184,30.526l-.129.839L84.087,14.4H71.83c-.387.774-.774,1.548-1.161,2.258a9.271,9.271,0,0,1-6.773,5.16,2.194,2.194,0,0,1-.645.065H15.323a20.289,20.289,0,0,0-2.838.194,19.5,19.5,0,0,0-4.9,1.935H55.962a1.677,1.677,0,0,1,0,3.354H3.325a1.883,1.883,0,0,1-.581-.129c-.258.194-.516.452-.774.645A4.4,4.4,0,0,0,.1,31.494H80.99C80.99,31.43,81.184,30.591,81.184,30.526Z" transform="translate(-0.035 -14.4)"/>
          <path id="패스_3033" data-name="패스 3033" class="cls-8" d="M4.58,45.609H71.795c2.774,0,8.644-2,9.1-4.709H0v.065A4.612,4.612,0,0,0,4.58,45.609Z" transform="translate(0 -23.806)"/>
        </g>
        <path id="패스_3034" data-name="패스 3034" class="cls-1" d="M121.81,19.1h3.161a2.7,2.7,0,0,1,2.387,2.9v2.451a1.513,1.513,0,0,1-1.226,1.419,2.4,2.4,0,0,1-1.161-.129c-.516-.194-1.032-.452-1.548-.645-1.29-.581-2.516-1.1-3.806-1.677-1.032-.452-2.387-.774-2.967-1.806a2.1,2.1,0,0,1-.258-.839,1.219,1.219,0,0,1,.581-1.355,3.147,3.147,0,0,1,1.548-.258h3.29Z" transform="translate(-41.307 -6.791)"/>
      </g>
    </g>
    <g id="그룹_665" data-name="그룹 665" transform="translate(882.009 236.039)">
      <g id="그룹_575" data-name="그룹 575">
        <path id="패스_2907" data-name="패스 2907" class="cls-3" d="M31.2,15.8h-.4c-1.1.1-2.2,0-3.3.1-2.2.2-4,1.8-5.6,3.4a5.367,5.367,0,0,0-1.5,3.8,9.77,9.77,0,0,1-1.2,4.8,7.318,7.318,0,0,0-.1,3.3,8.272,8.272,0,0,0,.9,1.6,7.046,7.046,0,0,0,4.9,3.1,16.346,16.346,0,0,0,5.4-.2S47,36,43.7,22c-.2-1-2-1.7-2.7-2.5a8.431,8.431,0,0,0-6.7-3.3C33.2,16.1,32.3,15.8,31.2,15.8Z"/>
        <path id="패스_2908" data-name="패스 2908" class="cls-3" d="M11.5,12.1c1.6,2.2,4.1-.1,7-1.6,2.5-1.3,5.3-5.1,3.2-7-.7-.7-3.4-.5-4.8-.4-1.9.3-2.7-.1-3.8.6a9.217,9.217,0,0,0-3,3.5A3.617,3.617,0,0,0,9.4,10C9.6,11.1,10.9,11.3,11.5,12.1Z"/>
        <path id="패스_2909" data-name="패스 2909" class="cls-3" d="M56.7,17.6c1.9,2.6,4.9-.1,8.4-1.9,3-1.5,2.4-4.8-.1-7.1-1.9-1.8-4.2-2.4-6.5-1.1-2.2,1.3-4.3,5.7-4,8.2C54.7,16.3,56.4,17.2,56.7,17.6Z"/>
        <path id="패스_2910" data-name="패스 2910" class="cls-3" d="M17,18.2c-2.3-1.2-7.7-3.5-9.2-2.9a27.665,27.665,0,0,0-5.4,2.8C1,19,1.5,22.2.5,23.4s-.4,4.7.7,6.2c1.5,2.1,7.3,2.8,9,2.2,3.7-1.3,7.3-5.8,8.6-10C19.3,20.1,18.4,19,17,18.2Z"/>
        <path id="패스_2911" data-name="패스 2911" class="cls-3" d="M57.6,31.3c.6-2.1,2.6-5.3,1.9-6.5a23.711,23.711,0,0,0-3.2-3.9c-1-.9-3.5,0-4.7-.7-1.2-.6-4.6-1.2-5.6,0-1.5,1.6.9,5,1.7,6.3,1.7,2.8,3.7,6.6,7.4,6.9A2.653,2.653,0,0,0,57.6,31.3Z"/>
        <path id="패스_2912" data-name="패스 2912" class="cls-3" d="M38,1.9c-2-.5-4.5-2-5.6-1.2-1.3.9-6.3,2-7.4,3.1-.6.6-.4,1.7-.4,2.5a13.1,13.1,0,0,0,0,2.8,4.355,4.355,0,0,0,1.6,2.2c1.6,1.4,2.8,2.4,5.1,2.3a10.388,10.388,0,0,0,4.6-1.1c2.7-1.7,3.8-4.6,4.1-8.1C40.2,3,39.3,2.2,38,1.9Z"/>
        <path id="패스_2913" data-name="패스 2913" class="cls-3" d="M72.6,17.6c-2.2-.1-5.6-.8-6.6.2-1.2,1.2-3.9,2.4-4.8,3.8-.7,1.1.7,3.4.4,4.7s1.4,4,2.7,4.8c1.9,1.1,6.6-1,7.7-2a10.976,10.976,0,0,0,3.2-9.4C75,18.2,73.9,17.7,72.6,17.6Z"/>
        <path id="패스_2914" data-name="패스 2914" class="cls-3" d="M52.1,14.6s1,3.2-2.8,2.8a11.864,11.864,0,0,0-4.2.1,4.711,4.711,0,0,1-3.5-.1c-1.7-.8-2.3-2.2-2.5-4s1-2.9,2.2-3.9a4.924,4.924,0,0,0,1-1.5c.7-1.3,2.2-3.5,3.8-3.6,1.2-.1,2,1,2.6,2,1.1,1.3,2.8,2.3,3.2,4.1C52.1,11.8,51.7,13.4,52.1,14.6Z"/>
        <path id="패스_2915" data-name="패스 2915" class="cls-3" d="M44.6,3.5c.4-.3.8-.4,1.1-.9a1.216,1.216,0,0,0,.1-1.4,4.485,4.485,0,0,0-1.3-1A2.484,2.484,0,0,0,42.6.1c-.4.1-1.7.1-1.9.5-.6.8.5,2.8.9,3a2.41,2.41,0,0,0,1.5.4,1.817,1.817,0,0,0,1.4-.3C44.5,3.6,44.6,3.6,44.6,3.5Z"/>
        <path id="패스_2916" data-name="패스 2916" class="cls-3" d="M17.2,12.8a2.928,2.928,0,0,0-.7,1.6,1.332,1.332,0,0,0,1,1.4c.8.2,2.4,1.8,3.3,1.7a6.3,6.3,0,0,0,2.7-1,9.624,9.624,0,0,0,1.6-3.2c.1-1.1-3.1-2.4-3.7-2.4a6.436,6.436,0,0,0-2.4.5c-.8.3-1.3.4-1.6,1.1C17.3,12.6,17.3,12.7,17.2,12.8Z"/>
        <path id="패스_2917" data-name="패스 2917" class="cls-3" d="M50.9,2.5c-.4.4-.9.7-1.1,1.3a1.217,1.217,0,0,0,.7,1.6c.8.4,1.9,2.4,2.7,2.5a5.789,5.789,0,0,0,2.9-.3,9.1,9.1,0,0,0,2.3-2.8c.4-1.1-2.4-3.1-3-3.3a7.017,7.017,0,0,0-2.5-.1c-.8.1-1.3.1-1.8.7C51,2.4,50.9,2.4,50.9,2.5Z"/>
      </g>
      <g id="그룹_576" data-name="그룹 576">
        <path id="패스_2918" data-name="패스 2918" class="cls-9" d="M30.6,11.1a.367.367,0,0,1-.3-.1.616.616,0,0,1-.1-.7.494.494,0,0,0,.1-.3c0-.3.3-.4.5-.4.3,0,.4.3.4.5a1.909,1.909,0,0,1-.3.8C30.9,11.1,30.7,11.1,30.6,11.1Z"/>
        <path id="패스_2919" data-name="패스 2919" class="cls-9" d="M28.2,7.7a.367.367,0,0,1-.3-.1.616.616,0,0,1-.1-.7c.1,0,.2-.2.2-.3,0-.3.3-.4.5-.4.3,0,.4.3.4.5a1.909,1.909,0,0,1-.3.8A.4.4,0,0,1,28.2,7.7Z"/>
        <path id="패스_2920" data-name="패스 2920" class="cls-9" d="M34.3,5a.367.367,0,0,1-.3-.1.616.616,0,0,1-.1-.7c.1,0,.2-.2.2-.3,0-.3.3-.4.5-.4.3,0,.4.3.4.5a1.909,1.909,0,0,1-.3.8A.758.758,0,0,1,34.3,5Z"/>
        <path id="패스_2921" data-name="패스 2921" class="cls-9" d="M43.9,3.1c-.1,0-.2,0-.2-.1-.2-.1-.2-.4-.1-.6.1-.1.1-.3.2-.4a.43.43,0,0,1,.4-.4c.2,0,.4.2.3.4a1.909,1.909,0,0,1-.3.8C44.1,3.1,44,3.1,43.9,3.1Z"/>
        <path id="패스_2922" data-name="패스 2922" class="cls-9" d="M42.3,2.1c-.1,0-.2,0-.2-.1-.2-.1-.2-.4-.1-.6.1-.1.1-.3.2-.4,0-.2.2-.4.4-.3.2,0,.4.2.3.4a1.909,1.909,0,0,1-.3.8C42.5,2,42.4,2.1,42.3,2.1Z"/>
        <path id="패스_2923" data-name="패스 2923" class="cls-9" d="M32.1,8a.367.367,0,0,1-.3-.1.616.616,0,0,1-.1-.7.367.367,0,0,0,.1-.3c0-.3.3-.4.5-.4.3,0,.4.3.4.5a1.909,1.909,0,0,1-.3.8C32.4,8,32.2,8,32.1,8Z"/>
        <path id="패스_2924" data-name="패스 2924" class="cls-9" d="M30.7,4.8a.367.367,0,0,1-.3-.1.616.616,0,0,1-.1-.7.367.367,0,0,0,.1-.3c0-.3.3-.4.5-.4.3,0,.4.3.4.5a1.909,1.909,0,0,1-.3.8C31,4.8,30.9,4.8,30.7,4.8Z"/>
        <path id="패스_2925" data-name="패스 2925" class="cls-9" d="M14.4,10.9a.367.367,0,0,1-.3-.1.616.616,0,0,1-.1-.7.494.494,0,0,0,.1-.3c0-.3.3-.5.5-.4.3,0,.5.3.4.5a1.909,1.909,0,0,1-.3.8C14.6,10.9,14.5,10.9,14.4,10.9Z"/>
        <path id="패스_2926" data-name="패스 2926" class="cls-9" d="M12.4,8.3a.367.367,0,0,1-.3-.1.616.616,0,0,1-.1-.7.367.367,0,0,0,.1-.3c0-.3.3-.4.5-.4.3,0,.4.3.4.5a1.909,1.909,0,0,1-.3.8C12.7,8.2,12.6,8.3,12.4,8.3Z"/>
        <path id="패스_2927" data-name="패스 2927" class="cls-9" d="M15.7,6.3a.367.367,0,0,1-.3-.1.616.616,0,0,1-.1-.7.367.367,0,0,0,.1-.3c0-.3.3-.4.5-.4.3,0,.4.3.4.5a1.909,1.909,0,0,1-.3.8C16,6.2,15.9,6.3,15.7,6.3Z"/>
        <path id="패스_2928" data-name="패스 2928" class="cls-9" d="M19.9,6.8a.367.367,0,0,1-.3-.1.616.616,0,0,1-.1-.7.367.367,0,0,0,.1-.3c0-.3.3-.4.5-.4.3,0,.4.3.4.5a1.909,1.909,0,0,1-.3.8C20.1,6.8,20,6.8,19.9,6.8Z"/>
        <path id="패스_2929" data-name="패스 2929" class="cls-9" d="M17.2,8.9a.367.367,0,0,1-.3-.1.616.616,0,0,1-.1-.7.367.367,0,0,0,.1-.3c0-.3.3-.4.5-.4.3,0,.4.3.4.5a1.909,1.909,0,0,1-.3.8C17.4,8.9,17.3,8.9,17.2,8.9Z"/>
        <path id="패스_2930" data-name="패스 2930" class="cls-9" d="M37.5,26a.367.367,0,0,1-.3-.1.616.616,0,0,1-.1-.7.367.367,0,0,0,.1-.3c0-.3.3-.4.5-.4.3,0,.4.3.4.5a1.909,1.909,0,0,1-.3.8C37.8,25.9,37.6,26,37.5,26Z"/>
        <path id="패스_2931" data-name="패스 2931" class="cls-9" d="M22.8,30.6a.367.367,0,0,1-.3-.1.616.616,0,0,1-.1-.7.367.367,0,0,0,.1-.3c0-.3.3-.4.5-.4.3,0,.4.3.4.5a1.909,1.909,0,0,1-.3.8C23.1,30.5,23,30.6,22.8,30.6Z"/>
        <path id="패스_2932" data-name="패스 2932" class="cls-9" d="M40.6,28.4a.367.367,0,0,1-.3-.1.616.616,0,0,1-.1-.7.367.367,0,0,0,.1-.3c0-.3.3-.4.5-.4.3,0,.4.3.4.5a1.909,1.909,0,0,1-.3.8C40.8,28.4,40.7,28.4,40.6,28.4Z"/>
        <path id="패스_2933" data-name="패스 2933" class="cls-9" d="M34.1,27.2a.367.367,0,0,1-.3-.1.616.616,0,0,1-.1-.7.367.367,0,0,0,.1-.3c0-.3.3-.4.5-.4.3,0,.4.3.4.5a1.909,1.909,0,0,1-.3.8C34.4,27.1,34.2,27.2,34.1,27.2Z"/>
        <path id="패스_2934" data-name="패스 2934" class="cls-9" d="M25.9,29.2a.367.367,0,0,1-.3-.1.616.616,0,0,1-.1-.7.367.367,0,0,0,.1-.3c0-.3.3-.4.5-.4.3,0,.4.3.4.5a1.909,1.909,0,0,1-.3.8C26.1,29.2,26,29.2,25.9,29.2Z"/>
        <path id="패스_2935" data-name="패스 2935" class="cls-9" d="M33.1,32.1a.367.367,0,0,1-.3-.1.616.616,0,0,1-.1-.7.367.367,0,0,0,.1-.3c0-.3.3-.4.5-.4.3,0,.4.3.4.5a1.909,1.909,0,0,1-.3.8C33.4,32.1,33.3,32.1,33.1,32.1Z"/>
        <path id="패스_2936" data-name="패스 2936" class="cls-9" d="M32.2,19.6a.367.367,0,0,1-.3-.1.616.616,0,0,1-.1-.7.367.367,0,0,0,.1-.3c0-.3.3-.4.5-.4.3,0,.4.3.4.5a1.909,1.909,0,0,1-.3.8C32.5,19.5,32.3,19.6,32.2,19.6Z"/>
        <path id="패스_2937" data-name="패스 2937" class="cls-9" d="M26,32.9a.367.367,0,0,1-.3-.1.616.616,0,0,1-.1-.7.367.367,0,0,0,.1-.3c0-.3.3-.4.5-.4.3,0,.4.3.4.5a1.909,1.909,0,0,1-.3.8C26.3,32.9,26.1,32.9,26,32.9Z"/>
        <path id="패스_2938" data-name="패스 2938" class="cls-9" d="M24.8,22.1a.367.367,0,0,1-.3-.1.616.616,0,0,1-.1-.7.367.367,0,0,0,.1-.3c0-.3.3-.4.5-.4.3,0,.4.3.4.5a1.909,1.909,0,0,1-.3.8C25.1,22.1,25,22.1,24.8,22.1Z"/>
        <path id="패스_2939" data-name="패스 2939" class="cls-9" d="M37.6,30.9a.367.367,0,0,1-.3-.1.616.616,0,0,1-.1-.7.367.367,0,0,0,.1-.3c0-.3.3-.4.5-.4.3,0,.4.3.4.5a1.909,1.909,0,0,1-.3.8C37.9,30.8,37.7,30.9,37.6,30.9Z"/>
        <path id="패스_2940" data-name="패스 2940" class="cls-9" d="M35.9,8.1a.367.367,0,0,1-.3-.1.616.616,0,0,1-.1-.7.494.494,0,0,0,.1-.3c0-.3.3-.4.5-.4.3,0,.4.3.4.5a1.909,1.909,0,0,1-.3.8C36.2,8,36,8.1,35.9,8.1Z"/>
        <path id="패스_2941" data-name="패스 2941" class="cls-9" d="M37.6,5.3a.367.367,0,0,1-.3-.1.616.616,0,0,1-.1-.7.367.367,0,0,0,.1-.3c0-.3.3-.5.5-.4.3,0,.4.3.4.5a1.909,1.909,0,0,1-.3.8C37.9,5.2,37.7,5.3,37.6,5.3Z"/>
        <path id="패스_2942" data-name="패스 2942" class="cls-9" d="M34.2,11a.367.367,0,0,1-.3-.1.616.616,0,0,1-.1-.7.367.367,0,0,0,.1-.3c0-.3.3-.5.5-.4.3,0,.4.3.4.5a1.909,1.909,0,0,1-.3.8C34.5,10.9,34.3,11,34.2,11Z"/>
        <path id="패스_2943" data-name="패스 2943" class="cls-9" d="M43.5,15.7c-.1,0-.2,0-.2-.1-.2-.1-.2-.4-.1-.6a.367.367,0,0,0,.1-.3.4.4,0,0,1,.8,0,2.118,2.118,0,0,1-.3.7A.319.319,0,0,1,43.5,15.7Z"/>
        <path id="패스_2944" data-name="패스 2944" class="cls-9" d="M41.6,13.1c-.1,0-.2,0-.2-.1-.2-.1-.2-.4-.1-.6a.367.367,0,0,0,.1-.3.453.453,0,0,1,.9.1,2.118,2.118,0,0,1-.3.7C41.8,13,41.7,13.1,41.6,13.1Z"/>
        <path id="패스_2945" data-name="패스 2945" class="cls-9" d="M46.1,8a.367.367,0,0,1-.3-.1c-.2-.1-.2-.4-.1-.6,0-.1.1-.2.1-.3a.453.453,0,0,1,.9.1,2.118,2.118,0,0,1-.3.7C46.3,7.9,46.2,8,46.1,8Z"/>
        <path id="패스_2946" data-name="패스 2946" class="cls-9" d="M45.8,13.3a.367.367,0,0,1-.3-.1c-.2-.1-.2-.4-.1-.6,0-.1.1-.2.1-.3a.453.453,0,0,1,.9.1,2.118,2.118,0,0,1-.3.7C46,13.2,45.9,13.3,45.8,13.3Z"/>
        <path id="패스_2947" data-name="패스 2947" class="cls-9" d="M47.4,10.4a.367.367,0,0,1-.3-.1c-.2-.1-.2-.4-.1-.6,0-.1.1-.2.1-.3a.453.453,0,0,1,.9.1,2.118,2.118,0,0,1-.3.7C47.6,10.3,47.5,10.4,47.4,10.4Z"/>
        <path id="패스_2948" data-name="패스 2948" class="cls-9" d="M49.3,12.6c-.1,0-.2,0-.2-.1-.2-.1-.2-.4-.1-.6a.367.367,0,0,0,.1-.3.453.453,0,0,1,.9.1,2.118,2.118,0,0,1-.3.7A.52.52,0,0,1,49.3,12.6Z"/>
        <path id="패스_2949" data-name="패스 2949" class="cls-9" d="M48.1,15.9a.367.367,0,0,1-.3-.1c-.2-.1-.2-.4-.1-.6,0-.1.1-.2.1-.3a.453.453,0,0,1,.9.1,2.118,2.118,0,0,1-.3.7C48.3,15.8,48.2,15.9,48.1,15.9Z"/>
        <path id="패스_2950" data-name="패스 2950" class="cls-9" d="M44,10.9a.367.367,0,0,1-.3-.1c-.2-.1-.2-.4-.1-.6a.367.367,0,0,0,.1-.3.453.453,0,0,1,.9.1,2.118,2.118,0,0,1-.3.7C44.2,10.8,44.1,10.9,44,10.9Z"/>
        <path id="패스_2951" data-name="패스 2951" class="cls-9" d="M54.6,3.8a.367.367,0,0,1-.3-.1c-.2-.1-.2-.4-.1-.6a.367.367,0,0,0,.1-.3.453.453,0,0,1,.9.1,2.118,2.118,0,0,1-.3.7C54.8,3.8,54.7,3.8,54.6,3.8Z"/>
        <path id="패스_2952" data-name="패스 2952" class="cls-9" d="M53.3,6.5c-.1,0-.2,0-.2-.1a.348.348,0,0,1-.1-.5c0-.1.1-.2.1-.3a.35.35,0,0,1,.5-.3.458.458,0,0,1,.4.5,2.118,2.118,0,0,1-.3.7Z"/>
        <path id="패스_2953" data-name="패스 2953" class="cls-9" d="M52.1,4.3a.367.367,0,0,1-.3-.1c-.2-.1-.2-.4-.1-.6a.367.367,0,0,0,.1-.3.453.453,0,0,1,.9.1,2.118,2.118,0,0,1-.3.7C52.3,4.3,52.2,4.3,52.1,4.3Z"/>
        <path id="패스_2954" data-name="패스 2954" class="cls-9" d="M55.9,6c-.1,0-.2,0-.2-.1-.2-.1-.2-.4-.1-.6a.367.367,0,0,0,.1-.3.453.453,0,0,1,.9.1,2.118,2.118,0,0,1-.3.7C56.1,5.9,56,6,55.9,6Z"/>
        <path id="패스_2955" data-name="패스 2955" class="cls-9" d="M20.9,13.2a.367.367,0,0,1-.3-.1c-.2-.1-.2-.4-.1-.6a.367.367,0,0,0,.1-.3.453.453,0,1,1,.9.1,2.118,2.118,0,0,1-.3.7C21.1,13.1,21,13.2,20.9,13.2Z"/>
        <path id="패스_2956" data-name="패스 2956" class="cls-9" d="M19.4,15.3c-.1,0-.2,0-.2-.1-.2-.1-.2-.4-.1-.6,0-.1.1-.2.1-.3a.412.412,0,1,1,.8.2,2.118,2.118,0,0,1-.3.7A1.007,1.007,0,0,1,19.4,15.3Z"/>
        <path id="패스_2957" data-name="패스 2957" class="cls-9" d="M22,15.3c-.1,0-.2,0-.2-.1-.2-.1-.2-.4-.1-.6a.367.367,0,0,0,.1-.3.453.453,0,0,1,.9.1,2.118,2.118,0,0,1-.3.7C22.2,15.2,22.1,15.3,22,15.3Z"/>
        <path id="패스_2958" data-name="패스 2958" class="cls-9" d="M38.4,22.1a.367.367,0,0,1-.3-.1.616.616,0,0,1-.1-.7.367.367,0,0,0,.1-.3c0-.3.3-.4.5-.4.3,0,.4.3.4.5a1.909,1.909,0,0,1-.3.8C38.7,22.1,38.5,22.1,38.4,22.1Z"/>
        <path id="패스_2959" data-name="패스 2959" class="cls-9" d="M30.8,23.8a.367.367,0,0,1-.3-.1.616.616,0,0,1-.1-.7.367.367,0,0,0,.1-.3c0-.3.3-.4.5-.4.3,0,.4.3.4.5a1.909,1.909,0,0,1-.3.8C31.1,23.7,31,23.8,30.8,23.8Z"/>
        <path id="패스_2960" data-name="패스 2960" class="cls-9" d="M58.9,16.3a.367.367,0,0,1-.3-.1.616.616,0,0,1-.1-.7.494.494,0,0,0,.1-.3c0-.3.3-.5.5-.4.3,0,.4.3.4.5a1.909,1.909,0,0,1-.3.8C59.2,16.3,59.1,16.3,58.9,16.3Z"/>
        <path id="패스_2961" data-name="패스 2961" class="cls-9" d="M47.4,22.7a.367.367,0,0,1-.3-.1.616.616,0,0,1-.1-.7.494.494,0,0,0,.1-.3c0-.3.3-.5.5-.4.3,0,.5.3.4.5a1.909,1.909,0,0,1-.3.8C47.7,22.6,47.5,22.7,47.4,22.7Z"/>
        <path id="패스_2962" data-name="패스 2962" class="cls-9" d="M57.4,13.3a.367.367,0,0,1-.3-.1.616.616,0,0,1-.1-.7.494.494,0,0,0,.1-.3c0-.3.3-.4.5-.4.3,0,.4.3.4.5a1.909,1.909,0,0,1-.3.8C57.7,13.2,57.6,13.3,57.4,13.3Z"/>
        <path id="패스_2963" data-name="패스 2963" class="cls-9" d="M62.8,10.3a.367.367,0,0,1-.3-.1.616.616,0,0,1-.1-.7.367.367,0,0,0,.1-.3c0-.3.3-.4.5-.4.3,0,.4.3.4.5a1.909,1.909,0,0,1-.3.8C63.1,10.3,63,10.3,62.8,10.3Z"/>
        <path id="패스_2964" data-name="패스 2964" class="cls-9" d="M61,13.2a.367.367,0,0,1-.3-.1.616.616,0,0,1-.1-.7.494.494,0,0,0,.1-.3c0-.3.3-.4.5-.4.3,0,.4.3.4.5a1.909,1.909,0,0,1-.3.8C61.2,13.2,61.1,13.2,61,13.2Z"/>
        <path id="패스_2965" data-name="패스 2965" class="cls-9" d="M59.8,10.3a.367.367,0,0,1-.3-.1.616.616,0,0,1-.1-.7.367.367,0,0,0,.1-.3c0-.3.3-.4.5-.4.3,0,.4.3.4.5a1.909,1.909,0,0,1-.3.8C60.1,10.2,60,10.3,59.8,10.3Z"/>
        <path id="패스_2966" data-name="패스 2966" class="cls-9" d="M64.4,13.1a.367.367,0,0,1-.3-.1.616.616,0,0,1-.1-.7.494.494,0,0,0,.1-.3c0-.3.3-.4.5-.4.3,0,.4.3.4.5a1.909,1.909,0,0,1-.3.8C64.7,13,64.6,13.1,64.4,13.1Z"/>
        <path id="패스_2967" data-name="패스 2967" class="cls-9" d="M62.6,15.8a.367.367,0,0,1-.3-.1.616.616,0,0,1-.1-.7.367.367,0,0,0,.1-.3c0-.3.3-.5.5-.4.3,0,.4.3.4.5a1.909,1.909,0,0,1-.3.8C62.9,15.7,62.8,15.8,62.6,15.8Z"/>
        <path id="패스_2968" data-name="패스 2968" class="cls-9" d="M12.1,23.6a.367.367,0,0,1-.3-.1.616.616,0,0,1-.1-.7.494.494,0,0,0,.1-.3c0-.3.3-.4.5-.4.3,0,.4.3.4.5a1.909,1.909,0,0,1-.3.8C12.4,23.5,12.2,23.6,12.1,23.6Z"/>
        <path id="패스_2969" data-name="패스 2969" class="cls-9" d="M4.4,21a.367.367,0,0,1-.3-.1.616.616,0,0,1-.1-.7.494.494,0,0,0,.1-.3c0-.3.3-.4.5-.4.3,0,.4.3.4.5a1.909,1.909,0,0,1-.3.8C4.7,20.9,4.6,21,4.4,21Z"/>
        <path id="패스_2970" data-name="패스 2970" class="cls-9" d="M16,23.9a.367.367,0,0,1-.3-.1.616.616,0,0,1-.1-.7.367.367,0,0,0,.1-.3c0-.3.3-.4.5-.4.3,0,.4.3.4.5a1.909,1.909,0,0,1-.3.8C16.2,23.8,16.1,23.9,16,23.9Z"/>
        <path id="패스_2971" data-name="패스 2971" class="cls-9" d="M9.9,29.2a.367.367,0,0,1-.3-.1.616.616,0,0,1-.1-.7.367.367,0,0,0,.1-.3c0-.3.3-.4.5-.4.3,0,.4.3.4.5a1.909,1.909,0,0,1-.3.8C10.2,29.2,10,29.2,9.9,29.2Z"/>
        <path id="패스_2972" data-name="패스 2972" class="cls-9" d="M8.8,26a.367.367,0,0,1-.3-.1.616.616,0,0,1-.1-.7.494.494,0,0,0,.1-.3c0-.3.3-.4.5-.4.3,0,.4.3.4.5a1.909,1.909,0,0,1-.3.8C9.1,25.9,9,26,8.8,26Z"/>
        <path id="패스_2973" data-name="패스 2973" class="cls-9" d="M4.3,29.8a.367.367,0,0,1-.3-.1.616.616,0,0,1-.1-.7c.1-.1.1-.3.2-.3,0-.3.3-.4.5-.4.3,0,.4.3.4.5a1.909,1.909,0,0,1-.3.8A.758.758,0,0,1,4.3,29.8Z"/>
        <path id="패스_2974" data-name="패스 2974" class="cls-9" d="M14.6,20.7a.367.367,0,0,1-.3-.1.616.616,0,0,1-.1-.7.367.367,0,0,0,.1-.3c0-.3.3-.4.5-.4.3,0,.4.3.4.5a1.909,1.909,0,0,1-.3.8C14.9,20.6,14.7,20.7,14.6,20.7Z"/>
        <path id="패스_2975" data-name="패스 2975" class="cls-9" d="M7.2,19.6a.367.367,0,0,1-.3-.1.616.616,0,0,1-.1-.7.367.367,0,0,0,.1-.3c0-.3.3-.4.5-.4.3,0,.4.3.4.5a1.909,1.909,0,0,1-.3.8C7.4,19.5,7.3,19.6,7.2,19.6Z"/>
        <path id="패스_2976" data-name="패스 2976" class="cls-9" d="M6.3,23.6a.367.367,0,0,1-.3-.1.616.616,0,0,1-.1-.7.494.494,0,0,0,.1-.3c0-.3.3-.4.5-.4.3,0,.4.3.4.5a1.909,1.909,0,0,1-.3.8C6.6,23.5,6.5,23.6,6.3,23.6Z"/>
        <path id="패스_2977" data-name="패스 2977" class="cls-9" d="M2.5,25.7a.367.367,0,0,1-.3-.1c-.2-.1-.2-.4-.1-.6.1-.1.1-.3.2-.3,0-.3.3-.4.5-.4.3,0,.4.3.4.5a1.909,1.909,0,0,1-.3.8C2.8,25.7,2.7,25.7,2.5,25.7Z"/>
        <path id="패스_2978" data-name="패스 2978" class="cls-9" d="M69.6,21.5a.367.367,0,0,1-.3-.1.616.616,0,0,1-.1-.7.367.367,0,0,0,.1-.3c0-.3.3-.4.5-.4.3,0,.4.3.4.5a1.909,1.909,0,0,1-.3.8C69.9,21.4,69.8,21.5,69.6,21.5Z"/>
        <path id="패스_2979" data-name="패스 2979" class="cls-9" d="M72.7,23.9a.367.367,0,0,1-.3-.1.616.616,0,0,1-.1-.7.367.367,0,0,0,.1-.3c0-.3.3-.5.5-.4.3,0,.4.3.4.5a1.909,1.909,0,0,1-.3.8C73,23.8,72.9,23.9,72.7,23.9Z"/>
        <path id="패스_2980" data-name="패스 2980" class="cls-9" d="M64.7,22.7a.367.367,0,0,1-.3-.1.616.616,0,0,1-.1-.7.367.367,0,0,0,.1-.3c0-.3.3-.4.5-.4.3,0,.4.3.4.5a1.909,1.909,0,0,1-.3.8C64.9,22.6,64.8,22.7,64.7,22.7Z"/>
        <path id="패스_2981" data-name="패스 2981" class="cls-9" d="M65.3,28.5a.367.367,0,0,1-.3-.1.616.616,0,0,1-.1-.7.367.367,0,0,0,.1-.3c0-.3.3-.4.5-.4.3,0,.4.3.4.5a1.909,1.909,0,0,1-.3.8C65.6,28.5,65.4,28.5,65.3,28.5Z"/>
        <path id="패스_2982" data-name="패스 2982" class="cls-9" d="M67.1,26a.367.367,0,0,1-.3-.1.616.616,0,0,1-.1-.7.367.367,0,0,0,.1-.3c0-.3.3-.4.5-.4.3,0,.4.3.4.5a1.909,1.909,0,0,1-.3.8C67.4,25.9,67.3,26,67.1,26Z"/>
        <path id="패스_2983" data-name="패스 2983" class="cls-9" d="M70.2,27.3a.367.367,0,0,1-.3-.1.616.616,0,0,1-.1-.7.367.367,0,0,0,.1-.3c0-.3.3-.4.5-.4.3,0,.4.3.4.5a1.909,1.909,0,0,1-.3.8C70.5,27.2,70.4,27.3,70.2,27.3Z"/>
        <path id="패스_2984" data-name="패스 2984" class="cls-9" d="M55.6,25.5a.367.367,0,0,1-.3-.1.616.616,0,0,1-.1-.7.367.367,0,0,0,.1-.3c0-.3.3-.4.5-.4.3,0,.4.3.4.5a1.909,1.909,0,0,1-.3.8C55.9,25.5,55.8,25.5,55.6,25.5Z"/>
        <path id="패스_2985" data-name="패스 2985" class="cls-9" d="M53.8,28.4a.367.367,0,0,1-.3-.1.616.616,0,0,1-.1-.7c.1-.1.1-.3.2-.3,0-.3.3-.4.5-.4.3,0,.4.3.4.5a1.909,1.909,0,0,1-.3.8C54,28.4,53.9,28.4,53.8,28.4Z"/>
        <path id="패스_2986" data-name="패스 2986" class="cls-9" d="M54.7,31.2a.367.367,0,0,1-.3-.1.616.616,0,0,1-.1-.7.367.367,0,0,0,.1-.3c0-.3.3-.4.5-.4.3,0,.4.3.4.5a1.909,1.909,0,0,1-.3.8C54.9,31.1,54.8,31.2,54.7,31.2Z"/>
        <path id="패스_2987" data-name="패스 2987" class="cls-9" d="M50.3,27.7a.367.367,0,0,1-.3-.1.616.616,0,0,1-.1-.7.367.367,0,0,0,.1-.3c0-.3.3-.4.5-.4.3,0,.4.3.4.5a1.909,1.909,0,0,1-.3.8C50.6,27.7,50.4,27.7,50.3,27.7Z"/>
        <path id="패스_2988" data-name="패스 2988" class="cls-9" d="M51.8,24a.367.367,0,0,1-.3-.1.616.616,0,0,1-.1-.7c.1-.1.1-.3.2-.3,0-.3.3-.4.5-.4.3,0,.4.3.4.5a1.909,1.909,0,0,1-.3.8C52.1,24,52,24,51.8,24Z"/>
        <path id="패스_2989" data-name="패스 2989" class="cls-9" d="M57.2,28.3a.367.367,0,0,1-.3-.1.616.616,0,0,1-.1-.7.494.494,0,0,0,.1-.3c0-.3.3-.4.5-.4.3,0,.4.3.4.5a1.909,1.909,0,0,1-.3.8C57.5,28.2,57.4,28.3,57.2,28.3Z"/>
      </g>
    </g>
  </g>
</svg>
